<svg width="27" height="37" viewBox="0 0 27 37" fill="none" xmlns="http://www.w3.org/2000/svg">
<g filter="url(#filter0_d)">
<mask id="path-1-inside-1" fill="white">
<path fill-rule="evenodd" clip-rule="evenodd" d="M3.77067 16.9246L12.6638 32.328C13.0542 33.0041 14.0301 33.0041 14.4204 32.328L23.3136 16.9246C27.6564 9.40258 22.2278 0 13.5421 0C4.85638 2.46782e-06 -0.572196 9.40258 3.77067 16.9246ZM13.5 17C16.5376 17 19 14.5376 19 11.5C19 8.46243 16.5376 6 13.5 6C10.4624 6 8 8.46243 8 11.5C8 14.5376 10.4624 17 13.5 17Z"/>
</mask>
<path fill-rule="evenodd" clip-rule="evenodd" d="M3.77067 16.9246L12.6638 32.328C13.0542 33.0041 14.0301 33.0041 14.4204 32.328L23.3136 16.9246C27.6564 9.40258 22.2278 0 13.5421 0C4.85638 2.46782e-06 -0.572196 9.40258 3.77067 16.9246ZM13.5 17C16.5376 17 19 14.5376 19 11.5C19 8.46243 16.5376 6 13.5 6C10.4624 6 8 8.46243 8 11.5C8 14.5376 10.4624 17 13.5 17Z" fill="#5999D2"/>
<path d="M12.6638 32.328L13.5298 31.828L13.5298 31.828L12.6638 32.328ZM3.77067 16.9246L4.63669 16.4246L4.63669 16.4246L3.77067 16.9246ZM14.4204 32.328L15.2865 32.828L15.2865 32.828L14.4204 32.328ZM23.3136 16.9246L22.4475 16.4246L22.4475 16.4246L23.3136 16.9246ZM13.5421 0L13.5421 -1L13.5421 -1L13.5421 0ZM13.5298 31.828L4.63669 16.4246L2.90464 17.4246L11.7978 32.828L13.5298 31.828ZM13.5544 31.828C13.551 31.8338 13.5491 31.8354 13.5497 31.8349C13.55 31.8346 13.5508 31.834 13.5514 31.8337C13.5521 31.8332 13.549 31.8351 13.5421 31.8351C13.5353 31.8351 13.5321 31.8332 13.5328 31.8337C13.5334 31.834 13.5342 31.8346 13.5346 31.8349C13.5351 31.8354 13.5332 31.8338 13.5298 31.828L11.7978 32.828C12.573 34.1708 14.5112 34.1708 15.2865 32.828L13.5544 31.828ZM22.4475 16.4246L13.5544 31.828L15.2865 32.828L24.1796 17.4246L22.4475 16.4246ZM13.5421 1C21.458 1 26.4055 9.56924 22.4475 16.4246L24.1796 17.4246C28.9073 9.23591 22.9976 -1 13.5421 -1V1ZM4.63669 16.4246C0.67873 9.56925 5.62618 1 13.5421 1L13.5421 -1C4.08658 -0.999997 -1.82312 9.23591 2.90464 17.4246L4.63669 16.4246ZM18 11.5C18 13.9853 15.9853 16 13.5 16V18C17.0899 18 20 15.0899 20 11.5H18ZM13.5 7C15.9853 7 18 9.01472 18 11.5H20C20 7.91015 17.0899 5 13.5 5V7ZM9 11.5C9 9.01472 11.0147 7 13.5 7V5C9.91015 5 7 7.91015 7 11.5H9ZM13.5 16C11.0147 16 9 13.9853 9 11.5H7C7 15.0899 9.91015 18 13.5 18V16Z" fill="white" mask="url(#path-1-inside-1)"/>
</g>
<defs>
<filter id="filter0_d" x="0.242188" y="0" width="26.5998" height="36.8351" filterUnits="userSpaceOnUse" color-interpolation-filters="sRGB">
<feFlood flood-opacity="0" result="BackgroundImageFix"/>
<feColorMatrix in="SourceAlpha" type="matrix" values="0 0 0 0 0 0 0 0 0 0 0 0 0 0 0 0 0 0 127 0"/>
<feOffset dy="2"/>
<feGaussianBlur stdDeviation="1"/>
<feColorMatrix type="matrix" values="0 0 0 0 0 0 0 0 0 0 0 0 0 0 0 0 0 0 0.15 0"/>
<feBlend mode="normal" in2="BackgroundImageFix" result="effect1_dropShadow"/>
<feBlend mode="normal" in="SourceGraphic" in2="effect1_dropShadow" result="shape"/>
</filter>
</defs>
</svg>
