<svg width="27" height="37" viewBox="0 0 27 37" fill="none" xmlns="http://www.w3.org/2000/svg">
<g filter="url(#filter0_d)">
<mask id="path-1-inside-1" fill="white">
<path fill-rule="evenodd" clip-rule="evenodd" d="M3.52848 16.9246L12.4216 32.328C12.812 33.0041 13.7879 33.0041 14.1783 32.328L23.0714 16.9246C27.4142 9.40258 21.9857 0 13.2999 0C4.6142 2.46782e-06 -0.814383 9.40258 3.52848 16.9246ZM13.2578 17C16.2954 17 18.7578 14.5376 18.7578 11.5C18.7578 8.46243 16.2954 6 13.2578 6C10.2202 6 7.75781 8.46243 7.75781 11.5C7.75781 14.5376 10.2202 17 13.2578 17Z"/>
</mask>
<path fill-rule="evenodd" clip-rule="evenodd" d="M3.52848 16.9246L12.4216 32.328C12.812 33.0041 13.7879 33.0041 14.1783 32.328L23.0714 16.9246C27.4142 9.40258 21.9857 0 13.2999 0C4.6142 2.46782e-06 -0.814383 9.40258 3.52848 16.9246ZM13.2578 17C16.2954 17 18.7578 14.5376 18.7578 11.5C18.7578 8.46243 16.2954 6 13.2578 6C10.2202 6 7.75781 8.46243 7.75781 11.5C7.75781 14.5376 10.2202 17 13.2578 17Z" fill="#6EA756"/>
<path d="M12.4216 32.328L13.2876 31.828L13.2876 31.828L12.4216 32.328ZM3.52848 16.9246L4.39451 16.4246L4.39451 16.4246L3.52848 16.9246ZM14.1783 32.328L15.0443 32.828L15.0443 32.828L14.1783 32.328ZM23.0714 16.9246L22.2053 16.4246L22.2053 16.4246L23.0714 16.9246ZM13.2999 0L13.2999 -1L13.2999 -1L13.2999 0ZM13.2876 31.828L4.39451 16.4246L2.66246 17.4246L11.5556 32.828L13.2876 31.828ZM13.3122 31.828C13.3088 31.8338 13.307 31.8354 13.3075 31.8349C13.3079 31.8346 13.3086 31.834 13.3092 31.8337C13.3099 31.8332 13.3068 31.8351 13.2999 31.8351C13.2931 31.8351 13.2899 31.8332 13.2906 31.8337C13.2913 31.834 13.292 31.8346 13.2924 31.8349C13.2929 31.8354 13.291 31.8338 13.2876 31.828L11.5556 32.828C12.3308 34.1708 14.269 34.1708 15.0443 32.828L13.3122 31.828ZM22.2053 16.4246L13.3122 31.828L15.0443 32.828L23.9374 17.4246L22.2053 16.4246ZM13.2999 1C21.2159 1 26.1633 9.56924 22.2053 16.4246L23.9374 17.4246C28.6652 9.23591 22.7555 -1 13.2999 -1V1ZM4.39451 16.4246C0.436542 9.56925 5.384 1 13.2999 1L13.2999 -1C3.8444 -0.999997 -2.06531 9.23591 2.66246 17.4246L4.39451 16.4246ZM17.7578 11.5C17.7578 13.9853 15.7431 16 13.2578 16V18C16.8477 18 19.7578 15.0899 19.7578 11.5H17.7578ZM13.2578 7C15.7431 7 17.7578 9.01472 17.7578 11.5H19.7578C19.7578 7.91015 16.8477 5 13.2578 5V7ZM8.75781 11.5C8.75781 9.01472 10.7725 7 13.2578 7V5C9.66796 5 6.75781 7.91015 6.75781 11.5H8.75781ZM13.2578 16C10.7725 16 8.75781 13.9853 8.75781 11.5H6.75781C6.75781 15.0899 9.66796 18 13.2578 18V16Z" fill="white" mask="url(#path-1-inside-1)"/>
</g>
<defs>
<filter id="filter0_d" x="0" y="0" width="26.5998" height="36.8351" filterUnits="userSpaceOnUse" color-interpolation-filters="sRGB">
<feFlood flood-opacity="0" result="BackgroundImageFix"/>
<feColorMatrix in="SourceAlpha" type="matrix" values="0 0 0 0 0 0 0 0 0 0 0 0 0 0 0 0 0 0 127 0"/>
<feOffset dy="2"/>
<feGaussianBlur stdDeviation="1"/>
<feColorMatrix type="matrix" values="0 0 0 0 0 0 0 0 0 0 0 0 0 0 0 0 0 0 0.15 0"/>
<feBlend mode="normal" in2="BackgroundImageFix" result="effect1_dropShadow"/>
<feBlend mode="normal" in="SourceGraphic" in2="effect1_dropShadow" result="shape"/>
</filter>
</defs>
</svg>
