<svg width="403" height="305" viewBox="0 0 403 305" fill="none" xmlns="http://www.w3.org/2000/svg">
<path d="M157.036 266.726C160.802 268.025 163.53 271.271 164.699 275.037C165.868 279.063 166.128 283.218 164.829 287.633C162.621 294.905 154.958 297.243 149.373 292.049C146.385 289.192 144.177 285.685 141.449 282.569C139.761 280.621 137.683 278.933 135.475 276.855C134.566 278.543 135.085 279.972 135.475 281.53C136.514 285.166 137.553 288.932 138.332 292.568C139.761 299.191 134.825 305.034 128.071 304.904C125.993 304.904 124.305 304.125 123.395 302.177C121.447 297.503 119.239 292.828 117.81 288.023C113.004 271.141 108.718 254.26 104.042 237.378C102.614 232.184 100.665 227.119 98.9768 221.925C98.717 221.146 98.4573 220.367 98.1975 219.717C96.1193 212.316 97.8078 208.809 104.822 204.784C107.679 203.096 110.407 201.148 113.004 199.07C118.979 194.265 128.201 192.837 133.916 196.213C138.332 198.94 140.93 203.355 142.878 207.77C147.164 218.159 150.282 228.937 149.373 240.365C148.983 245.689 148.333 251.143 147.554 256.467C147.294 258.415 147.684 259.844 148.983 261.142C151.581 263.09 153.919 265.557 157.036 266.726ZM135.085 252.831C135.475 245.949 134.046 235.43 131.838 230.106C131.059 228.028 129.89 226.08 128.591 224.262C126.643 221.665 124.045 220.497 120.278 221.406C122.097 232.314 125.214 242.572 127.682 252.831C130.539 252.831 132.877 252.831 135.085 252.831Z" fill="#2C2C2C"/>
<path d="M120.538 155.957C116.122 156.996 112.615 157.905 108.848 158.684C108.848 160.502 108.848 162.061 108.848 163.619C108.978 168.294 109.238 172.839 109.238 177.514C109.238 181.539 107.16 184.396 103.523 186.084C99.7562 187.772 95.8596 188.422 91.8332 188.032C86.8975 187.513 85.5986 185.305 85.4688 181.799C85.3389 176.345 84.8193 170.891 84.5596 165.567C83.9101 154.529 83.1308 143.621 82.3515 132.583C82.2216 130.895 81.5722 129.206 81.0526 127.518C79.3641 121.545 79.7538 117.519 86.378 113.234C90.1447 110.767 94.4309 109.338 98.9769 108.819C103.393 108.429 104.952 109.468 105.471 113.753C106.251 120.895 106.77 128.038 107.29 135.18C107.419 136.998 107.419 138.946 107.549 141.413C111.576 140.374 115.083 139.465 119.109 138.296C118.07 128.168 116.901 118.039 115.862 107.65C120.538 103.624 126.253 101.806 132.358 101.547C137.163 101.287 138.852 102.585 139.761 107.26C140.93 114.013 141.969 120.766 142.489 127.518C143.658 141.543 144.437 155.568 145.476 169.462C145.476 170.112 145.606 170.761 145.606 171.41C145.866 182.318 138.852 185.954 130.02 185.565C127.032 185.435 124.694 183.747 124.045 180.89C123.006 176.345 122.356 171.8 121.837 167.255C121.058 163.749 120.928 160.113 120.538 155.957Z" fill="#2C2C2C"/>
<path d="M181.324 158.944C177.168 159.463 173.142 159.853 168.596 160.502C168.466 162.19 168.336 163.879 168.206 165.567C168.076 169.333 167.946 173.228 167.816 176.994C167.686 179.462 166.388 180.63 163.92 181.02C157.166 182.059 151.84 178.553 150.542 171.93C150.152 169.722 149.892 167.515 150.022 165.307C151.061 149.075 152.1 132.842 153.269 116.74C153.919 107.52 155.088 98.43 155.867 89.21C155.997 87.1323 156.516 85.4441 158.335 84.4053C163.53 81.4185 168.855 79.2109 174.96 79.2109C180.026 79.2109 184.702 82.1977 186.39 87.6517C189.377 97.521 192.235 107.52 194.962 117.389C197.95 128.297 200.548 139.205 203.405 150.114C203.795 151.412 204.574 152.711 205.483 153.75C211.588 161.411 209.12 172.579 200.288 176.864C198.469 177.773 196.391 178.423 194.443 178.682C189.118 179.591 186.39 178.033 184.831 172.579C183.533 168.424 182.623 164.008 181.324 158.944ZM178.077 138.686C175.609 127.778 173.401 117.519 171.063 107.26C170.674 107.26 170.154 107.39 169.765 107.39C169.505 118.039 169.115 128.817 168.855 140.244C172.232 139.725 175.09 139.205 178.077 138.686Z" fill="#2C2C2C"/>
<path d="M263.153 251.663C266.27 249.844 270.686 250.494 273.154 252.831C274.583 254.13 275.881 255.428 277.18 256.727C279.388 258.935 282.376 260.233 285.753 260.753C287.311 261.012 289.39 260.363 290.688 259.454C292.507 258.285 291.728 256.597 290.429 255.428C289.13 254.13 287.571 252.961 285.883 252.182C280.557 249.585 275.232 247.117 269.777 244.78C257.957 239.845 252.372 231.794 250.554 221.665C249.645 216.731 249.644 211.796 250.424 206.991C250.554 205.952 250.813 204.784 251.203 203.745C252.372 200.628 253.541 197.512 254.58 194.395C256.658 188.422 261.074 184.396 268.868 183.097C277.57 181.799 285.493 182.578 291.338 188.551C297.962 195.304 299.78 202.966 297.053 211.147C295.754 214.783 291.987 216.471 287.571 217.38C284.454 217.899 283.545 215.952 282.636 214.523C280.168 210.497 276.401 207.9 270.946 206.991C269.127 211.666 270.686 216.861 275.622 219.588C281.467 222.834 287.571 225.821 293.806 228.548C299.131 230.885 304.197 233.612 306.924 238.027C309.132 241.534 311.081 245.429 311.73 249.195C312.509 253.481 312.379 258.026 311.47 262.441C310.041 269.193 305.236 273.738 296.533 275.946C288.221 278.154 280.427 278.283 272.245 275.946C261.594 272.959 257.438 261.532 260.035 255.299C260.945 253.481 261.724 252.442 263.153 251.663Z" fill="#2C2C2C"/>
<path d="M48.8409 140.763C48.9707 141.932 48.8409 142.581 48.9707 143.231C50.7891 153.749 53.5167 163.878 57.9329 173.618C60.4007 179.072 63.9076 181.02 69.6226 179.981C71.441 179.591 73.3893 179.202 75.3376 178.682C77.5456 178.163 79.7537 179.202 80.6629 181.279C82.6112 185.824 83.1307 190.499 81.702 195.564C80.4031 199.979 77.2859 202.576 72.8697 203.355C65.726 204.784 59.1018 203.485 53.3869 198.421C47.4121 193.226 43.9052 186.474 41.1776 179.331C38.8396 173.098 36.7615 166.605 34.9431 160.112C33.2545 153.879 32.9948 147.256 33.7741 140.893C34.0339 138.036 35.5925 135.309 36.6316 132.582C37.1511 131.154 37.9304 129.596 38.7098 128.297C40.2684 125.44 41.5672 122.194 43.6454 119.856C49.4903 113.623 56.2444 113.623 61.3099 121.544C65.3364 127.907 67.1548 135.05 67.1548 142.581C67.1548 148.036 63.1283 151.022 57.1536 150.243C54.5558 147.256 54.2961 142.192 48.8409 140.763Z" fill="#2C2C2C"/>
<path d="M214.705 226.6C214.186 237.118 213.666 247.117 210.809 256.727C205.743 273.738 192.884 279.582 176.649 275.816C165.868 273.349 160.673 265.947 158.335 255.818C156.257 247.247 156.386 238.547 156.646 229.846C156.906 222.185 158.335 214.783 160.803 207.511C160.932 206.991 160.932 206.342 161.192 205.952C166.518 198.68 171.064 190.499 179.246 186.084C186.26 182.188 193.664 183.227 200.418 187.772C205.224 191.019 208.73 195.434 210.549 200.888C212.627 207.251 214.575 213.744 214.316 220.626C214.316 222.834 214.575 225.042 214.705 226.6ZM190.546 258.545C191.066 254.13 191.845 250.234 192.105 246.338C192.755 237.248 193.664 228.158 191.456 219.198C190.157 213.614 186.91 209.588 181.195 206.991C180.805 208.55 180.415 209.588 180.285 210.497C179.766 217.38 179.116 224.262 179.116 231.145C179.116 236.989 179.636 242.702 180.285 248.546C181.065 254.26 183.792 256.857 190.546 258.545Z" fill="#2C2C2C"/>
<path d="M336.408 122.843C335.759 126.999 335.109 130.375 334.46 134.011C340.565 136.998 346.669 139.855 352.644 142.842C356.671 144.79 357.71 147.257 356.021 151.282C354.592 154.789 351.865 156.217 347.838 155.048C344.981 154.139 342.253 152.841 339.396 151.672C337.188 150.763 334.98 149.984 332.122 148.815C331.603 151.412 331.083 153.49 330.563 155.957C336.278 158.295 341.864 160.632 347.449 162.97C349.007 163.619 350.696 164.398 352.384 164.918C354.852 165.697 355.502 167.255 355.372 169.592C355.112 175.176 350.696 178.942 345.37 177.514C336.668 175.176 327.966 172.709 319.393 169.592C316.146 168.424 313.289 165.697 310.821 163.1C308.093 160.113 307.184 156.607 307.833 152.062C309.782 139.465 311.081 126.869 312.379 114.143C312.639 111.935 311.99 109.728 311.73 107.52C311.47 105.183 311.081 102.715 311.081 100.378C311.21 96.7419 312.769 95.3135 316.276 96.0926C319.783 96.8718 323.55 97.7808 326.667 99.469C339.785 106.481 352.644 113.624 365.633 121.025C370.179 123.623 370.698 131.025 366.282 134.141C364.853 135.18 362.256 135.18 360.437 134.79C357.839 134.141 355.372 132.843 353.034 131.674C348.098 128.817 342.643 126.09 336.408 122.843Z" fill="#2C2C2C"/>
<path d="M254.45 148.165C253.411 150.633 252.762 152.71 251.333 154.918C247.307 161.671 241.072 164.787 233.409 165.047C227.824 165.307 222.109 164.268 217.173 161.671C207.302 156.347 204.964 147.516 207.432 137.127C208.211 133.751 210.549 130.764 214.575 130.375C216.783 130.115 218.472 130.635 219.641 132.972C221.459 136.608 223.538 140.244 226.005 143.62C227.044 145.049 228.863 146.088 230.551 146.607C231.59 146.867 233.669 146.218 234.188 145.309C234.838 144.4 234.708 142.322 234.058 141.413C232.37 138.946 230.292 136.608 228.213 134.53C224.187 130.505 220.031 126.609 215.874 122.454C208.86 115.311 206.522 106.351 209.25 97.3909C212.627 86.4828 220.16 79.86 232.889 83.2363C237.435 84.405 241.722 86.0932 245.358 88.9501C250.034 92.4562 252.242 97.261 251.723 103.105C251.073 110.377 244.189 112.195 238.474 109.338C237.565 108.818 236.916 107.39 236.526 106.221C234.708 102.196 231.85 99.5984 227.304 98.17C226.005 102.325 226.655 105.832 229.902 108.559C234.318 112.454 238.474 116.61 243.15 120.116C252.502 127.128 255.879 136.478 254.45 147.776V148.165Z" fill="#2C2C2C"/>
<path d="M257.957 146.607C258.347 145.568 258.347 145.828 258.866 144.789C260.165 141.802 262.503 140.893 265.361 140.893C267.958 140.893 269.517 142.062 270.816 144.659C272.634 148.555 275.102 152.061 277.7 155.437C278.609 156.736 280.557 157.645 282.116 158.035C284.324 158.554 286.013 156.866 285.103 154.658C284.064 152.191 282.506 149.854 280.817 147.906C276.141 142.841 271.076 138.166 266.66 133.102C260.165 125.7 257.827 116.999 260.035 107.39C260.685 104.533 261.984 102.066 264.322 100.248C265.101 99.5984 265.75 98.9491 266.4 98.1699C268.997 94.5339 272.634 93.3652 276.921 93.8846C285.883 95.1832 293.806 98.8192 299.91 105.572C303.417 109.338 305.236 113.883 303.807 119.207C302.768 123.103 300.56 124.921 296.533 124.661C292.507 124.401 289.26 123.233 287.701 118.817C286.272 114.662 282.895 111.805 278.479 110.247C277.44 114.792 278.219 118.428 282.246 121.544C285.753 124.142 288.87 127.258 291.728 130.634C296.274 136.089 302.768 140.244 304.456 147.646C306.924 157.905 303.937 167.255 295.105 172.579C291.338 174.916 287.182 175.046 283.025 174.916C276.921 174.786 271.076 173.358 265.75 169.852C260.035 166.216 257.308 160.891 257.048 154.269C256.918 152.581 257.178 151.412 257.308 149.983C257.438 148.945 257.568 147.776 257.957 146.607Z" fill="#2C2C2C"/>
<path d="M101.834 272.051C103.393 271.661 105.081 272.44 105.601 273.998C106.25 275.687 106.9 277.245 107.03 278.803C108.199 287.504 103.393 294.776 94.5607 297.892C91.5733 298.931 88.4561 299.71 85.3388 300.36C77.9353 301.788 72.7399 298.152 68.7134 292.308C64.0375 285.686 61.4398 278.154 59.4915 270.492C57.1536 261.402 54.8156 252.312 54.1662 242.832C53.6466 235.171 54.0363 227.769 61.3099 222.834C62.4789 222.055 63.2582 220.757 64.1674 219.588C68.4536 214.653 74.0387 212.705 80.2732 212.576C83.91 212.446 87.1572 213.874 89.1055 216.731C93.0021 222.704 95.2101 229.327 93.7814 236.729C93.0021 240.625 90.6641 242.832 86.7675 243.482C82.2215 244.261 81.3123 243.612 78.9744 238.807C78.5847 237.898 78.0652 236.989 77.5456 236.21C76.5066 234.522 75.2077 233.093 72.2203 233.483C72.8697 237.768 73.2594 242.183 74.1686 246.469C75.3376 251.793 76.7663 256.987 78.1951 262.181C78.7146 263.999 79.2342 265.688 80.0135 267.376C82.871 273.609 86.248 275.557 92.6124 274.388C95.7297 273.739 98.5872 272.96 101.834 272.051Z" fill="#2C2C2C"/>
<path d="M327.836 212.056C328.745 215.822 329.654 219.458 330.693 223.483C334.72 221.795 338.227 220.497 341.734 219.068C342.643 218.679 343.422 218.159 344.331 217.899C347.319 216.99 348.358 217.51 349.007 220.626C349.267 221.925 349.527 223.094 349.786 224.392C350.566 228.418 349.657 230.755 346.02 232.833C343.292 234.391 340.305 235.56 337.447 236.989C336.668 237.378 335.889 238.027 334.85 238.677C335.369 240.884 336.019 242.962 336.668 245.429C341.734 243.352 346.409 241.404 351.085 239.456C353.683 238.417 356.8 239.586 357.839 242.183C359.788 246.858 358.489 252.442 354.203 255.299C348.098 259.324 341.474 262.96 334.33 264.259C326.537 265.687 322.77 263.999 320.822 256.208C317.705 244.001 314.328 231.924 310.951 219.717C310.691 218.679 310.041 217.64 309.652 216.731C308.353 213.874 306.794 211.017 305.885 208.03C304.456 203.096 306.405 198.94 311.21 197.122C318.094 194.655 325.108 192.577 332.252 190.629C333.811 190.24 335.369 189.85 336.928 189.46C341.863 188.422 346.669 191.798 347.449 196.733C347.449 196.733 347.449 196.733 347.449 196.862C348.228 201.537 346.409 204.394 341.993 206.342C337.447 208.29 332.771 209.978 327.836 212.056Z" fill="#2C2C2C"/>
<path d="M217.173 268.414C217.563 262.7 217.952 256.987 218.342 251.273C219.121 242.053 219.901 232.833 220.68 223.613C220.94 219.977 221.589 216.341 221.719 212.705C222.109 206.212 222.109 199.719 222.368 193.096C222.498 190.889 222.758 188.681 223.408 186.474C224.317 183.227 226.785 181.539 229.772 180.5C230.681 180.24 231.59 180.111 232.629 179.981C242.371 179.721 245.488 182.318 244.449 191.798C243.02 205.173 241.851 218.419 240.553 231.794C239.773 239.586 239.254 247.377 238.734 255.169C238.604 256.597 238.994 258.415 239.773 259.714C243.15 264.908 241.072 269.843 238.474 274.128C235.877 278.413 231.331 280.361 226.005 279.582C225.875 279.582 225.746 279.582 225.486 279.452C218.602 278.413 217.173 276.725 217.173 269.713C217.173 269.193 217.173 268.804 217.303 268.284C217.303 268.414 217.173 268.414 217.173 268.414Z" fill="#2C2C2C"/>
<path d="M365.762 96.4823C365.373 99.2093 364.204 101.806 362.256 103.754C359.918 106.222 357.32 106.741 353.813 106.092C350.436 105.442 346.799 104.663 343.812 102.975C340.305 101.157 340.565 96.2226 344.201 94.6643C349.916 92.3268 355.891 90.3789 361.866 88.5609C364.594 87.7818 366.282 89.8595 366.282 92.197C366.152 93.7553 365.892 95.1837 365.762 96.4823Z" fill="#2C2C2C"/>
<g clip-path="url(#clip0)">
<path d="M215.501 29.263C214.898 28.7809 214.697 27.897 215.018 27.2541C215.42 26.4908 216.385 25.4461 218.635 24.3212C218.635 24.3212 221.368 23.0757 221.449 23.0757C221.65 23.0355 222.092 23.0355 222.494 23.9596C222.895 24.8837 224.543 28.4997 223.418 29.4237C222.413 30.2675 217.791 31.1514 215.501 29.263Z" fill="#2C2C2C"/>
<path d="M195.889 60.6425C195.889 60.6425 196.331 61.8479 197.778 61.2854C197.778 61.2854 198.944 60.7229 199.305 59.2363C199.667 57.7899 201.274 49.674 210.156 46.2589C210.719 46.058 211.322 45.8973 211.924 45.7768C213.05 45.5759 214.818 45.2544 215.381 45.1741C216.184 45.0536 218.475 45.1339 219.359 43.2857C220.284 41.4376 218.113 40.634 218.113 40.634C218.113 40.634 208.227 36.9778 201.114 43.8482C193.96 50.6784 195.889 60.6425 195.889 60.6425Z" fill="#2C2C2C"/>
<path d="M214.294 66.6279C217.735 66.6279 220.524 63.8398 220.524 60.4004C220.524 56.961 217.735 54.1729 214.294 54.1729C210.854 54.1729 208.065 56.961 208.065 60.4004C208.065 63.8398 210.854 66.6279 214.294 66.6279Z" fill="#2C2C2C"/>
<path d="M216.465 46.0571C215.621 46.2178 214.455 46.4187 213.611 46.5794C212.968 46.7 212.325 46.8607 211.682 47.1018C203.122 50.3963 200.751 57.789 200.068 60.5613C200.108 61.164 200.148 61.7666 200.269 62.3693C201.555 70.0834 208.869 75.3065 216.585 74.0208C224.301 72.7352 229.526 65.4228 228.24 57.7087C227.195 51.5213 222.332 46.9812 216.465 46.0571ZM215.581 68.0745C211.321 68.7977 207.342 65.9049 206.618 61.6863C205.895 57.4274 208.789 53.4498 213.008 52.7266C217.268 52.0034 221.247 54.8962 221.97 59.1149C222.694 63.3336 219.84 67.3513 215.581 68.0745Z" fill="#2C2C2C"/>
<path d="M122.826 55.8616C105.384 60.4017 105.424 73.58 105.665 75.7094C111.412 75.388 123.268 74.4639 140.468 71.7318C140.589 71.5711 140.669 71.3702 140.629 71.1693C140.388 67.5131 138.338 51.8036 122.826 55.8616Z" fill="#2C2C2C"/>
<path d="M137.615 73.6982C135.285 74.0598 133.074 74.3813 130.944 74.6625C130.944 74.7429 130.984 74.783 130.984 74.8634C131.748 79.3633 128.694 83.582 124.233 84.3454C119.772 85.1087 115.512 82.0552 114.748 77.5955C114.708 77.2741 114.668 76.9526 114.668 76.6312C112.136 76.8723 109.885 77.0732 107.956 77.2339C107.996 77.716 108.037 78.2383 108.117 78.7606C109.483 86.9167 117.2 92.4211 125.358 91.055C133.516 89.689 139.022 81.9749 137.656 73.8188C137.615 73.6982 137.615 73.6982 137.615 73.6982Z" fill="#2C2C2C"/>
<path d="M116.155 76.5512C116.155 76.8324 116.195 77.0735 116.235 77.3547C116.838 81.0109 120.294 83.4618 123.911 82.8591C127.568 82.2564 130.02 78.8011 129.417 75.1851C129.417 75.1449 129.377 75.0646 129.377 75.0244C124.273 75.6673 119.852 76.1896 116.155 76.5512Z" fill="#2C2C2C"/>
<path d="M194 58.6332C185.48 61.0841 150.596 67.6732 143.523 68.8384C142.88 68.9589 142.478 68.9991 142.358 69.0393H142.277C142.398 69.9232 142.478 70.2446 142.519 70.7669C142.519 71.008 142.519 71.2088 142.438 71.3696C156.625 69.1196 173.986 65.7849 194.362 60.7626C194.281 60.0395 194.241 59.5171 194.241 58.5127L194 58.6332Z" fill="#2C2C2C"/>
<path fill-rule="evenodd" clip-rule="evenodd" d="M82.1143 24.4815C115.953 18.6156 185.278 7.20511 188.654 6.64262C188.775 6.64262 188.815 6.60244 188.935 6.60244C190.503 6.3212 203.524 3.79 208.949 0.294533C209.311 0.0534669 209.753 0.254356 209.673 0.696311C208.869 3.83018 201.514 9.29435 175.955 12.1068L121.62 21.1468C118.565 28.8609 113.743 30.0662 111.733 29.6243C110.97 29.3431 109.965 28.3386 112.175 26.6511C114.225 25.0842 114.466 23.2762 114.345 22.3923L110.005 23.0753C107.835 23.4771 105.022 23.9994 101.967 24.4815C98.9131 32.1555 94.1307 33.2001 92.081 32.7582C91.3175 32.4769 90.3127 31.4725 92.5231 29.785C94.5325 28.2582 94.8139 26.4502 94.6933 25.5262C89.5492 26.169 84.6462 26.5708 82.0339 26.2092C81.5516 26.1288 81.2703 25.6467 81.3909 25.1646C81.5114 24.803 81.7928 24.5217 82.1143 24.4815Z" fill="#2C2C2C"/>
<path d="M149.591 38.1021L154.253 65.2221L190.061 58.191C190.623 58.0704 191.226 57.9097 191.789 57.749C192.593 57.5079 193.276 57.2669 193.838 57.066C193.959 52.9679 195.165 47.6242 199.907 43.0038C208.105 35.0084 219.479 39.2672 219.479 39.2672C219.479 39.2672 222.091 40.1913 221.368 42.4413C220.724 44.4502 220.644 44.9323 219.639 45.0528C223.779 46.0171 224.984 47.6644 226.994 51.4411C229.003 50.8384 230.169 50.8384 232.259 50.2358C232.942 50.0349 233.384 49.3518 233.304 48.6287C232.861 45.4144 231.013 36.6959 223.899 30.8701C221.689 31.7942 216.384 32.5174 213.611 30.3879C212.807 29.7853 212.486 28.6603 213.008 27.7764C213.249 27.2943 213.692 26.7719 214.415 26.1693C212.848 25.7675 211.16 25.4863 209.351 25.3657C209.351 25.3657 205.212 24.6827 187.609 27.2541C187.609 27.2541 177.602 16.6472 171.574 15.7632C170.248 15.5624 168.801 15.3615 166.912 15.3213L142.477 19.3792C140.066 20.0623 137.494 20.8256 134.641 21.7497C131.787 22.6738 123.348 28.2987 121.218 30.3879C116.596 34.928 107.754 44.1287 98.712 56.9053C96.7026 59.7177 95.1755 62.8516 94.2913 66.1863C93.0455 70.847 93.0053 76.2308 99.4354 75.9094C99.4354 75.9094 100.922 75.9094 103.776 75.7486C103.535 73.4183 103.494 58.9945 122.624 54.0125C137.132 50.2358 140.83 61.3248 141.794 67.4318C141.955 67.3917 146.898 66.5881 152.364 65.6238L147.903 39.669C140.83 41.1154 123.589 44.4903 121.74 44.6912C119.329 44.9323 119.65 42.602 119.65 42.602C124.915 27.8969 142.035 23.5176 146.135 22.6336C146.617 22.5533 147.059 22.8345 147.139 23.3167L149.39 36.736L149.591 38.1021ZM182.385 33.4013C180.456 33.9236 162.692 36.9369 155.981 38.1021C154.534 38.3431 153.168 37.4191 152.886 36.053L150.194 22.714C150.113 22.2319 150.435 21.7899 150.917 21.7096C155.137 21.0265 171.694 16.9284 183.63 30.7094C183.63 30.7094 184.796 32.7584 182.385 33.4013Z" fill="#2C2C2C"/>
</g>
<path d="M397.607 166.833C382.968 159.958 372.413 175.687 368.966 184.411C369.859 182.588 375.166 178.552 389.253 176.989C403.339 175.427 405.165 170.382 397.607 166.833Z" fill="#2C2C2C" stroke="#2C2C2C" stroke-width="0.98044" stroke-linejoin="round"/>
<path d="M362.564 190.836C362.171 197.337 367.665 211.762 375.908 207.495C382.973 203.838 371.853 195.441 362.564 190.836Z" fill="#2C2C2C" stroke="#2C2C2C" stroke-width="0.98044"/>
<path d="M10.6613 233.594C10.1188 220.565 32.5624 215.729 43.852 214.94C35.391 218.694 33.6958 223.531 28.9352 228.542C16.3196 241.821 11.4961 237.443 10.6613 233.594Z" fill="#2C2C2C" stroke="#2C2C2C" stroke-width="0.98044" stroke-linecap="round" stroke-linejoin="round"/>
<path d="M36.7872 204.653C26.2794 200.597 4.46565 194.27 1.2734 201.408C-1.91885 208.546 23.6191 206.545 36.7872 204.653Z" fill="#2C2C2C" stroke="#2C2C2C" stroke-width="0.98044" stroke-linecap="round" stroke-linejoin="round"/>
<defs>
<clipPath id="clip0">
<rect width="151.913" height="91.0026" fill="white" transform="translate(81.3912 0.173828)"/>
</clipPath>
</defs>
</svg>
