<svg width="274" height="85" viewBox="0 0 274 85" fill="none" xmlns="http://www.w3.org/2000/svg">
<rect y="51.5605" width="138.483" height="23.0897" transform="rotate(-9.59682 0 51.5605)" fill="white"/>
<path d="M15.3732 39.3864C14.8508 36.649 14.4035 34.3745 14.0311 32.5626C13.6565 30.738 13.3505 29.2648 13.113 28.1432C12.8733 27.0087 12.6932 26.1745 12.5726 25.6404C12.4497 25.0936 12.3736 24.7368 12.3442 24.5701C12.3103 24.3777 12.3344 24.2148 12.4167 24.0813C12.5117 23.9456 12.6245 23.8728 12.755 23.863C12.8832 23.8404 13.0175 23.8894 13.1577 24.0101C13.2958 24.118 13.3972 24.3183 13.462 24.611L16.5635 38.6013L24.5993 35.3598C25.4584 35.2083 25.7088 35.541 25.3504 36.3578L16.0576 40.1185C15.6985 40.1818 15.4704 39.9378 15.3732 39.3864ZM26.235 33.0287C26.1588 33.1214 26.0041 33.1818 25.7711 33.2096C25.5486 33.2224 25.3343 33.2073 25.1284 33.1643C24.9353 33.119 24.7954 33.0379 24.7087 32.921C24.6197 32.7912 24.6684 32.6174 24.8547 32.3994C24.9309 32.3066 25.0181 32.2384 25.1161 32.1947C25.2247 32.1358 25.3281 32.0846 25.4261 32.0408C25.5348 31.982 25.6155 31.9149 25.6683 31.8395C25.7339 31.7618 25.7607 31.6513 25.7487 31.508C25.6597 30.9287 25.6006 30.3309 25.5713 29.7147C25.5548 29.0962 25.6201 28.5293 25.7673 28.0142C25.9144 27.499 26.1747 27.0631 26.5481 26.7064C26.9344 26.3474 27.4858 26.1378 28.2023 26.0775C28.4588 26.0323 28.7586 26.0455 29.1018 26.1173C29.4427 26.1761 29.7787 26.2822 30.1099 26.4353C30.4387 26.5757 30.737 26.7677 31.0047 27.0113C31.2702 27.2422 31.4568 27.5134 31.5647 27.8249C31.677 27.9373 31.654 28.1066 31.4956 28.3329C31.3371 28.5592 31.1063 28.8246 30.803 29.1293C30.4975 29.4212 30.1482 29.7274 29.7552 30.0479C29.3622 30.3684 28.9797 30.6738 28.6078 30.9642C28.2488 31.2522 27.93 31.5068 27.6517 31.7277C27.3733 31.9487 27.1949 32.0992 27.1165 32.1791C27.2816 32.6656 27.4576 33.1767 27.6446 33.7122C27.8316 34.2478 28.0491 34.7317 28.2972 35.1639C28.5453 35.5962 28.8183 35.9447 29.1162 36.2095C29.4247 36.4592 29.7713 36.5501 30.156 36.4823C30.727 36.4213 31.1931 36.2531 31.5545 35.9779C31.9286 35.7004 32.221 35.3712 32.4315 34.9903C32.642 34.6094 32.7891 34.2066 32.8729 33.782C32.9695 33.3551 33.0246 32.9553 33.0382 32.5827C33.0647 32.2078 33.0693 31.8963 33.0519 31.6482C33.0452 31.3849 33.0524 31.2382 33.0735 31.208C33.201 31.1062 33.3613 31.078 33.5544 31.1233C33.7452 31.1557 33.8806 31.3236 33.9605 31.6268C34.0615 32.1246 34.0531 32.7145 33.9353 33.3963C33.8176 34.0782 33.601 34.7246 33.2856 35.3355C32.9831 35.9441 32.5791 36.4649 32.0737 36.8978C31.5788 37.3156 31.0082 37.5286 30.3617 37.5368C29.7055 37.6393 29.1534 37.5449 28.7054 37.2537C28.2551 36.9497 27.8694 36.5615 27.5481 36.0893C27.2374 35.602 26.9799 35.0789 26.7756 34.5199C26.5712 33.961 26.391 33.4639 26.235 33.0287ZM30.5452 28.0047C30.0354 27.5128 29.5553 27.2272 29.1051 27.148C28.6548 27.0687 28.2109 27.1007 27.7734 27.244C27.5109 27.3299 27.2963 27.5 27.1295 27.7541C26.9605 27.9955 26.8413 28.2942 26.7719 28.6502C26.7002 28.9934 26.6748 29.3746 26.6959 29.794C26.7147 30.2006 26.7806 30.612 26.8937 31.0284L30.5452 28.0047ZM48.2714 40.3088C48.1065 38.6984 47.9569 37.3629 47.8228 36.3024C47.6887 35.2418 47.5625 34.3386 47.4442 33.5926C47.3364 32.8315 47.2253 32.1636 47.1107 31.5888C46.9961 31.014 46.8695 30.4083 46.7308 29.7717C46.5898 29.1222 46.4266 28.3842 46.2412 27.5574C46.0663 26.7156 45.853 25.6559 45.6012 24.3781C45.602 24.2325 45.6318 24.1016 45.6907 23.9855C45.7473 23.8565 45.8171 23.7649 45.9 23.7106C45.9936 23.6412 46.1026 23.622 46.227 23.6529C46.3515 23.6839 46.4872 23.7789 46.6343 23.9381L47.0175 26.4488C47.354 25.8077 47.7508 25.2088 48.208 24.6522C48.678 24.0934 49.1627 23.6179 49.6621 23.2257C50.172 22.8185 50.6797 22.5108 51.1851 22.3027C51.6882 22.0818 52.1412 21.9887 52.5439 22.0234C52.9595 22.0559 53.3016 22.2336 53.5701 22.5565C53.8491 22.8643 54.0131 23.3444 54.062 23.9968C54.1102 24.5701 54.0445 25.2097 53.8649 25.9157C53.683 26.6088 53.4306 27.3144 53.1077 28.0325C52.7953 28.7354 52.4347 29.427 52.0258 30.1073C51.6168 30.7876 51.2083 31.3951 50.8002 31.9299C50.392 32.4646 50.0013 32.9103 49.6278 33.267C49.265 33.6087 48.9617 33.801 48.7181 33.8439C48.7369 34.0257 48.7618 34.2792 48.7927 34.6042C48.8258 34.9422 48.8657 35.3186 48.9124 35.7334C48.9614 36.1611 49.0062 36.6027 49.0469 37.0583C49.1004 37.5117 49.1505 37.9457 49.1972 38.3606C49.2439 38.7755 49.2838 39.1519 49.317 39.4898C49.3501 39.8277 49.3814 40.08 49.4108 40.2467C49.358 40.3221 49.2912 40.3934 49.2105 40.4605C49.1298 40.5276 49.0392 40.5766 48.9389 40.6076C48.8386 40.6385 48.7315 40.6309 48.6176 40.5849C48.506 40.5517 48.3906 40.4596 48.2714 40.3088ZM48.4286 32.7645C48.8224 32.5232 49.2701 32.1005 49.7718 31.4964C50.2712 30.8795 50.7472 30.1675 51.1999 29.3605C51.6632 28.5384 52.0574 27.6623 52.3826 26.7324C52.7078 25.8024 52.8931 24.9037 52.9385 24.0363C52.7892 23.6395 52.5686 23.4008 52.2767 23.32C51.9848 23.2393 51.6598 23.2701 51.3014 23.4126C50.9537 23.5401 50.5845 23.7704 50.1937 24.1038C49.8007 24.4243 49.4295 24.7938 49.0802 25.2124C48.7415 25.6159 48.4352 26.0533 48.1613 26.5247C47.8875 26.9961 47.6894 27.4475 47.5672 27.8789L48.4286 32.7645ZM57.4782 32.4381C57.1277 30.6753 56.8311 29.1807 56.5884 27.9542C56.3457 26.7277 56.1467 25.7117 55.9914 24.9061C55.8361 24.1005 55.7125 23.4744 55.6206 23.0279C55.5392 22.5663 55.4728 22.2276 55.4216 22.0118C55.3831 21.7939 55.3605 21.6656 55.3537 21.6272C55.3447 21.5759 55.3391 21.5438 55.3368 21.531C55.3293 21.4133 55.37 21.307 55.459 21.2119C55.548 21.1169 55.6491 21.0528 55.7623 21.0196C55.886 20.9714 56.0101 20.9627 56.1345 20.9937C56.259 21.0246 56.357 21.0933 56.4287 21.1996L57.2664 25.6134C57.3027 24.6947 57.4805 23.9031 57.7996 23.2386C58.1316 22.5719 58.5375 22.0243 59.0173 21.596C59.4948 21.1548 60.013 20.832 60.572 20.6277C61.1437 20.4211 61.6876 20.3186 62.2035 20.3202C62.377 20.3293 62.5113 20.3783 62.6063 20.4673C62.7141 20.5541 62.7794 20.6616 62.802 20.7898C62.8351 20.903 62.8234 21.024 62.7668 21.153C62.7208 21.2669 62.6446 21.3596 62.5383 21.4313C61.9544 21.4946 61.4185 21.642 60.9305 21.8734C60.453 22.0899 60.0264 22.37 59.6507 22.7139C59.2856 23.0427 58.9744 23.4149 58.7171 23.8305C58.4727 24.2438 58.2958 24.665 58.1863 25.0942C58.0188 25.7187 57.9403 26.3606 57.9507 27.0198C57.9718 27.664 58.0248 28.3025 58.11 28.9353C58.208 29.5659 58.3131 30.1622 58.4254 30.7242C58.5505 31.2838 58.644 31.7764 58.7058 32.2018C58.7178 32.3451 58.6729 32.4654 58.5711 32.5627C58.4798 32.6449 58.3637 32.6985 58.2226 32.7233C58.0966 32.7588 57.9575 32.7569 57.8051 32.7176C57.6633 32.6633 57.5543 32.5701 57.4782 32.4381ZM65.2195 26.1546C65.1433 26.2474 64.9887 26.3077 64.7556 26.3356C64.5331 26.3484 64.3189 26.3333 64.113 26.2903C63.9199 26.245 63.78 26.1639 63.6932 26.0469C63.6043 25.9172 63.6529 25.7433 63.8393 25.5254C63.9155 25.4326 64.0026 25.3644 64.1007 25.3206C64.2093 25.2618 64.3126 25.2105 64.4107 25.1668C64.5193 25.108 64.6 25.0409 64.6528 24.9654C64.7185 24.8878 64.7453 24.7773 64.7332 24.634C64.6443 24.0547 64.5852 23.4569 64.5558 22.8406C64.5393 22.2221 64.6046 21.6553 64.7518 21.1401C64.899 20.625 65.1592 20.1891 65.5327 19.8323C65.9189 19.4734 66.4703 19.2637 67.1869 19.2035C67.4433 19.1583 67.7432 19.1715 68.0863 19.2432C68.4273 19.3021 68.7633 19.4081 69.0944 19.5613C69.4232 19.7016 69.7215 19.8936 69.9893 20.1373C70.2547 20.3682 70.4414 20.6393 70.5492 20.9509C70.6616 21.0633 70.6385 21.2326 70.4801 21.4589C70.3217 21.6851 70.0908 21.9506 69.7876 22.2553C69.4821 22.5472 69.1328 22.8533 68.7398 23.1739C68.3467 23.4944 67.9643 23.7998 67.5924 24.0901C67.2333 24.3782 66.9146 24.6327 66.6362 24.8537C66.3579 25.0747 66.1795 25.2251 66.101 25.3051C66.2661 25.7916 66.4422 26.3027 66.6292 26.8382C66.8161 27.3738 67.0337 27.8577 67.2818 28.2899C67.5299 28.7221 67.8029 29.0707 68.1008 29.3355C68.4092 29.5852 68.7558 29.6761 69.1405 29.6083C69.7115 29.5472 70.1777 29.3791 70.539 29.1038C70.9132 28.8263 71.2055 28.4971 71.416 28.1162C71.6265 27.7354 71.7736 27.3326 71.8574 26.908C71.954 26.481 72.0091 26.0813 72.0228 25.7087C72.0492 25.3338 72.0538 25.0223 72.0365 24.7741C72.0297 24.5109 72.0369 24.3642 72.058 24.334C72.1855 24.2322 72.3458 24.2039 72.5389 24.2492C72.7297 24.2817 72.8651 24.4495 72.945 24.7528C73.046 25.2506 73.0376 25.8404 72.9199 26.5223C72.8021 27.2041 72.5855 27.8505 72.2702 28.4614C71.9676 29.0701 71.5636 29.5909 71.0582 30.0238C70.5633 30.4416 69.9927 30.6546 69.3463 30.6628C68.69 30.7653 68.1379 30.6709 67.6899 30.3797C67.2397 30.0757 66.8539 29.6875 66.5327 29.2153C66.222 28.728 65.9644 28.2049 65.7601 27.6459C65.5558 27.087 65.3756 26.5899 65.2195 26.1546ZM69.5298 21.1306C69.0199 20.6388 68.5399 20.3532 68.0896 20.2739C67.6393 20.1947 67.1954 20.2267 66.7579 20.3699C66.4954 20.4559 66.2808 20.6259 66.1141 20.8801C65.9451 21.1215 65.8259 21.4201 65.7564 21.7761C65.6847 22.1193 65.6594 22.5006 65.6804 22.92C65.6992 23.3265 65.7652 23.738 65.8783 24.1544L69.5298 21.1306ZM75.6964 29.4241C75.6255 29.1721 75.5275 28.7663 75.4024 28.2066C75.2878 27.6319 75.1533 26.9813 74.9988 26.2549C74.8548 25.5134 74.7029 24.7271 74.5431 23.8958C74.3833 23.0646 74.2164 22.2677 74.0423 21.5051C73.8787 20.7274 73.7061 20.0108 73.5244 19.3553C73.3555 18.6976 73.1975 18.1767 73.0505 17.7928C72.994 17.4722 73.0585 17.2757 73.2441 17.2033C73.4402 17.1159 73.671 17.0752 73.9365 17.0812C74.2215 18.0226 74.4522 18.881 74.6286 19.6564C74.8178 20.4296 74.9731 21.1228 75.0944 21.736C75.2264 22.3342 75.3383 22.8565 75.4302 23.3031C75.5328 23.7345 75.6398 24.0793 75.7514 24.3372C75.695 23.1176 75.6767 22.0763 75.6964 21.2134C75.7162 20.3505 75.7694 19.6404 75.8562 19.083C75.9536 18.5105 76.0898 18.0832 76.2649 17.8011C76.4376 17.5062 76.6489 17.3169 76.8985 17.2333C77.1248 17.1669 77.3756 17.3144 77.6509 17.6757C77.9239 18.0243 78.1969 18.4852 78.4698 19.0584C78.7556 19.6295 79.0248 20.2563 79.2774 20.939C79.5405 21.6065 79.7626 22.2285 79.9435 22.8048C80.1511 21.4328 80.3293 20.3436 80.478 19.5373C80.6395 18.7287 80.7954 18.1129 80.9455 17.6898C81.0934 17.2538 81.2481 16.9687 81.4095 16.8345C81.5838 16.698 81.7875 16.6158 82.0205 16.5879C82.3306 16.5465 82.5979 16.6382 82.8227 16.863C83.058 17.0727 83.2642 17.3801 83.4414 17.7852C83.6164 18.1774 83.7717 18.6458 83.9074 19.1904C84.0536 19.72 84.1927 20.2838 84.3246 20.882C84.4694 21.4779 84.6228 22.0855 84.7849 22.7047C84.9575 23.3089 85.1513 23.883 85.3662 24.4268C85.5811 24.9707 85.8341 25.4682 86.1251 25.9193C86.414 26.3576 86.7586 26.7 87.1591 26.9467C87.0844 27.1979 86.9848 27.4204 86.8603 27.6142C86.7336 27.7952 86.5778 27.8492 86.393 27.776C85.9782 27.5979 85.6045 27.2407 85.272 26.7044C84.95 26.1529 84.6529 25.5178 84.3807 24.7989C84.1085 24.0801 83.8702 23.3288 83.6659 22.5451C83.4594 21.7485 83.2716 21.0214 83.1028 20.3636C82.9339 19.7059 82.779 19.1646 82.638 18.74C82.5098 18.313 82.3933 18.1022 82.2885 18.1075C81.9076 18.1217 81.6258 18.773 81.443 20.0613C81.2731 21.3473 81.0854 23.2447 80.8799 25.7534C80.8452 25.9314 80.7898 26.0667 80.7136 26.1595C80.6351 26.2395 80.551 26.2873 80.4612 26.3032C80.3715 26.319 80.2772 26.3092 80.1784 26.2737C80.0773 26.2254 79.9868 26.1621 79.9069 26.0836C79.5555 25.1407 79.2366 24.2318 78.9501 23.3568C78.6764 22.4795 78.4272 21.7037 78.2025 21.0293C77.9779 20.355 77.7705 19.8164 77.5805 19.4136C77.4033 19.0085 77.2483 18.8045 77.1156 18.8014C76.9956 18.7961 76.9028 18.9447 76.8372 19.2472C76.7821 19.5345 76.7462 19.9309 76.7295 20.4363C76.7106 20.9288 76.7022 21.5186 76.7044 22.2058C76.7171 22.8779 76.7325 23.6023 76.7505 24.3792C76.7685 25.1562 76.7846 25.9598 76.7988 26.7903C76.8107 27.6079 76.8087 28.4214 76.7928 29.2308C76.7596 29.3424 76.6962 29.4329 76.6027 29.5023C76.5114 29.5845 76.408 29.6358 76.2926 29.6561C76.19 29.6742 76.0829 29.6666 75.9713 29.6334C75.8597 29.6002 75.7681 29.5304 75.6964 29.4241ZM86.8625 15.4565C86.9326 15.4045 87.0167 15.3566 87.1148 15.3129C87.2129 15.2691 87.3068 15.2393 87.3965 15.2235C87.4991 15.2054 87.5987 15.2077 87.6952 15.2303C87.7918 15.253 87.8747 15.3111 87.9441 15.4046C88.0911 16.2381 88.2569 17.141 88.4416 18.1133C88.6368 19.0705 88.8354 20.0469 89.0374 21.0426C89.25 22.0232 89.4539 22.9921 89.6491 23.9493C89.8443 24.9065 90.0271 25.7932 90.1975 26.6093C90.2442 26.7994 90.2189 26.9559 90.1216 27.0789C90.0243 27.2018 89.9051 27.2757 89.764 27.3006C89.6358 27.3232 89.5049 27.2934 89.3715 27.2111C89.2402 27.1417 89.1565 27.0044 89.1203 26.7993L86.8625 15.4565ZM85.9398 11.5734C85.9104 11.4067 85.9489 11.2875 86.0552 11.2159C86.1593 11.1314 86.2819 11.0767 86.423 11.0518C86.7051 11.0021 86.8951 11.0678 86.9932 11.2488C87.1018 11.4147 87.1775 11.6195 87.2205 11.8632C87.1707 12.0306 87.0873 12.1577 86.9704 12.2444C86.8535 12.3312 86.7211 12.3677 86.5733 12.3541C86.4383 12.3383 86.307 12.2689 86.1796 12.1459C86.0649 12.0207 85.985 11.8298 85.9398 11.5734ZM91.967 21.4383C91.8908 21.5311 91.7362 21.5914 91.5031 21.6193C91.2806 21.6321 91.0664 21.617 90.8605 21.5739C90.6674 21.5287 90.5275 21.4476 90.4408 21.3306C90.3518 21.2009 90.4005 21.027 90.5868 20.8091C90.663 20.7163 90.7501 20.6481 90.8482 20.6043C90.9568 20.5455 91.0602 20.4942 91.1582 20.4505C91.2668 20.3917 91.3476 20.3246 91.4004 20.2491C91.466 20.1715 91.4928 20.061 91.4807 19.9176C91.3918 19.3383 91.3327 18.7406 91.3034 18.1243C91.2869 17.5058 91.3522 16.939 91.4993 16.4238C91.6465 15.9087 91.9068 15.4727 92.2802 15.116C92.6664 14.757 93.2178 14.5474 93.9344 14.4872C94.1909 14.442 94.4907 14.4552 94.8339 14.5269C95.1748 14.5858 95.5108 14.6918 95.8419 14.845C96.1708 14.9853 96.4691 15.1773 96.7368 15.421C97.0023 15.6518 97.1889 15.923 97.2967 16.2346C97.4091 16.347 97.3861 16.5163 97.2276 16.7426C97.0692 16.9688 96.8384 17.2343 96.5351 17.539C96.2296 17.8308 95.8803 18.137 95.4873 18.4575C95.0943 18.7781 94.7118 19.0835 94.3399 19.3738C93.9808 19.6619 93.6621 19.9164 93.3838 20.1374C93.1054 20.3584 92.927 20.5088 92.8485 20.5888C93.0137 21.0753 93.1897 21.5863 93.3767 22.1219C93.5637 22.6575 93.7812 23.1414 94.0293 23.5736C94.2774 24.0058 94.5504 24.3543 94.8483 24.6191C95.1568 24.8688 95.5034 24.9598 95.888 24.892C96.459 24.8309 96.9252 24.6628 97.2865 24.3875C97.6607 24.11 97.953 23.7808 98.1635 23.3999C98.374 23.0191 98.5212 22.6163 98.6049 22.1916C98.7016 21.7647 98.7567 21.365 98.7703 20.9924C98.7968 20.6175 98.8013 20.306 98.784 20.0578C98.7773 19.7946 98.7844 19.6479 98.8056 19.6177C98.9331 19.5159 99.0933 19.4876 99.2864 19.5329C99.4773 19.5654 99.6126 19.7332 99.6925 20.0365C99.7935 20.5343 99.7852 21.1241 99.6674 21.806C99.5496 22.4878 99.3331 23.1342 99.0177 23.7451C98.7151 24.3538 98.3112 24.8746 97.8057 25.3075C97.3109 25.7253 96.7402 25.9383 96.0938 25.9465C95.4376 26.049 94.8855 25.9546 94.4375 25.6634C93.9872 25.3593 93.6014 24.9712 93.2802 24.499C92.9695 24.0117 92.712 23.4886 92.5077 22.9296C92.3033 22.3707 92.1231 21.8736 91.967 21.4383ZM96.2773 16.4143C95.7675 15.9225 95.2874 15.6369 94.8371 15.5576C94.3868 15.4784 93.9429 15.5104 93.5054 15.6536C93.2429 15.7396 93.0283 15.9096 92.8616 16.1638C92.6926 16.4051 92.5734 16.7038 92.5039 17.0598C92.4322 17.403 92.4069 17.7843 92.428 18.2037C92.4468 18.6102 92.5127 19.0217 92.6258 19.4381L96.2773 16.4143ZM102.314 24.5324C101.963 22.7696 101.667 21.2749 101.424 20.0485C101.181 18.822 100.982 17.8059 100.827 17.0003C100.672 16.1948 100.548 15.5687 100.456 15.1221C100.375 14.6605 100.309 14.3218 100.257 14.1061C100.219 13.8881 100.196 13.7599 100.189 13.7214C100.18 13.6701 100.175 13.6381 100.172 13.6252C100.165 13.5076 100.206 13.4012 100.295 13.3062C100.384 13.2112 100.485 13.1471 100.598 13.1139C100.722 13.0656 100.846 13.057 100.97 13.0879C101.095 13.1189 101.193 13.1875 101.264 13.2939L102.102 17.7077C102.138 16.789 102.316 15.9974 102.635 15.3329C102.967 14.6662 103.373 14.1186 103.853 13.6902C104.33 13.2491 104.849 12.9263 105.408 12.722C105.979 12.5154 106.523 12.4129 107.039 12.4145C107.213 12.4235 107.347 12.4726 107.442 12.5616C107.55 12.6483 107.615 12.7558 107.638 12.8841C107.671 12.9972 107.659 13.1183 107.603 13.2473C107.557 13.3611 107.48 13.4539 107.374 13.5255C106.79 13.5888 106.254 13.7362 105.766 13.9677C105.289 14.1841 104.862 14.4643 104.486 14.8082C104.121 15.137 103.81 15.5092 103.553 15.9247C103.308 16.3381 103.131 16.7593 103.022 17.1885C102.854 17.813 102.776 18.4549 102.786 19.1141C102.807 19.7583 102.861 20.3968 102.946 21.0296C103.044 21.6602 103.149 22.2565 103.261 22.8184C103.386 23.3781 103.48 23.8707 103.541 24.2961C103.554 24.4394 103.509 24.5597 103.407 24.657C103.316 24.7392 103.199 24.7927 103.058 24.8176C102.932 24.853 102.793 24.8511 102.641 24.8119C102.499 24.7576 102.39 24.6644 102.314 24.5324ZM35.4951 62.3307C35.4106 62.6761 35.2646 63.0853 35.0571 63.5582C34.8496 64.0311 34.5927 64.4863 34.2864 64.9237C33.9801 65.3611 33.6263 65.7541 33.225 66.1025C32.8342 66.4358 32.4016 66.6443 31.9272 66.728C31.722 66.7642 31.5508 66.7679 31.4135 66.7392C31.2891 66.7083 31.1676 66.657 31.0492 66.5853C30.9414 66.4985 30.8365 66.3914 30.7347 66.2639C30.6329 66.1364 30.5085 65.9931 30.3614 65.8339C30.133 65.2131 29.9434 64.5128 29.7926 63.7328C29.6547 62.9506 29.5798 62.1507 29.5678 61.3331C29.5687 60.5132 29.6404 59.7204 29.7831 58.9549C29.9363 58.1742 30.1857 57.489 30.5312 56.8992C30.8896 56.3071 31.3573 55.8478 31.9344 55.5213C32.522 55.1797 33.2431 55.0327 34.0977 55.0804C34.0322 54.2589 33.8962 53.45 33.6896 52.6534C33.4808 51.8441 33.2791 51.0004 33.0847 50.1224C33.0621 49.9941 33.1039 49.8942 33.2103 49.8226C33.3144 49.7381 33.4358 49.677 33.5746 49.6393C33.724 49.5865 33.8639 49.5553 33.9944 49.5455C34.1377 49.5334 34.232 49.5432 34.2773 49.5749C34.4679 50.7313 34.6416 51.7914 34.7984 52.7554C34.968 53.7171 35.1285 54.6276 35.28 55.4867C35.4292 56.333 35.5739 57.1537 35.7141 57.9487C35.8543 58.7438 35.9979 59.558 36.1448 60.3915C36.3046 61.2227 36.4659 62.1 36.6287 63.0232C36.8043 63.9442 36.9894 64.9561 37.1838 66.0589C37.2841 66.2528 37.2954 66.4293 37.2177 66.5884C37.1528 66.7453 37.0532 66.8554 36.919 66.9187C36.7847 66.9821 36.6338 66.9889 36.4664 66.9391C36.3118 66.887 36.196 66.7553 36.1191 66.5441L35.4951 62.3307ZM33.4764 56.2807C32.9756 56.2897 32.5377 56.5057 32.1627 56.9288C31.7984 57.3368 31.5015 57.8652 31.2721 58.5138C31.0404 59.1496 30.8801 59.8522 30.791 60.6216C30.6996 61.3781 30.6818 62.1018 30.7375 62.7927C30.8038 63.4686 30.9421 64.0656 31.1525 64.5838C31.3628 65.1021 31.6528 65.4344 32.0224 65.5807C32.343 65.5242 32.6379 65.3598 32.9072 65.0876C33.1743 64.8025 33.4119 64.4631 33.6201 64.0694C33.8412 63.6734 34.0298 63.2435 34.186 62.7797C34.3528 62.3007 34.4898 61.8402 34.5969 61.3983C34.7041 60.9563 34.7732 60.5607 34.8041 60.2114C34.8457 59.8471 34.8506 59.5752 34.819 59.3957C34.7941 59.2546 34.75 59.0046 34.6867 58.6455C34.6234 58.2865 34.5333 57.9256 34.4164 57.5627C34.3124 57.1976 34.1778 56.8842 34.0127 56.6225C33.8603 56.3585 33.6816 56.2445 33.4764 56.2807ZM42.7277 53.162C42.727 53.0828 42.7508 52.9927 42.7991 52.8916C42.8579 52.7755 42.9352 52.6891 43.031 52.6325C43.1397 52.5737 43.2649 52.5715 43.4067 52.6258C43.559 52.6651 43.7272 52.7941 43.9112 53.0128C44.034 54.0092 44.144 55.0079 44.2412 56.0089C44.3489 56.9947 44.4876 57.9685 44.6571 58.9302C44.8373 59.8769 45.0676 60.8081 45.348 61.7238C45.6413 62.6373 46.0263 63.5081 46.5028 64.3364C46.5315 64.4239 46.513 64.5065 46.4474 64.5842C46.384 64.6747 46.2905 64.744 46.1668 64.7923C46.0453 64.8534 45.9193 64.8888 45.7888 64.8986C45.6584 64.9084 45.5456 64.8688 45.4506 64.7798L44.211 61.6863C44.1891 61.862 44.0846 62.1317 43.8975 62.4952C43.7232 62.8565 43.5051 63.2321 43.2433 63.622C42.9921 63.9968 42.7224 64.3419 42.4342 64.6571C42.1438 64.9596 41.8779 65.1387 41.6365 65.1945C41.0406 65.3392 40.5289 65.2113 40.1012 64.8107C39.6736 64.4101 39.3109 63.8526 39.013 63.1383C38.7258 62.4089 38.4879 61.5848 38.2995 60.6661C38.111 59.7473 37.9528 58.8497 37.8247 57.9732C37.6965 57.0967 37.5896 56.3025 37.5037 55.5904C37.4178 54.8784 37.3262 54.359 37.2289 54.0324C37.2493 53.9231 37.2999 53.8348 37.3806 53.7677C37.4741 53.6983 37.5786 53.6535 37.694 53.6331C37.8094 53.6128 37.9229 53.6192 38.0346 53.6524C38.159 53.6833 38.2559 53.7456 38.3253 53.8391C38.4278 54.2706 38.5303 54.8144 38.6328 55.4707C38.7353 56.1269 38.8457 56.828 38.964 57.574C39.0801 58.3072 39.2101 59.0445 39.3541 59.786C39.5109 60.5252 39.682 61.1958 39.8675 61.7977C40.0507 62.3868 40.2554 62.873 40.4816 63.2562C40.7184 63.6243 40.9888 63.808 41.2928 63.8073C41.5107 63.7689 41.7163 63.6599 41.9094 63.4804C42.1025 63.3009 42.2889 63.0829 42.4684 62.8265C42.6457 62.5573 42.8068 62.271 42.9517 61.9678C43.0943 61.6518 43.2135 61.3531 43.3093 61.0718C43.4029 60.7777 43.4753 60.5137 43.5267 60.2798C43.578 60.046 43.5999 59.8703 43.5924 59.7526C43.578 59.5965 43.5543 59.3495 43.5212 59.0115C43.4858 58.6608 43.4372 58.2727 43.3754 57.8473C43.3242 57.4068 43.262 56.9418 43.1889 56.4522C43.1286 55.9604 43.0676 55.5018 43.0058 55.0764C42.9546 54.6359 42.8996 54.2489 42.8408 53.9155C42.7926 53.5671 42.7549 53.3159 42.7277 53.162ZM59.82 67.7198C59.6551 66.1094 59.5055 64.7739 59.3714 63.7134C59.2373 62.6529 59.1111 61.7496 58.9928 61.0036C58.885 60.2425 58.7739 59.5746 58.6593 58.9998C58.5447 58.4251 58.4181 57.8194 58.2794 57.1827C58.1384 56.5333 57.9752 55.7952 57.7898 54.9685C57.6149 54.1267 57.4016 53.0669 57.1499 51.7891C57.1506 51.6435 57.1804 51.5127 57.2393 51.3965C57.2959 51.2676 57.3657 51.1759 57.4486 51.1216C57.5422 51.0522 57.6512 51.033 57.7756 51.064C57.9001 51.0949 58.0358 51.19 58.1829 51.3491L58.5661 53.8598C58.9026 53.2187 59.2994 52.6199 59.7566 52.0633C60.2266 51.5044 60.7113 51.0289 61.2107 50.6368C61.7206 50.2295 62.2283 49.9219 62.7337 49.7137C63.2368 49.4928 63.6898 49.3997 64.0925 49.4345C64.5081 49.467 64.8502 49.6447 65.1187 49.9675C65.3977 50.2753 65.5617 50.7554 65.6106 51.4079C65.6588 51.9811 65.5931 52.6208 65.4135 53.3267C65.2316 54.0199 64.9792 54.7255 64.6563 55.4435C64.3439 56.1464 63.9833 56.8381 63.5744 57.5184C63.1654 58.1987 62.7569 58.8062 62.3488 59.3409C61.9406 59.8756 61.5499 60.3214 61.1765 60.6781C60.8136 61.0197 60.5104 61.212 60.2667 61.255C60.2855 61.4368 60.3104 61.6902 60.3413 62.0153C60.3744 62.3532 60.4143 62.7296 60.4611 63.1445C60.51 63.5721 60.5548 64.0138 60.5955 64.4694C60.649 64.9227 60.6991 65.3568 60.7458 65.7716C60.7925 66.1865 60.8324 66.5629 60.8656 66.9008C60.8987 67.2387 60.93 67.491 60.9594 67.6577C60.9066 67.7332 60.8398 67.8044 60.7591 67.8716C60.6784 67.9387 60.5879 67.9877 60.4875 68.0186C60.3872 68.0495 60.2801 68.042 60.1662 67.9959C60.0546 67.9627 59.9392 67.8707 59.82 67.7198ZM59.9772 60.1756C60.371 59.9342 60.8187 59.5115 61.3204 58.9074C61.8198 58.2905 62.2959 57.5785 62.7485 56.7715C63.2118 55.9494 63.606 55.0734 63.9312 54.1434C64.2565 53.2134 64.4418 52.3147 64.4871 51.4473C64.3378 51.0506 64.1172 50.8118 63.8254 50.731C63.5335 50.6503 63.2084 50.6812 62.8501 50.8237C62.5023 50.9511 62.1331 51.1815 61.7423 51.5148C61.3493 51.8353 60.9781 52.2049 60.6288 52.6235C60.2901 53.0269 59.9838 53.4644 59.7099 53.9358C59.4361 54.4072 59.238 54.8586 59.1158 55.29L59.9772 60.1756ZM68.7435 54.9806C68.6673 55.0734 68.5126 55.1337 68.2796 55.1616C68.0571 55.1744 67.8428 55.1593 67.6369 55.1163C67.4438 55.071 67.3039 54.9899 67.2172 54.8729C67.1282 54.7432 67.1769 54.5693 67.3632 54.3514C67.4394 54.2586 67.5266 54.1904 67.6246 54.1466C67.7332 54.0878 67.8366 54.0365 67.9346 53.9928C68.0433 53.934 68.124 53.8669 68.1768 53.7914C68.2424 53.7138 68.2692 53.6033 68.2572 53.46C68.1683 52.8807 68.1091 52.2829 68.0798 51.6666C68.0633 51.0481 68.1286 50.4813 68.2758 49.9661C68.4229 49.451 68.6832 49.0151 69.0566 48.6583C69.4429 48.2994 69.9943 48.0897 70.7108 48.0295C70.9673 47.9843 71.2671 47.9975 71.6103 48.0692C71.9512 48.1281 72.2872 48.2341 72.6184 48.3873C72.9472 48.5276 73.2455 48.7196 73.5132 48.9633C73.7787 49.1942 73.9653 49.4653 74.0732 49.7769C74.1855 49.8893 74.1625 50.0586 74.0041 50.2849C73.8456 50.5111 73.6148 50.7766 73.3115 51.0813C73.006 51.3732 72.6567 51.6793 72.2637 51.9999C71.8707 52.3204 71.4882 52.6258 71.1163 52.9161C70.7573 53.2042 70.4385 53.4588 70.1602 53.6797C69.8818 53.9007 69.7034 54.0511 69.625 54.1311C69.7901 54.6176 69.9661 55.1287 70.1531 55.6642C70.3401 56.1998 70.5576 56.6837 70.8057 57.1159C71.0538 57.5481 71.3268 57.8967 71.6247 58.1615C71.9332 58.4112 72.2798 58.5021 72.6645 58.4343C73.2355 58.3733 73.7016 58.2051 74.063 57.9299C74.4371 57.6523 74.7295 57.3231 74.94 56.9422C75.1505 56.5614 75.2976 56.1586 75.3814 55.734C75.478 55.3071 75.5331 54.9073 75.5467 54.5347C75.5732 54.1598 75.5778 53.8483 75.5604 53.6001C75.5537 53.3369 75.5609 53.1902 75.582 53.16C75.7095 53.0582 75.8698 53.0299 76.0629 53.0752C76.2537 53.1077 76.3891 53.2755 76.469 53.5788C76.57 54.0766 76.5616 54.6664 76.4438 55.3483C76.3261 56.0301 76.1095 56.6765 75.7941 57.2875C75.4916 57.8961 75.0876 58.4169 74.5822 58.8498C74.0873 59.2676 73.5167 59.4806 72.8702 59.4888C72.214 59.5913 71.6619 59.4969 71.2139 59.2057C70.7636 58.9017 70.3779 58.5135 70.0566 58.0413C69.7459 57.554 69.4884 57.0309 69.2841 56.4719C69.0797 55.913 68.8995 55.4159 68.7435 54.9806ZM73.0537 49.9566C72.5439 49.4648 72.0639 49.1792 71.6136 49.0999C71.1633 49.0207 70.7194 49.0527 70.2819 49.1959C70.0194 49.2819 69.8048 49.4519 69.638 49.7061C69.469 49.9475 69.3498 50.2461 69.2804 50.6021C69.2087 50.9453 69.1833 51.3266 69.2044 51.746C69.2232 52.1526 69.2892 52.564 69.4022 52.9804L73.0537 49.9566ZM76.4223 42.3816C76.4902 42.3167 76.5581 42.2519 76.626 42.187C76.7045 42.1071 76.7874 42.0528 76.8749 42.0241C76.9602 41.9827 77.0383 41.9755 77.1092 42.0027C77.1929 42.0276 77.2717 42.0996 77.3456 42.2188L80.259 58.0669C80.2175 58.2065 80.1489 58.3045 80.0531 58.3611C79.9595 58.4305 79.8592 58.4614 79.7521 58.4538C79.6473 58.4591 79.5443 58.4376 79.4432 58.3893C79.355 58.3387 79.2901 58.2708 79.2487 58.1856L76.4223 42.3816ZM82.2346 52.6018C82.1584 52.6946 82.0037 52.7549 81.7707 52.7828C81.5482 52.7956 81.3339 52.7804 81.128 52.7374C80.9349 52.6921 80.795 52.611 80.7083 52.4941C80.6193 52.3644 80.668 52.1905 80.8543 51.9725C80.9305 51.8798 81.0177 51.8115 81.1157 51.7678C81.2243 51.709 81.3277 51.6577 81.4257 51.614C81.5344 51.5551 81.6151 51.488 81.6679 51.4126C81.7335 51.3349 81.7603 51.2244 81.7483 51.0811C81.6593 50.5018 81.6002 49.904 81.5709 49.2878C81.5544 48.6693 81.6197 48.1025 81.7669 47.5873C81.914 47.0722 82.1743 46.6362 82.5477 46.2795C82.934 45.9205 83.4854 45.7109 84.2019 45.6507C84.4584 45.6054 84.7582 45.6187 85.1014 45.6904C85.4423 45.7493 85.7783 45.8553 86.1095 46.0085C86.4383 46.1488 86.7366 46.3408 87.0043 46.5845C87.2698 46.8153 87.4564 47.0865 87.5643 47.398C87.6766 47.5104 87.6536 47.6798 87.4952 47.906C87.3367 48.1323 87.1059 48.3978 86.8026 48.7024C86.4971 48.9943 86.1478 49.3005 85.7548 49.621C85.3618 49.9415 84.9793 50.247 84.6074 50.5373C84.2484 50.8254 83.9296 51.0799 83.6513 51.3009C83.3729 51.5218 83.1945 51.6723 83.1161 51.7522C83.2812 52.2388 83.4572 52.7498 83.6442 53.2854C83.8312 53.8209 84.0487 54.3048 84.2968 54.7371C84.5449 55.1693 84.8179 55.5178 85.1158 55.7826C85.4243 56.0323 85.7709 56.1233 86.1556 56.0554C86.7266 55.9944 87.1927 55.8263 87.5541 55.551C87.9282 55.2735 88.2206 54.9443 88.4311 54.5634C88.6416 54.1825 88.7887 53.7798 88.8725 53.3551C88.9691 52.9282 89.0242 52.5284 89.0378 52.1558C89.0643 51.781 89.0689 51.4695 89.0515 51.2213C89.0448 50.958 89.052 50.8113 89.0731 50.7812C89.2006 50.6794 89.3609 50.6511 89.554 50.6964C89.7448 50.7288 89.8802 50.8967 89.9601 51.1999C90.0611 51.6978 90.0527 52.2876 89.9349 52.9695C89.8172 53.6513 89.6006 54.2977 89.2852 54.9086C88.9827 55.5173 88.5787 56.038 88.0733 56.4709C87.5784 56.8887 87.0078 57.1017 86.3613 57.1099C85.7051 57.2124 85.153 57.1181 84.705 56.8268C84.2547 56.5228 83.869 56.1347 83.5477 55.6625C83.237 55.1752 82.9795 54.652 82.7752 54.0931C82.5708 53.5341 82.3906 53.037 82.2346 52.6018ZM86.5448 47.5778C86.035 47.0859 85.5549 46.8004 85.1047 46.7211C84.6544 46.6418 84.2105 46.6738 83.773 46.8171C83.5105 46.903 83.2959 47.0731 83.1291 47.3273C82.9601 47.5686 82.8409 47.8673 82.7715 48.2233C82.6998 48.5665 82.6744 48.9478 82.6955 49.3671C82.7143 49.7737 82.7802 50.1852 82.8933 50.6016L86.5448 47.5778ZM91.8234 46.7859L90.159 47.6941C90.0112 47.6805 89.8833 47.6304 89.7755 47.5436C89.6548 47.4591 89.5651 47.3626 89.5062 47.2539C89.4474 47.1453 89.4218 47.0374 89.4293 46.9303C89.4241 46.8255 89.4618 46.7395 89.5425 46.6724L91.5894 45.4587L90.5911 40.0221C90.6002 39.8486 90.6621 39.7121 90.7768 39.6125C90.8914 39.513 91.014 39.4583 91.1445 39.4485C91.2855 39.4237 91.4217 39.4459 91.5529 39.5153C91.6819 39.5719 91.7769 39.6609 91.838 39.7824C91.8824 40.1844 91.9378 40.611 92.0041 41.062C92.0682 41.5003 92.1334 41.9449 92.1997 42.396C92.2766 42.832 92.3587 43.2604 92.4462 43.6813C92.5313 44.0894 92.6237 44.4632 92.7232 44.8026L95.4909 43.0651C95.6614 42.9822 95.8058 42.9766 95.9242 43.0482C96.0404 43.1071 96.1237 43.2048 96.1742 43.3413C96.2353 43.4627 96.2515 43.5921 96.2228 43.7294C96.1941 43.8667 96.1202 43.9722 96.001 44.0461L92.9572 46.1298C92.9798 46.258 93.0405 46.5646 93.1392 47.0497C93.2357 47.5218 93.348 48.0838 93.4762 48.7355C93.6043 49.3872 93.7404 50.0838 93.8843 50.8253C94.0283 51.5668 94.1579 52.2645 94.2732 52.9185C94.4014 53.5702 94.5084 54.1397 94.5943 54.6269C94.6908 55.0991 94.7503 55.3993 94.773 55.5276C94.8219 55.9553 94.7374 56.1883 94.5194 56.2268C94.3014 56.2652 94.0461 56.2044 93.7535 56.0445L91.8234 46.7859ZM100.349 54.6237C99.8249 54.65 99.3656 54.5194 98.9711 54.232C98.5895 53.9423 98.2584 53.5644 97.9779 53.0982C97.6974 52.632 97.4731 52.1096 97.3049 51.5311C97.1474 50.9375 97.0305 50.3499 96.9544 49.7683C96.8369 48.8767 96.848 48.0021 96.9876 47.1446C97.1401 46.2847 97.3759 45.5225 97.6951 44.8581C98.0248 44.1785 98.4178 43.6332 98.8742 43.2222C99.3412 42.7961 99.8315 42.5774 100.345 42.5662C100.884 42.5504 101.352 42.7259 101.747 43.0925C102.155 43.4569 102.503 43.931 102.791 44.5148C103.079 45.0987 103.307 45.7527 103.474 46.4768C103.639 47.1881 103.755 47.8817 103.821 48.5575C103.89 49.3254 103.848 50.06 103.694 50.7615C103.54 51.4629 103.3 52.0871 102.973 52.6339C102.659 53.1784 102.27 53.6306 101.804 53.9903C101.349 54.3349 100.864 54.5461 100.349 54.6237ZM100.346 43.6965C99.9139 43.7198 99.5402 43.9245 99.2248 44.3107C98.92 44.6817 98.6665 45.1561 98.4643 45.7339C98.2727 46.2965 98.1394 46.9282 98.0647 47.6289C97.9876 48.3168 97.9736 48.987 98.0225 49.6395C98.0526 50.1101 98.1171 50.588 98.2158 51.073C98.3145 51.558 98.4502 51.9902 98.6229 52.3697C98.8084 52.7468 99.0392 53.0433 99.3152 53.259C99.6018 53.4597 99.9439 53.525 100.341 53.4549C100.664 53.4112 100.978 53.2434 101.284 52.9516C101.602 52.6574 101.881 52.2909 102.121 51.852C102.359 51.4002 102.549 50.9039 102.692 50.3631C102.847 49.82 102.917 49.2788 102.901 48.7395C102.894 48.1723 102.814 47.6047 102.661 47.0367C102.518 46.4536 102.326 45.9256 102.084 45.4527C101.855 44.9774 101.586 44.5818 101.279 44.2657C100.983 43.9345 100.672 43.7448 100.346 43.6965ZM104.443 42.161C104.433 42.0305 104.466 41.9189 104.542 41.8261C104.618 41.7334 104.713 41.6704 104.826 41.6372C104.937 41.5912 105.055 41.5837 105.179 41.6147C105.301 41.6328 105.409 41.6799 105.502 41.7561L106.801 49.4601C106.881 48.4939 106.939 47.545 106.973 46.6135C107.018 45.6669 107.123 44.8021 107.289 44.0192C107.453 43.2235 107.717 42.5488 108.082 41.9952C108.445 41.4288 108.993 41.048 109.725 40.8527C110.116 40.7442 110.484 40.8049 110.828 41.035C111.171 41.2523 111.486 41.5801 111.775 42.0184C112.077 42.4544 112.355 42.9805 112.609 43.5968C112.861 44.2003 113.086 44.8414 113.285 45.5203C113.495 46.1841 113.68 46.8588 113.84 47.5445C114.001 48.2301 114.14 48.8668 114.257 49.4544C114.373 50.042 114.465 50.5613 114.531 51.0124C114.61 51.4612 114.662 51.7893 114.685 51.9967C114.634 52.2305 114.498 52.3998 114.279 52.5047C114.074 52.62 113.86 52.5653 113.635 52.3405C113.579 52.0991 113.499 51.6835 113.395 51.0937C113.289 50.491 113.155 49.8072 112.994 49.0424C112.845 48.2752 112.666 47.4806 112.455 46.6584C112.254 45.8211 112.021 45.0623 111.756 44.3819C111.501 43.6864 111.21 43.1229 110.882 42.6914C110.566 42.2449 110.216 42.0223 109.833 42.0237C109.503 42.029 109.219 42.2575 108.982 42.7093C108.757 43.1588 108.561 43.7354 108.394 44.4391C108.24 45.1406 108.114 45.9231 108.015 46.7867C107.929 47.6481 107.86 48.4933 107.807 49.3222C107.768 50.1489 107.743 50.9069 107.733 51.5964C107.722 52.2858 107.729 52.8134 107.754 53.1792C107.733 53.2886 107.671 53.3855 107.567 53.47C107.463 53.5544 107.34 53.6091 107.199 53.634C107.073 53.6694 106.935 53.6739 106.785 53.6475C106.648 53.6188 106.535 53.5396 106.446 53.4098L104.443 42.161Z" fill="#2C2C2C"/>
<path d="M156.203 35.9744C168.819 29.1094 190.163 21.2796 205.769 27.383C216.131 31.4356 224.855 41.562 224.917 54.6873M224.917 54.6873C224.929 57.2847 224.55 60.0955 223.693 63.1529C219.279 78.9179 208.668 69.294 209.519 63.6185C210.444 57.4396 216.792 56.3583 224.917 54.6873ZM224.917 54.6873C231.345 53.3653 238.243 54.3494 244.213 56.9242C255.598 61.834 263.065 75.6566 263.065 75.6566M255.38 73.1814L264.269 78.9229L266.726 66.4534" stroke="#2C2C2C" stroke-linecap="round" stroke-linejoin="round"/>
</svg>
