<svg width="274" height="85" viewBox="0 0 274 85" fill="none" xmlns="http://www.w3.org/2000/svg">
<rect y="51.5605" width="138.483" height="23.0897" transform="rotate(-9.59682 0 51.5605)" fill="white"/>
<rect x="1.37891" y="21.7422" width="119.817" height="23.0897" transform="rotate(-9.59682 1.37891 21.7422)" fill="white"/>
<path d="M15.3751 39.3864C14.8528 36.649 14.4055 34.3745 14.0331 32.5626C13.6585 30.738 13.3524 29.2648 13.115 28.1432C12.8753 27.0087 12.6951 26.1745 12.5745 25.6404C12.4517 25.0936 12.3755 24.7368 12.3461 24.5701C12.3122 24.3777 12.3364 24.2148 12.4186 24.0813C12.5137 23.9456 12.6264 23.8728 12.7569 23.863C12.8852 23.8404 13.0194 23.8894 13.1597 24.0101C13.2977 24.118 13.3991 24.3183 13.464 24.611L16.5655 38.6013L24.6013 35.3598C25.4604 35.2083 25.7108 35.541 25.3524 36.3578L16.0595 40.1185C15.7005 40.1818 15.4724 39.9378 15.3751 39.3864ZM26.2369 33.0287C26.1607 33.1214 26.0061 33.1818 25.773 33.2096C25.5505 33.2224 25.3363 33.2073 25.1304 33.1643C24.9373 33.119 24.7974 33.0379 24.7107 32.921C24.6217 32.7912 24.6703 32.6174 24.8567 32.3994C24.9329 32.3066 25.02 32.2384 25.1181 32.1947C25.2267 32.1358 25.33 32.0846 25.4281 32.0408C25.5367 31.982 25.6174 31.9149 25.6702 31.8395C25.7359 31.7618 25.7627 31.6513 25.7506 31.508C25.6617 30.9287 25.6026 30.3309 25.5732 29.7147C25.5567 29.0962 25.6221 28.5293 25.7692 28.0142C25.9164 27.499 26.1767 27.0631 26.5501 26.7064C26.9363 26.3474 27.4877 26.1378 28.2043 26.0775C28.4608 26.0323 28.7606 26.0455 29.1038 26.1173C29.4447 26.1761 29.7807 26.2822 30.1118 26.4353C30.4407 26.5757 30.7389 26.7677 31.0067 27.0113C31.2721 27.2422 31.4588 27.5134 31.5666 27.8249C31.679 27.9373 31.656 28.1066 31.4975 28.3329C31.3391 28.5592 31.1082 28.8246 30.805 29.1293C30.4995 29.4212 30.1502 29.7274 29.7572 30.0479C29.3641 30.3684 28.9817 30.6738 28.6098 30.9642C28.2507 31.2522 27.932 31.5068 27.6536 31.7277C27.3753 31.9487 27.1969 32.0992 27.1184 32.1791C27.2835 32.6656 27.4596 33.1767 27.6466 33.7122C27.8336 34.2478 28.0511 34.7317 28.2992 35.1639C28.5473 35.5962 28.8203 35.9447 29.1182 36.2095C29.4267 36.4592 29.7732 36.5501 30.1579 36.4823C30.7289 36.4213 31.1951 36.2531 31.5564 35.9779C31.9306 35.7004 32.2229 35.3712 32.4334 34.9903C32.6439 34.6094 32.791 34.2066 32.8748 33.782C32.9714 33.3551 33.0266 32.9553 33.0402 32.5827C33.0666 32.2078 33.0712 31.8963 33.0539 31.6482C33.0471 31.3849 33.0543 31.2382 33.0754 31.208C33.2029 31.1062 33.3632 31.078 33.5563 31.1233C33.7471 31.1557 33.8825 31.3236 33.9624 31.6268C34.0634 32.1246 34.055 32.7145 33.9373 33.3963C33.8195 34.0782 33.603 34.7246 33.2876 35.3355C32.985 35.9441 32.581 36.4649 32.0756 36.8978C31.5808 37.3156 31.0101 37.5286 30.3637 37.5368C29.7075 37.6393 29.1553 37.5449 28.7073 37.2537C28.2571 36.9497 27.8713 36.5615 27.5501 36.0893C27.2394 35.602 26.9819 35.0789 26.7775 34.5199C26.5732 33.961 26.393 33.4639 26.2369 33.0287ZM30.5472 28.0047C30.0374 27.5128 29.5573 27.2272 29.107 27.148C28.6567 27.0687 28.2128 27.1007 27.7753 27.244C27.5128 27.3299 27.2982 27.5 27.1315 27.7541C26.9625 27.9955 26.8433 28.2942 26.7738 28.6502C26.7021 28.9934 26.6768 29.3746 26.6979 29.794C26.7167 30.2006 26.7826 30.612 26.8957 31.0284L30.5472 28.0047ZM48.2734 40.3088C48.1084 38.6984 47.9589 37.3629 47.8248 36.3024C47.6907 35.2418 47.5644 34.3386 47.4461 33.5926C47.3384 32.8315 47.2272 32.1636 47.1126 31.5888C46.9981 31.014 46.8714 30.4083 46.7327 29.7717C46.5918 29.1222 46.4286 28.3842 46.2431 27.5574C46.0683 26.7156 45.855 25.6559 45.6032 24.3781C45.604 24.2325 45.6338 24.1016 45.6926 23.9855C45.7492 23.8565 45.819 23.7649 45.902 23.7106C45.9955 23.6412 46.1045 23.622 46.229 23.6529C46.3534 23.6839 46.4892 23.7789 46.6362 23.9381L47.0194 26.4488C47.3559 25.8077 47.7528 25.2088 48.2099 24.6522C48.6799 24.0934 49.1646 23.6179 49.664 23.2257C50.174 22.8185 50.6816 22.5108 51.187 22.3027C51.6902 22.0818 52.1431 21.9887 52.5459 22.0234C52.9615 22.0559 53.3035 22.2336 53.572 22.5565C53.851 22.8643 54.015 23.3444 54.064 23.9968C54.1122 24.5701 54.0465 25.2097 53.8668 25.9157C53.685 26.6088 53.4326 27.3144 53.1096 28.0325C52.7973 28.7354 52.4366 29.427 52.0277 30.1073C51.6188 30.7876 51.2103 31.3951 50.8021 31.9299C50.394 32.4646 50.0032 32.9103 49.6298 33.267C49.2669 33.6087 48.9637 33.801 48.7201 33.8439C48.7389 34.0257 48.7637 34.2792 48.7946 34.6042C48.8278 34.9422 48.8677 35.3186 48.9144 35.7334C48.9634 36.1611 49.0082 36.6027 49.0489 37.0583C49.1023 37.5117 49.1524 37.9457 49.1992 38.3606C49.2459 38.7755 49.2858 39.1519 49.3189 39.4898C49.3521 39.8277 49.3833 40.08 49.4127 40.2467C49.3599 40.3221 49.2932 40.3934 49.2124 40.4605C49.1317 40.5276 49.0412 40.5766 48.9409 40.6076C48.8406 40.6385 48.7334 40.6309 48.6196 40.5849C48.5079 40.5517 48.3925 40.4596 48.2734 40.3088ZM48.4306 32.7645C48.8243 32.5232 49.2721 32.1005 49.7737 31.4964C50.2732 30.8795 50.7492 30.1675 51.2019 29.3605C51.6651 28.5384 52.0594 27.6623 52.3846 26.7324C52.7098 25.8024 52.8951 24.9037 52.9405 24.0363C52.7912 23.6395 52.5706 23.4008 52.2787 23.32C51.9868 23.2393 51.6617 23.2701 51.3034 23.4126C50.9557 23.5401 50.5864 23.7704 50.1957 24.1038C49.8026 24.4243 49.4315 24.7938 49.0822 25.2124C48.7435 25.6159 48.4372 26.0533 48.1633 26.5247C47.8894 26.9961 47.6914 27.4475 47.5691 27.8789L48.4306 32.7645ZM57.4801 32.4381C57.1296 30.6753 56.833 29.1807 56.5903 27.9542C56.3476 26.7277 56.1486 25.7117 55.9934 24.9061C55.8381 24.1005 55.7145 23.4744 55.6225 23.0279C55.5411 22.5663 55.4748 22.2276 55.4235 22.0118C55.3851 21.7939 55.3625 21.6656 55.3557 21.6272C55.3467 21.5759 55.341 21.5438 55.3387 21.531C55.3312 21.4133 55.372 21.307 55.461 21.2119C55.55 21.1169 55.6511 21.0528 55.7642 21.0196C55.8879 20.9714 56.012 20.9627 56.1365 20.9937C56.2609 21.0246 56.359 21.0933 56.4306 21.1996L57.2684 25.6134C57.3047 24.6947 57.4824 23.9031 57.8016 23.2386C58.1336 22.5719 58.5394 22.0243 59.0192 21.596C59.4967 21.1548 60.015 20.832 60.5739 20.6277C61.1457 20.4211 61.6895 20.3186 62.2055 20.3202C62.379 20.3293 62.5132 20.3783 62.6082 20.4673C62.7161 20.5541 62.7813 20.6616 62.8039 20.7898C62.8371 20.903 62.8254 21.024 62.7688 21.153C62.7228 21.2669 62.6466 21.3596 62.5402 21.4313C61.9564 21.4946 61.4205 21.642 60.9324 21.8734C60.4549 22.0899 60.0283 22.37 59.6527 22.7139C59.2875 23.0427 58.9764 23.4149 58.7191 23.8305C58.4746 24.2438 58.2977 24.665 58.1883 25.0942C58.0207 25.7187 57.9422 26.3606 57.9527 27.0198C57.9737 27.664 58.0268 28.3025 58.1119 28.9353C58.2099 29.5659 58.315 30.1622 58.4274 30.7242C58.5525 31.2838 58.646 31.7764 58.7077 32.2018C58.7198 32.3451 58.6749 32.4654 58.5731 32.5627C58.4818 32.6449 58.3656 32.6985 58.2246 32.7233C58.0986 32.7588 57.9594 32.7569 57.8071 32.7176C57.6653 32.6633 57.5563 32.5701 57.4801 32.4381ZM65.2215 26.1546C65.1453 26.2474 64.9906 26.3077 64.7576 26.3356C64.535 26.3484 64.3208 26.3333 64.1149 26.2903C63.9218 26.245 63.7819 26.1639 63.6952 26.0469C63.6062 25.9172 63.6549 25.7433 63.8412 25.5254C63.9174 25.4326 64.0045 25.3644 64.1026 25.3206C64.2112 25.2618 64.3146 25.2105 64.4126 25.1668C64.5213 25.108 64.602 25.0409 64.6548 24.9654C64.7204 24.8878 64.7472 24.7773 64.7352 24.634C64.6462 24.0547 64.5871 23.4569 64.5578 22.8406C64.5413 22.2221 64.6066 21.6553 64.7538 21.1401C64.9009 20.625 65.1612 20.1891 65.5346 19.8323C65.9209 19.4734 66.4723 19.2637 67.1888 19.2035C67.4453 19.1583 67.7451 19.1715 68.0883 19.2432C68.4292 19.3021 68.7652 19.4081 69.0963 19.5613C69.4252 19.7016 69.7235 19.8936 69.9912 20.1373C70.2567 20.3682 70.4433 20.6393 70.5512 20.9509C70.6635 21.0633 70.6405 21.2326 70.4821 21.4589C70.3236 21.6851 70.0928 21.9506 69.7895 22.2553C69.484 22.5472 69.1347 22.8533 68.7417 23.1739C68.3487 23.4944 67.9662 23.7998 67.5943 24.0901C67.2353 24.3782 66.9165 24.6327 66.6382 24.8537C66.3598 25.0747 66.1814 25.2251 66.103 25.3051C66.2681 25.7916 66.4441 26.3027 66.6311 26.8382C66.8181 27.3738 67.0356 27.8577 67.2837 28.2899C67.5318 28.7221 67.8048 29.0707 68.1027 29.3355C68.4112 29.5852 68.7578 29.6761 69.1425 29.6083C69.7135 29.5472 70.1796 29.3791 70.541 29.1038C70.9151 28.8263 71.2075 28.4971 71.4179 28.1162C71.6284 27.7354 71.7756 27.3326 71.8594 26.908C71.956 26.481 72.0111 26.0813 72.0247 25.7087C72.0512 25.3338 72.0557 25.0223 72.0384 24.7741C72.0317 24.5109 72.0389 24.3642 72.06 24.334C72.1875 24.2322 72.3478 24.2039 72.5409 24.2492C72.7317 24.2817 72.867 24.4495 72.947 24.7528C73.048 25.2506 73.0396 25.8404 72.9218 26.5223C72.8041 27.2041 72.5875 27.8505 72.2721 28.4614C71.9696 29.0701 71.5656 29.5909 71.0602 30.0238C70.5653 30.4416 69.9947 30.6546 69.3482 30.6628C68.692 30.7653 68.1399 30.6709 67.6919 30.3797C67.2416 30.0757 66.8559 29.6875 66.5346 29.2153C66.2239 28.728 65.9664 28.2049 65.7621 27.6459C65.5577 27.087 65.3775 26.5899 65.2215 26.1546ZM69.5317 21.1306C69.0219 20.6388 68.5418 20.3532 68.0915 20.2739C67.6413 20.1947 67.1974 20.2267 66.7599 20.3699C66.4974 20.4559 66.2827 20.6259 66.116 20.8801C65.947 21.1215 65.8278 21.4201 65.7584 21.7761C65.6867 22.1193 65.6613 22.5006 65.6824 22.92C65.7012 23.3265 65.7671 23.738 65.8802 24.1544L69.5317 21.1306ZM75.6984 29.4241C75.6275 29.1721 75.5295 28.7663 75.4044 28.2066C75.2898 27.6319 75.1552 26.9813 75.0007 26.2549C74.8568 25.5134 74.7049 24.7271 74.5451 23.8958C74.3853 23.0646 74.2183 22.2677 74.0442 21.5051C73.8806 20.7274 73.708 20.0108 73.5263 19.3553C73.3574 18.6976 73.1995 18.1767 73.0525 17.7928C72.9959 17.4722 73.0605 17.2757 73.246 17.2033C73.4421 17.1159 73.673 17.0752 73.9385 17.0812C74.2235 18.0226 74.4541 18.881 74.6305 19.6564C74.8198 20.4296 74.975 21.1228 75.0964 21.736C75.2283 22.3342 75.3402 22.8565 75.4322 23.3031C75.5347 23.7345 75.6418 24.0793 75.7534 24.3372C75.697 23.1176 75.6786 22.0763 75.6984 21.2134C75.7181 20.3505 75.7714 19.6404 75.8582 19.083C75.9556 18.5105 76.0918 18.0832 76.2668 17.8011C76.4396 17.5062 76.6508 17.3169 76.9005 17.2333C77.1268 17.1669 77.3776 17.3144 77.6528 17.6757C77.9258 18.0243 78.1988 18.4852 78.4718 19.0584C78.7576 19.6295 79.0268 20.2563 79.2793 20.939C79.5425 21.6065 79.7645 22.2285 79.9455 22.8048C80.1531 21.4328 80.3313 20.3436 80.48 19.5373C80.6415 18.7287 80.7973 18.1129 80.9475 17.6898C81.0954 17.2538 81.2501 16.9687 81.4115 16.8345C81.5858 16.698 81.7894 16.6158 82.0225 16.5879C82.3325 16.5465 82.5999 16.6382 82.8246 16.863C83.0599 17.0727 83.2662 17.3801 83.4434 17.7852C83.6183 18.1774 83.7736 18.6458 83.9093 19.1904C84.0556 19.72 84.1947 20.2838 84.3266 20.882C84.4713 21.4779 84.6247 22.0855 84.7868 22.7047C84.9595 23.3089 85.1532 23.883 85.3681 24.4268C85.583 24.9707 85.836 25.4682 86.1271 25.9193C86.4159 26.3576 86.7606 26.7 87.1611 26.9467C87.0864 27.1979 86.9868 27.4204 86.8623 27.6142C86.7355 27.7952 86.5798 27.8492 86.395 27.776C85.9802 27.5979 85.6065 27.2407 85.2739 26.7044C84.9519 26.1529 84.6548 25.5178 84.3826 24.7989C84.1104 24.0801 83.8722 23.3288 83.6679 22.5451C83.4613 21.7485 83.2736 21.0214 83.1047 20.3636C82.9359 19.7059 82.7809 19.1646 82.6399 18.74C82.5118 18.313 82.3953 18.1022 82.2904 18.1075C81.9095 18.1217 81.6277 18.773 81.445 20.0613C81.2751 21.3473 81.0874 23.2447 80.8819 25.7534C80.8472 25.9314 80.7917 26.0667 80.7155 26.1595C80.6371 26.2395 80.5529 26.2873 80.4632 26.3032C80.3734 26.319 80.2791 26.3092 80.1803 26.2737C80.0793 26.2254 79.9888 26.1621 79.9088 26.0836C79.5575 25.1407 79.2385 24.2318 78.952 23.3568C78.6783 22.4795 78.4292 21.7037 78.2045 21.0293C77.9798 20.355 77.7725 19.8164 77.5824 19.4136C77.4052 19.0085 77.2503 18.8045 77.1175 18.8014C76.9976 18.7961 76.9048 18.9447 76.8391 19.2472C76.784 19.5345 76.7481 19.9309 76.7315 20.4363C76.7125 20.9288 76.7042 21.5186 76.7063 22.2058C76.7191 22.8779 76.7344 23.6023 76.7524 24.3792C76.7704 25.1562 76.7865 25.9598 76.8007 26.7903C76.8127 27.6079 76.8107 28.4214 76.7947 29.2308C76.7615 29.3424 76.6982 29.4329 76.6046 29.5023C76.5133 29.5845 76.41 29.6358 76.2946 29.6561C76.192 29.6742 76.0849 29.6666 75.9733 29.6334C75.8616 29.6002 75.77 29.5304 75.6984 29.4241ZM86.8644 15.4565C86.9346 15.4045 87.0187 15.3566 87.1168 15.3129C87.2148 15.2691 87.3087 15.2393 87.3985 15.2235C87.5011 15.2054 87.6006 15.2077 87.6972 15.2303C87.7937 15.253 87.8767 15.3111 87.9461 15.4046C88.093 16.2381 88.2589 17.141 88.4435 18.1133C88.6387 19.0705 88.8374 20.0469 89.0394 21.0426C89.2519 22.0232 89.4558 22.9921 89.6511 23.9493C89.8463 24.9065 90.0291 25.7932 90.1994 26.6093C90.2462 26.7994 90.2209 26.9559 90.1236 27.0789C90.0262 27.2018 89.907 27.2757 89.766 27.3006C89.6378 27.3232 89.5069 27.2934 89.3734 27.2111C89.2422 27.1417 89.1585 27.0044 89.1223 26.7993L86.8644 15.4565ZM85.9417 11.5734C85.9123 11.4067 85.9508 11.2875 86.0572 11.2159C86.1613 11.1314 86.2839 11.0767 86.4249 11.0518C86.707 11.0021 86.8971 11.0678 86.9951 11.2488C87.1037 11.4147 87.1795 11.6195 87.2225 11.8632C87.1727 12.0306 87.0893 12.1577 86.9724 12.2444C86.8554 12.3312 86.7231 12.3677 86.5752 12.3541C86.4402 12.3383 86.309 12.2689 86.1815 12.1459C86.0669 12.0207 85.987 11.8298 85.9417 11.5734ZM91.969 21.4383C91.8928 21.5311 91.7382 21.5914 91.5051 21.6193C91.2826 21.6321 91.0684 21.617 90.8625 21.5739C90.6694 21.5287 90.5295 21.4476 90.4427 21.3306C90.3537 21.2009 90.4024 21.027 90.5888 20.8091C90.665 20.7163 90.7521 20.6481 90.8501 20.6043C90.9588 20.5455 91.0621 20.4942 91.1602 20.4505C91.2688 20.3917 91.3495 20.3246 91.4023 20.2491C91.468 20.1715 91.4947 20.061 91.4827 19.9176C91.3938 19.3383 91.3346 18.7406 91.3053 18.1243C91.2888 17.5058 91.3541 16.939 91.5013 16.4238C91.6484 15.9087 91.9087 15.4727 92.2821 15.116C92.6684 14.757 93.2198 14.5474 93.9364 14.4872C94.1928 14.442 94.4926 14.4552 94.8358 14.5269C95.1768 14.5858 95.5128 14.6918 95.8439 14.845C96.1727 14.9853 96.471 15.1773 96.7387 15.421C97.0042 15.6518 97.1909 15.923 97.2987 16.2346C97.4111 16.347 97.388 16.5163 97.2296 16.7426C97.0712 16.9688 96.8403 17.2343 96.5371 17.539C96.2315 17.8308 95.8823 18.137 95.4892 18.4575C95.0962 18.7781 94.7138 19.0835 94.3419 19.3738C93.9828 19.6619 93.6641 19.9164 93.3857 20.1374C93.1073 20.3584 92.9289 20.5088 92.8505 20.5888C93.0156 21.0753 93.1917 21.5863 93.3786 22.1219C93.5656 22.6575 93.7832 23.1414 94.0313 23.5736C94.2794 24.0058 94.5524 24.3543 94.8503 24.6191C95.1587 24.8688 95.5053 24.9598 95.89 24.892C96.461 24.8309 96.9272 24.6628 97.2885 24.3875C97.6627 24.11 97.955 23.7808 98.1655 23.3999C98.376 23.0191 98.5231 22.6163 98.6069 22.1916C98.7035 21.7647 98.7586 21.365 98.7723 20.9924C98.7987 20.6175 98.8033 20.306 98.786 20.0578C98.7792 19.7946 98.7864 19.6479 98.8075 19.6177C98.935 19.5159 99.0953 19.4876 99.2884 19.5329C99.4792 19.5654 99.6146 19.7332 99.6945 20.0365C99.7955 20.5343 99.7871 21.1241 99.6694 21.806C99.5516 22.4878 99.335 23.1342 99.0197 23.7451C98.7171 24.3538 98.3131 24.8746 97.8077 25.3075C97.3128 25.7253 96.7422 25.9383 96.0958 25.9465C95.4395 26.049 94.8874 25.9546 94.4394 25.6634C93.9892 25.3593 93.6034 24.9712 93.2821 24.499C92.9714 24.0117 92.7139 23.4886 92.5096 22.9296C92.3053 22.3707 92.1251 21.8736 91.969 21.4383ZM96.2793 16.4143C95.7694 15.9225 95.2894 15.6369 94.8391 15.5576C94.3888 15.4784 93.9449 15.5104 93.5074 15.6536C93.2449 15.7396 93.0303 15.9096 92.8635 16.1638C92.6946 16.4051 92.5753 16.7038 92.5059 17.0598C92.4342 17.403 92.4089 17.7843 92.4299 18.2037C92.4487 18.6102 92.5147 19.0217 92.6278 19.4381L96.2793 16.4143ZM102.316 24.5324C101.965 22.7696 101.669 21.2749 101.426 20.0485C101.183 18.822 100.984 17.8059 100.829 17.0003C100.674 16.1948 100.55 15.5687 100.458 15.1221C100.377 14.6605 100.31 14.3218 100.259 14.1061C100.221 13.8881 100.198 13.7599 100.191 13.7214C100.182 13.6701 100.177 13.6381 100.174 13.6252C100.167 13.5076 100.208 13.4012 100.297 13.3062C100.386 13.2112 100.487 13.1471 100.6 13.1139C100.724 13.0656 100.848 13.057 100.972 13.0879C101.097 13.1189 101.195 13.1875 101.266 13.2939L102.104 17.7077C102.14 16.789 102.318 15.9974 102.637 15.3329C102.969 14.6662 103.375 14.1186 103.855 13.6902C104.332 13.2491 104.851 12.9263 105.41 12.722C105.981 12.5154 106.525 12.4129 107.041 12.4145C107.215 12.4235 107.349 12.4726 107.444 12.5616C107.552 12.6483 107.617 12.7558 107.64 12.8841C107.673 12.9972 107.661 13.1183 107.604 13.2473C107.558 13.3611 107.482 13.4539 107.376 13.5255C106.792 13.5888 106.256 13.7362 105.768 13.9677C105.291 14.1841 104.864 14.4643 104.488 14.8082C104.123 15.137 103.812 15.5092 103.555 15.9247C103.31 16.3381 103.133 16.7593 103.024 17.1885C102.856 17.813 102.778 18.4549 102.788 19.1141C102.809 19.7583 102.862 20.3968 102.948 21.0296C103.046 21.6602 103.151 22.2565 103.263 22.8184C103.388 23.3781 103.482 23.8707 103.543 24.2961C103.555 24.4394 103.511 24.5597 103.409 24.657C103.317 24.7392 103.201 24.7927 103.06 24.8176C102.934 24.853 102.795 24.8511 102.643 24.8119C102.501 24.7576 102.392 24.6644 102.316 24.5324ZM36.2761 62.1933C36.1916 62.5388 36.0456 62.9479 35.8381 63.4208C35.6306 63.8937 35.3737 64.3489 35.0674 64.7863C34.7611 65.2238 34.4073 65.6167 34.0059 65.9651C33.6152 66.2985 33.1826 66.507 32.7081 66.5906C32.503 66.6268 32.3317 66.6305 32.1945 66.6019C32.07 66.5709 31.9486 66.5196 31.8302 66.4479C31.7223 66.3612 31.6175 66.2541 31.5157 66.1266C31.4139 65.9991 31.2894 65.8558 31.1424 65.6966C30.9139 65.0758 30.7243 64.3754 30.5736 63.5955C30.4356 62.8133 30.3607 62.0133 30.3487 61.1957C30.3496 60.3758 30.4214 59.5831 30.564 58.8175C30.7173 58.0368 30.9667 57.3516 31.3122 56.7618C31.6706 56.1698 32.1383 55.7105 32.7153 55.384C33.303 55.0423 34.0241 54.8954 34.8787 54.943C34.8132 54.1216 34.6771 53.3126 34.4706 52.5161C34.2617 51.7067 34.0601 50.863 33.8656 49.985C33.843 49.8568 33.8849 49.7568 33.9912 49.6852C34.0953 49.6007 34.2168 49.5397 34.3556 49.502C34.5049 49.4492 34.6449 49.4179 34.7754 49.4081C34.9187 49.3961 35.013 49.4059 35.0582 49.4376C35.2489 50.5939 35.4226 51.6541 35.5793 52.618C35.7489 53.5798 35.9095 54.4902 36.0609 55.3493C36.2102 56.1957 36.3549 57.0163 36.4951 57.8114C36.6352 58.6064 36.7788 59.4207 36.9258 60.2542C37.0856 61.0854 37.2469 61.9626 37.4097 62.8859C37.5853 63.8069 37.7703 64.8188 37.9648 65.9216C38.0651 66.1154 38.0764 66.2919 37.9986 66.4511C37.9338 66.6079 37.8342 66.7181 37.6999 66.7814C37.5656 66.8447 37.4148 66.8515 37.2473 66.8017C37.0927 66.7496 36.977 66.618 36.9 66.4068L36.2761 62.1933ZM34.2574 56.1433C33.7565 56.1523 33.3186 56.3684 32.9437 56.7915C32.5793 57.1995 32.2824 57.7278 32.0531 58.3765C31.8214 59.0123 31.661 59.7149 31.5719 60.4842C31.4805 61.2407 31.4627 61.9645 31.5184 62.6554C31.5847 63.3312 31.723 63.9283 31.9334 64.4465C32.1438 64.9647 32.4338 65.297 32.8033 65.4434C33.1239 65.3869 33.4188 65.2225 33.6882 64.9502C33.9552 64.6651 34.1929 64.3257 34.4011 63.932C34.6222 63.5361 34.8108 63.1062 34.967 62.6423C35.1337 62.1634 35.2707 61.7029 35.3779 61.2609C35.485 60.8189 35.5541 60.4233 35.5851 60.0741C35.6266 59.7098 35.6316 59.4378 35.5999 59.2583C35.575 59.1173 35.531 58.8672 35.4676 58.5082C35.4043 58.1491 35.3142 57.7882 35.1974 57.4254C35.0933 57.0603 34.9588 56.7469 34.7936 56.4851C34.6413 56.2211 34.4625 56.1072 34.2574 56.1433ZM43.5087 53.0246C43.508 52.9454 43.5317 52.8553 43.58 52.7542C43.6389 52.6381 43.7162 52.5517 43.812 52.4952C43.9206 52.4364 44.0458 52.4341 44.1876 52.4885C44.34 52.5277 44.5082 52.6567 44.6922 52.8755C44.815 53.8719 44.925 54.8706 45.0221 55.8715C45.1299 56.8574 45.2685 57.8311 45.4381 58.7929C45.6182 59.7395 45.8485 60.6707 46.129 61.5864C46.4223 62.4999 46.8072 63.3708 47.2838 64.199C47.3125 64.2865 47.294 64.3691 47.2283 64.4468C47.165 64.5373 47.0714 64.6067 46.9477 64.6549C46.8263 64.716 46.7003 64.7515 46.5698 64.7612C46.4393 64.771 46.3266 64.7314 46.2315 64.6424L44.9919 61.5489C44.97 61.7247 44.8655 61.9943 44.6784 62.3579C44.5041 62.7191 44.2861 63.0947 44.0243 63.4847C43.7731 63.8595 43.5034 64.2045 43.2152 64.5198C42.9247 64.8222 42.6588 65.0013 42.4175 65.0571C41.8216 65.2018 41.3098 65.0739 40.8822 64.6733C40.4546 64.2727 40.0918 63.7153 39.794 63.0009C39.5067 62.2715 39.2689 61.4474 39.0804 60.5287C38.892 59.61 38.7337 58.7124 38.6056 57.8359C38.4775 56.9594 38.3705 56.1651 38.2846 55.4531C38.1987 54.741 38.1072 54.2217 38.0099 53.8951C38.0303 53.7857 38.0808 53.6975 38.1615 53.6303C38.2551 53.561 38.3596 53.5161 38.475 53.4957C38.5904 53.4754 38.7039 53.4818 38.8155 53.515C38.94 53.546 39.0369 53.6082 39.1063 53.7018C39.2088 54.1332 39.3113 54.6771 39.4138 55.3333C39.5163 55.9895 39.6267 56.6906 39.745 57.4366C39.8611 58.1698 39.9911 58.9071 40.135 59.6486C40.2918 60.3878 40.4629 61.0584 40.6484 61.6603C40.8316 62.2495 41.0363 62.7356 41.2626 63.1188C41.4994 63.4869 41.7697 63.6706 42.0737 63.6699C42.2917 63.6315 42.4973 63.5225 42.6904 63.343C42.8835 63.1635 43.0698 62.9456 43.2494 62.6892C43.4267 62.4199 43.5878 62.1337 43.7326 61.8305C43.8752 61.5145 43.9944 61.2158 44.0903 60.9344C44.1838 60.6403 44.2563 60.3763 44.3076 60.1425C44.3589 59.9087 44.3808 59.7329 44.3733 59.6153C44.359 59.4591 44.3353 59.2121 44.3021 58.8742C44.2667 58.5234 44.2181 58.1353 44.1563 57.7099C44.1051 57.2694 44.043 56.8044 43.9699 56.3149C43.9096 55.8231 43.8485 55.3645 43.7868 54.939C43.7355 54.4985 43.6805 54.1116 43.6217 53.7782C43.5735 53.4297 43.5358 53.1785 43.5087 53.0246ZM60.601 67.5825C60.436 65.9721 60.2865 64.6366 60.1524 63.5761C60.0183 62.5155 59.892 61.6123 59.7737 60.8663C59.666 60.1052 59.5548 59.4373 59.4402 58.8625C59.3257 58.2877 59.199 57.682 59.0603 57.0454C58.9194 56.3959 58.7562 55.6578 58.5707 54.8311C58.3959 53.9893 58.1826 52.9295 57.9308 51.6518C57.9316 51.5062 57.9614 51.3753 58.0202 51.2592C58.0768 51.1302 58.1466 51.0386 58.2296 50.9843C58.3231 50.9149 58.4321 50.8957 58.5566 50.9266C58.681 50.9576 58.8168 51.0526 58.9638 51.2118L59.347 53.7224C59.6835 53.0814 60.0804 52.4825 60.5375 51.9259C61.0075 51.3671 61.4922 50.8916 61.9916 50.4994C62.5016 50.0922 63.0092 49.7845 63.5146 49.5764C64.0178 49.3555 64.4707 49.2624 64.8735 49.2971C65.2891 49.3296 65.6311 49.5073 65.8996 49.8302C66.1787 50.1379 66.3426 50.6181 66.3916 51.2705C66.4398 51.8438 66.3741 52.4834 66.1944 53.1894C66.0126 53.8825 65.7602 54.5881 65.4372 55.3061C65.1249 56.0091 64.7642 56.7007 64.3553 57.381C63.9464 58.0613 63.5379 58.6688 63.1297 59.2035C62.7216 59.7383 62.3308 60.184 61.9574 60.5407C61.5946 60.8824 61.2913 61.0747 61.0477 61.1176C61.0665 61.2994 61.0914 61.5528 61.1222 61.8779C61.1554 62.2159 61.1953 62.5922 61.242 63.0071C61.291 63.4348 61.3358 63.8764 61.3765 64.332C61.43 64.7853 61.4801 65.2194 61.5268 65.6343C61.5735 66.0491 61.6134 66.4255 61.6465 66.7635C61.6797 67.1014 61.7109 67.3537 61.7403 67.5204C61.6875 67.5958 61.6208 67.6671 61.54 67.7342C61.4593 67.8013 61.3688 67.8503 61.2685 67.8812C61.1682 67.9122 61.0611 67.9046 60.9472 67.8586C60.8355 67.8254 60.7201 67.7333 60.601 67.5825ZM60.7582 60.0382C61.1519 59.7969 61.5997 59.3742 62.1013 58.7701C62.6008 58.1531 63.0768 57.4412 63.5295 56.6342C63.9927 55.8121 64.387 54.936 64.7122 54.006C65.0374 53.0761 65.2227 52.1774 65.2681 51.31C65.1188 50.9132 64.8982 50.6744 64.6063 50.5937C64.3144 50.5129 63.9893 50.5438 63.631 50.6863C63.2833 50.8137 62.914 51.0441 62.5233 51.3775C62.1302 51.698 61.7591 52.0675 61.4098 52.4861C61.0711 52.8896 60.7648 53.327 60.4909 53.7984C60.217 54.2698 60.019 54.7212 59.8967 55.1526L60.7582 60.0382ZM69.5244 54.8433C69.4482 54.9361 69.2936 54.9964 69.0605 55.0242C68.838 55.037 68.6238 55.0219 68.4179 54.9789C68.2248 54.9336 68.0849 54.8525 67.9982 54.7356C67.9092 54.6058 67.9578 54.432 68.1442 54.214C68.2204 54.1213 68.3075 54.053 68.4056 54.0093C68.5142 53.9505 68.6175 53.8992 68.7156 53.8554C68.8242 53.7966 68.9049 53.7295 68.9578 53.6541C69.0234 53.5764 69.0502 53.4659 69.0381 53.3226C68.9492 52.7433 68.8901 52.1455 68.8607 51.5293C68.8442 50.9108 68.9096 50.3439 69.0567 49.8288C69.2039 49.3136 69.4642 48.8777 69.8376 48.521C70.2238 48.162 70.7752 47.9524 71.4918 47.8921C71.7483 47.8469 72.0481 47.8602 72.3913 47.9319C72.7322 47.9908 73.0682 48.0968 73.3993 48.2499C73.7282 48.3903 74.0264 48.5823 74.2942 48.826C74.5596 49.0568 74.7463 49.328 74.8541 49.6395C74.9665 49.7519 74.9435 49.9213 74.785 50.1475C74.6266 50.3738 74.3958 50.6392 74.0925 50.9439C73.787 51.2358 73.4377 51.542 73.0447 51.8625C72.6516 52.183 72.2692 52.4884 71.8973 52.7788C71.5382 53.0669 71.2195 53.3214 70.9411 53.5424C70.6628 53.7633 70.4844 53.9138 70.4059 53.9937C70.571 54.4802 70.7471 54.9913 70.9341 55.5269C71.1211 56.0624 71.3386 56.5463 71.5867 56.9786C71.8348 57.4108 72.1078 57.7593 72.4057 58.0241C72.7142 58.2738 73.0607 58.3647 73.4454 58.2969C74.0164 58.2359 74.4826 58.0678 74.8439 57.7925C75.2181 57.515 75.5104 57.1858 75.7209 56.8049C75.9314 56.424 76.0785 56.0212 76.1623 55.5966C76.2589 55.1697 76.3141 54.7699 76.3277 54.3973C76.3541 54.0225 76.3587 53.7109 76.3414 53.4628C76.3346 53.1995 76.3418 53.0528 76.3629 53.0227C76.4904 52.9209 76.6507 52.8926 76.8438 52.9379C77.0346 52.9703 77.17 53.1382 77.2499 53.4414C77.3509 53.9392 77.3425 54.5291 77.2248 55.2109C77.107 55.8928 76.8905 56.5392 76.5751 57.1501C76.2725 57.7588 75.8685 58.2795 75.3631 58.7124C74.8683 59.1302 74.2976 59.3432 73.6512 59.3514C72.995 59.4539 72.4428 59.3595 71.9948 59.0683C71.5446 58.7643 71.1588 58.3762 70.8376 57.9039C70.5269 57.4166 70.2694 56.8935 70.065 56.3346C69.8607 55.7756 69.6805 55.2785 69.5244 54.8433ZM73.8347 49.8193C73.3249 49.3274 72.8448 49.0419 72.3945 48.9626C71.9442 48.8833 71.5003 48.9153 71.0628 49.0586C70.8003 49.1445 70.5857 49.3146 70.419 49.5688C70.25 49.8101 70.1308 50.1088 70.0613 50.4648C69.9896 50.808 69.9643 51.1893 69.9854 51.6086C70.0042 52.0152 70.0701 52.4267 70.1832 52.843L73.8347 49.8193ZM77.2033 42.2442C77.2712 42.1794 77.3391 42.1145 77.407 42.0497C77.4854 41.9697 77.5684 41.9154 77.6559 41.8868C77.7411 41.8453 77.8192 41.8381 77.8901 41.8653C77.9738 41.8902 78.0526 41.9623 78.1265 42.0814L81.04 57.9296C80.9985 58.0691 80.9298 58.1672 80.834 58.2237C80.7405 58.2931 80.6402 58.324 80.5331 58.3165C80.4282 58.3217 80.3253 58.3002 80.2242 58.2519C80.1359 58.2014 80.0711 58.1335 80.0296 58.0482L77.2033 42.2442ZM85.5424 57.2348C85.0182 57.2612 84.5589 57.1306 84.1644 56.8432C83.7828 56.5535 83.4517 56.1755 83.1712 55.7094C82.8907 55.2432 82.6664 54.7208 82.4982 54.1423C82.3407 53.5486 82.2238 52.961 82.1477 52.3795C82.0302 51.4879 82.0413 50.6133 82.1809 49.7557C82.3334 48.8959 82.5692 48.1337 82.8884 47.4692C83.2181 46.7897 83.6111 46.2444 84.0675 45.8334C84.5345 45.4073 85.0248 45.1886 85.5385 45.1773C86.0778 45.1616 86.545 45.337 86.9402 45.7037C87.3482 46.068 87.6963 46.5421 87.9843 47.126C88.2724 47.7098 88.5001 48.3638 88.6674 49.088C88.8325 49.7993 88.9482 50.4928 89.0145 51.1687C89.0838 51.9365 89.0414 52.6712 88.8874 53.3727C88.7335 54.0741 88.4931 54.6982 88.1665 55.245C87.8526 55.7896 87.463 56.2417 86.9975 56.6014C86.5426 56.9461 86.0576 57.1572 85.5424 57.2348ZM85.5394 46.3076C85.1072 46.331 84.7335 46.5357 84.4181 46.9218C84.1133 47.2929 83.8598 47.7673 83.6576 48.345C83.4659 48.9077 83.3327 49.5394 83.258 50.2401C83.1809 50.928 83.1669 51.5982 83.2158 52.2506C83.2459 52.7213 83.3103 53.1991 83.4091 53.6842C83.5078 54.1692 83.6435 54.6014 83.8162 54.9808C84.0017 55.358 84.2325 55.6544 84.5085 55.8702C84.7951 56.0709 85.1372 56.1362 85.5347 56.0661C85.8575 56.0224 86.1717 55.8546 86.4772 55.5627C86.7956 55.2686 87.0747 54.9021 87.3146 54.4631C87.5523 54.0113 87.7424 53.5151 87.8851 52.9743C88.0405 52.4312 88.1104 51.89 88.0946 51.3507C88.0871 50.7835 88.0069 50.2159 87.8538 49.6479C87.7114 49.0648 87.5191 48.5368 87.277 48.0638C87.0478 47.5886 86.7797 47.1929 86.4728 46.8769C86.1764 46.5457 85.8653 46.356 85.5394 46.3076ZM91.0464 46.9232L89.382 47.8315C89.2341 47.8179 89.1063 47.7677 88.9984 47.681C88.8778 47.5965 88.788 47.4999 88.7292 47.3913C88.6704 47.2827 88.6447 47.1748 88.6523 47.0677C88.647 46.9629 88.6848 46.8769 88.7655 46.8098L90.8124 45.596L89.8141 40.1594C89.8232 39.986 89.885 39.8494 89.9997 39.7499C90.1144 39.6503 90.2369 39.5957 90.3674 39.5859C90.5085 39.561 90.6446 39.5833 90.7759 39.6527C90.9048 39.7093 90.9999 39.7983 91.0609 39.9198C91.1054 40.3218 91.1608 40.7483 91.2271 41.1994C91.2911 41.6377 91.3563 42.0823 91.4226 42.5334C91.4995 42.9694 91.5817 43.3978 91.6691 43.8187C91.7543 44.2268 91.8466 44.6005 91.9461 44.94L94.7138 43.2025C94.8843 43.1196 95.0288 43.1139 95.1472 43.1856C95.2633 43.2444 95.3467 43.3421 95.3972 43.4787C95.4582 43.6001 95.4744 43.7295 95.4458 43.8667C95.4171 44.004 95.3431 44.1096 95.224 44.1835L92.1802 46.2671C92.2028 46.3954 92.2635 46.702 92.3622 47.187C92.4587 47.6592 92.571 48.2212 92.6991 48.8729C92.8273 49.5246 92.9633 50.2212 93.1073 50.9626C93.2512 51.7041 93.3809 52.4018 93.4962 53.0558C93.6243 53.7075 93.7314 54.277 93.8173 54.7643C93.9138 55.2365 93.9733 55.5367 93.9959 55.6649C94.0449 56.0926 93.9604 56.3257 93.7424 56.3641C93.5244 56.4026 93.2691 56.3418 92.9764 56.1818L91.0464 46.9232ZM99.5721 54.761C99.0479 54.7874 98.5885 54.6568 98.1941 54.3694C97.8125 54.0797 97.4814 53.7017 97.2009 53.2356C96.9203 52.7694 96.696 52.247 96.5279 51.6684C96.3703 51.0748 96.2535 50.4872 96.1774 49.9057C96.0599 49.0141 96.0709 48.1395 96.2106 47.2819C96.3631 46.4221 96.5989 45.6599 96.918 44.9954C97.2477 44.3159 97.6408 43.7706 98.0972 43.3596C98.5641 42.9335 99.0545 42.7148 99.5681 42.7035C100.107 42.6878 100.575 42.8632 100.97 43.2298C101.378 43.5942 101.726 44.0683 102.014 44.6522C102.302 45.236 102.53 45.89 102.697 46.6141C102.862 47.3255 102.978 48.019 103.044 48.6949C103.113 49.4627 103.071 50.1974 102.917 50.8988C102.763 51.6003 102.523 52.2244 102.196 52.7712C101.882 53.3158 101.493 53.7679 101.027 54.1276C100.572 54.4723 100.087 54.6834 99.5721 54.761ZM99.5691 43.8338C99.1369 43.8571 98.7631 44.0619 98.4478 44.448C98.143 44.8191 97.8895 45.2935 97.6873 45.8712C97.4956 46.4339 97.3624 47.0656 97.2876 47.7663C97.2106 48.4542 97.1965 49.1244 97.2455 49.7768C97.2756 50.2475 97.34 50.7253 97.4387 51.2104C97.5375 51.6954 97.6732 52.1276 97.8459 52.507C98.0314 52.8842 98.2621 53.1806 98.5382 53.3964C98.8248 53.5971 99.1668 53.6624 99.5643 53.5923C99.8872 53.5486 100.201 53.3808 100.507 53.0889C100.825 52.7948 101.104 52.4283 101.344 51.9893C101.582 51.5375 101.772 51.0412 101.915 50.5004C102.07 49.9574 102.14 49.4162 102.124 48.8769C102.117 48.3097 102.037 47.7421 101.884 47.1741C101.741 46.591 101.549 46.063 101.307 45.59C101.077 45.1148 100.809 44.7191 100.502 44.4031C100.206 44.0719 99.8949 43.8821 99.5691 43.8338ZM103.665 42.2984C103.656 42.1679 103.689 42.0563 103.765 41.9635C103.841 41.8707 103.936 41.8078 104.049 41.7746C104.16 41.7286 104.278 41.7211 104.402 41.752C104.524 41.7701 104.632 41.8173 104.725 41.8935L106.023 49.5975C106.104 48.6313 106.162 47.6824 106.196 46.7509C106.24 45.8042 106.346 44.9395 106.512 44.1566C106.676 43.3608 106.94 42.6862 107.305 42.1326C107.668 41.5662 108.216 41.1853 108.948 40.9901C109.339 40.8815 109.707 40.9423 110.051 41.1724C110.394 41.3897 110.709 41.7174 110.998 42.1557C111.3 42.5917 111.578 43.1179 111.832 43.7342C112.084 44.3376 112.309 44.9788 112.508 45.6577C112.718 46.3215 112.903 46.9962 113.063 47.6818C113.224 48.3675 113.363 49.0041 113.479 49.5917C113.596 50.1793 113.688 50.6987 113.754 51.1497C113.833 51.5985 113.885 51.9266 113.908 52.1341C113.857 52.3679 113.721 52.5372 113.502 52.642C113.297 52.7574 113.083 52.7027 112.858 52.4779C112.802 52.2365 112.722 51.8209 112.618 51.231C112.512 50.6283 112.378 49.9446 112.217 49.1797C112.068 48.4126 111.889 47.6179 111.678 46.7957C111.477 45.9585 111.244 45.1996 110.979 44.5192C110.724 43.8238 110.433 43.2603 110.105 42.8288C109.789 42.3822 109.439 42.1596 109.056 42.1611C108.726 42.1663 108.442 42.3948 108.205 42.8466C107.98 43.2961 107.784 43.8728 107.617 44.5765C107.463 45.2779 107.337 46.0605 107.238 46.9241C107.152 47.7855 107.083 48.6306 107.03 49.4596C106.991 50.2863 106.966 51.0443 106.955 51.7337C106.945 52.4231 106.952 52.9507 106.977 53.3166C106.956 53.4259 106.894 53.5228 106.79 53.6073C106.686 53.6918 106.563 53.7464 106.422 53.7713C106.296 53.8068 106.158 53.8113 106.008 53.7848C105.871 53.7562 105.758 53.6769 105.669 53.5472L103.665 42.2984Z" fill="#2C2C2C"/>
<path d="M156.203 35.9744C168.819 29.1094 190.163 21.2796 205.769 27.383C216.131 31.4356 224.855 41.562 224.917 54.6873M224.917 54.6873C224.929 57.2847 224.55 60.0955 223.693 63.1529C219.279 78.9179 208.668 69.294 209.519 63.6185C210.444 57.4396 216.792 56.3583 224.917 54.6873ZM224.917 54.6873C231.345 53.3653 238.243 54.3494 244.213 56.9242C255.598 61.834 263.065 75.6566 263.065 75.6566M255.38 73.1814L264.269 78.9229L266.726 66.4534" stroke="#2C2C2C" stroke-linecap="round" stroke-linejoin="round"/>
</svg>
