<svg width="256" height="78" viewBox="0 0 256 78" fill="none" xmlns="http://www.w3.org/2000/svg">
<rect x="135.219" y="52.6641" width="117.8" height="23.0897" transform="rotate(-9.59682 135.219 52.6641)" fill="white"/>
<rect x="140.332" y="22.2139" width="88.1461" height="23.0897" transform="rotate(-9.59682 140.332 22.2139)" fill="white"/>
<path d="M156.125 39.433C155.602 36.6957 155.155 34.4211 154.783 32.6093C154.408 30.7846 154.102 29.3115 153.864 28.1898C153.625 27.0554 153.445 26.2211 153.324 25.6871C153.201 25.1402 153.125 24.7834 153.096 24.6167C153.062 24.4244 153.086 24.2614 153.168 24.1279C153.263 23.9922 153.376 23.9194 153.506 23.9096C153.635 23.887 153.769 23.9361 153.909 24.0568C154.047 24.1646 154.149 24.3649 154.213 24.6576L157.315 38.648L165.351 35.4065C166.21 35.255 166.46 35.5876 166.102 36.4045L156.809 40.1651C156.45 40.2284 156.222 39.9844 156.125 39.433ZM166.986 33.0753C166.91 33.1681 166.756 33.2284 166.522 33.2562C166.3 33.269 166.086 33.2539 165.88 33.2109C165.687 33.1656 165.547 33.0845 165.46 32.9676C165.371 32.8378 165.42 32.664 165.606 32.446C165.682 32.3533 165.769 32.285 165.867 32.2413C165.976 32.1825 166.079 32.1312 166.178 32.0874C166.286 32.0286 166.367 31.9615 166.42 31.8861C166.485 31.8084 166.512 31.6979 166.5 31.5546C166.411 30.9753 166.352 30.3775 166.323 29.7613C166.306 29.1428 166.371 28.5759 166.519 28.0608C166.666 27.5456 166.926 27.1097 167.299 26.753C167.686 26.394 168.237 26.1844 168.954 26.1241C169.21 26.0789 169.51 26.0922 169.853 26.1639C170.194 26.2228 170.53 26.3288 170.861 26.4819C171.19 26.6223 171.488 26.8143 171.756 27.058C172.022 27.2888 172.208 27.56 172.316 27.8715C172.428 27.9839 172.405 28.1533 172.247 28.3795C172.089 28.6058 171.858 28.8712 171.554 29.1759C171.249 29.4678 170.9 29.774 170.507 30.0945C170.114 30.415 169.731 30.7204 169.359 31.0108C169 31.2989 168.681 31.5534 168.403 31.7744C168.125 31.9953 167.946 32.1458 167.868 32.2257C168.033 32.7122 168.209 33.2233 168.396 33.7589C168.583 34.2944 168.801 34.7783 169.049 35.2106C169.297 35.6428 169.57 35.9913 169.868 36.2561C170.176 36.5058 170.523 36.5967 170.907 36.5289C171.478 36.4679 171.944 36.2998 172.306 36.0245C172.68 35.747 172.972 35.4178 173.183 35.0369C173.393 34.656 173.54 34.2532 173.624 33.8286C173.721 33.4017 173.776 33.0019 173.79 32.6293C173.816 32.2545 173.821 31.9429 173.803 31.6948C173.797 31.4315 173.804 31.2848 173.825 31.2547C173.952 31.1529 174.113 31.1246 174.306 31.1699C174.497 31.2023 174.632 31.3702 174.712 31.6734C174.813 32.1712 174.804 32.7611 174.687 33.4429C174.569 34.1248 174.352 34.7712 174.037 35.3821C173.734 35.9908 173.33 36.5115 172.825 36.9444C172.33 37.3622 171.76 37.5752 171.113 37.5834C170.457 37.6859 169.905 37.5915 169.457 37.3003C169.006 36.9963 168.621 36.6082 168.299 36.1359C167.989 35.6486 167.731 35.1255 167.527 34.5666C167.323 34.0076 167.142 33.5105 166.986 33.0753ZM171.297 28.0513C170.787 27.5594 170.307 27.2739 169.856 27.1946C169.406 27.1153 168.962 27.1473 168.525 27.2906C168.262 27.3765 168.048 27.5466 167.881 27.8008C167.712 28.0421 167.593 28.3408 167.523 28.6968C167.452 29.04 167.426 29.4213 167.447 29.8406C167.466 30.2472 167.532 30.6587 167.645 31.075L171.297 28.0513ZM189.023 40.3554C188.858 38.745 188.708 37.4095 188.574 36.349C188.44 35.2885 188.314 34.3852 188.196 33.6392C188.088 32.8781 187.977 32.2102 187.862 31.6354C187.747 31.0606 187.621 30.4549 187.482 29.8183C187.341 29.1689 187.178 28.4308 186.993 27.6041C186.818 26.7623 186.604 25.7025 186.353 24.4247C186.353 24.2791 186.383 24.1483 186.442 24.0321C186.499 23.9031 186.568 23.8115 186.651 23.7572C186.745 23.6878 186.854 23.6686 186.978 23.6995C187.103 23.7305 187.239 23.8255 187.386 23.9847L187.769 26.4954C188.105 25.8543 188.502 25.2555 188.959 24.6989C189.429 24.14 189.914 23.6645 190.413 23.2723C190.923 22.8651 191.431 22.5574 191.936 22.3493C192.44 22.1284 192.893 22.0353 193.295 22.0701C193.711 22.1025 194.053 22.2802 194.321 22.6031C194.6 22.9109 194.764 23.391 194.813 24.0435C194.862 24.6167 194.796 25.2563 194.616 25.9623C194.434 26.6555 194.182 27.3611 193.859 28.0791C193.547 28.782 193.186 29.4736 192.777 30.1539C192.368 30.8342 191.96 31.4418 191.552 31.9765C191.143 32.5112 190.753 32.9569 190.379 33.3137C190.016 33.6553 189.713 33.8476 189.469 33.8905C189.488 34.0723 189.513 34.3258 189.544 34.6509C189.577 34.9888 189.617 35.3652 189.664 35.78C189.713 36.2077 189.758 36.6494 189.798 37.1049C189.852 37.5583 189.902 37.9924 189.949 38.4072C189.995 38.8221 190.035 39.1985 190.068 39.5364C190.101 39.8743 190.133 40.1266 190.162 40.2933C190.109 40.3687 190.043 40.44 189.962 40.5071C189.881 40.5743 189.791 40.6233 189.69 40.6542C189.59 40.6851 189.483 40.6775 189.369 40.6315C189.257 40.5983 189.142 40.5063 189.023 40.3554ZM189.18 32.8111C189.574 32.5698 190.021 32.1471 190.523 31.543C191.023 30.9261 191.499 30.2141 191.951 29.4071C192.415 28.585 192.809 27.709 193.134 26.779C193.459 25.849 193.645 24.9503 193.69 24.0829C193.541 23.6861 193.32 23.4474 193.028 23.3666C192.736 23.2859 192.411 23.3168 192.053 23.4593C191.705 23.5867 191.336 23.8171 190.945 24.1504C190.552 24.4709 190.181 24.8405 189.832 25.259C189.493 25.6625 189.187 26.1 188.913 26.5713C188.639 27.0427 188.441 27.4941 188.319 27.9256L189.18 32.8111ZM195.562 16.7916C195.629 16.7268 195.697 16.6619 195.765 16.5971C195.844 16.5171 195.927 16.4628 196.014 16.4342C196.099 16.3927 196.178 16.3856 196.248 16.4127C196.332 16.4376 196.411 16.5097 196.485 16.6288L199.398 32.477C199.357 32.6165 199.288 32.7146 199.192 32.7711C199.099 32.8405 198.998 32.8714 198.891 32.8639C198.787 32.8691 198.684 32.8476 198.582 32.7993C198.494 32.7488 198.429 32.6809 198.388 32.5956L195.562 16.7916ZM205.145 19.941C205.144 19.8618 205.168 19.7717 205.216 19.6706C205.275 19.5545 205.352 19.4681 205.448 19.4116C205.557 19.3527 205.682 19.3505 205.824 19.4048C205.976 19.4441 206.144 19.5731 206.328 19.7918C206.451 20.7883 206.561 21.7869 206.658 22.7879C206.766 23.7737 206.904 24.7475 207.074 25.7092C207.254 26.6559 207.485 27.5871 207.765 28.5028C208.058 29.4163 208.443 30.2871 208.92 31.1154C208.948 31.2029 208.93 31.2855 208.864 31.3632C208.801 31.4537 208.707 31.5231 208.584 31.5713C208.462 31.6324 208.336 31.6678 208.206 31.6776C208.075 31.6874 207.963 31.6478 207.868 31.5588L206.628 28.4653C206.606 28.6411 206.502 28.9107 206.314 29.2742C206.14 29.6355 205.922 30.0111 205.66 30.401C205.409 30.7759 205.139 31.1209 204.851 31.4362C204.561 31.7386 204.295 31.9177 204.053 31.9735C203.458 32.1182 202.946 31.9903 202.518 31.5897C202.091 31.1891 201.728 30.6317 201.43 29.9173C201.143 29.1879 200.905 28.3638 200.716 27.4451C200.528 26.5263 200.37 25.6287 200.242 24.7523C200.113 23.8758 200.006 23.0815 199.921 22.3694C199.835 21.6574 199.743 21.1381 199.646 20.8114C199.666 20.7021 199.717 20.6138 199.798 20.5467C199.891 20.4773 199.996 20.4325 200.111 20.4121C200.226 20.3918 200.34 20.3982 200.451 20.4314C200.576 20.4623 200.673 20.5246 200.742 20.6181C200.845 21.0496 200.947 21.5934 201.05 22.2497C201.152 22.9059 201.263 23.607 201.381 24.353C201.497 25.0862 201.627 25.8235 201.771 26.565C201.928 27.3042 202.099 27.9748 202.284 28.5767C202.468 29.1658 202.672 29.652 202.899 30.0352C203.135 30.4033 203.406 30.587 203.71 30.5863C203.928 30.5479 204.133 30.4389 204.326 30.2594C204.519 30.0799 204.706 29.862 204.885 29.6055C205.063 29.3363 205.224 29.0501 205.369 28.7469C205.511 28.4308 205.63 28.1322 205.726 27.8508C205.82 27.5567 205.892 27.2927 205.944 27.0589C205.995 26.8251 206.017 26.6493 206.009 26.5316C205.995 26.3755 205.971 26.1285 205.938 25.7906C205.903 25.4398 205.854 25.0517 205.792 24.6263C205.741 24.1858 205.679 23.7208 205.606 23.2312C205.546 22.7394 205.485 22.2808 205.423 21.8554C205.372 21.4149 205.317 21.028 205.258 20.6946C205.209 20.3461 205.172 20.0949 205.145 19.941ZM210.656 29.2425C210.934 29.3919 211.247 29.4424 211.595 29.3942C211.956 29.3437 212.32 29.2333 212.687 29.0629C213.064 28.8774 213.433 28.647 213.795 28.3717C214.167 28.0814 214.497 27.7786 214.785 27.4633C215.086 27.1458 215.333 26.8245 215.527 26.4995C215.732 26.1593 215.856 25.8531 215.901 25.5808C215.943 25.2957 215.894 25.0532 215.753 24.8533C215.612 24.6534 215.35 24.521 214.969 24.4561C214.342 24.7253 213.709 24.9624 213.071 25.1675C212.433 25.3725 211.843 25.4765 211.302 25.4795C210.773 25.4802 210.319 25.3421 209.939 25.0652C209.56 24.7883 209.322 24.3014 209.226 23.6044C209.147 22.9309 209.216 22.2773 209.435 21.6437C209.665 20.9951 209.993 20.4215 210.421 19.923C210.861 19.4222 211.37 19.0086 211.947 18.682C212.537 18.3532 213.156 18.1516 213.804 18.077C213.935 18.0672 214.052 18.0597 214.157 18.0544C214.273 18.0341 214.378 18.0352 214.475 18.0578C214.572 18.0805 214.646 18.1269 214.698 18.197C214.763 18.2649 214.802 18.3769 214.817 18.5331C214.838 18.7277 214.794 18.894 214.686 19.032C214.579 19.17 214.413 19.2454 214.191 19.2582C213.407 19.2378 212.733 19.3897 212.169 19.7139C211.605 20.0382 211.159 20.4341 210.831 20.9017C210.502 21.3565 210.297 21.8422 210.216 22.3589C210.135 22.8756 210.187 23.3225 210.373 23.6996C210.698 24.1183 211.064 24.3578 211.471 24.4182C211.889 24.4636 212.313 24.4285 212.742 24.3132C213.184 24.1956 213.628 24.0512 214.074 23.88C214.517 23.6961 214.928 23.5905 215.307 23.5634C215.683 23.5235 216.016 23.6103 216.305 23.8238C216.591 24.0245 216.806 24.4559 216.95 25.1182C217.011 25.5436 216.943 25.9788 216.743 26.4238C216.542 26.856 216.26 27.2825 215.898 27.7034C215.547 28.1091 215.139 28.4983 214.676 28.8708C214.211 29.2305 213.737 29.5454 213.256 29.8153C212.788 30.083 212.335 30.2885 211.897 30.4318C211.472 30.5728 211.119 30.6285 210.836 30.5991C210.496 30.3946 210.298 30.1717 210.242 29.9303C210.184 29.6761 210.322 29.4468 210.656 29.2425ZM159.632 68.9165C159.405 68.6788 159.227 68.3466 159.099 67.9196C158.983 67.4904 158.878 67.0397 158.781 66.5675C158.695 66.0803 158.611 65.6058 158.53 65.1442C158.459 64.6675 158.356 64.2692 158.22 63.9494C157.85 65.3764 157.462 66.5093 157.054 67.348C156.658 68.1716 156.263 68.7832 155.871 69.183C155.489 69.5676 155.116 69.7787 154.753 69.8164C154.387 69.8412 154.057 69.7673 153.762 69.5945C153.477 69.4066 153.236 69.1649 153.039 68.8692C152.839 68.5606 152.707 68.26 152.642 67.9674C152.466 67.4959 152.357 66.9136 152.314 66.2204C152.282 65.5122 152.304 64.7745 152.38 64.0074C152.469 63.238 152.613 62.4789 152.811 61.7299C153.02 60.9659 153.285 60.2912 153.605 59.7059C153.937 59.1184 154.319 58.661 154.751 58.3337C155.18 57.9935 155.666 57.8616 156.208 57.9379C156.46 57.867 156.674 57.8425 156.85 57.8644C157.036 57.8712 157.199 57.935 157.34 58.0557C157.48 58.1764 157.598 58.3605 157.695 58.6079C157.789 58.8425 157.883 59.1499 157.976 59.53C158.17 60.7784 158.389 61.8306 158.632 62.6868C158.889 63.5406 159.14 64.2897 159.385 64.9339C159.631 65.578 159.859 66.1592 160.07 66.6775C160.293 67.1934 160.468 67.7377 160.596 68.3102C160.632 68.5153 160.609 68.6847 160.527 68.8182C160.442 68.9388 160.338 69.0233 160.214 69.0716C160.093 69.1326 159.97 69.1477 159.845 69.1168C159.734 69.0836 159.662 69.0168 159.632 68.9165ZM156.803 59.3997C156.423 59.0437 156.059 58.9293 155.711 59.0568C155.364 59.1842 155.044 59.4719 154.753 59.9199C154.472 60.3528 154.226 60.9053 154.014 61.5773C153.8 62.2365 153.638 62.9327 153.529 63.6659C153.421 64.399 153.37 65.122 153.376 65.8348C153.394 66.5325 153.481 67.1385 153.637 67.653C153.919 68.1984 154.198 68.5061 154.475 68.5763C154.751 68.6465 155.02 68.5594 155.281 68.3151C155.54 68.0579 155.785 67.6842 156.016 67.194C156.247 66.7037 156.459 66.1837 156.653 65.6338C156.845 65.0712 157.005 64.5206 157.135 63.982C157.276 63.4284 157.386 62.966 157.466 62.595L156.803 59.3997ZM154.818 57.2509C154.65 57.1219 154.452 56.9782 154.226 56.8198C154.011 56.6462 153.794 56.4663 153.576 56.28C153.358 56.0936 153.159 55.9039 152.98 55.7108C152.813 55.5154 152.707 55.3291 152.663 55.1518C152.477 54.9994 152.414 54.8256 152.472 54.6302C152.543 54.4326 152.736 54.2927 153.052 54.2106C153.404 54.4791 153.751 54.7616 154.094 55.0581C154.45 55.3523 154.732 55.6398 154.94 55.9204C155.159 56.1859 155.276 56.4364 155.291 56.6717C155.306 56.907 155.148 57.1001 154.818 57.2509ZM170.501 50.6579C170.569 50.593 170.637 50.5281 170.705 50.4633C170.783 50.3833 170.866 50.329 170.954 50.3004C171.039 50.2589 171.117 50.2518 171.188 50.2789C171.272 50.3038 171.35 50.3759 171.424 50.4951L174.338 66.3432C174.296 66.4827 174.228 66.5808 174.132 66.6373C174.038 66.7067 173.938 66.7376 173.831 66.7301C173.726 66.7353 173.623 66.7138 173.522 66.6655C173.434 66.615 173.369 66.5471 173.327 66.4618L170.501 50.6579ZM183.071 64.7835C182.844 64.5459 182.666 64.2136 182.538 63.7867C182.423 63.3575 182.317 62.9068 182.22 62.4346C182.134 61.9473 182.051 61.4728 181.969 61.0112C181.898 60.5345 181.795 60.1362 181.659 59.8164C181.29 61.2434 180.901 62.3763 180.494 63.215C180.097 64.0386 179.702 64.6503 179.31 65.05C178.928 65.4346 178.556 65.6458 178.192 65.6834C177.826 65.7083 177.496 65.6343 177.201 65.4615C176.917 65.2737 176.676 65.0319 176.478 64.7362C176.278 64.4277 176.146 64.1271 176.081 63.8344C175.905 63.363 175.796 62.7806 175.753 62.0875C175.721 61.3792 175.743 60.6415 175.819 59.8744C175.908 59.1051 176.052 58.3459 176.25 57.5969C176.459 56.8329 176.724 56.1582 177.044 55.573C177.377 54.9854 177.759 54.528 178.19 54.2007C178.619 53.8606 179.105 53.7287 179.647 53.8049C179.899 53.734 180.113 53.7096 180.289 53.7315C180.475 53.7383 180.639 53.802 180.779 53.9227C180.919 54.0434 181.038 54.2275 181.134 54.4749C181.228 54.7095 181.322 55.0169 181.416 55.3971C181.609 56.6454 181.828 57.6977 182.071 58.5538C182.328 59.4077 182.579 60.1567 182.825 60.8009C183.07 61.4451 183.299 62.0263 183.509 62.5445C183.732 63.0605 183.907 63.6047 184.035 64.1772C184.071 64.3824 184.048 64.5517 183.966 64.6852C183.881 64.8059 183.777 64.8903 183.653 64.9386C183.532 64.9997 183.409 65.0147 183.285 64.9838C183.173 64.9506 183.102 64.8838 183.071 64.7835ZM180.242 55.2668C179.862 54.9107 179.498 54.7964 179.151 54.9238C178.803 55.0512 178.483 55.3389 178.192 55.7869C177.912 56.2199 177.665 56.7723 177.453 57.4444C177.239 58.1036 177.077 58.7998 176.969 59.5329C176.86 60.266 176.809 60.989 176.816 61.7018C176.833 62.3995 176.92 63.0056 177.077 63.52C177.358 64.0654 177.637 64.3732 177.914 64.4434C178.191 64.5136 178.46 64.4265 178.721 64.1821C178.979 63.9249 179.224 63.5512 179.455 63.061C179.686 62.5707 179.898 62.0507 180.092 61.5009C180.284 60.9382 180.445 60.3876 180.574 59.8491C180.715 59.2954 180.825 58.8331 180.905 58.462L180.242 55.2668ZM196.12 53.2605L194.455 54.1688C194.307 54.1552 194.179 54.105 194.072 54.0183C193.951 53.9338 193.861 53.8372 193.802 53.7286C193.744 53.62 193.718 53.5121 193.726 53.405C193.72 53.3001 193.758 53.2142 193.839 53.147L195.886 51.9333L194.887 46.4967C194.896 46.3233 194.958 46.1867 195.073 46.0872C195.188 45.9876 195.31 45.933 195.441 45.9232C195.582 45.8983 195.718 45.9206 195.849 45.99C195.978 46.0466 196.073 46.1356 196.134 46.257C196.179 46.6591 196.234 47.0856 196.3 47.5367C196.364 47.9749 196.43 48.4196 196.496 48.8707C196.573 49.3067 196.655 49.7351 196.742 50.156C196.827 50.5641 196.92 50.9378 197.019 51.2773L199.787 49.5398C199.958 49.4568 200.102 49.4512 200.22 49.5229C200.337 49.5817 200.42 49.6794 200.47 49.816C200.531 49.9374 200.548 50.0668 200.519 50.204C200.49 50.3413 200.416 50.4469 200.297 50.5208L197.253 52.6044C197.276 52.7327 197.337 53.0393 197.435 53.5243C197.532 53.9965 197.644 54.5585 197.772 55.2102C197.9 55.8619 198.037 56.5585 198.18 57.2999C198.324 58.0414 198.454 58.7391 198.569 59.3931C198.698 60.0448 198.805 60.6143 198.89 61.1016C198.987 61.5738 199.047 61.874 199.069 62.0022C199.118 62.4299 199.034 62.663 198.816 62.7014C198.598 62.7398 198.342 62.6791 198.05 62.5191L196.12 53.2605ZM203.017 61.0879C202.667 59.3251 202.37 57.8305 202.127 56.604C201.885 55.3775 201.686 54.3615 201.53 53.5559C201.375 52.7503 201.252 52.1242 201.16 51.6777C201.078 51.2161 201.012 50.8774 200.961 50.6616C200.922 50.4437 200.9 50.3154 200.893 50.277C200.884 50.2257 200.878 50.1936 200.876 50.1808C200.868 50.0631 200.909 49.9568 200.998 49.8617C201.087 49.7667 201.188 49.7026 201.301 49.6694C201.425 49.6212 201.549 49.6125 201.674 49.6435C201.798 49.6744 201.896 49.7431 201.968 49.8494L202.805 54.2632C202.842 53.3445 203.02 52.5529 203.339 51.8884C203.671 51.2217 204.077 50.6741 204.556 50.2458C205.034 49.8046 205.552 49.4818 206.111 49.2775C206.683 49.0709 207.227 48.9684 207.743 48.97C207.916 48.9791 208.05 49.0281 208.145 49.1171C208.253 49.2039 208.318 49.3114 208.341 49.4396C208.374 49.5528 208.362 49.6738 208.306 49.8028C208.26 49.9167 208.184 50.0094 208.077 50.0811C207.493 50.1444 206.958 50.2917 206.469 50.5232C205.992 50.7397 205.565 51.0198 205.19 51.3637C204.825 51.6925 204.513 52.0647 204.256 52.4803C204.012 52.8936 203.835 53.3148 203.725 53.744C203.558 54.3685 203.479 55.0104 203.49 55.6696C203.511 56.3138 203.564 56.9523 203.649 57.5851C203.747 58.2157 203.852 58.812 203.964 59.374C204.09 59.9336 204.183 60.4262 204.245 60.8516C204.257 60.9949 204.212 61.1152 204.11 61.2125C204.019 61.2947 203.903 61.3483 203.762 61.3731C203.636 61.4086 203.497 61.4067 203.344 61.3674C203.202 61.3131 203.093 61.2199 203.017 61.0879ZM216.593 58.8727C216.366 58.6351 216.188 58.3028 216.06 57.8758C215.945 57.4466 215.839 56.9959 215.742 56.5238C215.656 56.0365 215.573 55.562 215.491 55.1004C215.42 54.6237 215.317 54.2254 215.181 53.9056C214.812 55.3326 214.423 56.4655 214.016 57.3042C213.619 58.1278 213.224 58.7395 212.832 59.1392C212.45 59.5238 212.077 59.735 211.714 59.7726C211.348 59.7975 211.018 59.7235 210.723 59.5507C210.438 59.3629 210.198 59.1211 210 58.8254C209.8 58.5169 209.668 58.2163 209.603 57.9236C209.427 57.4521 209.318 56.8698 209.275 56.1766C209.243 55.4684 209.265 54.7307 209.341 53.9636C209.43 53.1942 209.574 52.4351 209.772 51.6861C209.981 50.9221 210.246 50.2474 210.566 49.6621C210.899 49.0746 211.281 48.6172 211.712 48.2899C212.141 47.9498 212.627 47.8178 213.169 47.8941C213.421 47.8232 213.635 47.7987 213.811 47.8206C213.997 47.8275 214.161 47.8912 214.301 48.0119C214.441 48.1326 214.559 48.3167 214.656 48.5641C214.75 48.7987 214.844 49.1061 214.938 49.4862C215.131 50.7346 215.35 51.7868 215.593 52.643C215.85 53.4969 216.101 54.2459 216.347 54.8901C216.592 55.5343 216.82 56.1155 217.031 56.6337C217.254 57.1496 217.429 57.6939 217.557 58.2664C217.593 58.4716 217.57 58.6409 217.488 58.7744C217.403 58.8951 217.299 58.9795 217.175 59.0278C217.054 59.0889 216.931 59.1039 216.806 59.073C216.695 59.0398 216.624 58.973 216.593 58.8727ZM213.764 49.356C213.384 48.9999 213.02 48.8856 212.673 49.013C212.325 49.1404 212.005 49.4281 211.714 49.8761C211.433 50.309 211.187 50.8615 210.975 51.5335C210.761 52.1928 210.599 52.8889 210.491 53.6221C210.382 54.3552 210.331 55.0782 210.338 55.791C210.355 56.4887 210.442 57.0948 210.599 57.6092C210.88 58.1546 211.159 58.4624 211.436 58.5325C211.713 58.6027 211.981 58.5156 212.242 58.2713C212.501 58.0141 212.746 57.6404 212.977 57.1502C213.208 56.6599 213.42 56.1399 213.614 55.59C213.806 55.0274 213.967 54.4768 214.096 53.9382C214.237 53.3846 214.347 52.9223 214.427 52.5512L213.764 49.356ZM217.606 46.7151C217.676 46.6631 217.761 46.6152 217.859 46.5714C217.957 46.5277 218.051 46.4979 218.14 46.4821C218.243 46.464 218.343 46.4663 218.439 46.4889C218.536 46.5116 218.619 46.5697 218.688 46.6632C218.835 47.4967 219.001 48.3996 219.185 49.3719C219.381 50.3291 219.579 51.3055 219.781 52.3012C219.994 53.2818 220.198 54.2507 220.393 55.2079C220.588 56.1651 220.771 57.0518 220.941 57.8679C220.988 58.058 220.963 58.2145 220.865 58.3374C220.768 58.4604 220.649 58.5343 220.508 58.5592C220.38 58.5818 220.249 58.5519 220.115 58.4697C219.984 58.4003 219.9 58.263 219.864 58.0578L217.606 46.7151ZM216.684 42.832C216.654 42.6653 216.693 42.5461 216.799 42.4744C216.903 42.39 217.026 42.3353 217.167 42.3104C217.449 42.2607 217.639 42.3263 217.737 42.5074C217.846 42.6733 217.921 42.8781 217.964 43.1218C217.915 43.2892 217.831 43.4163 217.714 43.503C217.597 43.5897 217.465 43.6263 217.317 43.6127C217.182 43.5969 217.051 43.5274 216.923 43.4045C216.809 43.2793 216.729 43.0884 216.684 42.832ZM220.826 46.5044C220.816 46.3739 220.849 46.2623 220.925 46.1695C221.001 46.0768 221.096 46.0138 221.209 45.9806C221.32 45.9346 221.438 45.9271 221.562 45.9581C221.684 45.9762 221.792 46.0233 221.885 46.0995L223.184 53.8035C223.264 52.8373 223.322 51.8884 223.356 50.9569C223.401 50.0103 223.506 49.1455 223.672 48.3626C223.836 47.5669 224.1 46.8922 224.465 46.3386C224.828 45.7722 225.376 45.3914 226.108 45.1961C226.499 45.0875 226.867 45.1483 227.212 45.3784C227.554 45.5957 227.87 45.9235 228.158 46.3618C228.46 46.7978 228.738 47.3239 228.992 47.9402C229.244 48.5436 229.469 49.1848 229.668 49.8637C229.878 50.5275 230.063 51.2022 230.224 51.8879C230.384 52.5735 230.523 53.2102 230.64 53.7978C230.757 54.3854 230.848 54.9047 230.914 55.3558C230.994 55.8046 231.045 56.1327 231.068 56.3401C231.017 56.5739 230.881 56.7432 230.662 56.8481C230.457 56.9634 230.243 56.9087 230.018 56.6839C229.962 56.4425 229.882 56.0269 229.778 55.4371C229.672 54.8344 229.538 54.1506 229.377 53.3857C229.229 52.6186 229.049 51.824 228.838 51.0018C228.637 50.1645 228.404 49.4057 228.139 48.7253C227.884 48.0298 227.593 47.4663 227.266 47.0348C226.949 46.5882 226.599 46.3657 226.216 46.3671C225.886 46.3724 225.602 46.6009 225.365 47.0527C225.14 47.5022 224.944 48.0788 224.777 48.7825C224.623 49.484 224.497 50.2665 224.398 51.1301C224.312 51.9915 224.243 52.8367 224.191 53.6656C224.151 54.4923 224.126 55.2503 224.116 55.9397C224.105 56.6292 224.112 57.1568 224.137 57.5226C224.117 57.632 224.054 57.7289 223.95 57.8133C223.846 57.8978 223.724 57.9525 223.582 57.9774C223.456 58.0128 223.318 58.0173 223.168 57.9909C223.031 57.9622 222.918 57.883 222.829 57.7532L220.826 46.5044ZM232.659 50.9428C232.583 51.0356 232.428 51.0959 232.195 51.1238C231.973 51.1366 231.758 51.1214 231.552 51.0784C231.359 51.0331 231.219 50.952 231.133 50.8351C231.044 50.7054 231.092 50.5315 231.279 50.3135C231.355 50.2208 231.442 50.1525 231.54 50.1088C231.649 50.05 231.752 49.9987 231.85 49.955C231.959 49.8961 232.039 49.829 232.092 49.7536C232.158 49.6759 232.185 49.5654 232.173 49.4221C232.084 48.8428 232.025 48.245 231.995 47.6288C231.979 47.0103 232.044 46.4435 232.191 45.9283C232.338 45.4132 232.599 44.9772 232.972 44.6205C233.358 44.2615 233.91 44.0519 234.626 43.9917C234.883 43.9464 235.183 43.9597 235.526 44.0314C235.867 44.0903 236.203 44.1963 236.534 44.3495C236.863 44.4898 237.161 44.6818 237.429 44.9255C237.694 45.1563 237.881 45.4275 237.989 45.739C238.101 45.8514 238.078 46.0208 237.92 46.247C237.761 46.4733 237.53 46.7388 237.227 47.0434C236.922 47.3353 236.572 47.6415 236.179 47.962C235.786 48.2825 235.404 48.588 235.032 48.8783C234.673 49.1664 234.354 49.4209 234.076 49.6419C233.797 49.8628 233.619 50.0133 233.54 50.0932C233.706 50.5798 233.882 51.0908 234.069 51.6264C234.256 52.1619 234.473 52.6458 234.721 53.0781C234.969 53.5103 235.242 53.8588 235.54 54.1236C235.849 54.3733 236.195 54.4643 236.58 54.3964C237.151 54.3354 237.617 54.1673 237.978 53.892C238.353 53.6145 238.645 53.2853 238.855 52.9044C239.066 52.5235 239.213 52.1208 239.297 51.6961C239.393 51.2692 239.449 50.8694 239.462 50.4968C239.489 50.122 239.493 49.8105 239.476 49.5623C239.469 49.299 239.476 49.1523 239.497 49.1222C239.625 49.0204 239.785 48.9921 239.978 49.0374C240.169 49.0698 240.305 49.2377 240.384 49.5409C240.485 50.0388 240.477 50.6286 240.359 51.3105C240.242 51.9923 240.025 52.6387 239.71 53.2496C239.407 53.8583 239.003 54.379 238.498 54.8119C238.003 55.2297 237.432 55.4427 236.786 55.4509C236.13 55.5534 235.577 55.4591 235.129 55.1678C234.679 54.8638 234.293 54.4757 233.972 54.0035C233.661 53.5162 233.404 52.993 233.2 52.4341C232.995 51.8751 232.815 51.378 232.659 50.9428ZM236.969 45.9188C236.459 45.4269 235.979 45.1414 235.529 45.0621C235.079 44.9828 234.635 45.0148 234.197 45.1581C233.935 45.244 233.72 45.4141 233.554 45.6683C233.385 45.9096 233.265 46.2083 233.196 46.5643C233.124 46.9075 233.099 47.2888 233.12 47.7081C233.139 48.1147 233.205 48.5262 233.318 48.9426L236.969 45.9188Z" fill="#2C2C2C"/>
<path d="M117.078 48.3869C104.462 55.2519 83.1179 63.0817 67.5124 56.9783C57.1506 52.9257 48.4263 42.7994 48.3646 29.674M48.3646 29.674C48.3524 27.0766 48.7316 24.2658 49.5878 21.2085C54.0025 5.44342 64.6129 15.0674 63.7627 20.7428C62.8372 26.9217 56.4889 28.0031 48.3646 29.674ZM48.3646 29.674C41.9365 30.9961 35.0387 30.0119 29.0682 27.4371C17.6833 22.5273 10.2164 8.70474 10.2164 8.70474M17.9008 11.18L9.01216 5.43843L6.55514 17.9079" stroke="#2C2C2C" stroke-linecap="round" stroke-linejoin="round"/>
</svg>
