<svg width="266" height="79" viewBox="0 0 266 79" fill="none" xmlns="http://www.w3.org/2000/svg">
<rect x="125" y="55.5605" width="138.483" height="23.0897" transform="rotate(-9.59682 125 55.5605)" fill="white"/>
<path d="M157.125 40.433C156.602 37.6957 156.155 35.4211 155.783 33.6093C155.408 31.7846 155.102 30.3115 154.864 29.1898C154.625 28.0554 154.445 27.2211 154.324 26.6871C154.201 26.1402 154.125 25.7834 154.096 25.6167C154.062 25.4244 154.086 25.2614 154.168 25.1279C154.263 24.9922 154.376 24.9194 154.506 24.9096C154.635 24.887 154.769 24.9361 154.909 25.0568C155.047 25.1646 155.149 25.3649 155.213 25.6576L158.315 39.648L166.351 36.4065C167.21 36.255 167.46 36.5876 167.102 37.4045L157.809 41.1651C157.45 41.2284 157.222 40.9844 157.125 40.433ZM167.986 34.0753C167.91 34.1681 167.756 34.2284 167.522 34.2562C167.3 34.269 167.086 34.2539 166.88 34.2109C166.687 34.1656 166.547 34.0845 166.46 33.9676C166.371 33.8378 166.42 33.664 166.606 33.446C166.682 33.3533 166.769 33.285 166.867 33.2413C166.976 33.1825 167.079 33.1312 167.178 33.0874C167.286 33.0286 167.367 32.9615 167.42 32.8861C167.485 32.8084 167.512 32.6979 167.5 32.5546C167.411 31.9753 167.352 31.3775 167.323 30.7613C167.306 30.1428 167.371 29.5759 167.519 29.0608C167.666 28.5456 167.926 28.1097 168.299 27.753C168.686 27.394 169.237 27.1844 169.954 27.1241C170.21 27.0789 170.51 27.0922 170.853 27.1639C171.194 27.2228 171.53 27.3288 171.861 27.4819C172.19 27.6223 172.488 27.8143 172.756 28.058C173.022 28.2888 173.208 28.56 173.316 28.8715C173.428 28.9839 173.405 29.1533 173.247 29.3795C173.089 29.6058 172.858 29.8712 172.554 30.1759C172.249 30.4678 171.9 30.774 171.507 31.0945C171.114 31.415 170.731 31.7204 170.359 32.0108C170 32.2989 169.681 32.5534 169.403 32.7744C169.125 32.9953 168.946 33.1458 168.868 33.2257C169.033 33.7122 169.209 34.2233 169.396 34.7589C169.583 35.2944 169.801 35.7783 170.049 36.2106C170.297 36.6428 170.57 36.9913 170.868 37.2561C171.176 37.5058 171.523 37.5967 171.907 37.5289C172.478 37.4679 172.944 37.2998 173.306 37.0245C173.68 36.747 173.972 36.4178 174.183 36.0369C174.393 35.656 174.54 35.2532 174.624 34.8286C174.721 34.4017 174.776 34.0019 174.79 33.6293C174.816 33.2545 174.821 32.9429 174.803 32.6948C174.797 32.4315 174.804 32.2848 174.825 32.2547C174.952 32.1529 175.113 32.1246 175.306 32.1699C175.497 32.2023 175.632 32.3702 175.712 32.6734C175.813 33.1712 175.804 33.7611 175.687 34.4429C175.569 35.1248 175.352 35.7712 175.037 36.3821C174.734 36.9908 174.33 37.5115 173.825 37.9444C173.33 38.3622 172.76 38.5752 172.113 38.5834C171.457 38.6859 170.905 38.5915 170.457 38.3003C170.006 37.9963 169.621 37.6082 169.299 37.1359C168.989 36.6486 168.731 36.1255 168.527 35.5666C168.323 35.0076 168.142 34.5105 167.986 34.0753ZM172.297 29.0513C171.787 28.5594 171.307 28.2739 170.856 28.1946C170.406 28.1153 169.962 28.1473 169.525 28.2906C169.262 28.3765 169.048 28.5466 168.881 28.8008C168.712 29.0421 168.593 29.3408 168.523 29.6968C168.452 30.04 168.426 30.4213 168.447 30.8406C168.466 31.2472 168.532 31.6587 168.645 32.075L172.297 29.0513ZM190.023 41.3554C189.858 39.745 189.708 38.4095 189.574 37.349C189.44 36.2885 189.314 35.3852 189.196 34.6392C189.088 33.8781 188.977 33.2102 188.862 32.6354C188.747 32.0606 188.621 31.4549 188.482 30.8183C188.341 30.1689 188.178 29.4308 187.993 28.6041C187.818 27.7623 187.604 26.7025 187.353 25.4247C187.353 25.2791 187.383 25.1483 187.442 25.0321C187.499 24.9031 187.568 24.8115 187.651 24.7572C187.745 24.6878 187.854 24.6686 187.978 24.6995C188.103 24.7305 188.239 24.8255 188.386 24.9847L188.769 27.4954C189.105 26.8543 189.502 26.2555 189.959 25.6989C190.429 25.14 190.914 24.6645 191.413 24.2723C191.923 23.8651 192.431 23.5574 192.936 23.3493C193.44 23.1284 193.893 23.0353 194.295 23.0701C194.711 23.1025 195.053 23.2802 195.321 23.6031C195.6 23.9109 195.764 24.391 195.813 25.0435C195.862 25.6167 195.796 26.2563 195.616 26.9623C195.434 27.6555 195.182 28.3611 194.859 29.0791C194.547 29.782 194.186 30.4736 193.777 31.1539C193.368 31.8342 192.96 32.4418 192.552 32.9765C192.143 33.5112 191.753 33.9569 191.379 34.3137C191.016 34.6553 190.713 34.8476 190.469 34.8905C190.488 35.0723 190.513 35.3258 190.544 35.6509C190.577 35.9888 190.617 36.3652 190.664 36.78C190.713 37.2077 190.758 37.6494 190.798 38.1049C190.852 38.5583 190.902 38.9924 190.949 39.4072C190.995 39.8221 191.035 40.1985 191.068 40.5364C191.101 40.8743 191.133 41.1266 191.162 41.2933C191.109 41.3687 191.043 41.44 190.962 41.5071C190.881 41.5743 190.791 41.6233 190.69 41.6542C190.59 41.6851 190.483 41.6775 190.369 41.6315C190.257 41.5983 190.142 41.5063 190.023 41.3554ZM190.18 33.8111C190.574 33.5698 191.021 33.1471 191.523 32.543C192.023 31.9261 192.499 31.2141 192.951 30.4071C193.415 29.585 193.809 28.709 194.134 27.779C194.459 26.849 194.645 25.9503 194.69 25.0829C194.541 24.6861 194.32 24.4474 194.028 24.3666C193.736 24.2859 193.411 24.3168 193.053 24.4593C192.705 24.5867 192.336 24.8171 191.945 25.1504C191.552 25.4709 191.181 25.8405 190.832 26.259C190.493 26.6625 190.187 27.1 189.913 27.5713C189.639 28.0427 189.441 28.4941 189.319 28.9256L190.18 33.8111ZM196.562 17.7916C196.629 17.7268 196.697 17.6619 196.765 17.5971C196.844 17.5171 196.927 17.4628 197.014 17.4342C197.099 17.3927 197.178 17.3856 197.248 17.4127C197.332 17.4376 197.411 17.5097 197.485 17.6288L200.398 33.477C200.357 33.6165 200.288 33.7146 200.192 33.7711C200.099 33.8405 199.998 33.8714 199.891 33.8639C199.787 33.8691 199.684 33.8476 199.582 33.7993C199.494 33.7488 199.429 33.6809 199.388 33.5956L196.562 17.7916ZM206.145 20.941C206.144 20.8618 206.168 20.7717 206.216 20.6706C206.275 20.5545 206.352 20.4681 206.448 20.4116C206.557 20.3527 206.682 20.3505 206.824 20.4048C206.976 20.4441 207.144 20.5731 207.328 20.7918C207.451 21.7883 207.561 22.7869 207.658 23.7879C207.766 24.7737 207.904 25.7475 208.074 26.7092C208.254 27.6559 208.485 28.5871 208.765 29.5028C209.058 30.4163 209.443 31.2871 209.92 32.1154C209.948 32.2029 209.93 32.2855 209.864 32.3632C209.801 32.4537 209.707 32.5231 209.584 32.5713C209.462 32.6324 209.336 32.6678 209.206 32.6776C209.075 32.6874 208.963 32.6478 208.868 32.5588L207.628 29.4653C207.606 29.6411 207.502 29.9107 207.314 30.2742C207.14 30.6355 206.922 31.0111 206.66 31.401C206.409 31.7759 206.139 32.1209 205.851 32.4362C205.561 32.7386 205.295 32.9177 205.053 32.9735C204.458 33.1182 203.946 32.9903 203.518 32.5897C203.091 32.1891 202.728 31.6317 202.43 30.9173C202.143 30.1879 201.905 29.3638 201.716 28.4451C201.528 27.5263 201.37 26.6287 201.242 25.7523C201.113 24.8758 201.006 24.0815 200.921 23.3694C200.835 22.6574 200.743 22.1381 200.646 21.8114C200.666 21.7021 200.717 21.6138 200.798 21.5467C200.891 21.4773 200.996 21.4325 201.111 21.4121C201.226 21.3918 201.34 21.3982 201.451 21.4314C201.576 21.4623 201.673 21.5246 201.742 21.6181C201.845 22.0496 201.947 22.5934 202.05 23.2497C202.152 23.9059 202.263 24.607 202.381 25.353C202.497 26.0862 202.627 26.8235 202.771 27.565C202.928 28.3042 203.099 28.9748 203.284 29.5767C203.468 30.1658 203.672 30.652 203.899 31.0352C204.135 31.4033 204.406 31.587 204.71 31.5863C204.928 31.5479 205.133 31.4389 205.326 31.2594C205.519 31.0799 205.706 30.862 205.885 30.6055C206.063 30.3363 206.224 30.0501 206.369 29.7469C206.511 29.4308 206.63 29.1322 206.726 28.8508C206.82 28.5567 206.892 28.2927 206.944 28.0589C206.995 27.8251 207.017 27.6493 207.009 27.5316C206.995 27.3755 206.971 27.1285 206.938 26.7906C206.903 26.4398 206.854 26.0517 206.792 25.6263C206.741 25.1858 206.679 24.7208 206.606 24.2312C206.546 23.7394 206.485 23.2808 206.423 22.8554C206.372 22.4149 206.317 22.028 206.258 21.6946C206.209 21.3461 206.172 21.0949 206.145 20.941ZM211.656 30.2425C211.934 30.3919 212.247 30.4424 212.595 30.3942C212.956 30.3437 213.32 30.2333 213.687 30.0629C214.064 29.8774 214.433 29.647 214.795 29.3717C215.167 29.0814 215.497 28.7786 215.785 28.4633C216.086 28.1458 216.333 27.8245 216.527 27.4995C216.732 27.1593 216.856 26.8531 216.901 26.5808C216.943 26.2957 216.894 26.0532 216.753 25.8533C216.612 25.6534 216.35 25.521 215.969 25.4561C215.342 25.7253 214.709 25.9624 214.071 26.1675C213.433 26.3725 212.843 26.4765 212.302 26.4795C211.773 26.4802 211.319 26.3421 210.939 26.0652C210.56 25.7883 210.322 25.3014 210.226 24.6044C210.147 23.9309 210.216 23.2773 210.435 22.6437C210.665 21.9951 210.993 21.4215 211.421 20.923C211.861 20.4222 212.37 20.0086 212.947 19.682C213.537 19.3532 214.156 19.1516 214.804 19.077C214.935 19.0672 215.052 19.0597 215.157 19.0544C215.273 19.0341 215.378 19.0352 215.475 19.0578C215.572 19.0805 215.646 19.1269 215.698 19.197C215.763 19.2649 215.802 19.3769 215.817 19.5331C215.838 19.7277 215.794 19.894 215.686 20.032C215.579 20.17 215.413 20.2454 215.191 20.2582C214.407 20.2378 213.733 20.3897 213.169 20.7139C212.605 21.0382 212.159 21.4341 211.831 21.9017C211.502 22.3565 211.297 22.8422 211.216 23.3589C211.135 23.8756 211.187 24.3225 211.373 24.6996C211.698 25.1183 212.064 25.3578 212.471 25.4182C212.889 25.4636 213.313 25.4285 213.742 25.3132C214.184 25.1956 214.628 25.0512 215.074 24.88C215.517 24.6961 215.928 24.5905 216.307 24.5634C216.683 24.5235 217.016 24.6103 217.305 24.8238C217.591 25.0245 217.806 25.4559 217.95 26.1182C218.011 26.5436 217.943 26.9788 217.743 27.4238C217.542 27.856 217.26 28.2825 216.898 28.7034C216.547 29.1091 216.139 29.4983 215.676 29.8708C215.211 30.2305 214.737 30.5454 214.256 30.8153C213.788 31.083 213.335 31.2885 212.897 31.4318C212.472 31.5728 212.119 31.6285 211.836 31.5991C211.496 31.3946 211.298 31.1717 211.242 30.9303C211.184 30.6761 211.322 30.4468 211.656 30.2425ZM160.632 69.9165C160.405 69.6788 160.227 69.3466 160.099 68.9196C159.983 68.4904 159.878 68.0397 159.781 67.5675C159.695 67.0803 159.611 66.6058 159.53 66.1442C159.459 65.6675 159.356 65.2692 159.22 64.9494C158.85 66.3764 158.462 67.5093 158.054 68.348C157.658 69.1716 157.263 69.7832 156.871 70.183C156.489 70.5676 156.116 70.7787 155.753 70.8164C155.387 70.8412 155.057 70.7673 154.762 70.5945C154.477 70.4066 154.236 70.1649 154.039 69.8692C153.839 69.5606 153.707 69.26 153.642 68.9674C153.466 68.4959 153.357 67.9136 153.314 67.2204C153.282 66.5122 153.304 65.7745 153.38 65.0074C153.469 64.238 153.613 63.4789 153.811 62.7299C154.02 61.9659 154.285 61.2912 154.605 60.7059C154.937 60.1184 155.319 59.661 155.751 59.3337C156.18 58.9935 156.666 58.8616 157.208 58.9379C157.46 58.867 157.674 58.8425 157.85 58.8644C158.036 58.8712 158.199 58.935 158.34 59.0557C158.48 59.1764 158.598 59.3605 158.695 59.6079C158.789 59.8425 158.883 60.1499 158.976 60.53C159.17 61.7784 159.389 62.8306 159.632 63.6868C159.889 64.5406 160.14 65.2897 160.385 65.9339C160.631 66.578 160.859 67.1592 161.07 67.6775C161.293 68.1934 161.468 68.7377 161.596 69.3102C161.632 69.5153 161.609 69.6847 161.527 69.8182C161.442 69.9388 161.338 70.0233 161.214 70.0716C161.093 70.1326 160.97 70.1477 160.845 70.1168C160.734 70.0836 160.662 70.0168 160.632 69.9165ZM157.803 60.3997C157.423 60.0437 157.059 59.9293 156.711 60.0568C156.364 60.1842 156.044 60.4719 155.753 60.9199C155.472 61.3528 155.226 61.9053 155.014 62.5773C154.8 63.2365 154.638 63.9327 154.529 64.6659C154.421 65.399 154.37 66.122 154.376 66.8348C154.394 67.5325 154.481 68.1385 154.637 68.653C154.919 69.1984 155.198 69.5061 155.475 69.5763C155.751 69.6465 156.02 69.5594 156.281 69.3151C156.54 69.0579 156.785 68.6842 157.016 68.194C157.247 67.7037 157.459 67.1837 157.653 66.6338C157.845 66.0712 158.005 65.5206 158.135 64.982C158.276 64.4284 158.386 63.966 158.466 63.595L157.803 60.3997ZM155.818 58.2509C155.65 58.1219 155.452 57.9782 155.226 57.8198C155.011 57.6462 154.794 57.4663 154.576 57.28C154.358 57.0936 154.159 56.9039 153.98 56.7108C153.813 56.5154 153.707 56.3291 153.663 56.1518C153.477 55.9994 153.414 55.8256 153.472 55.6302C153.543 55.4326 153.736 55.2927 154.052 55.2106C154.404 55.4791 154.751 55.7616 155.094 56.0581C155.45 56.3523 155.732 56.6398 155.94 56.9204C156.159 57.1859 156.276 57.4364 156.291 57.6717C156.306 57.907 156.148 58.1001 155.818 58.2509ZM171.501 51.6579C171.569 51.593 171.637 51.5281 171.705 51.4633C171.783 51.3833 171.866 51.329 171.954 51.3004C172.039 51.2589 172.117 51.2518 172.188 51.2789C172.272 51.3038 172.35 51.3759 172.424 51.4951L175.338 67.3432C175.296 67.4827 175.228 67.5808 175.132 67.6373C175.038 67.7067 174.938 67.7376 174.831 67.7301C174.726 67.7353 174.623 67.7138 174.522 67.6655C174.434 67.615 174.369 67.5471 174.327 67.4618L171.501 51.6579ZM184.071 65.7835C183.844 65.5459 183.666 65.2136 183.538 64.7867C183.423 64.3575 183.317 63.9068 183.22 63.4346C183.134 62.9473 183.051 62.4728 182.969 62.0112C182.898 61.5345 182.795 61.1362 182.659 60.8164C182.29 62.2434 181.901 63.3763 181.494 64.215C181.097 65.0386 180.702 65.6503 180.31 66.05C179.928 66.4346 179.556 66.6458 179.192 66.6834C178.826 66.7083 178.496 66.6343 178.201 66.4615C177.917 66.2737 177.676 66.0319 177.478 65.7362C177.278 65.4277 177.146 65.1271 177.081 64.8344C176.905 64.363 176.796 63.7806 176.753 63.0875C176.721 62.3792 176.743 61.6415 176.819 60.8744C176.908 60.1051 177.052 59.3459 177.25 58.5969C177.459 57.8329 177.724 57.1582 178.044 56.573C178.377 55.9854 178.759 55.528 179.19 55.2007C179.619 54.8606 180.105 54.7287 180.647 54.8049C180.899 54.734 181.113 54.7096 181.289 54.7315C181.475 54.7383 181.639 54.802 181.779 54.9227C181.919 55.0434 182.038 55.2275 182.134 55.4749C182.228 55.7095 182.322 56.0169 182.416 56.3971C182.609 57.6454 182.828 58.6977 183.071 59.5538C183.328 60.4077 183.579 61.1567 183.825 61.8009C184.07 62.4451 184.299 63.0263 184.509 63.5445C184.732 64.0605 184.907 64.6047 185.035 65.1772C185.071 65.3824 185.048 65.5517 184.966 65.6852C184.881 65.8059 184.777 65.8903 184.653 65.9386C184.532 65.9997 184.409 66.0147 184.285 65.9838C184.173 65.9506 184.102 65.8838 184.071 65.7835ZM181.242 56.2668C180.862 55.9107 180.498 55.7964 180.151 55.9238C179.803 56.0512 179.483 56.3389 179.192 56.7869C178.912 57.2199 178.665 57.7723 178.453 58.4444C178.239 59.1036 178.077 59.7998 177.969 60.5329C177.86 61.266 177.809 61.989 177.816 62.7018C177.833 63.3995 177.92 64.0056 178.077 64.52C178.358 65.0654 178.637 65.3732 178.914 65.4434C179.191 65.5136 179.46 65.4265 179.721 65.1821C179.979 64.9249 180.224 64.5512 180.455 64.061C180.686 63.5707 180.898 63.0507 181.092 62.5009C181.284 61.9382 181.445 61.3876 181.574 60.8491C181.715 60.2954 181.825 59.8331 181.905 59.462L181.242 56.2668ZM197.12 54.2605L195.455 55.1688C195.307 55.1552 195.179 55.105 195.072 55.0183C194.951 54.9338 194.861 54.8372 194.802 54.7286C194.744 54.62 194.718 54.5121 194.726 54.405C194.72 54.3001 194.758 54.2142 194.839 54.147L196.886 52.9333L195.887 47.4967C195.896 47.3233 195.958 47.1867 196.073 47.0872C196.188 46.9876 196.31 46.933 196.441 46.9232C196.582 46.8983 196.718 46.9206 196.849 46.99C196.978 47.0466 197.073 47.1356 197.134 47.257C197.179 47.6591 197.234 48.0856 197.3 48.5367C197.364 48.9749 197.43 49.4196 197.496 49.8707C197.573 50.3067 197.655 50.7351 197.742 51.156C197.827 51.5641 197.92 51.9378 198.019 52.2773L200.787 50.5398C200.958 50.4568 201.102 50.4512 201.22 50.5229C201.337 50.5817 201.42 50.6794 201.47 50.816C201.531 50.9374 201.548 51.0668 201.519 51.204C201.49 51.3413 201.416 51.4469 201.297 51.5208L198.253 53.6044C198.276 53.7327 198.337 54.0393 198.435 54.5243C198.532 54.9965 198.644 55.5585 198.772 56.2102C198.9 56.8619 199.037 57.5585 199.18 58.2999C199.324 59.0414 199.454 59.7391 199.569 60.3931C199.698 61.0448 199.805 61.6143 199.89 62.1016C199.987 62.5738 200.047 62.874 200.069 63.0022C200.118 63.4299 200.034 63.663 199.816 63.7014C199.598 63.7398 199.342 63.6791 199.05 63.5191L197.12 54.2605ZM204.017 62.0879C203.667 60.3251 203.37 58.8305 203.127 57.604C202.885 56.3775 202.686 55.3615 202.53 54.5559C202.375 53.7503 202.252 53.1242 202.16 52.6777C202.078 52.2161 202.012 51.8774 201.961 51.6616C201.922 51.4437 201.9 51.3154 201.893 51.277C201.884 51.2257 201.878 51.1936 201.876 51.1808C201.868 51.0631 201.909 50.9568 201.998 50.8617C202.087 50.7667 202.188 50.7026 202.301 50.6694C202.425 50.6212 202.549 50.6125 202.674 50.6435C202.798 50.6744 202.896 50.7431 202.968 50.8494L203.805 55.2632C203.842 54.3445 204.02 53.5529 204.339 52.8884C204.671 52.2217 205.077 51.6741 205.556 51.2458C206.034 50.8046 206.552 50.4818 207.111 50.2775C207.683 50.0709 208.227 49.9684 208.743 49.97C208.916 49.9791 209.05 50.0281 209.145 50.1171C209.253 50.2039 209.318 50.3114 209.341 50.4396C209.374 50.5528 209.362 50.6738 209.306 50.8028C209.26 50.9167 209.184 51.0094 209.077 51.0811C208.493 51.1444 207.958 51.2917 207.469 51.5232C206.992 51.7397 206.565 52.0198 206.19 52.3637C205.825 52.6925 205.513 53.0647 205.256 53.4803C205.012 53.8936 204.835 54.3148 204.725 54.744C204.558 55.3685 204.479 56.0104 204.49 56.6696C204.511 57.3138 204.564 57.9523 204.649 58.5851C204.747 59.2157 204.852 59.812 204.964 60.374C205.09 60.9336 205.183 61.4262 205.245 61.8516C205.257 61.9949 205.212 62.1152 205.11 62.2125C205.019 62.2947 204.903 62.3483 204.762 62.3731C204.636 62.4086 204.497 62.4067 204.344 62.3674C204.202 62.3131 204.093 62.2199 204.017 62.0879ZM217.593 59.8727C217.366 59.6351 217.188 59.3028 217.06 58.8758C216.945 58.4466 216.839 57.9959 216.742 57.5238C216.656 57.0365 216.573 56.562 216.491 56.1004C216.42 55.6237 216.317 55.2254 216.181 54.9056C215.812 56.3326 215.423 57.4655 215.016 58.3042C214.619 59.1278 214.224 59.7395 213.832 60.1392C213.45 60.5238 213.077 60.735 212.714 60.7726C212.348 60.7975 212.018 60.7235 211.723 60.5507C211.438 60.3629 211.198 60.1211 211 59.8254C210.8 59.5169 210.668 59.2163 210.603 58.9236C210.427 58.4521 210.318 57.8698 210.275 57.1766C210.243 56.4684 210.265 55.7307 210.341 54.9636C210.43 54.1942 210.574 53.4351 210.772 52.6861C210.981 51.9221 211.246 51.2474 211.566 50.6621C211.899 50.0746 212.281 49.6172 212.712 49.2899C213.141 48.9498 213.627 48.8178 214.169 48.8941C214.421 48.8232 214.635 48.7987 214.811 48.8206C214.997 48.8275 215.161 48.8912 215.301 49.0119C215.441 49.1326 215.559 49.3167 215.656 49.5641C215.75 49.7987 215.844 50.1061 215.938 50.4862C216.131 51.7346 216.35 52.7868 216.593 53.643C216.85 54.4969 217.101 55.2459 217.347 55.8901C217.592 56.5343 217.82 57.1155 218.031 57.6337C218.254 58.1496 218.429 58.6939 218.557 59.2664C218.593 59.4716 218.57 59.6409 218.488 59.7744C218.403 59.8951 218.299 59.9795 218.175 60.0278C218.054 60.0889 217.931 60.1039 217.806 60.073C217.695 60.0398 217.624 59.973 217.593 59.8727ZM214.764 50.356C214.384 49.9999 214.02 49.8856 213.673 50.013C213.325 50.1404 213.005 50.4281 212.714 50.8761C212.433 51.309 212.187 51.8615 211.975 52.5335C211.761 53.1928 211.599 53.8889 211.491 54.6221C211.382 55.3552 211.331 56.0782 211.338 56.791C211.355 57.4887 211.442 58.0948 211.599 58.6092C211.88 59.1546 212.159 59.4624 212.436 59.5325C212.713 59.6027 212.981 59.5156 213.242 59.2713C213.501 59.0141 213.746 58.6404 213.977 58.1502C214.208 57.6599 214.42 57.1399 214.614 56.59C214.806 56.0274 214.967 55.4768 215.096 54.9382C215.237 54.3846 215.347 53.9223 215.427 53.5512L214.764 50.356ZM218.606 47.7151C218.676 47.6631 218.761 47.6152 218.859 47.5714C218.957 47.5277 219.051 47.4979 219.14 47.4821C219.243 47.464 219.343 47.4663 219.439 47.4889C219.536 47.5116 219.619 47.5697 219.688 47.6632C219.835 48.4967 220.001 49.3996 220.185 50.3719C220.381 51.3291 220.579 52.3055 220.781 53.3012C220.994 54.2818 221.198 55.2507 221.393 56.2079C221.588 57.1651 221.771 58.0518 221.941 58.8679C221.988 59.058 221.963 59.2145 221.865 59.3374C221.768 59.4604 221.649 59.5343 221.508 59.5592C221.38 59.5818 221.249 59.5519 221.115 59.4697C220.984 59.4003 220.9 59.263 220.864 59.0578L218.606 47.7151ZM217.684 43.832C217.654 43.6653 217.693 43.5461 217.799 43.4744C217.903 43.39 218.026 43.3353 218.167 43.3104C218.449 43.2607 218.639 43.3263 218.737 43.5074C218.846 43.6733 218.921 43.8781 218.964 44.1218C218.915 44.2892 218.831 44.4163 218.714 44.503C218.597 44.5897 218.465 44.6263 218.317 44.6127C218.182 44.5969 218.051 44.5274 217.923 44.4045C217.809 44.2793 217.729 44.0884 217.684 43.832ZM221.826 47.5044C221.816 47.3739 221.849 47.2623 221.925 47.1695C222.001 47.0768 222.096 47.0138 222.209 46.9806C222.32 46.9346 222.438 46.9271 222.562 46.9581C222.684 46.9762 222.792 47.0233 222.885 47.0995L224.184 54.8035C224.264 53.8373 224.322 52.8884 224.356 51.9569C224.401 51.0103 224.506 50.1455 224.672 49.3626C224.836 48.5669 225.1 47.8922 225.465 47.3386C225.828 46.7722 226.376 46.3914 227.108 46.1961C227.499 46.0875 227.867 46.1483 228.212 46.3784C228.554 46.5957 228.87 46.9235 229.158 47.3618C229.46 47.7978 229.738 48.3239 229.992 48.9402C230.244 49.5436 230.469 50.1848 230.668 50.8637C230.878 51.5275 231.063 52.2022 231.224 52.8879C231.384 53.5735 231.523 54.2102 231.64 54.7978C231.757 55.3854 231.848 55.9047 231.914 56.3558C231.994 56.8046 232.045 57.1327 232.068 57.3401C232.017 57.5739 231.881 57.7432 231.662 57.8481C231.457 57.9634 231.243 57.9087 231.018 57.6839C230.962 57.4425 230.882 57.0269 230.778 56.4371C230.672 55.8344 230.538 55.1506 230.377 54.3857C230.229 53.6186 230.049 52.824 229.838 52.0018C229.637 51.1645 229.404 50.4057 229.139 49.7253C228.884 49.0298 228.593 48.4663 228.266 48.0348C227.949 47.5882 227.599 47.3657 227.216 47.3671C226.886 47.3724 226.602 47.6009 226.365 48.0527C226.14 48.5022 225.944 49.0788 225.777 49.7825C225.623 50.484 225.497 51.2665 225.398 52.1301C225.312 52.9915 225.243 53.8367 225.191 54.6656C225.151 55.4923 225.126 56.2503 225.116 56.9397C225.105 57.6292 225.112 58.1568 225.137 58.5226C225.117 58.632 225.054 58.7289 224.95 58.8133C224.846 58.8978 224.724 58.9525 224.582 58.9774C224.456 59.0128 224.318 59.0173 224.168 58.9909C224.031 58.9622 223.918 58.883 223.829 58.7532L221.826 47.5044ZM233.659 51.9428C233.583 52.0356 233.428 52.0959 233.195 52.1238C232.973 52.1366 232.758 52.1214 232.552 52.0784C232.359 52.0331 232.219 51.952 232.133 51.8351C232.044 51.7054 232.092 51.5315 232.279 51.3135C232.355 51.2208 232.442 51.1525 232.54 51.1088C232.649 51.05 232.752 50.9987 232.85 50.955C232.959 50.8961 233.039 50.829 233.092 50.7536C233.158 50.6759 233.185 50.5654 233.173 50.4221C233.084 49.8428 233.025 49.245 232.995 48.6288C232.979 48.0103 233.044 47.4435 233.191 46.9283C233.338 46.4132 233.599 45.9772 233.972 45.6205C234.358 45.2615 234.91 45.0519 235.626 44.9917C235.883 44.9464 236.183 44.9597 236.526 45.0314C236.867 45.0903 237.203 45.1963 237.534 45.3495C237.863 45.4898 238.161 45.6818 238.429 45.9255C238.694 46.1563 238.881 46.4275 238.989 46.739C239.101 46.8514 239.078 47.0208 238.92 47.247C238.761 47.4733 238.53 47.7388 238.227 48.0434C237.922 48.3353 237.572 48.6415 237.179 48.962C236.786 49.2825 236.404 49.588 236.032 49.8783C235.673 50.1664 235.354 50.4209 235.076 50.6419C234.797 50.8628 234.619 51.0133 234.54 51.0932C234.706 51.5798 234.882 52.0908 235.069 52.6264C235.256 53.1619 235.473 53.6458 235.721 54.0781C235.969 54.5103 236.242 54.8588 236.54 55.1236C236.849 55.3733 237.195 55.4643 237.58 55.3964C238.151 55.3354 238.617 55.1673 238.978 54.892C239.353 54.6145 239.645 54.2853 239.855 53.9044C240.066 53.5235 240.213 53.1208 240.297 52.6961C240.393 52.2692 240.449 51.8694 240.462 51.4968C240.489 51.122 240.493 50.8105 240.476 50.5623C240.469 50.299 240.476 50.1523 240.497 50.1222C240.625 50.0204 240.785 49.9921 240.978 50.0374C241.169 50.0698 241.305 50.2377 241.384 50.5409C241.485 51.0388 241.477 51.6286 241.359 52.3105C241.242 52.9923 241.025 53.6387 240.71 54.2496C240.407 54.8583 240.003 55.379 239.498 55.8119C239.003 56.2297 238.432 56.4427 237.786 56.4509C237.13 56.5534 236.577 56.4591 236.129 56.1678C235.679 55.8638 235.293 55.4757 234.972 55.0035C234.661 54.5162 234.404 53.993 234.2 53.4341C233.995 52.8751 233.815 52.378 233.659 51.9428ZM237.969 46.9188C237.459 46.4269 236.979 46.1414 236.529 46.0621C236.079 45.9828 235.635 46.0148 235.197 46.1581C234.935 46.244 234.72 46.4141 234.554 46.6683C234.385 46.9096 234.265 47.2083 234.196 47.5643C234.124 47.9075 234.099 48.2888 234.12 48.7081C234.139 49.1147 234.205 49.5262 234.318 49.9426L237.969 46.9188Z" fill="#2C2C2C"/>
<path d="M118.078 49.3869C105.462 56.2519 84.1179 64.0817 68.5124 57.9783C58.1506 53.9257 49.4263 43.7994 49.3646 30.674M49.3646 30.674C49.3524 28.0766 49.7316 25.2658 50.5878 22.2085C55.0025 6.44342 65.6129 16.0674 64.7627 21.7428C63.8372 27.9217 57.4889 29.0031 49.3646 30.674ZM49.3646 30.674C42.9365 31.9961 36.0387 31.0119 30.0682 28.4371C18.6833 23.5273 11.2164 9.70474 11.2164 9.70474M18.9008 12.18L10.0122 6.43843L7.55514 18.9079" stroke="#2C2C2C" stroke-linecap="round" stroke-linejoin="round"/>
</svg>
