<svg width="195" height="94" viewBox="0 0 195 94" fill="none" xmlns="http://www.w3.org/2000/svg">
<path d="M87.5718 44.9612C87.6127 44.4943 87.7137 43.8627 87.8748 43.0664C88.049 42.2712 88.2677 41.4147 88.531 40.4966C88.8073 39.5797 89.136 38.6608 89.5172 37.74C89.8995 36.8063 90.3252 35.9743 90.7943 35.2442C91.2645 34.5011 91.7741 33.9052 92.3231 33.4566C92.8851 33.0091 93.4774 32.8125 94.1 32.867C94.4502 32.8976 94.7429 32.9886 94.978 33.1399C95.226 33.2923 95.4248 33.4861 95.5741 33.7214C95.7234 33.9567 95.8245 34.2204 95.8774 34.5126C95.9302 34.8047 95.9425 35.113 95.9141 35.4372C95.5491 35.5752 95.2798 35.5909 95.1062 35.4842C94.9325 35.3775 94.7953 35.2283 94.6944 35.0364C94.6077 34.8328 94.5215 34.6227 94.4359 34.406C94.3503 34.1894 94.2124 34.0467 94.0224 33.9778C93.5554 33.9369 93.1075 34.1264 92.6787 34.5464C92.2509 34.9534 91.8514 35.487 91.4799 36.1472C91.1084 36.8075 90.7691 37.5489 90.4618 38.3716C90.1546 39.1944 89.888 40.001 89.6619 40.7916C89.4371 41.5692 89.2573 42.2789 89.1228 42.9207C88.9882 43.5624 88.9073 44.039 88.8801 44.3503C88.8437 44.7654 88.8215 45.1686 88.8134 45.56C88.8194 45.9396 88.8742 46.2842 88.9779 46.5939C89.0944 46.9047 89.281 47.1629 89.5375 47.3683C89.7951 47.5607 90.1704 47.6785 90.6633 47.7217C91.247 47.7727 91.8325 47.654 92.4198 47.3656C93.02 47.0783 93.5758 46.7021 94.087 46.2371C94.6112 45.7732 95.0734 45.2712 95.4735 44.7311C95.8878 44.1791 96.1932 43.6765 96.3897 43.2232C96.4168 43.2125 96.4822 43.2116 96.586 43.2207C96.6909 43.2168 96.7563 43.216 96.7822 43.2183C96.9509 43.233 97.1113 43.2667 97.2635 43.3192C97.4158 43.3718 97.4823 43.5083 97.463 43.7288C97.3313 44.1878 97.0807 44.6626 96.711 45.153C96.3554 45.6317 95.9356 46.0982 95.4514 46.5525C94.9814 46.995 94.4682 47.4076 93.9119 47.7902C93.3697 48.161 92.8397 48.4676 92.3218 48.7098C91.8039 48.9521 91.3264 49.1063 90.8893 49.1727C90.464 49.2531 90.1273 49.2171 89.8792 49.0647C89.4123 49.0238 89.0215 48.8589 88.7069 48.57C88.3935 48.2681 88.1436 47.9129 87.9571 47.5045C87.7836 47.0972 87.6643 46.6685 87.5991 46.2184C87.548 45.7565 87.5389 45.3374 87.5718 44.9612ZM101.039 49.9626C100.526 49.8523 100.116 49.6074 99.8091 49.2276C99.5154 48.849 99.2934 48.3983 99.1431 47.8754C98.9928 47.3525 98.9113 46.7898 98.8987 46.1875C98.9001 45.5733 98.9394 44.9755 99.0164 44.394C99.1336 43.5024 99.3706 42.6605 99.7275 41.8683C100.097 41.0772 100.522 40.402 101.003 39.8428C101.497 39.2717 102.018 38.8468 102.565 38.5679C103.126 38.2772 103.657 38.1928 104.156 38.3149C104.681 38.4393 105.087 38.7297 105.373 39.1861C105.673 39.6437 105.887 40.1917 106.014 40.8302C106.141 41.4687 106.192 42.1593 106.166 42.9021C106.141 43.6319 106.073 44.3318 105.963 45.0018C105.831 45.7614 105.6 46.4601 105.269 47.0978C104.939 47.7355 104.545 48.2761 104.088 48.7197C103.644 49.1645 103.151 49.5004 102.608 49.7274C102.08 49.9426 101.556 50.021 101.039 49.9626ZM103.864 39.4069C103.44 39.3176 103.026 39.4186 102.622 39.71C102.232 39.9895 101.864 40.3822 101.519 40.8879C101.188 41.3818 100.896 41.9575 100.642 42.6149C100.39 43.2595 100.203 43.9032 100.081 44.546C99.9887 45.0085 99.9272 45.4867 99.8971 45.9807C99.8669 46.4748 99.8861 46.9274 99.9547 47.3386C100.036 47.7509 100.182 48.097 100.393 48.3769C100.618 48.6449 100.932 48.7965 101.334 48.8317C101.657 48.873 102.004 48.7922 102.374 48.5894C102.758 48.3877 103.123 48.1059 103.468 47.744C103.814 47.3691 104.127 46.939 104.404 46.4535C104.695 45.9692 104.903 45.4645 105.027 44.9395C105.166 44.3897 105.236 43.8206 105.235 43.2324C105.248 42.6323 105.199 42.0725 105.088 41.553C104.989 41.0347 104.833 40.5831 104.618 40.1983C104.418 39.8018 104.166 39.538 103.864 39.4069ZM106.7 56.3396C106.957 54.7414 107.158 53.4127 107.303 52.3536C107.448 51.2945 107.56 50.3894 107.639 49.6382C107.732 48.8751 107.797 48.2012 107.836 47.6164C107.874 47.0315 107.908 46.4137 107.939 45.7628C107.971 45.099 108.004 44.3439 108.039 43.4973C108.088 42.6389 108.156 41.5601 108.244 40.2607C108.282 40.1203 108.345 40.0016 108.432 39.9046C108.52 39.7947 108.611 39.7242 108.705 39.6932C108.813 39.6504 108.924 39.6601 109.036 39.7222C109.148 39.7843 109.255 39.9112 109.355 40.1031L109.076 42.6273C109.567 42.0952 110.105 41.6195 110.691 41.2002C111.289 40.782 111.881 40.4481 112.464 40.1986C113.062 39.9372 113.632 39.7714 114.174 39.7012C114.718 39.618 115.179 39.6453 115.559 39.7832C115.952 39.9221 116.237 40.1823 116.413 40.5636C116.602 40.9331 116.637 41.4393 116.515 42.0822C116.413 42.6484 116.184 43.2492 115.828 43.8847C115.473 44.5071 115.046 45.1234 114.549 45.7333C114.065 46.3315 113.538 46.9062 112.967 47.4575C112.395 48.0088 111.844 48.4898 111.311 48.9007C110.778 49.3116 110.286 49.641 109.833 49.8889C109.394 50.125 109.051 50.2322 108.804 50.2107C108.776 50.3911 108.734 50.6424 108.68 50.9644C108.624 51.2994 108.565 51.6733 108.503 52.0861C108.44 52.5119 108.369 52.9501 108.29 53.4006C108.224 53.8524 108.161 54.2846 108.098 54.6974C108.036 55.1103 107.977 55.4842 107.922 55.8191C107.866 56.1541 107.831 56.4059 107.816 56.5746C107.746 56.6337 107.663 56.6853 107.568 56.7292C107.472 56.7732 107.372 56.7971 107.267 56.801C107.162 56.8049 107.061 56.7699 106.963 56.6959C106.863 56.635 106.776 56.5162 106.7 56.3396ZM108.804 49.0931C109.247 48.9619 109.789 48.6695 110.43 48.2158C111.072 47.7492 111.716 47.1847 112.362 46.5223C113.022 45.8481 113.63 45.104 114.185 44.2899C114.74 43.4758 115.151 42.6557 115.419 41.8295C115.378 41.4077 115.227 41.1199 114.966 40.9664C114.705 40.8128 114.383 40.7585 114 40.8034C113.631 40.8365 113.214 40.9635 112.751 41.1843C112.288 41.3922 111.834 41.6531 111.388 41.967C110.957 42.2691 110.548 42.6123 110.161 42.9968C109.774 43.3812 109.466 43.766 109.237 44.1511L108.804 49.0931ZM118.701 39.5483C118.782 39.5162 118.876 39.4917 118.982 39.4748C119.088 39.458 119.186 39.4535 119.277 39.4614C119.381 39.4705 119.477 39.4985 119.564 39.5453C119.651 39.5922 119.717 39.6698 119.759 39.7781C119.686 40.6212 119.612 41.5363 119.539 42.5232C119.48 43.4983 119.419 44.4929 119.356 45.5069C119.308 46.5091 119.254 47.4978 119.195 48.4729C119.136 49.448 119.083 50.3518 119.036 51.1842C119.032 51.3799 118.967 51.5246 118.841 51.6181C118.715 51.7117 118.581 51.7522 118.438 51.7397C118.309 51.7284 118.19 51.6657 118.082 51.5517C117.973 51.4507 117.928 51.2964 117.946 51.0889L118.701 39.5483ZM118.815 35.5586C118.83 35.39 118.898 35.2849 119.019 35.2432C119.141 35.1885 119.274 35.1675 119.417 35.18C119.702 35.2049 119.869 35.3175 119.916 35.5178C119.978 35.7062 119.999 35.9236 119.977 36.1701C119.886 36.3189 119.772 36.4201 119.637 36.4736C119.501 36.5271 119.364 36.5282 119.225 36.4768C119.098 36.4265 118.99 36.3255 118.898 36.1737C118.82 36.0231 118.792 35.8181 118.815 35.5586ZM122.084 46.6474C121.986 46.7173 121.821 46.7356 121.589 46.7022C121.37 46.6569 121.167 46.5869 120.98 46.492C120.805 46.3983 120.691 46.2838 120.637 46.1484C120.585 46 120.677 45.8447 120.913 45.6824C121.011 45.6125 121.113 45.5691 121.219 45.5523C121.339 45.5236 121.452 45.5008 121.558 45.4839C121.678 45.4552 121.773 45.4113 121.844 45.3521C121.927 45.294 121.982 45.1942 122.007 45.0527C122.071 44.4701 122.169 43.8774 122.3 43.2746C122.444 42.6729 122.654 42.1423 122.93 41.6828C123.205 41.2232 123.569 40.8695 124.022 40.6216C124.488 40.3748 125.075 40.3151 125.783 40.4423C126.042 40.465 126.329 40.5554 126.641 40.7135C126.956 40.8586 127.253 41.048 127.533 41.2816C127.814 41.5023 128.053 41.765 128.248 42.0696C128.445 42.3613 128.555 42.6716 128.578 43.0004C128.658 43.1381 128.592 43.2957 128.38 43.4732C128.169 43.6508 127.877 43.8474 127.505 44.0633C127.135 44.2661 126.718 44.4715 126.255 44.6793C125.793 44.8872 125.344 45.0832 124.91 45.2674C124.488 45.4528 124.115 45.6161 123.789 45.7575C123.463 45.8989 123.251 45.998 123.155 46.055C123.188 46.5676 123.226 47.1068 123.268 47.6726C123.31 48.2383 123.395 48.762 123.523 49.2437C123.651 49.7254 123.824 50.1327 124.043 50.4656C124.277 50.7866 124.588 50.9642 124.977 50.9982C125.544 51.0871 126.038 51.0453 126.458 50.8729C126.892 50.7017 127.259 50.4594 127.561 50.146C127.863 49.8325 128.109 49.4816 128.3 49.0931C128.504 48.7057 128.661 48.3339 128.77 47.9775C128.893 47.6222 128.978 47.3225 129.026 47.0783C129.087 46.8223 129.132 46.6825 129.16 46.6588C129.31 46.5934 129.472 46.6076 129.647 46.7013C129.823 46.7821 129.91 46.9792 129.909 47.2928C129.877 47.7998 129.717 48.3674 129.426 48.9956C129.136 49.6237 128.76 50.192 128.297 50.7005C127.847 51.2101 127.322 51.6086 126.722 51.8959C126.136 52.1714 125.529 52.2294 124.903 52.07C124.243 51.9992 123.734 51.7651 123.376 51.3679C123.02 50.9577 122.748 50.483 122.56 49.9437C122.386 49.3926 122.272 48.8206 122.22 48.2278C122.167 47.635 122.122 47.1082 122.084 46.6474ZM127.547 42.9102C127.182 42.3031 126.792 41.9031 126.378 41.71C125.963 41.5168 125.526 41.4329 125.067 41.458C124.791 41.4731 124.54 41.5818 124.313 41.7842C124.087 41.9735 123.895 42.2312 123.735 42.5571C123.577 42.87 123.454 43.2318 123.366 43.6423C123.279 44.0399 123.236 44.4544 123.238 44.8858L127.547 42.9102ZM143.72 37.4238C143.802 37.3788 143.884 37.3337 143.967 37.2886C144.063 37.2317 144.158 37.2007 144.249 37.1957C144.343 37.1777 144.42 37.191 144.481 37.2356C144.556 37.2813 144.613 37.3713 144.654 37.5055L143.366 53.5677C143.29 53.6918 143.198 53.7687 143.091 53.7985C142.983 53.8413 142.878 53.8452 142.776 53.8102C142.674 53.7882 142.58 53.7407 142.495 53.6679C142.422 53.5963 142.377 53.5139 142.359 53.4208L143.72 37.4238ZM146.689 48.8001C146.591 48.87 146.426 48.8882 146.194 48.8548C145.976 48.8096 145.773 48.7396 145.585 48.6447C145.41 48.551 145.296 48.4364 145.242 48.3011C145.19 48.1527 145.282 47.9974 145.518 47.8351C145.616 47.7652 145.718 47.7218 145.824 47.7049C145.944 47.6762 146.057 47.6535 146.163 47.6366C146.283 47.6079 146.379 47.564 146.449 47.5048C146.533 47.4467 146.587 47.3469 146.613 47.2054C146.677 46.6228 146.774 46.0301 146.905 45.4273C147.05 44.8255 147.259 44.2949 147.535 43.8354C147.81 43.3759 148.175 43.0222 148.628 42.7743C149.094 42.5275 149.68 42.4677 150.388 42.595C150.648 42.6177 150.934 42.7081 151.247 42.8662C151.561 43.0113 151.858 43.2007 152.138 43.4343C152.419 43.655 152.658 43.9177 152.853 44.2223C153.05 44.514 153.16 44.8243 153.184 45.1531C153.263 45.2907 153.197 45.4483 152.985 45.6259C152.774 45.8034 152.482 46.0001 152.11 46.2159C151.74 46.4188 151.323 46.6241 150.861 46.832C150.398 47.0399 149.949 47.2359 149.515 47.4201C149.094 47.6054 148.72 47.7688 148.394 47.9102C148.068 48.0516 147.857 48.1507 147.76 48.2076C147.794 48.7203 147.831 49.2595 147.873 49.8252C147.915 50.3909 148 50.9147 148.128 51.3964C148.256 51.8781 148.429 52.2854 148.649 52.6183C148.882 52.9393 149.193 53.1168 149.582 53.1509C150.15 53.2397 150.643 53.198 151.064 53.0256C151.497 52.8544 151.865 52.6121 152.166 52.2986C152.468 51.9852 152.715 51.6343 152.906 51.2458C153.109 50.8584 153.266 50.4865 153.376 50.1302C153.498 49.7749 153.583 49.4752 153.631 49.231C153.692 48.975 153.737 48.8351 153.765 48.8115C153.915 48.7461 154.077 48.7603 154.252 48.854C154.428 48.9348 154.515 49.1319 154.514 49.4455C154.483 49.9525 154.322 50.5201 154.032 51.1482C153.741 51.7764 153.365 52.3447 152.902 52.8532C152.452 53.3628 151.927 53.7612 151.327 54.0486C150.741 54.324 150.135 54.3821 149.508 54.2227C148.848 54.1519 148.339 53.9178 147.981 53.5206C147.625 53.1104 147.353 52.6356 147.165 52.0964C146.991 51.5452 146.878 50.9733 146.825 50.3805C146.772 49.7877 146.727 49.2609 146.689 48.8001ZM152.152 45.0629C151.787 44.4558 151.398 44.0557 150.983 43.8626C150.569 43.6695 150.132 43.5855 149.672 43.6107C149.396 43.6258 149.145 43.7345 148.918 43.9368C148.692 44.1262 148.5 44.3839 148.341 44.7098C148.183 45.0227 148.059 45.3844 147.971 45.795C147.884 46.1925 147.841 46.6071 147.843 47.0385L152.152 45.0629ZM168.325 39.5765C168.407 39.5314 168.49 39.4864 168.572 39.4413C168.669 39.3844 168.763 39.3534 168.855 39.3484C168.948 39.3304 169.025 39.3437 169.086 39.3883C169.161 39.434 169.218 39.524 169.259 39.6582L167.971 55.7204C167.895 55.8444 167.803 55.9214 167.696 55.9512C167.588 55.994 167.483 55.9979 167.382 55.9629C167.279 55.9408 167.185 55.8934 167.1 55.8206C167.028 55.749 166.983 55.6666 166.965 55.5735L168.325 39.5765ZM171.379 44.157C171.46 44.1249 171.554 44.1004 171.66 44.0835C171.766 44.0667 171.864 44.0622 171.955 44.0701C172.059 44.0792 172.154 44.1072 172.242 44.1541C172.329 44.2009 172.394 44.2785 172.437 44.3868C172.363 45.2299 172.29 46.145 172.216 47.1319C172.157 48.107 172.096 49.1016 172.034 50.1156C171.985 51.1178 171.932 52.1065 171.872 53.0816C171.813 54.0567 171.76 54.9605 171.714 55.7929C171.71 55.9886 171.645 56.1333 171.519 56.2268C171.393 56.3204 171.259 56.3609 171.116 56.3484C170.986 56.3371 170.868 56.2744 170.76 56.1604C170.651 56.0594 170.606 55.9051 170.624 55.6976L171.379 44.157ZM171.493 40.1673C171.507 39.9987 171.575 39.8936 171.697 39.8519C171.819 39.7972 171.952 39.7762 172.094 39.7887C172.38 39.8136 172.546 39.9262 172.594 40.1265C172.656 40.3149 172.676 40.5323 172.655 40.7788C172.563 40.9276 172.45 41.0288 172.314 41.0823C172.179 41.1358 172.042 41.1369 171.902 41.0855C171.776 41.0352 171.667 40.9342 171.576 40.7824C171.498 40.6318 171.47 40.4268 171.493 40.1673ZM174.761 51.2561C174.664 51.326 174.499 51.3443 174.266 51.3109C174.048 51.2656 173.845 51.1956 173.657 51.1007C173.483 51.007 173.368 50.8925 173.315 50.7571C173.262 50.6087 173.354 50.4534 173.591 50.2911C173.688 50.2212 173.79 50.1778 173.896 50.161C174.017 50.1323 174.13 50.1095 174.236 50.0926C174.356 50.0639 174.451 50.02 174.522 49.9608C174.605 49.9027 174.66 49.8029 174.685 49.6614C174.749 49.0788 174.847 48.4861 174.978 47.8833C175.122 47.2816 175.332 46.751 175.607 46.2915C175.883 45.8319 176.247 45.4782 176.7 45.2303C177.166 44.9835 177.753 44.9238 178.461 45.051C178.72 45.0737 179.006 45.1641 179.319 45.3222C179.633 45.4673 179.93 45.6567 180.211 45.8903C180.492 46.111 180.73 46.3737 180.926 46.6783C181.123 46.97 181.233 47.2803 181.256 47.6091C181.336 47.7468 181.27 47.9044 181.058 48.0819C180.846 48.2595 180.555 48.4561 180.183 48.672C179.812 48.8748 179.396 49.0802 178.933 49.288C178.47 49.4959 178.022 49.6919 177.588 49.8761C177.166 50.0615 176.792 50.2248 176.466 50.3662C176.14 50.5076 175.929 50.6067 175.833 50.6637C175.866 51.1763 175.904 51.7155 175.946 52.2813C175.988 52.847 176.073 53.3707 176.201 53.8524C176.328 54.3341 176.502 54.7414 176.721 55.0743C176.954 55.3953 177.266 55.5729 177.655 55.6069C178.222 55.6958 178.716 55.654 179.136 55.4816C179.569 55.3104 179.937 55.0681 180.239 54.7547C180.541 54.4412 180.787 54.0903 180.978 53.7018C181.182 53.3144 181.338 52.9426 181.448 52.5862C181.571 52.2309 181.656 51.9312 181.703 51.687C181.765 51.431 181.81 51.2912 181.838 51.2675C181.987 51.2021 182.15 51.2163 182.324 51.31C182.5 51.3908 182.588 51.5879 182.586 51.9015C182.555 52.4085 182.394 52.9761 182.104 53.6043C181.814 54.2324 181.437 54.8007 180.975 55.3092C180.525 55.8188 180 56.2173 179.4 56.5046C178.813 56.7801 178.207 56.8381 177.581 56.6787C176.92 56.6079 176.411 56.3739 176.054 55.9766C175.698 55.5664 175.426 55.0917 175.237 54.5524C175.063 54.0013 174.95 53.4293 174.897 52.8365C174.845 52.2437 174.799 51.7169 174.761 51.2561ZM180.225 47.5189C179.86 46.9118 179.47 46.5118 179.056 46.3187C178.641 46.1255 178.204 46.0416 177.744 46.0667C177.469 46.0818 177.217 46.1905 176.99 46.3929C176.765 46.5822 176.572 46.8399 176.413 47.1658C176.255 47.4787 176.132 47.8405 176.044 48.251C175.957 48.6486 175.914 49.0631 175.915 49.4945L180.225 47.5189ZM184.723 45.6773C184.747 45.5488 184.808 45.4495 184.906 45.3796C185.003 45.3098 185.111 45.2734 185.229 45.2707C185.348 45.255 185.464 45.2781 185.576 45.3402C185.689 45.3894 185.781 45.4627 185.851 45.5603L185.111 53.338C185.44 52.4256 185.741 51.524 186.015 50.633C186.303 49.7302 186.628 48.9222 186.991 48.2089C187.355 47.4827 187.786 46.8994 188.282 46.4592C188.779 46.006 189.406 45.7799 190.164 45.7809C190.57 45.7772 190.909 45.931 191.183 46.2425C191.457 46.541 191.677 46.9393 191.843 47.4374C192.021 47.9366 192.153 48.5167 192.239 49.1778C192.326 49.8259 192.378 50.5035 192.395 51.2108C192.425 51.9062 192.43 52.6059 192.407 53.3097C192.385 54.0136 192.354 54.6644 192.315 55.2622C192.276 55.86 192.23 56.3854 192.177 56.8382C192.137 57.2922 192.102 57.6224 192.071 57.8288C191.961 58.0414 191.786 58.1699 191.547 58.2143C191.319 58.2729 191.126 58.1645 190.967 57.8892C190.976 57.6416 191.006 57.2194 191.059 56.6228C191.112 56.0131 191.16 55.318 191.202 54.5375C191.257 53.758 191.289 52.9439 191.298 52.0951C191.321 51.2345 191.292 50.4412 191.212 49.7153C191.146 48.9776 191.011 48.3579 190.806 47.8564C190.616 47.3431 190.335 47.0376 189.965 46.9398C189.645 46.8595 189.312 47.0068 188.965 47.3817C188.632 47.7577 188.294 48.264 187.95 48.9006C187.62 49.5383 187.295 50.2614 186.976 51.07C186.67 51.8798 186.385 52.6782 186.12 53.4654C185.868 54.2538 185.647 54.9795 185.459 55.6427C185.27 56.3058 185.14 56.8173 185.07 57.1771C185.022 57.2775 184.936 57.355 184.814 57.4096C184.692 57.4643 184.559 57.4853 184.416 57.4728C184.285 57.4745 184.151 57.4431 184.013 57.3787C183.888 57.3155 183.799 57.2097 183.746 57.0613L184.723 45.6773ZM91.729 78.1412C91.5713 77.853 91.4857 77.486 91.4724 77.0405C91.4721 76.596 91.4864 76.1333 91.5155 75.6522C91.5586 75.1593 91.6006 74.6794 91.6414 74.2124C91.6964 73.7336 91.6997 73.3222 91.6514 72.9781C90.9248 74.2608 90.2563 75.2545 89.6457 75.9592C89.0491 76.652 88.5097 77.1407 88.0273 77.4253C87.5591 77.698 87.1445 77.8055 86.7836 77.7478C86.4238 77.6771 86.1238 77.5201 85.8837 77.2769C85.6576 77.0219 85.4875 76.726 85.3732 76.3892C85.26 76.0395 85.21 75.7149 85.2231 75.4154C85.1754 74.9145 85.2206 74.3238 85.3585 73.6431C85.5106 72.9506 85.7228 72.2438 85.995 71.5225C86.2802 70.8025 86.6156 70.1064 87.0011 69.4343C87.4008 68.7504 87.8309 68.1672 88.2914 67.6846C88.7648 67.2032 89.2523 66.8603 89.7538 66.6558C90.2564 66.4384 90.7598 66.4367 91.2639 66.6507C91.5256 66.6475 91.7385 66.6792 91.9026 66.7458C92.0807 66.8006 92.222 66.9045 92.3262 67.0574C92.4305 67.2103 92.4972 67.4187 92.5264 67.6827C92.5567 67.9336 92.5678 68.2548 92.5597 68.6463C92.4237 69.9022 92.3625 70.9752 92.3761 71.8652C92.4027 72.7563 92.4514 73.5448 92.5221 74.2306C92.5928 74.9165 92.6627 75.5369 92.7318 76.0919C92.8138 76.6481 92.8423 77.2191 92.8171 77.8051C92.799 78.0126 92.7329 78.1703 92.6189 78.2779C92.5061 78.3726 92.3837 78.4272 92.2517 78.4418C92.1186 78.4694 91.9959 78.4521 91.8837 78.39C91.7845 78.3291 91.7329 78.2461 91.729 78.1412ZM91.4602 68.2168C91.1852 67.7744 90.8632 67.5698 90.4944 67.6029C90.1255 67.636 89.7424 67.8312 89.3452 68.1886C88.9621 68.5341 88.5811 69.004 88.2024 69.5982C87.8247 70.1795 87.4886 70.8102 87.1938 71.4902C86.899 72.1702 86.6626 72.8553 86.4846 73.5456C86.3207 74.224 86.2479 74.8319 86.2662 75.3694C86.3968 75.969 86.5866 76.3385 86.8358 76.478C87.085 76.6174 87.3673 76.6029 87.6827 76.4344C87.9992 76.253 88.3324 75.9554 88.6823 75.5416C89.0322 75.1278 89.3719 74.6804 89.7016 74.1995C90.0323 73.7057 90.3301 73.2154 90.5949 72.7288C90.8737 72.2304 91.0998 71.8123 91.2732 71.4746L91.4602 68.2168ZM90.0986 65.6273C89.9696 65.4592 89.8163 65.2693 89.6387 65.0577C89.4753 64.8343 89.3124 64.6044 89.1501 64.368C88.9878 64.1316 88.8449 63.8969 88.7216 63.6639C88.6111 63.432 88.5574 63.2247 88.5603 63.042C88.4205 62.8468 88.404 62.6623 88.5107 62.4887C88.6303 62.3162 88.8534 62.2311 89.18 62.2335C89.45 62.5839 89.7123 62.9467 89.967 63.3219C90.2347 63.6982 90.4328 64.0489 90.5612 64.3738C90.7037 64.6869 90.7518 64.959 90.7054 65.1902C90.6591 65.4215 90.4568 65.5671 90.0986 65.6273ZM107.043 70.3643L105.2 70.8109C105.061 70.7595 104.951 70.6779 104.869 70.5662C104.774 70.4534 104.713 70.3369 104.684 70.2167C104.655 70.0966 104.658 69.9858 104.693 69.8843C104.715 69.7816 104.774 69.7083 104.869 69.6644L107.161 69.0218L107.604 63.5121C107.657 63.3469 107.752 63.231 107.889 63.1645C108.025 63.0981 108.158 63.077 108.286 63.1013C108.429 63.1138 108.555 63.1705 108.664 63.2715C108.774 63.3596 108.842 63.4702 108.87 63.6033C108.809 64.0031 108.752 64.4295 108.699 64.8823C108.648 65.3222 108.596 65.7686 108.543 66.2215C108.504 66.6625 108.473 67.0976 108.448 67.5268C108.425 67.943 108.417 68.3279 108.426 68.6815L111.549 67.7196C111.735 67.6836 111.876 67.7155 111.972 67.8154C112.069 67.9023 112.124 68.0183 112.137 68.1632C112.165 68.2963 112.147 68.4255 112.084 68.5507C112.021 68.6758 111.922 68.7587 111.788 68.7992L108.308 70.0241C108.297 70.1538 108.276 70.4657 108.246 70.9597C108.217 71.4408 108.18 72.0126 108.135 72.6753C108.09 73.338 108.041 74.0461 107.988 74.7995C107.936 75.553 107.88 76.2605 107.822 76.922C107.777 77.5847 107.733 78.1625 107.69 78.6554C107.661 79.1365 107.641 79.4419 107.63 79.5716C107.566 79.9974 107.424 80.2006 107.204 80.1813C106.983 80.162 106.752 80.0373 106.511 79.807L107.043 70.3643ZM112.044 74.8798C111.946 74.9497 111.781 74.968 111.549 74.9346C111.331 74.8893 111.128 74.8193 110.94 74.7244C110.765 74.6307 110.651 74.5162 110.597 74.3808C110.545 74.2324 110.637 74.0771 110.873 73.9148C110.971 73.8449 111.073 73.8015 111.179 73.7847C111.299 73.756 111.412 73.7332 111.518 73.7163C111.638 73.6876 111.734 73.6437 111.804 73.5845C111.888 73.5264 111.942 73.4267 111.968 73.2851C112.032 72.7025 112.129 72.1098 112.26 71.507C112.405 70.9053 112.614 70.3747 112.89 69.9152C113.165 69.4556 113.529 69.1019 113.983 68.854C114.449 68.6072 115.035 68.5475 115.743 68.6747C116.003 68.6974 116.289 68.7878 116.602 68.9459C116.916 69.091 117.213 69.2804 117.493 69.514C117.774 69.7347 118.013 69.9974 118.208 70.302C118.405 70.5937 118.515 70.904 118.539 71.2328C118.618 71.3705 118.552 71.5281 118.34 71.7056C118.129 71.8832 117.837 72.0798 117.465 72.2957C117.095 72.4985 116.678 72.7039 116.215 72.9117C115.753 73.1196 115.304 73.3156 114.87 73.4998C114.449 73.6852 114.075 73.8485 113.749 73.9899C113.423 74.1313 113.212 74.2305 113.115 74.2874C113.149 74.8001 113.186 75.3393 113.228 75.905C113.27 76.4707 113.355 76.9944 113.483 77.4761C113.611 77.9578 113.784 78.3651 114.004 78.698C114.237 79.019 114.548 79.1966 114.937 79.2306C115.505 79.3195 115.998 79.2777 116.419 79.1053C116.852 78.9341 117.219 78.6918 117.521 78.3784C117.823 78.0649 118.07 77.714 118.26 77.3255C118.464 76.9381 118.621 76.5663 118.731 76.2099C118.853 75.8546 118.938 75.5549 118.986 75.3107C119.047 75.0547 119.092 74.9149 119.12 74.8912C119.27 74.8258 119.432 74.84 119.607 74.9337C119.783 75.0145 119.87 75.2117 119.869 75.5252C119.838 76.0322 119.677 76.5998 119.387 77.228C119.096 77.8561 118.72 78.4244 118.257 78.9329C117.807 79.4425 117.282 79.841 116.682 80.1283C116.096 80.4038 115.49 80.4618 114.863 80.3024C114.203 80.2316 113.694 79.9976 113.336 79.6003C112.98 79.1901 112.708 78.7154 112.52 78.1761C112.346 77.625 112.233 77.053 112.18 76.4602C112.127 75.8674 112.082 75.3406 112.044 74.8798ZM117.507 71.1426C117.142 70.5355 116.752 70.1355 116.338 69.9424C115.924 69.7493 115.487 69.6653 115.027 69.6904C114.751 69.7055 114.5 69.8142 114.273 70.0166C114.047 70.2059 113.855 70.4636 113.696 70.7895C113.537 71.1024 113.414 71.4642 113.326 71.8747C113.239 72.2723 113.196 72.6868 113.198 73.1182L117.507 71.1426ZM121.308 79.5135C121.537 79.7296 121.827 79.8595 122.176 79.9031C122.538 79.9479 122.918 79.9354 123.316 79.8656C123.728 79.7841 124.145 79.6571 124.565 79.4848C124.999 79.3006 125.397 79.0935 125.756 78.8636C126.129 78.6348 126.452 78.3885 126.723 78.1247C127.009 77.8491 127.208 77.5855 127.322 77.334C127.436 77.0696 127.451 76.8225 127.367 76.5929C127.282 76.3634 127.064 76.1678 126.712 76.0063C126.037 76.1041 125.365 76.1695 124.695 76.2024C124.026 76.2353 123.429 76.1831 122.905 76.0458C122.394 75.9096 121.992 75.6587 121.697 75.293C121.402 74.9274 121.298 74.3955 121.385 73.6973C121.483 73.0262 121.72 72.413 122.095 71.8577C122.485 71.2905 122.951 70.8215 123.493 70.4507C124.048 70.081 124.647 69.8131 125.288 69.6471C125.943 69.4822 126.593 69.4476 127.239 69.5432C127.367 69.5675 127.483 69.5907 127.585 69.6128C127.702 69.623 127.804 69.6515 127.892 69.6984C127.979 69.7452 128.039 69.8093 128.071 69.8905C128.116 69.9729 128.125 70.0913 128.099 70.2458C128.069 70.4393 127.984 70.5887 127.844 70.6941C127.704 70.7995 127.525 70.8296 127.306 70.7843C126.555 70.5617 125.864 70.534 125.235 70.7012C124.606 70.8683 124.073 71.1354 123.636 71.5023C123.2 71.8563 122.876 72.2723 122.664 72.7505C122.452 73.2287 122.387 73.6739 122.469 74.0862C122.675 74.5747 122.966 74.9009 123.344 75.0646C123.736 75.2166 124.154 75.2924 124.599 75.292C125.056 75.2928 125.522 75.2683 125.997 75.2183C126.473 75.1554 126.897 75.1599 127.27 75.2317C127.644 75.2905 127.943 75.4605 128.167 75.7415C128.392 76.0095 128.487 76.4819 128.454 77.1586C128.404 77.5856 128.225 77.9882 127.917 78.3664C127.611 78.7317 127.228 79.0708 126.77 79.3836C126.325 79.6845 125.831 79.955 125.287 80.1949C124.744 80.4219 124.206 80.6035 123.671 80.7397C123.149 80.8771 122.658 80.9583 122.199 80.9835C121.752 81.0097 121.396 80.972 121.13 80.8704C120.855 80.5848 120.721 80.3183 120.73 80.0707C120.74 79.8101 120.932 79.6244 121.308 79.5135ZM147.438 83.0152C147.28 82.7269 147.195 82.3599 147.182 81.9144C147.181 81.47 147.196 81.0072 147.225 80.5261C147.268 80.0332 147.31 79.5533 147.351 79.0863C147.405 78.6075 147.409 78.1961 147.36 77.852C146.634 79.1347 145.965 80.1284 145.355 80.8331C144.758 81.5259 144.219 82.0146 143.736 82.2992C143.268 82.5719 142.854 82.6794 142.493 82.6217C142.133 82.551 141.833 82.3941 141.593 82.1508C141.367 81.8958 141.197 81.5999 141.082 81.2631C140.969 80.9134 140.919 80.5888 140.932 80.2893C140.884 79.7885 140.93 79.1977 141.068 78.517C141.22 77.8245 141.432 77.1177 141.704 76.3965C141.989 75.6764 142.325 74.9803 142.71 74.3082C143.11 73.6243 143.54 73.0411 144 72.5586C144.474 72.0772 144.961 71.7342 145.463 71.5298C145.965 71.3123 146.469 71.3106 146.973 71.5246C147.235 71.5214 147.448 71.5531 147.612 71.6197C147.79 71.6745 147.931 71.7784 148.035 71.9313C148.14 72.0842 148.206 72.2926 148.235 72.5566C148.266 72.8076 148.277 73.1288 148.269 73.5202C148.133 74.7761 148.072 75.8491 148.085 76.7391C148.112 77.6302 148.16 78.4187 148.231 79.1045C148.302 79.7904 148.372 80.4108 148.441 80.9658C148.523 81.522 148.551 82.093 148.526 82.679C148.508 82.8866 148.442 83.0442 148.328 83.1518C148.215 83.2465 148.093 83.3012 147.961 83.3158C147.828 83.3433 147.705 83.3261 147.593 83.264C147.494 83.203 147.442 83.1201 147.438 83.0152ZM147.169 73.0907C146.894 72.6484 146.572 72.4437 146.203 72.4768C145.835 72.5099 145.452 72.7051 145.054 73.0625C144.671 73.408 144.29 73.8779 143.911 74.4721C143.534 75.0534 143.198 75.6841 142.903 76.3641C142.608 77.0441 142.372 77.7293 142.194 78.4195C142.03 79.0979 141.957 79.7058 141.975 80.2433C142.106 80.8429 142.296 81.2124 142.545 81.3519C142.794 81.4913 143.076 81.4768 143.392 81.3083C143.708 81.1269 144.041 80.8293 144.391 80.4155C144.741 80.0017 145.081 79.5544 145.411 79.0734C145.741 78.5796 146.039 78.0893 146.304 77.6027C146.583 77.1043 146.809 76.6862 146.982 76.3485L147.169 73.0907ZM150.573 83.309C150.57 83.0473 150.58 82.63 150.604 82.057C150.642 81.4721 150.68 80.8089 150.719 80.0672C150.772 79.3138 150.829 78.5149 150.89 77.6706C150.95 76.8264 150.995 76.0134 151.025 75.2317C151.068 74.4382 151.087 73.7013 151.081 73.0212C151.088 72.3421 151.07 71.7981 151.028 71.3892C151.056 71.0649 151.169 70.8919 151.367 70.87C151.579 70.8362 151.813 70.8567 152.067 70.9312C152.099 71.9143 152.1 72.8032 152.069 73.5978C152.052 74.3936 152.023 75.1034 151.981 75.7271C151.954 76.339 151.927 76.8726 151.9 77.3277C151.887 77.771 151.902 78.1317 151.943 78.4097C152.204 77.217 152.456 76.2065 152.698 75.3781C152.94 74.5497 153.176 73.8776 153.404 73.3616C153.646 72.8339 153.888 72.4564 154.13 72.2292C154.373 71.9891 154.626 71.8609 154.889 71.8447C155.125 71.8392 155.329 72.0466 155.501 72.4668C155.675 72.8741 155.819 73.39 155.935 74.0144C156.063 74.6399 156.161 75.3151 156.228 76.0398C156.309 76.7528 156.363 77.411 156.388 78.0145C156.944 76.743 157.398 75.737 157.75 74.9967C158.116 74.2575 158.426 73.703 158.68 73.3331C158.936 72.9503 159.159 72.715 159.35 72.6271C159.553 72.5403 159.771 72.5136 160.004 72.547C160.314 72.5873 160.548 72.745 160.707 73.0203C160.88 73.2838 161 73.6341 161.066 74.0712C161.134 74.4954 161.163 74.9881 161.153 75.5492C161.157 76.0986 161.145 76.6792 161.118 77.2911C161.104 77.9042 161.094 78.5308 161.091 79.1709C161.101 79.7992 161.14 80.4038 161.207 80.9848C161.273 81.5657 161.389 82.1117 161.553 82.6228C161.719 83.1209 161.963 83.5409 162.286 83.8829C162.149 84.1061 161.995 84.2953 161.825 84.4503C161.656 84.5923 161.491 84.6041 161.332 84.4855C160.977 84.2062 160.708 83.7644 160.526 83.1603C160.358 82.5443 160.235 81.8539 160.158 81.0891C160.081 80.3243 160.046 79.5369 160.051 78.727C160.058 77.9042 160.065 77.1532 160.072 76.4742C160.079 75.7951 160.069 75.2323 160.043 74.7856C160.03 74.34 159.972 74.1062 159.869 74.0841C159.498 73.9993 159.057 74.5555 158.547 75.7526C158.05 76.9508 157.378 78.7349 156.53 81.105C156.45 81.2679 156.362 81.3843 156.264 81.4542C156.168 81.5111 156.074 81.5356 155.983 81.5277C155.892 81.5197 155.804 81.4858 155.717 81.426C155.632 81.3532 155.561 81.2686 155.504 81.1721C155.409 80.1704 155.336 79.2099 155.286 78.2905C155.249 77.3723 155.209 76.5585 155.166 75.8489C155.124 75.1394 155.063 74.5655 154.984 74.1272C154.917 73.6901 154.82 73.4529 154.693 73.4156C154.579 73.3795 154.45 73.499 154.309 73.7741C154.181 74.0374 154.044 74.411 153.897 74.8948C153.751 75.3657 153.59 75.9333 153.415 76.5976C153.253 77.25 153.08 77.9538 152.897 78.7089C152.713 79.464 152.521 80.2444 152.319 81.0503C152.119 81.8432 151.907 82.6284 151.682 83.406C151.621 83.5053 151.536 83.5763 151.428 83.6191C151.319 83.6749 151.205 83.6977 151.089 83.6874C150.985 83.6784 150.883 83.6433 150.784 83.5824C150.685 83.5214 150.615 83.4303 150.573 83.309ZM164.974 72.7074C165.055 72.6753 165.148 72.6508 165.254 72.6339C165.36 72.617 165.459 72.6126 165.55 72.6205C165.653 72.6296 165.749 72.6576 165.836 72.7044C165.924 72.7513 165.989 72.8289 166.032 72.9372C165.958 73.7803 165.884 74.6954 165.811 75.6823C165.752 76.6574 165.691 77.652 165.629 78.666C165.58 79.6682 165.526 80.6569 165.467 81.632C165.408 82.6071 165.355 83.5109 165.308 84.3433C165.304 84.539 165.239 84.6837 165.114 84.7772C164.988 84.8708 164.853 84.9113 164.711 84.8988C164.581 84.8875 164.462 84.8248 164.355 84.7108C164.246 84.6098 164.201 84.4555 164.219 84.248L164.974 72.7074ZM165.087 68.7177C165.102 68.5491 165.17 68.4439 165.291 68.4023C165.414 68.3476 165.546 68.3266 165.689 68.339C165.974 68.364 166.141 68.4766 166.189 68.6769C166.251 68.8653 166.271 69.0827 166.249 69.3291C166.158 69.478 166.045 69.5792 165.909 69.6327C165.774 69.6862 165.636 69.6872 165.497 69.6358C165.371 69.5856 165.262 69.4846 165.171 69.3328C165.092 69.1822 165.065 68.9772 165.087 68.7177ZM167.752 83.5768C167.981 83.7929 168.27 83.9228 168.619 83.9664C168.981 84.0112 169.362 83.9987 169.76 83.9289C170.172 83.8474 170.588 83.7204 171.009 83.5481C171.443 83.3639 171.84 83.1568 172.2 82.9269C172.573 82.6981 172.895 82.4518 173.167 82.188C173.452 81.9123 173.652 81.6488 173.765 81.3973C173.88 81.1329 173.895 80.8858 173.81 80.6562C173.726 80.4266 173.508 80.2311 173.156 80.0696C172.481 80.1674 171.808 80.2328 171.139 80.2657C170.47 80.2986 169.873 80.2464 169.349 80.1091C168.838 79.9729 168.435 79.722 168.14 79.3563C167.846 78.9907 167.742 78.4588 167.829 77.7606C167.927 77.0895 168.164 76.4763 168.539 75.921C168.928 75.3538 169.394 74.8848 169.937 74.514C170.492 74.1443 171.09 73.8764 171.732 73.7104C172.387 73.5455 173.037 73.5109 173.682 73.6065C173.811 73.6308 173.926 73.654 174.029 73.6761C174.146 73.6863 174.248 73.7148 174.335 73.7617C174.423 73.8085 174.482 73.8726 174.514 73.9538C174.56 74.0362 174.569 74.1546 174.542 74.3091C174.512 74.5026 174.427 74.652 174.287 74.7574C174.147 74.8628 173.968 74.8929 173.75 74.8476C172.998 74.625 172.308 74.5973 171.679 74.7645C171.05 74.9316 170.517 75.1987 170.08 75.5656C169.644 75.9196 169.32 76.3356 169.108 76.8138C168.896 77.292 168.831 77.7372 168.913 78.1495C169.118 78.638 169.41 78.9642 169.788 79.1279C170.18 79.2799 170.598 79.3557 171.042 79.3553C171.5 79.3561 171.966 79.3316 172.441 79.2816C172.917 79.2187 173.341 79.2232 173.714 79.295C174.088 79.3538 174.387 79.5238 174.61 79.8047C174.835 80.0728 174.931 80.5452 174.898 81.2219C174.848 81.6489 174.669 82.0515 174.361 82.4297C174.055 82.795 173.672 83.1341 173.213 83.4469C172.769 83.7478 172.275 84.0182 171.731 84.2582C171.188 84.4852 170.649 84.6668 170.115 84.803C169.593 84.9404 169.102 85.0216 168.643 85.0467C168.196 85.073 167.84 85.0353 167.574 84.9337C167.298 84.6481 167.165 84.3816 167.174 84.134C167.183 83.8734 167.376 83.6877 167.752 83.5768ZM187.707 85.95C187.729 85.6906 187.81 85.5147 187.949 85.4222C188.101 85.331 188.26 85.3057 188.426 85.3464C188.592 85.3871 188.741 85.4785 188.873 85.6207C189.004 85.7629 189.061 85.9378 189.042 86.1453C189.023 86.3658 188.93 86.5276 188.765 86.6308C188.612 86.735 188.444 86.7792 188.263 86.7633C188.095 86.7356 187.945 86.6571 187.813 86.5279C187.695 86.3868 187.659 86.1942 187.707 85.95ZM189.067 70.6197C189.186 70.4601 189.305 70.366 189.425 70.3373C189.546 70.3086 189.656 70.3117 189.758 70.3468C189.859 70.3818 189.94 70.4346 189.999 70.5051C190.072 70.5638 190.114 70.6132 190.123 70.6532C190.054 71.4445 189.96 72.3643 189.843 73.4127C189.726 74.4481 189.613 75.5101 189.505 76.5985C189.397 77.687 189.304 78.7506 189.226 79.7895C189.161 80.8294 189.134 81.742 189.143 82.527C189.078 82.6782 188.977 82.7805 188.842 82.834C188.721 82.8757 188.596 82.8843 188.467 82.86C188.353 82.8239 188.247 82.7623 188.15 82.6754C188.053 82.5885 187.997 82.4855 187.981 82.3665L189.067 70.6197Z" fill="#2C2C2C"/>
<path d="M16.1387 26.2485C13.1845 27.2158 10.1912 28.1937 7.15383 28.8672C6.65285 28.9783 5.84185 29.2731 6.09995 28.7419C6.39335 28.1381 6.47949 27.0468 6.53995 26.3849C6.71546 24.4636 7.03594 22.5089 7.01412 20.5864" stroke="#2C2C2C" stroke-linecap="round" stroke-linejoin="round"/>
<path d="M8.49976 26.4985C19.1661 14.6651 48.499 -2.60172 80.4998 22.9985" stroke="#2C2C2C" stroke-linecap="round" stroke-linejoin="round"/>
</svg>
