<svg width="161" height="76" viewBox="0 0 161 76" fill="none" xmlns="http://www.w3.org/2000/svg">
<path d="M17.7578 18.1133C17.7578 17.6445 17.8034 17.0065 17.8945 16.1992C17.9987 15.3919 18.1419 14.5195 18.3242 13.582C18.5195 12.6445 18.7669 11.7005 19.0664 10.75C19.3659 9.78646 19.7174 8.92057 20.1211 8.15234C20.5247 7.37109 20.9805 6.73307 21.4883 6.23828C22.0091 5.74349 22.582 5.49609 23.207 5.49609C23.5586 5.49609 23.8581 5.5612 24.1055 5.69141C24.3659 5.82161 24.5807 5.9974 24.75 6.21875C24.9193 6.4401 25.043 6.69401 25.1211 6.98047C25.1992 7.26693 25.2383 7.57292 25.2383 7.89844C24.8867 8.06771 24.6198 8.10677 24.4375 8.01562C24.2552 7.92448 24.1055 7.78776 23.9883 7.60547C23.8841 7.41016 23.7799 7.20833 23.6758 7C23.5716 6.79167 23.4219 6.66146 23.2266 6.60938C22.7578 6.60938 22.3281 6.83724 21.9375 7.29297C21.5469 7.73568 21.1953 8.30208 20.8828 8.99219C20.5703 9.68229 20.2969 10.4505 20.0625 11.2969C19.8281 12.1432 19.6328 12.9701 19.4766 13.7773C19.3203 14.5716 19.2031 15.2943 19.125 15.9453C19.0469 16.5964 19.0078 17.0781 19.0078 17.3906C19.0078 17.8073 19.0208 18.2109 19.0469 18.6016C19.0859 18.9792 19.1706 19.3177 19.3008 19.6172C19.444 19.9167 19.6523 20.1576 19.9258 20.3398C20.1992 20.5091 20.5833 20.5938 21.0781 20.5938C21.6641 20.5938 22.237 20.4245 22.7969 20.0859C23.3698 19.7474 23.8906 19.3242 24.3594 18.8164C24.8411 18.3086 25.2578 17.7682 25.6094 17.1953C25.974 16.6094 26.2344 16.082 26.3906 15.6133C26.4167 15.6003 26.4818 15.5938 26.5859 15.5938C26.6901 15.5807 26.7552 15.5742 26.7812 15.5742C26.9505 15.5742 27.1133 15.5938 27.2695 15.6328C27.4258 15.6719 27.5039 15.8021 27.5039 16.0234C27.4128 16.4922 27.2044 16.987 26.8789 17.5078C26.5664 18.0156 26.1888 18.5169 25.7461 19.0117C25.3164 19.4935 24.8411 19.9492 24.3203 20.3789C23.8125 20.7956 23.3112 21.1471 22.8164 21.4336C22.3216 21.7201 21.8594 21.9154 21.4297 22.0195C21.013 22.1367 20.6745 22.1302 20.4141 22C19.9453 22 19.5417 21.8698 19.2031 21.6094C18.8646 21.3359 18.5846 21.0039 18.3633 20.6133C18.1549 20.2227 17.9987 19.806 17.8945 19.3633C17.8034 18.9076 17.7578 18.4909 17.7578 18.1133ZM29.9492 16.7852C29.8581 16.8633 29.6953 16.8958 29.4609 16.8828C29.2396 16.8568 29.0312 16.8047 28.8359 16.7266C28.6536 16.6484 28.5299 16.5443 28.4648 16.4141C28.3997 16.2708 28.4779 16.1081 28.6992 15.9258C28.7904 15.8477 28.888 15.7956 28.9922 15.7695C29.1094 15.7305 29.2201 15.6979 29.3242 15.6719C29.4414 15.6328 29.5326 15.5807 29.5977 15.5156C29.6758 15.4505 29.7214 15.3464 29.7344 15.2031C29.7474 14.6172 29.793 14.0182 29.8711 13.4062C29.9622 12.7943 30.125 12.2474 30.3594 11.7656C30.5938 11.2839 30.9258 10.8997 31.3555 10.6133C31.7982 10.3268 32.3776 10.2161 33.0938 10.2812C33.3542 10.2812 33.6471 10.3464 33.9727 10.4766C34.2982 10.5938 34.6107 10.7565 34.9102 10.9648C35.2096 11.1602 35.4701 11.401 35.6914 11.6875C35.9128 11.9609 36.0495 12.2604 36.1016 12.5859C36.1927 12.7161 36.1406 12.8789 35.9453 13.0742C35.75 13.2695 35.4766 13.4909 35.125 13.7383C34.7734 13.9727 34.3763 14.2135 33.9336 14.4609C33.4909 14.7083 33.0612 14.9427 32.6445 15.1641C32.2409 15.3854 31.8828 15.5807 31.5703 15.75C31.2578 15.9193 31.056 16.0365 30.9648 16.1016C31.043 16.6094 31.1276 17.1432 31.2188 17.7031C31.3099 18.263 31.4401 18.7773 31.6094 19.2461C31.7786 19.7148 31.987 20.1055 32.2344 20.418C32.4948 20.7174 32.8203 20.8672 33.2109 20.8672C33.7839 20.9062 34.2721 20.8216 34.6758 20.6133C35.0924 20.4049 35.4375 20.1315 35.7109 19.793C35.9844 19.4544 36.1992 19.0833 36.3555 18.6797C36.5247 18.276 36.6484 17.8919 36.7266 17.5273C36.8177 17.1628 36.8763 16.8568 36.9023 16.6094C36.9414 16.349 36.974 16.2057 37 16.1797C37.1432 16.1016 37.306 16.1016 37.4883 16.1797C37.6706 16.2448 37.7747 16.4336 37.8008 16.7461C37.8138 17.2539 37.7031 17.8333 37.4688 18.4844C37.2344 19.1354 36.9089 19.7344 36.4922 20.2812C36.0885 20.8281 35.6003 21.2708 35.0273 21.6094C34.4674 21.9349 33.8685 22.0456 33.2305 21.9414C32.5664 21.9284 32.0391 21.7396 31.6484 21.375C31.2578 20.9974 30.9453 20.5482 30.7109 20.0273C30.4896 19.4935 30.3268 18.9336 30.2227 18.3477C30.1185 17.7617 30.0273 17.2409 29.9492 16.7852ZM35.0664 12.5859C34.6497 12.013 34.2266 11.6484 33.7969 11.4922C33.3672 11.3359 32.9245 11.2904 32.4688 11.3555C32.1953 11.3945 31.9544 11.5247 31.7461 11.7461C31.5378 11.9544 31.3685 12.2279 31.2383 12.5664C31.1081 12.8919 31.0169 13.263 30.9648 13.6797C30.9128 14.0833 30.9062 14.5 30.9453 14.9297L35.0664 12.5859ZM45.8555 26.4727C45.7773 26.3815 45.7513 26.2513 45.7773 26.082C45.8034 25.9258 45.8555 25.7826 45.9336 25.6523C46.0117 25.5352 46.1159 25.457 46.2461 25.418C46.3633 25.3919 46.487 25.4701 46.6172 25.6523C46.9818 26.1471 47.3724 26.5052 47.7891 26.7266C48.2057 26.9609 48.6029 27.026 48.9805 26.9219C49.3451 26.8177 49.6706 26.5247 49.957 26.043C50.2435 25.5612 50.4388 24.8516 50.543 23.9141C50.6211 23.0026 50.6602 22.013 50.6602 20.9453C50.6602 19.8646 50.6471 18.7578 50.6211 17.625C50.5951 16.4922 50.569 15.3529 50.543 14.207C50.5299 13.0482 50.543 11.9414 50.582 10.8867C50.6211 10.7956 50.6927 10.724 50.7969 10.6719C50.901 10.6068 51.0117 10.5742 51.1289 10.5742C51.2461 10.5742 51.3568 10.6003 51.4609 10.6523C51.5781 10.6914 51.6562 10.7695 51.6953 10.8867C51.6693 12.0716 51.6628 13.1979 51.6758 14.2656C51.6888 15.3203 51.7018 16.3685 51.7148 17.4102C51.7409 18.4518 51.7474 19.513 51.7344 20.5938C51.7344 21.6615 51.6953 22.8073 51.6172 24.0312C51.6302 24.4609 51.5651 24.9036 51.4219 25.3594C51.2786 25.8151 51.0768 26.2318 50.8164 26.6094C50.556 26.987 50.25 27.2995 49.8984 27.5469C49.5339 27.8073 49.1367 27.957 48.707 27.9961C48.2773 28.0352 47.8216 27.9375 47.3398 27.7031C46.8581 27.4818 46.3633 27.0716 45.8555 26.4727ZM50.9531 8.52344C50.7188 8.48438 50.569 8.40625 50.5039 8.28906C50.4388 8.15885 50.4323 8.02865 50.4844 7.89844C50.5495 7.75521 50.6471 7.63151 50.7773 7.52734C50.9206 7.42318 51.0768 7.3776 51.2461 7.39062C51.3893 7.39062 51.474 7.46224 51.5 7.60547C51.526 7.7487 51.5391 7.85938 51.5391 7.9375C51.5391 8.32812 51.3438 8.52344 50.9531 8.52344ZM55.957 21.9219C55.4362 21.8568 55.0065 21.6484 54.668 21.2969C54.3424 20.9453 54.082 20.5156 53.8867 20.0078C53.6914 19.5 53.5612 18.9466 53.4961 18.3477C53.444 17.7357 53.431 17.1367 53.457 16.5508C53.4961 15.6523 53.6589 14.793 53.9453 13.9727C54.2448 13.1523 54.6094 12.4427 55.0391 11.8438C55.4818 11.2318 55.9635 10.763 56.4844 10.4375C57.0182 10.099 57.5391 9.96875 58.0469 10.0469C58.5807 10.125 59.0104 10.3789 59.3359 10.8086C59.6745 11.2383 59.9349 11.7656 60.1172 12.3906C60.2995 13.0156 60.4102 13.6992 60.4492 14.4414C60.4883 15.1706 60.4818 15.8737 60.4297 16.5508C60.3646 17.319 60.1953 18.0352 59.9219 18.6992C59.6484 19.3633 59.3034 19.9362 58.8867 20.418C58.4831 20.8997 58.0208 21.2773 57.5 21.5508C56.9922 21.8112 56.4779 21.9349 55.957 21.9219ZM57.8516 11.1602C57.4219 11.1081 57.0182 11.2448 56.6406 11.5703C56.276 11.8828 55.944 12.306 55.6445 12.8398C55.3581 13.3607 55.1172 13.9596 54.9219 14.6367C54.7266 15.3008 54.5964 15.9583 54.5312 16.6094C54.4792 17.0781 54.4596 17.5599 54.4727 18.0547C54.4857 18.5495 54.5443 18.9987 54.6484 19.4023C54.7656 19.806 54.9414 20.138 55.1758 20.3984C55.4232 20.6458 55.7487 20.7695 56.1523 20.7695C56.4779 20.7826 56.8164 20.6719 57.168 20.4375C57.5326 20.2031 57.8711 19.8906 58.1836 19.5C58.4961 19.0964 58.7695 18.6406 59.0039 18.1328C59.2513 17.625 59.4141 17.1042 59.4922 16.5703C59.5833 16.0104 59.6029 15.4375 59.5508 14.8516C59.5117 14.2526 59.4141 13.6992 59.2578 13.1914C59.1146 12.6836 58.9193 12.2474 58.6719 11.8828C58.4375 11.5052 58.1641 11.2643 57.8516 11.1602ZM62.2305 5.73047C62.5299 5.43099 62.7643 5.30729 62.9336 5.35938C63.1159 5.41146 63.2526 5.58724 63.3438 5.88672L63.3828 16.7656L68.4414 9.92969C68.6628 9.92969 68.8451 9.96875 68.9883 10.0469C69.1445 10.112 69.2227 10.2747 69.2227 10.5352L64.0664 17.6445L69.8086 20.4961C69.8477 20.5482 69.8932 20.6393 69.9453 20.7695C70.0104 20.8867 70.043 21.0104 70.043 21.1406C70.043 21.2578 69.9974 21.375 69.9062 21.4922C69.8151 21.5964 69.6458 21.6549 69.3984 21.668L63.5 18.582V21.7656C63.4089 21.987 63.3112 22.1302 63.207 22.1953C63.1029 22.2604 62.9987 22.2799 62.8945 22.2539C62.7904 22.2409 62.6862 22.1953 62.582 22.1172C62.4909 22.0391 62.4062 21.9674 62.3281 21.9023L62.2305 5.73047ZM71.0625 16.7852C70.9714 16.8633 70.8086 16.8958 70.5742 16.8828C70.3529 16.8568 70.1445 16.8047 69.9492 16.7266C69.7669 16.6484 69.6432 16.5443 69.5781 16.4141C69.513 16.2708 69.5911 16.1081 69.8125 15.9258C69.9036 15.8477 70.0013 15.7956 70.1055 15.7695C70.2227 15.7305 70.3333 15.6979 70.4375 15.6719C70.5547 15.6328 70.6458 15.5807 70.7109 15.5156C70.7891 15.4505 70.8346 15.3464 70.8477 15.2031C70.8607 14.6172 70.9062 14.0182 70.9844 13.4062C71.0755 12.7943 71.2383 12.2474 71.4727 11.7656C71.707 11.2839 72.0391 10.8997 72.4688 10.6133C72.9115 10.3268 73.4909 10.2161 74.207 10.2812C74.4674 10.2812 74.7604 10.3464 75.0859 10.4766C75.4115 10.5938 75.724 10.7565 76.0234 10.9648C76.3229 11.1602 76.5833 11.401 76.8047 11.6875C77.026 11.9609 77.1628 12.2604 77.2148 12.5859C77.306 12.7161 77.2539 12.8789 77.0586 13.0742C76.8633 13.2695 76.5898 13.4909 76.2383 13.7383C75.8867 13.9727 75.4896 14.2135 75.0469 14.4609C74.6042 14.7083 74.1745 14.9427 73.7578 15.1641C73.3542 15.3854 72.9961 15.5807 72.6836 15.75C72.3711 15.9193 72.1693 16.0365 72.0781 16.1016C72.1562 16.6094 72.2409 17.1432 72.332 17.7031C72.4232 18.263 72.5534 18.7773 72.7227 19.2461C72.8919 19.7148 73.1003 20.1055 73.3477 20.418C73.6081 20.7174 73.9336 20.8672 74.3242 20.8672C74.8971 20.9062 75.3854 20.8216 75.7891 20.6133C76.2057 20.4049 76.5508 20.1315 76.8242 19.793C77.0977 19.4544 77.3125 19.0833 77.4688 18.6797C77.638 18.276 77.7617 17.8919 77.8398 17.5273C77.931 17.1628 77.9896 16.8568 78.0156 16.6094C78.0547 16.349 78.0872 16.2057 78.1133 16.1797C78.2565 16.1016 78.4193 16.1016 78.6016 16.1797C78.7839 16.2448 78.888 16.4336 78.9141 16.7461C78.9271 17.2539 78.8164 17.8333 78.582 18.4844C78.3477 19.1354 78.0221 19.7344 77.6055 20.2812C77.2018 20.8281 76.7135 21.2708 76.1406 21.6094C75.5807 21.9349 74.9818 22.0456 74.3438 21.9414C73.6797 21.9284 73.1523 21.7396 72.7617 21.375C72.3711 20.9974 72.0586 20.5482 71.8242 20.0273C71.6029 19.4935 71.4401 18.9336 71.3359 18.3477C71.2318 17.7617 71.1406 17.2409 71.0625 16.7852ZM76.1797 12.5859C75.763 12.013 75.3398 11.6484 74.9102 11.4922C74.4805 11.3359 74.0378 11.2904 73.582 11.3555C73.3086 11.3945 73.0677 11.5247 72.8594 11.7461C72.651 11.9544 72.4818 12.2279 72.3516 12.5664C72.2214 12.8919 72.1302 13.263 72.0781 13.6797C72.026 14.0833 72.0195 14.5 72.0586 14.9297L76.1797 12.5859ZM80.7148 21.6289C80.6758 19.832 80.6432 18.3086 80.6172 17.0586C80.5911 15.8086 80.5716 14.7734 80.5586 13.9531C80.5456 13.1328 80.5326 12.4948 80.5195 12.0391C80.5195 11.5703 80.513 11.2253 80.5 11.0039C80.5 10.7826 80.5 10.6523 80.5 10.6133C80.5 10.5612 80.5 10.5286 80.5 10.5156C80.513 10.3984 80.5716 10.3008 80.6758 10.2227C80.7799 10.1445 80.8906 10.099 81.0078 10.0859C81.138 10.0599 81.2617 10.0729 81.3789 10.125C81.4961 10.1771 81.5807 10.2617 81.6328 10.3789L81.6914 14.8711C81.8867 13.9727 82.1992 13.224 82.6289 12.625C83.0716 12.026 83.5664 11.5573 84.1133 11.2188C84.6602 10.8672 85.2266 10.6393 85.8125 10.5352C86.4115 10.431 86.9648 10.4245 87.4727 10.5156C87.6419 10.5547 87.7656 10.6263 87.8438 10.7305C87.9349 10.8346 87.9805 10.9518 87.9805 11.082C87.9935 11.1992 87.9609 11.3164 87.8828 11.4336C87.8177 11.5378 87.7266 11.6159 87.6094 11.668C87.0234 11.6289 86.4701 11.681 85.9492 11.8242C85.4414 11.9544 84.9727 12.1562 84.543 12.4297C84.1263 12.6901 83.7552 13.0026 83.4297 13.3672C83.1172 13.7318 82.8698 14.1159 82.6875 14.5195C82.4141 15.1055 82.2253 15.724 82.1211 16.375C82.0299 17.013 81.9714 17.651 81.9453 18.2891C81.9323 18.9271 81.9323 19.5326 81.9453 20.1055C81.9714 20.6784 81.9779 21.1797 81.9648 21.6094C81.9518 21.7526 81.8867 21.8633 81.7695 21.9414C81.6654 22.0065 81.5417 22.0391 81.3984 22.0391C81.2682 22.0521 81.1315 22.026 80.9883 21.9609C80.8581 21.8828 80.7669 21.7721 80.7148 21.6289ZM107.344 21.8047C107.161 21.5312 107.044 21.1732 106.992 20.7305C106.953 20.2878 106.927 19.8255 106.914 19.3438C106.914 18.849 106.914 18.3672 106.914 17.8984C106.927 17.4167 106.895 17.0065 106.816 16.668C106.204 18.0091 105.625 19.0573 105.078 19.8125C104.544 20.5547 104.049 21.0885 103.594 21.4141C103.151 21.7266 102.747 21.8698 102.383 21.8438C102.018 21.8047 101.706 21.6745 101.445 21.4531C101.198 21.2188 101.003 20.9388 100.859 20.6133C100.716 20.2747 100.638 19.9557 100.625 19.6562C100.534 19.1615 100.527 18.569 100.605 17.8789C100.697 17.1758 100.846 16.4531 101.055 15.7109C101.276 14.9688 101.549 14.2461 101.875 13.543C102.214 12.8268 102.591 12.2083 103.008 11.6875C103.438 11.1667 103.893 10.7826 104.375 10.5352C104.857 10.2747 105.358 10.2292 105.879 10.3984C106.139 10.3724 106.354 10.3854 106.523 10.4375C106.706 10.4766 106.855 10.5677 106.973 10.7109C107.09 10.8542 107.174 11.056 107.227 11.3164C107.279 11.5638 107.318 11.8828 107.344 12.2734C107.318 13.5365 107.35 14.6107 107.441 15.4961C107.546 16.3815 107.663 17.1628 107.793 17.8398C107.923 18.5169 108.047 19.1289 108.164 19.6758C108.294 20.2227 108.372 20.7891 108.398 21.375C108.398 21.5833 108.346 21.7461 108.242 21.8633C108.138 21.9674 108.021 22.0326 107.891 22.0586C107.76 22.0977 107.637 22.0911 107.52 22.0391C107.415 21.987 107.357 21.9089 107.344 21.8047ZM106.211 11.9414C105.898 11.5247 105.56 11.349 105.195 11.4141C104.831 11.4792 104.466 11.707 104.102 12.0977C103.75 12.4753 103.411 12.9766 103.086 13.6016C102.76 14.2135 102.48 14.8711 102.246 15.5742C102.012 16.2773 101.836 16.9805 101.719 17.6836C101.615 18.3737 101.595 18.9857 101.66 19.5195C101.842 20.1055 102.064 20.457 102.324 20.5742C102.585 20.6914 102.865 20.6523 103.164 20.457C103.464 20.2487 103.77 19.9232 104.082 19.4805C104.395 19.0378 104.694 18.5625 104.98 18.0547C105.267 17.5339 105.521 17.0195 105.742 16.5117C105.977 15.9909 106.165 15.5547 106.309 15.2031L106.211 11.9414ZM6.59375 47.25C6.45052 47.5755 6.23568 47.9531 5.94922 48.3828C5.66276 48.8125 5.33073 49.2161 4.95312 49.5938C4.57552 49.9714 4.15885 50.2969 3.70312 50.5703C3.26042 50.8307 2.79818 50.9609 2.31641 50.9609C2.10807 50.9609 1.9388 50.9349 1.80859 50.8828C1.69141 50.8307 1.58073 50.7591 1.47656 50.668C1.38542 50.5638 1.30078 50.4401 1.22266 50.2969C1.14453 50.1536 1.04688 49.9909 0.929688 49.8086C0.8125 49.1576 0.747396 48.4349 0.734375 47.6406C0.734375 46.8464 0.799479 46.0456 0.929688 45.2383C1.07292 44.431 1.28125 43.6628 1.55469 42.9336C1.84115 42.1914 2.20573 41.5599 2.64844 41.0391C3.10417 40.5182 3.64453 40.1471 4.26953 39.9258C4.90755 39.6914 5.64323 39.6719 6.47656 39.8672C6.55469 39.0469 6.5612 38.2266 6.49609 37.4062C6.43099 36.5729 6.37891 35.707 6.33984 34.8086C6.33984 34.6784 6.39844 34.5872 6.51562 34.5352C6.63281 34.4701 6.76302 34.431 6.90625 34.418C7.0625 34.3919 7.20573 34.3854 7.33594 34.3984C7.47917 34.4115 7.57031 34.4375 7.60938 34.4766C7.59635 35.6484 7.58333 36.7227 7.57031 37.6992C7.57031 38.6758 7.57031 39.6003 7.57031 40.4727C7.57031 41.332 7.57031 42.1654 7.57031 42.9727C7.57031 43.7799 7.57031 44.6068 7.57031 45.4531C7.58333 46.2995 7.58984 47.1914 7.58984 48.1289C7.60286 49.0664 7.60938 50.0951 7.60938 51.2148C7.67448 51.4232 7.65495 51.599 7.55078 51.7422C7.45964 51.8854 7.34245 51.9766 7.19922 52.0156C7.05599 52.0547 6.90625 52.0352 6.75 51.957C6.60677 51.8789 6.51562 51.7292 6.47656 51.5078L6.59375 47.25ZM5.65625 40.9414C5.16146 40.8633 4.69271 41 4.25 41.3516C3.82031 41.6901 3.4362 42.1589 3.09766 42.7578C2.75911 43.3438 2.47917 44.0078 2.25781 44.75C2.03646 45.4792 1.89323 46.1888 1.82812 46.8789C1.77604 47.556 1.80859 48.168 1.92578 48.7148C2.04297 49.2617 2.27083 49.6393 2.60938 49.8477C2.9349 49.8477 3.25391 49.737 3.56641 49.5156C3.87891 49.2812 4.17188 48.9883 4.44531 48.6367C4.73177 48.2852 4.99219 47.8945 5.22656 47.4648C5.47396 47.0221 5.6888 46.5924 5.87109 46.1758C6.05339 45.7591 6.1901 45.3815 6.28125 45.043C6.38542 44.6914 6.4375 44.4245 6.4375 44.2422C6.4375 44.099 6.4375 43.8451 6.4375 43.4805C6.4375 43.1159 6.41146 42.7448 6.35938 42.3672C6.32031 41.9896 6.24219 41.6576 6.125 41.3711C6.02083 41.0846 5.86458 40.9414 5.65625 40.9414ZM10.3672 45.7852C10.276 45.8633 10.1133 45.8958 9.87891 45.8828C9.65755 45.8568 9.44922 45.8047 9.25391 45.7266C9.07161 45.6484 8.94792 45.5443 8.88281 45.4141C8.81771 45.2708 8.89583 45.1081 9.11719 44.9258C9.20833 44.8477 9.30599 44.7956 9.41016 44.7695C9.52734 44.7305 9.63802 44.6979 9.74219 44.6719C9.85938 44.6328 9.95052 44.5807 10.0156 44.5156C10.0938 44.4505 10.1393 44.3464 10.1523 44.2031C10.1654 43.6172 10.2109 43.0182 10.2891 42.4062C10.3802 41.7943 10.543 41.2474 10.7773 40.7656C11.0117 40.2839 11.3438 39.8997 11.7734 39.6133C12.2161 39.3268 12.7956 39.2161 13.5117 39.2812C13.7721 39.2812 14.0651 39.3464 14.3906 39.4766C14.7161 39.5938 15.0286 39.7565 15.3281 39.9648C15.6276 40.1602 15.888 40.401 16.1094 40.6875C16.3307 40.9609 16.4674 41.2604 16.5195 41.5859C16.6107 41.7161 16.5586 41.8789 16.3633 42.0742C16.168 42.2695 15.8945 42.4909 15.543 42.7383C15.1914 42.9727 14.7943 43.2135 14.3516 43.4609C13.9089 43.7083 13.4792 43.9427 13.0625 44.1641C12.6589 44.3854 12.3008 44.5807 11.9883 44.75C11.6758 44.9193 11.474 45.0365 11.3828 45.1016C11.4609 45.6094 11.5456 46.1432 11.6367 46.7031C11.7279 47.263 11.8581 47.7773 12.0273 48.2461C12.1966 48.7148 12.4049 49.1055 12.6523 49.418C12.9128 49.7174 13.2383 49.8672 13.6289 49.8672C14.2018 49.9062 14.6901 49.8216 15.0938 49.6133C15.5104 49.4049 15.8555 49.1315 16.1289 48.793C16.4023 48.4544 16.6172 48.0833 16.7734 47.6797C16.9427 47.276 17.0664 46.8919 17.1445 46.5273C17.2357 46.1628 17.2943 45.8568 17.3203 45.6094C17.3594 45.349 17.3919 45.2057 17.418 45.1797C17.5612 45.1016 17.724 45.1016 17.9062 45.1797C18.0885 45.2448 18.1927 45.4336 18.2188 45.7461C18.2318 46.2539 18.1211 46.8333 17.8867 47.4844C17.6523 48.1354 17.3268 48.7344 16.9102 49.2812C16.5065 49.8281 16.0182 50.2708 15.4453 50.6094C14.8854 50.9349 14.2865 51.0456 13.6484 50.9414C12.9844 50.9284 12.457 50.7396 12.0664 50.375C11.6758 49.9974 11.3633 49.5482 11.1289 49.0273C10.9076 48.4935 10.7448 47.9336 10.6406 47.3477C10.5365 46.7617 10.4453 46.2409 10.3672 45.7852ZM15.4844 41.5859C15.0677 41.013 14.6445 40.6484 14.2148 40.4922C13.7852 40.3359 13.3424 40.2904 12.8867 40.3555C12.6133 40.3945 12.3724 40.5247 12.1641 40.7461C11.9557 40.9544 11.7865 41.2279 11.6562 41.5664C11.526 41.8919 11.4349 42.263 11.3828 42.6797C11.3307 43.0833 11.3242 43.5 11.3633 43.9297L15.4844 41.5859ZM12.7109 37.7383C12.3203 37.6602 12.1055 37.5104 12.0664 37.2891C12.0273 37.0677 12.099 36.8203 12.2812 36.5469C12.4766 36.2604 12.737 35.9544 13.0625 35.6289C13.401 35.3034 13.7396 34.9909 14.0781 34.6914C14.3125 34.6914 14.4753 34.7565 14.5664 34.8867C14.6576 35.0169 14.7031 35.1667 14.7031 35.3359V35.4922C14.6771 35.6615 14.5859 35.8503 14.4297 36.0586C14.2865 36.2539 14.1107 36.4557 13.9023 36.6641C13.707 36.8594 13.4987 37.0547 13.2773 37.25C13.056 37.4323 12.8672 37.5951 12.7109 37.7383ZM15.3711 55.4727C15.293 55.3815 15.2669 55.2513 15.293 55.082C15.319 54.9258 15.3711 54.7826 15.4492 54.6523C15.5273 54.5352 15.6315 54.457 15.7617 54.418C15.8789 54.3919 16.0026 54.4701 16.1328 54.6523C16.4974 55.1471 16.888 55.5052 17.3047 55.7266C17.7214 55.9609 18.1185 56.026 18.4961 55.9219C18.8607 55.8177 19.1862 55.5247 19.4727 55.043C19.7591 54.5612 19.9544 53.8516 20.0586 52.9141C20.1367 52.0026 20.1758 51.013 20.1758 49.9453C20.1758 48.8646 20.1628 47.7578 20.1367 46.625C20.1107 45.4922 20.0846 44.3529 20.0586 43.207C20.0456 42.0482 20.0586 40.9414 20.0977 39.8867C20.1367 39.7956 20.2083 39.724 20.3125 39.6719C20.4167 39.6068 20.5273 39.5742 20.6445 39.5742C20.7617 39.5742 20.8724 39.6003 20.9766 39.6523C21.0938 39.6914 21.1719 39.7695 21.2109 39.8867C21.1849 41.0716 21.1784 42.1979 21.1914 43.2656C21.2044 44.3203 21.2174 45.3685 21.2305 46.4102C21.2565 47.4518 21.263 48.513 21.25 49.5938C21.25 50.6615 21.2109 51.8073 21.1328 53.0312C21.1458 53.4609 21.0807 53.9036 20.9375 54.3594C20.7943 54.8151 20.5924 55.2318 20.332 55.6094C20.0716 55.987 19.7656 56.2995 19.4141 56.5469C19.0495 56.8073 18.6523 56.957 18.2227 56.9961C17.793 57.0352 17.3372 56.9375 16.8555 56.7031C16.3737 56.4818 15.8789 56.0716 15.3711 55.4727ZM20.4688 37.5234C20.2344 37.4844 20.0846 37.4062 20.0195 37.2891C19.9544 37.1589 19.9479 37.0286 20 36.8984C20.0651 36.7552 20.1628 36.6315 20.293 36.5273C20.4362 36.4232 20.5924 36.3776 20.7617 36.3906C20.9049 36.3906 20.9896 36.4622 21.0156 36.6055C21.0417 36.7487 21.0547 36.8594 21.0547 36.9375C21.0547 37.3281 20.8594 37.5234 20.4688 37.5234ZM29.7891 50.8047C29.6068 50.5312 29.4896 50.1732 29.4375 49.7305C29.3984 49.2878 29.3724 48.8255 29.3594 48.3438C29.3594 47.849 29.3594 47.3672 29.3594 46.8984C29.3724 46.4167 29.3398 46.0065 29.2617 45.668C28.6497 47.0091 28.0703 48.0573 27.5234 48.8125C26.9896 49.5547 26.4948 50.0885 26.0391 50.4141C25.5964 50.7266 25.1927 50.8698 24.8281 50.8438C24.4635 50.8047 24.151 50.6745 23.8906 50.4531C23.6432 50.2188 23.4479 49.9388 23.3047 49.6133C23.1615 49.2747 23.0833 48.9557 23.0703 48.6562C22.9792 48.1615 22.9727 47.569 23.0508 46.8789C23.1419 46.1758 23.2917 45.4531 23.5 44.7109C23.7214 43.9688 23.9948 43.2461 24.3203 42.543C24.6589 41.8268 25.0365 41.2083 25.4531 40.6875C25.8828 40.1667 26.3385 39.7826 26.8203 39.5352C27.3021 39.2747 27.8034 39.2292 28.3242 39.3984C28.5846 39.3724 28.7995 39.3854 28.9688 39.4375C29.151 39.4766 29.3008 39.5677 29.418 39.7109C29.5352 39.8542 29.6198 40.056 29.6719 40.3164C29.724 40.5638 29.763 40.8828 29.7891 41.2734C29.763 42.5365 29.7956 43.6107 29.8867 44.4961C29.9909 45.3815 30.1081 46.1628 30.2383 46.8398C30.3685 47.5169 30.4922 48.1289 30.6094 48.6758C30.7396 49.2227 30.8177 49.7891 30.8438 50.375C30.8438 50.5833 30.7917 50.7461 30.6875 50.8633C30.5833 50.9674 30.4661 51.0326 30.3359 51.0586C30.2057 51.0977 30.082 51.0911 29.9648 51.0391C29.8607 50.987 29.8021 50.9089 29.7891 50.8047ZM28.6562 40.9414C28.3438 40.5247 28.0052 40.349 27.6406 40.4141C27.276 40.4792 26.9115 40.707 26.5469 41.0977C26.1953 41.4753 25.8568 41.9766 25.5312 42.6016C25.2057 43.2135 24.9258 43.8711 24.6914 44.5742C24.457 45.2773 24.2812 45.9805 24.1641 46.6836C24.0599 47.3737 24.0404 47.9857 24.1055 48.5195C24.2878 49.1055 24.5091 49.457 24.7695 49.5742C25.0299 49.6914 25.3099 49.6523 25.6094 49.457C25.9089 49.2487 26.2148 48.9232 26.5273 48.4805C26.8398 48.0378 27.1393 47.5625 27.4258 47.0547C27.7122 46.5339 27.9661 46.0195 28.1875 45.5117C28.4219 44.9909 28.6107 44.5547 28.7539 44.2031L28.6562 40.9414ZM27.0742 38.4805C26.931 38.3242 26.7617 38.1484 26.5664 37.9531C26.3841 37.7448 26.2018 37.5299 26.0195 37.3086C25.8372 37.0872 25.6745 36.8659 25.5312 36.6445C25.401 36.4232 25.3294 36.2214 25.3164 36.0391C25.1602 35.8568 25.1276 35.6745 25.2188 35.4922C25.3229 35.3099 25.5378 35.2057 25.8633 35.1797C26.1628 35.5052 26.4557 35.8438 26.7422 36.1953C27.0417 36.5469 27.2695 36.8789 27.4258 37.1914C27.5951 37.4909 27.6667 37.7578 27.6406 37.9922C27.6146 38.2266 27.4258 38.3893 27.0742 38.4805ZM44.1328 45.7852C44.0417 45.8633 43.8789 45.8958 43.6445 45.8828C43.4232 45.8568 43.2148 45.8047 43.0195 45.7266C42.8372 45.6484 42.7135 45.5443 42.6484 45.4141C42.5833 45.2708 42.6615 45.1081 42.8828 44.9258C42.974 44.8477 43.0716 44.7956 43.1758 44.7695C43.293 44.7305 43.4036 44.6979 43.5078 44.6719C43.625 44.6328 43.7161 44.5807 43.7812 44.5156C43.8594 44.4505 43.9049 44.3464 43.918 44.2031C43.931 43.6172 43.9766 43.0182 44.0547 42.4062C44.1458 41.7943 44.3086 41.2474 44.543 40.7656C44.7773 40.2839 45.1094 39.8997 45.5391 39.6133C45.9818 39.3268 46.5612 39.2161 47.2773 39.2812C47.5378 39.2812 47.8307 39.3464 48.1562 39.4766C48.4818 39.5938 48.7943 39.7565 49.0938 39.9648C49.3932 40.1602 49.6536 40.401 49.875 40.6875C50.0964 40.9609 50.2331 41.2604 50.2852 41.5859C50.3763 41.7161 50.3242 41.8789 50.1289 42.0742C49.9336 42.2695 49.6602 42.4909 49.3086 42.7383C48.957 42.9727 48.5599 43.2135 48.1172 43.4609C47.6745 43.7083 47.2448 43.9427 46.8281 44.1641C46.4245 44.3854 46.0664 44.5807 45.7539 44.75C45.4414 44.9193 45.2396 45.0365 45.1484 45.1016C45.2266 45.6094 45.3112 46.1432 45.4023 46.7031C45.4935 47.263 45.6237 47.7773 45.793 48.2461C45.9622 48.7148 46.1706 49.1055 46.418 49.418C46.6784 49.7174 47.0039 49.8672 47.3945 49.8672C47.9674 49.9062 48.4557 49.8216 48.8594 49.6133C49.276 49.4049 49.6211 49.1315 49.8945 48.793C50.168 48.4544 50.3828 48.0833 50.5391 47.6797C50.7083 47.276 50.832 46.8919 50.9102 46.5273C51.0013 46.1628 51.0599 45.8568 51.0859 45.6094C51.125 45.349 51.1576 45.2057 51.1836 45.1797C51.3268 45.1016 51.4896 45.1016 51.6719 45.1797C51.8542 45.2448 51.9583 45.4336 51.9844 45.7461C51.9974 46.2539 51.8867 46.8333 51.6523 47.4844C51.418 48.1354 51.0924 48.7344 50.6758 49.2812C50.2721 49.8281 49.7839 50.2708 49.2109 50.6094C48.651 50.9349 48.0521 51.0456 47.4141 50.9414C46.75 50.9284 46.2227 50.7396 45.832 50.375C45.4414 49.9974 45.1289 49.5482 44.8945 49.0273C44.6732 48.4935 44.5104 47.9336 44.4062 47.3477C44.3021 46.7617 44.2109 46.2409 44.1328 45.7852ZM49.25 41.5859C48.8333 41.013 48.4102 40.6484 47.9805 40.4922C47.5508 40.3359 47.1081 40.2904 46.6523 40.3555C46.3789 40.3945 46.138 40.5247 45.9297 40.7461C45.7214 40.9544 45.5521 41.2279 45.4219 41.5664C45.2917 41.8919 45.2005 42.263 45.1484 42.6797C45.0964 43.0833 45.0898 43.5 45.1289 43.9297L49.25 41.5859ZM46.4766 37.7383C46.0859 37.6602 45.8711 37.5104 45.832 37.2891C45.793 37.0677 45.8646 36.8203 46.0469 36.5469C46.2422 36.2604 46.5026 35.9544 46.8281 35.6289C47.1667 35.3034 47.5052 34.9909 47.8438 34.6914C48.0781 34.6914 48.2409 34.7565 48.332 34.8867C48.4232 35.0169 48.4688 35.1667 48.4688 35.3359V35.4922C48.4427 35.6615 48.3516 35.8503 48.1953 36.0586C48.0521 36.2539 47.8763 36.4557 47.668 36.6641C47.4727 36.8594 47.2643 37.0547 47.043 37.25C46.8216 37.4323 46.6328 37.5951 46.4766 37.7383ZM54.6836 41.7227L52.8867 42.3281C52.7435 42.2891 52.6263 42.2174 52.5352 42.1133C52.431 42.0091 52.3594 41.8984 52.3203 41.7812C52.2812 41.6641 52.2747 41.5534 52.3008 41.4492C52.3138 41.3451 52.3659 41.2669 52.457 41.2148L54.6836 40.375L54.6445 34.8477C54.6836 34.6784 54.7682 34.5547 54.8984 34.4766C55.0286 34.3984 55.1589 34.3659 55.2891 34.3789C55.4323 34.3789 55.5625 34.4245 55.6797 34.5156C55.7969 34.5938 55.875 34.6979 55.9141 34.8281C55.888 35.2318 55.8685 35.6615 55.8555 36.1172C55.8424 36.5599 55.8294 37.0091 55.8164 37.4648C55.8164 37.9076 55.8229 38.3438 55.8359 38.7734C55.849 39.1901 55.875 39.5742 55.9141 39.9258L58.9414 38.6953C59.1237 38.6432 59.2669 38.6628 59.3711 38.7539C59.4753 38.832 59.5404 38.9427 59.5664 39.0859C59.6055 39.2161 59.599 39.3464 59.5469 39.4766C59.4948 39.6068 59.4036 39.6979 59.2734 39.75L55.9141 41.2734C55.9141 41.4036 55.9206 41.7161 55.9336 42.2109C55.9466 42.6927 55.9596 43.2656 55.9727 43.9297C55.9857 44.5938 55.9987 45.3034 56.0117 46.0586C56.0247 46.8138 56.0312 47.5234 56.0312 48.1875C56.0443 48.8516 56.0508 49.431 56.0508 49.9258C56.0638 50.4076 56.0703 50.7135 56.0703 50.8438C56.0443 51.2734 55.9206 51.4883 55.6992 51.4883C55.4779 51.4883 55.237 51.3841 54.9766 51.1758L54.6836 41.7227ZM60.0586 45.7852C59.9674 45.8633 59.8047 45.8958 59.5703 45.8828C59.349 45.8568 59.1406 45.8047 58.9453 45.7266C58.763 45.6484 58.6393 45.5443 58.5742 45.4141C58.5091 45.2708 58.5872 45.1081 58.8086 44.9258C58.8997 44.8477 58.9974 44.7956 59.1016 44.7695C59.2188 44.7305 59.3294 44.6979 59.4336 44.6719C59.5508 44.6328 59.6419 44.5807 59.707 44.5156C59.7852 44.4505 59.8307 44.3464 59.8438 44.2031C59.8568 43.6172 59.9023 43.0182 59.9805 42.4062C60.0716 41.7943 60.2344 41.2474 60.4688 40.7656C60.7031 40.2839 61.0352 39.8997 61.4648 39.6133C61.9076 39.3268 62.487 39.2161 63.2031 39.2812C63.4635 39.2812 63.7565 39.3464 64.082 39.4766C64.4076 39.5938 64.7201 39.7565 65.0195 39.9648C65.319 40.1602 65.5794 40.401 65.8008 40.6875C66.0221 40.9609 66.1589 41.2604 66.2109 41.5859C66.3021 41.7161 66.25 41.8789 66.0547 42.0742C65.8594 42.2695 65.5859 42.4909 65.2344 42.7383C64.8828 42.9727 64.4857 43.2135 64.043 43.4609C63.6003 43.7083 63.1706 43.9427 62.7539 44.1641C62.3503 44.3854 61.9922 44.5807 61.6797 44.75C61.3672 44.9193 61.1654 45.0365 61.0742 45.1016C61.1523 45.6094 61.237 46.1432 61.3281 46.7031C61.4193 47.263 61.5495 47.7773 61.7188 48.2461C61.888 48.7148 62.0964 49.1055 62.3438 49.418C62.6042 49.7174 62.9297 49.8672 63.3203 49.8672C63.8932 49.9062 64.3815 49.8216 64.7852 49.6133C65.2018 49.4049 65.5469 49.1315 65.8203 48.793C66.0938 48.4544 66.3086 48.0833 66.4648 47.6797C66.6341 47.276 66.7578 46.8919 66.8359 46.5273C66.9271 46.1628 66.9857 45.8568 67.0117 45.6094C67.0508 45.349 67.0833 45.2057 67.1094 45.1797C67.2526 45.1016 67.4154 45.1016 67.5977 45.1797C67.7799 45.2448 67.8841 45.4336 67.9102 45.7461C67.9232 46.2539 67.8125 46.8333 67.5781 47.4844C67.3438 48.1354 67.0182 48.7344 66.6016 49.2812C66.1979 49.8281 65.7096 50.2708 65.1367 50.6094C64.5768 50.9349 63.9779 51.0456 63.3398 50.9414C62.6758 50.9284 62.1484 50.7396 61.7578 50.375C61.3672 49.9974 61.0547 49.5482 60.8203 49.0273C60.599 48.4935 60.4362 47.9336 60.332 47.3477C60.2279 46.7617 60.1367 46.2409 60.0586 45.7852ZM65.1758 41.5859C64.7591 41.013 64.3359 40.6484 63.9062 40.4922C63.4766 40.3359 63.0339 40.2904 62.5781 40.3555C62.3047 40.3945 62.0638 40.5247 61.8555 40.7461C61.6471 40.9544 61.4779 41.2279 61.3477 41.5664C61.2174 41.8919 61.1263 42.263 61.0742 42.6797C61.0221 43.0833 61.0156 43.5 61.0547 43.9297L65.1758 41.5859ZM62.4023 37.7383C62.0117 37.6602 61.7969 37.5104 61.7578 37.2891C61.7188 37.0677 61.7904 36.8203 61.9727 36.5469C62.168 36.2604 62.4284 35.9544 62.7539 35.6289C63.0924 35.3034 63.431 34.9909 63.7695 34.6914C64.0039 34.6914 64.1667 34.7565 64.2578 34.8867C64.349 35.0169 64.3945 35.1667 64.3945 35.3359V35.4922C64.3685 35.6615 64.2773 35.8503 64.1211 36.0586C63.9779 36.2539 63.8021 36.4557 63.5938 36.6641C63.3984 36.8594 63.1901 37.0547 62.9688 37.25C62.7474 37.4323 62.5586 37.5951 62.4023 37.7383ZM86.3164 39.4766C86.3294 39.3984 86.3685 39.3138 86.4336 39.2227C86.5117 39.1185 86.6029 39.0469 86.707 39.0078C86.8242 38.9688 86.9479 38.9883 87.0781 39.0664C87.2214 39.1315 87.3646 39.2878 87.5078 39.5352C87.4557 40.5378 87.3906 41.5404 87.3125 42.543C87.2474 43.5326 87.2148 44.5156 87.2148 45.4922C87.2279 46.4557 87.293 47.4128 87.4102 48.3633C87.5404 49.3138 87.7682 50.2383 88.0938 51.1367C88.1068 51.2279 88.0742 51.306 87.9961 51.3711C87.918 51.4492 87.8138 51.5013 87.6836 51.5273C87.5534 51.5664 87.4232 51.5794 87.293 51.5664C87.1628 51.5534 87.0586 51.4948 86.9805 51.3906L86.2969 48.1289C86.2448 48.2982 86.0951 48.5456 85.8477 48.8711C85.6133 49.1966 85.3333 49.5286 85.0078 49.8672C84.6953 50.1927 84.3698 50.4857 84.0312 50.7461C83.6927 50.9935 83.3997 51.1237 83.1523 51.1367C82.5404 51.1758 82.0586 50.9609 81.707 50.4922C81.3555 50.0234 81.0951 49.4115 80.9258 48.6562C80.7695 47.888 80.6784 47.0352 80.6523 46.0977C80.6263 45.1602 80.6263 44.2487 80.6523 43.3633C80.6784 42.4779 80.7109 41.6771 80.75 40.9609C80.7891 40.2448 80.7891 39.7174 80.75 39.3789C80.7891 39.2747 80.8542 39.1966 80.9453 39.1445C81.0495 39.0924 81.1602 39.0664 81.2773 39.0664C81.3945 39.0664 81.5052 39.0924 81.6094 39.1445C81.7266 39.1966 81.8112 39.2747 81.8633 39.3789C81.8893 39.8216 81.8958 40.375 81.8828 41.0391C81.8698 41.7031 81.8568 42.4128 81.8438 43.168C81.8307 43.9102 81.8307 44.6589 81.8438 45.4141C81.8698 46.1693 81.9219 46.8594 82 47.4844C82.0781 48.0964 82.1953 48.6107 82.3516 49.0273C82.5208 49.431 82.7552 49.6589 83.0547 49.7109C83.276 49.7109 83.4974 49.6393 83.7188 49.4961C83.9401 49.3529 84.1615 49.1706 84.3828 48.9492C84.6042 48.7148 84.8125 48.4609 85.0078 48.1875C85.2031 47.901 85.3724 47.6276 85.5156 47.3672C85.6589 47.0938 85.776 46.8464 85.8672 46.625C85.9583 46.4036 86.0104 46.2344 86.0234 46.1172C86.0365 45.9609 86.056 45.7135 86.082 45.375C86.1081 45.0234 86.1276 44.6328 86.1406 44.2031C86.1667 43.7604 86.1862 43.2917 86.1992 42.7969C86.2253 42.3021 86.2448 41.8398 86.2578 41.4102C86.2839 40.9674 86.2969 40.5768 86.2969 40.2383C86.3099 39.8867 86.3164 39.6328 86.3164 39.4766ZM91.5742 41.7227L89.7773 42.3281C89.6341 42.2891 89.5169 42.2174 89.4258 42.1133C89.3216 42.0091 89.25 41.8984 89.2109 41.7812C89.1719 41.6641 89.1654 41.5534 89.1914 41.4492C89.2044 41.3451 89.2565 41.2669 89.3477 41.2148L91.5742 40.375L91.5352 34.8477C91.5742 34.6784 91.6589 34.5547 91.7891 34.4766C91.9193 34.3984 92.0495 34.3659 92.1797 34.3789C92.3229 34.3789 92.4531 34.4245 92.5703 34.5156C92.6875 34.5938 92.7656 34.6979 92.8047 34.8281C92.7786 35.2318 92.7591 35.6615 92.7461 36.1172C92.7331 36.5599 92.7201 37.0091 92.707 37.4648C92.707 37.9076 92.7135 38.3438 92.7266 38.7734C92.7396 39.1901 92.7656 39.5742 92.8047 39.9258L95.832 38.6953C96.0143 38.6432 96.1576 38.6628 96.2617 38.7539C96.3659 38.832 96.431 38.9427 96.457 39.0859C96.4961 39.2161 96.4896 39.3464 96.4375 39.4766C96.3854 39.6068 96.2943 39.6979 96.1641 39.75L92.8047 41.2734C92.8047 41.4036 92.8112 41.7161 92.8242 42.2109C92.8372 42.6927 92.8503 43.2656 92.8633 43.9297C92.8763 44.5938 92.8893 45.3034 92.9023 46.0586C92.9154 46.8138 92.9219 47.5234 92.9219 48.1875C92.9349 48.8516 92.9414 49.431 92.9414 49.9258C92.9544 50.4076 92.9609 50.7135 92.9609 50.8438C92.9349 51.2734 92.8112 51.4883 92.5898 51.4883C92.3685 51.4883 92.1276 51.3841 91.8672 51.1758L91.5742 41.7227ZM97.3789 39.0078C97.457 38.9688 97.5482 38.9362 97.6523 38.9102C97.7565 38.8841 97.8542 38.8711 97.9453 38.8711C98.0495 38.8711 98.1471 38.8906 98.2383 38.9297C98.3294 38.9688 98.401 39.0404 98.4531 39.1445C98.4531 39.9909 98.4596 40.9089 98.4727 41.8984C98.4987 42.875 98.5247 43.8711 98.5508 44.8867C98.5898 45.8893 98.6224 46.8789 98.6484 47.8555C98.6745 48.832 98.7005 49.737 98.7266 50.5703C98.7396 50.7656 98.6875 50.9154 98.5703 51.0195C98.4531 51.1237 98.3229 51.1758 98.1797 51.1758C98.0495 51.1758 97.9258 51.1237 97.8086 51.0195C97.6914 50.9284 97.6328 50.7786 97.6328 50.5703L97.3789 39.0078ZM97.1445 35.0234C97.1445 34.8542 97.2031 34.7435 97.3203 34.6914C97.4375 34.6263 97.5677 34.5938 97.7109 34.5938C97.9974 34.5938 98.1732 34.6914 98.2383 34.8867C98.3164 35.069 98.3555 35.2839 98.3555 35.5312C98.2773 35.6875 98.1732 35.7982 98.043 35.8633C97.9128 35.9284 97.776 35.9414 97.6328 35.9023C97.5026 35.8633 97.3854 35.7721 97.2812 35.6289C97.1901 35.4857 97.1445 35.2839 97.1445 35.0234ZM100.898 34.7109C100.977 34.6589 101.055 34.6068 101.133 34.5547C101.224 34.4896 101.315 34.4505 101.406 34.4375C101.497 34.4115 101.576 34.418 101.641 34.457C101.719 34.4961 101.784 34.5807 101.836 34.7109L101.953 50.8242C101.888 50.9544 101.803 51.0391 101.699 51.0781C101.595 51.1302 101.491 51.1432 101.387 51.1172C101.283 51.1042 101.185 51.0651 101.094 51C101.016 50.9349 100.964 50.8568 100.938 50.7656L100.898 34.7109ZM104.34 39.0078C104.418 38.9688 104.509 38.9362 104.613 38.9102C104.717 38.8841 104.815 38.8711 104.906 38.8711C105.01 38.8711 105.108 38.8906 105.199 38.9297C105.29 38.9688 105.362 39.0404 105.414 39.1445C105.414 39.9909 105.421 40.9089 105.434 41.8984C105.46 42.875 105.486 43.8711 105.512 44.8867C105.551 45.8893 105.583 46.8789 105.609 47.8555C105.635 48.832 105.661 49.737 105.688 50.5703C105.701 50.7656 105.648 50.9154 105.531 51.0195C105.414 51.1237 105.284 51.1758 105.141 51.1758C105.01 51.1758 104.887 51.1237 104.77 51.0195C104.652 50.9284 104.594 50.7786 104.594 50.5703L104.34 39.0078ZM104.105 35.0234C104.105 34.8542 104.164 34.7435 104.281 34.6914C104.398 34.6263 104.529 34.5938 104.672 34.5938C104.958 34.5938 105.134 34.6914 105.199 34.8867C105.277 35.069 105.316 35.2839 105.316 35.5312C105.238 35.6875 105.134 35.7982 105.004 35.8633C104.874 35.9284 104.737 35.9414 104.594 35.9023C104.464 35.8633 104.346 35.7721 104.242 35.6289C104.151 35.4857 104.105 35.2839 104.105 35.0234ZM108.055 49.5938C108.302 49.7891 108.602 49.8932 108.953 49.9062C109.318 49.9193 109.695 49.8737 110.086 49.7695C110.49 49.6523 110.893 49.4896 111.297 49.2812C111.714 49.0599 112.091 48.819 112.43 48.5586C112.781 48.2982 113.081 48.0247 113.328 47.7383C113.589 47.4388 113.764 47.1589 113.855 46.8984C113.947 46.625 113.94 46.3776 113.836 46.1562C113.732 45.9349 113.497 45.7591 113.133 45.6289C112.469 45.7852 111.805 45.9089 111.141 46C110.477 46.0911 109.878 46.0911 109.344 46C108.823 45.9089 108.4 45.694 108.074 45.3555C107.749 45.0169 107.599 44.4961 107.625 43.793C107.664 43.1159 107.846 42.4844 108.172 41.8984C108.51 41.2995 108.934 40.7917 109.441 40.375C109.962 39.9583 110.535 39.6393 111.16 39.418C111.798 39.1966 112.443 39.1055 113.094 39.1445C113.224 39.1576 113.341 39.1706 113.445 39.1836C113.562 39.1836 113.667 39.2031 113.758 39.2422C113.849 39.2812 113.914 39.3398 113.953 39.418C114.005 39.4961 114.025 39.6133 114.012 39.7695C113.999 39.9648 113.927 40.1211 113.797 40.2383C113.667 40.3555 113.491 40.401 113.27 40.375C112.501 40.2188 111.811 40.2513 111.199 40.4727C110.587 40.694 110.079 41.0065 109.676 41.4102C109.272 41.8008 108.986 42.2435 108.816 42.7383C108.647 43.2331 108.621 43.6823 108.738 44.0859C108.986 44.5547 109.305 44.8542 109.695 44.9844C110.099 45.1016 110.522 45.1406 110.965 45.1016C111.421 45.0625 111.883 44.9974 112.352 44.9062C112.82 44.8021 113.243 44.7695 113.621 44.8086C113.999 44.8346 114.311 44.9779 114.559 45.2383C114.806 45.4857 114.943 45.9479 114.969 46.625C114.956 47.0547 114.812 47.4714 114.539 47.875C114.266 48.2656 113.914 48.6367 113.484 48.9883C113.068 49.3268 112.599 49.6393 112.078 49.9258C111.557 50.1992 111.036 50.4271 110.516 50.6094C110.008 50.7917 109.526 50.9154 109.07 50.9805C108.628 51.0456 108.27 51.0391 107.996 50.9609C107.697 50.7005 107.54 50.4466 107.527 50.1992C107.514 49.9388 107.69 49.737 108.055 49.5938ZM117.414 45.7852C117.323 45.8633 117.16 45.8958 116.926 45.8828C116.704 45.8568 116.496 45.8047 116.301 45.7266C116.118 45.6484 115.995 45.5443 115.93 45.4141C115.865 45.2708 115.943 45.1081 116.164 44.9258C116.255 44.8477 116.353 44.7956 116.457 44.7695C116.574 44.7305 116.685 44.6979 116.789 44.6719C116.906 44.6328 116.997 44.5807 117.062 44.5156C117.141 44.4505 117.186 44.3464 117.199 44.2031C117.212 43.6172 117.258 43.0182 117.336 42.4062C117.427 41.7943 117.59 41.2474 117.824 40.7656C118.059 40.2839 118.391 39.8997 118.82 39.6133C119.263 39.3268 119.842 39.2161 120.559 39.2812C120.819 39.2812 121.112 39.3464 121.438 39.4766C121.763 39.5938 122.076 39.7565 122.375 39.9648C122.674 40.1602 122.935 40.401 123.156 40.6875C123.378 40.9609 123.514 41.2604 123.566 41.5859C123.658 41.7161 123.605 41.8789 123.41 42.0742C123.215 42.2695 122.941 42.4909 122.59 42.7383C122.238 42.9727 121.841 43.2135 121.398 43.4609C120.956 43.7083 120.526 43.9427 120.109 44.1641C119.706 44.3854 119.348 44.5807 119.035 44.75C118.723 44.9193 118.521 45.0365 118.43 45.1016C118.508 45.6094 118.592 46.1432 118.684 46.7031C118.775 47.263 118.905 47.7773 119.074 48.2461C119.243 48.7148 119.452 49.1055 119.699 49.418C119.96 49.7174 120.285 49.8672 120.676 49.8672C121.249 49.9062 121.737 49.8216 122.141 49.6133C122.557 49.4049 122.902 49.1315 123.176 48.793C123.449 48.4544 123.664 48.0833 123.82 47.6797C123.99 47.276 124.113 46.8919 124.191 46.5273C124.283 46.1628 124.341 45.8568 124.367 45.6094C124.406 45.349 124.439 45.2057 124.465 45.1797C124.608 45.1016 124.771 45.1016 124.953 45.1797C125.135 45.2448 125.24 45.4336 125.266 45.7461C125.279 46.2539 125.168 46.8333 124.934 47.4844C124.699 48.1354 124.374 48.7344 123.957 49.2812C123.553 49.8281 123.065 50.2708 122.492 50.6094C121.932 50.9349 121.333 51.0456 120.695 50.9414C120.031 50.9284 119.504 50.7396 119.113 50.375C118.723 49.9974 118.41 49.5482 118.176 49.0273C117.954 48.4935 117.792 47.9336 117.688 47.3477C117.583 46.7617 117.492 46.2409 117.414 45.7852ZM122.531 41.5859C122.115 41.013 121.691 40.6484 121.262 40.4922C120.832 40.3359 120.389 40.2904 119.934 40.3555C119.66 40.3945 119.419 40.5247 119.211 40.7461C119.003 40.9544 118.833 41.2279 118.703 41.5664C118.573 41.8919 118.482 42.263 118.43 42.6797C118.378 43.0833 118.371 43.5 118.41 43.9297L122.531 41.5859ZM119.758 37.7383C119.367 37.6602 119.152 37.5104 119.113 37.2891C119.074 37.0677 119.146 36.8203 119.328 36.5469C119.523 36.2604 119.784 35.9544 120.109 35.6289C120.448 35.3034 120.786 34.9909 121.125 34.6914C121.359 34.6914 121.522 34.7565 121.613 34.8867C121.704 35.0169 121.75 35.1667 121.75 35.3359V35.4922C121.724 35.6615 121.633 35.8503 121.477 36.0586C121.333 36.2539 121.158 36.4557 120.949 36.6641C120.754 36.8594 120.546 37.0547 120.324 37.25C120.103 37.4323 119.914 37.5951 119.758 37.7383Z" fill="black"/>
<path d="M109.5 65.999C118.5 72.499 123.623 75.6311 133.397 74.6538C139.944 73.999 146.932 69.7926 150.043 67.892C151.708 66.8744 154 65.499 156 63.499" stroke="black" stroke-linecap="round" stroke-linejoin="round"/>
<path d="M153 60C154.5 60.0288 160.41 59.8741 159.417 62.6554C158.62 64.8863 157.236 67.4434 156.236 69.4434" stroke="black" stroke-linecap="round" stroke-linejoin="round"/>
</svg>
