<svg width="207" height="71" viewBox="0 0 207 71" fill="none" xmlns="http://www.w3.org/2000/svg">
<path d="M94.9217 23.9415C95.1256 21.1622 95.2822 18.8494 95.3915 17.0029C95.5019 15.1435 95.5876 13.6413 95.6485 12.4964C95.7106 11.3386 95.7525 10.4861 95.7742 9.93908C95.7971 9.37904 95.8159 9.01471 95.8306 8.84609C95.8477 8.65152 95.9132 8.5004 96.0271 8.39274C96.1541 8.28621 96.2819 8.24511 96.4104 8.26943C96.5402 8.28077 96.6571 8.3629 96.7614 8.5158C96.8668 8.65572 96.9129 8.87542 96.8998 9.1749L96.2747 23.4913L104.876 22.44C105.745 22.5161 105.9 22.9022 105.343 23.5985L95.3933 24.8258C95.0301 24.794 94.8729 24.4993 94.9217 23.9415ZM107.059 20.6117C106.961 20.6815 106.796 20.6998 106.564 20.6664C106.346 20.6211 106.143 20.5511 105.955 20.4563C105.78 20.3625 105.666 20.248 105.612 20.1126C105.56 19.9642 105.652 19.8089 105.889 19.6466C105.986 19.5767 106.088 19.5333 106.194 19.5165C106.314 19.4878 106.427 19.465 106.533 19.4481C106.653 19.4194 106.749 19.3755 106.819 19.3163C106.903 19.2583 106.957 19.1585 106.983 19.0169C107.047 18.4343 107.144 17.8416 107.276 17.2388C107.42 16.6371 107.629 16.1065 107.905 15.647C108.18 15.1875 108.545 14.8337 108.998 14.5858C109.464 14.339 110.051 14.2793 110.758 14.4066C111.018 14.4293 111.304 14.5196 111.617 14.6777C111.931 14.8228 112.228 15.0122 112.508 15.2459C112.79 15.4665 113.028 15.7292 113.223 16.0339C113.42 16.3255 113.53 16.6358 113.554 16.9646C113.633 17.1023 113.567 17.2599 113.356 17.4374C113.144 17.615 112.852 17.8117 112.48 18.0275C112.11 18.2303 111.693 18.4357 111.231 18.6435C110.768 18.8514 110.32 19.0474 109.885 19.2316C109.464 19.417 109.09 19.5803 108.764 19.7217C108.438 19.8631 108.227 19.9623 108.13 20.0192C108.164 20.5319 108.202 21.0711 108.244 21.6368C108.286 22.2025 108.37 22.7262 108.498 23.2079C108.626 23.6896 108.799 24.0969 109.019 24.4298C109.252 24.7508 109.563 24.9284 109.952 24.9624C110.52 25.0513 111.014 25.0095 111.434 24.8372C111.867 24.6659 112.235 24.4236 112.537 24.1102C112.838 23.7968 113.085 23.4458 113.276 23.0573C113.479 22.67 113.636 22.2981 113.746 21.9417C113.868 21.5864 113.953 21.2867 114.001 21.0425C114.062 20.7865 114.107 20.6467 114.136 20.623C114.285 20.5577 114.447 20.5718 114.622 20.6656C114.798 20.7463 114.885 20.9435 114.884 21.257C114.853 21.7641 114.692 22.3316 114.402 22.9598C114.111 23.5879 113.735 24.1562 113.272 24.6647C112.822 25.1743 112.297 25.5728 111.697 25.8601C111.111 26.1356 110.505 26.1936 109.878 26.0343C109.218 25.9634 108.709 25.7294 108.352 25.3321C107.995 24.9219 107.723 24.4472 107.535 23.9079C107.361 23.3568 107.248 22.7848 107.195 22.192C107.142 21.5992 107.097 21.0725 107.059 20.6117ZM112.523 16.8744C112.157 16.2674 111.768 15.8673 111.353 15.6742C110.939 15.4811 110.502 15.3971 110.042 15.4222C109.766 15.4373 109.515 15.546 109.288 15.7484C109.062 15.9378 108.87 16.1954 108.711 16.5213C108.553 16.8342 108.429 17.196 108.341 17.6065C108.254 18.0041 108.211 18.4186 108.213 18.8501L112.523 16.8744ZM116.323 25.2453C116.553 25.4614 116.842 25.5913 117.191 25.6349C117.553 25.6797 117.933 25.6672 118.331 25.5975C118.744 25.5159 119.16 25.3889 119.58 25.2166C120.015 25.0324 120.412 24.8253 120.772 24.5954C121.145 24.3666 121.467 24.1203 121.738 23.8565C122.024 23.5809 122.223 23.3173 122.337 23.0658C122.451 22.8014 122.466 22.5543 122.382 22.3248C122.297 22.0952 122.079 21.8996 121.727 21.7381C121.052 21.8359 120.38 21.9013 119.71 21.9342C119.041 21.9671 118.444 21.9149 117.92 21.7776C117.41 21.6414 117.007 21.3905 116.712 21.0249C116.417 20.6592 116.313 20.1273 116.401 19.4291C116.499 18.758 116.735 18.1448 117.111 17.5895C117.5 17.0223 117.966 16.5533 118.508 16.1825C119.063 15.8128 119.662 15.5449 120.304 15.3789C120.958 15.214 121.609 15.1794 122.254 15.275C122.382 15.2994 122.498 15.3225 122.6 15.3446C122.717 15.3548 122.819 15.3833 122.907 15.4302C122.994 15.4771 123.054 15.5411 123.086 15.6223C123.131 15.7047 123.14 15.8231 123.114 15.9777C123.084 16.1711 122.999 16.3205 122.859 16.4259C122.719 16.5313 122.54 16.5614 122.322 16.5161C121.57 16.2935 120.88 16.2658 120.251 16.433C119.622 16.6002 119.089 16.8672 118.651 17.2341C118.215 17.5881 117.891 18.0042 117.679 18.4823C117.468 18.9605 117.403 19.4057 117.484 19.818C117.69 20.3066 117.981 20.6327 118.359 20.7965C118.751 20.9484 119.169 21.0242 119.614 21.0238C120.071 21.0247 120.537 21.0001 121.012 20.9501C121.488 20.8872 121.913 20.8917 122.285 20.9635C122.659 21.0224 122.958 21.1923 123.182 21.4733C123.407 21.7413 123.503 22.2137 123.47 22.8905C123.419 23.3174 123.24 23.72 122.933 24.0982C122.626 24.4636 122.244 24.8026 121.785 25.1154C121.34 25.4163 120.846 25.6868 120.302 25.9267C119.76 26.1537 119.221 26.3353 118.686 26.4716C118.164 26.6089 117.674 26.6901 117.214 26.7153C116.767 26.7415 116.411 26.7038 116.146 26.6022C115.87 26.3167 115.736 26.0501 115.745 25.8025C115.755 25.5419 115.947 25.3562 116.323 25.2453ZM136.194 28.3562C136.216 27.2079 136.254 26.1002 136.308 25.0332C136.375 23.9673 136.456 22.8176 136.551 21.5842C136.646 20.3508 136.754 18.9682 136.875 17.4365C136.996 15.9047 137.127 14.1059 137.269 12.0401C137.437 12.0549 137.593 12.062 137.737 12.0615C137.895 12.0492 138.025 12.054 138.128 12.0761C138.244 12.0993 138.33 12.1526 138.389 12.2361C138.448 12.3067 138.469 12.4392 138.452 12.6338C138.405 13.1656 138.36 13.6844 138.316 14.1903C138.285 14.6844 138.244 15.2297 138.192 15.8264C138.14 16.4231 138.08 17.1041 138.013 17.8694C137.959 18.6358 137.886 19.5444 137.794 20.5951C138.358 19.9778 138.865 19.4927 139.314 19.1399C139.777 18.7752 140.205 18.5121 140.598 18.3504C140.993 18.1758 141.367 18.0843 141.72 18.0761C142.088 18.056 142.452 18.0813 142.812 18.1519C143.227 18.1883 143.563 18.3091 143.819 18.5146C144.077 18.707 144.27 18.9592 144.4 19.2712C144.543 19.5713 144.631 19.9123 144.663 20.2941C144.695 20.676 144.694 21.0679 144.658 21.4701C144.62 21.7543 144.574 22.0639 144.518 22.3989C144.464 22.7209 144.355 23.0708 144.191 23.4486C144.042 23.8145 143.819 24.1937 143.523 24.5861C143.227 24.9785 142.819 25.3872 142.298 25.8121C141.792 26.2253 141.154 26.6465 140.384 27.0759C139.627 27.5064 138.708 27.9357 137.625 28.3637C137.279 28.425 137.008 28.4601 136.811 28.469C136.628 28.4791 136.484 28.4731 136.382 28.451C136.291 28.4431 136.234 28.425 136.21 28.3968C136.198 28.3827 136.193 28.3692 136.194 28.3562ZM137.276 27.1961C137.345 27.1499 137.535 27.0685 137.846 26.9519C138.157 26.8353 138.53 26.6784 138.966 26.4812C139.401 26.2841 139.867 26.0373 140.364 25.7409C140.86 25.4445 141.329 25.0934 141.769 24.6875C142.224 24.2699 142.619 23.7881 142.954 23.2424C143.29 22.6966 143.514 22.0757 143.627 21.3798C143.644 21.1853 143.63 20.9684 143.586 20.7292C143.555 20.4912 143.483 20.2693 143.37 20.0633C143.271 19.8456 143.13 19.6633 142.947 19.5166C142.778 19.358 142.564 19.2674 142.304 19.2447C141.772 19.1982 141.274 19.2918 140.809 19.5256C140.359 19.7476 139.94 20.0443 139.555 20.4158C139.17 20.7873 138.82 21.201 138.505 21.6572C138.205 22.1014 137.946 22.5232 137.728 22.9223L137.276 27.1961ZM148.323 29.3781C147.81 29.2679 147.4 29.0229 147.093 28.6432C146.8 28.2646 146.578 27.8138 146.427 27.2909C146.277 26.768 146.196 26.2054 146.183 25.603C146.184 24.9888 146.224 24.391 146.301 23.8096C146.418 22.918 146.655 22.0761 147.012 21.2838C147.382 20.4927 147.807 19.8176 148.287 19.2583C148.781 18.6873 149.302 18.2623 149.849 17.9834C150.411 17.6927 150.941 17.6084 151.44 17.7305C151.965 17.8548 152.371 18.1452 152.658 18.6016C152.957 19.0592 153.171 19.6072 153.298 20.2457C153.425 20.8842 153.476 21.5749 153.45 22.3176C153.425 23.0474 153.358 23.7473 153.247 24.4173C153.115 25.1769 152.884 25.8756 152.554 26.5133C152.223 27.151 151.83 27.6917 151.373 28.1353C150.928 28.58 150.435 28.9159 149.892 29.1429C149.364 29.3581 148.841 29.4365 148.323 29.3781ZM151.148 18.8225C150.725 18.7331 150.311 18.8342 149.906 19.1255C149.516 19.4051 149.148 19.7977 148.803 20.3034C148.472 20.7973 148.18 21.373 147.927 22.0305C147.674 22.675 147.487 23.3187 147.366 23.9616C147.273 24.424 147.211 24.9022 147.181 25.3963C147.151 25.8903 147.17 26.3429 147.239 26.7541C147.32 27.1665 147.467 27.5125 147.677 27.7924C147.902 28.0604 148.216 28.212 148.618 28.2472C148.941 28.2885 149.288 28.2078 149.659 28.0049C150.042 27.8032 150.407 27.5214 150.752 27.1595C151.099 26.7847 151.411 26.3545 151.688 25.869C151.979 25.3847 152.187 24.8801 152.311 24.355C152.451 23.8052 152.52 23.2362 152.519 22.6479C152.533 22.0479 152.483 21.4881 152.372 20.9686C152.274 20.4502 152.117 19.9986 151.902 19.6139C151.702 19.2173 151.45 18.9535 151.148 18.8225ZM155.502 18.3996C155.527 18.271 155.588 18.1718 155.685 18.1019C155.783 18.032 155.891 17.9957 156.009 17.9929C156.128 17.9772 156.243 18.0004 156.355 18.0625C156.469 18.1116 156.56 18.185 156.63 18.2826L155.891 26.0603C156.219 25.1479 156.52 24.2462 156.794 23.3552C157.082 22.4524 157.408 21.6444 157.771 20.9311C158.135 20.2049 158.565 19.6217 159.061 19.1815C159.558 18.7283 160.186 18.5022 160.944 18.5031C161.349 18.4994 161.689 18.6533 161.962 18.9647C162.237 19.2632 162.457 19.6615 162.622 20.1596C162.801 20.6589 162.933 21.239 163.019 21.9C163.106 22.5481 163.158 23.2258 163.174 23.933C163.205 24.6285 163.209 25.3281 163.187 26.032C163.164 26.7358 163.134 27.3866 163.094 27.9845C163.055 28.5823 163.009 29.1076 162.956 29.5605C162.917 30.0145 162.881 30.3447 162.85 30.5511C162.74 30.7636 162.565 30.8921 162.326 30.9366C162.099 30.9951 161.906 30.8867 161.747 30.6114C161.756 30.3638 161.786 29.9417 161.838 29.345C161.892 28.7353 161.939 28.0402 161.981 27.2597C162.037 26.4803 162.069 25.6662 162.077 24.8174C162.1 23.9567 162.072 23.1635 161.992 22.4375C161.925 21.6998 161.79 21.0802 161.586 20.5787C161.395 20.0654 161.115 19.7598 160.744 19.662C160.425 19.5818 160.091 19.7291 159.745 20.104C159.411 20.48 159.073 20.9863 158.73 21.6228C158.4 22.2605 158.075 22.9837 157.756 23.7923C157.45 24.602 157.164 25.4005 156.899 26.1877C156.647 26.976 156.427 27.7018 156.238 28.3649C156.05 29.0281 155.92 29.5396 155.849 29.8993C155.801 29.9997 155.716 30.0772 155.593 30.1319C155.471 30.1865 155.339 30.2076 155.196 30.1951C155.065 30.1967 154.93 30.1653 154.792 30.101C154.667 30.0377 154.578 29.9319 154.526 29.7836L155.502 18.3996ZM165.179 29.5197C165.409 29.7358 165.698 29.8657 166.047 29.9093C166.409 29.954 166.789 29.9416 167.188 29.8718C167.6 29.7903 168.016 29.6633 168.437 29.4909C168.871 29.3068 169.268 29.0997 169.628 28.8698C170.001 28.641 170.323 28.3947 170.595 28.1309C170.88 27.8552 171.08 27.5917 171.193 27.3402C171.308 27.0757 171.323 26.8287 171.238 26.5991C171.154 26.3695 170.936 26.174 170.584 26.0125C169.909 26.1103 169.236 26.1756 168.567 26.2086C167.897 26.2415 167.301 26.1893 166.777 26.052C166.266 25.9158 165.863 25.6649 165.568 25.2992C165.273 24.9336 165.17 24.4017 165.257 23.7035C165.355 23.0324 165.592 22.4192 165.967 21.8639C166.356 21.2967 166.822 20.8277 167.364 20.4569C167.919 20.0872 168.518 19.8193 169.16 19.6533C169.815 19.4884 170.465 19.4538 171.11 19.5494C171.239 19.5737 171.354 19.5969 171.457 19.619C171.574 19.6292 171.676 19.6577 171.763 19.7046C171.85 19.7514 171.91 19.8155 171.942 19.8967C171.987 19.9791 171.997 20.0975 171.97 20.252C171.94 20.4455 171.855 20.5949 171.715 20.7003C171.575 20.8057 171.396 20.8358 171.178 20.7905C170.426 20.5679 169.736 20.5402 169.107 20.7074C168.478 20.8745 167.945 21.1416 167.508 21.5085C167.071 21.8625 166.747 22.2785 166.536 22.7567C166.324 23.2348 166.259 23.6801 166.34 24.0924C166.546 24.5809 166.838 24.9071 167.216 25.0708C167.607 25.2228 168.026 25.2986 168.47 25.2982C168.927 25.299 169.394 25.2745 169.868 25.2245C170.345 25.1616 170.769 25.1661 171.142 25.2379C171.516 25.2967 171.814 25.4667 172.038 25.7476C172.263 26.0157 172.359 26.4881 172.326 27.1648C172.275 27.5917 172.096 27.9943 171.789 28.3726C171.482 28.7379 171.1 29.077 170.641 29.3897C170.197 29.6907 169.702 29.9611 169.159 30.2011C168.616 30.4281 168.077 30.6097 167.542 30.7459C167.021 30.8833 166.53 30.9645 166.07 30.9896C165.624 31.0159 165.267 30.9782 165.002 30.8766C164.726 30.591 164.593 30.3245 164.601 30.0769C164.611 29.8163 164.804 29.6306 165.179 29.5197ZM88.2451 41.2732C88.3263 41.2411 88.42 41.2166 88.526 41.1997C88.632 41.1829 88.7305 41.1784 88.8213 41.1864C88.925 41.1954 89.0206 41.2234 89.108 41.2703C89.1954 41.3171 89.2605 41.3947 89.3033 41.503C89.2295 42.3462 89.156 43.2612 89.0827 44.2482C89.0236 45.2233 88.9627 46.2178 88.9001 47.2319C88.8517 48.2341 88.7978 49.2227 88.7387 50.1978C88.6795 51.173 88.6266 52.0767 88.5799 52.9092C88.5758 53.1049 88.5109 53.2495 88.3851 53.3431C88.2592 53.4366 88.125 53.4771 87.9823 53.4647C87.8526 53.4533 87.7339 53.3906 87.6262 53.2767C87.5174 53.1757 87.4721 53.0214 87.4903 52.8138L88.2451 41.2732ZM88.3589 37.2836C88.3736 37.1149 88.4416 37.0098 88.5629 36.9681C88.6853 36.9135 88.8179 36.8924 88.9606 36.9049C89.2459 36.9298 89.4125 37.0424 89.4604 37.2427C89.5223 37.4311 89.5425 37.6485 89.5209 37.895C89.4295 38.0438 89.3161 38.145 89.1807 38.1985C89.0453 38.252 88.908 38.2531 88.7687 38.2017C88.6424 38.1514 88.5336 38.0504 88.4423 37.8986C88.364 37.748 88.3362 37.543 88.3589 37.2836ZM91.4093 41.9029C91.4336 41.7744 91.4946 41.6751 91.5922 41.6052C91.6898 41.5354 91.7975 41.499 91.9154 41.4963C92.0344 41.4806 92.15 41.5037 92.2622 41.5658C92.3755 41.615 92.4672 41.6883 92.537 41.7859L91.7978 49.5636C92.1259 48.6512 92.427 47.7496 92.701 46.8586C92.9891 45.9558 93.3147 45.1478 93.6777 44.4345C94.0419 43.7083 94.472 43.125 94.9679 42.6848C95.4651 42.2316 96.0926 42.0055 96.8506 42.0065C97.2562 42.0028 97.5956 42.1566 97.869 42.4681C98.1435 42.7666 98.3635 43.1649 98.5291 43.663C98.7076 44.1622 98.8398 44.7423 98.9258 45.4034C99.0128 46.0515 99.0646 46.7291 99.0812 47.4364C99.1118 48.1318 99.116 48.8315 99.0936 49.5353C99.0713 50.2392 99.0405 50.89 99.0012 51.4878C98.962 52.0856 98.916 52.611 98.8633 53.0638C98.8236 53.5178 98.7882 53.848 98.7571 54.0544C98.647 54.267 98.4724 54.3955 98.2332 54.4399C98.0059 54.4985 97.8128 54.3901 97.6539 54.1148C97.6625 53.8672 97.6928 53.445 97.7451 52.8484C97.7984 52.2387 97.8461 51.5436 97.8883 50.7631C97.9434 49.9836 97.9754 49.1695 97.9843 48.3207C98.0073 47.4601 97.9787 46.6668 97.8984 45.9409C97.8323 45.2032 97.697 44.5835 97.4925 44.082C97.3021 43.5687 97.0217 43.2632 96.6512 43.1654C96.3315 43.0851 95.9984 43.2324 95.6519 43.6073C95.3184 43.9833 94.98 44.4896 94.6367 45.1262C94.3064 45.7639 93.9818 46.487 93.6627 47.2956C93.3566 48.1054 93.0711 48.9038 92.8061 49.691C92.5542 50.4794 92.3338 51.2051 92.1451 51.8683C91.9564 52.5314 91.8267 53.0429 91.756 53.4027C91.708 53.5031 91.6228 53.5806 91.5004 53.6352C91.3779 53.6899 91.2454 53.7109 91.1027 53.6984C90.9719 53.7001 90.8374 53.6687 90.6992 53.6043C90.5741 53.5411 90.4853 53.4353 90.4329 53.2869L91.4093 41.9029ZM101.282 59.5297C102.246 59.5618 103.081 59.4257 103.788 59.1215C104.493 58.8303 105.091 58.4121 105.584 57.867C106.076 57.3219 106.466 56.6698 106.755 55.9109C107.043 55.1519 107.26 54.3212 107.404 53.4189C107.494 52.8386 107.558 52.3279 107.597 51.8869C107.649 51.4341 107.679 51.0249 107.685 50.6594C107.705 50.2821 107.716 49.9237 107.72 49.5842C107.723 49.2447 107.728 48.8922 107.734 48.5267C107.74 48.1612 107.748 47.7698 107.758 47.3525C107.783 46.9233 107.819 46.4363 107.866 45.8915C107.084 47.666 106.371 49.0872 105.729 50.155C105.087 51.2229 104.5 52.0212 103.971 52.55C103.454 53.0798 102.996 53.3861 102.596 53.4688C102.21 53.5527 101.881 53.5043 101.609 53.3236C101.338 53.13 101.128 52.8437 100.978 52.4646C100.83 52.0726 100.74 51.6791 100.709 51.2843C100.792 50.638 100.977 49.9354 101.266 49.1764C101.556 48.4044 101.915 47.6582 102.344 46.9376C102.774 46.2041 103.258 45.534 103.794 44.9275C104.332 44.3079 104.897 43.828 105.489 43.4876C106.081 43.1473 106.671 42.9767 107.259 42.9759C107.86 42.9762 108.439 43.2295 108.996 43.7357C109.01 43.7238 109.011 43.8677 108.998 44.1671C108.997 44.4677 108.988 44.8721 108.97 45.3803C108.965 45.8896 108.945 46.4826 108.912 47.1594C108.893 47.8243 108.872 48.5217 108.847 49.2515C108.822 49.9813 108.791 50.7105 108.754 51.4392C108.729 52.169 108.709 52.8469 108.693 53.4729C108.601 54.6804 108.322 55.7735 107.857 56.7524C107.393 57.7312 106.812 58.5431 106.115 59.1879C105.431 59.8339 104.666 60.2833 103.821 60.536C102.988 60.79 102.151 60.7952 101.31 60.5516C101.271 60.5482 101.208 60.5166 101.122 60.4568C101.049 60.3981 100.99 60.3211 100.946 60.2257C100.915 60.1315 100.918 60.0207 100.956 59.8933C100.992 59.7788 101.101 59.6576 101.282 59.5297ZM101.739 51.394C101.84 51.8734 102.008 52.1234 102.242 52.1438C102.476 52.1513 102.75 52.0053 103.064 51.706C103.392 51.3949 103.743 50.9681 104.117 50.4257C104.491 49.8834 104.87 49.2891 105.253 48.643C105.651 47.985 106.036 47.3194 106.408 46.6462C106.782 45.96 107.131 45.3305 107.456 44.7577C107.47 44.602 107.443 44.4559 107.377 44.3194C107.324 44.171 107.173 44.112 106.922 44.1424C106.513 44.185 106.099 44.3514 105.682 44.6417C105.279 44.9201 104.888 45.2715 104.511 45.696C104.136 46.1075 103.781 46.5732 103.448 47.093C103.129 47.601 102.849 48.1189 102.606 48.6467C102.365 49.1615 102.165 49.6602 102.005 50.1429C101.858 50.6267 101.769 51.0438 101.739 51.394ZM110.651 54.8989C110.768 53.1055 110.869 51.585 110.952 50.3375C111.035 49.09 111.105 48.0571 111.164 47.2387C111.222 46.4204 111.265 45.7837 111.292 45.3285C111.333 44.8616 111.356 44.5173 111.363 44.2956C111.382 44.0751 111.393 43.9454 111.397 43.9065C111.401 43.8546 111.404 43.8222 111.405 43.8092C111.428 43.6936 111.495 43.6014 111.606 43.5327C111.716 43.4639 111.831 43.4282 111.948 43.4254C112.08 43.4108 112.203 43.4346 112.315 43.4967C112.427 43.5588 112.504 43.6505 112.546 43.7717L112.212 48.2519C112.485 47.3739 112.862 46.6553 113.342 46.0961C113.835 45.538 114.369 45.1142 114.943 44.8246C115.519 44.522 116.103 44.3444 116.696 44.2917C117.301 44.2401 117.853 44.2818 118.351 44.4169C118.517 44.4706 118.633 44.5527 118.702 44.6633C118.784 44.775 118.819 44.8957 118.808 45.0254C118.811 45.1433 118.768 45.2572 118.68 45.3671C118.606 45.4652 118.508 45.5351 118.387 45.5768C117.807 45.4868 117.251 45.4905 116.72 45.5877C116.202 45.6732 115.718 45.8334 115.266 46.0683C114.828 46.2915 114.431 46.5704 114.075 46.9052C113.732 47.2412 113.452 47.6023 113.235 47.9885C112.912 48.5484 112.67 49.1481 112.509 49.7876C112.363 50.4152 112.249 51.0457 112.167 51.679C112.099 52.3135 112.046 52.9166 112.009 53.4885C111.985 54.0615 111.948 54.5615 111.898 54.9884C111.872 55.13 111.798 55.2345 111.674 55.3021C111.565 55.3579 111.439 55.3796 111.296 55.3671C111.165 55.3687 111.031 55.3309 110.894 55.2535C110.771 55.1643 110.69 55.0461 110.651 54.8989ZM120.688 50.9149C120.591 50.9847 120.426 51.003 120.193 50.9696C119.975 50.9243 119.772 50.8543 119.584 50.7595C119.41 50.6657 119.295 50.5512 119.242 50.4158C119.19 50.2674 119.282 50.1121 119.518 49.9498C119.616 49.8799 119.717 49.8365 119.824 49.8197C119.944 49.791 120.057 49.7682 120.163 49.7513C120.283 49.7226 120.378 49.6787 120.449 49.6195C120.532 49.5615 120.587 49.4617 120.612 49.3201C120.676 48.7375 120.774 48.1448 120.905 47.542C121.049 46.9403 121.259 46.4097 121.534 45.9502C121.81 45.4907 122.174 45.1369 122.627 44.889C123.093 44.6422 123.68 44.5825 124.388 44.7098C124.647 44.7325 124.933 44.8228 125.246 44.9809C125.56 45.126 125.858 45.3154 126.138 45.5491C126.419 45.7697 126.657 46.0324 126.853 46.3371C127.05 46.6288 127.16 46.939 127.183 47.2678C127.263 47.4055 127.197 47.5631 126.985 47.7406C126.773 47.9182 126.482 48.1149 126.11 48.3307C125.739 48.5335 125.323 48.7389 124.86 48.9467C124.398 49.1546 123.949 49.3506 123.515 49.5348C123.093 49.7202 122.72 49.8835 122.394 50.0249C122.067 50.1663 121.856 50.2655 121.76 50.3224C121.793 50.8351 121.831 51.3743 121.873 51.94C121.915 52.5057 122 53.0294 122.128 53.5111C122.255 53.9928 122.429 54.4001 122.648 54.733C122.882 55.054 123.193 55.2316 123.582 55.2656C124.149 55.3545 124.643 55.3127 125.063 55.1404C125.497 54.9691 125.864 54.7268 126.166 54.4134C126.468 54.1 126.714 53.749 126.905 53.3605C127.109 52.9732 127.266 52.6013 127.375 52.2449C127.498 51.8897 127.583 51.5899 127.63 51.3457C127.692 51.0897 127.737 50.9499 127.765 50.9262C127.915 50.8609 128.077 50.875 128.252 50.9688C128.427 51.0495 128.515 51.2467 128.513 51.5602C128.482 52.0673 128.321 52.6348 128.031 53.263C127.741 53.8911 127.364 54.4594 126.902 54.9679C126.452 55.4775 125.927 55.876 125.327 56.1633C124.741 56.4388 124.134 56.4968 123.508 56.3375C122.847 56.2666 122.338 56.0326 121.981 55.6353C121.625 55.2251 121.353 54.7504 121.165 54.2111C120.991 53.66 120.877 53.088 120.825 52.4952C120.772 51.9025 120.726 51.3757 120.688 50.9149ZM126.152 47.1776C125.787 46.5706 125.397 46.1705 124.983 45.9774C124.568 45.7843 124.131 45.7003 123.672 45.7254C123.396 45.7405 123.144 45.8492 122.918 46.0516C122.692 46.241 122.499 46.4986 122.34 46.8245C122.182 47.1374 122.059 47.4992 121.971 47.9097C121.884 48.3073 121.841 48.7218 121.842 49.1533L126.152 47.1776ZM123.725 43.1029C123.342 42.991 123.141 42.8231 123.122 42.5992C123.102 42.3753 123.195 42.1351 123.4 41.8785C123.62 41.6102 123.906 41.3281 124.259 41.0322C124.624 40.7374 124.989 40.4556 125.352 40.1867C125.586 40.2072 125.742 40.2862 125.821 40.4239C125.901 40.5615 125.933 40.7147 125.919 40.8833L125.905 41.039C125.864 41.2053 125.757 41.3855 125.583 41.5794C125.423 41.7615 125.231 41.9472 125.005 42.1366C124.793 42.3141 124.569 42.4905 124.331 42.6658C124.095 42.8281 123.893 42.9738 123.725 43.1029ZM135.799 53.7073C135.628 54.0191 135.381 54.3766 135.059 54.7797C134.736 55.1827 134.37 55.5559 133.961 55.8992C133.552 56.2424 133.108 56.5304 132.63 56.7631C132.167 56.9839 131.695 57.0733 131.215 57.0314C131.007 57.0132 130.841 56.9725 130.716 56.9093C130.604 56.8472 130.5 56.7662 130.404 56.6663C130.322 56.5546 130.249 56.424 130.183 56.2745C130.118 56.125 130.035 55.9543 129.934 55.7625C129.874 55.1038 129.872 54.3782 129.928 53.5858C129.997 52.7945 130.132 52.0025 130.332 51.2096C130.545 50.4179 130.82 49.6707 131.156 48.9682C131.506 48.2538 131.924 47.6564 132.41 47.1762C132.91 46.697 133.48 46.3745 134.122 46.2084C134.778 46.0305 135.513 46.0752 136.326 46.3424C136.475 45.532 136.553 44.7154 136.56 43.8925C136.568 43.0567 136.591 42.1896 136.631 41.2911C136.642 41.1614 136.708 41.0757 136.83 41.0341C136.952 40.9794 137.085 40.9519 137.229 40.9514C137.387 40.939 137.53 40.945 137.659 40.9694C137.8 40.9948 137.889 41.0287 137.924 41.071C137.809 42.2373 137.703 43.3063 137.605 44.278C137.52 45.2509 137.439 46.1718 137.363 47.0409C137.288 47.897 137.215 48.7272 137.145 49.5314C137.075 50.3356 137.003 51.1593 136.929 52.0024C136.868 52.8467 136.797 53.7358 136.715 54.6697C136.646 55.6048 136.563 56.6301 136.466 57.7456C136.512 57.9588 136.477 58.1322 136.361 58.2658C136.258 58.4006 136.133 58.4812 135.987 58.5076C135.841 58.534 135.694 58.5015 135.545 58.4101C135.409 58.3198 135.331 58.1626 135.312 57.9387L135.799 53.7073ZM135.415 47.341C134.929 47.2201 134.45 47.3154 133.979 47.6271C133.521 47.9269 133.098 48.3604 132.708 48.9275C132.32 49.4817 131.983 50.1189 131.698 50.8389C131.414 51.546 131.209 52.2405 131.084 52.9223C130.973 53.5923 130.952 54.2048 131.021 54.7598C131.091 55.3148 131.285 55.7108 131.604 55.9478C131.928 55.9762 132.255 55.8938 132.586 55.7005C132.918 55.4942 133.235 55.2279 133.538 54.9015C133.854 54.5763 134.148 54.2098 134.419 53.8022C134.704 53.3827 134.955 52.9734 135.173 52.5742C135.391 52.175 135.56 51.8108 135.68 51.4815C135.815 51.1403 135.89 50.8789 135.906 50.6973C135.918 50.5547 135.94 50.3017 135.972 49.9385C136.004 49.5753 136.01 49.2034 135.991 48.8227C135.985 48.4431 135.937 48.1055 135.845 47.8099C135.766 47.5155 135.623 47.3592 135.415 47.341ZM139.771 45.7811C139.852 45.749 139.946 45.7245 140.052 45.7077C140.158 45.6908 140.256 45.6864 140.347 45.6943C140.451 45.7034 140.546 45.7313 140.634 45.7782C140.721 45.8251 140.786 45.9026 140.829 46.011C140.755 46.8541 140.682 47.7691 140.609 48.7561C140.549 49.7312 140.489 50.7258 140.426 51.7398C140.377 52.742 140.324 53.7306 140.264 54.7058C140.205 55.6809 140.152 56.5847 140.106 57.4171C140.102 57.6128 140.037 57.7574 139.911 57.851C139.785 57.9445 139.651 57.9851 139.508 57.9726C139.378 57.9612 139.26 57.8986 139.152 57.7846C139.043 57.6836 138.998 57.5293 139.016 57.3218L139.771 45.7811ZM139.885 41.7915C139.899 41.6229 139.967 41.5177 140.089 41.476C140.211 41.4214 140.344 41.4003 140.486 41.4128C140.772 41.4378 140.938 41.5504 140.986 41.7506C141.048 41.939 141.068 42.1565 141.047 42.4029C140.955 42.5518 140.842 42.6529 140.707 42.7064C140.571 42.7599 140.434 42.761 140.295 42.7096C140.168 42.6593 140.059 42.5583 139.968 42.4066C139.89 42.2559 139.862 42.0509 139.885 41.7915ZM143.153 52.8803C143.056 52.9502 142.891 52.9684 142.658 52.935C142.44 52.8898 142.237 52.8197 142.049 52.7249C141.875 52.6312 141.76 52.5166 141.707 52.3812C141.655 52.2329 141.747 52.0775 141.983 51.9152C142.081 51.8454 142.182 51.802 142.288 51.7851C142.409 51.7564 142.522 51.7336 142.628 51.7168C142.748 51.6881 142.843 51.6441 142.914 51.5849C142.997 51.5269 143.052 51.4271 143.077 51.2855C143.141 50.703 143.239 50.1103 143.37 49.5074C143.514 48.9057 143.724 48.3751 143.999 47.9156C144.275 47.4561 144.639 47.1024 145.092 46.8545C145.558 46.6077 146.145 46.5479 146.853 46.6752C147.112 46.6979 147.398 46.7883 147.711 46.9464C148.025 47.0915 148.322 47.2809 148.603 47.5145C148.884 47.7352 149.122 47.9978 149.318 48.3025C149.515 48.5942 149.625 48.9044 149.648 49.2333C149.728 49.3709 149.662 49.5285 149.45 49.7061C149.238 49.8836 148.947 50.0803 148.575 50.2961C148.204 50.4989 147.788 50.7043 147.325 50.9122C146.863 51.12 146.414 51.3161 145.98 51.5003C145.558 51.6856 145.185 51.849 144.858 51.9904C144.532 52.1317 144.321 52.2309 144.225 52.2878C144.258 52.8005 144.296 53.3397 144.338 53.9054C144.38 54.4711 144.465 54.9948 144.593 55.4765C144.72 55.9583 144.894 56.3656 145.113 56.6984C145.347 57.0195 145.658 57.197 146.047 57.2311C146.614 57.3199 147.108 57.2782 147.528 57.1058C147.962 56.9346 148.329 56.6922 148.631 56.3788C148.933 56.0654 149.179 55.7144 149.37 55.3259C149.574 54.9386 149.731 54.5667 149.84 54.2103C149.963 53.8551 150.048 53.5554 150.095 53.3112C150.157 53.0552 150.202 52.9153 150.23 52.8916C150.38 52.8263 150.542 52.8405 150.716 52.9342C150.892 53.0149 150.98 53.2121 150.978 53.5257C150.947 54.0327 150.786 54.6003 150.496 55.2284C150.206 55.8565 149.829 56.4249 149.367 56.9333C148.917 57.4429 148.392 57.8414 147.792 58.1287C147.206 58.4042 146.599 58.4623 145.973 58.3029C145.312 58.232 144.803 57.998 144.446 57.6008C144.09 57.1905 143.818 56.7158 143.63 56.1765C143.456 55.6254 143.342 55.0535 143.29 54.4607C143.237 53.8679 143.191 53.3411 143.153 52.8803ZM148.617 49.143C148.252 48.536 147.862 48.1359 147.448 47.9428C147.033 47.7497 146.596 47.6657 146.137 47.6909C145.861 47.7059 145.609 47.8147 145.383 48.017C145.157 48.2064 144.964 48.464 144.805 48.7899C144.647 49.1029 144.524 49.4646 144.436 49.8752C144.349 50.2727 144.306 50.6872 144.307 51.1187L148.617 49.143ZM153.115 47.3015C153.139 47.1729 153.2 47.0737 153.298 47.0038C153.395 46.9339 153.503 46.8976 153.621 46.8948C153.74 46.8791 153.856 46.9023 153.968 46.9644C154.081 47.0135 154.173 47.0869 154.243 47.1845L153.503 54.9622C153.832 54.0498 154.133 53.1481 154.407 52.2571C154.695 51.3543 155.02 50.5463 155.383 49.833C155.748 49.1068 156.178 48.5236 156.674 48.0834C157.171 47.6302 157.798 47.4041 158.556 47.405C158.962 47.4013 159.301 47.5552 159.575 47.8666C159.849 48.1651 160.069 48.5634 160.235 49.0615C160.413 49.5608 160.546 50.1409 160.631 50.8019C160.719 51.45 160.77 52.1277 160.787 52.8349C160.818 53.5304 160.822 54.23 160.799 54.9339C160.777 55.6377 160.746 56.2885 160.707 56.8864C160.668 57.4842 160.622 58.0095 160.569 58.4624C160.529 58.9164 160.494 59.2466 160.463 59.453C160.353 59.6655 160.178 59.794 159.939 59.8385C159.712 59.897 159.518 59.7886 159.36 59.5133C159.368 59.2657 159.399 58.8436 159.451 58.2469C159.504 57.6373 159.552 56.9422 159.594 56.1616C159.649 55.3822 159.681 54.5681 159.69 53.7193C159.713 52.8586 159.684 52.0654 159.604 51.3395C159.538 50.6017 159.403 49.9821 159.198 49.4806C159.008 48.9673 158.727 48.6617 158.357 48.5639C158.037 48.4837 157.704 48.631 157.358 49.0059C157.024 49.3819 156.686 49.8882 156.342 50.5247C156.012 51.1624 155.687 51.8856 155.368 52.6942C155.062 53.5039 154.777 54.3024 154.512 55.0896C154.26 55.8779 154.04 56.6037 153.851 57.2668C153.662 57.93 153.532 58.4415 153.462 58.8012C153.414 58.9016 153.328 58.9791 153.206 59.0338C153.084 59.0884 152.951 59.1095 152.808 59.097C152.678 59.0986 152.543 59.0672 152.405 59.0029C152.28 58.9396 152.191 58.8339 152.139 58.6855L153.115 47.3015ZM163.984 50.6247L162.141 51.0713C162.002 51.0199 161.891 50.9383 161.81 50.8266C161.715 50.7137 161.653 50.5972 161.624 50.4771C161.596 50.357 161.599 50.2461 161.634 50.1446C161.656 50.042 161.715 49.9687 161.81 49.9248L164.101 49.2822L164.544 43.7725C164.598 43.6072 164.693 43.4914 164.829 43.4249C164.966 43.3584 165.099 43.3373 165.227 43.3617C165.37 43.3742 165.496 43.4309 165.604 43.5319C165.714 43.62 165.783 43.7305 165.811 43.8636C165.749 44.2635 165.693 44.6898 165.64 45.1427C165.588 45.5826 165.536 46.029 165.483 46.4818C165.445 46.9228 165.413 47.358 165.389 47.7871C165.366 48.2034 165.358 48.5883 165.366 48.9419L168.489 47.98C168.675 47.944 168.816 47.9759 168.912 48.0758C169.009 48.1627 169.064 48.2786 169.078 48.4236C169.105 48.5567 169.088 48.6858 169.024 48.811C168.961 48.9362 168.862 49.019 168.728 49.0596L165.249 50.2844C165.237 50.4141 165.217 50.726 165.187 51.2201C165.158 51.7011 165.121 52.273 165.076 52.9357C165.031 53.5984 164.982 54.3064 164.929 55.0599C164.876 55.8134 164.821 56.5209 164.763 57.1824C164.718 57.8451 164.674 58.4229 164.631 58.9158C164.602 59.3968 164.582 59.7022 164.57 59.8319C164.507 60.2577 164.365 60.461 164.145 60.4417C163.924 60.4224 163.693 60.2976 163.452 60.0674L163.984 50.6247ZM168.38 58.9105C168.609 59.1266 168.899 59.2565 169.248 59.3001C169.61 59.3448 169.99 59.3323 170.388 59.2626C170.801 59.1811 171.217 59.0541 171.637 58.8817C172.071 58.6975 172.469 58.4905 172.829 58.2606C173.202 58.0318 173.524 57.7855 173.795 57.5217C174.081 57.246 174.28 56.9825 174.394 56.731C174.508 56.4665 174.523 56.2195 174.439 55.9899C174.354 55.7603 174.136 55.5648 173.784 55.4033C173.109 55.5011 172.437 55.5664 171.767 55.5994C171.098 55.6323 170.501 55.5801 169.977 55.4427C169.466 55.3066 169.064 55.0556 168.769 54.69C168.474 54.3244 168.37 53.7925 168.458 53.0943C168.555 52.4232 168.792 51.81 169.167 51.2547C169.557 50.6875 170.023 50.2185 170.565 49.8477C171.12 49.478 171.719 49.2101 172.361 49.0441C173.015 48.8792 173.665 48.8445 174.311 48.9402C174.439 48.9645 174.555 48.9877 174.657 49.0098C174.774 49.02 174.876 49.0485 174.964 49.0954C175.051 49.1422 175.111 49.2063 175.143 49.2875C175.188 49.3699 175.197 49.4883 175.171 49.6428C175.141 49.8363 175.056 49.9857 174.916 50.0911C174.776 50.1965 174.597 50.2265 174.378 50.1813C173.627 49.9587 172.936 49.931 172.308 50.0982C171.679 50.2653 171.145 50.5324 170.708 50.8993C170.272 51.2533 169.948 51.6693 169.736 52.1475C169.525 52.6256 169.459 53.0709 169.541 53.4832C169.747 53.9717 170.038 54.2979 170.416 54.4616C170.808 54.6136 171.226 54.6893 171.671 54.689C172.128 54.6898 172.594 54.6653 173.069 54.6153C173.545 54.5524 173.97 54.5568 174.342 54.6287C174.716 54.6875 175.015 54.8574 175.239 55.1384C175.464 55.4064 175.56 55.8788 175.527 56.5556C175.476 56.9825 175.297 57.3851 174.99 57.7634C174.683 58.1287 174.301 58.4678 173.842 58.7805C173.397 59.0815 172.903 59.3519 172.359 59.5919C171.817 59.8189 171.278 60.0005 170.743 60.1367C170.221 60.2741 169.731 60.3553 169.271 60.3804C168.824 60.4067 168.468 60.369 168.202 60.2674C167.927 59.9818 167.793 59.7153 167.802 59.4677C167.812 59.2071 168.004 59.0214 168.38 58.9105Z" fill="#2C2C2C"/>
<path d="M19.4023 48.6729C16.9544 50.5886 14.4731 52.5276 11.8469 54.1955C11.4137 54.4706 10.7516 55.024 10.8133 54.4367C10.8835 53.769 10.5928 52.7137 10.4241 52.0708C9.9347 50.2046 9.57014 48.2576 8.89475 46.4575" stroke="#2C2C2C" stroke-linecap="round" stroke-linejoin="round"/>
<path d="M12.3044 51.51C18.3019 36.7509 39.9988 10.5248 78.8062 23.6932" stroke="#2C2C2C" stroke-linecap="round" stroke-linejoin="round"/>
</svg>
