<svg width="232" height="100" viewBox="0 0 232 100" fill="none" xmlns="http://www.w3.org/2000/svg">
<path d="M20.9293 6.84167C20.9762 6.75428 21.0603 6.68975 21.1815 6.64807C21.3158 6.60754 21.4478 6.59294 21.5775 6.60429C21.7202 6.61677 21.84 6.66647 21.937 6.75338C22.0351 6.82731 22.0903 6.94324 22.1026 7.10117L22.1257 8.18151C22.3767 8.15119 22.6776 8.07295 23.0285 7.9468C23.3805 7.80768 23.7838 7.67959 24.2385 7.56251C24.7061 7.44658 25.2233 7.36112 25.7902 7.30615C26.357 7.25118 26.9808 7.29268 27.6614 7.43066C28.7069 7.73125 29.4572 8.04523 29.9121 8.37259C30.3671 8.69994 30.5922 9.03987 30.5875 9.39237C30.5969 9.73302 30.4219 10.0902 30.0625 10.464C29.7171 10.8259 29.2609 11.1846 28.6939 11.5402C28.1269 11.8958 27.4945 12.2522 26.7966 12.6094C26.0988 12.9666 25.415 13.3119 24.7454 13.6455C24.0899 13.9672 23.4744 14.2793 22.899 14.5819C22.3376 14.8726 21.9083 15.1487 21.6109 15.4102L30.2562 21.6955C30.238 21.903 30.1361 22.0967 29.9505 22.2765C29.7659 22.4433 29.5646 22.5041 29.3463 22.4589L21.1982 16.7662L20.633 23.2259C20.466 23.3419 20.3225 23.4143 20.2023 23.443C20.0951 23.4729 20.0097 23.4785 19.946 23.4598C19.8823 23.4412 19.8273 23.3972 19.7811 23.3278C19.7337 23.2713 19.6934 23.209 19.6602 23.1407L20.9293 6.84167ZM21.998 9.64078C21.9494 9.89794 21.9027 10.2075 21.858 10.5696C21.8132 10.9317 21.7727 11.3202 21.7364 11.7353C21.7012 12.1374 21.666 12.5395 21.6308 12.9416C21.5968 13.3308 21.5661 13.681 21.5389 13.9923C21.6094 13.9331 21.8207 13.834 22.1727 13.6949C22.5388 13.5439 22.9797 13.3603 23.4953 13.144C24.0109 12.9277 24.5612 12.6883 25.1462 12.4258C25.7453 12.1514 26.3126 11.8677 26.8479 11.5747C27.3833 11.2817 27.8533 10.9896 28.2578 10.6982C28.6765 10.395 28.9502 10.1052 29.0789 9.82895C29.2206 9.55379 29.1844 9.29574 28.9702 9.05481C28.7701 8.80203 28.3255 8.58015 27.6364 8.38915C27.2495 8.32916 26.7879 8.30185 26.2515 8.3072C25.7282 8.3137 25.1943 8.36502 24.65 8.46118C24.1198 8.54549 23.6175 8.68454 23.1431 8.8783C22.6686 9.07206 22.287 9.32622 21.998 9.64078ZM38.243 24.5705C38.0853 24.2822 37.9997 23.9153 37.9864 23.4697C37.9861 23.0253 38.0004 22.5625 38.0295 22.0814C38.0726 21.5885 38.1146 21.1086 38.1554 20.6416C38.2104 20.1628 38.2137 19.7514 38.1654 19.4073C37.4388 20.69 36.7703 21.6837 36.1597 22.3884C35.5631 23.0812 35.0237 23.5699 34.5413 23.8545C34.0731 24.1272 33.6585 24.2347 33.2976 24.177C32.9378 24.1063 32.6378 23.9494 32.3977 23.7062C32.1716 23.4511 32.0015 23.1552 31.8872 22.8184C31.774 22.4687 31.724 22.1441 31.7371 21.8446C31.6894 21.3438 31.7346 20.753 31.8725 20.0723C32.0246 19.3798 32.2368 18.673 32.509 17.9518C32.7942 17.2317 33.1296 16.5356 33.5151 15.8636C33.9148 15.1796 34.3449 14.5964 34.8054 14.1139C35.2788 13.6325 35.7663 13.2895 36.2678 13.0851C36.7704 12.8676 37.2738 12.8659 37.7779 13.08C38.0396 13.0767 38.2525 13.1084 38.4165 13.175C38.5947 13.2298 38.736 13.3337 38.8402 13.4866C38.9445 13.6395 39.0112 13.8479 39.0404 14.1119C39.0707 14.3629 39.0818 14.6841 39.0737 15.0755C38.9377 16.3314 38.8765 17.4044 38.8901 18.2944C38.9167 19.1855 38.9654 19.974 39.0361 20.6599C39.1068 21.3457 39.1767 21.9661 39.2458 22.5212C39.3278 23.0773 39.3563 23.6484 39.3311 24.2343C39.313 24.4419 39.2469 24.5995 39.1329 24.7071C39.0201 24.8018 38.8977 24.8565 38.7657 24.8711C38.6326 24.8986 38.5099 24.8814 38.3977 24.8193C38.2985 24.7583 38.2469 24.6754 38.243 24.5705ZM37.9742 14.646C37.6992 14.2037 37.3772 13.9991 37.0084 14.0321C36.6395 14.0652 36.2564 14.2604 35.8592 14.6178C35.4761 14.9633 35.0951 15.4332 34.7164 16.0275C34.3387 16.6087 34.0026 17.2394 33.7078 17.9194C33.413 18.5994 33.1766 19.2846 32.9986 19.9748C32.8347 20.6532 32.7619 21.2612 32.7802 21.7986C32.9108 22.3982 33.1006 22.7678 33.3498 22.9072C33.599 23.0466 33.8813 23.0321 34.1967 22.8637C34.5132 22.6822 34.8464 22.3846 35.1963 21.9708C35.5462 21.557 35.8859 21.1097 36.2156 20.6288C36.5463 20.1349 36.8441 19.6446 37.1089 19.1581C37.3877 18.6596 37.6138 18.2415 37.7872 17.9038L37.9742 14.646ZM41.3778 24.8643C41.3745 24.6026 41.3849 24.1853 41.4089 23.6123C41.447 23.0274 41.4854 22.3642 41.5242 21.6226C41.577 20.8691 41.6338 20.0702 41.6946 19.226C41.7554 18.3817 41.8004 17.5687 41.8296 16.787C41.8729 15.9935 41.8916 15.2567 41.8857 14.5765C41.8929 13.8974 41.8751 13.3535 41.8325 12.9445C41.8608 12.6203 41.974 12.4472 42.172 12.4253C42.384 12.3915 42.6175 12.412 42.8724 12.4866C42.904 13.4696 42.9047 14.3585 42.8744 15.1531C42.8571 15.9489 42.8276 16.6587 42.7861 17.2824C42.7587 17.8944 42.7317 18.4279 42.7049 18.883C42.6923 19.3263 42.7065 19.687 42.7475 19.9651C43.0087 18.7724 43.2605 17.7618 43.5029 16.9334C43.7453 16.105 43.9805 15.4329 44.2086 14.917C44.4509 14.3892 44.693 14.0117 44.9351 13.7846C45.1783 13.5444 45.4313 13.4162 45.6942 13.4C45.9299 13.3945 46.134 13.6019 46.3063 14.0222C46.4798 14.4295 46.6242 14.9453 46.7395 15.5697C46.8678 16.1952 46.9656 16.8704 47.0328 17.5952C47.1143 18.3081 47.1678 18.9663 47.1934 19.5698C47.749 18.2983 48.203 17.2924 48.5553 16.552C48.9206 15.8128 49.2306 15.2583 49.4851 14.8884C49.7408 14.5056 49.964 14.2703 50.1547 14.1824C50.3583 14.0956 50.5763 14.069 50.8087 14.1024C51.1188 14.1426 51.3534 14.3003 51.5123 14.5756C51.6853 14.8391 51.805 15.1894 51.8713 15.6266C51.9387 16.0507 51.9675 16.5434 51.9576 17.1046C51.9619 17.6539 51.9503 18.2345 51.9229 18.8464C51.9084 19.4595 51.8994 20.0861 51.8957 20.7262C51.906 21.3545 51.9446 21.9591 52.0114 22.5401C52.0782 23.121 52.1939 23.667 52.3583 24.1781C52.5238 24.6762 52.7681 25.0962 53.0911 25.4382C52.9539 25.6614 52.8001 25.8506 52.6297 26.0056C52.4604 26.1476 52.296 26.1594 52.1365 26.0409C51.7819 25.7615 51.5134 25.3197 51.331 24.7156C51.1627 24.0996 51.0401 23.4092 50.9632 22.6444C50.8863 21.8796 50.8507 21.0923 50.8562 20.2824C50.8628 19.4595 50.8697 18.7085 50.8768 18.0295C50.8839 17.3505 50.8744 16.7876 50.8481 16.3409C50.8348 15.8953 50.7768 15.6615 50.6742 15.6395C50.3026 15.5547 49.8618 16.1108 49.3519 17.3079C48.8549 18.5061 48.1825 20.2903 47.3347 22.6603C47.2551 22.8232 47.1665 22.9397 47.0689 23.0095C46.9724 23.0664 46.8788 23.0909 46.788 23.083C46.6972 23.075 46.6087 23.0412 46.5224 22.9813C46.4373 22.9085 46.3663 22.8239 46.3094 22.7274C46.214 21.7257 46.1412 20.7652 46.0909 19.8459C46.0536 18.9276 46.0137 18.1138 45.9712 17.4043C45.9287 16.6947 45.8678 16.1208 45.7886 15.6826C45.7222 15.2454 45.6254 15.0082 45.4979 14.9709C45.3834 14.9348 45.2553 15.0543 45.1136 15.3294C44.986 15.5927 44.8488 15.9663 44.7019 16.4502C44.5561 16.921 44.3954 17.4886 44.2196 18.1529C44.058 18.8053 43.8853 19.5091 43.7016 20.2642C43.5179 21.0193 43.3255 21.7998 43.1243 22.6056C42.9242 23.3985 42.7117 24.1837 42.4868 24.9614C42.4259 25.0606 42.3412 25.1316 42.2329 25.1744C42.1235 25.2302 42.0104 25.253 41.8936 25.2428C41.7899 25.2337 41.6884 25.1987 41.5891 25.1377C41.4899 25.0767 41.4195 24.9856 41.3778 24.8643ZM61.21 26.5798C61.0522 26.2915 60.9667 25.9246 60.9534 25.479C60.9531 25.0346 60.9674 24.5719 60.9964 24.0908C61.0395 23.5979 61.0815 23.1179 61.1224 22.651C61.1773 22.1722 61.1807 21.7607 61.1323 21.4167C60.4058 22.6994 59.7372 23.6931 59.1266 24.3977C58.5301 25.0906 57.9907 25.5793 57.5083 25.8638C57.04 26.1366 56.6254 26.2441 56.2645 26.1864C55.9047 26.1157 55.6048 25.9587 55.3646 25.7155C55.1386 25.4605 54.9684 25.1646 54.8541 24.8278C54.7409 24.4781 54.6909 24.1535 54.704 23.854C54.6564 23.3531 54.7015 22.7624 54.8395 22.0817C54.9916 21.3892 55.2037 20.6823 55.476 19.9611C55.7612 19.2411 56.0965 18.545 56.4821 17.8729C56.8818 17.189 57.3118 16.6058 57.7723 16.1232C58.2458 15.6418 58.7332 15.2989 59.2347 15.0944C59.7374 14.877 60.2407 14.8753 60.7448 15.0893C61.0065 15.0861 61.2194 15.1178 61.3835 15.1844C61.5617 15.2392 61.7029 15.343 61.8072 15.4959C61.9114 15.6488 61.9782 15.8573 62.0074 16.1212C62.0377 16.3722 62.0488 16.6934 62.0407 17.0848C61.9047 18.3408 61.8435 19.4137 61.8571 20.3037C61.8837 21.1949 61.9323 21.9834 62.0031 22.6692C62.0738 23.3551 62.1436 23.9755 62.2127 24.5305C62.2948 25.0866 62.3232 25.6577 62.2981 26.2437C62.2799 26.4512 62.2139 26.6088 62.0999 26.7165C61.987 26.8112 61.8646 26.8658 61.7326 26.8804C61.5995 26.908 61.4769 26.8907 61.3647 26.8286C61.2654 26.7677 61.2139 26.6847 61.21 26.5798ZM60.9411 16.6553C60.6661 16.213 60.3442 16.0084 59.9753 16.0415C59.6065 16.0746 59.2234 16.2698 58.8262 16.6271C58.443 16.9727 58.0621 17.4426 57.6833 18.0368C57.3057 18.6181 56.9695 19.2487 56.6747 19.9288C56.38 20.6088 56.1436 21.2939 55.9656 21.9842C55.8016 22.6626 55.7289 23.2705 55.7472 23.808C55.8777 24.4076 56.0676 24.7771 56.3168 24.9165C56.566 25.056 56.8483 25.0415 57.1637 24.873C57.4802 24.6916 57.8133 24.394 58.1632 23.9802C58.5131 23.5664 58.8529 23.119 59.1825 22.6381C59.5133 22.1442 59.8111 21.654 60.0758 21.1674C60.3547 20.669 60.5808 20.2509 60.7541 19.9132L60.9411 16.6553ZM64.6465 25.6649C64.876 25.881 65.1652 26.0109 65.5143 26.0545C65.8764 26.0993 66.2565 26.0868 66.6547 26.0171C67.0671 25.9355 67.4834 25.8085 67.9036 25.6362C68.338 25.452 68.7352 25.2449 69.0951 25.015C69.468 24.7862 69.7902 24.5399 70.0616 24.2761C70.3472 24.0005 70.5467 23.7369 70.6602 23.4854C70.7748 23.221 70.7899 22.974 70.7054 22.7444C70.6209 22.5148 70.4028 22.3192 70.0509 22.1577C69.3758 22.2555 68.7034 22.3209 68.034 22.3538C67.3645 22.3867 66.7678 22.3345 66.2439 22.1972C65.733 22.061 65.3302 21.8101 65.0354 21.4445C64.7406 21.0788 64.6368 20.5469 64.7241 19.8488C64.822 19.1777 65.0586 18.5644 65.434 18.0091C65.8234 17.4419 66.2893 16.9729 66.8315 16.6021C67.3866 16.2324 67.9852 15.9646 68.6271 15.7985C69.282 15.6336 69.932 15.599 70.5771 15.6946C70.7057 15.719 70.8213 15.7421 70.924 15.7642C71.0407 15.7744 71.1428 15.8029 71.2302 15.8498C71.3176 15.8967 71.3773 15.9607 71.4094 16.0419C71.4545 16.1243 71.4637 16.2427 71.4371 16.3973C71.4072 16.5907 71.3222 16.7401 71.1823 16.8455C71.0423 16.9509 70.8633 16.981 70.645 16.9357C69.8933 16.7131 69.203 16.6854 68.5741 16.8526C67.9451 17.0198 67.412 17.2868 66.9747 17.6537C66.5386 18.0077 66.2146 18.4238 66.0029 18.9019C65.7911 19.3801 65.726 19.8253 65.8076 20.2376C66.0132 20.7262 66.3049 21.0523 66.6827 21.2161C67.0746 21.368 67.4927 21.4438 67.9372 21.4435C68.3946 21.4443 68.8607 21.4197 69.3356 21.3697C69.8117 21.3068 70.2361 21.3113 70.6088 21.3831C70.9827 21.442 71.2816 21.6119 71.5053 21.8929C71.7302 22.1609 71.8261 22.6333 71.793 23.3101C71.7426 23.737 71.5636 24.1396 71.256 24.5179C70.9496 24.8832 70.567 25.2222 70.1083 25.535C69.6638 25.8359 69.1696 26.1064 68.6257 26.3463C68.0831 26.5734 67.5443 26.755 67.0096 26.8912C66.4878 27.0285 65.9971 27.1097 65.5374 27.1349C65.0908 27.1611 64.7346 27.1235 64.469 27.0218C64.1934 26.7363 64.0599 26.4697 64.0684 26.2221C64.0782 25.9616 64.2709 25.7758 64.6465 25.6649ZM73.6979 26.4568C73.9273 26.6729 74.2166 26.8028 74.5657 26.8464C74.9278 26.8912 75.3079 26.8787 75.7061 26.809C76.1184 26.7274 76.5347 26.6004 76.955 26.4281C77.3894 26.2439 77.7865 26.0368 78.1465 25.8069C78.5194 25.5781 78.8416 25.3318 79.113 25.068C79.3985 24.7924 79.598 24.5288 79.7115 24.2773C79.8262 24.0129 79.8412 23.7658 79.7568 23.5363C79.6723 23.3067 79.4541 23.1111 79.1023 22.9496C78.4271 23.0474 77.7548 23.1128 77.0853 23.1457C76.4158 23.1786 75.8192 23.1264 75.2953 22.9891C74.7844 22.8529 74.3815 22.602 74.0868 22.2364C73.792 21.8707 73.6882 21.3388 73.7754 20.6406C73.8734 19.9695 74.11 19.3563 74.4853 18.801C74.8748 18.2338 75.3406 17.7648 75.8828 17.394C76.438 17.0243 77.0365 16.7564 77.6784 16.5904C78.3333 16.4255 78.9833 16.3909 79.6285 16.4865C79.7571 16.5109 79.8727 16.534 79.9753 16.5561C80.0921 16.5663 80.1941 16.5948 80.2815 16.6417C80.3689 16.6886 80.4287 16.7526 80.4608 16.8338C80.5059 16.9162 80.5151 17.0346 80.4885 17.1892C80.4585 17.3826 80.3736 17.532 80.2336 17.6374C80.0937 17.7428 79.9146 17.7729 79.6964 17.7276C78.9447 17.505 78.2544 17.4773 77.6254 17.6445C76.9965 17.8117 76.4634 18.0787 76.0261 18.4456C75.5899 18.7996 75.266 19.2157 75.0542 19.6938C74.8425 20.172 74.7774 20.6172 74.8589 21.0295C75.0645 21.5181 75.3562 21.8442 75.734 22.008C76.1259 22.1599 76.5441 22.2357 76.9885 22.2353C77.4459 22.2362 77.9121 22.2116 78.387 22.1616C78.863 22.0987 79.2874 22.1032 79.6602 22.175C80.0341 22.2339 80.3329 22.4038 80.5567 22.6848C80.7816 22.9528 80.8775 23.4252 80.8444 24.102C80.794 24.5289 80.615 24.9315 80.3074 25.3097C80.001 25.6751 79.6184 26.0141 79.1597 26.3269C78.7151 26.6278 78.2209 26.8983 77.6771 27.1382C77.1344 27.3652 76.5957 27.5468 76.061 27.6831C75.5392 27.8204 75.0485 27.9016 74.5888 27.9268C74.1421 27.953 73.786 27.9153 73.5204 27.8137C73.2447 27.5282 73.1112 27.2616 73.1198 27.014C73.1295 26.7534 73.3222 26.5677 73.6979 26.4568ZM83.3536 23.4784C83.256 23.5483 83.091 23.5666 82.8587 23.5332C82.6404 23.4879 82.4374 23.4179 82.2497 23.323C82.0749 23.2293 81.9607 23.1148 81.9072 22.9794C81.8549 22.831 81.9469 22.6757 82.1833 22.5134C82.2809 22.4435 82.3827 22.4001 82.4887 22.3833C82.6089 22.3546 82.722 22.3318 82.828 22.3149C82.9482 22.2862 83.0435 22.2423 83.114 22.1831C83.1975 22.125 83.252 22.0252 83.2775 21.8837C83.3415 21.3011 83.4391 20.7084 83.5703 20.1056C83.7144 19.5039 83.9242 18.9733 84.1997 18.5137C84.4752 18.0542 84.8394 17.7005 85.2924 17.4526C85.7584 17.2058 86.3453 17.1461 87.053 17.2733C87.3125 17.296 87.5986 17.3864 87.9116 17.5445C88.2256 17.6896 88.5228 17.879 88.8029 18.1126C89.0843 18.3333 89.3227 18.596 89.5182 18.9006C89.7149 19.1923 89.825 19.5026 89.8485 19.8314C89.928 19.9691 89.8619 20.1267 89.6503 20.3042C89.4387 20.4818 89.147 20.6784 88.7753 20.8942C88.4046 21.0971 87.988 21.3024 87.5254 21.5103C87.0628 21.7182 86.6143 21.9142 86.18 22.0984C85.7586 22.2837 85.3848 22.4471 85.0588 22.5885C84.7327 22.7299 84.5214 22.829 84.425 22.886C84.4585 23.3986 84.4963 23.9378 84.5383 24.5036C84.5803 25.0693 84.6652 25.593 84.793 26.0747C84.9207 26.5564 85.0942 26.9637 85.3135 27.2966C85.5468 27.6176 85.858 27.7952 86.2471 27.8292C86.8145 27.918 87.3083 27.8763 87.7285 27.7039C88.1618 27.5327 88.5294 27.2904 88.8313 26.977C89.1332 26.6635 89.3795 26.3126 89.5704 25.9241C89.7742 25.5367 89.9309 25.1649 90.0405 24.8085C90.1631 24.4532 90.2481 24.1535 90.2956 23.9093C90.3572 23.6533 90.4021 23.5135 90.4303 23.4898C90.5798 23.4244 90.742 23.4386 90.9168 23.5323C91.0927 23.6131 91.18 23.8102 91.1787 24.1238C91.1474 24.6308 90.9867 25.1984 90.6964 25.8266C90.4062 26.4547 90.0297 27.023 89.567 27.5315C89.1172 28.0411 88.5922 28.4396 87.992 28.7269C87.4058 29.0024 86.7995 29.0604 86.173 28.901C85.5126 28.8302 85.0037 28.5961 84.6463 28.1989C84.2901 27.7887 84.0179 27.3139 83.8299 26.7747C83.6559 26.2236 83.5425 25.6516 83.4898 25.0588C83.4371 24.466 83.3917 23.9392 83.3536 23.4784ZM88.8173 19.7412C88.4522 19.1341 88.0624 18.7341 87.6479 18.5409C87.2335 18.3478 86.7965 18.2639 86.3368 18.289C86.061 18.3041 85.8097 18.4128 85.5828 18.6151C85.3571 18.8045 85.1647 19.0622 85.0055 19.3881C84.8474 19.701 84.7242 20.0628 84.636 20.4733C84.549 20.8709 84.5062 21.2854 84.5076 21.7168L88.8173 19.7412ZM105.079 21.3011L103.236 21.7477C103.097 21.6963 102.987 21.6148 102.905 21.503C102.81 21.3902 102.748 21.2737 102.72 21.1535C102.691 21.0334 102.694 20.9226 102.729 20.8211C102.751 20.7184 102.81 20.6452 102.905 20.6012L105.197 19.9586L105.639 14.4489C105.693 14.2837 105.788 14.1678 105.925 14.1014C106.061 14.0349 106.194 14.0138 106.322 14.0381C106.465 14.0506 106.591 14.1073 106.7 14.2084C106.81 14.2964 106.878 14.407 106.906 14.5401C106.845 14.9399 106.788 15.3663 106.735 15.8191C106.684 16.259 106.631 16.7054 106.579 17.1583C106.54 17.5993 106.509 18.0344 106.484 18.4636C106.461 18.8798 106.453 19.2647 106.462 19.6184L109.585 18.6564C109.771 18.6204 109.912 18.6524 110.008 18.7522C110.105 18.8391 110.16 18.9551 110.173 19.1C110.201 19.2331 110.183 19.3623 110.12 19.4875C110.056 19.6126 109.958 19.6955 109.823 19.736L106.344 20.9609C106.333 21.0906 106.312 21.4025 106.282 21.8965C106.253 22.3776 106.216 22.9495 106.171 23.6121C106.126 24.2748 106.077 24.9829 106.024 25.7363C105.971 26.4898 105.916 27.1973 105.858 27.8588C105.813 28.5215 105.769 29.0993 105.726 29.5922C105.697 30.0733 105.677 30.3787 105.666 30.5084C105.602 30.9342 105.46 31.1374 105.24 31.1181C105.019 31.0988 104.788 30.9741 104.547 30.7438L105.079 21.3011ZM111.286 31.0785C110.773 30.9683 110.363 30.7233 110.056 30.3435C109.762 29.965 109.54 29.5142 109.39 28.9913C109.24 28.4684 109.158 27.9058 109.146 27.3034C109.147 26.6892 109.186 26.0914 109.263 25.51C109.381 24.6184 109.618 23.7764 109.975 22.9842C110.344 22.1931 110.769 21.518 111.25 20.9587C111.744 20.3877 112.265 19.9627 112.812 19.6838C113.373 19.3931 113.904 19.3088 114.403 19.4308C114.928 19.5552 115.334 19.8456 115.62 20.302C115.92 20.7596 116.134 21.3076 116.261 21.9461C116.388 22.5846 116.439 23.2753 116.413 24.018C116.388 24.7478 116.32 25.4477 116.21 26.1177C116.078 26.8773 115.847 27.576 115.516 28.2137C115.186 28.8514 114.792 29.392 114.335 29.8357C113.891 30.2804 113.398 30.6163 112.855 30.8433C112.327 31.0585 111.804 31.1369 111.286 31.0785ZM114.111 20.5229C113.688 20.4335 113.274 20.5346 112.869 20.8259C112.479 21.1055 112.111 21.4981 111.766 22.0038C111.435 22.4977 111.143 23.0734 110.89 23.7309C110.637 24.3754 110.45 25.0191 110.328 25.662C110.236 26.1244 110.174 26.6026 110.144 27.0967C110.114 27.5907 110.133 28.0433 110.202 28.4545C110.283 28.8668 110.43 29.2129 110.64 29.4928C110.865 29.7608 111.179 29.9124 111.581 29.9476C111.904 29.9889 112.251 29.9082 112.621 29.7053C113.005 29.5036 113.37 29.2218 113.715 28.8599C114.061 28.485 114.374 28.0549 114.651 27.5694C114.942 27.0851 115.15 26.5804 115.274 26.0554C115.414 25.5056 115.483 24.9366 115.482 24.3483C115.495 23.7482 115.446 23.1885 115.335 22.669C115.236 22.1506 115.08 21.699 114.865 21.3143C114.665 20.9177 114.413 20.6539 114.111 20.5229ZM124.156 20.7155C124.176 20.6388 124.222 20.5579 124.295 20.4728C124.382 20.3758 124.479 20.3124 124.586 20.2826C124.706 20.2539 124.828 20.2841 124.951 20.3733C125.088 20.4506 125.217 20.6187 125.338 20.8777C125.198 21.8719 125.046 22.865 124.881 23.857C124.73 24.8372 124.612 25.8137 124.527 26.7865C124.456 27.7475 124.437 28.7066 124.471 29.6637C124.518 30.622 124.664 31.5628 124.91 32.4862C124.915 32.5781 124.876 32.6531 124.793 32.7111C124.708 32.7822 124.6 32.825 124.468 32.8396C124.335 32.8671 124.204 32.8687 124.075 32.8444C123.947 32.8201 123.848 32.7527 123.779 32.6421L123.382 29.3332C123.316 29.4973 123.145 29.7307 122.87 30.0334C122.608 30.3373 122.301 30.6436 121.947 30.9525C121.607 31.2496 121.257 31.513 120.897 31.743C120.538 31.9599 120.235 32.0641 119.988 32.0555C119.375 32.0411 118.913 31.7851 118.604 31.2875C118.295 30.7898 118.089 30.1575 117.986 29.3904C117.897 28.6115 117.881 27.7539 117.936 26.8177C117.992 25.8815 118.072 24.9735 118.175 24.0937C118.278 23.214 118.38 22.4191 118.481 21.7091C118.583 20.999 118.629 20.4737 118.619 20.133C118.667 20.0327 118.739 19.9605 118.834 19.9166C118.943 19.8738 119.055 19.8575 119.172 19.8677C119.289 19.8779 119.397 19.9135 119.496 19.9745C119.608 20.0366 119.685 20.1218 119.728 20.2301C119.716 20.6734 119.674 21.2252 119.603 21.8856C119.532 22.546 119.457 23.2518 119.379 24.003C119.301 24.7412 119.236 25.4871 119.183 26.2406C119.143 26.9952 119.135 27.6872 119.158 28.3166C119.183 28.9331 119.254 29.4557 119.374 29.8844C119.507 30.3012 119.721 30.5486 120.015 30.6266C120.235 30.6459 120.462 30.5939 120.695 30.4705C120.928 30.3471 121.164 30.1848 121.404 29.9836C121.645 29.7694 121.875 29.5346 122.093 29.2792C122.313 29.0109 122.505 28.7532 122.67 28.5063C122.837 28.2464 122.975 28.0101 123.085 27.7976C123.195 27.585 123.262 27.4209 123.285 27.3053C123.312 27.1508 123.353 26.906 123.408 26.571C123.465 26.2231 123.518 25.8357 123.569 25.4087C123.633 24.97 123.694 24.5047 123.75 24.0129C123.819 23.5223 123.879 23.0635 123.929 22.6366C123.994 22.1979 124.041 21.8098 124.07 21.4726C124.114 21.1235 124.142 20.8711 124.156 20.7155ZM127.072 31.1264C127.302 31.3426 127.591 31.4724 127.94 31.5161C128.302 31.5608 128.682 31.5483 129.08 31.4786C129.493 31.397 129.909 31.2701 130.329 31.0977C130.764 30.9135 131.161 30.7065 131.521 30.4765C131.894 30.2478 132.216 30.0015 132.487 29.7376C132.773 29.462 132.972 29.1984 133.086 28.947C133.2 28.6825 133.215 28.4355 133.131 28.2059C133.047 27.9763 132.828 27.7808 132.477 27.6193C131.801 27.7171 131.129 27.7824 130.46 27.8153C129.79 27.8483 129.193 27.796 128.67 27.6587C128.159 27.5225 127.756 27.2716 127.461 26.906C127.166 26.5404 127.062 26.0085 127.15 25.3103C127.248 24.6392 127.484 24.026 127.86 23.4706C128.249 22.9035 128.715 22.4345 129.257 22.0636C129.812 21.6939 130.411 21.4261 131.053 21.26C131.708 21.0951 132.358 21.0605 133.003 21.1562C133.131 21.1805 133.247 21.2037 133.35 21.2257C133.466 21.2359 133.568 21.2645 133.656 21.3113C133.743 21.3582 133.803 21.4222 133.835 21.5035C133.88 21.5858 133.889 21.7043 133.863 21.8588C133.833 22.0522 133.748 22.2016 133.608 22.307C133.468 22.4124 133.289 22.4425 133.071 22.3973C132.319 22.1747 131.629 22.147 131 22.3141C130.371 22.4813 129.838 22.7484 129.4 23.1153C128.964 23.4692 128.64 23.8853 128.428 24.3635C128.217 24.8416 128.152 25.2868 128.233 25.6992C128.439 26.1877 128.73 26.5138 129.108 26.6776C129.5 26.8295 129.918 26.9053 130.363 26.905C130.82 26.9058 131.286 26.8812 131.761 26.8313C132.237 26.7684 132.662 26.7728 133.034 26.8446C133.408 26.9035 133.707 27.0734 133.931 27.3544C134.156 27.6224 134.252 28.0948 134.219 28.7716C134.168 29.1985 133.989 29.6011 133.682 29.9794C133.375 30.3447 132.993 30.6837 132.534 30.9965C132.089 31.2974 131.595 31.5679 131.051 31.8079C130.509 32.0349 129.97 32.2165 129.435 32.3527C128.913 32.49 128.423 32.5713 127.963 32.5964C127.516 32.6227 127.16 32.585 126.895 32.4833C126.619 32.1978 126.485 31.9312 126.494 31.6837C126.504 31.4231 126.696 31.2374 127.072 31.1264ZM15.0151 35.4938C15.0975 35.4488 15.1798 35.4037 15.2622 35.3586C15.3587 35.3017 15.4529 35.2707 15.5448 35.2657C15.6379 35.2477 15.7151 35.261 15.7766 35.3056C15.851 35.3513 15.9085 35.4413 15.949 35.5755L14.6614 51.6377C14.5852 51.7618 14.4935 51.8387 14.3863 51.8685C14.278 51.9113 14.1731 51.9152 14.0716 51.8802C13.969 51.8582 13.8751 51.8107 13.79 51.7379C13.7178 51.6663 13.6728 51.5839 13.6548 51.4908L15.0151 35.4938ZM17.9841 46.8701C17.8865 46.94 17.7215 46.9582 17.4892 46.9248C17.2709 46.8796 17.0679 46.8096 16.8802 46.7147C16.7054 46.621 16.5912 46.5064 16.5377 46.3711C16.4854 46.2227 16.5774 46.0674 16.8138 45.9051C16.9114 45.8352 17.0132 45.7918 17.1192 45.7749C17.2394 45.7462 17.3525 45.7235 17.4585 45.7066C17.5787 45.6779 17.674 45.634 17.7445 45.5748C17.828 45.5167 17.8825 45.4169 17.908 45.2754C17.972 44.6928 18.0696 44.1001 18.2008 43.4973C18.3449 42.8955 18.5547 42.3649 18.8302 41.9054C19.1057 41.4459 19.4699 41.0922 19.9229 40.8443C20.3889 40.5975 20.9758 40.5377 21.6835 40.665C21.943 40.6877 22.2291 40.7781 22.5421 40.9362C22.8561 41.0813 23.1533 41.2707 23.4334 41.5043C23.7148 41.725 23.9532 41.9877 24.1487 42.2923C24.3454 42.584 24.4555 42.8943 24.479 43.2231C24.5585 43.3607 24.4924 43.5183 24.2808 43.6959C24.0692 43.8734 23.7775 44.0701 23.4057 44.2859C23.0351 44.4888 22.6185 44.6941 22.1559 44.902C21.6933 45.1099 21.2448 45.3059 20.8105 45.4901C20.3891 45.6754 20.0153 45.8388 19.6893 45.9802C19.3632 46.1216 19.1519 46.2207 19.0554 46.2776C19.089 46.7903 19.1268 47.3295 19.1688 47.8952C19.2108 48.4609 19.2957 48.9847 19.4235 49.4664C19.5512 49.9481 19.7247 50.3554 19.9439 50.6883C20.1773 51.0093 20.4885 51.1868 20.8776 51.2209C21.445 51.3097 21.9388 51.268 22.359 51.0956C22.7923 50.9244 23.1599 50.6821 23.4618 50.3686C23.7637 50.0552 24.01 49.7043 24.2009 49.3158C24.4047 48.9284 24.5614 48.5565 24.671 48.2002C24.7936 47.8449 24.8786 47.5452 24.9261 47.301C24.9877 47.045 25.0326 46.9051 25.0608 46.8815C25.2103 46.8161 25.3725 46.8303 25.5473 46.924C25.7232 47.0048 25.8105 47.2019 25.8092 47.5155C25.7779 48.0225 25.6172 48.5901 25.3269 49.2182C25.0367 49.8464 24.6602 50.4147 24.1975 50.9232C23.7477 51.4328 23.2227 51.8312 22.6225 52.1186C22.0363 52.394 21.43 52.4521 20.8035 52.2927C20.1431 52.2219 19.6342 51.9878 19.2768 51.5906C18.9206 51.1804 18.6484 50.7056 18.4604 50.1664C18.2864 49.6152 18.173 49.0433 18.1203 48.4505C18.0676 47.8577 18.0222 47.3309 17.9841 46.8701ZM23.4478 43.1329C23.0827 42.5258 22.6929 42.1257 22.2784 41.9326C21.864 41.7395 21.427 41.6555 20.9673 41.6807C20.6915 41.6958 20.4402 41.8045 20.2133 42.0068C19.9876 42.1962 19.7952 42.4539 19.636 42.7798C19.4779 43.0927 19.3547 43.4544 19.2665 43.865C19.1795 44.2625 19.1367 44.6771 19.1381 45.1085L23.4478 43.1329ZM27.2483 51.5038C27.4778 51.7199 27.767 51.8498 28.1161 51.8934C28.4782 51.9381 28.8583 51.9256 29.2565 51.8559C29.6688 51.7744 30.0851 51.6474 30.5054 51.475C30.9398 51.2908 31.3369 51.0838 31.6969 50.8539C32.0698 50.6251 32.392 50.3788 32.6634 50.115C32.9489 49.8393 33.1484 49.5758 33.2619 49.3243C33.3766 49.0598 33.3917 48.8128 33.3072 48.5832C33.2227 48.3536 33.0045 48.1581 32.6527 47.9966C31.9775 48.0944 31.3052 48.1597 30.6357 48.1927C29.9663 48.2256 29.3696 48.1734 28.8457 48.036C28.3348 47.8999 27.9319 47.6489 27.6372 47.2833C27.3424 46.9177 27.2386 46.3858 27.3258 45.6876C27.4238 45.0165 27.6604 44.4033 28.0358 43.848C28.4252 43.2808 28.891 42.8118 29.4332 42.441C29.9884 42.0713 30.5869 41.8034 31.2289 41.6374C31.8837 41.4725 32.5338 41.4378 33.1789 41.5335C33.3075 41.5578 33.4231 41.581 33.5257 41.6031C33.6425 41.6133 33.7446 41.6418 33.8319 41.6887C33.9193 41.7355 33.9791 41.7996 34.0112 41.8808C34.0563 41.9632 34.0655 42.0816 34.0389 42.2361C34.0089 42.4296 33.924 42.579 33.784 42.6844C33.6441 42.7898 33.465 42.8198 33.2468 42.7746C32.4951 42.552 31.8048 42.5243 31.1758 42.6914C30.5469 42.8586 30.0138 43.1257 29.5765 43.4926C29.1403 43.8466 28.8164 44.2626 28.6046 44.7408C28.3929 45.2189 28.3278 45.6642 28.4094 46.0765C28.615 46.565 28.9067 46.8912 29.2844 47.0549C29.6763 47.2068 30.0945 47.2826 30.5389 47.2823C30.9963 47.2831 31.4625 47.2585 31.9374 47.2086C32.4134 47.1457 32.8378 47.1501 33.2106 47.222C33.5845 47.2808 33.8833 47.4507 34.1071 47.7317C34.332 47.9997 34.4279 48.4721 34.3948 49.1489C34.3444 49.5758 34.1654 49.9784 33.8578 50.3567C33.5514 50.722 33.1688 51.0611 32.7101 51.3738C32.2655 51.6748 31.7713 51.9452 31.2275 52.1852C30.6848 52.4122 30.1461 52.5938 29.6114 52.73C29.0896 52.8674 28.5989 52.9486 28.1392 52.9737C27.6925 53 27.3364 52.9623 27.0708 52.8606C26.7952 52.5751 26.6616 52.3086 26.6702 52.061C26.6799 51.8004 26.8726 51.6147 27.2483 51.5038ZM47.947 42.6883C48.0282 42.6562 48.1218 42.6317 48.2279 42.6148C48.3339 42.598 48.4323 42.5935 48.5231 42.6015C48.6269 42.6105 48.7225 42.6385 48.8099 42.6854C48.8973 42.7322 48.9624 42.8098 49.0052 42.9181C48.9314 43.7612 48.8579 44.6763 48.7846 45.6632C48.7255 46.6384 48.6646 47.6329 48.602 48.647C48.5535 49.6492 48.4997 50.6378 48.4405 51.6129C48.3814 52.588 48.3284 53.4918 48.2818 54.3242C48.2777 54.52 48.2128 54.6646 48.087 54.7581C47.9611 54.8517 47.8269 54.8922 47.6842 54.8798C47.5545 54.8684 47.4358 54.8057 47.3281 54.6918C47.2193 54.5907 47.174 54.4365 47.1922 54.2289L47.947 42.6883ZM48.0608 38.6987C48.0755 38.53 48.1435 38.4249 48.2648 38.3832C48.3872 38.3286 48.5198 38.3075 48.6625 38.32C48.9478 38.3449 49.1144 38.4575 49.1623 38.6578C49.2242 38.8462 49.2444 39.0636 49.2228 39.3101C49.1314 39.4589 49.018 39.5601 48.8826 39.6136C48.7472 39.6671 48.6099 39.6682 48.4706 39.6168C48.3443 39.5665 48.2355 39.4655 48.1442 39.3137C48.0659 39.1631 48.0381 38.9581 48.0608 38.6987ZM51.1112 43.318C51.1355 43.1894 51.1964 43.0902 51.2941 43.0203C51.3917 42.9505 51.4994 42.9141 51.6173 42.9114C51.7363 42.8956 51.8519 42.9188 51.9641 42.9809C52.0774 43.0301 52.169 43.1034 52.2389 43.201L51.4997 50.9787C51.8278 50.0663 52.1289 49.1647 52.4029 48.2737C52.691 47.3709 53.0166 46.5629 53.3796 45.8496C53.7438 45.1234 54.1739 44.5401 54.6698 44.0999C55.167 43.6467 55.7945 43.4206 56.5525 43.4216C56.958 43.4178 57.2975 43.5717 57.5709 43.8832C57.8454 44.1817 58.0654 44.58 58.2309 45.0781C58.4095 45.5773 58.5417 46.1574 58.6276 46.8185C58.7147 47.4666 58.7665 48.1442 58.7831 48.8515C58.8137 49.5469 58.8179 50.2465 58.7955 50.9504C58.7731 51.6543 58.7423 52.3051 58.7031 52.9029C58.6639 53.5007 58.6179 54.0261 58.5652 54.4789C58.5255 54.9329 58.4901 55.2631 58.459 55.4695C58.3489 55.6821 58.1742 55.8106 57.9351 55.855C57.7078 55.9135 57.5146 55.8052 57.3557 55.5298C57.3643 55.2823 57.3947 54.8601 57.4469 54.2634C57.5003 53.6538 57.548 52.9587 57.5902 52.1781C57.6453 51.3987 57.6773 50.5846 57.6862 49.7358C57.7092 48.8752 57.6806 48.0819 57.6003 47.356C57.5342 46.6183 57.3989 45.9986 57.1944 45.4971C57.004 44.9838 56.7236 44.6782 56.3531 44.5805C56.0334 44.5002 55.7002 44.6475 55.3538 45.0224C55.0202 45.3984 54.6819 45.9047 54.3386 46.5413C54.0083 47.179 53.6837 47.9021 53.3646 48.7107C53.0585 49.5205 52.7729 50.3189 52.508 51.1061C52.2561 51.8945 52.0357 52.6202 51.847 53.2834C51.6583 53.9465 51.5286 54.458 51.4579 54.8178C51.4099 54.9182 51.3247 54.9957 51.2023 55.0503C51.0798 55.1049 50.9473 55.126 50.8046 55.1135C50.6738 55.1152 50.5393 55.0838 50.4011 55.0194C50.2759 54.9562 50.1872 54.8504 50.1348 54.702L51.1112 43.318ZM60.9836 60.9448C61.948 60.9769 62.7833 60.8408 63.4896 60.5366C64.1947 60.2454 64.7934 59.8272 65.2855 59.2821C65.7775 58.737 66.1679 58.0849 66.4565 57.326C66.7451 56.567 66.9615 55.7363 67.1058 54.834C67.1958 54.2537 67.2601 53.743 67.2987 53.302C67.3514 52.8492 67.3806 52.44 67.3865 52.0745C67.4064 51.6972 67.4182 51.3388 67.4217 50.9993C67.4253 50.6598 67.43 50.3073 67.4358 49.9418C67.4417 49.5763 67.4498 49.1849 67.4601 48.7676C67.4846 48.3384 67.5207 47.8514 67.5683 47.3066C66.7857 49.0811 66.0732 50.5023 65.4308 51.5701C64.7884 52.638 64.2023 53.4363 63.6724 53.965C63.1555 54.4949 62.6974 54.8012 62.298 54.8839C61.9117 54.9677 61.5826 54.9194 61.3108 54.7387C61.0402 54.5451 60.83 54.2588 60.6802 53.8797C60.5315 53.4877 60.4417 53.0942 60.4109 52.6994C60.4936 52.0531 60.6793 51.3505 60.9679 50.5915C61.2576 49.8195 61.617 49.0733 62.046 48.3527C62.4762 47.6192 62.9596 46.9491 63.4962 46.3426C64.0341 45.723 64.5989 45.2431 65.1907 44.9027C65.7825 44.5624 66.3725 44.3918 66.9608 44.391C67.562 44.3913 68.1411 44.6446 68.698 45.1508C68.7121 45.1389 68.7126 45.2828 68.6995 45.5822C68.6993 45.8828 68.6901 46.2872 68.6718 46.7954C68.6664 47.3046 68.6472 47.8977 68.6142 48.5745C68.5952 49.2394 68.5734 49.9368 68.5488 50.6666C68.5241 51.3964 68.493 52.1256 68.4554 52.8542C68.4308 53.584 68.4107 54.262 68.3951 54.888C68.3025 56.0954 68.0239 57.1886 67.5592 58.1675C67.0945 59.1463 66.5138 59.9581 65.8169 60.603C65.133 61.249 64.3683 61.6984 63.5227 61.9511C62.6901 62.2051 61.8531 62.2103 61.0118 61.9667C60.9729 61.9633 60.9103 61.9317 60.824 61.8719C60.7507 61.8132 60.6921 61.7362 60.6482 61.6408C60.6172 61.5466 60.6204 61.4358 60.6577 61.3084C60.6938 61.1939 60.8024 61.0727 60.9836 60.9448ZM61.4405 52.8091C61.5423 53.2885 61.7099 53.5385 61.9434 53.5589C62.178 53.5664 62.4522 53.4204 62.766 53.1211C63.0938 52.81 63.4448 52.3832 63.819 51.8408C64.1933 51.2985 64.572 50.7042 64.9553 50.0581C65.3527 49.4001 65.7377 48.7345 66.1103 48.0613C66.484 47.3751 66.8332 46.7456 67.1578 46.1728C67.1714 46.0171 67.145 45.871 67.0785 45.7345C67.0261 45.5861 66.8744 45.5271 66.6234 45.5574C66.2145 45.6001 65.8013 45.7665 65.3838 46.0568C64.9804 46.3352 64.5902 46.6866 64.2132 47.1111C63.8374 47.5226 63.483 47.9883 63.1499 48.5081C62.831 49.0161 62.5504 49.534 62.3082 50.0618C62.0671 50.5766 61.8666 51.0753 61.7068 51.558C61.5599 52.0418 61.4711 52.4589 61.4405 52.8091ZM70.3525 56.314C70.4702 54.5206 70.5705 53.0001 70.6535 51.7526C70.7365 50.5051 70.8073 49.4721 70.8658 48.6538C70.9243 47.8355 70.967 47.1988 70.9937 46.7436C71.0346 46.2767 71.0582 45.9324 71.0645 45.7107C71.0838 45.4902 71.0951 45.3605 71.0985 45.3216C71.1031 45.2697 71.1059 45.2373 71.107 45.2243C71.1302 45.1087 71.1971 45.0165 71.3077 44.9478C71.4183 44.879 71.5325 44.8433 71.6504 44.8405C71.7824 44.8259 71.9045 44.8497 72.0167 44.9118C72.1289 44.9738 72.2058 45.0655 72.2475 45.1868L71.9143 49.667C72.1872 48.789 72.5638 48.0704 73.044 47.5112C73.5372 46.9531 74.071 46.5292 74.6453 46.2397C75.2207 45.9371 75.8048 45.7595 76.3976 45.7068C77.0034 45.6552 77.5552 45.6969 78.0532 45.832C78.2184 45.8857 78.3354 45.9678 78.4041 46.0784C78.4858 46.1901 78.521 46.3108 78.5097 46.4405C78.5124 46.5584 78.4698 46.6723 78.3818 46.7822C78.3078 46.8803 78.2102 46.9502 78.0889 46.9919C77.5086 46.9019 76.9528 46.9055 76.4215 47.0028C75.9042 47.0883 75.4197 47.2485 74.9678 47.4834C74.53 47.7065 74.1331 47.9855 73.7771 48.3203C73.434 48.6563 73.154 49.0174 72.9373 49.4036C72.6138 49.9635 72.3718 50.5632 72.2113 51.2027C72.0649 51.8303 71.9509 52.4608 71.8694 53.0941C71.8008 53.7286 71.748 54.3317 71.711 54.9036C71.6871 55.4766 71.6499 55.9766 71.5994 56.4035C71.574 56.545 71.4995 56.6496 71.3759 56.7172C71.2665 56.773 71.1404 56.7947 70.9977 56.7822C70.8669 56.7838 70.733 56.7459 70.5959 56.6686C70.473 56.5794 70.3919 56.4612 70.3525 56.314ZM80.3903 52.3299C80.2927 52.3998 80.1277 52.4181 79.8953 52.3847C79.6771 52.3394 79.4741 52.2694 79.2863 52.1745C79.1115 52.0808 78.9974 51.9663 78.9439 51.8309C78.8915 51.6825 78.9835 51.5272 79.2199 51.3649C79.3175 51.295 79.4193 51.2516 79.5254 51.2348C79.6455 51.2061 79.7586 51.1833 79.8647 51.1664C79.9848 51.1377 80.0802 51.0938 80.1507 51.0346C80.2342 50.9766 80.2887 50.8768 80.3141 50.7352C80.3782 50.1526 80.4758 49.5599 80.6069 48.9571C80.7511 48.3554 80.9609 47.8248 81.2363 47.3653C81.5118 46.9058 81.8761 46.552 82.3291 46.3041C82.7951 46.0573 83.3819 45.9976 84.0897 46.1249C84.3491 46.1475 84.6353 46.2379 84.9482 46.396C85.2623 46.5411 85.5594 46.7305 85.8396 46.9642C86.1209 47.1848 86.3593 47.4475 86.5549 47.7522C86.7516 48.0438 86.8617 48.3541 86.8852 48.6829C86.9646 48.8206 86.8986 48.9782 86.687 49.1557C86.4754 49.3333 86.1837 49.5299 85.8119 49.7458C85.4412 49.9486 85.0246 50.154 84.562 50.3618C84.0995 50.5697 83.651 50.7657 83.2166 50.9499C82.7952 51.1353 82.4215 51.2986 82.0954 51.44C81.7693 51.5814 81.5581 51.6806 81.4616 51.7375C81.4952 52.2502 81.533 52.7894 81.575 53.3551C81.617 53.9208 81.7018 54.4445 81.8296 54.9262C81.9574 55.4079 82.1309 55.8152 82.3501 56.1481C82.5834 56.4691 82.8947 56.6467 83.2838 56.6807C83.8511 56.7696 84.3449 56.7278 84.7652 56.5554C85.1984 56.3842 85.566 56.1419 85.8679 55.8285C86.1698 55.5151 86.4162 55.1641 86.607 54.7756C86.8108 54.3883 86.9675 54.0164 87.0771 53.66C87.1997 53.3047 87.2847 53.005 87.3322 52.7608C87.3939 52.5048 87.4388 52.365 87.467 52.3413C87.6165 52.276 87.7786 52.2901 87.9534 52.3839C88.1293 52.4646 88.2166 52.6618 88.2154 52.9753C88.1841 53.4824 88.0233 54.0499 87.7331 54.6781C87.4429 55.3062 87.0664 55.8745 86.6036 56.383C86.1539 56.8926 85.6288 57.2911 85.0286 57.5784C84.4425 57.8539 83.8361 57.9119 83.2096 57.7526C82.5492 57.6817 82.0403 57.4477 81.683 57.0504C81.3268 56.6402 81.0546 56.1655 80.8665 55.6262C80.6925 55.0751 80.5792 54.5031 80.5265 53.9103C80.4738 53.3175 80.4284 52.7907 80.3903 52.3299ZM85.854 48.5927C85.4888 47.9856 85.099 47.5856 84.6846 47.3925C84.2702 47.1994 83.8331 47.1154 83.3734 47.1405C83.0976 47.1556 82.8463 47.2643 82.6195 47.4667C82.3938 47.656 82.2013 47.9137 82.0421 48.2396C81.884 48.5525 81.7609 48.9143 81.6727 49.3248C81.5856 49.7224 81.5428 50.1369 81.5443 50.5684L85.854 48.5927ZM83.4264 44.518C83.0441 44.4061 82.8431 44.2382 82.8235 44.0143C82.8039 43.7904 82.8968 43.5501 83.1022 43.2936C83.3217 43.0253 83.6078 42.7432 83.9605 42.4473C84.3261 42.1525 84.6906 41.8707 85.054 41.6018C85.2874 41.6223 85.4439 41.7013 85.5234 41.839C85.6028 41.9766 85.6352 42.1298 85.6204 42.2984L85.6068 42.454C85.5661 42.6204 85.4588 42.8005 85.285 42.9945C85.1253 43.1765 84.9326 43.3623 84.7069 43.5517C84.4953 43.7292 84.2708 43.9056 84.0332 44.0809C83.7968 44.2432 83.5946 44.3889 83.4264 44.518ZM95.5013 55.1224C95.3302 55.4342 95.0833 55.7917 94.7604 56.1948C94.4376 56.5978 94.0717 56.971 93.6626 57.3143C93.2535 57.6575 92.8101 57.9455 92.3322 58.1782C91.8685 58.399 91.3967 58.4884 90.9168 58.4464C90.7092 58.4283 90.5429 58.3876 90.4177 58.3244C90.3055 58.2623 90.2015 58.1813 90.1056 58.0814C90.0239 57.9697 89.9504 57.8391 89.885 57.6896C89.8197 57.5401 89.7366 57.3694 89.6358 57.1776C89.5758 56.5188 89.5739 55.7933 89.6301 55.0009C89.6994 54.2096 89.834 53.4176 90.0341 52.6247C90.2471 51.833 90.5216 51.0858 90.8576 50.3833C91.2076 49.6689 91.6259 49.0715 92.1123 48.5913C92.6117 48.1121 93.1823 47.7895 93.8242 47.6235C94.4803 47.4456 95.2148 47.4903 96.028 47.7575C96.1773 46.9471 96.2553 46.1305 96.2619 45.3076C96.2697 44.4718 96.2933 43.6047 96.3327 42.7062C96.344 42.5765 96.4103 42.4908 96.5316 42.4492C96.654 42.3945 96.7871 42.3669 96.931 42.3665C97.0889 42.3541 97.2321 42.3601 97.3607 42.3845C97.5023 42.4099 97.5908 42.4438 97.6263 42.4861C97.5112 43.6524 97.4046 44.7214 97.3065 45.6931C97.2214 46.6659 97.1408 47.5869 97.0648 48.456C96.9899 49.3121 96.9173 50.1423 96.8469 50.9465C96.7765 51.7507 96.7045 52.5744 96.6307 53.4175C96.5699 54.2618 96.4987 55.1509 96.417 56.0848C96.3482 57.0199 96.2651 58.0452 96.1675 59.1607C96.2142 59.3739 96.1794 59.5473 96.0631 59.6809C95.9598 59.8157 95.8352 59.8963 95.6891 59.9227C95.543 59.9491 95.3955 59.9166 95.2467 59.8252C95.1108 59.7349 95.033 59.5777 95.0134 59.3538L95.5013 55.1224ZM95.1172 48.7561C94.6311 48.6352 94.1522 48.7305 93.6805 49.0422C93.223 49.342 92.7994 49.7755 92.41 50.3426C92.0217 50.8968 91.6849 51.534 91.3997 52.254C91.1156 52.9611 90.9111 53.6556 90.7861 54.3374C90.6752 55.0074 90.6543 55.6198 90.7234 56.1749C90.7925 56.7299 90.9865 57.1259 91.3056 57.3629C91.6299 57.3913 91.9574 57.3089 92.288 57.1156C92.6197 56.9093 92.9371 56.643 93.2401 56.3166C93.5561 55.9914 93.8496 55.6249 94.1205 55.2173C94.4056 54.7978 94.6571 54.3885 94.875 53.9893C95.0929 53.5901 95.262 53.2259 95.3823 52.8966C95.5167 52.5554 95.5919 52.294 95.6078 52.1124C95.6202 51.9698 95.6424 51.7168 95.6741 51.3536C95.7059 50.9904 95.7123 50.6185 95.6933 50.2378C95.6873 49.8582 95.6384 49.5206 95.5467 49.225C95.4679 48.9306 95.3247 48.7743 95.1172 48.7561ZM99.4728 47.1962C99.554 47.1641 99.6477 47.1396 99.7537 47.1228C99.8598 47.1059 99.9582 47.1014 100.049 47.1094C100.153 47.1185 100.248 47.1464 100.336 47.1933C100.423 47.2401 100.488 47.3177 100.531 47.426C100.457 48.2692 100.384 49.1842 100.31 50.1712C100.251 51.1463 100.19 52.1409 100.128 53.1549C100.079 54.1571 100.026 55.1457 99.9664 56.1209C99.9072 57.096 99.8543 57.9997 99.8076 58.8322C99.8035 59.0279 99.7386 59.1725 99.6128 59.2661C99.487 59.3596 99.3527 59.4002 99.21 59.3877C99.0803 59.3763 98.9616 59.3137 98.854 59.1997C98.7452 59.0987 98.6999 58.9444 98.718 58.7368L99.4728 47.1962ZM99.5866 43.2066C99.6013 43.038 99.6694 42.9328 99.7906 42.8911C99.9131 42.8365 100.046 42.8154 100.188 42.8279C100.474 42.8529 100.64 42.9655 100.688 43.1657C100.75 43.3541 100.77 43.5715 100.749 43.818C100.657 43.9668 100.544 44.068 100.408 44.1215C100.273 44.175 100.136 44.1761 99.9964 44.1247C99.8701 44.0744 99.7613 43.9734 99.67 43.8217C99.5917 43.671 99.5639 43.466 99.5866 43.2066ZM102.855 54.2954C102.758 54.3653 102.593 54.3835 102.36 54.3501C102.142 54.3049 101.939 54.2348 101.751 54.14C101.577 54.0463 101.462 53.9317 101.409 53.7963C101.356 53.648 101.448 53.4926 101.685 53.3303C101.782 53.2604 101.884 53.2171 101.99 53.2002C102.111 53.1715 102.224 53.1487 102.33 53.1319C102.45 53.1032 102.545 53.0592 102.616 53C102.699 52.942 102.754 52.8422 102.779 52.7006C102.843 52.1181 102.941 51.5254 103.072 50.9225C103.216 50.3208 103.426 49.7902 103.701 49.3307C103.977 48.8712 104.341 48.5175 104.794 48.2695C105.26 48.0228 105.847 47.963 106.555 48.0903C106.814 48.113 107.1 48.2034 107.413 48.3615C107.727 48.5066 108.024 48.6959 108.305 48.9296C108.586 49.1503 108.824 49.4129 109.02 49.7176C109.217 50.0093 109.327 50.3195 109.35 50.6483C109.43 50.786 109.364 50.9436 109.152 51.1212C108.94 51.2987 108.649 51.4954 108.277 51.7112C107.906 51.914 107.49 52.1194 107.027 52.3273C106.564 52.5351 106.116 52.7312 105.682 52.9154C105.26 53.1007 104.886 53.2641 104.56 53.4054C104.234 53.5468 104.023 53.646 103.927 53.7029C103.96 54.2156 103.998 54.7548 104.04 55.3205C104.082 55.8862 104.167 56.4099 104.295 56.8916C104.422 57.3734 104.596 57.7807 104.815 58.1135C105.048 58.4346 105.36 58.6121 105.749 58.6461C106.316 58.735 106.81 58.6932 107.23 58.5209C107.663 58.3497 108.031 58.1073 108.333 57.7939C108.635 57.4805 108.881 57.1295 109.072 56.741C109.276 56.3537 109.432 55.9818 109.542 55.6254C109.665 55.2702 109.75 54.9705 109.797 54.7263C109.859 54.4702 109.904 54.3304 109.932 54.3067C110.081 54.2414 110.244 54.2556 110.418 54.3493C110.594 54.43 110.682 54.6272 110.68 54.9408C110.649 55.4478 110.488 56.0154 110.198 56.6435C109.908 57.2716 109.531 57.8399 109.069 58.3484C108.619 58.858 108.094 59.2565 107.494 59.5438C106.907 59.8193 106.301 59.8774 105.675 59.718C105.014 59.6471 104.505 59.4131 104.148 59.0158C103.792 58.6056 103.52 58.1309 103.331 57.5916C103.157 57.0405 103.044 56.4685 102.991 55.8758C102.939 55.283 102.893 54.7562 102.855 54.2954ZM108.319 50.5581C107.954 49.9511 107.564 49.551 107.15 49.3579C106.735 49.1648 106.298 49.0808 105.838 49.1059C105.563 49.121 105.311 49.2297 105.084 49.4321C104.859 49.6215 104.666 49.8791 104.507 50.205C104.349 50.518 104.226 50.8797 104.138 51.2902C104.051 51.6878 104.008 52.1023 104.009 52.5338L108.319 50.5581ZM112.817 48.7166C112.841 48.588 112.902 48.4888 113 48.4189C113.097 48.349 113.205 48.3127 113.323 48.3099C113.442 48.2942 113.558 48.3174 113.67 48.3795C113.783 48.4286 113.875 48.502 113.945 48.5996L113.205 56.3772C113.534 55.4649 113.835 54.5632 114.109 53.6722C114.397 52.7694 114.722 51.9614 115.085 51.2481C115.449 50.5219 115.88 49.9387 116.376 49.4985C116.873 49.0453 117.5 48.8192 118.258 48.8201C118.664 48.8164 119.003 48.9703 119.277 49.2817C119.551 49.5802 119.771 49.9785 119.937 50.4766C120.115 50.9758 120.247 51.556 120.333 52.217C120.42 52.8651 120.472 53.5428 120.489 54.25C120.519 54.9455 120.524 55.6451 120.501 56.3489C120.479 57.0528 120.448 57.7036 120.409 58.3015C120.37 58.8993 120.324 59.4246 120.271 59.8775C120.231 60.3315 120.196 60.6617 120.165 60.8681C120.055 61.0806 119.88 61.2091 119.641 61.2536C119.413 61.3121 119.22 61.2037 119.061 60.9284C119.07 60.6808 119.1 60.2587 119.153 59.662C119.206 59.0523 119.254 58.3572 119.296 57.5767C119.351 56.7973 119.383 55.9832 119.392 55.1344C119.415 54.2737 119.386 53.4804 119.306 52.7545C119.24 52.0168 119.105 51.3972 118.9 50.8957C118.71 50.3823 118.429 50.0768 118.059 49.979C117.739 49.8988 117.406 50.0461 117.059 50.421C116.726 50.797 116.388 51.3033 116.044 51.9398C115.714 52.5775 115.389 53.3007 115.07 54.1093C114.764 54.919 114.479 55.7175 114.214 56.5047C113.962 57.293 113.741 58.0188 113.553 58.6819C113.364 59.3451 113.234 59.8565 113.164 60.2163C113.116 60.3167 113.03 60.3942 112.908 60.4488C112.786 60.5035 112.653 60.5246 112.51 60.5121C112.379 60.5137 112.245 60.4823 112.107 60.418C111.982 60.3547 111.893 60.2489 111.84 60.1006L112.817 48.7166ZM123.686 52.0398L121.843 52.4863C121.704 52.435 121.593 52.3534 121.511 52.2417C121.417 52.1288 121.355 52.0123 121.326 51.8922C121.298 51.772 121.301 51.6612 121.336 51.5597C121.358 51.4571 121.417 51.3838 121.512 51.3399L123.803 50.6973L124.246 45.1875C124.3 45.0223 124.395 44.9065 124.531 44.84C124.668 44.7735 124.8 44.7524 124.929 44.7768C125.072 44.7892 125.197 44.846 125.306 44.947C125.416 45.035 125.485 45.1456 125.512 45.2787C125.451 45.6786 125.394 46.1049 125.342 46.5578C125.29 46.9977 125.238 47.4441 125.185 47.8969C125.147 48.3379 125.115 48.773 125.091 49.2022C125.067 49.6184 125.06 50.0034 125.068 50.357L128.191 49.3951C128.377 49.3591 128.518 49.391 128.614 49.4909C128.711 49.5778 128.766 49.6937 128.78 49.8387C128.807 49.9718 128.79 50.1009 128.726 50.2261C128.663 50.3513 128.564 50.4341 128.43 50.4747L124.951 51.6995C124.939 51.8292 124.919 52.1411 124.888 52.6352C124.859 53.1162 124.822 53.6881 124.778 54.3508C124.733 55.0134 124.684 55.7215 124.631 56.475C124.578 57.2285 124.523 57.936 124.465 58.5975C124.42 59.2602 124.376 59.838 124.333 60.3309C124.304 60.8119 124.284 61.1173 124.272 61.247C124.209 61.6728 124.067 61.8761 123.846 61.8568C123.626 61.8375 123.395 61.7127 123.154 61.4825L123.686 52.0398ZM128.082 60.3256C128.311 60.5417 128.601 60.6716 128.95 60.7152C129.312 60.7599 129.692 60.7474 130.09 60.6777C130.502 60.5962 130.919 60.4692 131.339 60.2968C131.773 60.1126 132.171 59.9056 132.53 59.6757C132.903 59.4469 133.226 59.2006 133.497 58.9368C133.783 58.6611 133.982 58.3976 134.096 58.1461C134.21 57.8816 134.225 57.6346 134.141 57.405C134.056 57.1754 133.838 56.9799 133.486 56.8184C132.811 56.9162 132.139 56.9815 131.469 57.0144C130.8 57.0474 130.203 56.9952 129.679 56.8578C129.168 56.7216 128.766 56.4707 128.471 56.1051C128.176 55.7395 128.072 55.2076 128.159 54.5094C128.257 53.8383 128.494 53.2251 128.869 52.6697C129.259 52.1026 129.725 51.6336 130.267 51.2628C130.822 50.8931 131.421 50.6252 132.062 50.4592C132.717 50.2943 133.367 50.2596 134.013 50.3553C134.141 50.3796 134.257 50.4028 134.359 50.4248C134.476 50.4351 134.578 50.4636 134.666 50.5105C134.753 50.5573 134.813 50.6214 134.845 50.7026C134.89 50.785 134.899 50.9034 134.873 51.0579C134.843 51.2514 134.758 51.4008 134.618 51.5062C134.478 51.6116 134.299 51.6416 134.08 51.5964C133.329 51.3738 132.638 51.3461 132.009 51.5132C131.38 51.6804 130.847 51.9475 130.41 52.3144C129.974 52.6684 129.65 53.0844 129.438 53.5626C129.226 54.0407 129.161 54.486 129.243 54.8983C129.449 55.3868 129.74 55.713 130.118 55.8767C130.51 56.0286 130.928 56.1044 131.373 56.1041C131.83 56.1049 132.296 56.0803 132.771 56.0304C133.247 55.9675 133.671 55.9719 134.044 56.0438C134.418 56.1026 134.717 56.2725 134.941 56.5535C135.166 56.8215 135.261 57.2939 135.228 57.9707C135.178 58.3976 134.999 58.8002 134.691 59.1785C134.385 59.5438 134.002 59.8829 133.544 60.1956C133.099 60.4966 132.605 60.767 132.061 61.007C131.518 61.234 130.98 61.4156 130.445 61.5518C129.923 61.6891 129.432 61.7704 128.973 61.7955C128.526 61.8218 128.17 61.7841 127.904 61.6824C127.629 61.3969 127.495 61.1304 127.504 60.8828C127.514 60.6222 127.706 60.4365 128.082 60.3256ZM7.73683 76.5548C7.56577 76.8666 7.31884 77.224 6.99602 77.6271C6.6732 78.0302 6.30725 78.4034 5.89818 78.7466C5.4891 79.0899 5.04565 79.3779 4.56782 79.6106C4.1041 79.8314 3.63227 79.9208 3.15233 79.8788C2.94479 79.8607 2.77844 79.82 2.65326 79.7567C2.54106 79.6946 2.43705 79.6137 2.34122 79.5138C2.2595 79.4021 2.18597 79.2715 2.12062 79.122C2.05528 78.9725 1.97218 78.8018 1.87132 78.61C1.81133 77.9512 1.80945 77.2257 1.86571 76.4333C1.93493 75.642 2.06958 74.85 2.26965 74.0571C2.4827 73.2654 2.75719 72.5182 3.09314 71.8156C3.4432 71.1012 3.86143 70.5039 4.34785 70.0236C4.84724 69.5445 5.41789 69.2219 6.0598 69.0559C6.71582 68.878 7.4504 68.9227 8.26354 69.1899C8.41287 68.3795 8.49085 67.5629 8.49748 66.74C8.50526 65.9042 8.52884 65.037 8.56823 64.1386C8.57958 64.0089 8.64589 63.9232 8.76717 63.8815C8.88959 63.8269 9.02271 63.7993 9.16653 63.7988C9.32445 63.7865 9.4677 63.7925 9.59628 63.8168C9.73783 63.8423 9.82636 63.8762 9.86187 63.9185C9.74676 65.0848 9.64017 66.1538 9.54208 67.1255C9.45697 68.0983 9.3764 69.0193 9.30036 69.8884C9.22546 70.7445 9.15283 71.5746 9.08247 72.3789C9.01211 73.1831 8.94005 74.0067 8.86628 74.8499C8.80549 75.6942 8.73424 76.5833 8.65253 77.5172C8.58379 78.4523 8.50063 79.4776 8.40303 80.5931C8.44973 80.8063 8.41495 80.9797 8.2987 81.1133C8.19542 81.2481 8.07073 81.3286 7.92464 81.3551C7.77855 81.3815 7.63109 81.349 7.48224 81.2575C7.34637 81.1672 7.26862 81.0101 7.249 80.7862L7.73683 76.5548ZM7.35273 70.1885C6.86663 70.0676 6.38775 70.1629 5.91608 70.4745C5.45852 70.7743 5.03502 71.2078 4.64556 71.775C4.25724 72.3292 3.92048 72.9663 3.63528 73.6864C3.35122 74.3935 3.14669 75.088 3.02168 75.7698C2.91079 76.4397 2.88988 77.0522 2.95895 77.6072C3.02803 78.1622 3.22212 78.5583 3.54122 78.7953C3.8655 78.8237 4.19294 78.7412 4.52354 78.548C4.85528 78.3417 5.17267 78.0754 5.47571 77.749C5.79172 77.4237 6.08519 77.0573 6.35612 76.6497C6.64116 76.2302 6.89264 75.8209 7.11055 75.4217C7.32846 75.0225 7.49757 74.6582 7.61787 74.3289C7.75229 73.9878 7.82744 73.7264 7.84332 73.5448C7.85581 73.4021 7.87794 73.1492 7.90971 72.786C7.94149 72.4228 7.94789 72.0509 7.92891 71.6701C7.92291 71.2906 7.87402 70.953 7.78224 70.6574C7.70344 70.363 7.56027 70.2067 7.35273 70.1885ZM11.6236 75.4244C11.526 75.4943 11.361 75.5125 11.1286 75.4791C10.9104 75.4339 10.7074 75.3639 10.5196 75.269C10.3449 75.1753 10.2307 75.0607 10.1772 74.9254C10.1248 74.777 10.2168 74.6217 10.4532 74.4594C10.5508 74.3895 10.6527 74.3461 10.7587 74.3292C10.8789 74.3005 10.9919 74.2778 11.098 74.2609C11.2181 74.2322 11.3135 74.1883 11.384 74.1291C11.4675 74.071 11.522 73.9712 11.5474 73.8297C11.6115 73.2471 11.7091 72.6544 11.8402 72.0516C11.9844 71.4499 12.1942 70.9192 12.4697 70.4597C12.7451 70.0002 13.1094 69.6465 13.5624 69.3986C14.0284 69.1518 14.6152 69.092 15.323 69.2193C15.5824 69.242 15.8686 69.3324 16.1815 69.4905C16.4956 69.6356 16.7927 69.825 17.0729 70.0586C17.3542 70.2793 17.5927 70.542 17.7882 70.8466C17.9849 71.1383 18.095 71.4486 18.1185 71.7774C18.1979 71.915 18.1319 72.0726 17.9203 72.2502C17.7087 72.4277 17.417 72.6244 17.0452 72.8402C16.6746 73.0431 16.2579 73.2484 15.7954 73.4563C15.3328 73.6642 14.8843 73.8602 14.4499 74.0444C14.0285 74.2297 13.6548 74.3931 13.3287 74.5345C13.0027 74.6759 12.7914 74.775 12.6949 74.8319C12.7285 75.3446 12.7663 75.8838 12.8083 76.4495C12.8503 77.0152 12.9352 77.539 13.0629 78.0207C13.1907 78.5024 13.3642 78.9097 13.5834 79.2426C13.8167 79.5636 14.128 79.7411 14.5171 79.7752C15.0844 79.864 15.5782 79.8223 15.9985 79.6499C16.4318 79.4787 16.7993 79.2364 17.1012 78.9229C17.4031 78.6095 17.6495 78.2586 17.8403 77.8701C18.0441 77.4827 18.2008 77.1108 18.3104 76.7545C18.433 76.3992 18.5181 76.0995 18.5656 75.8553C18.6272 75.5993 18.6721 75.4594 18.7003 75.4358C18.8498 75.3704 19.0119 75.3846 19.1867 75.4783C19.3626 75.5591 19.45 75.7562 19.4487 76.0698C19.4174 76.5768 19.2566 77.1444 18.9664 77.7725C18.6762 78.4007 18.2997 78.969 17.8369 79.4775C17.3872 79.9871 16.8622 80.3855 16.2619 80.6729C15.6758 80.9483 15.0695 81.0064 14.4429 80.847C13.7825 80.7762 13.2737 80.5421 12.9163 80.1449C12.5601 79.7347 12.2879 79.2599 12.0998 78.7207C11.9258 78.1695 11.8125 77.5976 11.7598 77.0048C11.7071 76.412 11.6617 75.8852 11.6236 75.4244ZM17.0873 71.6872C16.7221 71.0801 16.3323 70.68 15.9179 70.4869C15.5035 70.2938 15.0664 70.2098 14.6068 70.235C14.3309 70.2501 14.0796 70.3588 13.8528 70.5611C13.6271 70.7505 13.4346 71.0082 13.2754 71.3341C13.1173 71.647 12.9942 72.0087 12.906 72.4193C12.8189 72.8169 12.7761 73.2314 12.7776 73.6628L17.0873 71.6872ZM32.1397 77.435C32.2251 76.9066 32.3176 76.3723 32.4172 75.832C32.5167 75.2917 32.6405 74.7732 32.7885 74.2764C32.9377 73.7666 33.1165 73.2921 33.3248 72.8529C33.5332 72.4136 33.7818 72.0367 34.0707 71.7222C34.3726 71.4088 34.7202 71.1712 35.1134 71.0096C35.5195 70.849 35.988 70.7985 36.5186 70.858C36.8818 70.8898 37.1471 71.0699 37.3144 71.3982C37.4829 71.7136 37.5873 72.0887 37.6277 72.5235C37.6811 72.9595 37.6879 73.4045 37.6481 73.8585C37.6214 74.3137 37.5955 74.6839 37.5706 74.9693C37.3692 75.0301 37.2006 75.0153 37.0647 74.925C36.9418 74.8358 36.8423 74.703 36.7663 74.5264C36.7043 74.338 36.6511 74.1242 36.6067 73.885C36.5623 73.6459 36.5243 73.4073 36.4929 73.1693C36.4744 72.9324 36.4418 72.7073 36.3951 72.4941C36.3614 72.282 36.3113 72.1077 36.2448 71.9712C36.0204 71.847 35.7906 71.8596 35.5553 72.0089C35.32 72.1583 35.0974 72.3871 34.8874 72.6955C34.6786 72.9909 34.4771 73.3524 34.2828 73.7798C34.1016 74.2083 33.9392 74.645 33.7957 75.0899C33.6533 75.5219 33.5316 75.9426 33.4304 76.352C33.3292 76.7614 33.2662 77.1088 33.2412 77.3941C33.2201 77.7844 33.2222 78.2094 33.2473 78.669C33.2736 79.1157 33.341 79.5399 33.4497 79.9415C33.5583 80.3432 33.7169 80.6969 33.9254 81.0027C34.135 81.2955 34.4181 81.4967 34.7745 81.6063C35.2674 81.6494 35.6892 81.6079 36.0401 81.4818C36.4051 81.3438 36.7086 81.1612 36.9507 80.934C37.2069 80.695 37.4134 80.4256 37.5704 80.1256C37.7273 79.8256 37.8583 79.5234 37.9634 79.2189C38.0696 78.9014 38.1541 78.6082 38.2168 78.3392C38.2937 78.0584 38.366 77.8294 38.4338 77.6524C38.779 77.5911 39.0378 77.6203 39.2103 77.7399C39.3958 77.8607 39.4823 77.9924 39.4699 78.1351C39.4176 78.7318 39.2617 79.3194 39.0019 79.8979C38.7433 80.4635 38.399 80.9627 37.969 81.3956C37.552 81.8297 37.0586 82.1656 36.4889 82.4033C35.9191 82.641 35.2905 82.7298 34.603 82.6696C34.0193 82.6185 33.5552 82.395 33.2108 81.9989C32.8676 81.5898 32.6084 81.1162 32.4333 80.578C32.2711 80.041 32.1696 79.4832 32.1288 78.9045C32.1009 78.3269 32.1045 77.8371 32.1397 77.435ZM41.9297 78.0759C41.8321 78.1457 41.6671 78.164 41.4348 78.1306C41.2165 78.0853 41.0135 78.0153 40.8258 77.9205C40.651 77.8267 40.5368 77.7122 40.4833 77.5768C40.4309 77.4284 40.5229 77.2731 40.7593 77.1108C40.857 77.0409 40.9588 76.9975 41.0648 76.9807C41.185 76.952 41.2981 76.9292 41.4041 76.9123C41.5242 76.8836 41.6196 76.8397 41.6901 76.7805C41.7736 76.7225 41.8281 76.6227 41.8535 76.4811C41.9176 75.8985 42.0152 75.3058 42.1464 74.703C42.2905 74.1013 42.5003 73.5707 42.7758 73.1112C43.0512 72.6517 43.4155 72.2979 43.8685 72.05C44.3345 71.8032 44.9214 71.7435 45.6291 71.8708C45.8885 71.8935 46.1747 71.9838 46.4876 72.1419C46.8017 72.287 47.0988 72.4764 47.379 72.7101C47.6603 72.9307 47.8988 73.1934 48.0943 73.4981C48.291 73.7898 48.4011 74.1 48.4246 74.4288C48.5041 74.5665 48.438 74.7241 48.2264 74.9016C48.0148 75.0792 47.7231 75.2759 47.3513 75.4917C46.9807 75.6945 46.5641 75.8999 46.1015 76.1077C45.6389 76.3156 45.1904 76.5116 44.756 76.6958C44.3346 76.8812 43.9609 77.0445 43.6348 77.1859C43.3088 77.3273 43.0975 77.4265 43.001 77.4834C43.0346 77.9961 43.0724 78.5353 43.1144 79.101C43.1564 79.6667 43.2413 80.1904 43.369 80.6721C43.4968 81.1538 43.6703 81.5611 43.8895 81.894C44.1229 82.215 44.4341 82.3926 44.8232 82.4266C45.3906 82.5155 45.8844 82.4737 46.3046 82.3014C46.7379 82.1301 47.1054 81.8878 47.4073 81.5744C47.7092 81.261 47.9556 80.91 48.1464 80.5215C48.3502 80.1342 48.507 79.7623 48.6166 79.4059C48.7391 79.0507 48.8242 78.7509 48.8717 78.5067C48.9333 78.2507 48.9782 78.1109 49.0064 78.0872C49.1559 78.0219 49.318 78.036 49.4928 78.1298C49.6688 78.2105 49.7561 78.4077 49.7548 78.7213C49.7235 79.2283 49.5627 79.7958 49.2725 80.424C48.9823 81.0521 48.6058 81.6204 48.1431 82.1289C47.6933 82.6385 47.1683 83.037 46.568 83.3243C45.9819 83.5998 45.3756 83.6578 44.7491 83.4985C44.0887 83.4276 43.5798 83.1936 43.2224 82.7963C42.8662 82.3861 42.594 81.9114 42.4059 81.3721C42.232 80.821 42.1186 80.249 42.0659 79.6562C42.0132 79.0635 41.9678 78.5367 41.9297 78.0759ZM47.3934 74.3386C47.0282 73.7316 46.6385 73.3315 46.224 73.1384C45.8096 72.9453 45.3725 72.8613 44.9129 72.8864C44.6371 72.9015 44.3857 73.0102 44.1589 73.2126C43.9332 73.402 43.7408 73.6596 43.5815 73.9855C43.4235 74.2984 43.3003 74.6602 43.2121 75.0707C43.125 75.4683 43.0822 75.8828 43.0837 76.3143L47.3934 74.3386ZM52.6971 74.9399L50.8543 75.3864C50.715 75.335 50.6045 75.2535 50.5228 75.1418C50.4281 75.0289 50.3664 74.9124 50.3377 74.7923C50.309 74.6721 50.3122 74.5613 50.3472 74.4598C50.3692 74.3572 50.4279 74.2839 50.5233 74.2399L52.8146 73.5973L53.2574 68.0876C53.3111 67.9224 53.4062 67.8065 53.5427 67.7401C53.6792 67.6736 53.8117 67.6525 53.9403 67.6768C54.083 67.6893 54.2087 67.7461 54.3175 67.8471C54.4275 67.9351 54.4962 68.0457 54.5238 68.1788C54.4627 68.5787 54.4058 69.005 54.3531 69.4579C54.3015 69.8978 54.2494 70.3441 54.1967 70.797C54.1581 71.238 54.1266 71.6731 54.1021 72.1023C54.0788 72.5185 54.0712 72.9034 54.0795 73.2571L57.2026 72.2951C57.3887 72.2591 57.5297 72.2911 57.6255 72.391C57.7225 72.4779 57.7777 72.5938 57.7911 72.7387C57.8187 72.8719 57.8009 73.001 57.7376 73.1262C57.6744 73.2514 57.5757 73.3342 57.4414 73.3747L53.962 74.5996C53.9507 74.7293 53.9299 75.0412 53.8998 75.5352C53.8708 76.0163 53.8338 76.5882 53.7889 77.2508C53.744 77.9135 53.6951 78.6216 53.6423 79.3751C53.5894 80.1285 53.5341 80.836 53.4762 81.4976C53.4313 82.1602 53.3873 82.738 53.3441 83.2309C53.3151 83.712 53.2949 84.0174 53.2836 84.1471C53.2202 84.5729 53.0782 84.7761 52.8577 84.7568C52.6372 84.7376 52.4063 84.6128 52.1651 84.3826L52.6971 74.9399ZM59.2191 75.5105L57.3763 75.957C57.237 75.9056 57.1265 75.8241 57.0448 75.7124C56.9501 75.5995 56.8884 75.483 56.8597 75.3629C56.831 75.2427 56.8341 75.1319 56.8692 75.0304C56.8912 74.9278 56.9499 74.8545 57.0452 74.8105L59.3365 74.1679L59.7794 68.6582C59.833 68.493 59.9281 68.3771 60.0646 68.3107C60.2012 68.2442 60.3337 68.2231 60.4623 68.2474C60.605 68.2599 60.7307 68.3167 60.8395 68.4177C60.9494 68.5057 61.0182 68.6163 61.0458 68.7494C60.9846 69.1492 60.9277 69.5756 60.875 70.0285C60.8235 70.4683 60.7714 70.9147 60.7187 71.3676C60.6801 71.8086 60.6485 72.2437 60.6241 72.6729C60.6007 73.0891 60.5932 73.474 60.6015 73.8277L63.7245 72.8657C63.9107 72.8297 64.0516 72.8617 64.1475 72.9616C64.2444 73.0485 64.2996 73.1644 64.3131 73.3093C64.3407 73.4425 64.3228 73.5716 64.2596 73.6968C64.1964 73.822 64.0976 73.9048 63.9634 73.9453L60.484 75.1702C60.4727 75.2999 60.4519 75.6118 60.4218 76.1058C60.3927 76.5869 60.3558 77.1588 60.3109 77.8214C60.266 78.4841 60.2171 79.1922 60.1642 79.9457C60.1114 80.6991 60.056 81.4066 59.9981 82.0682C59.9532 82.7308 59.9092 83.3086 59.8661 83.8015C59.8371 84.2826 59.8169 84.588 59.8056 84.7177C59.7422 85.1435 59.6002 85.3467 59.3797 85.3274C59.1592 85.3082 58.9283 85.1834 58.687 84.9531L59.2191 75.5105ZM64.2195 80.026C64.1219 80.0958 63.957 80.1141 63.7246 80.0807C63.5064 80.0355 63.3034 79.9654 63.1156 79.8706C62.9408 79.7769 62.8267 79.6623 62.7732 79.5269C62.7208 79.3786 62.8128 79.2232 63.0492 79.0609C63.1468 78.991 63.2486 78.9477 63.3547 78.9308C63.4748 78.9021 63.5879 78.8793 63.694 78.8624C63.8141 78.8337 63.9094 78.7898 63.98 78.7306C64.0635 78.6726 64.1179 78.5728 64.1434 78.4312C64.2074 77.8487 64.305 77.2559 64.4362 76.6531C64.5803 76.0514 64.7902 75.5208 65.0656 75.0613C65.3411 74.6018 65.7053 74.2481 66.1584 74.0001C66.6243 73.7534 67.2112 73.6936 67.919 73.8209C68.1784 73.8436 68.4646 73.934 68.7775 74.092C69.0916 74.2372 69.3887 74.4265 69.6689 74.6602C69.9502 74.8808 70.1886 75.1435 70.3842 75.4482C70.5809 75.7399 70.691 76.0501 70.7145 76.3789C70.7939 76.5166 70.7278 76.6742 70.5163 76.8517C70.3047 77.0293 70.013 77.226 69.6412 77.4418C69.2705 77.6446 68.8539 77.85 68.3913 78.0579C67.9287 78.2657 67.4803 78.4618 67.0459 78.646C66.6245 78.8313 66.2508 78.9946 65.9247 79.136C65.5986 79.2774 65.3874 79.3766 65.2909 79.4335C65.3245 79.9462 65.3622 80.4854 65.4042 81.0511C65.4462 81.6168 65.5311 82.1405 65.6589 82.6222C65.7867 83.1039 65.9602 83.5112 66.1794 83.8441C66.4127 84.1652 66.7239 84.3427 67.1131 84.3767C67.6804 84.4656 68.1742 84.4238 68.5945 84.2515C69.0277 84.0802 69.3953 83.8379 69.6972 83.5245C69.9991 83.2111 70.2455 82.8601 70.4363 82.4716C70.6401 82.0843 70.7968 81.7124 70.9064 81.356C71.029 81.0008 71.114 80.701 71.1615 80.4569C71.2231 80.2008 71.2681 80.061 71.2963 80.0373C71.4458 79.972 71.6079 79.9862 71.7827 80.0799C71.9586 80.1606 72.0459 80.3578 72.0446 80.6714C72.0133 81.1784 71.8526 81.746 71.5624 82.3741C71.2721 83.0022 70.8957 83.5705 70.4329 84.079C69.9831 84.5886 69.4581 84.9871 68.8579 85.2744C68.2718 85.5499 67.6654 85.608 67.0389 85.4486C66.3785 85.3777 65.8696 85.1437 65.5123 84.7464C65.156 84.3362 64.8839 83.8615 64.6958 83.3222C64.5218 82.7711 64.4085 82.1991 64.3558 81.6064C64.3031 81.0136 64.2577 80.4868 64.2195 80.026ZM69.6832 76.2887C69.3181 75.6817 68.9283 75.2816 68.5139 75.0885C68.0994 74.8954 67.6624 74.8114 67.2027 74.8365C66.9269 74.8516 66.6756 74.9603 66.4488 75.1627C66.2231 75.3521 66.0306 75.6097 65.8714 75.9356C65.7133 76.2486 65.5902 76.6103 65.502 77.0208C65.4149 77.4184 65.3721 77.8329 65.3736 78.2644L69.6832 76.2887ZM84.3711 86.6513C84.4888 84.8578 84.5892 83.3373 84.6722 82.0898C84.7552 80.8423 84.826 79.8094 84.8845 78.9911C84.943 78.1727 84.9856 77.536 85.0124 77.0809C85.0532 76.6139 85.0768 76.2696 85.0831 76.048C85.1024 75.8274 85.1138 75.6977 85.1172 75.6588C85.1217 75.6069 85.1246 75.5745 85.1257 75.5615C85.1489 75.4459 85.2158 75.3538 85.3263 75.285C85.4369 75.2163 85.5512 75.1805 85.669 75.1777C85.801 75.1631 85.9231 75.1869 86.0353 75.249C86.1475 75.3111 86.2244 75.4028 86.2661 75.5241L85.933 80.0043C86.2058 79.1263 86.5824 78.4077 87.0627 77.8484C87.5559 77.2903 88.0897 76.8665 88.664 76.5769C89.2394 76.2743 89.8235 76.0967 90.4163 76.044C91.022 75.9924 91.5739 76.0342 92.0718 76.1692C92.237 76.2229 92.354 76.305 92.4228 76.4156C92.5045 76.5273 92.5397 76.648 92.5283 76.7778C92.5311 76.8956 92.4885 77.0095 92.4004 77.1195C92.3265 77.2176 92.2289 77.2874 92.1076 77.3291C91.5273 77.2391 90.9715 77.2428 90.4401 77.3401C89.9229 77.4255 89.4383 77.5857 88.9865 77.8207C88.5487 78.0438 88.1518 78.3228 87.7957 78.6576C87.4526 78.9935 87.1727 79.3546 86.9559 79.7409C86.6324 80.3007 86.3905 80.9004 86.2299 81.5399C86.0835 82.1676 85.9696 82.798 85.888 83.4314C85.8194 84.0658 85.7667 84.669 85.7297 85.2409C85.7057 85.8139 85.6685 86.3138 85.6181 86.7407C85.5926 86.8823 85.5181 86.9869 85.3946 87.0545C85.2851 87.1103 85.1591 87.1319 85.0164 87.1194C84.8855 87.1211 84.7516 87.0832 84.6146 87.0059C84.4917 86.9167 84.4105 86.7985 84.3711 86.6513ZM93.475 82.5855C93.3774 82.6554 93.2124 82.6736 92.98 82.6402C92.7618 82.595 92.5588 82.5249 92.371 82.4301C92.1963 82.3364 92.0821 82.2218 92.0286 82.0864C91.9762 81.9381 92.0682 81.7827 92.3046 81.6204C92.4022 81.5506 92.5041 81.5072 92.6101 81.4903C92.7303 81.4616 92.8434 81.4388 92.9494 81.422C93.0695 81.3933 93.1649 81.3493 93.2354 81.2901C93.3189 81.2321 93.3734 81.1323 93.3988 80.9907C93.4629 80.4082 93.5605 79.8155 93.6916 79.2126C93.8358 78.6109 94.0456 78.0803 94.3211 77.6208C94.5965 77.1613 94.9608 76.8076 95.4138 76.5597C95.8798 76.3129 96.4667 76.2531 97.1744 76.3804C97.4338 76.4031 97.72 76.4935 98.0329 76.6516C98.347 76.7967 98.6441 76.9861 98.9243 77.2197C99.2056 77.4404 99.4441 77.703 99.6396 78.0077C99.8363 78.2994 99.9464 78.6096 99.9699 78.9385C100.049 79.0761 99.9833 79.2337 99.7717 79.4113C99.5601 79.5888 99.2684 79.7855 98.8966 80.0013C98.526 80.2041 98.1094 80.4095 97.6468 80.6174C97.1842 80.8252 96.7357 81.0213 96.3013 81.2055C95.8799 81.3908 95.5062 81.5542 95.1801 81.6956C94.8541 81.8369 94.6428 81.9361 94.5463 81.993C94.5799 82.5057 94.6177 83.0449 94.6597 83.6106C94.7017 84.1763 94.7866 84.7 94.9143 85.1817C95.0421 85.6635 95.2156 86.0708 95.4348 86.4036C95.6681 86.7247 95.9794 86.9022 96.3685 86.9363C96.9359 87.0251 97.4296 86.9834 97.8499 86.811C98.2832 86.6398 98.6507 86.3974 98.9526 86.084C99.2545 85.7706 99.5009 85.4196 99.6917 85.0311C99.8955 84.6438 100.052 84.2719 100.162 83.9155C100.284 83.5603 100.369 83.2606 100.417 83.0164C100.479 82.7604 100.523 82.6205 100.552 82.5968C100.701 82.5315 100.863 82.5457 101.038 82.6394C101.214 82.7201 101.301 82.9173 101.3 83.2309C101.269 83.7379 101.108 84.3055 100.818 84.9336C100.528 85.5617 100.151 86.1301 99.6883 86.6385C99.2386 87.1481 98.7136 87.5466 98.1133 87.8339C97.5272 88.1094 96.9209 88.1675 96.2944 88.0081C95.6339 87.9372 95.1251 87.7032 94.7677 87.306C94.4115 86.8957 94.1393 86.421 93.9512 85.8817C93.7772 85.3306 93.6639 84.7587 93.6112 84.1659C93.5585 83.5731 93.5131 83.0463 93.475 82.5855ZM98.9387 78.8482C98.5735 78.2412 98.1837 77.8411 97.7693 77.648C97.3549 77.4549 96.9178 77.3709 96.4582 77.3961C96.1824 77.4111 95.931 77.5199 95.7042 77.7222C95.4785 77.9116 95.286 78.1692 95.1268 78.4951C94.9687 78.8081 94.8456 79.1698 94.7574 79.5804C94.6703 79.9779 94.6275 80.3924 94.629 80.8239L98.9387 78.8482ZM103.033 83.6374C103.118 83.1089 103.211 82.5746 103.31 82.0344C103.41 81.4941 103.534 80.9756 103.682 80.4788C103.831 79.969 104.01 79.4945 104.218 79.0552C104.426 78.616 104.675 78.2391 104.964 77.9246C105.266 77.6111 105.613 77.3736 106.007 77.2119C106.413 77.0514 106.881 77.0009 107.412 77.0604C107.775 77.0922 108.04 77.2722 108.208 77.6006C108.376 77.9159 108.481 78.291 108.521 78.7259C108.574 79.1619 108.581 79.6069 108.541 80.0609C108.515 80.516 108.489 80.8863 108.464 81.1716C108.262 81.2324 108.094 81.2177 107.958 81.1274C107.835 81.0382 107.736 80.9053 107.66 80.7287C107.598 80.5403 107.544 80.3266 107.5 80.0874C107.456 79.8482 107.418 79.6097 107.386 79.3716C107.368 79.1347 107.335 78.9097 107.288 78.6965C107.255 78.4844 107.205 78.3101 107.138 78.1736C106.914 78.0494 106.684 78.0619 106.449 78.2113C106.213 78.3606 105.991 78.5895 105.781 78.8979C105.572 79.1933 105.37 79.5547 105.176 79.9821C104.995 80.4107 104.832 80.8474 104.689 81.2923C104.547 81.7242 104.425 82.1449 104.324 82.5543C104.222 82.9637 104.159 83.3111 104.134 83.5965C104.113 83.9868 104.115 84.4117 104.141 84.8714C104.167 85.3181 104.234 85.7423 104.343 86.1439C104.452 86.5455 104.61 86.8992 104.819 87.205C105.028 87.4978 105.311 87.699 105.668 87.8087C106.161 87.8518 106.583 87.8103 106.933 87.6841C107.298 87.5461 107.602 87.3636 107.844 87.1364C108.1 86.8974 108.307 86.6279 108.464 86.3279C108.621 86.028 108.752 85.7258 108.857 85.4213C108.963 85.1038 109.047 84.8105 109.11 84.5416C109.187 84.2607 109.259 84.0318 109.327 83.8547C109.672 83.7934 109.931 83.8226 110.104 83.9423C110.289 84.0631 110.376 84.1948 110.363 84.3375C110.311 84.9342 110.155 85.5218 109.895 86.1003C109.637 86.6658 109.292 87.1651 108.862 87.598C108.445 88.0321 107.952 88.3679 107.382 88.6056C106.812 88.8433 106.184 88.9321 105.496 88.872C104.913 88.8209 104.449 88.5973 104.104 88.2012C103.761 87.7921 103.502 87.3185 103.327 86.7804C103.164 86.2434 103.063 85.6855 103.022 85.1068C102.994 84.5293 102.998 84.0395 103.033 83.6374ZM112.823 84.2782C112.725 84.3481 112.56 84.3663 112.328 84.3329C112.11 84.2877 111.907 84.2177 111.719 84.1228C111.544 84.0291 111.43 83.9145 111.377 83.7792C111.324 83.6308 111.416 83.4755 111.653 83.3132C111.75 83.2433 111.852 83.1999 111.958 83.183C112.078 83.1543 112.191 83.1316 112.297 83.1147C112.418 83.086 112.513 83.0421 112.583 82.9829C112.667 82.9248 112.721 82.825 112.747 82.6835C112.811 82.1009 112.908 81.5082 113.04 80.9054C113.184 80.3036 113.394 79.773 113.669 79.3135C113.945 78.854 114.309 78.5003 114.762 78.2524C115.228 78.0056 115.815 77.9458 116.522 78.0731C116.782 78.0958 117.068 78.1862 117.381 78.3443C117.695 78.4894 117.992 78.6788 118.272 78.9124C118.554 79.1331 118.792 79.3958 118.988 79.7004C119.184 79.9921 119.294 80.3024 119.318 80.6312C119.397 80.7688 119.331 80.9264 119.12 81.104C118.908 81.2815 118.616 81.4782 118.245 81.694C117.874 81.8969 117.457 82.1022 116.995 82.3101C116.532 82.518 116.084 82.714 115.649 82.8982C115.228 83.0835 114.854 83.2469 114.528 83.3883C114.202 83.5297 113.991 83.6288 113.894 83.6857C113.928 84.1984 113.966 84.7376 114.008 85.3033C114.05 85.869 114.135 86.3928 114.262 86.8745C114.39 87.3562 114.564 87.7635 114.783 88.0964C115.016 88.4174 115.327 88.5949 115.716 88.629C116.284 88.7178 116.778 88.6761 117.198 88.5037C117.631 88.3325 117.999 88.0902 118.301 87.7767C118.603 87.4633 118.849 87.1124 119.04 86.7239C119.244 86.3365 119.4 85.9646 119.51 85.6083C119.632 85.253 119.717 84.9533 119.765 84.7091C119.827 84.4531 119.871 84.3132 119.9 84.2896C120.049 84.2242 120.211 84.2384 120.386 84.3321C120.562 84.4129 120.649 84.61 120.648 84.9236C120.617 85.4306 120.456 85.9982 120.166 86.6263C119.876 87.2545 119.499 87.8228 119.036 88.3313C118.587 88.8409 118.062 89.2393 117.461 89.5267C116.875 89.8021 116.269 89.8602 115.642 89.7008C114.982 89.63 114.473 89.3959 114.116 88.9987C113.759 88.5885 113.487 88.1137 113.299 87.5745C113.125 87.0233 113.012 86.4514 112.959 85.8586C112.906 85.2658 112.861 84.739 112.823 84.2782ZM118.287 80.541C117.922 79.9339 117.532 79.5338 117.117 79.3407C116.703 79.1476 116.266 79.0636 115.806 79.0888C115.53 79.1039 115.279 79.2126 115.052 79.4149C114.826 79.6043 114.634 79.862 114.475 80.1879C114.317 80.5008 114.194 80.8625 114.105 81.2731C114.018 81.6706 113.976 82.0852 113.977 82.5166L118.287 80.541ZM123.59 81.1422L121.748 81.5888C121.608 81.5374 121.498 81.4558 121.416 81.3441C121.321 81.2313 121.26 81.1148 121.231 80.9946C121.202 80.8745 121.205 80.7636 121.24 80.6621C121.263 80.5595 121.321 80.4862 121.417 80.4423L123.708 79.7997L124.151 74.29C124.204 74.1248 124.299 74.0089 124.436 73.9424C124.572 73.8759 124.705 73.8549 124.834 73.8792C124.976 73.8917 125.102 73.9484 125.211 74.0494C125.321 74.1375 125.389 74.2481 125.417 74.3812C125.356 74.781 125.299 75.2074 125.246 75.6602C125.195 76.1001 125.143 76.5465 125.09 76.9993C125.051 77.4404 125.02 77.8755 124.995 78.3047C124.972 78.7209 124.964 79.1058 124.973 79.4594L128.096 78.4975C128.282 78.4615 128.423 78.4934 128.519 78.5933C128.616 78.6802 128.671 78.7961 128.684 78.9411C128.712 79.0742 128.694 79.2034 128.631 79.3285C128.568 79.4537 128.469 79.5366 128.335 79.5771L124.855 80.802C124.844 80.9317 124.823 81.2435 124.793 81.7376C124.764 82.2187 124.727 82.7905 124.682 83.4532C124.637 84.1159 124.588 84.8239 124.536 85.5774C124.483 86.3309 124.427 87.0384 124.369 87.6999C124.325 88.3626 124.281 88.9404 124.237 89.4333C124.208 89.9144 124.188 90.2198 124.177 90.3495C124.113 90.7753 123.972 90.9785 123.751 90.9592C123.53 90.9399 123.3 90.8151 123.058 90.5849L123.59 81.1422ZM130.112 81.7128L128.27 82.1594C128.13 82.108 128.02 82.0264 127.938 81.9147C127.843 81.8019 127.782 81.6854 127.753 81.5652C127.724 81.4451 127.727 81.3342 127.762 81.2327C127.784 81.1301 127.843 81.0568 127.939 81.0129L130.23 80.3703L130.673 74.8606C130.726 74.6954 130.821 74.5795 130.958 74.513C131.094 74.4465 131.227 74.4255 131.356 74.4498C131.498 74.4623 131.624 74.519 131.733 74.62C131.843 74.7081 131.911 74.8186 131.939 74.9518C131.878 75.3516 131.821 75.778 131.768 76.2308C131.717 76.6707 131.665 77.1171 131.612 77.5699C131.573 78.011 131.542 78.4461 131.517 78.8753C131.494 79.2915 131.486 79.6764 131.495 80.03L134.618 79.0681C134.804 79.0321 134.945 79.064 135.041 79.1639C135.138 79.2508 135.193 79.3667 135.206 79.5117C135.234 79.6448 135.216 79.774 135.153 79.8991C135.09 80.0243 134.991 80.1072 134.857 80.1477L131.377 81.3726C131.366 81.5023 131.345 81.8141 131.315 82.3082C131.286 82.7893 131.249 83.3611 131.204 84.0238C131.159 84.6865 131.11 85.3945 131.058 86.148C131.005 86.9015 130.949 87.609 130.891 88.2705C130.847 88.9332 130.802 89.511 130.759 90.0039C130.73 90.485 130.71 90.7904 130.699 90.9201C130.635 91.3458 130.493 91.5491 130.273 91.5298C130.052 91.5105 129.822 91.3857 129.58 91.1555L130.112 81.7128ZM135.113 86.2283C135.015 86.2982 134.85 86.3164 134.618 86.2831C134.4 86.2378 134.197 86.1678 134.009 86.0729C133.834 85.9792 133.72 85.8647 133.666 85.7293C133.614 85.5809 133.706 85.4256 133.942 85.2633C134.04 85.1934 134.142 85.15 134.248 85.1332C134.368 85.1045 134.481 85.0817 134.587 85.0648C134.707 85.0361 134.803 84.9922 134.873 84.933C134.957 84.8749 135.011 84.7751 135.037 84.6336C135.101 84.051 135.198 83.4583 135.329 82.8555C135.474 82.2538 135.683 81.7231 135.959 81.2636C136.234 80.8041 136.599 80.4504 137.052 80.2025C137.518 79.9557 138.104 79.896 138.812 80.0232C139.072 80.0459 139.358 80.1363 139.671 80.2944C139.985 80.4395 140.282 80.6289 140.562 80.8625C140.843 81.0832 141.082 81.3459 141.277 81.6505C141.474 81.9422 141.584 82.2525 141.608 82.5813C141.687 82.719 141.621 82.8766 141.41 83.0541C141.198 83.2316 140.906 83.4283 140.534 83.6441C140.164 83.847 139.747 84.0523 139.285 84.2602C138.822 84.4681 138.374 84.6641 137.939 84.8483C137.518 85.0336 137.144 85.197 136.818 85.3384C136.492 85.4798 136.281 85.5789 136.184 85.6358C136.218 86.1485 136.256 86.6877 136.298 87.2534C136.34 87.8192 136.424 88.3429 136.552 88.8246C136.68 89.3063 136.853 89.7136 137.073 90.0465C137.306 90.3675 137.617 90.5451 138.006 90.5791C138.574 90.6679 139.067 90.6262 139.488 90.4538C139.921 90.2826 140.289 90.0403 140.59 89.7269C140.892 89.4134 141.139 89.0625 141.33 88.674C141.533 88.2866 141.69 87.9148 141.8 87.5584C141.922 87.2031 142.007 86.9034 142.055 86.6592C142.116 86.4032 142.161 86.2633 142.19 86.2397C142.339 86.1743 142.501 86.1885 142.676 86.2822C142.852 86.363 142.939 86.5601 142.938 86.8737C142.907 87.3807 142.746 87.9483 142.456 88.5764C142.165 89.2046 141.789 89.7729 141.326 90.2814C140.876 90.791 140.351 91.1895 139.751 91.4768C139.165 91.7523 138.559 91.8103 137.932 91.6509C137.272 91.5801 136.763 91.346 136.406 90.9488C136.049 90.5386 135.777 90.0638 135.589 89.5246C135.415 88.9734 135.302 88.4015 135.249 87.8087C135.196 87.2159 135.151 86.6891 135.113 86.2283ZM140.577 82.4911C140.211 81.884 139.822 81.4839 139.407 81.2908C138.993 81.0977 138.556 81.0138 138.096 81.0389C137.82 81.054 137.569 81.1627 137.342 81.365C137.116 81.5544 136.924 81.8121 136.765 82.138C136.607 82.4509 136.483 82.8126 136.395 83.2232C136.308 83.6208 136.265 84.0353 136.267 84.4667L140.577 82.4911Z" fill="#2C2C2C"/>
<path d="M214.043 44.4336C216.903 45.6505 219.802 46.8813 222.77 47.8126C223.26 47.9662 224.043 48.3294 223.831 47.778C223.591 47.1513 223.598 46.0567 223.595 45.392C223.584 43.4628 223.433 41.4878 223.619 39.5742" stroke="#2C2C2C" stroke-linecap="round" stroke-linejoin="round"/>
<path d="M221.634 45.3367C212.021 32.6328 184.275 12.9159 150.198 35.6797" stroke="#2C2C2C" stroke-linecap="round" stroke-linejoin="round"/>
</svg>
