<svg width="182" height="91" viewBox="0 0 182 91" fill="none" xmlns="http://www.w3.org/2000/svg">
<path d="M164.045 31.4336C166.905 32.6505 169.804 33.8813 172.772 34.8126C173.262 34.9662 174.045 35.3294 173.833 34.778C173.592 34.1513 173.6 33.0567 173.597 32.392C173.586 30.4628 173.435 28.4878 173.621 26.5742" stroke="#2C2C2C" stroke-linecap="round" stroke-linejoin="round"/>
<path d="M171.634 32.3367C162.021 19.6328 134.275 -0.0841085 100.198 22.6797" stroke="#2C2C2C" stroke-linecap="round" stroke-linejoin="round"/>
<path d="M19.2096 38.3621C19.3396 36.7266 19.6382 35.2562 20.1053 33.9508C20.5735 32.6324 21.1367 31.4988 21.7948 30.5499C22.453 29.6011 23.1589 28.8525 23.9127 28.3041C24.6806 27.7439 25.4221 27.4101 26.1373 27.3028C26.8525 27.1954 27.5084 27.3182 28.1049 27.671C28.7014 28.0238 29.158 28.6323 29.4745 29.4965C29.76 30.2665 29.9245 31.1501 29.968 32.1472C30.0126 33.1314 29.9435 34.1449 29.7608 35.1876C29.5922 36.2185 29.3144 37.2268 28.9276 38.2125C28.5407 39.1981 28.0516 40.0833 27.4601 40.8681C26.8827 41.641 26.2135 42.2687 25.4524 42.7511C24.6924 43.2205 23.848 43.4603 22.9191 43.4705C22.1893 43.4459 21.5792 43.2487 21.0887 42.879C20.5993 42.4964 20.2076 42.0439 19.9135 41.5215C19.6335 40.9872 19.4335 40.4338 19.3137 39.8613C19.208 39.2769 19.1733 38.7772 19.2096 38.3621ZM24.1583 29.3059C23.9219 29.4682 23.6477 29.7644 23.3356 30.1946C23.0235 30.6247 22.7099 31.1463 22.3949 31.7592C22.081 32.3591 21.7814 33.0191 21.4962 33.7392C21.224 34.4604 20.9901 35.1915 20.7946 35.9324C20.612 36.6746 20.4895 37.4023 20.4271 38.1158C20.3777 38.8303 20.4247 39.488 20.5682 40.0887C20.7128 40.6764 20.9692 41.1825 21.3372 41.6068C21.7064 42.0182 22.2243 42.2987 22.8909 42.4485C23.4041 42.5588 23.9377 42.4356 24.4917 42.0788C25.0587 41.7233 25.5928 41.221 26.094 40.5721C26.5951 39.9232 27.0459 39.1784 27.4462 38.3377C27.8606 37.4852 28.1837 36.6312 28.4153 35.7757C28.6132 35.0088 28.7444 34.2557 28.8091 33.5163C28.8749 32.764 28.8637 32.0702 28.7755 31.4351C28.6873 30.8 28.5268 30.2436 28.2942 29.7657C28.0615 29.2879 27.7526 28.9341 27.3675 28.7044C26.9824 28.4746 26.5183 28.4013 25.9751 28.4845C25.4461 28.5559 24.8405 28.8297 24.1583 29.3059ZM37.5513 33.3597C37.5711 33.283 37.6174 33.2021 37.6902 33.1169C37.7771 33.02 37.8741 32.9566 37.9813 32.9267C38.1015 32.898 38.223 32.9283 38.3459 33.0175C38.4829 33.0948 38.612 33.2629 38.7331 33.5219C38.5938 34.5161 38.4416 35.5092 38.2764 36.5012C38.1253 37.4814 38.0071 38.4579 37.922 39.4307C37.851 40.3917 37.8325 41.3508 37.8664 42.3079C37.9132 43.2661 38.0597 44.207 38.3056 45.1304C38.3107 45.2223 38.2714 45.2973 38.1879 45.3553C38.1033 45.4264 37.995 45.4692 37.863 45.4838C37.7299 45.5113 37.599 45.5129 37.4705 45.4886C37.3419 45.4643 37.2432 45.3969 37.1745 45.2863L36.7778 41.9774C36.7111 42.1415 36.5404 42.3749 36.2656 42.6776C36.0037 42.9815 35.6959 43.2878 35.3421 43.5967C35.0024 43.8937 34.6526 44.1572 34.2926 44.3872C33.9338 44.6041 33.6306 44.7083 33.383 44.6997C32.77 44.6853 32.3088 44.4292 31.9994 43.9316C31.69 43.434 31.4839 42.8017 31.3811 42.0346C31.2924 41.2557 31.276 40.3981 31.3317 39.4619C31.3875 38.5257 31.4669 37.6177 31.5701 36.7379C31.6732 35.8582 31.7754 35.0633 31.8767 34.3533C31.978 33.6432 32.024 33.1179 32.0146 32.7772C32.0626 32.6769 32.1343 32.6047 32.2296 32.5608C32.3379 32.518 32.4504 32.5017 32.5672 32.5119C32.6839 32.5221 32.7919 32.5577 32.8911 32.6187C33.0033 32.6808 33.0808 32.766 33.1236 32.8743C33.111 33.3176 33.0693 33.8694 32.9984 34.5298C32.9276 35.1902 32.8527 35.896 32.774 36.6472C32.6963 37.3854 32.631 38.1313 32.5782 38.8848C32.5383 39.6394 32.5301 40.3314 32.5534 40.9608C32.5779 41.5773 32.6498 42.0998 32.7692 42.5285C32.9026 42.9454 33.1162 43.1928 33.41 43.2708C33.6305 43.2901 33.8573 43.2381 34.0903 43.1147C34.3233 42.9913 34.5597 42.829 34.7995 42.6278C35.0404 42.4136 35.2701 42.1788 35.4885 41.9234C35.708 41.6551 35.9005 41.3974 36.0659 41.1505C36.2324 40.8906 36.3707 40.6543 36.4808 40.4418C36.5909 40.2292 36.6575 40.0651 36.6807 39.9495C36.7073 39.795 36.7483 39.5502 36.8037 39.2152C36.8603 38.8673 36.9138 38.4798 36.9643 38.0529C37.0288 37.6142 37.0891 37.1489 37.1452 36.6571C37.2143 36.1665 37.274 35.7077 37.3244 35.2808C37.3889 34.842 37.436 34.454 37.4655 34.1168C37.5091 33.7677 37.5377 33.5153 37.5513 33.3597ZM36.1205 32.2346C35.9914 32.0664 35.8381 31.8766 35.6606 31.665C35.4971 31.4416 35.3343 31.2117 35.172 30.9753C35.0096 30.7389 34.8668 30.5042 34.7434 30.2712C34.633 30.0393 34.5792 29.832 34.5821 29.6493C34.4424 29.4541 34.4258 29.2696 34.5325 29.096C34.6522 28.9234 34.8753 28.8384 35.2018 28.8408C35.4718 29.1912 35.7342 29.554 35.9889 29.9292C36.2566 30.3055 36.4546 30.6561 36.5831 30.9811C36.7256 31.2942 36.7737 31.5663 36.7273 31.7975C36.6809 32.0287 36.4787 32.1744 36.1205 32.2346ZM51.3478 44.7225C51.5773 44.9387 51.8665 45.0685 52.2156 45.1122C52.5777 45.1569 52.9578 45.1444 53.356 45.0747C53.7684 44.9931 54.1847 44.8662 54.6049 44.6938C55.0393 44.5096 55.4365 44.3026 55.7964 44.0726C56.1693 43.8438 56.4915 43.5976 56.7629 43.3337C57.0485 43.0581 57.248 42.7945 57.3615 42.5431C57.4761 42.2786 57.4912 42.0316 57.4067 41.802C57.3222 41.5724 57.1041 41.3769 56.7522 41.2154C56.0771 41.3132 55.4047 41.3785 54.7353 41.4114C54.0658 41.4443 53.4691 41.3921 52.9452 41.2548C52.4343 41.1186 52.0315 40.8677 51.7367 40.5021C51.4419 40.1365 51.3381 39.6046 51.4254 38.9064C51.5233 38.2353 51.7599 37.6221 52.1353 37.0667C52.5247 36.4996 52.9906 36.0306 53.5328 35.6597C54.0879 35.29 54.6865 35.0222 55.3284 34.8561C55.9833 34.6912 56.6333 34.6566 57.2784 34.7523C57.407 34.7766 57.5226 34.7998 57.6253 34.8218C57.742 34.832 57.8441 34.8606 57.9315 34.9074C58.0189 34.9543 58.0786 35.0183 58.1107 35.0996C58.1558 35.1819 58.165 35.3004 58.1384 35.4549C58.1085 35.6483 58.0235 35.7977 57.8836 35.9031C57.7436 36.0085 57.5646 36.0386 57.3463 35.9934C56.5946 35.7708 55.9043 35.743 55.2754 35.9102C54.6464 36.0774 54.1133 36.3444 53.676 36.7114C53.2399 37.0653 52.9159 37.4814 52.7042 37.9595C52.4924 38.4377 52.4273 38.8829 52.5089 39.2953C52.7145 39.7838 53.0062 40.1099 53.384 40.2737C53.7759 40.4256 54.194 40.5014 54.6385 40.5011C55.0959 40.5019 55.562 40.4773 56.0369 40.4274C56.513 40.3645 56.9374 40.3689 57.3101 40.4407C57.684 40.4996 57.9829 40.6695 58.2066 40.9505C58.4315 41.2185 58.5274 41.6909 58.4943 42.3677C58.4439 42.7946 58.2649 43.1972 57.9573 43.5755C57.6509 43.9408 57.2683 44.2798 56.8096 44.5926C56.3651 44.8935 55.8709 45.164 55.327 45.404C54.7844 45.631 54.2456 45.8126 53.7109 45.9488C53.1891 46.0861 52.6984 46.1674 52.2387 46.1925C51.7921 46.2188 51.4359 46.1811 51.1703 46.0794C50.8947 45.7939 50.7612 45.5273 50.7697 45.2797C50.7795 45.0192 50.9722 44.8335 51.3478 44.7225ZM61.0036 41.7442C60.9059 41.814 60.741 41.8323 60.5086 41.7989C60.2904 41.7537 60.0874 41.6836 59.8996 41.5888C59.7248 41.495 59.6107 41.3805 59.5572 41.2451C59.5048 41.0968 59.5968 40.9414 59.8332 40.7791C59.9308 40.7092 60.0326 40.6659 60.1387 40.649C60.2588 40.6203 60.3719 40.5975 60.478 40.5806C60.5981 40.5519 60.6934 40.508 60.764 40.4488C60.8475 40.3908 60.902 40.291 60.9274 40.1494C60.9914 39.5669 61.089 38.9741 61.2202 38.3713C61.3644 37.7696 61.5742 37.239 61.8496 36.7795C62.1251 36.32 62.4893 35.9663 62.9424 35.7183C63.4084 35.4716 63.9952 35.4118 64.703 35.5391C64.9624 35.5618 65.2486 35.6522 65.5615 35.8102C65.8756 35.9554 66.1727 36.1447 66.4529 36.3784C66.7342 36.599 66.9726 36.8617 67.1682 37.1664C67.3649 37.4581 67.475 37.7683 67.4985 38.0971C67.5779 38.2348 67.5118 38.3924 67.3003 38.5699C67.0887 38.7475 66.797 38.9442 66.4252 39.16C66.0545 39.3628 65.6379 39.5682 65.1753 39.7761C64.7127 39.9839 64.2643 40.18 63.8299 40.3642C63.4085 40.5495 63.0348 40.7128 62.7087 40.8542C62.3826 40.9956 62.1714 41.0948 62.0749 41.1517C62.1085 41.6644 62.1462 42.2036 62.1882 42.7693C62.2302 43.335 62.3151 43.8587 62.4429 44.3404C62.5707 44.8221 62.7442 45.2294 62.9634 45.5623C63.1967 45.8834 63.5079 46.0609 63.8971 46.0949C64.4644 46.1838 64.9582 46.142 65.3785 45.9697C65.8117 45.7984 66.1793 45.5561 66.4812 45.2427C66.7831 44.9293 67.0295 44.5783 67.2203 44.1898C67.4241 43.8025 67.5808 43.4306 67.6904 43.0742C67.813 42.719 67.898 42.4192 67.9455 42.1751C68.0071 41.919 68.0521 41.7792 68.0803 41.7555C68.2298 41.6902 68.3919 41.7044 68.5667 41.7981C68.7426 41.8788 68.8299 42.076 68.8286 42.3896C68.7974 42.8966 68.6366 43.4642 68.3464 44.0923C68.0561 44.7204 67.6797 45.2887 67.2169 45.7972C66.7671 46.3068 66.2421 46.7053 65.6419 46.9926C65.0558 47.2681 64.4494 47.3262 63.8229 47.1668C63.1625 47.0959 62.6536 46.8619 62.2963 46.4646C61.94 46.0544 61.6679 45.5797 61.4798 45.0404C61.3058 44.4893 61.1925 43.9173 61.1398 43.3246C61.0871 42.7318 61.0417 42.205 61.0036 41.7442ZM66.4673 38.0069C66.1021 37.3999 65.7123 36.9998 65.2979 36.8067C64.8834 36.6136 64.4464 36.5296 63.9867 36.5547C63.7109 36.5698 63.4596 36.6785 63.2328 36.8809C63.0071 37.0703 62.8146 37.3279 62.6554 37.6538C62.4973 37.9668 62.3742 38.3285 62.286 38.739C62.1989 39.1366 62.1561 39.5511 62.1576 39.9826L66.4673 38.0069ZM82.7291 39.5669L80.8863 40.0134C80.747 39.962 80.6365 39.8805 80.5548 39.7688C80.4601 39.6559 80.3984 39.5394 80.3697 39.4193C80.341 39.2991 80.3442 39.1883 80.3792 39.0868C80.4012 38.9842 80.4599 38.9109 80.5553 38.8669L82.8466 38.2244L83.2894 32.7146C83.3431 32.5494 83.4382 32.4336 83.5747 32.3671C83.7112 32.3006 83.8437 32.2795 83.9723 32.3039C84.115 32.3163 84.2408 32.3731 84.3495 32.4741C84.4595 32.5621 84.5282 32.6727 84.5558 32.8058C84.4947 33.2057 84.4378 33.632 84.3851 34.0849C84.3335 34.5248 84.2814 34.9711 84.2287 35.424C84.1901 35.865 84.1586 36.3001 84.1341 36.7293C84.1108 37.1455 84.1032 37.5305 84.1115 37.8841L87.2346 36.9222C87.4207 36.8862 87.5617 36.9181 87.6575 37.018C87.7545 37.1049 87.8097 37.2208 87.8231 37.3658C87.8507 37.4989 87.8329 37.628 87.7696 37.7532C87.7064 37.8784 87.6077 37.9612 87.4734 38.0018L83.994 39.2266C83.9827 39.3563 83.962 39.6682 83.9318 40.1623C83.9028 40.6433 83.8658 41.2152 83.8209 41.8779C83.776 42.5405 83.7271 43.2486 83.6743 44.0021C83.6214 44.7555 83.5661 45.4631 83.5082 46.1246C83.4633 46.7873 83.4193 47.365 83.3761 47.858C83.3471 48.339 83.3269 48.6444 83.3156 48.7741C83.2522 49.1999 83.1103 49.4032 82.8897 49.3839C82.6692 49.3646 82.4383 49.2398 82.1971 49.0096L82.7291 39.5669ZM87.3658 48.9128C87.4835 47.1194 87.5838 45.5989 87.6668 44.3514C87.7498 43.1039 87.8206 42.0709 87.8791 41.2526C87.9377 40.4343 87.9803 39.7976 88.007 39.3424C88.0479 38.8755 88.0715 38.5312 88.0778 38.3095C88.0971 38.089 88.1084 37.9593 88.1118 37.9204C88.1164 37.8685 88.1192 37.8361 88.1204 37.8231C88.1435 37.7075 88.2104 37.6153 88.321 37.5466C88.4316 37.4778 88.5458 37.4421 88.6637 37.4393C88.7957 37.4247 88.9178 37.4485 89.03 37.5106C89.1422 37.5727 89.2191 37.6643 89.2608 37.7856L88.9276 42.2658C89.2005 41.3878 89.5771 40.6692 90.0573 40.11C90.5505 39.5519 91.0843 39.1281 91.6586 38.8385C92.234 38.5359 92.8182 38.3583 93.4109 38.3056C94.0167 38.254 94.5685 38.2957 95.0665 38.4308C95.2317 38.4845 95.3487 38.5666 95.4174 38.6772C95.4992 38.7889 95.5343 38.9096 95.523 39.0393C95.5258 39.1572 95.4831 39.2711 95.3951 39.381C95.3211 39.4791 95.2235 39.549 95.1022 39.5907C94.5219 39.5007 93.9661 39.5044 93.4348 39.6016C92.9176 39.6871 92.433 39.8473 91.9811 40.0822C91.5433 40.3054 91.1464 40.5843 90.7904 40.9191C90.4473 41.2551 90.1673 41.6162 89.9506 42.0024C89.6271 42.5623 89.3851 43.162 89.2246 43.8015C89.0782 44.4291 88.9642 45.0596 88.8827 45.6929C88.8141 46.3274 88.7613 46.9305 88.7244 47.5024C88.7004 48.0754 88.6632 48.5754 88.6127 49.0023C88.5873 49.1439 88.5128 49.2484 88.3892 49.316C88.2798 49.3718 88.1537 49.3935 88.011 49.381C87.8802 49.3826 87.7463 49.3448 87.6093 49.2674C87.4864 49.1782 87.4052 49.06 87.3658 48.9128ZM97.3645 50.0817C96.8513 49.9714 96.4414 49.7264 96.1348 49.3467C95.8411 48.9681 95.6192 48.5174 95.4689 47.9945C95.3185 47.4716 95.2371 46.9089 95.2244 46.3066C95.2259 45.6924 95.2651 45.0946 95.3421 44.5131C95.4593 43.6215 95.6964 42.7796 96.0532 41.9874C96.4231 41.1963 96.8481 40.5211 97.3284 39.9619C97.8227 39.3908 98.3435 38.9658 98.8907 38.687C99.4521 38.3962 99.9823 38.3119 100.481 38.434C101.006 38.5584 101.412 38.8487 101.699 39.3052C101.999 39.7627 102.212 40.3108 102.34 40.9493C102.467 41.5878 102.517 42.2784 102.492 43.0212C102.467 43.751 102.399 44.4509 102.288 45.1208C102.156 45.8805 101.925 46.5791 101.595 47.2168C101.265 47.8545 100.871 48.3952 100.414 48.8388C99.97 49.2836 99.4766 49.6195 98.9339 49.8465C98.4053 50.0616 97.8822 50.14 97.3645 50.0817ZM100.19 39.526C99.7662 39.4367 99.3522 39.5377 98.9477 39.8291C98.5572 40.1086 98.1896 40.5012 97.8447 41.007C97.514 41.5009 97.2218 42.0765 96.9682 42.734C96.7158 43.3785 96.5287 44.0222 96.4071 44.6651C96.3144 45.1276 96.2529 45.6058 96.2228 46.0998C96.1926 46.5939 96.2119 47.0465 96.2805 47.4577C96.362 47.87 96.5082 48.2161 96.719 48.4959C96.9439 48.764 97.2574 48.9156 97.6595 48.9507C97.9826 48.9921 98.3295 48.9113 98.7002 48.7085C99.0838 48.5068 99.4483 48.225 99.7936 47.8631C100.14 47.4882 100.452 47.058 100.73 46.5726C101.021 46.0883 101.228 45.5836 101.353 45.0586C101.492 44.5088 101.562 43.9397 101.561 43.3515C101.574 42.7514 101.525 42.1916 101.414 41.6721C101.315 41.1537 101.159 40.7022 100.944 40.3174C100.743 39.9208 100.492 39.657 100.19 39.526ZM110.235 39.7186C110.254 39.6419 110.301 39.561 110.373 39.4759C110.46 39.3789 110.557 39.3155 110.665 39.2857C110.785 39.257 110.906 39.2872 111.029 39.3764C111.166 39.4538 111.295 39.6219 111.416 39.8808C111.277 40.8751 111.125 41.8682 110.96 42.8602C110.809 43.8403 110.69 44.8168 110.605 45.7897C110.534 46.7507 110.516 47.7097 110.55 48.6669C110.597 49.6251 110.743 50.5659 110.989 51.4893C110.994 51.5813 110.955 51.6562 110.871 51.7143C110.787 51.7853 110.678 51.8281 110.546 51.8427C110.413 51.8703 110.282 51.8719 110.154 51.8476C110.025 51.8233 109.927 51.7558 109.858 51.6452L109.461 48.3363C109.394 48.5004 109.224 48.7338 108.949 49.0366C108.687 49.3404 108.379 49.6468 108.025 49.9557C107.686 50.2527 107.336 50.5162 106.976 50.7461C106.617 50.9631 106.314 51.0672 106.066 51.0587C105.453 51.0442 104.992 50.7882 104.683 50.2906C104.373 49.793 104.167 49.1607 104.064 48.3936C103.976 47.6146 103.959 46.7571 104.015 45.8209C104.071 44.8847 104.15 43.9767 104.253 43.0969C104.356 42.2171 104.459 41.4222 104.56 40.7122C104.661 40.0022 104.707 39.4769 104.698 39.1362C104.746 39.0358 104.818 38.9637 104.913 38.9197C105.021 38.8769 105.134 38.8606 105.25 38.8709C105.367 38.8811 105.475 38.9167 105.574 38.9776C105.687 39.0397 105.764 39.1249 105.807 39.2332C105.794 39.6765 105.753 40.2284 105.682 40.8888C105.611 41.5492 105.536 42.255 105.457 43.0062C105.38 43.7444 105.314 44.4903 105.261 45.2437C105.222 45.9983 105.213 46.6903 105.237 47.3198C105.261 47.9362 105.333 48.4588 105.452 48.8875C105.586 49.3044 105.8 49.5518 106.093 49.6298C106.314 49.6491 106.541 49.597 106.774 49.4736C107.007 49.3502 107.243 49.1879 107.483 48.9867C107.724 48.7725 107.953 48.5377 108.172 48.2824C108.391 48.014 108.584 47.7564 108.749 47.5094C108.916 47.2495 109.054 47.0133 109.164 46.8007C109.274 46.5881 109.341 46.4241 109.364 46.3085C109.391 46.1539 109.432 45.9092 109.487 45.5742C109.544 45.2262 109.597 44.8388 109.648 44.4119C109.712 43.9731 109.772 43.5079 109.828 43.0161C109.898 42.5255 109.957 42.0667 110.008 41.6398C110.072 41.201 110.119 40.813 110.149 40.4758C110.192 40.1267 110.221 39.8743 110.235 39.7186ZM113.335 40.1859C113.36 40.0444 113.415 39.9381 113.5 39.8671C113.586 39.7831 113.681 39.7326 113.787 39.7158C113.893 39.6989 114.004 39.7086 114.118 39.7447C114.233 39.7809 114.338 39.8424 114.435 39.9293L116.59 49.5874C117.408 47.7115 118.043 46.2051 118.495 45.0683C118.949 43.9186 119.281 43.0327 119.492 42.4107C119.718 41.7769 119.853 41.3509 119.898 41.1327C119.957 40.9026 119.995 40.7751 120.01 40.7503C120.126 40.4729 120.258 40.308 120.406 40.2556C120.568 40.2044 120.71 40.2234 120.833 40.3125C120.955 40.4017 121.048 40.534 121.112 40.7095C121.189 40.8731 121.201 41.031 121.148 41.1832L117.025 51.7822C116.98 51.8566 116.897 51.9017 116.778 51.9174C116.658 51.9461 116.534 51.9483 116.405 51.924C116.289 51.9138 116.174 51.8776 116.062 51.8155C115.961 51.7675 115.895 51.7094 115.861 51.6411L113.335 40.1859ZM123.098 47.1768C123.001 47.2466 122.836 47.2649 122.603 47.2315C122.385 47.1863 122.182 47.1162 121.994 47.0214C121.82 46.9276 121.706 46.8131 121.652 46.6777C121.6 46.5293 121.692 46.374 121.928 46.2117C122.026 46.1418 122.127 46.0985 122.234 46.0816C122.354 46.0529 122.467 46.0301 122.573 46.0132C122.693 45.9845 122.788 45.9406 122.859 45.8814C122.942 45.8234 122.997 45.7236 123.022 45.582C123.086 44.9994 123.184 44.4067 123.315 43.8039C123.459 43.2022 123.669 42.6716 123.944 42.2121C124.22 41.7526 124.584 41.3989 125.037 41.1509C125.503 40.9041 126.09 40.8444 126.798 40.9717C127.057 40.9944 127.343 41.0848 127.656 41.2428C127.97 41.3879 128.268 41.5773 128.548 41.811C128.829 42.0316 129.067 42.2943 129.263 42.599C129.46 42.8907 129.57 43.2009 129.593 43.5297C129.673 43.6674 129.607 43.825 129.395 44.0025C129.184 44.1801 128.892 44.3768 128.52 44.5926C128.149 44.7954 127.733 45.0008 127.27 45.2086C126.808 45.4165 126.359 45.6125 125.925 45.7967C125.503 45.9821 125.13 46.1454 124.804 46.2868C124.477 46.4282 124.266 46.5274 124.17 46.5843C124.203 47.097 124.241 47.6362 124.283 48.2019C124.325 48.7676 124.41 49.2913 124.538 49.773C124.666 50.2547 124.839 50.662 125.058 50.9949C125.292 51.3159 125.603 51.4935 125.992 51.5275C126.559 51.6164 127.053 51.5746 127.473 51.4023C127.907 51.231 128.274 50.9887 128.576 50.6753C128.878 50.3619 129.124 50.0109 129.315 49.6224C129.519 49.2351 129.676 48.8632 129.785 48.5068C129.908 48.1516 129.993 47.8518 130.04 47.6077C130.102 47.3516 130.147 47.2118 130.175 47.1881C130.325 47.1228 130.487 47.137 130.662 47.2307C130.837 47.3114 130.925 47.5086 130.923 47.8222C130.892 48.3292 130.731 48.8967 130.441 49.5249C130.151 50.153 129.775 50.7213 129.312 51.2298C128.862 51.7394 128.337 52.1379 127.737 52.4252C127.151 52.7007 126.544 52.7587 125.918 52.5994C125.257 52.5285 124.748 52.2945 124.391 51.8972C124.035 51.487 123.763 51.0123 123.575 50.473C123.401 49.9219 123.287 49.3499 123.235 48.7571C123.182 48.1644 123.136 47.6376 123.098 47.1768ZM128.562 43.4395C128.197 42.8325 127.807 42.4324 127.393 42.2393C126.978 42.0462 126.541 41.9622 126.082 41.9873C125.806 42.0024 125.554 42.1111 125.328 42.3135C125.102 42.5029 124.909 42.7605 124.75 43.0864C124.592 43.3993 124.469 43.7611 124.381 44.1716C124.294 44.5692 124.251 44.9837 124.252 45.4152L128.562 43.4395ZM22.6994 67.7194C22.7848 67.191 22.8773 66.6567 22.9769 66.1164C23.0764 65.5762 23.2002 65.0576 23.3482 64.5608C23.4974 64.0511 23.6761 63.5765 23.8845 63.1373C24.0928 62.6981 24.3415 62.3212 24.6304 62.0066C24.9323 61.6932 25.2798 61.4556 25.673 61.294C26.0792 61.1335 26.5476 61.083 27.0783 61.1425C27.4415 61.1742 27.7068 61.3543 27.8741 61.6826C28.0426 61.998 28.147 62.3731 28.1874 62.808C28.2407 63.2439 28.2475 63.6889 28.2078 64.1429C28.1811 64.5981 28.1552 64.9683 28.1302 65.2537C27.9289 65.3145 27.7602 65.2997 27.6244 65.2094C27.5015 65.1203 27.402 64.9874 27.3259 64.8108C27.264 64.6224 27.2108 64.4086 27.1664 64.1695C27.122 63.9303 27.084 63.6917 27.0526 63.4537C27.0341 63.2168 27.0015 62.9918 26.9548 62.7785C26.9211 62.5665 26.8709 62.3922 26.8045 62.2556C26.5801 62.1314 26.3502 62.144 26.115 62.2933C25.8797 62.4427 25.6571 62.6715 25.4471 62.9799C25.2383 63.2754 25.0367 63.6368 24.8425 64.0642C24.6612 64.4927 24.4989 64.9294 24.3554 65.3744C24.213 65.8063 24.0912 66.227 23.9901 66.6364C23.8889 67.0458 23.8258 67.3932 23.8009 67.6786C23.7798 68.0688 23.7818 68.4938 23.807 68.9535C23.8332 69.4002 23.9007 69.8243 24.0093 70.2259C24.118 70.6276 24.2765 70.9813 24.4851 71.2871C24.6947 71.5799 24.9777 71.7811 25.3341 71.8907C25.827 71.9338 26.2489 71.8923 26.5998 71.7662C26.9648 71.6282 27.2683 71.4456 27.5104 71.2185C27.7665 70.9795 27.9731 70.71 28.1301 70.41C28.287 70.11 28.418 69.8078 28.5231 69.5033C28.6293 69.1858 28.7138 68.8926 28.7765 68.6236C28.8534 68.3428 28.9257 68.1138 28.9934 67.9368C29.3386 67.8755 29.5975 67.9047 29.77 68.0243C29.9555 68.1451 30.042 68.2769 30.0295 68.4195C29.9773 69.0162 29.8213 69.6038 29.5616 70.1823C29.303 70.7479 28.9587 71.2471 28.5287 71.6801C28.1117 72.1141 27.6183 72.45 27.0485 72.6877C26.4788 72.9254 25.8501 73.0142 25.1627 72.954C24.579 72.903 24.1149 72.6794 23.7705 72.2833C23.4273 71.8742 23.1681 71.4006 22.993 70.8624C22.8308 70.3254 22.7293 69.7676 22.6884 69.1889C22.6605 68.6114 22.6642 68.1215 22.6994 67.7194ZM32.4894 68.3603C32.3918 68.4302 32.2268 68.4484 31.9944 68.415C31.7762 68.3698 31.5732 68.2997 31.3854 68.2049C31.2106 68.1112 31.0965 67.9966 31.043 67.8612C30.9906 67.7129 31.0826 67.5575 31.319 67.3952C31.4166 67.3253 31.5184 67.282 31.6245 67.2651C31.7446 67.2364 31.8577 67.2136 31.9638 67.1968C32.0839 67.1681 32.1793 67.1241 32.2498 67.0649C32.3333 67.0069 32.3878 66.9071 32.4132 66.7655C32.4773 66.183 32.5749 65.5903 32.706 64.9874C32.8502 64.3857 33.06 63.8551 33.3354 63.3956C33.6109 62.9361 33.9752 62.5824 34.4282 62.3344C34.8942 62.0877 35.481 62.0279 36.1888 62.1552C36.4482 62.1779 36.7344 62.2683 37.0473 62.4263C37.3614 62.5715 37.6585 62.7608 37.9387 62.9945C38.22 63.2152 38.4584 63.4778 38.654 63.7825C38.8507 64.0742 38.9608 64.3844 38.9843 64.7132C39.0637 64.8509 38.9977 65.0085 38.7861 65.186C38.5745 65.3636 38.2828 65.5603 37.911 65.7761C37.5403 65.9789 37.1237 66.1843 36.6611 66.3922C36.1986 66.6 35.7501 66.7961 35.3157 66.9803C34.8943 67.1656 34.5206 67.329 34.1945 67.4703C33.8684 67.6117 33.6572 67.7109 33.5607 67.7678C33.5943 68.2805 33.6321 68.8197 33.6741 69.3854C33.7161 69.9511 33.8009 70.4748 33.9287 70.9565C34.0565 71.4383 34.23 71.8456 34.4492 72.1784C34.6825 72.4995 34.9938 72.677 35.3829 72.711C35.9502 72.7999 36.444 72.7581 36.8643 72.5858C37.2975 72.4146 37.6651 72.1722 37.967 71.8588C38.2689 71.5454 38.5153 71.1944 38.7061 70.8059C38.9099 70.4186 39.0666 70.0467 39.1762 69.6903C39.2988 69.3351 39.3838 69.0353 39.4313 68.7912C39.493 68.5351 39.5379 68.3953 39.5661 68.3716C39.7156 68.3063 39.8777 68.3205 40.0525 68.4142C40.2284 68.4949 40.3157 68.6921 40.3145 69.0057C40.2832 69.5127 40.1224 70.0803 39.8322 70.7084C39.542 71.3365 39.1655 71.9048 38.7027 72.4133C38.253 72.9229 37.7279 73.3214 37.1277 73.6087C36.5416 73.8842 35.9352 73.9423 35.3087 73.7829C34.6483 73.712 34.1394 73.478 33.7821 73.0807C33.4259 72.6705 33.1537 72.1958 32.9656 71.6565C32.7916 71.1054 32.6783 70.5334 32.6256 69.9407C32.5729 69.3479 32.5275 68.8211 32.4894 68.3603ZM37.9531 64.623C37.5879 64.016 37.1981 63.6159 36.7837 63.4228C36.3693 63.2297 35.9322 63.1457 35.4725 63.1708C35.1967 63.1859 34.9454 63.2946 34.7186 63.497C34.4929 63.6864 34.3004 63.944 34.1412 64.2699C33.9831 64.5829 33.86 64.9446 33.7718 65.3551C33.6847 65.7527 33.6419 66.1672 33.6434 66.5987L37.9531 64.623ZM53.2068 64.0362C53.2322 63.8946 53.2873 63.7883 53.3719 63.7173C53.4577 63.6333 53.5536 63.5829 53.6596 63.566C53.7657 63.5492 53.8759 63.5588 53.9904 63.595C54.1049 63.6311 54.2106 63.6927 54.3076 63.7796L56.4623 73.4377C57.2799 71.5617 57.9149 70.0554 58.3673 68.9186C58.8208 67.7688 59.1532 66.883 59.3644 66.261C59.5898 65.6272 59.7251 65.2012 59.7703 64.9829C59.8297 64.7528 59.867 64.6254 59.8822 64.6006C59.998 64.3232 60.13 64.1583 60.2784 64.1059C60.4397 64.0547 60.5818 64.0736 60.7048 64.1628C60.8277 64.252 60.9206 64.3843 60.9837 64.5597C61.0609 64.7233 61.0732 64.8812 61.0207 65.0335L56.8976 75.6325C56.8519 75.7069 56.7696 75.752 56.6505 75.7677C56.5304 75.7964 56.406 75.7986 56.2775 75.7743C56.1607 75.764 56.0462 75.7279 55.934 75.6658C55.8337 75.6178 55.7669 75.5597 55.7336 75.4914L53.2068 64.0362ZM63.0554 64.2312C63.1366 64.1991 63.2303 64.1746 63.3363 64.1578C63.4423 64.1409 63.5408 64.1364 63.6316 64.1444C63.7353 64.1535 63.8309 64.1814 63.9183 64.2283C64.0057 64.2752 64.0708 64.3527 64.1136 64.461C64.0398 65.3042 63.9663 66.2192 63.893 67.2062C63.8339 68.1813 63.773 69.1759 63.7104 70.1899C63.662 71.1921 63.6081 72.1807 63.549 73.1559C63.4898 74.131 63.4369 75.0347 63.3902 75.8672C63.3861 76.0629 63.3212 76.2075 63.1954 76.3011C63.0696 76.3946 62.9353 76.4352 62.7926 76.4227C62.6629 76.4113 62.5442 76.3487 62.4366 76.2347C62.3278 76.1337 62.2824 75.9794 62.3006 75.7719L63.0554 64.2312ZM63.1692 60.2416C63.1839 60.073 63.2519 59.9678 63.3732 59.9261C63.4956 59.8715 63.6282 59.8504 63.7709 59.8629C64.0562 59.8879 64.2228 60.0005 64.2707 60.2007C64.3326 60.3891 64.3528 60.6065 64.3312 60.853C64.2398 61.0018 64.1264 61.103 63.991 61.1565C63.8556 61.21 63.7183 61.2111 63.579 61.1597C63.4527 61.1094 63.3439 61.0084 63.2526 60.8567C63.1743 60.706 63.1465 60.501 63.1692 60.2416ZM66.936 60.2574C67.0184 60.2124 67.1008 60.1673 67.1831 60.1222C67.2796 60.0653 67.3738 60.0343 67.4657 60.0293C67.5588 60.0113 67.6361 60.0246 67.6975 60.0692C67.7719 60.1149 67.8294 60.2049 67.87 60.3392L66.5823 76.4013C66.5061 76.5254 66.4144 76.6023 66.3073 76.6321C66.199 76.6749 66.094 76.6788 65.9925 76.6438C65.8899 76.6218 65.796 76.5743 65.7109 76.5015C65.6388 76.4299 65.5937 76.3475 65.5757 76.2544L66.936 60.2574ZM70.4032 60.5608C70.4856 60.5157 70.568 60.4706 70.6504 60.4256C70.7468 60.3686 70.841 60.3377 70.933 60.3326C71.026 60.3146 71.1033 60.3279 71.1647 60.3725C71.2392 60.4183 71.2966 60.5082 71.3372 60.6425L70.0496 76.7047C69.9734 76.8287 69.8817 76.9057 69.7745 76.9355C69.6662 76.9783 69.5613 76.9822 69.4598 76.9472C69.3571 76.9251 69.2633 76.8777 69.1781 76.8049C69.106 76.7332 69.0609 76.6509 69.0429 76.5578L70.4032 60.5608ZM78.8886 77.4584C78.7308 77.1701 78.6453 76.8032 78.632 76.3576C78.6317 75.9132 78.646 75.4504 78.675 74.9694C78.7182 74.4765 78.7601 73.9965 78.801 73.5295C78.856 73.0507 78.8593 72.6393 78.811 72.2953C78.0844 73.578 77.4158 74.5716 76.8052 75.2763C76.2087 75.9692 75.6693 76.4578 75.1869 76.7424C74.7187 77.0151 74.3041 77.1226 73.9431 77.0649C73.5833 76.9942 73.2834 76.8373 73.0432 76.5941C72.8172 76.339 72.647 76.0431 72.5327 75.7064C72.4196 75.3566 72.3695 75.032 72.3827 74.7325C72.335 74.2317 72.3801 73.6409 72.5181 72.9603C72.6702 72.2678 72.8823 71.5609 73.1546 70.8397C73.4398 70.1196 73.7752 69.4235 74.1607 68.7515C74.5604 68.0676 74.9905 67.4843 75.4509 67.0018C75.9244 66.5204 76.4118 66.1775 76.9133 65.973C77.416 65.7556 77.9193 65.7538 78.4234 65.9679C78.6851 65.9646 78.898 65.9963 79.0621 66.063C79.2403 66.1178 79.3815 66.2216 79.4858 66.3745C79.5901 66.5274 79.6568 66.7358 79.686 66.9998C79.7163 67.2508 79.7274 67.572 79.7193 67.9634C79.5833 69.2193 79.5221 70.2923 79.5357 71.1823C79.5623 72.0734 79.611 72.8619 79.6817 73.5478C79.7524 74.2336 79.8223 74.8541 79.8913 75.4091C79.9734 75.9652 80.0018 76.5363 79.9767 77.1223C79.9586 77.3298 79.8925 77.4874 79.7785 77.5951C79.6657 77.6898 79.5432 77.7444 79.4113 77.759C79.2781 77.7866 79.1555 77.7693 79.0433 77.7072C78.9441 77.6462 78.8925 77.5633 78.8886 77.4584ZM78.6197 67.5339C78.3447 67.0916 78.0228 66.887 77.6539 66.92C77.2851 66.9531 76.902 67.1484 76.5048 67.5057C76.1216 67.8512 75.7407 68.3211 75.3619 68.9154C74.9843 69.4967 74.6481 70.1273 74.3534 70.8073C74.0586 71.4874 73.8222 72.1725 73.6442 72.8627C73.4803 73.5411 73.4075 74.1491 73.4258 74.6866C73.5563 75.2862 73.7462 75.6557 73.9954 75.7951C74.2446 75.9346 74.5269 75.92 74.8423 75.7516C75.1588 75.5701 75.492 75.2725 75.8419 74.8587C76.1918 74.4449 76.5315 73.9976 76.8611 73.5167C77.1919 73.0228 77.4897 72.5326 77.7544 72.046C78.0333 71.5475 78.2594 71.1295 78.4327 70.7917L78.6197 67.5339ZM82.5205 83.0501C83.4849 83.0822 84.3203 82.9462 85.0266 82.642C85.7317 82.3508 86.3303 81.9326 86.8224 81.3875C87.3145 80.8423 87.7049 80.1903 87.9935 79.4313C88.2821 78.6723 88.4985 77.8417 88.6428 76.9394C88.7328 76.3591 88.7971 75.8484 88.8357 75.4074C88.8884 74.9545 88.9176 74.5453 88.9235 74.1799C88.9434 73.8026 88.9552 73.4442 88.9587 73.1046C88.9623 72.7651 88.967 72.4126 88.9728 72.0472C88.9786 71.6817 88.9867 71.2903 88.9971 70.8729C89.0216 70.4437 89.0577 69.9568 89.1053 69.412C88.3227 71.1864 87.6102 72.6076 86.9678 73.6755C86.3254 74.7433 85.7393 75.5417 85.2094 76.0704C84.6925 76.6003 84.2344 76.9066 83.835 76.9893C83.4486 77.0731 83.1196 77.0247 82.8478 76.8441C82.5772 76.6505 82.367 76.3642 82.2172 75.9851C82.0685 75.593 81.9787 75.1996 81.9479 74.8048C82.0306 74.1585 82.2163 73.4558 82.5049 72.6968C82.7946 71.9249 83.154 71.1786 83.583 70.4581C84.0131 69.7245 84.4966 69.0545 85.0332 68.4479C85.571 67.8284 86.1359 67.3484 86.7277 67.0081C87.3195 66.6677 87.9095 66.4972 88.4978 66.4964C89.099 66.4967 89.6781 66.7499 90.235 67.2561C90.2491 67.2443 90.2496 67.3881 90.2365 67.6876C90.2363 67.9882 90.2271 68.3926 90.2088 68.9007C90.2034 69.41 90.1842 70.003 90.1512 70.6798C90.1322 71.3448 90.1104 72.0421 90.0858 72.7719C90.0611 73.5017 90.03 74.2309 89.9924 74.9596C89.9677 75.6894 89.9476 76.3673 89.9321 76.9933C89.8395 78.2008 89.5609 79.294 89.0962 80.2728C88.6315 81.2517 88.0507 82.0635 87.3539 82.7083C86.67 83.3543 85.9052 83.8037 85.0597 84.0565C84.2271 84.3104 83.3901 84.3156 82.5488 84.0721C82.5098 84.0687 82.4473 84.0371 82.361 83.9772C82.2877 83.9185 82.2291 83.8415 82.1852 83.7462C82.1542 83.652 82.1573 83.5412 82.1946 83.4137C82.2308 83.2992 82.3394 83.178 82.5205 83.0501ZM82.9774 74.9144C83.0793 75.3939 83.2469 75.6438 83.4804 75.6643C83.715 75.6717 83.9892 75.5258 84.3029 75.2265C84.6308 74.9153 84.9818 74.4886 85.356 73.9462C85.7302 73.4038 86.109 72.8096 86.4923 72.1634C86.8897 71.5055 87.2747 70.8399 87.6473 70.1667C88.021 69.4805 88.3702 68.851 88.6948 68.2781C88.7084 68.1225 88.682 67.9764 88.6155 67.8398C88.5631 67.6915 88.4114 67.6325 88.1604 67.6628C87.7515 67.7054 87.3383 67.8719 86.9208 68.1621C86.5174 68.4405 86.1272 68.792 85.7502 69.2165C85.3744 69.628 85.02 70.0936 84.6869 70.6135C84.368 71.1215 84.0874 71.6393 83.8452 72.1671C83.6041 72.6819 83.4036 73.1807 83.2437 73.6634C83.0968 74.1472 83.0081 74.5642 82.9774 74.9144ZM92.8759 73.6434C92.7783 73.7133 92.6133 73.7315 92.3809 73.6981C92.1627 73.6529 91.9597 73.5829 91.7719 73.488C91.5972 73.3943 91.483 73.2797 91.4295 73.1444C91.3771 72.996 91.4691 72.8407 91.7055 72.6784C91.8031 72.6085 91.905 72.5651 92.011 72.5482C92.1312 72.5195 92.2443 72.4968 92.3503 72.4799C92.4704 72.4512 92.5658 72.4072 92.6363 72.3481C92.7198 72.29 92.7743 72.1902 92.7997 72.0487C92.8638 71.4661 92.9614 70.8734 93.0925 70.2706C93.2367 69.6688 93.4465 69.1382 93.722 68.6787C93.9974 68.2192 94.3617 67.8655 94.8147 67.6176C95.2807 67.3708 95.8676 67.311 96.5753 67.4383C96.8347 67.461 97.1209 67.5514 97.4338 67.7095C97.7479 67.8546 98.045 68.044 98.3252 68.2776C98.6065 68.4983 98.845 68.761 99.0405 69.0656C99.2372 69.3573 99.3473 69.6676 99.3708 69.9964C99.4503 70.134 99.3842 70.2916 99.1726 70.4692C98.961 70.6467 98.6693 70.8434 98.2975 71.0592C97.9269 71.2621 97.5103 71.4674 97.0477 71.6753C96.5851 71.8832 96.1366 72.0792 95.7022 72.2634C95.2808 72.4487 94.9071 72.6121 94.581 72.7535C94.255 72.8949 94.0437 72.994 93.9472 73.0509C93.9808 73.5636 94.0186 74.1028 94.0606 74.6685C94.1026 75.2342 94.1875 75.758 94.3152 76.2397C94.443 76.7214 94.6165 77.1287 94.8357 77.4616C95.069 77.7826 95.3803 77.9601 95.7694 77.9942C96.3367 78.083 96.8305 78.0413 97.2508 77.8689C97.6841 77.6977 98.0516 77.4554 98.3535 77.1419C98.6554 76.8285 98.9018 76.4776 99.0926 76.0891C99.2964 75.7017 99.4531 75.3298 99.5628 74.9735C99.6853 74.6182 99.7704 74.3185 99.8179 74.0743C99.8795 73.8183 99.9244 73.6784 99.9526 73.6548C100.102 73.5894 100.264 73.6036 100.439 73.6973C100.615 73.7781 100.702 73.9752 100.701 74.2888C100.67 74.7958 100.509 75.3634 100.219 75.9915C99.9285 76.6197 99.552 77.188 99.0892 77.6965C98.6395 78.2061 98.1145 78.6045 97.5142 78.8919C96.9281 79.1673 96.3218 79.2254 95.6953 79.066C95.0348 78.9952 94.526 78.7611 94.1686 78.3639C93.8124 77.9537 93.5402 77.4789 93.3521 76.9396C93.1781 76.3885 93.0648 75.8166 93.0121 75.2238C92.9594 74.631 92.914 74.1042 92.8759 73.6434ZM98.3396 69.9062C97.9744 69.2991 97.5846 68.899 97.1702 68.7059C96.7558 68.5128 96.3187 68.4288 95.8591 68.454C95.5833 68.4691 95.3319 68.5778 95.1051 68.7801C94.8794 68.9695 94.6869 69.2272 94.5277 69.5531C94.3696 69.866 94.2465 70.2277 94.1583 70.6383C94.0712 71.0358 94.0284 71.4504 94.0299 71.8818L98.3396 69.9062ZM116.357 80.0894C116.378 79.843 116.437 79.6913 116.534 79.6344C116.631 79.5645 116.764 79.5369 116.933 79.5517C117.179 79.5732 117.379 79.6822 117.532 79.8785C117.686 80.0619 117.752 80.2703 117.732 80.5038C117.714 80.7114 117.623 80.8472 117.461 80.9115C117.311 80.9768 117.139 81.001 116.945 80.9839C116.867 80.9771 116.792 80.9379 116.72 80.8662C116.648 80.7946 116.583 80.7105 116.526 80.614C116.469 80.5175 116.425 80.4222 116.394 80.328C116.364 80.2338 116.351 80.1543 116.357 80.0894ZM115.973 71.2528C116.024 70.6691 116.206 70.1557 116.519 69.7126C116.847 69.2576 117.23 68.8337 117.67 68.4408C118.122 68.0491 118.606 67.6731 119.121 67.313C119.649 66.954 120.133 66.5781 120.573 66.1852C121.026 65.7805 121.41 65.3501 121.725 64.894C122.052 64.439 122.241 63.9197 122.292 63.336C122.322 62.9987 122.253 62.7443 122.085 62.5728C121.931 62.3894 121.726 62.2604 121.472 62.1858C121.218 62.0983 120.935 62.0474 120.622 62.0331C120.324 62.007 120.052 61.9832 119.805 61.9616C119.338 61.9208 118.889 61.973 118.458 62.1183C118.027 62.2635 117.608 62.4294 117.199 62.6159C116.805 62.7905 116.412 62.9522 116.02 63.1009C115.629 63.2366 115.239 63.2874 114.849 63.2534C114.668 63.2375 114.514 63.2044 114.388 63.1541C114.262 63.0909 114.213 62.9101 114.239 62.6118C114.254 62.4432 114.392 62.2853 114.653 62.1382C114.915 61.9782 115.241 61.8368 115.631 61.7141C116.035 61.5795 116.477 61.4613 116.956 61.3595C117.437 61.2447 117.902 61.1547 118.352 61.0895C118.815 61.0254 119.225 60.9763 119.581 60.9421C119.949 60.909 120.225 60.9004 120.406 60.9163C120.731 60.9447 121.079 61.0012 121.45 61.086C121.822 61.1708 122.157 61.2982 122.456 61.4681C122.756 61.6251 122.998 61.8423 123.183 62.1199C123.369 62.3845 123.444 62.7179 123.409 63.12C123.345 63.8594 123.092 64.5758 122.653 65.2693C122.227 65.9509 121.72 66.5927 121.131 67.1948C120.557 67.785 119.96 68.334 119.34 68.8418C118.722 69.3367 118.193 69.7806 117.753 70.1734C117.564 70.2483 117.435 70.3743 117.367 70.5514C117.313 70.7296 117.303 70.9182 117.338 71.1173C117.372 71.3164 117.46 71.5136 117.6 71.7088C117.739 71.904 117.922 72.0573 118.147 72.1685C118.373 72.2797 118.636 72.3354 118.937 72.3356C119.251 72.3239 119.6 72.2237 119.983 72.0349L120.318 72.9073C119.999 73.1147 119.629 73.2392 119.207 73.2807C118.798 73.3233 118.412 73.3288 118.049 73.297C117.776 73.2732 117.507 73.2104 117.242 73.1087C116.99 72.9953 116.761 72.851 116.554 72.6761C116.361 72.4893 116.21 72.28 116.099 72.0481C115.99 71.8033 115.948 71.5382 115.973 71.2528Z" fill="#2C2C2C"/>
</svg>
