<svg width="205" height="106" viewBox="0 0 205 106" fill="none" xmlns="http://www.w3.org/2000/svg">
<path d="M71.7114 69.1419C71.7037 69.063 71.8545 68.9215 72.1638 68.7173C72.4856 68.5098 72.8841 68.2614 73.3593 67.9723C73.8312 67.6707 74.3546 67.335 74.9295 66.9652C75.5011 66.5829 76.0408 66.1822 76.5485 65.763C77.0689 65.3405 77.5196 64.9097 77.9007 64.4706C78.2785 64.0189 78.522 63.5695 78.6313 63.1223C78.5774 62.921 78.397 62.8009 78.0899 62.7618C77.7829 62.7228 77.3929 62.7262 76.9199 62.772C76.4469 62.8179 75.9144 62.8932 75.3223 62.9979C74.7303 63.1026 74.1144 63.1935 73.4745 63.2706C72.8472 63.3443 72.2257 63.3895 71.6101 63.4062C70.9945 63.4229 70.4283 63.3724 69.9115 63.2547C69.3913 63.1245 68.944 62.9141 68.5696 62.6235C68.1918 62.3203 67.9287 61.8921 67.7805 61.3387C67.6355 60.7978 67.6084 60.2187 67.6991 59.6013C67.799 58.9679 67.9794 58.3332 68.2403 57.6971C68.5013 57.061 68.8272 56.4412 69.2182 55.8377C69.6217 55.2308 70.0593 54.6755 70.5309 54.1716C71.0025 53.6678 71.4881 53.2412 71.9876 52.8917C72.487 52.5421 72.9757 52.3033 73.4537 52.1753C73.5794 52.1416 73.7115 52.1062 73.8498 52.0691C73.9848 52.0195 74.106 51.9938 74.2134 51.9919C74.3333 51.9868 74.4365 52.0198 74.523 52.091C74.6187 52.1462 74.6884 52.2556 74.7322 52.4191C74.84 52.8216 74.7855 53.1462 74.5686 53.3931C74.3516 53.6399 74.0545 53.8139 73.6772 53.915L72.7952 53.8682C72.4808 53.9525 72.1476 54.1429 71.7957 54.4394C71.4529 54.7199 71.1225 55.0713 70.8043 55.4936C70.4827 55.9033 70.1809 56.3616 69.8988 56.8686C69.626 57.3595 69.3959 57.8593 69.2086 58.3678C69.0306 58.8604 68.9045 59.3457 68.8304 59.8239C68.7656 60.2861 68.7786 60.687 68.8696 61.0266C68.9842 61.4542 69.2169 61.7693 69.5677 61.9719C69.9152 62.1619 70.3372 62.2779 70.8338 62.3201C71.3304 62.3623 71.8798 62.3499 72.4819 62.2829C73.0933 62.2 73.7092 62.1091 74.3298 62.0102C74.9503 61.9113 75.56 61.8221 76.1588 61.7426C76.7701 61.6596 77.3207 61.6267 77.8105 61.6437C78.297 61.6482 78.7106 61.7328 79.0514 61.8976C79.3887 62.0499 79.6096 62.3209 79.7141 62.7108C79.8152 63.0881 79.7654 63.5059 79.5646 63.9641C79.3639 64.4223 79.0654 64.8932 78.6693 65.3768C78.2698 65.8478 77.7897 66.3202 77.2292 66.7939C76.6778 67.2517 76.1101 67.6734 75.5259 68.0591C74.9384 68.4322 74.3517 68.7579 73.7657 69.0362C73.1924 69.3112 72.6839 69.5013 72.2403 69.6067C72.1145 69.6404 71.9958 69.625 71.8842 69.5606C71.7726 69.4961 71.715 69.3566 71.7114 69.1419ZM82.1006 61.5659C82.0328 61.6649 81.884 61.7385 81.6543 61.7866C81.4337 61.8187 81.219 61.8223 81.0101 61.7974C80.8138 61.7691 80.6674 61.7005 80.5708 61.5916C80.4708 61.4701 80.5042 61.2927 80.6708 61.0593C80.7386 60.9602 80.8195 60.8846 80.9134 60.8325C81.0164 60.7645 81.1149 60.7044 81.2088 60.6523C81.3119 60.5842 81.3864 60.5103 81.4325 60.4306C81.4911 60.3475 81.5081 60.2351 81.4837 60.0933C81.3446 59.524 81.2336 58.9336 81.1506 58.3223C81.0803 57.7076 81.096 57.1372 81.1977 56.6112C81.2994 56.0852 81.5207 55.6282 81.8616 55.2403C82.2151 54.849 82.7461 54.5922 83.4547 54.4697C83.7062 54.4023 84.0061 54.3894 84.3542 54.4309C84.699 54.4598 85.0429 54.5362 85.3861 54.6599C85.726 54.771 86.0398 54.9363 86.3278 55.1557C86.6124 55.3625 86.8219 55.6164 86.9565 55.9174C87.0782 56.0196 87.0701 56.1903 86.932 56.4295C86.7939 56.6687 86.587 56.9533 86.3115 57.2832C86.0325 57.6006 85.7113 57.9361 85.3477 58.2896C84.9841 58.6431 84.6297 58.9807 84.2845 59.3024C83.9519 59.6207 83.6566 59.902 83.3986 60.1464C83.1405 60.3908 82.9759 60.5562 82.9047 60.6427C83.1116 61.113 83.3315 61.6067 83.5645 62.124C83.7975 62.6412 84.0563 63.1043 84.3412 63.5133C84.626 63.9222 84.9283 64.2456 85.2482 64.4834C85.5772 64.7053 85.9304 64.7657 86.3077 64.6646C86.8712 64.554 87.321 64.3459 87.6569 64.0402C88.0055 63.7311 88.268 63.3777 88.4445 62.9799C88.621 62.5822 88.7325 62.1681 88.7789 61.7378C88.838 61.3041 88.858 60.901 88.8391 60.5286C88.8328 60.1529 88.8102 59.8422 88.7713 59.5965C88.7417 59.3348 88.736 59.188 88.7545 59.1561C88.8726 59.0436 89.0298 59.0015 89.2261 59.0298C89.419 59.0455 89.5685 59.2009 89.6746 59.496C89.8186 59.9831 89.8616 60.5715 89.8037 61.261C89.7459 61.9505 89.5864 62.6133 89.3255 63.2494C89.0772 63.8821 88.7201 64.4361 88.2543 64.9114C87.7978 65.3707 87.2479 65.6326 86.6046 65.6972C85.9598 65.8565 85.4016 65.8106 84.9299 65.5595C84.4549 65.2959 84.0367 64.9428 83.6755 64.5004C83.3236 64.042 83.0214 63.5434 82.7692 63.0043C82.5169 62.4653 82.2941 61.9858 82.1006 61.5659ZM85.9566 56.1853C85.4059 55.7397 84.9028 55.4971 84.4473 55.4574C83.9918 55.4177 83.5524 55.4882 83.129 55.6691C82.875 55.7776 82.676 55.9657 82.5321 56.2334C82.3848 56.4886 82.292 56.7965 82.2539 57.1572C82.2124 57.5053 82.2204 57.8874 82.2779 58.3033C82.3321 58.7067 82.4336 59.1109 82.5826 59.5158L85.9566 56.1853ZM82.2818 53.1866C81.8843 53.2122 81.638 53.1232 81.543 52.9195C81.448 52.7158 81.4531 52.4583 81.5584 52.147C81.673 51.8197 81.8453 51.4568 82.0755 51.0581C82.3182 50.656 82.5644 50.2665 82.8139 49.8897C83.0402 49.829 83.2143 49.8498 83.336 49.9519C83.4578 50.0541 83.5406 50.187 83.5844 50.3505L83.6248 50.5014C83.6435 50.6716 83.6043 50.8776 83.5073 51.1193C83.4195 51.345 83.3019 51.5854 83.1546 51.8406C83.0165 52.0798 82.8658 52.3224 82.7026 52.5683C82.5359 52.8017 82.3957 53.0078 82.2818 53.1866ZM88.7465 48.3202C88.8085 48.2497 88.8705 48.1792 88.9325 48.1086C89.0037 48.0222 89.0816 47.9608 89.1663 47.9247C89.2476 47.8759 89.3247 47.862 89.3977 47.8829C89.4833 47.9004 89.5681 47.9653 89.6521 48.0776L93.9357 63.6115C93.9065 63.7541 93.8467 63.8578 93.7562 63.9224C93.669 63.9997 93.5718 64.0393 93.4644 64.0411C93.3604 64.0554 93.256 64.043 93.1511 64.0037C93.0588 63.961 92.9883 63.899 92.9395 63.8177L88.7465 48.3202ZM95.4274 57.995C95.3596 58.094 95.2108 58.1676 94.981 58.2157C94.7605 58.2478 94.5458 58.2514 94.3369 58.2265C94.1406 58.1982 93.9941 58.1296 93.8976 58.0207C93.7976 57.8992 93.8309 57.7218 93.9976 57.4884C94.0654 57.3893 94.1462 57.3138 94.2401 57.2616C94.3432 57.1936 94.4417 57.1335 94.5356 57.0814C94.6386 57.0133 94.7132 56.9394 94.7592 56.8597C94.8178 56.7766 94.8349 56.6642 94.8104 56.5224C94.6713 55.9531 94.5603 55.3628 94.4774 54.7514C94.4071 54.1367 94.4227 53.5663 94.5244 53.0403C94.6261 52.5143 94.8474 52.0573 95.1883 51.6694C95.5418 51.2781 96.0729 51.0213 96.7814 50.8988C97.033 50.8314 97.3328 50.8185 97.681 50.86C98.0257 50.8889 98.3697 50.9653 98.7129 51.089C99.0527 51.2001 99.3666 51.3654 99.6546 51.5848C99.9391 51.7916 100.149 52.0455 100.283 52.3465C100.405 52.4487 100.397 52.6194 100.259 52.8586C100.121 53.0978 99.9138 53.3824 99.6382 53.7123C99.3593 54.0297 99.038 54.3652 98.6745 54.7187C98.3109 55.0723 97.9565 55.4099 97.6113 55.7315C97.2787 56.0498 96.9834 56.3311 96.7253 56.5755C96.4673 56.8199 96.3027 56.9853 96.2315 57.0718C96.4384 57.5421 96.6583 58.0358 96.8913 58.5531C97.1242 59.0703 97.3831 59.5334 97.6679 59.9424C97.9527 60.3513 98.2551 60.6747 98.5749 60.9125C98.904 61.1344 99.2572 61.1948 99.6345 61.0937C100.198 60.9832 100.648 60.775 100.984 60.4693C101.332 60.1602 101.595 59.8068 101.771 59.409C101.948 59.0113 102.059 58.5972 102.106 58.1669C102.165 57.7332 102.185 57.3301 102.166 56.9578C102.16 56.582 102.137 56.2713 102.098 56.0256C102.068 55.7639 102.063 55.6171 102.081 55.5852C102.199 55.4727 102.357 55.4306 102.553 55.4589C102.746 55.4746 102.895 55.63 103.001 55.9251C103.145 56.4122 103.188 57.0006 103.13 57.6901C103.073 58.3796 102.913 59.0424 102.652 59.6785C102.404 60.3112 102.047 60.8652 101.581 61.3405C101.125 61.7998 100.575 62.0617 99.9314 62.1263C99.2866 62.2856 98.7283 62.2397 98.2567 61.9886C97.7816 61.725 97.3635 61.372 97.0023 60.9295C96.6503 60.4712 96.3482 59.9725 96.0959 59.4334C95.8437 58.8944 95.6208 58.4149 95.4274 57.995ZM99.2834 52.6144C98.7326 52.1688 98.2295 51.9262 97.774 51.8865C97.3185 51.8468 96.8791 51.9173 96.4558 52.0982C96.2018 52.2067 96.0028 52.3948 95.8588 52.6625C95.7115 52.9177 95.6188 53.2256 95.5806 53.5863C95.5391 53.9345 95.5471 54.3165 95.6047 54.7324C95.6588 55.1358 95.7604 55.54 95.9093 55.9449L99.2834 52.6144ZM104.769 55.7144C104.668 55.1886 104.572 54.6549 104.481 54.1131C104.39 53.5714 104.329 53.0418 104.298 52.5244C104.264 51.9943 104.27 51.4873 104.315 51.0033C104.361 50.5193 104.465 50.08 104.629 49.6856C104.806 49.2879 105.051 48.9458 105.365 48.6594C105.692 48.3696 106.115 48.162 106.634 48.0364C106.986 47.942 107.297 48.0205 107.567 48.2718C107.833 48.5105 108.059 48.8273 108.246 49.2221C108.445 49.6136 108.604 50.0294 108.722 50.4696C108.852 50.9064 108.955 51.2632 109.029 51.5399C108.86 51.6659 108.697 51.7097 108.538 51.6713C108.392 51.6295 108.253 51.5387 108.121 51.3988C107.999 51.2429 107.876 51.0602 107.752 50.8507C107.629 50.6412 107.511 50.4299 107.4 50.217C107.302 50.0007 107.194 49.8004 107.078 49.616C106.973 49.4283 106.867 49.2816 106.758 49.1761C106.504 49.1361 106.293 49.2265 106.123 49.4473C105.953 49.6681 105.822 49.9593 105.73 50.3209C105.635 50.67 105.569 51.0785 105.532 51.5466C105.509 52.0113 105.505 52.4772 105.523 52.9444C105.537 53.3989 105.566 53.8359 105.611 54.2552C105.656 54.6745 105.716 55.0225 105.79 55.2992C105.903 55.6732 106.051 56.0718 106.232 56.4952C106.409 56.906 106.618 57.2815 106.857 57.6217C107.096 57.962 107.366 58.2401 107.667 58.4561C107.964 58.6596 108.299 58.7519 108.671 58.733C109.149 58.6049 109.531 58.4216 109.818 58.1831C110.114 57.9286 110.337 57.6532 110.486 57.3569C110.645 57.0447 110.747 56.7209 110.792 56.3853C110.837 56.0497 110.857 55.7209 110.851 55.3989C110.843 55.0642 110.822 54.7598 110.789 54.4855C110.765 54.1954 110.754 53.9555 110.758 53.7659C111.061 53.5903 111.314 53.5292 111.517 53.5826C111.733 53.6327 111.859 53.7269 111.896 53.8652C112.051 54.4438 112.106 55.0493 112.059 55.6818C112.01 56.3016 111.857 56.8885 111.601 57.4424C111.358 57.9929 111.009 58.4773 110.555 58.8955C110.101 59.3138 109.54 59.6122 108.874 59.7908C108.308 59.9425 107.795 59.8911 107.336 59.6366C106.874 59.3696 106.468 59.0132 106.12 58.5674C105.784 58.1183 105.497 57.6288 105.261 57.099C105.037 56.5658 104.873 56.1043 104.769 55.7144ZM113.362 48.9835L111.783 50.0334C111.635 50.0327 111.503 49.9939 111.388 49.9168C111.261 49.8432 111.163 49.7548 111.095 49.6517C111.027 49.5486 110.992 49.4434 110.99 49.3361C110.976 49.2321 111.006 49.1431 111.08 49.0692L113.014 47.6817L111.545 42.3528C111.539 42.1792 111.589 42.0378 111.695 41.9287C111.8 41.8195 111.917 41.7544 112.047 41.7332C112.185 41.6962 112.322 41.7065 112.459 41.7642C112.593 41.8093 112.695 41.8897 112.767 42.0054C112.846 42.402 112.938 42.8221 113.044 43.2657C113.146 43.6967 113.249 44.134 113.355 44.5775C113.469 45.0052 113.588 45.4248 113.712 45.8365C113.833 46.2356 113.957 46.5999 114.086 46.9294L116.692 44.9573C116.854 44.8598 116.998 44.8416 117.122 44.9027C117.243 44.9512 117.334 45.0412 117.396 45.1728C117.468 45.2885 117.495 45.416 117.479 45.5552C117.462 45.6945 117.398 45.8061 117.285 45.8901L114.435 48.2311C114.468 48.3569 114.556 48.657 114.696 49.1316C114.833 49.5936 114.994 50.1436 115.179 50.7817C115.363 51.4197 115.559 52.1018 115.768 52.8279C115.976 53.554 116.166 54.2378 116.337 54.8792C116.522 55.5173 116.678 56.0753 116.806 56.5532C116.943 57.0152 117.029 57.3091 117.063 57.4349C117.149 57.8567 117.085 58.0962 116.871 58.1535C116.657 58.2108 116.398 58.1725 116.092 58.0387L113.362 48.9835ZM118.267 44.8588C118.332 44.8008 118.412 44.7458 118.506 44.6937C118.599 44.6416 118.69 44.6037 118.778 44.5801C118.879 44.5532 118.978 44.5467 119.077 44.5609C119.175 44.575 119.262 44.6257 119.34 44.7128C119.559 45.5303 119.803 46.4153 120.071 47.3678C120.349 48.3044 120.632 49.2598 120.92 50.2341C121.217 51.1924 121.505 52.1398 121.783 53.0764C122.061 54.0129 122.32 54.8803 122.561 55.6785C122.624 55.8638 122.613 56.0219 122.526 56.1528C122.44 56.2838 122.328 56.3678 122.189 56.4049C122.064 56.4386 121.931 56.4203 121.791 56.35C121.654 56.2923 121.558 56.1628 121.505 55.9616L118.267 44.8588ZM117.009 41.0708C116.965 40.9073 116.993 40.7852 117.093 40.7046C117.189 40.6114 117.307 40.5463 117.445 40.5092C117.722 40.435 117.917 40.4839 118.03 40.6557C118.153 40.8115 118.246 41.009 118.31 41.2479C118.275 41.4191 118.203 41.5529 118.094 41.6495C117.985 41.7461 117.857 41.7941 117.708 41.7934C117.572 41.7894 117.436 41.7317 117.298 41.6203C117.173 41.5055 117.076 41.3224 117.009 41.0708ZM126.806 54.9049C126.286 54.9769 125.817 54.8868 125.399 54.6349C124.994 54.3795 124.631 54.0319 124.311 53.5919C123.991 53.152 123.722 52.6512 123.504 52.0895C123.295 51.5118 123.128 50.9366 123.001 50.3639C122.806 49.486 122.741 48.6138 122.806 47.7473C122.883 46.8774 123.051 46.0976 123.311 45.4078C123.58 44.7021 123.924 44.1246 124.343 43.6754C124.771 43.2102 125.241 42.9497 125.751 42.8937C126.287 42.831 126.768 42.965 127.194 43.2958C127.632 43.6232 128.02 44.0652 128.358 44.6217C128.696 45.1783 128.979 45.8099 129.209 46.5167C129.436 47.2109 129.611 47.8918 129.736 48.5593C129.872 49.3182 129.894 50.0537 129.802 50.7659C129.71 51.4781 129.525 52.1208 129.247 52.694C128.982 53.2639 128.633 53.7482 128.201 54.1472C127.777 54.5301 127.313 54.7827 126.806 54.9049ZM125.851 44.0196C125.422 44.0805 125.068 44.317 124.787 44.7292C124.516 45.1254 124.305 45.6201 124.154 46.2133C124.012 46.7905 123.934 47.4314 123.921 48.1359C123.904 48.8279 123.948 49.4968 124.054 50.1425C124.125 50.6087 124.231 51.0792 124.372 51.5537C124.512 52.0283 124.685 52.447 124.89 52.81C125.108 53.1695 125.364 53.4447 125.657 53.6356C125.96 53.8106 126.307 53.8458 126.697 53.7413C127.014 53.6696 127.313 53.4751 127.592 53.1577C127.883 52.837 128.129 52.4475 128.33 51.9893C128.527 51.5185 128.674 51.0076 128.769 50.4564C128.876 49.9019 128.899 49.3567 128.836 48.8208C128.779 48.2564 128.65 47.6979 128.448 47.1454C128.255 46.577 128.017 46.0677 127.735 45.6177C127.465 45.1642 127.164 44.7934 126.83 44.5053C126.506 44.2012 126.18 44.0393 125.851 44.0196ZM129.798 42.133C129.777 42.0038 129.8 41.8897 129.868 41.7907C129.936 41.6916 130.025 41.6206 130.134 41.5777C130.241 41.5222 130.357 41.5045 130.484 41.5245C130.607 41.5319 130.719 41.5695 130.818 41.6373L132.783 49.1988C132.779 48.2292 132.754 47.2789 132.707 46.348C132.669 45.4011 132.698 44.5304 132.795 43.736C132.889 42.929 133.094 42.2339 133.409 41.6506C133.721 41.0547 134.234 40.6276 134.946 40.3692C135.326 40.227 135.698 40.2555 136.061 40.4547C136.421 40.6413 136.764 40.9403 137.09 41.3518C137.429 41.7598 137.751 42.2597 138.058 42.8515C138.362 43.4307 138.642 44.0498 138.9 44.7088C139.166 45.3518 139.409 46.0078 139.629 46.6768C139.849 47.3459 140.043 47.968 140.21 48.5432C140.378 49.1184 140.514 49.6278 140.62 50.0713C140.738 50.5115 140.817 50.8339 140.859 51.0385C140.828 51.2759 140.708 51.4564 140.498 51.58C140.305 51.7127 140.086 51.6769 139.843 51.4725C139.766 51.2369 139.65 50.8299 139.495 50.2513C139.337 49.6602 139.144 48.9907 138.916 48.2428C138.702 47.4915 138.453 46.7156 138.171 45.9149C137.899 45.0983 137.6 44.3627 137.277 43.708C136.962 43.0374 136.623 42.5014 136.26 42.1001C135.905 41.6828 135.537 41.4916 135.155 41.5264C134.828 41.5604 134.565 41.8127 134.368 42.2835C134.183 42.7509 134.038 43.3424 133.933 44.058C133.841 44.7702 133.783 45.5608 133.76 46.4297C133.749 47.2953 133.754 48.1433 133.774 48.9736C133.807 49.8006 133.848 50.5579 133.898 51.2457C133.947 51.9334 134 52.4584 134.057 52.8206C134.046 52.9314 133.992 53.0333 133.896 53.1265C133.8 53.2198 133.682 53.2849 133.544 53.322C133.422 53.3682 133.285 53.3848 133.133 53.3715C132.993 53.3549 132.874 53.2859 132.774 53.1644L129.798 42.133ZM139.555 39.5185C139.534 39.3893 139.557 39.2753 139.625 39.1762C139.693 39.0771 139.782 39.0062 139.892 38.9633C139.998 38.9078 140.115 38.89 140.241 38.91C140.365 38.9174 140.476 38.955 140.575 39.0228L142.54 46.5843C142.537 45.6147 142.511 44.6644 142.464 43.7335C142.426 42.7866 142.456 41.9159 142.553 41.1215C142.647 40.3145 142.851 39.6194 143.167 39.0361C143.479 38.4402 143.991 38.0131 144.704 37.7547C145.084 37.6125 145.455 37.641 145.819 37.8402C146.179 38.0268 146.522 38.3258 146.848 38.7373C147.186 39.1453 147.509 39.6453 147.816 40.2371C148.119 40.8163 148.4 41.4353 148.657 42.0943C148.924 42.7373 149.167 43.3933 149.387 44.0624C149.606 44.7314 149.8 45.3535 149.968 45.9287C150.135 46.5039 150.272 47.0133 150.377 47.4569C150.495 47.8971 150.575 48.2195 150.616 48.4241C150.585 48.6615 150.465 48.8419 150.255 48.9655C150.062 49.0982 149.843 49.0624 149.6 48.8581C149.523 48.6225 149.407 48.2154 149.252 47.6369C149.094 47.0457 148.901 46.3762 148.674 45.6283C148.459 44.8771 148.211 44.1011 147.929 43.3004C147.656 42.4838 147.358 41.7482 147.034 41.0935C146.72 40.4229 146.381 39.8869 146.017 39.4856C145.662 39.0683 145.294 38.8771 144.913 38.912C144.585 38.9459 144.322 39.1983 144.125 39.669C143.94 40.1364 143.795 40.7279 143.69 41.4435C143.598 42.1557 143.54 42.9463 143.517 43.8153C143.506 44.6809 143.511 45.5288 143.531 46.3592C143.564 47.1861 143.606 47.9435 143.655 48.6312C143.704 49.3189 143.758 49.8439 143.814 50.2061C143.803 50.3169 143.75 50.4188 143.653 50.5121C143.557 50.6053 143.44 50.6704 143.301 50.7075C143.179 50.7538 143.042 50.7703 142.89 50.7571C142.751 50.7404 142.631 50.6714 142.531 50.5499L139.555 39.5185ZM151.73 42.9086C151.662 43.0077 151.514 43.0813 151.284 43.1293C151.063 43.1615 150.849 43.1651 150.64 43.1402C150.443 43.1119 150.297 43.0433 150.2 42.9344C150.101 42.8129 150.134 42.6354 150.3 42.4021C150.368 42.303 150.449 42.2274 150.543 42.1753C150.646 42.1073 150.745 42.0472 150.838 41.9951C150.942 41.927 151.016 41.8531 151.062 41.7734C151.121 41.6903 151.138 41.5778 151.113 41.4361C150.974 40.8668 150.863 40.2764 150.78 39.6651C150.71 39.0504 150.726 38.48 150.827 37.954C150.929 37.428 151.15 36.971 151.491 36.5831C151.845 36.1918 152.376 35.935 153.084 35.8125C153.336 35.7451 153.636 35.7321 153.984 35.7737C154.329 35.8026 154.673 35.8789 155.016 36.0027C155.356 36.1138 155.67 36.2791 155.957 36.4985C156.242 36.7053 156.452 36.9592 156.586 37.2602C156.708 37.3623 156.7 37.533 156.562 37.7722C156.424 38.0115 156.217 38.296 155.941 38.626C155.662 38.9434 155.341 39.2788 154.977 39.6324C154.614 39.9859 154.259 40.3235 153.914 40.6452C153.582 40.9635 153.286 41.2448 153.028 41.4892C152.77 41.7336 152.606 41.899 152.534 41.9855C152.741 42.4558 152.961 42.9495 153.194 43.4668C153.427 43.984 153.686 44.4471 153.971 44.856C154.256 45.265 154.558 45.5884 154.878 45.8262C155.207 46.0481 155.56 46.1085 155.937 46.0074C156.501 45.8968 156.951 45.6887 157.287 45.383C157.635 45.0739 157.898 44.7205 158.074 44.3227C158.251 43.9249 158.362 43.5109 158.409 43.0806C158.468 42.6469 158.488 42.2438 158.469 41.8714C158.462 41.4957 158.44 41.185 158.401 40.9392C158.371 40.6776 158.366 40.5308 158.384 40.4989C158.502 40.3864 158.659 40.3443 158.856 40.3725C159.049 40.3883 159.198 40.5437 159.304 40.8388C159.448 41.3259 159.491 41.9142 159.433 42.6038C159.376 43.2933 159.216 43.9561 158.955 44.5922C158.707 45.2249 158.35 45.7789 157.884 46.2542C157.427 46.7135 156.878 46.9754 156.234 47.0399C155.589 47.1992 155.031 47.1534 154.56 46.9023C154.085 46.6387 153.666 46.2856 153.305 45.8432C152.953 45.3848 152.651 44.8861 152.399 44.3471C152.147 43.8081 151.924 43.3286 151.73 42.9086ZM155.586 37.5281C155.036 37.0825 154.532 36.8399 154.077 36.8002C153.621 36.7605 153.182 36.831 152.759 37.0119C152.505 37.1204 152.306 37.3085 152.162 37.5762C152.014 37.8314 151.922 38.1393 151.884 38.5C151.842 38.8481 151.85 39.2302 151.908 39.6461C151.962 40.0495 152.063 40.4537 152.212 40.8586L155.586 37.5281ZM171.401 33.4321L169.822 34.482C169.674 34.4813 169.542 34.4425 169.427 34.3655C169.299 34.2918 169.201 34.2034 169.133 34.1003C169.065 33.9973 169.03 33.892 169.029 33.7847C169.014 33.6807 169.044 33.5918 169.119 33.5179L171.052 32.1304L169.584 26.8015C169.578 26.6278 169.628 26.4865 169.733 26.3773C169.839 26.2681 169.956 26.203 170.085 26.1819C170.223 26.1448 170.361 26.1551 170.498 26.2128C170.631 26.258 170.734 26.3384 170.805 26.454C170.884 26.8506 170.977 27.2707 171.082 27.7143C171.184 28.1453 171.288 28.5826 171.393 29.0262C171.508 29.4538 171.627 29.8734 171.751 30.2851C171.871 30.6842 171.996 31.0485 172.124 31.378L174.73 29.4059C174.893 29.3084 175.036 29.2902 175.16 29.3513C175.281 29.3998 175.373 29.4898 175.435 29.6214C175.506 29.7371 175.534 29.8646 175.517 30.0038C175.501 30.1431 175.436 30.2547 175.324 30.3387L172.473 32.6797C172.507 32.8055 172.594 33.1056 172.735 33.5802C172.872 34.0422 173.033 34.5922 173.217 35.2303C173.402 35.8683 173.598 36.5504 173.806 37.2765C174.014 38.0026 174.204 38.6864 174.376 39.3278C174.56 39.9659 174.717 40.5239 174.845 41.0018C174.982 41.4638 175.067 41.7577 175.101 41.8835C175.187 42.3053 175.123 42.5448 174.91 42.6021C174.696 42.6594 174.436 42.6211 174.131 42.4873L171.401 33.4321ZM180.577 40.497C180.057 40.5689 179.588 40.4789 179.17 40.2269C178.765 39.9716 178.402 39.624 178.082 39.184C177.762 38.7441 177.493 38.2432 177.275 37.6815C177.066 37.1039 176.899 36.5287 176.772 35.956C176.578 35.0781 176.512 34.2058 176.577 33.3393C176.654 32.4695 176.822 31.6896 177.082 30.9999C177.351 30.2942 177.696 29.7167 178.114 29.2675C178.542 28.8023 179.012 28.5417 179.523 28.4858C180.058 28.4231 180.539 28.5571 180.965 28.8879C181.403 29.2153 181.791 29.6573 182.129 30.2138C182.467 30.7703 182.751 31.402 182.98 32.1088C183.207 32.803 183.383 33.4838 183.507 34.1513C183.643 34.9102 183.665 35.6458 183.573 36.358C183.481 37.0702 183.296 37.7129 183.018 38.2861C182.753 38.8559 182.404 39.3403 181.972 39.7392C181.549 40.1222 181.084 40.3748 180.577 40.497ZM179.622 29.6117C179.193 29.6726 178.839 29.9091 178.558 30.3213C178.287 30.7175 178.076 31.2122 177.925 31.8053C177.783 32.3826 177.705 33.0235 177.692 33.728C177.675 34.42 177.72 35.0888 177.825 35.7346C177.896 36.2008 178.002 36.6712 178.143 37.1458C178.283 37.6203 178.456 38.0391 178.661 38.402C178.879 38.7616 179.135 39.0368 179.428 39.2277C179.731 39.4026 180.078 39.4379 180.468 39.3334C180.786 39.2617 181.084 39.0672 181.363 38.7498C181.654 38.4291 181.9 38.0396 182.101 37.5814C182.299 37.1106 182.445 36.5996 182.54 36.0485C182.647 35.4939 182.67 34.9487 182.607 34.4128C182.55 33.8484 182.421 33.29 182.219 32.7375C182.026 32.1691 181.788 31.6598 181.506 31.2097C181.236 30.7563 180.935 30.3855 180.601 30.0974C180.277 29.7933 179.951 29.6314 179.622 29.6117ZM183.569 27.725C183.548 27.5959 183.571 27.4818 183.639 27.3827C183.707 27.2837 183.796 27.2127 183.905 27.1698C184.012 27.1143 184.128 27.0966 184.255 27.1165C184.378 27.1239 184.49 27.1616 184.589 27.2294L186.554 34.7908C186.55 33.8213 186.525 32.871 186.478 31.94C186.44 30.9931 186.469 30.1225 186.566 29.3281C186.66 28.5211 186.865 27.8259 187.18 27.2426C187.493 26.6467 188.005 26.2196 188.718 25.9613C189.097 25.8191 189.469 25.8476 189.832 26.0468C190.192 26.2334 190.535 26.5324 190.861 26.9438C191.2 27.3519 191.523 27.8518 191.829 28.4436C192.133 29.0228 192.413 29.6419 192.671 30.3008C192.937 30.9438 193.181 31.5999 193.4 32.2689C193.62 32.938 193.814 33.5601 193.981 34.1353C194.149 34.7105 194.285 35.2198 194.391 35.6634C194.509 36.1036 194.588 36.426 194.63 36.6306C194.599 36.868 194.479 37.0485 194.269 37.172C194.076 37.3048 193.857 37.269 193.614 37.0646C193.537 36.829 193.421 36.4219 193.266 35.8434C193.108 35.2523 192.915 34.5828 192.688 33.8349C192.473 33.0836 192.224 32.3077 191.943 31.507C191.67 30.6904 191.372 29.9547 191.048 29.3001C190.733 28.6294 190.394 28.0935 190.031 27.6921C189.676 27.2749 189.308 27.0837 188.927 27.1185C188.599 27.1524 188.336 27.4048 188.139 27.8756C187.954 28.343 187.809 28.9345 187.704 29.65C187.612 30.3622 187.554 31.1528 187.531 32.0218C187.52 32.8874 187.525 33.7354 187.545 34.5657C187.578 35.3927 187.619 36.15 187.669 36.8377C187.718 37.5254 187.771 38.0504 187.828 38.4127C187.817 38.5234 187.764 38.6254 187.667 38.7186C187.571 38.8118 187.454 38.877 187.315 38.914C187.193 38.9603 187.056 38.9768 186.904 38.9636C186.765 38.947 186.645 38.8779 186.545 38.7564L183.569 27.725ZM83.8454 96.3382C83.7528 96.0934 83.6198 95.6977 83.4464 95.151C83.2822 94.5884 83.0914 93.952 82.8742 93.2419C82.6661 92.5157 82.4463 91.7456 82.2147 90.9315C81.983 90.1173 81.7473 89.338 81.5073 88.5935C81.2766 87.833 81.0422 87.1342 80.804 86.497C80.5785 85.8565 80.3758 85.3514 80.1958 84.9817C80.1116 84.6673 80.1587 84.4659 80.3373 84.3777C80.525 84.2734 80.7514 84.2128 81.0164 84.1957C81.3824 85.1086 81.687 85.9437 81.9303 86.7008C82.1862 87.4545 82.4013 88.1315 82.5756 88.7319C82.7592 89.3162 82.9162 89.8268 83.0467 90.2637C83.1865 90.6846 83.3232 91.0186 83.4568 91.2659C83.2943 90.0558 83.1853 89.0201 83.1298 88.1587C83.0742 87.2974 83.0654 86.5853 83.1033 86.0225C83.1504 85.4437 83.2489 85.0062 83.3987 84.7099C83.5451 84.4011 83.739 84.1941 83.9804 84.089C84.2001 84.0032 84.4628 84.1282 84.7685 84.4642C85.0708 84.7876 85.3829 85.223 85.7048 85.7703C86.0393 86.3142 86.3621 86.9152 86.6732 87.5733C86.9935 88.2154 87.2689 88.8156 87.4994 89.3739C87.5867 87.989 87.6692 86.8885 87.7471 86.0723C87.8375 85.2527 87.9391 84.6256 88.0518 84.191C88.1612 83.7439 88.2904 83.4464 88.4395 83.2986C88.6012 83.1474 88.7969 83.0478 89.0267 82.9997C89.3319 82.9314 89.6063 82.9994 89.8498 83.2038C90.1024 83.3922 90.3347 83.6804 90.5465 84.0685C90.755 84.444 90.9505 84.8971 91.1332 85.4279C91.325 85.9426 91.5127 86.4922 91.6963 87.0766C91.8924 87.6576 92.0982 88.2495 92.3136 88.8523C92.5383 89.4392 92.7813 89.9941 93.0428 90.5172C93.3043 91.0402 93.5997 91.5138 93.929 91.9378C94.2549 92.3492 94.6281 92.6604 95.0486 92.8712C94.996 93.128 94.9162 93.3583 94.8091 93.5622C94.6986 93.7536 94.5481 93.8209 94.3577 93.7641C93.9289 93.6228 93.5255 93.2996 93.1474 92.7942C92.7786 92.273 92.4273 91.6662 92.0935 90.9738C91.7597 90.2813 91.4568 89.5537 91.185 88.7907C90.9098 88.0152 90.6594 87.3072 90.4339 86.6667C90.2083 86.0261 90.0068 85.5005 89.8294 85.0897C89.6645 84.6756 89.53 84.4757 89.4261 84.4901C89.0478 84.5375 88.8239 85.2109 88.7541 86.5102C88.697 87.8061 88.6753 89.7126 88.6893 92.2297C88.6702 92.41 88.6267 92.5497 88.5589 92.6488C88.4877 92.7352 88.4081 92.7903 88.3201 92.8139C88.232 92.8375 88.1372 92.8359 88.0357 92.8092C87.9308 92.7699 87.8351 92.7146 87.7487 92.6434C87.3165 91.7348 86.9195 90.8571 86.5579 90.0104C86.2088 89.1603 85.8929 88.4092 85.6103 87.757C85.3277 87.1047 85.0742 86.5863 84.8498 86.2016C84.638 85.8135 84.4658 85.6237 84.3333 85.6323C84.2134 85.6374 84.1339 85.7935 84.0948 86.1006C84.065 86.3916 84.0638 86.7896 84.0912 87.2945C84.1153 87.7868 84.1583 88.3752 84.2204 89.0595C84.2916 89.7279 84.3701 90.4483 84.4557 91.2207C84.5414 91.9931 84.6275 92.7923 84.714 93.6183C84.7972 94.4318 84.8661 95.2424 84.9207 96.05C84.8974 96.1641 84.8421 96.2598 84.755 96.3371C84.6712 96.4269 84.5727 96.487 84.4596 96.5174C84.3589 96.5443 84.2516 96.5461 84.1375 96.5228C84.0234 96.4994 83.926 96.4379 83.8454 96.3382ZM98.3256 92.5593C97.8056 92.6312 97.3367 92.5412 96.9187 92.2893C96.5133 92.0339 96.1505 91.6863 95.8304 91.2463C95.5103 90.8064 95.2413 90.3055 95.0234 89.7438C94.8147 89.1662 94.6471 88.591 94.5206 88.0183C94.3258 87.1404 94.2606 86.2681 94.325 85.4016C94.402 84.5318 94.5705 83.752 94.8305 83.0622C95.0997 82.3565 95.4437 81.779 95.8626 81.3298C96.2906 80.8646 96.76 80.604 97.2707 80.5481C97.8066 80.4854 98.2874 80.6194 98.713 80.9502C99.1512 81.2776 99.5393 81.7196 99.8771 82.2761C100.215 82.8326 100.499 83.4643 100.729 84.1711C100.955 84.8653 101.131 85.5461 101.256 86.2136C101.392 86.9725 101.413 87.7081 101.321 88.4203C101.229 89.1325 101.044 89.7752 100.766 90.3484C100.501 90.9182 100.152 91.4026 99.7199 91.8015C99.2968 92.1845 98.832 92.4371 98.3256 92.5593ZM97.3702 81.674C96.9417 81.7349 96.5872 81.9714 96.3067 82.3836C96.0354 82.7798 95.8242 83.2745 95.6731 83.8676C95.5312 84.4449 95.4536 85.0858 95.4402 85.7903C95.4234 86.4823 95.4678 87.1512 95.5734 87.7969C95.6444 88.2631 95.7502 88.7335 95.8909 89.2081C96.0315 89.6827 96.2044 90.1014 96.4095 90.4643C96.6271 90.8239 96.8829 91.0991 97.1767 91.29C97.4797 91.4649 97.8261 91.5002 98.216 91.3957C98.5338 91.324 98.8321 91.1295 99.1111 90.8121C99.4026 90.4914 99.6487 90.1019 99.8494 89.6437C100.047 89.1729 100.193 88.662 100.288 88.1108C100.395 87.5562 100.418 87.011 100.355 86.4751C100.298 85.9107 100.169 85.3523 99.9669 84.7998C99.7742 84.2314 99.5366 83.7221 99.2543 83.272C98.9845 82.8186 98.6829 82.4478 98.3496 82.1597C98.0255 81.8556 97.699 81.6937 97.3702 81.674ZM108.925 85.9179C108.871 86.2694 108.761 86.6897 108.595 87.1789C108.43 87.6681 108.214 88.1439 107.947 88.6064C107.68 89.0688 107.361 89.4911 106.992 89.8732C106.632 90.2393 106.219 90.4847 105.754 90.6094C105.552 90.6633 105.382 90.682 105.243 90.6654C105.116 90.6454 104.991 90.6049 104.867 90.5438C104.752 90.4668 104.638 90.3692 104.525 90.2511C104.413 90.1329 104.276 90.001 104.116 89.8552C103.834 89.2567 103.584 88.5755 103.366 87.8117C103.161 87.0445 103.016 86.2541 102.933 85.4407C102.863 84.6238 102.865 83.8278 102.94 83.0527C103.025 82.2617 103.214 81.5573 103.506 80.9397C103.812 80.3186 104.238 79.8203 104.784 79.4448C105.34 79.0532 106.045 78.844 106.901 78.8169C106.764 78.0044 106.558 77.2103 106.283 76.4348C106.004 75.6467 105.73 74.8238 105.46 73.9661C105.426 73.8403 105.459 73.7371 105.559 73.6565C105.655 73.5633 105.771 73.4918 105.906 73.4422C106.05 73.3766 106.186 73.3332 106.316 73.3121C106.457 73.2876 106.552 73.2892 106.6 73.3168C106.891 74.4521 107.156 75.4931 107.396 76.4398C107.649 77.383 107.888 78.276 108.114 79.1187C108.336 79.9488 108.552 80.7537 108.761 81.5335C108.97 82.3133 109.184 83.1119 109.403 83.9295C109.635 84.7436 109.872 85.6035 110.114 86.509C110.37 87.4112 110.642 88.4031 110.932 89.4847C111.049 89.6691 111.075 89.844 111.012 90.0093C110.961 90.1712 110.871 90.2896 110.743 90.3644C110.615 90.4392 110.465 90.4591 110.294 90.4241C110.135 90.3857 110.009 90.2646 109.914 90.0609L108.925 85.9179ZM106.386 80.0669C105.888 80.1195 105.471 80.3728 105.134 80.827C104.807 81.2652 104.557 81.8174 104.385 82.4836C104.21 83.1372 104.111 83.8511 104.09 84.6253C104.065 85.3869 104.11 86.1094 104.226 86.7928C104.35 87.4603 104.54 88.043 104.795 88.5409C105.05 89.0389 105.368 89.3446 105.749 89.4582C106.063 89.374 106.342 89.1845 106.587 88.8898C106.828 88.5825 107.035 88.2237 107.209 87.8134C107.394 87.3997 107.545 86.9549 107.66 86.4792C107.784 85.9876 107.881 85.5169 107.949 85.0673C108.017 84.6176 108.051 84.2175 108.052 83.8669C108.061 83.5004 108.043 83.2291 107.995 83.053C107.958 82.9146 107.893 82.6694 107.798 82.3172C107.704 81.9651 107.583 81.6133 107.435 81.2621C107.299 80.9075 107.138 80.607 106.95 80.3606C106.776 80.1109 106.588 80.0129 106.386 80.0669ZM112.191 83.5263C112.123 83.6253 111.974 83.6989 111.744 83.747C111.524 83.7791 111.309 83.7827 111.1 83.7578C110.904 83.7295 110.757 83.6609 110.661 83.552C110.561 83.4305 110.594 83.2531 110.761 83.0197C110.829 82.9207 110.909 82.8451 111.003 82.793C111.106 82.7249 111.205 82.6648 111.299 82.6127C111.402 82.5446 111.476 82.4707 111.522 82.391C111.581 82.3079 111.598 82.1955 111.574 82.0538C111.435 81.4844 111.324 80.8941 111.241 80.2827C111.17 79.668 111.186 79.0977 111.288 78.5716C111.389 78.0456 111.611 77.5887 111.952 77.2008C112.305 76.8095 112.836 76.5526 113.545 76.4301C113.796 76.3627 114.096 76.3498 114.444 76.3913C114.789 76.4203 115.133 76.4966 115.476 76.6203C115.816 76.7315 116.13 76.8967 116.418 77.1161C116.702 77.323 116.912 77.5769 117.046 77.8778C117.168 77.98 117.16 78.1507 117.022 78.3899C116.884 78.6291 116.677 78.9137 116.401 79.2436C116.122 79.561 115.801 79.8965 115.438 80.25C115.074 80.6036 114.72 80.9412 114.374 81.2628C114.042 81.5811 113.747 81.8625 113.489 82.1068C113.23 82.3512 113.066 82.5167 112.995 82.6031C113.202 83.0734 113.421 83.5672 113.654 84.0844C113.887 84.6016 114.146 85.0647 114.431 85.4737C114.716 85.8827 115.018 86.2061 115.338 86.4439C115.667 86.6657 116.02 86.7261 116.398 86.625C116.961 86.5145 117.411 86.3064 117.747 86.0007C118.095 85.6916 118.358 85.3381 118.534 84.9404C118.711 84.5426 118.822 84.1285 118.869 83.6982C118.928 83.2645 118.948 82.8615 118.929 82.4891C118.923 82.1133 118.9 81.8026 118.861 81.5569C118.832 81.2952 118.826 81.1485 118.844 81.1166C118.963 81.004 119.12 80.9619 119.316 80.9902C119.509 81.0059 119.658 81.1613 119.764 81.4564C119.908 81.9436 119.952 82.5319 119.894 83.2214C119.836 83.9109 119.676 84.5737 119.415 85.2098C119.167 85.8425 118.81 86.3965 118.344 86.8718C117.888 87.3312 117.338 87.5931 116.695 87.6576C116.05 87.8169 115.492 87.771 115.02 87.5199C114.545 87.2563 114.127 86.9033 113.765 86.4609C113.413 86.0025 113.111 85.5038 112.859 84.9648C112.607 84.4258 112.384 83.9463 112.191 83.5263ZM116.047 78.1457C115.496 77.7002 114.993 77.4575 114.537 77.4178C114.082 77.3781 113.642 77.4487 113.219 77.6295C112.965 77.738 112.766 77.9261 112.622 78.1939C112.475 78.449 112.382 78.757 112.344 79.1177C112.302 79.4658 112.31 79.8478 112.368 80.2638C112.422 80.6671 112.524 81.0713 112.672 81.4762L116.047 78.1457ZM137.876 78.1604C137.822 78.5119 137.712 78.9322 137.547 79.4214C137.381 79.9106 137.165 80.3864 136.898 80.8489C136.631 81.3113 136.313 81.7336 135.943 82.1157C135.583 82.4818 135.17 82.7272 134.705 82.8519C134.504 82.9058 134.334 82.9245 134.194 82.9079C134.068 82.8879 133.942 82.8474 133.818 82.7863C133.703 82.7093 133.589 82.6117 133.477 82.4936C133.364 82.3754 133.228 82.2435 133.067 82.0977C132.786 81.4992 132.536 80.818 132.318 80.0542C132.112 79.287 131.968 78.4966 131.884 77.6832C131.814 76.8663 131.816 76.0703 131.892 75.2952C131.976 74.5042 132.165 73.7998 132.458 73.1822C132.763 72.5611 133.189 72.0628 133.736 71.6873C134.291 71.2957 134.997 71.0865 135.852 71.0594C135.715 70.2469 135.509 69.4528 135.234 68.6773C134.956 67.8892 134.681 67.0663 134.411 66.2086C134.377 66.0828 134.41 65.9796 134.51 65.899C134.606 65.8058 134.722 65.7343 134.857 65.6847C135.001 65.6191 135.138 65.5757 135.267 65.5546C135.409 65.5301 135.503 65.5317 135.551 65.5593C135.842 66.6946 136.107 67.7356 136.348 68.6823C136.6 69.6256 136.84 70.5185 137.065 71.3612C137.288 72.1913 137.503 72.9962 137.712 73.776C137.921 74.5558 138.135 75.3544 138.354 76.172C138.586 76.9861 138.823 77.846 139.066 78.7515C139.321 79.6537 139.594 80.6456 139.883 81.7272C140 81.9116 140.027 82.0865 139.963 82.2518C139.912 82.4137 139.823 82.5321 139.694 82.6069C139.566 82.6817 139.417 82.7016 139.245 82.6666C139.087 82.6282 138.96 82.5071 138.865 82.3034L137.876 78.1604ZM135.338 72.3094C134.84 72.362 134.422 72.6154 134.086 73.0695C133.758 73.5077 133.509 74.0599 133.337 74.7261C133.161 75.3797 133.063 76.0936 133.041 76.8678C133.016 77.6294 133.061 78.3519 133.177 79.0353C133.302 79.7028 133.492 80.2855 133.746 80.7835C134.001 81.2814 134.319 81.5871 134.7 81.7007C135.014 81.6165 135.294 81.427 135.538 81.1323C135.78 80.8251 135.987 80.4662 136.16 80.0559C136.346 79.6422 136.496 79.1974 136.611 78.7217C136.736 78.2301 136.832 77.7594 136.9 77.3098C136.968 76.8601 137.003 76.46 137.003 76.1094C137.013 75.7429 136.994 75.4716 136.947 75.2955C136.91 75.1571 136.844 74.9119 136.75 74.5597C136.655 74.2076 136.534 73.8558 136.386 73.5046C136.251 73.15 136.089 72.8495 135.902 72.6031C135.727 72.3534 135.539 72.2555 135.338 72.3094ZM141.142 75.7688C141.074 75.8678 140.925 75.9414 140.696 75.9895C140.475 76.0216 140.26 76.0252 140.051 76.0003C139.855 75.9721 139.709 75.9035 139.612 75.7945C139.512 75.673 139.545 75.4956 139.712 75.2622C139.78 75.1632 139.861 75.0876 139.955 75.0355C140.058 74.9674 140.156 74.9073 140.25 74.8552C140.353 74.7871 140.428 74.7132 140.474 74.6335C140.532 74.5504 140.549 74.438 140.525 74.2963C140.386 73.7269 140.275 73.1366 140.192 72.5252C140.122 71.9105 140.137 71.3402 140.239 70.8141C140.341 70.2881 140.562 69.8312 140.903 69.4433C141.256 69.052 141.787 68.7951 142.496 68.6726C142.748 68.6052 143.047 68.5923 143.395 68.6338C143.74 68.6628 144.084 68.7391 144.427 68.8628C144.767 68.974 145.081 69.1392 145.369 69.3587C145.654 69.5655 145.863 69.8194 145.998 70.1203C146.12 70.2225 146.111 70.3932 145.973 70.6324C145.835 70.8716 145.628 71.1562 145.353 71.4861C145.074 71.8035 144.753 72.139 144.389 72.4925C144.025 72.8461 143.671 73.1837 143.326 73.5053C142.993 73.8236 142.698 74.105 142.44 74.3493C142.182 74.5937 142.017 74.7592 141.946 74.8456C142.153 75.3159 142.373 75.8097 142.606 76.3269C142.839 76.8441 143.098 77.3072 143.382 77.7162C143.667 78.1252 143.97 78.4486 144.289 78.6864C144.619 78.9083 144.972 78.9686 145.349 78.8675C145.913 78.757 146.362 78.5489 146.698 78.2432C147.047 77.9341 147.309 77.5807 147.486 77.1829C147.662 76.7851 147.774 76.371 147.82 75.9407C147.879 75.507 147.899 75.104 147.88 74.7316C147.874 74.3558 147.852 74.0451 147.813 73.7994C147.783 73.5377 147.777 73.391 147.796 73.3591C147.914 73.2465 148.071 73.2044 148.267 73.2327C148.46 73.2484 148.61 73.4038 148.716 73.6989C148.86 74.1861 148.903 74.7744 148.845 75.4639C148.787 76.1534 148.628 76.8162 148.367 77.4523C148.118 78.085 147.761 78.639 147.296 79.1143C146.839 79.5737 146.289 79.8356 145.646 79.9001C145.001 80.0594 144.443 80.0135 143.971 79.7625C143.496 79.4988 143.078 79.1458 142.717 78.7034C142.365 78.245 142.063 77.7463 141.81 77.2073C141.558 76.6683 141.335 76.1888 141.142 75.7688ZM144.998 70.3882C144.447 69.9427 143.944 69.7 143.489 69.6603C143.033 69.6206 142.594 69.6912 142.17 69.872C141.916 69.9805 141.717 70.1686 141.573 70.4364C141.426 70.6915 141.333 70.9995 141.295 71.3602C141.254 71.7083 141.262 72.0903 141.319 72.5063C141.373 72.9097 141.475 73.3138 141.624 73.7187L144.998 70.3882ZM159.013 81.0094C158.914 80.9415 158.856 80.8225 158.837 80.6523C158.822 80.4946 158.835 80.3428 158.877 80.1968C158.922 80.0634 159.002 79.9609 159.118 79.8895C159.224 79.834 159.364 79.8775 159.537 80.0199C160.017 80.4034 160.487 80.6482 160.947 80.7542C161.41 80.8727 161.811 80.8328 162.148 80.6345C162.473 80.4395 162.712 80.0722 162.864 79.5328C163.016 78.9933 163.021 78.2573 162.879 77.3247C162.719 76.4241 162.5 75.4581 162.224 74.4268C161.944 73.3829 161.645 72.3172 161.327 71.2297C161.008 70.1423 160.688 69.0485 160.367 67.9485C160.054 66.8325 159.78 65.76 159.545 64.7312C159.559 64.633 159.61 64.5453 159.697 64.468C159.781 64.3782 159.879 64.3181 159.992 64.2878C160.106 64.2575 160.219 64.254 160.333 64.2773C160.457 64.2847 160.552 64.34 160.62 64.443C160.902 65.5943 161.187 66.6839 161.476 67.7119C161.762 68.7272 162.045 69.7363 162.328 70.7391C162.622 71.7386 162.903 72.7619 163.171 73.8092C163.447 74.8405 163.706 75.9574 163.947 77.1599C164.071 77.5716 164.122 78.0161 164.102 78.4933C164.082 78.9706 163.995 79.4253 163.841 79.8574C163.687 80.2896 163.472 80.6706 163.197 81.0006C162.912 81.3465 162.567 81.5939 162.162 81.7429C161.757 81.8918 161.292 81.9154 160.766 81.8137C160.243 81.7246 159.659 81.4565 159.013 81.0094ZM159.292 62.3524C159.055 62.3753 158.89 62.3386 158.797 62.2423C158.701 62.1333 158.661 62.0092 158.677 61.87C158.703 61.7148 158.765 61.57 158.864 61.4357C158.976 61.298 159.115 61.2136 159.282 61.1823C159.42 61.1453 159.52 61.1925 159.583 61.3241C159.645 61.4558 159.686 61.5593 159.706 61.6348C159.807 62.0121 159.669 62.2513 159.292 62.3524ZM164.66 69.4672C164.592 69.5662 164.443 69.6398 164.214 69.6879C163.993 69.72 163.778 69.7236 163.569 69.6987C163.373 69.6704 163.227 69.6018 163.13 69.4929C163.03 69.3714 163.063 69.194 163.23 68.9606C163.298 68.8615 163.379 68.786 163.473 68.7338C163.576 68.6658 163.674 68.6057 163.768 68.5536C163.871 68.4855 163.946 68.4116 163.992 68.3319C164.05 68.2488 164.067 68.1364 164.043 67.9946C163.904 67.4253 163.793 66.835 163.71 66.2236C163.64 65.6089 163.655 65.0385 163.757 64.5125C163.859 63.9865 164.08 63.5295 164.421 63.1416C164.774 62.7503 165.305 62.4935 166.014 62.371C166.266 62.3036 166.565 62.2907 166.914 62.3322C167.258 62.3611 167.602 62.4375 167.945 62.5612C168.285 62.6723 168.599 62.8376 168.887 63.057C169.172 63.2638 169.381 63.5177 169.516 63.8187C169.638 63.9209 169.629 64.0916 169.491 64.3308C169.353 64.57 169.146 64.8546 168.871 65.1845C168.592 65.5019 168.271 65.8374 167.907 66.1909C167.543 66.5445 167.189 66.8821 166.844 67.2037C166.511 67.522 166.216 67.8033 165.958 68.0477C165.7 68.2921 165.535 68.4575 165.464 68.544C165.671 69.0143 165.891 69.508 166.124 70.0253C166.357 70.5425 166.616 71.0056 166.9 71.4146C167.185 71.8235 167.488 72.1469 167.807 72.3847C168.137 72.6066 168.49 72.667 168.867 72.5659C169.431 72.4554 169.88 72.2472 170.216 71.9415C170.565 71.6324 170.827 71.279 171.004 70.8812C171.18 70.4835 171.292 70.0694 171.338 69.6391C171.397 69.2054 171.417 68.8023 171.398 68.43C171.392 68.0542 171.37 67.7435 171.331 67.4978C171.301 67.2361 171.295 67.0893 171.314 67.0574C171.432 66.9449 171.589 66.9028 171.785 66.9311C171.978 66.9468 172.128 67.1022 172.234 67.3973C172.378 67.8844 172.421 68.4728 172.363 69.1623C172.305 69.8518 172.146 70.5146 171.885 71.1507C171.636 71.7834 171.279 72.3374 170.814 72.8127C170.357 73.272 169.807 73.5339 169.164 73.5985C168.519 73.7578 167.961 73.7119 167.489 73.4608C167.014 73.1972 166.596 72.8441 166.235 72.4017C165.883 71.9434 165.581 71.4447 165.328 70.9056C165.076 70.3666 164.853 69.8871 164.66 69.4672ZM168.516 64.0866C167.965 63.641 167.462 63.3984 167.007 63.3587C166.551 63.319 166.112 63.3895 165.688 63.5704C165.434 63.6789 165.235 63.867 165.091 64.1347C164.944 64.3899 164.851 64.6978 164.813 65.0585C164.772 65.4067 164.78 65.7887 164.837 66.2046C164.891 66.608 164.993 67.0122 165.142 67.4171L168.516 64.0866ZM177.671 59.4498C177.663 59.371 177.679 59.2791 177.718 59.1742C177.767 59.0534 177.836 58.9606 177.927 58.8959C178.03 58.8278 178.154 58.8147 178.3 58.8565C178.456 58.8823 178.634 58.9961 178.837 59.198C179.046 60.1799 179.243 61.1652 179.427 62.1539C179.62 63.1266 179.843 64.0846 180.096 65.0279C180.358 65.9552 180.668 66.8628 181.027 67.7506C181.399 68.635 181.858 69.4691 182.405 70.2526C182.442 70.3373 182.43 70.4212 182.372 70.5043C182.317 70.6 182.229 70.6772 182.11 70.7361C181.995 70.8075 181.872 70.8538 181.743 70.8749C181.614 70.8961 181.498 70.8664 181.396 70.786L179.891 67.8124C179.885 67.9893 179.804 68.2671 179.649 68.6455C179.507 69.0206 179.323 69.4138 179.096 69.8251C178.878 70.2204 178.64 70.5876 178.38 70.9268C178.117 71.2533 177.868 71.4549 177.632 71.5316C177.051 71.7277 176.53 71.6448 176.069 71.2831C175.609 70.9213 175.199 70.3975 174.84 69.7119C174.49 69.0103 174.181 68.2101 173.913 67.3112C173.646 66.4124 173.41 65.532 173.206 64.67C173.002 63.8081 172.826 63.0261 172.678 62.3243C172.531 61.6224 172.394 61.113 172.269 60.7962C172.28 60.6854 172.322 60.5931 172.397 60.5192C172.484 60.4419 172.584 60.3881 172.697 60.3578C172.81 60.3275 172.924 60.324 173.038 60.3473C173.165 60.3673 173.267 60.4209 173.344 60.508C173.484 60.9289 173.633 61.4617 173.793 62.1065C173.952 62.7514 174.123 63.4402 174.306 64.173C174.485 64.8933 174.679 65.6165 174.887 66.3426C175.108 67.0653 175.337 67.7184 175.574 68.3019C175.808 68.8728 176.054 69.3393 176.313 69.7013C176.581 70.0474 176.866 70.2068 177.169 70.1796C177.383 70.1223 177.578 69.9959 177.755 69.8002C177.932 69.6046 178.098 69.3712 178.255 69.1001C178.408 68.8164 178.543 68.5173 178.661 68.2026C178.776 67.8753 178.869 67.5674 178.94 67.2788C179.007 66.9776 179.056 66.7083 179.087 66.4709C179.118 66.2335 179.124 66.0565 179.106 65.94C179.079 65.7857 179.033 65.5416 178.971 65.2079C178.905 64.8616 178.823 64.4792 178.724 64.0608C178.635 63.6264 178.532 63.1686 178.417 62.6873C178.314 62.2026 178.213 61.7511 178.115 61.3327C178.025 60.8983 177.937 60.5176 177.849 60.1906C177.771 59.8477 177.711 59.6007 177.671 59.4498ZM194.759 65.9922C194.691 65.7406 194.707 65.5477 194.806 65.4134C194.917 65.2757 195.058 65.1975 195.228 65.1789C195.399 65.1602 195.57 65.1952 195.742 65.2839C195.914 65.3726 196.027 65.5176 196.081 65.7189C196.138 65.9327 196.106 66.1164 195.986 66.27C195.878 66.4203 195.736 66.519 195.56 66.5662C195.393 66.5974 195.225 66.575 195.056 66.4989C194.897 66.4068 194.798 66.2379 194.759 65.9922ZM190.794 51.1209C190.851 50.9305 190.931 50.8012 191.034 50.7331C191.137 50.6651 191.242 50.6301 191.35 50.6283C191.457 50.6265 191.551 50.6486 191.63 50.6947C191.719 50.7248 191.775 50.757 191.798 50.7914C192.003 51.5586 192.23 52.4549 192.478 53.4804C192.722 54.4933 192.98 55.5297 193.25 56.5896C193.521 57.6494 193.797 58.6807 194.079 59.6835C194.374 60.683 194.66 61.5499 194.938 62.2843C194.928 62.4487 194.869 62.5792 194.76 62.6758C194.66 62.7564 194.546 62.8073 194.417 62.8284C194.297 62.8336 194.176 62.8119 194.055 62.7634C193.935 62.7149 193.846 62.6375 193.791 62.531L190.794 51.1209Z" fill="#2C2C2C"/>
<path d="M116.5 22.3048C106.09 12.4085 87.4998 -0.678853 70.8464 1.17758C59.7887 2.41022 48.7409 9.93355 45.2842 22.5957M45.2842 22.5957C44.6001 25.1015 44.2389 27.9146 44.2746 31.0894C44.4586 47.4598 57.1983 40.91 57.8461 35.2079C58.5513 29 52.6991 26.3124 45.2842 22.5957ZM45.2842 22.5957C39.4173 19.655 32.4998 18.8203 26.0663 19.7621C13.7986 21.558 3.00857 32.977 3.00857 32.977M11.0718 32.575L1 35.8203L1.85404 23.1398" stroke="#2C2C2C" stroke-linecap="round" stroke-linejoin="round"/>
</svg>
