<svg width="76" height="76" viewBox="0 0 76 76" fill="none" xmlns="http://www.w3.org/2000/svg">
<g filter="url(#filter0_d)">
<circle cx="38" cy="38" r="35" fill="#2C2C2C"/>
<circle cx="38" cy="38" r="33.45" stroke="white" stroke-width="3.1"/>
</g>
<path fill-rule="evenodd" clip-rule="evenodd" d="M55.5 47.6608C55.5 47.66 55.5 47.6593 55.5 47.6585C55.5 37.4918 47.665 29.25 38 29.25C28.335 29.25 20.5 37.4918 20.5 47.6585C20.5 47.6593 20.5 47.66 20.5 47.6608H55.5Z" fill="white"/>
<path d="M37.1482 31.2526C36.6448 31.2528 36.2369 31.6609 36.237 32.1643C36.2371 32.6677 36.6453 33.0757 37.1487 33.0755L37.1482 31.2526ZM47.4321 37.4363C47.7828 37.7974 48.3599 37.8059 48.721 37.4551C49.0821 37.1044 49.0905 36.5274 48.7398 36.1663L47.4321 37.4363ZM37.1487 33.0755C39.0284 33.0751 40.674 33.2374 42.2975 33.8454C43.9158 34.4515 45.5754 35.5246 47.4321 37.4363L48.7398 36.1663C46.7362 34.1034 44.8572 32.8575 42.9368 32.1383C41.0217 31.4211 39.1288 31.2522 37.1482 31.2526L37.1487 33.0755Z" fill="#2C2C2C"/>
<rect x="21.9609" y="49.6641" width="32.0833" height="2.30106" fill="white"/>
<path d="M38 24.1431V16.125" stroke="white" stroke-width="2.1875" stroke-linecap="round" stroke-linejoin="round"/>
<path d="M50.0539 26.6805L52.5859 24.1484" stroke="white" stroke-width="2.1875" stroke-linecap="round" stroke-linejoin="round"/>
<path d="M25.9461 26.6805L23.4141 24.1484" stroke="white" stroke-width="2.1875" stroke-linecap="round" stroke-linejoin="round"/>
<defs>
<filter id="filter0_d" x="0" y="0" width="76" height="76" filterUnits="userSpaceOnUse" color-interpolation-filters="sRGB">
<feFlood flood-opacity="0" result="BackgroundImageFix"/>
<feColorMatrix in="SourceAlpha" type="matrix" values="0 0 0 0 0 0 0 0 0 0 0 0 0 0 0 0 0 0 127 0"/>
<feOffset/>
<feGaussianBlur stdDeviation="1.5"/>
<feColorMatrix type="matrix" values="0 0 0 0 0 0 0 0 0 0 0 0 0 0 0 0 0 0 0.25 0"/>
<feBlend mode="normal" in2="BackgroundImageFix" result="effect1_dropShadow"/>
<feBlend mode="normal" in="SourceGraphic" in2="effect1_dropShadow" result="shape"/>
</filter>
</defs>
</svg>
