<svg width="61" height="61" viewBox="0 0 61 61" fill="none" xmlns="http://www.w3.org/2000/svg">
<circle cx="30.5" cy="30.5" r="29.4845" fill="#2C2C2C" stroke="white" stroke-width="2.03108"/>
<path fill-rule="evenodd" clip-rule="evenodd" d="M45.75 38.9168C45.75 38.9168 45.75 38.9167 45.75 38.9167C45.75 30.0571 38.9223 22.875 30.5 22.875C22.0777 22.875 15.25 30.0571 15.25 38.9167C15.25 38.9167 15.25 38.9168 15.25 38.9168H45.75Z" fill="white"/>
<path d="M29.7576 24.6227C29.319 24.6229 28.9634 24.9785 28.9635 25.4172C28.9636 25.8559 29.3193 26.2114 29.758 26.2113L29.7576 24.6227ZM38.7193 30.0114C39.0249 30.3261 39.5278 30.3334 39.8424 30.0278C40.1571 29.7222 40.1645 29.2193 39.8588 28.9046L38.7193 30.0114ZM29.758 26.2113C31.3961 26.2109 32.8301 26.3524 34.2449 26.8822C35.6551 27.4103 37.1013 28.3455 38.7193 30.0114L39.8588 28.9046C38.1129 27.107 36.4754 26.0213 34.802 25.3946C33.1331 24.7696 31.4835 24.6223 29.7576 24.6227L29.758 26.2113Z" fill="#2C2C2C"/>
<rect x="16.5215" y="40.667" width="27.9583" height="2.00521" fill="white"/>
<path d="M30.5 18.4247V11.4375" stroke="white" stroke-width="1.90625" stroke-linecap="round" stroke-linejoin="round"/>
<path d="M41.0025 20.6332L43.209 18.4268" stroke="white" stroke-width="1.90625" stroke-linecap="round" stroke-linejoin="round"/>
<path d="M19.9975 20.6332L17.791 18.4268" stroke="white" stroke-width="1.90625" stroke-linecap="round" stroke-linejoin="round"/>
</svg>
