<svg width="73" height="73" viewBox="0 0 73 73" fill="none" xmlns="http://www.w3.org/2000/svg">
<g filter="url(#filter0_d)">
<circle cx="36.5" cy="36.5" r="32.5" fill="#2C2C2C"/>
<circle cx="36.5" cy="36.5" r="30.9524" stroke="white" stroke-width="3.09524"/>
</g>
<g filter="url(#filter1_d)">
<path d="M34.3311 46.6675C24.6513 40.0495 25.898 27.5884 27.7313 22.1851C30.1879 21.2908 36.9931 20.0387 44.561 22.1851C49.0489 34.5269 42.471 43.6491 38.6211 46.6675C38.3571 48.5456 38.7311 49.1642 38.9511 49.2388C40.6744 49.5741 44.363 50.3343 45.331 50.692C46.299 51.0498 45.881 51.5864 45.551 51.8099C43.439 52.5254 40.0511 52.7788 38.6211 52.8161C34.1112 53.0397 28.5013 52.4807 27.1813 51.8099C26.4346 51.4305 26.7046 51.1019 26.9613 50.9156C28.8313 50.3194 32.6605 49.519 33.5612 49.1269C34.2873 48.8108 34.4045 47.4873 34.3311 46.6675Z" fill="#2C2C2C"/>
<path d="M34.3311 46.6675C24.6513 40.0495 25.898 27.5884 27.7313 22.1851C30.1879 21.2908 36.9931 20.0387 44.561 22.1851C49.0489 34.5269 42.471 43.6491 38.6211 46.6675C38.3571 48.5456 38.7311 49.1642 38.9511 49.2388C40.6744 49.5741 44.363 50.3343 45.331 50.692C46.299 51.0498 45.881 51.5864 45.551 51.8099C43.439 52.5254 40.0511 52.7788 38.6211 52.8161C34.1112 53.0397 28.5013 52.4807 27.1813 51.8099C26.4346 51.4305 26.7046 51.1019 26.9613 50.9156C28.8313 50.3194 32.6605 49.519 33.5612 49.1269C34.2873 48.8108 34.4045 47.4873 34.3311 46.6675Z" stroke="white" stroke-width="0.964528"/>
</g>
<rect x="28.2578" y="26.4961" width="7.8596" height="3.9298" rx="1.23706" fill="white"/>
<rect x="37.0898" y="24.9248" width="7.8596" height="3.9298" rx="1.23706" transform="rotate(14.2917 37.0898 24.9248)" fill="white"/>
<path fill-rule="evenodd" clip-rule="evenodd" d="M26.5381 28.3584C26.0964 34.3302 27.4619 41.9722 34.3331 46.67C34.3352 46.6936 34.3372 46.7178 34.3391 46.7427H38.613C38.6163 46.7187 38.6196 46.6944 38.623 46.67C41.7989 44.18 46.8312 37.5365 45.9766 28.3584H26.5381Z" fill="white"/>
<path fill-rule="evenodd" clip-rule="evenodd" d="M43.076 31.6472C43.1072 31.6472 43.1379 31.6452 43.1682 31.6412L43.2147 33.8754C43.1696 33.8665 43.1233 33.8618 43.076 33.8618C42.6203 33.8618 42.2509 34.2953 42.2509 34.8299C42.2509 34.8347 42.2509 34.8395 42.251 34.8443L30.1207 35.0879C30.0388 34.6545 29.7092 34.3303 29.3151 34.3303C29.2321 34.3303 29.1519 34.3447 29.0764 34.3715L29.0195 31.6433C29.3569 31.6005 29.6333 31.3192 29.7237 30.946L42.251 30.6943C42.2579 31.222 42.6246 31.6472 43.076 31.6472Z" fill="#2C2C2C"/>
<path d="M32.376 33.9928L32.0434 33.4173L31.9534 33.4192L31.9653 34.0012L31.5897 34.0089L31.5582 32.4671L32.1885 32.4542C32.31 32.4517 32.4137 32.4708 32.4995 32.5116C32.5867 32.5523 32.6523 32.6095 32.6963 32.6833C32.7403 32.7556 32.7632 32.8372 32.7651 32.928C32.7671 33.0305 32.7397 33.1226 32.6828 33.2043C32.6274 33.286 32.5436 33.3448 32.4316 33.3808L32.7998 33.9841L32.376 33.9928ZM31.9479 33.1534L32.1807 33.1487C32.2495 33.1473 32.3004 33.1294 32.3334 33.095C32.3679 33.0606 32.3845 33.0127 32.3832 32.9512C32.382 32.8926 32.3635 32.8468 32.3277 32.8139C32.2933 32.7809 32.2417 32.7651 32.1729 32.7665L31.9401 32.7713L31.9479 33.1534ZM33.9766 33.6876L33.4012 33.6994L33.3145 33.9736L32.9214 33.9816L33.4477 32.4284L33.8825 32.4196L34.4719 33.9499L34.0744 33.958L33.9766 33.6876ZM33.874 33.3997L33.6714 32.8391L33.4941 33.4074L33.874 33.3997ZM35.5356 33.9281L35.0033 33.2579L35.0173 33.9387L34.6417 33.9464L34.6102 32.4047L34.9857 32.397L34.9996 33.0734L35.4996 32.3865L35.9411 32.3774L35.3592 33.1452L35.9946 33.9188L35.5356 33.9281ZM37.1272 33.6231L36.5518 33.6349L36.4652 33.9091L36.072 33.9172L36.5983 32.364L37.0332 32.3551L37.6226 33.8855L37.2251 33.8936L37.1272 33.6231ZM37.0247 33.3352L36.8221 32.7747L36.6447 33.343L37.0247 33.3352ZM38.5786 33.8659L38.246 33.2905L38.156 33.2923L38.1679 33.8743L37.7924 33.882L37.7608 32.3402L38.3911 32.3273C38.5127 32.3248 38.6163 32.344 38.7021 32.3847C38.7894 32.4254 38.855 32.4826 38.899 32.5564C38.9429 32.6288 38.9658 32.7103 38.9677 32.8011C38.9698 32.9036 38.9424 32.9957 38.8855 33.0774C38.83 33.1591 38.7462 33.218 38.6342 33.254L39.0025 33.8572L38.5786 33.8659ZM38.1506 33.0266L38.3834 33.0218C38.4522 33.0204 38.5031 33.0025 38.5361 32.9681C38.5705 32.9337 38.5871 32.8858 38.5859 32.8243C38.5847 32.7657 38.5661 32.72 38.5303 32.687C38.496 32.654 38.4444 32.6382 38.3756 32.6396L38.1428 32.6444L38.1506 33.0266ZM39.7711 32.2991C39.9336 32.2958 40.0763 32.3251 40.1992 32.387C40.322 32.449 40.4176 32.5378 40.4859 32.6536C40.5556 32.7679 40.592 32.9012 40.5951 33.0535C40.5982 33.2043 40.5673 33.3389 40.5023 33.4574C40.4388 33.5759 40.3462 33.6686 40.2246 33.7356C40.1043 33.8025 39.9637 33.8376 39.8027 33.8409L39.225 33.8527L39.1935 32.3109L39.7711 32.2991ZM39.7719 33.5163C39.9139 33.5134 40.0236 33.4723 40.1011 33.3931C40.1786 33.3139 40.2159 33.2033 40.213 33.0613C40.2101 32.9192 40.1683 32.8095 40.0876 32.7321C40.0069 32.6546 39.8955 32.6173 39.7535 32.6202L39.5756 32.6239L39.594 33.52L39.7719 33.5163Z" fill="#FAF5ED"/>
<defs>
<filter id="filter0_d" x="0.904762" y="0.904762" width="71.1905" height="71.1905" filterUnits="userSpaceOnUse" color-interpolation-filters="sRGB">
<feFlood flood-opacity="0" result="BackgroundImageFix"/>
<feColorMatrix in="SourceAlpha" type="matrix" values="0 0 0 0 0 0 0 0 0 0 0 0 0 0 0 0 0 0 127 0"/>
<feOffset/>
<feGaussianBlur stdDeviation="1.54762"/>
<feColorMatrix type="matrix" values="0 0 0 0 0 0 0 0 0 0 0 0 0 0 0 0 0 0 0.25 0"/>
<feBlend mode="normal" in2="BackgroundImageFix" result="effect1_dropShadow"/>
<feBlend mode="normal" in="SourceGraphic" in2="effect1_dropShadow" result="shape"/>
</filter>
<filter id="filter1_d" x="23.5044" y="20.5176" width="25.5239" height="37.7789" filterUnits="userSpaceOnUse" color-interpolation-filters="sRGB">
<feFlood flood-opacity="0" result="BackgroundImageFix"/>
<feColorMatrix in="SourceAlpha" type="matrix" values="0 0 0 0 0 0 0 0 0 0 0 0 0 0 0 0 0 0 127 0"/>
<feOffset dy="2.47411"/>
<feGaussianBlur stdDeviation="1.23706"/>
<feColorMatrix type="matrix" values="0 0 0 0 0 0 0 0 0 0 0 0 0 0 0 0 0 0 0.25 0"/>
<feBlend mode="normal" in2="BackgroundImageFix" result="effect1_dropShadow"/>
<feBlend mode="normal" in="SourceGraphic" in2="effect1_dropShadow" result="shape"/>
</filter>
</defs>
</svg>
