<svg width="73" height="73" viewBox="0 0 73 73" fill="none" xmlns="http://www.w3.org/2000/svg">
<g filter="url(#filter0_d)">
<circle cx="36.5" cy="36.5" r="32.5" fill="#2C2C2C"/>
<circle cx="36.5" cy="36.5" r="30.9524" stroke="white" stroke-width="3.09524"/>
</g>
<path d="M28.704 47.2515H23.4466C22.9622 47.2515 22.5703 46.8596 22.5703 46.3753V30.6028C22.5703 30.1185 22.9622 29.7266 23.4466 29.7266H28.704C30.1536 29.7266 31.3328 30.9058 31.3328 32.3553V44.6228C31.3328 46.0723 30.1536 47.2515 28.704 47.2515Z" fill="white"/>
<path d="M49.745 37.4806C49.745 36.5167 48.9563 35.7281 47.9925 35.7281C48.9563 35.7281 49.745 34.9394 49.745 33.9756C49.745 33.0117 48.9563 32.2231 47.9925 32.2231H40.8073C41.8763 29.0159 41.8587 27.9353 41.8587 25.9725C41.8587 24.8333 41.1227 23.8519 40.1062 23.5015C39.8259 23.3964 39.5454 23.3438 39.23 23.3438H38.7042C38.3713 23.3438 37.9507 23.6067 37.863 24.0097L37.3723 25.9199C36.6363 28.7764 34.2704 32.2231 31.3438 32.2231V44.4905L35.2518 45.7874C36.1455 46.0852 37.0744 46.243 38.0208 46.243H46.24C47.2079 46.243 47.9925 45.4583 47.9925 44.4905C47.9925 43.5226 47.2079 42.738 46.24 42.738H47.9925C48.9563 42.738 49.745 41.9494 49.745 40.9855C49.745 40.0217 48.9563 39.233 47.9925 39.233C48.9563 39.233 49.745 38.4444 49.745 37.4806Z" fill="white"/>
<path d="M46.2405 46.243C47.2084 46.243 47.993 45.4583 47.993 44.4905C47.993 43.5226 47.2084 42.738 46.2405 42.738H47.993C48.9568 42.738 49.7454 41.9494 49.7454 40.9855C49.7454 40.0217 48.9568 39.233 47.993 39.233C48.9568 39.233 49.7454 38.4444 49.7454 37.4806C49.7454 36.5167 48.9568 35.7281 47.993 35.7281C48.9568 35.7281 49.7454 34.9394 49.7454 33.9756C49.7454 33.0117 48.9568 32.2231 47.993 32.2231H40.8078C41.8767 29.0159 41.8592 27.9353 41.8592 25.9725C41.8592 24.8333 41.1232 23.8519 40.1067 23.5015C39.8264 23.3964 39.5459 23.3438 39.2305 23.3438V46.243H46.2405Z" fill="white"/>
<defs>
<filter id="filter0_d" x="0.904762" y="0.904762" width="71.1905" height="71.1905" filterUnits="userSpaceOnUse" color-interpolation-filters="sRGB">
<feFlood flood-opacity="0" result="BackgroundImageFix"/>
<feColorMatrix in="SourceAlpha" type="matrix" values="0 0 0 0 0 0 0 0 0 0 0 0 0 0 0 0 0 0 127 0"/>
<feOffset/>
<feGaussianBlur stdDeviation="1.54762"/>
<feColorMatrix type="matrix" values="0 0 0 0 0 0 0 0 0 0 0 0 0 0 0 0 0 0 0.25 0"/>
<feBlend mode="normal" in2="BackgroundImageFix" result="effect1_dropShadow"/>
<feBlend mode="normal" in="SourceGraphic" in2="effect1_dropShadow" result="shape"/>
</filter>
</defs>
</svg>
