<svg width="52" height="38" viewBox="0 0 52 38" fill="none" xmlns="http://www.w3.org/2000/svg">
<circle cx="24.6352" cy="18.9082" r="17.7264" stroke="#2C2C2C" stroke-width="2.36352"/>
<circle cx="24.6352" cy="18.9082" r="15.5599" stroke="#2C2C2C" stroke-width="0.393921"/>
<g clip-path="url(#clip0)">
<path d="M18.0278 15.1335C18.1146 15.2172 18.2288 15.2724 18.3554 15.284L18.3777 15.2886L19.6636 15.2234C19.3874 15.4842 19.1177 15.772 18.8558 16.0857C16.8067 18.5417 17.262 22.735 17.2825 22.914C17.3087 23.1328 17.4626 23.3129 17.6756 23.3727C17.8859 23.4306 18.1162 23.3546 18.247 23.1852C18.4572 22.9179 20.3056 20.5394 20.3997 19.4036C20.4028 19.3693 20.4055 19.3345 20.4082 19.2994L20.4352 19.2998C20.6007 19.2998 20.7546 19.2257 20.8561 19.0984L21.8596 17.8577C21.9228 17.7782 21.9618 17.6856 21.9741 17.5892C21.9888 17.5803 22.0027 17.5711 22.0158 17.561C22.0579 17.5302 22.9174 16.8905 23.5015 15.835C24.7998 17.352 28.581 22.2756 28.7049 28.2856C28.7091 28.4847 28.821 28.6653 29.0073 28.7613C29.1393 28.8261 29.8438 29.1502 30.7515 29.1502C31.3357 29.1502 31.8823 29.0163 32.3761 28.7529C32.5899 28.6391 32.7029 28.394 32.6504 28.158C32.564 27.7679 30.6014 19.1001 25.7538 15.4997C25.8684 15.4785 25.9414 15.4608 25.9618 15.4554C25.9795 15.4507 25.9969 15.4457 26.0138 15.4392C26.0979 15.4905 26.1959 15.5191 26.2962 15.5191H27.8892C28.064 15.5191 28.2245 15.4369 28.3275 15.2965C28.3556 15.3162 28.3842 15.3362 28.4127 15.3551C29.3302 15.9782 32.1515 16.0496 32.6844 16.0565L32.7253 16.0581C32.9375 16.0581 33.1238 15.9339 33.2156 15.7263C33.3005 15.5237 33.2557 15.2919 33.1022 15.136C32.9907 15.0226 30.579 12.5947 27.7638 12.1406C28.8456 12.0272 30.6454 11.2058 31.0181 11.0314C31.2191 10.9373 31.3414 10.7336 31.3298 10.5145C31.3194 10.2953 31.179 10.1051 30.9648 10.0276C30.7952 9.96879 29.2559 9.4541 27.5217 9.4541C26.4511 9.4541 25.5201 9.65088 24.7547 10.0394C23.0807 10.8893 22.3268 11.8665 21.9989 12.4684C21.3928 12.2415 20.4819 12.0317 19.2308 12.0733C16.3959 12.1721 13.8913 14.9506 13.7852 15.0703C13.6393 15.2358 13.6077 15.4699 13.7042 15.6679C13.796 15.8553 13.9831 15.9749 14.2269 15.9703C14.7184 15.9383 17.2115 15.7481 18.0043 15.1493C18.012 15.1459 18.0197 15.1397 18.0278 15.1335Z" fill="#2C2C2C"/>
</g>
<path d="M0.750863 17.3732C0.338079 17.5108 0.114994 17.957 0.252588 18.3697C0.390183 18.7825 0.836353 19.0056 1.24914 18.868L0.750863 17.3732ZM8.09057 16.5449L8.09057 17.3328H8.09057L8.09057 16.5449ZM15.5751 19.3024C16.0102 19.3024 16.3629 18.9496 16.3629 18.5145C16.3629 18.0794 16.0102 17.7267 15.5751 17.7267V19.3024ZM1.24914 18.868C4.78944 17.6879 6.25938 17.3328 8.09057 17.3328V15.7571C5.98256 15.7571 4.30113 16.1898 0.750863 17.3732L1.24914 18.868ZM8.09057 17.3328C9.89818 17.3328 10.9593 17.7754 11.9373 18.241C12.9341 18.7157 13.986 19.3024 15.5751 19.3024V17.7267C14.4067 17.7267 13.686 17.3285 12.6147 16.8184C11.5245 16.2993 10.2222 15.7571 8.09057 15.7571L8.09057 17.3328Z" fill="#2C2C2C"/>
<path d="M0.750863 21.3117C0.338079 21.4493 0.114994 21.8954 0.252588 22.3082C0.390183 22.721 0.836353 22.9441 1.24914 22.8065L0.750863 21.3117ZM8.09057 20.4834L8.09057 21.2712H8.09057L8.09057 20.4834ZM15.5751 23.2408C16.0102 23.2408 16.3629 22.8881 16.3629 22.453C16.3629 22.0179 16.0102 21.6652 15.5751 21.6652V23.2408ZM1.24914 22.8065C4.78944 21.6264 6.25938 21.2712 8.09057 21.2712V19.6956C5.98256 19.6956 4.30113 20.1282 0.750863 21.3117L1.24914 22.8065ZM8.09057 21.2712C9.89818 21.2712 10.9593 21.7138 11.9373 22.1795C12.9341 22.6542 13.986 23.2408 15.5751 23.2408V21.6652C14.4067 21.6652 13.686 21.267 12.6147 20.7569C11.5245 20.2378 10.2222 19.6956 8.09057 19.6956L8.09057 21.2712Z" fill="#2C2C2C"/>
<path d="M0.750863 25.2515C0.338079 25.3891 0.114994 25.8353 0.252588 26.248C0.390183 26.6608 0.836353 26.8839 1.24914 26.7463L0.750863 25.2515ZM8.09057 24.4232L8.09057 25.2111H8.09057L8.09057 24.4232ZM13.9994 25.9989L14.2485 25.2515L14.2198 25.2419L14.1905 25.2346L13.9994 25.9989ZM20.696 25.605L20.3437 24.9003L20.3437 24.9003L20.696 25.605ZM25.0707 25.5218C25.4599 25.7164 25.9332 25.5586 26.1277 25.1695C26.3223 24.7803 26.1646 24.3071 25.7754 24.1125L25.0707 25.5218ZM21.1913 20.9343C20.7873 21.0959 20.5908 21.5544 20.7524 21.9584C20.914 22.3624 21.3725 22.5589 21.7765 22.3973L21.1913 20.9343ZM24.2413 21.6658C24.6764 21.6658 25.0292 21.313 25.0292 20.8779C25.0292 20.4428 24.6764 20.0901 24.2413 20.0901V21.6658ZM1.24914 26.7463C4.78944 25.5662 6.25938 25.2111 8.09057 25.2111V23.6354C5.98256 23.6354 4.30113 24.0681 0.750863 25.2515L1.24914 26.7463ZM8.09057 25.2111C9.97215 25.2111 10.9446 25.4916 11.6155 25.7851C11.9775 25.9435 12.246 26.1007 12.6023 26.2857C12.9449 26.4636 13.3277 26.6431 13.8083 26.7632L14.1905 25.2346C13.8833 25.1578 13.6259 25.0418 13.3284 24.8873C13.0446 24.7399 12.6729 24.5278 12.2471 24.3415C11.3423 23.9457 10.1482 23.6354 8.09057 23.6354L8.09057 25.2111ZM13.7502 26.7463C14.4348 26.9745 15.6042 27.1807 16.9045 27.1807C18.2065 27.1807 19.719 26.9743 21.0484 26.3096L20.3437 24.9003C19.3095 25.4174 18.0646 25.605 16.9045 25.605C15.7429 25.605 14.7457 25.4172 14.2485 25.2515L13.7502 26.7463ZM21.0484 26.3096C21.8968 25.8854 22.8574 25.6428 23.6708 25.5396C24.0757 25.4883 24.429 25.4734 24.6985 25.4838C25.0061 25.4956 25.1014 25.5371 25.0707 25.5218L25.7754 24.1125C25.4822 23.9658 25.0916 23.922 24.7591 23.9092C24.3884 23.895 23.9473 23.9162 23.4725 23.9765C22.5264 24.0965 21.3861 24.3791 20.3437 24.9003L21.0484 26.3096ZM21.7765 22.3973C22.5635 22.0825 23.1804 21.6658 24.2413 21.6658V20.0901C22.7811 20.0901 21.7173 20.7239 21.1913 20.9343L21.7765 22.3973Z" fill="#2C2C2C"/>
<path d="M50.832 17.0429C51.2532 17.1523 51.5059 17.5823 51.3966 18.0035C51.2872 18.4246 50.8572 18.6774 50.436 18.568L50.832 17.0429ZM43.3518 16.5449L43.3518 17.3328L43.3518 16.5449ZM33.3015 18.5933C32.8664 18.5933 32.5137 18.2406 32.5137 17.8055C32.5137 17.3704 32.8664 17.0176 33.3015 17.0176V18.5933ZM50.436 18.568C46.8009 17.6242 45.2665 17.3328 43.3518 17.3328V15.7571C45.4829 15.7571 47.185 16.096 50.832 17.0429L50.436 18.568ZM43.3518 17.3328C41.4085 17.3328 39.6661 17.6351 38.0191 17.9491C36.4 18.2578 34.8103 18.5933 33.3015 18.5933V17.0176C34.6247 17.0176 36.0374 16.7229 37.724 16.4013C39.3827 16.085 41.2495 15.7571 43.3518 15.7571L43.3518 17.3328Z" fill="#2C2C2C"/>
<path d="M50.92 21.6401C51.3254 21.798 51.5261 22.2547 51.3682 22.6601C51.2102 23.0656 50.7536 23.2663 50.3481 23.1083L50.92 21.6401ZM43.3518 20.4834L43.3518 21.2712L43.3518 20.4834ZM33.6954 23.1621C33.2603 23.1621 32.9076 22.8093 32.9076 22.3742C32.9076 21.9391 33.2603 21.5864 33.6954 21.5864V23.1621ZM50.3481 23.1083C46.7102 21.6915 45.2135 21.2712 43.3518 21.2712V19.6956C45.5358 19.6956 47.2757 20.2207 50.92 21.6401L50.3481 23.1083ZM43.3518 21.2712C41.4526 21.2712 39.8406 21.7134 38.2977 22.1826C36.7932 22.6401 35.2569 23.1621 33.6954 23.1621V21.5864C34.9659 21.5864 36.2351 21.1629 37.8393 20.6751C39.4052 20.1989 41.2054 19.6956 43.3518 19.6956L43.3518 21.2712Z" fill="#2C2C2C"/>
<path d="M50.9068 25.5968C51.315 25.7475 51.5238 26.2005 51.3731 26.6087C51.2225 27.0169 50.7695 27.2257 50.3613 27.0751L50.9068 25.5968ZM34.4833 27.1238C34.0482 27.1238 33.6954 26.771 33.6954 26.3359C33.6954 25.9008 34.0482 25.5481 34.4833 25.5481V27.1238ZM50.3613 27.0751C46.7056 25.7259 45.195 25.323 43.3147 25.323V23.7473C45.5008 23.7473 47.2432 24.2448 50.9068 25.5968L50.3613 27.0751ZM43.3147 25.323C41.7904 25.323 40.3771 25.736 38.9232 26.1879C37.5117 26.6265 36.007 27.1238 34.4833 27.1238V25.5481C35.7171 25.5481 36.9698 25.1449 38.4555 24.6832C39.8988 24.2347 41.5225 23.7473 43.3147 23.7473V25.323Z" fill="#2C2C2C"/>
<defs>
<clipPath id="clip0">
<rect width="19.696" height="19.696" fill="white" transform="translate(13.6055 9.4541)"/>
</clipPath>
</defs>
</svg>
