<svg width="206" height="105" viewBox="0 0 206 105" fill="none" xmlns="http://www.w3.org/2000/svg">
<rect x="110.899" y="72.6792" width="66.1345" height="23.0897" transform="rotate(-9.59682 110.899 72.6792)" fill="white"/>
<rect x="90.7397" y="47.2305" width="93.9217" height="23.0897" transform="rotate(-9.59682 90.7397 47.2305)" fill="white"/>
<path d="M100.263 51.644C100.161 51.4373 100.075 51.254 100.007 51.0941C99.9502 50.9191 99.9163 50.7267 99.9058 50.517C99.9073 50.4506 99.9077 50.3779 99.9069 50.2987C99.919 50.2172 99.9409 50.1538 99.9726 50.1086C100.015 50.0483 100.073 50.0049 100.148 49.9785C100.22 49.9393 100.325 49.934 100.462 49.9627C100.546 49.9876 100.636 50.0446 100.731 50.1336C100.823 50.2098 100.907 50.3075 100.981 50.4267C101.067 50.5436 101.14 50.6564 101.199 50.765C101.258 50.8736 101.3 50.9653 101.327 51.0399C101.637 50.7737 101.985 50.5007 102.372 50.2209C102.757 49.9283 103.161 49.6719 103.585 49.4517C104.02 49.2165 104.462 49.0261 104.912 48.8806C105.361 48.7222 105.801 48.6314 106.233 48.6081C106.376 48.596 106.543 48.6062 106.734 48.6387C106.935 48.6561 107.122 48.7025 107.294 48.7779C107.477 48.8383 107.632 48.93 107.759 49.0529C107.897 49.1608 107.969 49.3068 107.975 49.4908C108.036 49.837 108.023 50.2097 107.934 50.6087C107.859 51.0054 107.738 51.41 107.573 51.8226C107.408 52.2352 107.209 52.647 106.978 53.058C106.759 53.4668 106.537 53.8564 106.311 54.2267C106.096 54.5819 105.89 54.9093 105.691 55.2087C105.493 55.5081 105.344 55.7525 105.245 55.9418C105.652 55.6982 106.14 55.4667 106.709 55.2473C107.277 55.015 107.846 54.8684 108.417 54.8074C109.001 54.7441 109.538 54.7947 110.03 54.9592C110.535 55.1215 110.913 55.4647 111.164 55.989C111.261 56.3156 111.264 56.7052 111.171 57.1577C111.077 57.5975 110.916 58.0689 110.687 58.5719C110.458 59.075 110.173 59.5947 109.831 60.1309C109.5 60.6521 109.141 61.1649 108.754 61.6695C108.38 62.1718 107.994 62.6431 107.595 63.0836C107.197 63.524 106.823 63.9139 106.473 64.2533C106.133 64.5776 105.829 64.8363 105.559 65.0293C105.286 65.2096 105.084 65.2982 104.951 65.2951L104.354 64.6072C104.42 64.6087 104.607 64.4699 104.915 64.1909C105.22 63.899 105.579 63.5317 105.99 63.089C106.412 62.6312 106.857 62.1229 107.327 61.5641C107.795 60.9924 108.224 60.4275 108.615 59.8694C109.019 59.309 109.349 58.7814 109.605 58.2867C109.86 57.7791 109.983 57.3541 109.976 57.0116C109.961 56.5515 109.782 56.2524 109.441 56.1143C109.109 55.9612 108.687 55.9298 108.174 56.0202C107.662 56.1107 107.107 56.3011 106.51 56.5914C105.911 56.8689 105.354 57.1984 104.84 57.58C104.323 57.9488 103.885 58.35 103.525 58.7836C103.165 59.2173 102.968 59.6355 102.933 60.0383C102.952 60.4449 102.992 60.8608 103.054 61.2863C103.116 61.7117 103.179 62.1435 103.243 62.5818C103.317 63.0049 103.386 63.4292 103.447 63.8546C103.522 64.2778 103.568 64.6862 103.584 65.08C103.595 65.3689 103.578 65.6099 103.533 65.8029C103.501 65.9938 103.326 66.0907 103.009 66.0936C102.984 66.0982 102.938 66.0997 102.871 66.0982C102.805 66.0966 102.771 66.0895 102.768 66.0766L100.263 51.644ZM101.701 52.9374C101.708 53.2006 101.733 53.5333 101.778 53.9353C101.835 54.3351 101.901 54.7465 101.976 55.1697C102.05 55.5928 102.135 56.0009 102.231 56.3939C102.34 56.7846 102.45 57.109 102.561 57.367C102.758 57.1339 103.025 56.8093 103.361 56.3929C103.711 55.9744 104.072 55.5139 104.447 55.0116C104.831 54.4943 105.2 53.9599 105.552 53.4086C105.905 52.8572 106.183 52.3387 106.389 51.853C106.604 51.3522 106.719 50.9155 106.733 50.5429C106.744 50.1574 106.602 49.8783 106.307 49.7056C106.072 49.7206 105.79 49.7704 105.461 49.8548C105.143 49.9241 104.811 50.0289 104.465 50.1692C104.118 50.2966 103.776 50.4561 103.439 50.6476C103.103 50.8392 102.804 51.0571 102.543 51.3015C102.28 51.533 102.067 51.7887 101.905 52.0685C101.755 52.346 101.687 52.6357 101.701 52.9374ZM120.356 62.6581C120.129 62.4205 119.951 62.0882 119.823 61.6613C119.708 61.2321 119.602 60.7814 119.505 60.3092C119.42 59.8219 119.336 59.3475 119.254 58.8859C119.184 58.4091 119.08 58.0109 118.945 57.691C118.575 59.1181 118.186 60.2509 117.779 61.0896C117.382 61.9133 116.987 62.5249 116.595 62.9246C116.213 63.3093 115.841 63.5204 115.477 63.5581C115.111 63.5829 114.781 63.5089 114.486 63.3362C114.202 63.1483 113.961 62.9065 113.763 62.6108C113.563 62.3023 113.431 62.0017 113.366 61.709C113.191 61.2376 113.081 60.6553 113.038 59.9621C113.006 59.2538 113.028 58.5161 113.104 57.7491C113.193 56.9797 113.337 56.2205 113.536 55.4716C113.745 54.7075 114.009 54.0329 114.329 53.4476C114.662 52.8601 115.044 52.4026 115.475 52.0753C115.905 51.7352 116.39 51.6033 116.933 51.6795C117.185 51.6087 117.398 51.5842 117.574 51.6061C117.761 51.6129 117.924 51.6767 118.064 51.7974C118.204 51.9181 118.323 52.1021 118.419 52.3496C118.514 52.5841 118.607 52.8915 118.701 53.2717C118.895 54.52 119.113 55.5723 119.357 56.4284C119.613 57.2823 119.864 58.0313 120.11 58.6755C120.356 59.3197 120.584 59.9009 120.794 60.4191C121.017 60.9351 121.193 61.4793 121.32 62.0518C121.356 62.257 121.333 62.4263 121.251 62.5598C121.166 62.6805 121.062 62.765 120.939 62.8132C120.817 62.8743 120.694 62.8894 120.57 62.8584C120.458 62.8252 120.387 62.7585 120.356 62.6581ZM117.528 53.1414C117.148 52.7853 116.784 52.671 116.436 52.7984C116.088 52.9259 115.769 53.2136 115.477 53.6616C115.197 54.0945 114.95 54.647 114.738 55.319C114.524 55.9782 114.363 56.6744 114.254 57.4075C114.145 58.1407 114.094 58.8636 114.101 59.5764C114.118 60.2741 114.205 60.8802 114.362 61.3946C114.643 61.94 114.922 62.2478 115.199 62.318C115.476 62.3882 115.745 62.3011 116.006 62.0568C116.265 61.7996 116.509 61.4259 116.74 60.9356C116.971 60.4454 117.183 59.9253 117.377 59.3755C117.569 58.8128 117.73 58.2622 117.86 57.7237C118 57.1701 118.11 56.7077 118.19 56.3366L117.528 53.1414ZM127.283 61.6549L121.326 52.7294C121.197 52.5936 121.144 52.4443 121.168 52.2814C121.19 52.1056 121.257 51.9616 121.369 51.8492C121.482 51.7368 121.624 51.6788 121.795 51.675C121.977 51.6562 122.155 51.7305 122.33 51.898L127.361 59.7371L127.349 49.8825C127.419 49.8305 127.503 49.7826 127.602 49.7388C127.712 49.6929 127.82 49.6672 127.925 49.662C128.043 49.6544 128.152 49.6748 128.253 49.7231C128.354 49.7714 128.43 49.8638 128.481 50.0003C128.507 50.5246 128.526 51.1955 128.538 52.0131C128.55 52.8308 128.554 53.6763 128.549 54.5498C128.542 55.4104 128.53 56.239 128.511 57.0355C128.504 57.8169 128.501 58.4388 128.503 58.9012C128.499 59.1795 128.5 59.5563 128.504 60.0315C128.506 60.4938 128.504 61.0033 128.496 61.56C128.501 62.1144 128.497 62.6903 128.483 63.2877C128.485 63.8956 128.482 64.4779 128.474 65.0346C128.479 65.589 128.469 66.0932 128.443 66.5473C128.433 67.0119 128.419 67.3845 128.402 67.6651C128.404 67.8235 128.347 67.9525 128.233 68.052C128.118 68.1516 127.983 68.2085 127.826 68.2228C127.67 68.2371 127.514 68.2118 127.357 68.1469C127.213 68.0798 127.12 67.964 127.077 67.7996L127.283 61.6549ZM134.444 60.293C133.92 60.3193 133.461 60.1887 133.066 59.9013C132.685 59.6116 132.354 59.2337 132.073 58.7675C131.793 58.3013 131.568 57.7789 131.4 57.2004C131.243 56.6067 131.126 56.0191 131.05 55.4376C130.932 54.546 130.943 53.6714 131.083 52.8138C131.235 51.954 131.471 51.1918 131.79 50.5273C132.12 49.8478 132.513 49.3025 132.97 48.8915C133.436 48.4654 133.927 48.2467 134.44 48.2355C134.98 48.2197 135.447 48.3951 135.842 48.7618C136.25 49.1261 136.598 49.6003 136.886 50.1841C137.174 50.768 137.402 51.4219 137.569 52.1461C137.735 52.8574 137.85 53.551 137.916 54.2268C137.986 54.9947 137.943 55.7293 137.789 56.4308C137.635 57.1322 137.395 57.7564 137.068 58.3032C136.755 58.8477 136.365 59.2998 135.9 59.6596C135.445 60.0042 134.96 60.2153 134.444 60.293ZM134.441 49.3658C134.009 49.3891 133.635 49.5938 133.32 49.98C133.015 50.351 132.762 50.8254 132.56 51.4032C132.368 51.9658 132.235 52.5975 132.16 53.2982C132.083 53.9861 132.069 54.6563 132.118 55.3088C132.148 55.7794 132.212 56.2573 132.311 56.7423C132.41 57.2273 132.546 57.6595 132.718 58.0389C132.904 58.4161 133.134 58.7126 133.411 58.9283C133.697 59.129 134.039 59.1943 134.437 59.1242C134.76 59.0805 135.074 58.9127 135.379 58.6209C135.698 58.3267 135.977 57.9602 136.217 57.5212C136.454 57.0695 136.644 56.5732 136.787 56.0324C136.943 55.4893 137.012 54.9481 136.997 54.4088C136.989 53.8416 136.909 53.274 136.756 52.706C136.613 52.1229 136.421 51.5949 136.179 51.122C135.95 50.6467 135.682 50.2511 135.375 49.935C135.078 49.6038 134.767 49.4141 134.441 49.3658ZM138.538 47.8303C138.528 47.6998 138.561 47.5882 138.637 47.4954C138.714 47.4027 138.808 47.3397 138.921 47.3065C139.032 47.2605 139.15 47.253 139.274 47.2839C139.397 47.3021 139.504 47.3492 139.597 47.4254L140.896 55.1294C140.977 54.1632 141.034 53.2143 141.068 52.2828C141.113 51.3362 141.218 50.4714 141.384 49.6885C141.548 48.8928 141.812 48.2181 142.178 47.6645C142.541 47.0981 143.088 46.7173 143.821 46.522C144.211 46.4134 144.579 46.4742 144.924 46.7043C145.266 46.9216 145.582 47.2494 145.871 47.6876C146.172 48.1237 146.45 48.6498 146.704 49.2661C146.956 49.8695 147.181 50.5107 147.381 51.1896C147.59 51.8534 147.775 52.5281 147.936 53.2138C148.096 53.8994 148.235 54.5361 148.352 55.1237C148.469 55.7112 148.56 56.2306 148.627 56.6816C148.706 57.1305 148.757 57.4586 148.78 57.666C148.729 57.8998 148.594 58.0691 148.374 58.1739C148.17 58.2893 147.955 58.2346 147.73 58.0098C147.675 57.7684 147.595 57.3528 147.491 56.763C147.384 56.1603 147.251 55.4765 147.089 54.7116C146.941 53.9445 146.761 53.1499 146.55 52.3277C146.349 51.4904 146.116 50.7316 145.851 50.0512C145.596 49.3557 145.305 48.7922 144.978 48.3607C144.661 47.9141 144.311 47.6916 143.928 47.693C143.598 47.6983 143.315 47.9268 143.077 48.3786C142.852 48.8281 142.656 49.4047 142.49 50.1084C142.336 50.8099 142.209 51.5924 142.11 52.456C142.024 53.3174 141.955 54.1626 141.903 54.9915C141.863 55.8182 141.838 56.5762 141.828 57.2656C141.817 57.9551 141.824 58.4827 141.849 58.8485C141.829 58.9579 141.766 59.0548 141.662 59.1392C141.558 59.2237 141.436 59.2784 141.295 59.3032C141.169 59.3387 141.031 59.3432 140.881 59.3168C140.743 59.2881 140.63 59.2089 140.541 59.0791L138.538 47.8303ZM148.486 46.0762C148.476 45.9457 148.509 45.8341 148.586 45.7413C148.662 45.6485 148.756 45.5856 148.87 45.5524C148.98 45.5064 149.098 45.4989 149.223 45.5298C149.345 45.5479 149.452 45.5951 149.545 45.6713L150.844 53.3753C150.925 52.4091 150.982 51.4602 151.016 50.5287C151.061 49.5821 151.166 48.7173 151.332 47.9344C151.496 47.1386 151.761 46.464 152.126 45.9104C152.489 45.344 153.036 44.9631 153.769 44.7679C154.159 44.6593 154.527 44.7201 154.872 44.9502C155.214 45.1675 155.53 45.4953 155.819 45.9335C156.12 46.3695 156.398 46.8957 156.652 47.512C156.904 48.1154 157.13 48.7566 157.329 49.4355C157.538 50.0993 157.723 50.774 157.884 51.4596C158.044 52.1453 158.183 52.7819 158.3 53.3695C158.417 53.9571 158.508 54.4765 158.575 54.9275C158.654 55.3763 158.705 55.7045 158.728 55.9119C158.677 56.1457 158.542 56.315 158.322 56.4198C158.118 56.5352 157.903 56.4805 157.678 56.2557C157.623 56.0143 157.543 55.5987 157.439 55.0088C157.332 54.4062 157.199 53.7224 157.037 52.9575C156.889 52.1904 156.709 51.3957 156.498 50.5736C156.297 49.7363 156.065 48.9774 155.799 48.2971C155.544 47.6016 155.253 47.0381 154.926 46.6066C154.609 46.16 154.259 45.9375 153.876 45.9389C153.546 45.9441 153.263 46.1727 153.025 46.6244C152.8 47.074 152.604 47.6506 152.438 48.3543C152.284 49.0557 152.157 49.8383 152.058 50.7019C151.972 51.5633 151.903 52.4084 151.851 53.2374C151.812 54.0641 151.787 54.8221 151.776 55.5115C151.765 56.2009 151.772 56.7285 151.797 57.0944C151.777 57.2037 151.715 57.3007 151.61 57.3851C151.506 57.4696 151.384 57.5243 151.243 57.5491C151.117 57.5846 150.979 57.5891 150.829 57.5626C150.691 57.534 150.578 57.4548 150.489 57.325L148.486 46.0762ZM167.077 54.42C166.85 54.1824 166.672 53.8501 166.544 53.4232C166.429 52.994 166.323 52.5433 166.226 52.0711C166.14 51.5838 166.057 51.1094 165.975 50.6477C165.904 50.171 165.801 49.7728 165.665 49.4529C165.296 50.88 164.907 52.0128 164.499 52.8515C164.103 53.6751 163.708 54.2868 163.316 54.6865C162.934 55.0711 162.561 55.2823 162.198 55.32C161.832 55.3448 161.502 55.2708 161.207 55.0981C160.922 54.9102 160.681 54.6684 160.484 54.3727C160.284 54.0642 160.152 53.7636 160.087 53.4709C159.911 52.9995 159.802 52.4172 159.759 51.724C159.727 51.0157 159.749 50.278 159.825 49.5109C159.914 48.7416 160.058 47.9824 160.256 47.2335C160.465 46.4694 160.73 45.7947 161.05 45.2095C161.382 44.6219 161.765 44.1645 162.196 43.8372C162.625 43.4971 163.111 43.3652 163.653 43.4414C163.905 43.3706 164.119 43.3461 164.295 43.368C164.481 43.3748 164.644 43.4386 164.785 43.5593C164.925 43.68 165.043 43.864 165.14 44.1114C165.234 44.346 165.328 44.6534 165.422 45.0336C165.615 46.2819 165.834 47.3342 166.077 48.1903C166.334 49.0442 166.585 49.7932 166.831 50.4374C167.076 51.0816 167.304 51.6628 167.515 52.181C167.738 52.697 167.913 53.2412 168.041 53.8137C168.077 54.0189 168.054 54.1882 167.972 54.3217C167.887 54.4424 167.783 54.5269 167.659 54.5751C167.538 54.6362 167.415 54.6513 167.29 54.6203C167.179 54.5871 167.108 54.5204 167.077 54.42ZM164.248 44.9033C163.868 44.5472 163.504 44.4329 163.157 44.5603C162.809 44.6878 162.489 44.9755 162.198 45.4235C161.917 45.8564 161.671 46.4089 161.459 47.0809C161.245 47.7401 161.083 48.4363 160.975 49.1694C160.866 49.9026 160.815 50.6255 160.821 51.3383C160.839 52.036 160.926 52.6421 161.083 53.1565C161.364 53.7019 161.643 54.0097 161.92 54.0799C162.197 54.1501 162.465 54.063 162.726 53.8186C162.985 53.5615 163.23 53.1878 163.461 52.6975C163.692 52.2073 163.904 51.6872 164.098 51.1374C164.29 50.5747 164.45 50.0241 164.58 49.4856C164.721 48.932 164.831 48.4696 164.911 48.0985L164.248 44.9033ZM168.09 42.2624C168.16 42.2104 168.245 42.1625 168.343 42.1188C168.441 42.075 168.535 42.0453 168.624 42.0294C168.727 42.0114 168.826 42.0136 168.923 42.0363C169.02 42.0589 169.103 42.117 169.172 42.2105C169.319 43.044 169.485 43.9469 169.669 44.9192C169.865 45.8764 170.063 46.8529 170.265 47.8485C170.478 48.8291 170.682 49.798 170.877 50.7552C171.072 51.7124 171.255 52.5991 171.425 53.4153C171.472 53.6053 171.447 53.7619 171.349 53.8848C171.252 54.0077 171.133 54.0816 170.992 54.1065C170.864 54.1291 170.733 54.0993 170.599 54.0171C170.468 53.9476 170.384 53.8104 170.348 53.6052L168.09 42.2624ZM167.168 38.3793C167.138 38.2126 167.177 38.0934 167.283 38.0218C167.387 37.9373 167.51 37.8827 167.651 37.8578C167.933 37.808 168.123 37.8737 168.221 38.0547C168.33 38.2207 168.405 38.4255 168.448 38.6691C168.398 38.8366 168.315 38.9636 168.198 39.0504C168.081 39.1371 167.949 39.1737 167.801 39.1601C167.666 39.1442 167.535 39.0748 167.407 38.9518C167.293 38.8266 167.213 38.6358 167.168 38.3793ZM173.587 52.0425C173.864 52.1919 174.177 52.2424 174.526 52.1942C174.887 52.1437 175.251 52.0333 175.618 51.8629C175.995 51.6774 176.364 51.447 176.726 51.1717C177.097 50.8814 177.428 50.5786 177.716 50.2633C178.017 49.9458 178.264 49.6245 178.458 49.2995C178.662 48.9593 178.787 48.6531 178.832 48.3808C178.874 48.0957 178.824 47.8532 178.683 47.6533C178.542 47.4534 178.281 47.321 177.899 47.2561C177.273 47.5252 176.64 47.7624 176.002 47.9675C175.364 48.1725 174.774 48.2765 174.232 48.2795C173.704 48.2802 173.25 48.1421 172.87 47.8652C172.491 47.5883 172.253 47.1014 172.156 46.4044C172.077 45.7309 172.147 45.0773 172.366 44.4437C172.595 43.7951 172.924 43.2215 173.352 42.723C173.792 42.2222 174.301 41.8086 174.878 41.482C175.468 41.1532 176.087 40.9516 176.735 40.877C176.865 40.8672 176.983 40.8597 177.088 40.8544C177.203 40.8341 177.309 40.8352 177.406 40.8578C177.502 40.8805 177.577 40.9269 177.629 40.997C177.694 41.0649 177.733 41.1769 177.747 41.3331C177.769 41.5277 177.725 41.694 177.617 41.832C177.509 41.97 177.344 42.0454 177.122 42.0582C176.338 42.0378 175.664 42.1896 175.1 42.5139C174.536 42.8382 174.09 43.2341 173.762 43.7017C173.433 44.1565 173.227 44.6422 173.147 45.1589C173.066 45.6756 173.118 46.1225 173.304 46.4996C173.629 46.9183 173.995 47.1578 174.402 47.2182C174.82 47.2636 175.244 47.2285 175.673 47.1132C176.115 46.9956 176.559 46.8512 177.005 46.68C177.448 46.4961 177.859 46.3905 178.238 46.3634C178.614 46.3235 178.947 46.4103 179.236 46.6238C179.522 46.8245 179.737 47.2559 179.88 47.9182C179.942 48.3436 179.873 48.7788 179.674 49.2238C179.473 49.656 179.191 50.0825 178.829 50.5034C178.477 50.9091 178.07 51.2983 177.607 51.6708C177.141 52.0305 176.668 52.3454 176.187 52.6153C175.718 52.883 175.265 53.0885 174.828 53.2318C174.403 53.3728 174.049 53.4285 173.767 53.3991C173.426 53.1946 173.228 52.9717 173.173 52.7303C173.115 52.4761 173.253 52.2468 173.587 52.0425ZM121.669 84.3773C121.415 84.4354 121.231 84.4414 121.117 84.3953C121.003 84.3493 120.932 84.2825 120.903 84.195C120.872 84.0947 120.873 83.9887 120.906 83.8771C120.937 83.7527 120.977 83.6399 121.025 83.5388L123.169 82.0898C122.937 81.2186 122.736 80.3417 122.567 79.4592C122.411 78.5744 122.349 77.7722 122.38 77.0526C122.41 76.3202 122.563 75.7247 122.839 75.2662C123.126 74.7925 123.596 74.5377 124.251 74.5015C124.559 74.4473 124.865 74.499 125.171 74.6567C125.474 74.8015 125.748 75.0045 125.992 75.2655C126.249 75.5242 126.466 75.8166 126.643 76.1424C126.832 76.466 126.951 76.7689 127.001 77.051C127.011 77.1815 126.984 77.292 126.921 77.3825C126.855 77.4602 126.78 77.5198 126.694 77.5612C126.607 77.5899 126.511 77.6068 126.406 77.6121C126.312 77.6023 126.234 77.5763 126.174 77.534C126.041 77.0814 125.891 76.7178 125.724 76.4433C125.569 76.1664 125.407 75.9571 125.236 75.8153C125.076 75.6583 124.92 75.5603 124.768 75.521C124.616 75.4818 124.488 75.4712 124.386 75.4893C123.977 75.5745 123.696 75.7762 123.54 76.0945C123.398 76.4105 123.333 76.8318 123.347 77.3582C123.358 77.8719 123.433 78.4867 123.573 79.2025C123.723 79.9032 123.894 80.6862 124.086 81.5514L127.976 79.3185C128.133 79.3834 128.25 79.4818 128.326 79.6138C128.4 79.733 128.371 79.9431 128.238 80.244L124.366 82.6919L126.419 90.9571C126.411 91.0643 126.363 91.1653 126.274 91.2603C126.183 91.3426 126.074 91.4014 125.948 91.4368C125.824 91.4851 125.699 91.4873 125.572 91.4435C125.461 91.4103 125.377 91.3126 125.322 91.1505L123.466 83.2077L121.669 84.3773ZM131.085 85.1168C131.009 85.2095 130.854 85.2698 130.621 85.2977C130.398 85.3105 130.184 85.2954 129.978 85.2524C129.785 85.2071 129.645 85.126 129.559 85.0091C129.47 84.8793 129.518 84.7055 129.705 84.4875C129.781 84.3947 129.868 84.3265 129.966 84.2827C130.075 84.2239 130.178 84.1727 130.276 84.1289C130.385 84.0701 130.465 84.003 130.518 83.9276C130.584 83.8499 130.611 83.7394 130.599 83.5961C130.51 83.0168 130.451 82.419 130.421 81.8027C130.405 81.1842 130.47 80.6174 130.617 80.1023C130.764 79.5871 131.025 79.1512 131.398 78.7945C131.784 78.4355 132.336 78.2259 133.052 78.1656C133.309 78.1204 133.609 78.1336 133.952 78.2053C134.293 78.2642 134.629 78.3702 134.96 78.5234C135.289 78.6637 135.587 78.8558 135.855 79.0994C136.12 79.3303 136.307 79.6015 136.415 79.913C136.527 80.0254 136.504 80.1947 136.345 80.421C136.187 80.6472 135.956 80.9127 135.653 81.2174C135.347 81.5093 134.998 81.8155 134.605 82.136C134.212 82.4565 133.83 82.7619 133.458 83.0523C133.099 83.3403 132.78 83.5949 132.502 83.8158C132.223 84.0368 132.045 84.1872 131.966 84.2672C132.131 84.7537 132.308 85.2648 132.495 85.8003C132.682 86.3359 132.899 86.8198 133.147 87.252C133.395 87.6843 133.668 88.0328 133.966 88.2976C134.275 88.5473 134.621 88.6382 135.006 88.5704C135.577 88.5094 136.043 88.3412 136.404 88.066C136.779 87.7884 137.071 87.4592 137.281 87.0784C137.492 86.6975 137.639 86.2947 137.723 85.8701C137.819 85.4432 137.875 85.0434 137.888 84.6708C137.915 84.2959 137.919 83.9844 137.902 83.7362C137.895 83.473 137.902 83.3263 137.923 83.2961C138.051 83.1943 138.211 83.1661 138.404 83.2113C138.595 83.2438 138.73 83.4116 138.81 83.7149C138.911 84.2127 138.903 84.8026 138.785 85.4844C138.667 86.1663 138.451 86.8126 138.136 87.4236C137.833 88.0322 137.429 88.553 136.924 88.9859C136.429 89.4037 135.858 89.6167 135.212 89.6249C134.555 89.7274 134.003 89.633 133.555 89.3418C133.105 89.0378 132.719 88.6496 132.398 88.1774C132.087 87.6901 131.83 87.167 131.625 86.608C131.421 86.0491 131.241 85.552 131.085 85.1168ZM135.395 80.0927C134.885 79.6009 134.405 79.3153 133.955 79.2361C133.505 79.1568 133.061 79.1888 132.623 79.332C132.361 79.418 132.146 79.5881 131.979 79.8422C131.81 80.0836 131.691 80.3822 131.622 80.7383C131.55 81.0814 131.525 81.4627 131.546 81.8821C131.565 82.2887 131.631 82.7001 131.744 83.1165L135.395 80.0927ZM130.883 77.6754C130.807 77.7682 130.714 77.8376 130.603 77.8836C130.492 77.9295 130.383 77.9488 130.276 77.9412C130.166 77.9208 130.073 77.8778 129.995 77.8122C129.918 77.7466 129.88 77.6474 129.883 77.5146L131.148 73.6623C131.154 73.6216 131.196 73.5613 131.274 73.4813C131.353 73.4014 131.441 73.3395 131.539 73.2958C131.635 73.2392 131.73 73.2159 131.824 73.2257C131.929 73.2204 132.017 73.271 132.089 73.3773L135.022 76.2911C135.163 76.4118 135.216 76.528 135.183 76.6396C135.147 76.7384 135.077 76.8237 134.97 76.8953C134.864 76.9669 134.734 77.0163 134.58 77.0435C134.439 77.0683 134.324 77.0555 134.236 77.0049L131.905 74.6988L130.883 77.6754ZM140.77 79.2838L139.105 80.1921C138.958 80.1785 138.83 80.1284 138.722 80.0416C138.601 79.9571 138.512 79.8606 138.453 79.7519C138.394 79.6433 138.368 79.5354 138.376 79.4283C138.371 79.3235 138.408 79.2375 138.489 79.1704L140.536 77.9567L139.538 72.5201C139.547 72.3466 139.609 72.2101 139.723 72.1105C139.838 72.011 139.96 71.9563 140.091 71.9465C140.232 71.9217 140.368 71.9439 140.499 72.0133C140.628 72.0699 140.723 72.1589 140.784 72.2804C140.829 72.6824 140.884 73.109 140.951 73.56C141.015 73.9983 141.08 74.4429 141.146 74.894C141.223 75.33 141.305 75.7584 141.393 76.1793C141.478 76.5874 141.57 76.9612 141.67 77.3006L144.437 75.5631C144.608 75.4802 144.752 75.4746 144.871 75.5462C144.987 75.6051 145.07 75.7028 145.121 75.8393C145.182 75.9607 145.198 76.0901 145.169 76.2274C145.141 76.3647 145.067 76.4702 144.947 76.5441L141.904 78.6278C141.926 78.756 141.987 79.0626 142.086 79.5477C142.182 80.0198 142.295 80.5818 142.423 81.2335C142.551 81.8852 142.687 82.5818 142.831 83.3233C142.975 84.0648 143.104 84.7625 143.22 85.4165C143.348 86.0682 143.455 86.6377 143.541 87.1249C143.637 87.5971 143.697 87.8973 143.719 88.0256C143.768 88.4533 143.684 88.6863 143.466 88.7248C143.248 88.7632 142.993 88.7024 142.7 88.5425L140.77 79.2838ZM153.218 86.311C152.991 86.0734 152.814 85.7411 152.686 85.3141C152.57 84.8849 152.464 84.4342 152.368 83.9621C152.282 83.4748 152.198 83.0003 152.117 82.5387C152.046 82.062 151.943 81.6637 151.807 81.3439C151.437 82.7709 151.049 83.9038 150.641 84.7425C150.244 85.5661 149.85 86.1778 149.457 86.5775C149.076 86.9621 148.703 87.1733 148.34 87.2109C147.974 87.2358 147.643 87.1618 147.348 86.989C147.064 86.8012 146.823 86.5594 146.626 86.2637C146.426 85.9552 146.293 85.6546 146.229 85.3619C146.053 84.8904 145.944 84.3081 145.901 83.6149C145.868 82.9067 145.89 82.169 145.967 81.4019C146.056 80.6326 146.2 79.8734 146.398 79.1244C146.607 78.3604 146.872 77.6857 147.191 77.1004C147.524 76.5129 147.906 76.0555 148.338 75.7282C148.767 75.3881 149.253 75.2561 149.795 75.3324C150.047 75.2615 150.261 75.237 150.437 75.2589C150.623 75.2658 150.786 75.3295 150.926 75.4502C151.067 75.5709 151.185 75.755 151.282 76.0024C151.376 76.237 151.47 76.5444 151.563 76.9245C151.757 78.1729 151.976 79.2251 152.219 80.0813C152.475 80.9352 152.726 81.6842 152.972 82.3284C153.218 82.9726 153.446 83.5538 153.657 84.072C153.88 84.5879 154.055 85.1322 154.182 85.7047C154.219 85.9099 154.196 86.0792 154.113 86.2127C154.029 86.3334 153.925 86.4178 153.801 86.4661C153.68 86.5272 153.557 86.5422 153.432 86.5113C153.321 86.4781 153.249 86.4113 153.218 86.311ZM150.39 76.7943C150.01 76.4382 149.646 76.3239 149.298 76.4513C148.951 76.5787 148.631 76.8664 148.34 77.3144C148.059 77.7473 147.813 78.2998 147.601 78.9719C147.386 79.6311 147.225 80.3272 147.116 81.0604C147.008 81.7935 146.957 82.5165 146.963 83.2293C146.98 83.927 147.067 84.5331 147.224 85.0475C147.506 85.5929 147.785 85.9007 148.061 85.9708C148.338 86.041 148.607 85.954 148.868 85.7096C149.127 85.4524 149.372 85.0787 149.603 84.5885C149.833 84.0982 150.046 83.5782 150.24 83.0283C150.431 82.4657 150.592 81.9151 150.722 81.3765C150.862 80.8229 150.973 80.3606 151.053 79.9895L150.39 76.7943ZM156.192 85.6081C155.842 83.8453 155.545 82.3507 155.302 81.1242C155.06 79.8977 154.861 78.8817 154.706 78.0761C154.55 77.2705 154.427 76.6444 154.335 76.1979C154.253 75.7363 154.187 75.3976 154.136 75.1818C154.097 74.9639 154.075 74.8356 154.068 74.7972C154.059 74.7459 154.053 74.7138 154.051 74.701C154.043 74.5833 154.084 74.477 154.173 74.3819C154.262 74.2869 154.363 74.2228 154.476 74.1896C154.6 74.1414 154.724 74.1327 154.849 74.1637C154.973 74.1946 155.071 74.2633 155.143 74.3696L155.981 78.7834C156.017 77.8647 156.195 77.0731 156.514 76.4086C156.846 75.7419 157.252 75.1943 157.731 74.766C158.209 74.3248 158.727 74.002 159.286 73.7977C159.858 73.5911 160.402 73.4886 160.918 73.4902C161.091 73.4993 161.225 73.5483 161.32 73.6373C161.428 73.7241 161.493 73.8316 161.516 73.9598C161.549 74.073 161.538 74.194 161.481 74.323C161.435 74.4369 161.359 74.5296 161.252 74.6013C160.669 74.6646 160.133 74.812 159.645 75.0434C159.167 75.2599 158.74 75.54 158.365 75.8839C158 76.2127 157.688 76.5849 157.431 77.0005C157.187 77.4138 157.01 77.835 156.9 78.2642C156.733 78.8887 156.654 79.5306 156.665 80.1898C156.686 80.834 156.739 81.4725 156.824 82.1053C156.922 82.7359 157.027 83.3322 157.139 83.8942C157.265 84.4538 157.358 84.9464 157.42 85.3718C157.432 85.5151 157.387 85.6354 157.285 85.7327C157.194 85.8149 157.078 85.8685 156.937 85.8933C156.811 85.9288 156.672 85.9269 156.519 85.8876C156.377 85.8333 156.268 85.7401 156.192 85.6081ZM168.17 80.0652C168.085 80.4106 167.939 80.8198 167.731 81.2927C167.524 81.7656 167.267 82.2208 166.961 82.6582C166.655 83.0956 166.301 83.4886 165.899 83.837C165.509 84.1703 165.076 84.3788 164.602 84.4625C164.396 84.4987 164.225 84.5024 164.088 84.4737C163.963 84.4428 163.842 84.3915 163.724 84.3198C163.616 84.233 163.511 84.1259 163.409 83.9984C163.307 83.871 163.183 83.7276 163.036 83.5685C162.807 82.9476 162.618 82.2473 162.467 81.4673C162.329 80.6851 162.254 79.8852 162.242 79.0676C162.243 78.2477 162.315 77.4549 162.457 76.6894C162.611 75.9087 162.86 75.2235 163.206 74.6337C163.564 74.0416 164.032 73.5823 164.609 73.2558C165.196 72.9142 165.918 72.7672 166.772 72.8149C166.707 71.9935 166.571 71.1845 166.364 70.3879C166.155 69.5786 165.954 68.7349 165.759 67.8569C165.736 67.7286 165.778 67.6287 165.885 67.5571C165.989 67.4726 166.11 67.4115 166.249 67.3738C166.398 67.321 166.538 67.2898 166.669 67.28C166.812 67.2679 166.906 67.2777 166.952 67.3094C167.142 68.4658 167.316 69.5259 167.473 70.4899C167.642 71.4516 167.803 72.3621 167.954 73.2212C168.104 74.0675 168.248 74.8882 168.388 75.6832C168.529 76.4783 168.672 77.2925 168.819 78.126C168.979 78.9573 169.14 79.8345 169.303 80.7578C169.479 81.6788 169.664 82.6906 169.858 83.7934C169.958 83.9873 169.97 84.1638 169.892 84.3229C169.827 84.4798 169.728 84.5899 169.593 84.6533C169.459 84.7166 169.308 84.7234 169.141 84.6736C168.986 84.6215 168.87 84.4899 168.793 84.2787L168.17 80.0652ZM166.151 74.0152C165.65 74.0242 165.212 74.2402 164.837 74.6633C164.473 75.0713 164.176 75.5997 163.946 76.2483C163.715 76.8841 163.554 77.5867 163.465 78.3561C163.374 79.1126 163.356 79.8363 163.412 80.5273C163.478 81.2031 163.616 81.8001 163.827 82.3183C164.037 82.8366 164.327 83.1689 164.697 83.3152C165.017 83.2587 165.312 83.0943 165.582 82.8221C165.849 82.537 166.086 82.1976 166.295 81.8039C166.516 81.4079 166.704 80.978 166.86 80.5142C167.027 80.0352 167.164 79.5748 167.271 79.1328C167.378 78.6908 167.448 78.2952 167.479 77.9459C167.52 77.5816 167.525 77.3097 167.493 77.1302C167.468 76.9891 167.424 76.7391 167.361 76.38C167.298 76.021 167.208 75.6601 167.091 75.2972C166.987 74.9322 166.852 74.6187 166.687 74.357C166.535 74.093 166.356 73.979 166.151 74.0152Z" fill="#2C2C2C"/>
<path d="M116.5 22.3048C106.09 12.4085 87.4998 -0.678853 70.8464 1.17758C59.7887 2.41022 48.7409 9.93355 45.2842 22.5957M45.2842 22.5957C44.6001 25.1015 44.2389 27.9146 44.2746 31.0894C44.4586 47.4598 57.1983 40.91 57.8461 35.2079C58.5513 29 52.6991 26.3124 45.2842 22.5957ZM45.2842 22.5957C39.4173 19.655 32.4998 18.8203 26.0663 19.7621C13.7986 21.558 3.00857 32.977 3.00857 32.977M11.0718 32.575L1 35.8203L1.85404 23.1398" stroke="#2C2C2C" stroke-linecap="round" stroke-linejoin="round"/>
</svg>
