<svg width="206" height="105" viewBox="0 0 206 105" fill="none" xmlns="http://www.w3.org/2000/svg">
<rect x="93.1499" y="76.4082" width="101.246" height="23.0897" transform="rotate(-9.59682 93.1499 76.4082)" fill="white"/>
<rect x="90.2593" y="47.3113" width="95.8181" height="23.0897" transform="rotate(-9.59682 90.2593 47.3113)" fill="white"/>
<path d="M99.5037 50.778C99.4011 50.5713 99.3159 50.388 99.2481 50.2281C99.1908 50.0531 99.1568 49.8607 99.1463 49.651C99.1478 49.5847 99.1482 49.5119 99.1475 49.4327C99.1596 49.3512 99.1814 49.2879 99.2131 49.2426C99.2554 49.1823 99.3138 49.1389 99.3885 49.1125C99.4609 49.0733 99.5658 49.068 99.703 49.0967C99.7868 49.1216 99.8761 49.1786 99.9712 49.2676C100.064 49.3438 100.147 49.4415 100.221 49.5607C100.308 49.6776 100.381 49.7904 100.439 49.899C100.498 50.0076 100.541 50.0993 100.567 50.174C100.877 49.9077 101.226 49.6347 101.613 49.355C101.998 49.0623 102.402 48.806 102.826 48.5858C103.26 48.3505 103.703 48.1601 104.153 48.0146C104.601 47.8562 105.041 47.7654 105.473 47.7421C105.617 47.73 105.784 47.7403 105.975 47.7727C106.176 47.7901 106.363 47.8365 106.535 47.912C106.717 47.9723 106.872 48.064 107 48.187C107.138 48.2948 107.21 48.4408 107.216 48.6248C107.277 48.9711 107.263 49.3437 107.175 49.7427C107.099 50.1394 106.979 50.5441 106.814 50.9566C106.648 51.3692 106.45 51.781 106.218 52.1921C106 52.6008 105.777 52.9904 105.552 53.3607C105.337 53.7159 105.13 54.0433 104.932 54.3427C104.733 54.6421 104.585 54.8865 104.486 55.0758C104.892 54.8322 105.38 54.6007 105.95 54.3813C106.517 54.1491 107.086 54.0024 107.657 53.9414C108.241 53.8781 108.779 53.9288 109.271 54.0933C109.775 54.2555 110.153 54.5987 110.404 55.123C110.502 55.4496 110.504 55.8392 110.412 56.2918C110.318 56.7315 110.156 57.2029 109.928 57.706C109.699 58.209 109.414 58.7287 109.072 59.2649C108.741 59.7861 108.382 60.2989 107.995 60.8035C107.62 61.3058 107.234 61.7772 106.836 62.2176C106.438 62.658 106.063 63.048 105.713 63.3873C105.374 63.7116 105.069 63.9703 104.799 64.1634C104.527 64.3436 104.324 64.4322 104.191 64.4292L103.594 63.7412C103.661 63.7427 103.848 63.6039 104.155 63.3249C104.461 63.033 104.819 62.6657 105.23 62.223C105.652 61.7653 106.098 61.2569 106.568 60.6981C107.036 60.1264 107.465 59.5615 107.856 59.0034C108.259 58.443 108.589 57.9155 108.846 57.4207C109.1 56.9131 109.224 56.4881 109.216 56.1456C109.201 55.6855 109.023 55.3864 108.681 55.2483C108.35 55.0952 107.928 55.0638 107.415 55.1543C106.902 55.2447 106.347 55.4351 105.751 55.7254C105.152 56.0029 104.595 56.3324 104.081 56.714C103.564 57.0828 103.126 57.484 102.766 57.9177C102.406 58.3513 102.209 58.7695 102.174 59.1723C102.193 59.5789 102.233 59.9949 102.295 60.4203C102.356 60.8457 102.419 61.2775 102.483 61.7158C102.558 62.1389 102.626 62.5632 102.688 62.9887C102.763 63.4118 102.808 63.8203 102.825 64.214C102.836 64.5029 102.819 64.7439 102.774 64.937C102.741 65.1278 102.567 65.2247 102.25 65.2277C102.224 65.2322 102.178 65.2337 102.112 65.2322C102.045 65.2307 102.011 65.2235 102.009 65.2107L99.5037 50.778ZM100.942 52.0714C100.948 52.3346 100.974 52.6673 101.018 53.0693C101.076 53.4691 101.142 53.8805 101.216 54.3037C101.291 54.7269 101.376 55.1349 101.472 55.5279C101.58 55.9187 101.69 56.243 101.802 56.501C101.999 56.268 102.265 55.9433 102.602 55.527C102.951 55.1084 103.313 54.648 103.687 54.1457C104.072 53.6283 104.44 53.0939 104.793 52.5426C105.145 51.9913 105.424 51.4727 105.629 50.987C105.845 50.4862 105.96 50.0495 105.973 49.6769C105.985 49.2914 105.843 49.0123 105.548 48.8396C105.313 48.8546 105.031 48.9044 104.702 48.9888C104.383 49.0582 104.051 49.163 103.706 49.3032C103.358 49.4306 103.016 49.5901 102.68 49.7816C102.343 49.9732 102.045 50.1911 101.784 50.4355C101.52 50.667 101.308 50.9227 101.145 51.2025C100.996 51.48 100.928 51.7697 100.942 52.0714ZM111.778 51.192C111.848 51.1399 111.932 51.0921 112.03 51.0483C112.128 51.0046 112.222 50.9748 112.312 50.959C112.414 50.9409 112.514 50.9432 112.61 50.9658C112.707 50.9885 112.79 51.0465 112.859 51.1401C113.006 51.9736 113.172 52.8765 113.357 53.8488C113.552 54.806 113.751 55.7824 113.953 56.7781C114.165 57.7587 114.369 58.7276 114.564 59.6848C114.76 60.642 114.942 61.5286 115.113 62.3448C115.159 62.5349 115.134 62.6914 115.037 62.8143C114.939 62.9373 114.82 63.0112 114.679 63.036C114.551 63.0586 114.42 63.0288 114.287 62.9466C114.155 62.8772 114.072 62.7399 114.036 62.5347L111.778 51.192ZM110.855 47.3088C110.826 47.1421 110.864 47.023 110.97 46.9513C111.075 46.8669 111.197 46.8122 111.338 46.7873C111.62 46.7376 111.81 46.8032 111.908 46.9843C112.017 47.1502 112.093 47.355 112.136 47.5987C112.086 47.7661 112.003 47.8932 111.886 47.9799C111.769 48.0666 111.636 48.1032 111.488 48.0896C111.353 48.0737 111.222 48.0043 111.095 47.8814C110.98 47.7561 110.9 47.5653 110.855 47.3088ZM119.147 67.2064C120.087 66.9878 120.859 66.6401 121.462 66.1635C122.068 65.6997 122.538 65.1409 122.872 64.487C123.206 63.8331 123.415 63.1022 123.497 62.2944C123.579 61.4866 123.573 60.6282 123.479 59.7193C123.416 59.1355 123.346 58.6256 123.269 58.1896C123.203 57.7385 123.125 57.3357 123.036 56.9812C122.958 56.6116 122.876 56.2623 122.792 55.9335C122.707 55.6046 122.621 55.2629 122.532 54.9084C122.443 54.5538 122.349 54.1737 122.251 53.7679C122.164 53.347 122.073 52.8672 121.978 52.3287C121.681 54.2452 121.361 55.8024 121.016 57.0001C120.672 58.1979 120.313 59.1207 119.938 59.7686C119.576 60.4142 119.212 60.8286 118.848 61.0118C118.497 61.1928 118.166 61.2312 117.857 61.1271C117.545 61.0101 117.268 60.788 117.025 60.4606C116.78 60.1204 116.592 59.7636 116.46 59.3902C116.372 58.7445 116.37 58.0178 116.452 57.2099C116.532 56.3893 116.686 55.5755 116.914 54.7684C117.14 53.9485 117.433 53.1762 117.795 52.4514C118.154 51.7138 118.575 51.104 119.059 50.6221C119.542 50.1402 120.068 49.8227 120.636 49.6696C121.217 49.5143 121.842 49.6091 122.511 49.9539C122.521 49.9388 122.559 50.0776 122.624 50.3703C122.702 50.6607 122.797 51.0537 122.911 51.5492C123.038 52.0426 123.173 52.6204 123.316 53.2826C123.47 53.9298 123.629 54.6091 123.794 55.3204C123.959 56.0317 124.118 56.7441 124.27 57.4577C124.435 58.169 124.591 58.829 124.738 59.4377C124.962 60.628 124.975 61.756 124.78 62.8218C124.584 63.8876 124.233 64.8221 123.727 65.6253C123.234 66.4263 122.611 67.0583 121.86 67.5213C121.122 67.982 120.315 68.2037 119.439 68.1862C119.4 68.193 119.332 68.1787 119.233 68.1432C119.147 68.1055 119.07 68.0462 119.003 67.9655C118.949 67.8826 118.923 67.7747 118.926 67.6419C118.932 67.522 119.005 67.3768 119.147 67.2064ZM117.483 59.2297C117.705 59.6664 117.932 59.8645 118.163 59.8238C118.391 59.7702 118.618 59.5583 118.844 59.188C119.08 58.8026 119.309 58.2995 119.53 57.6788C119.751 57.058 119.963 56.386 120.166 55.6627C120.379 54.9243 120.579 54.1817 120.765 53.435C120.948 52.6755 121.122 51.977 121.288 51.3397C121.261 51.1858 121.197 51.0516 121.098 50.9369C121.009 50.8071 120.847 50.7894 120.612 50.8837C120.228 51.0307 119.872 51.2984 119.544 51.6868C119.226 52.0601 118.941 52.5006 118.686 53.0082C118.43 53.503 118.208 54.0445 118.021 54.6328C117.844 55.206 117.707 55.7789 117.61 56.3514C117.51 56.911 117.446 57.4447 117.416 57.9523C117.399 58.4577 117.422 58.8834 117.483 59.2297ZM129.242 60.2104C128.718 60.2368 128.258 60.1062 127.864 59.8188C127.482 59.5291 127.151 59.1511 126.871 58.685C126.59 58.2188 126.366 57.6964 126.198 57.1178C126.04 56.5242 125.923 55.9366 125.847 55.3551C125.73 54.4635 125.741 53.5889 125.88 52.7313C126.033 51.8715 126.269 51.1093 126.588 50.4448C126.917 49.7653 127.311 49.22 127.767 48.809C128.234 48.3829 128.724 48.1642 129.238 48.1529C129.777 48.1372 130.244 48.3126 130.64 48.6792C131.048 49.0436 131.396 49.5177 131.684 50.1016C131.972 50.6854 132.199 51.3394 132.367 52.0635C132.532 52.7749 132.648 53.4684 132.714 54.1443C132.783 54.9121 132.741 55.6468 132.587 56.3482C132.433 57.0497 132.193 57.6738 131.866 58.2206C131.552 58.7652 131.162 59.2173 130.697 59.577C130.242 59.9217 129.757 60.1328 129.242 60.2104ZM129.239 49.2832C128.807 49.3065 128.433 49.5113 128.118 49.8974C127.813 50.2685 127.559 50.7429 127.357 51.3206C127.165 51.8833 127.032 52.515 126.957 53.2157C126.88 53.9036 126.866 54.5738 126.915 55.2262C126.945 55.6969 127.01 56.1747 127.108 56.6598C127.207 57.1448 127.343 57.577 127.516 57.9564C127.701 58.3336 127.932 58.63 128.208 58.8458C128.495 59.0465 128.837 59.1118 129.234 59.0417C129.557 58.998 129.871 58.8302 130.177 58.5383C130.495 58.2442 130.774 57.8777 131.014 57.4387C131.252 56.9869 131.442 56.4906 131.584 55.9498C131.74 55.4068 131.81 54.8656 131.794 54.3263C131.787 53.7591 131.706 53.1915 131.553 52.6235C131.411 52.0404 131.218 51.5124 130.976 51.0394C130.747 50.5642 130.479 50.1685 130.172 49.8525C129.876 49.5213 129.565 49.3315 129.239 49.2832ZM138.991 46.8695C138.991 46.7903 139.014 46.7001 139.063 46.5991C139.121 46.4829 139.199 46.3966 139.295 46.34C139.403 46.2812 139.528 46.2789 139.67 46.3333C139.823 46.3725 139.991 46.5015 140.175 46.7203C140.298 47.7167 140.408 48.7154 140.505 49.7163C140.612 50.7022 140.751 51.676 140.921 52.6377C141.101 53.5843 141.331 54.5155 141.612 55.4312C141.905 56.3447 142.29 57.2156 142.766 58.0438C142.795 58.1313 142.777 58.2139 142.711 58.2916C142.648 58.3821 142.554 58.4515 142.43 58.4998C142.309 58.5608 142.183 58.5963 142.052 58.6061C141.922 58.6158 141.809 58.5762 141.714 58.4872L140.475 55.3938C140.453 55.5695 140.348 55.8391 140.161 56.2027C139.987 56.5639 139.769 56.9395 139.507 57.3295C139.256 57.7043 138.986 58.0494 138.698 58.3646C138.407 58.667 138.141 58.8461 137.9 58.9019C137.304 59.0466 136.792 58.9187 136.365 58.5181C135.937 58.1176 135.574 57.5601 135.277 56.8458C134.989 56.1163 134.751 55.2923 134.563 54.3735C134.375 53.4548 134.216 52.5572 134.088 51.6807C133.96 50.8042 133.853 50.0099 133.767 49.2979C133.681 48.5858 133.59 48.0665 133.492 47.7399C133.513 47.6305 133.563 47.5423 133.644 47.4752C133.738 47.4058 133.842 47.3609 133.958 47.3406C134.073 47.3202 134.186 47.3266 134.298 47.3598C134.423 47.3908 134.519 47.453 134.589 47.5466C134.691 47.978 134.794 48.5219 134.896 49.1781C134.999 49.8343 135.109 50.5355 135.228 51.2815C135.344 52.0146 135.474 52.752 135.618 53.4934C135.774 54.2326 135.946 54.9032 136.131 55.5052C136.314 56.0943 136.519 56.5804 136.745 56.9636C136.982 57.3318 137.252 57.5155 137.556 57.5147C137.774 57.4763 137.98 57.3673 138.173 57.1879C138.366 57.0084 138.552 56.7904 138.732 56.534C138.909 56.2647 139.07 55.9785 139.215 55.6753C139.358 55.3593 139.477 55.0606 139.573 54.7793C139.666 54.4851 139.739 54.2211 139.79 53.9873C139.842 53.7535 139.863 53.5777 139.856 53.4601C139.842 53.3039 139.818 53.0569 139.785 52.719C139.749 52.3682 139.701 51.9802 139.639 51.5547C139.588 51.1142 139.526 50.6492 139.452 50.1597C139.392 49.6679 139.331 49.2093 139.269 48.7839C139.218 48.3434 139.163 47.9564 139.104 47.623C139.056 47.2745 139.018 47.0233 138.991 46.8695ZM149.27 52.9504C149.185 53.2959 149.039 53.7051 148.832 54.178C148.624 54.6509 148.367 55.106 148.061 55.5435C147.755 55.9809 147.401 56.3738 147 56.7223C146.609 57.0556 146.176 57.2641 145.702 57.3478C145.497 57.3839 145.325 57.3877 145.188 57.359C145.064 57.3281 144.942 57.2767 144.824 57.2051C144.716 57.1183 144.611 57.0112 144.509 56.8837C144.408 56.7562 144.283 56.6129 144.136 56.4537C143.908 55.8329 143.718 55.1325 143.567 54.3526C143.429 53.5704 143.354 52.7705 143.342 51.9528C143.343 51.1329 143.415 50.3402 143.558 49.5746C143.711 48.794 143.96 48.1088 144.306 47.519C144.664 46.9269 145.132 46.4676 145.709 46.1411C146.297 45.7995 147.018 45.6525 147.872 45.7001C147.807 44.8787 147.671 44.0697 147.464 43.2732C147.255 42.4638 147.054 41.6201 146.859 40.7421C146.837 40.6139 146.879 40.514 146.985 40.4423C147.089 40.3579 147.21 40.2968 147.349 40.2591C147.499 40.2063 147.639 40.175 147.769 40.1652C147.912 40.1532 148.007 40.163 148.052 40.1947C148.243 41.351 148.416 42.4112 148.573 43.3752C148.743 44.3369 148.903 45.2473 149.055 46.1065C149.204 46.9528 149.349 47.7735 149.489 48.5685C149.629 49.3635 149.773 50.1778 149.919 51.0113C150.079 51.8425 150.241 52.7198 150.403 53.643C150.579 54.564 150.764 55.5759 150.958 56.6787C151.059 56.8726 151.07 57.0491 150.992 57.2082C150.927 57.3651 150.828 57.4752 150.694 57.5385C150.559 57.6019 150.408 57.6086 150.241 57.5588C150.086 57.5068 149.971 57.3751 149.894 57.1639L149.27 52.9504ZM147.251 46.9005C146.75 46.9095 146.312 47.1255 145.937 47.5486C145.573 47.9566 145.276 48.4849 145.047 49.1336C144.815 49.7694 144.655 50.472 144.566 51.2413C144.474 51.9979 144.456 52.7216 144.512 53.4125C144.578 54.0884 144.717 54.6854 144.927 55.2036C145.137 55.7218 145.427 56.0541 145.797 56.2005C146.118 56.144 146.413 55.9796 146.682 55.7073C146.949 55.4223 147.187 55.0829 147.395 54.6892C147.616 54.2932 147.804 53.8633 147.961 53.3994C148.127 52.9205 148.264 52.46 148.372 52.018C148.479 51.576 148.548 51.1804 148.579 50.8312C148.62 50.4669 148.625 50.195 148.594 50.0155C148.569 49.8744 148.525 49.6244 148.461 49.2653C148.398 48.9063 148.308 48.5453 148.191 48.1825C148.087 47.8174 147.952 47.504 147.787 47.2422C147.635 46.9782 147.456 46.8643 147.251 46.9005ZM152.732 50.8526C152.655 50.9454 152.501 51.0057 152.268 51.0336C152.045 51.0464 151.831 51.0312 151.625 50.9882C151.432 50.9429 151.292 50.8618 151.205 50.7449C151.116 50.6152 151.165 50.4413 151.351 50.2233C151.427 50.1306 151.515 50.0623 151.613 50.0186C151.721 49.9598 151.825 49.9085 151.923 49.8648C152.031 49.8059 152.112 49.7388 152.165 49.6634C152.23 49.5857 152.257 49.4752 152.245 49.3319C152.156 48.7526 152.097 48.1548 152.068 47.5386C152.051 46.9201 152.117 46.3533 152.264 45.8381C152.411 45.323 152.671 44.887 153.045 44.5303C153.431 44.1713 153.982 43.9617 154.699 43.9015C154.955 43.8562 155.255 43.8695 155.598 43.9412C155.939 44.0001 156.275 44.1061 156.606 44.2593C156.935 44.3996 157.234 44.5916 157.501 44.8353C157.767 45.0661 157.953 45.3373 158.061 45.6488C158.174 45.7612 158.151 45.9306 157.992 46.1568C157.834 46.3831 157.603 46.6486 157.3 46.9532C156.994 47.2451 156.645 47.5513 156.252 47.8718C155.859 48.1923 155.476 48.4978 155.104 48.7881C154.745 49.0762 154.427 49.3307 154.148 49.5517C153.87 49.7726 153.691 49.9231 153.613 50.003C153.778 50.4896 153.954 51.0006 154.141 51.5362C154.328 52.0717 154.546 52.5556 154.794 52.9879C155.042 53.4201 155.315 53.7686 155.613 54.0334C155.921 54.2831 156.268 54.3741 156.653 54.3062C157.224 54.2452 157.69 54.0771 158.051 53.8018C158.425 53.5243 158.718 53.1951 158.928 52.8142C159.139 52.4333 159.286 52.0306 159.369 51.6059C159.466 51.179 159.521 50.7792 159.535 50.4066C159.561 50.0318 159.566 49.7203 159.549 49.4721C159.542 49.2088 159.549 49.0621 159.57 49.032C159.698 48.9302 159.858 48.9019 160.051 48.9472C160.242 48.9796 160.377 49.1475 160.457 49.4507C160.558 49.9486 160.55 50.5384 160.432 51.2203C160.314 51.9021 160.098 52.5485 159.782 53.1594C159.48 53.7681 159.076 54.2888 158.57 54.7217C158.075 55.1395 157.505 55.3525 156.858 55.3607C156.202 55.4632 155.65 55.3689 155.202 55.0776C154.752 54.7736 154.366 54.3855 154.045 53.9133C153.734 53.426 153.476 52.9028 153.272 52.3439C153.068 51.7849 152.888 51.2878 152.732 50.8526ZM157.042 45.8286C156.532 45.3367 156.052 45.0512 155.602 44.9719C155.151 44.8926 154.707 44.9246 154.27 45.0679C154.007 45.1538 153.793 45.3239 153.626 45.5781C153.457 45.8194 153.338 46.1181 153.268 46.4741C153.197 46.8173 153.171 47.1986 153.192 47.6179C153.211 48.0245 153.277 48.436 153.39 48.8524L157.042 45.8286ZM154.347 42.6942C154.179 42.5652 153.982 42.4215 153.756 42.263C153.54 42.0895 153.323 41.9096 153.105 41.7233C152.887 41.5369 152.688 41.3472 152.509 41.1541C152.342 40.9587 152.237 40.7724 152.192 40.5951C152.007 40.4427 151.943 40.2689 152.001 40.0735C152.072 39.8759 152.265 39.736 152.581 39.6538C152.933 39.9224 153.28 40.2049 153.623 40.5014C153.979 40.7956 154.261 41.083 154.47 41.3637C154.688 41.6292 154.805 41.8796 154.82 42.115C154.835 42.3503 154.678 42.5434 154.347 42.6942ZM161.006 42.8687C160.996 42.7382 161.029 42.6266 161.106 42.5338C161.182 42.441 161.276 42.3781 161.39 42.3449C161.501 42.2989 161.618 42.2914 161.743 42.3223C161.865 42.3404 161.972 42.3876 162.065 42.4638L163.364 50.1678C163.445 49.2015 163.502 48.2527 163.536 47.3211C163.581 46.3745 163.686 45.5098 163.852 44.7269C164.016 43.9311 164.281 43.2565 164.646 42.7029C165.009 42.1365 165.556 41.7556 166.289 41.5604C166.679 41.4518 167.047 41.5126 167.392 41.7427C167.734 41.96 168.05 42.2877 168.339 42.726C168.64 43.162 168.918 43.6882 169.172 44.3044C169.424 44.9079 169.65 45.5491 169.849 46.2279C170.058 46.8917 170.243 47.5665 170.404 48.2521C170.564 48.9378 170.703 49.5744 170.82 50.162C170.937 50.7496 171.028 51.2689 171.095 51.72C171.174 52.1688 171.225 52.4969 171.248 52.7044C171.197 52.9382 171.062 53.1075 170.842 53.2123C170.638 53.3277 170.423 53.273 170.198 53.0482C170.143 52.8068 170.063 52.3912 169.959 51.8013C169.853 51.1986 169.719 50.5149 169.557 49.75C169.409 48.9829 169.229 48.1882 169.018 47.366C168.818 46.5288 168.585 45.7699 168.319 45.0895C168.064 44.3941 167.773 43.8306 167.446 43.3991C167.129 42.9525 166.779 42.7299 166.396 42.7314C166.066 42.7366 165.783 42.9651 165.545 43.4169C165.32 43.8664 165.125 44.4431 164.958 45.1468C164.804 45.8482 164.677 46.6308 164.578 47.4944C164.492 48.3558 164.423 49.2009 164.371 50.0299C164.332 50.8566 164.307 51.6146 164.296 52.304C164.285 52.9934 164.292 53.521 164.317 53.8869C164.297 53.9962 164.235 54.0931 164.131 54.1776C164.026 54.2621 163.904 54.3167 163.763 54.3416C163.637 54.377 163.499 54.3816 163.349 54.3551C163.211 54.3264 163.098 54.2472 163.009 54.1175L161.006 42.8687ZM172.839 47.3071C172.763 47.3998 172.608 47.4601 172.375 47.488C172.153 47.5008 171.939 47.4857 171.733 47.4427C171.54 47.3974 171.4 47.3163 171.313 47.1994C171.224 47.0696 171.273 46.8958 171.459 46.6778C171.535 46.585 171.622 46.5168 171.72 46.473C171.829 46.4142 171.932 46.363 172.03 46.3192C172.139 46.2604 172.22 46.1933 172.273 46.1179C172.338 46.0402 172.365 45.9297 172.353 45.7864C172.264 45.2071 172.205 44.6093 172.176 43.9931C172.159 43.3745 172.224 42.8077 172.372 42.2926C172.519 41.7774 172.779 41.3415 173.152 40.9848C173.539 40.6258 174.09 40.4162 174.807 40.3559C175.063 40.3107 175.363 40.3239 175.706 40.3956C176.047 40.4545 176.383 40.5605 176.714 40.7137C177.043 40.8541 177.341 41.0461 177.609 41.2897C177.875 41.5206 178.061 41.7918 178.169 42.1033C178.281 42.2157 178.258 42.385 178.1 42.6113C177.941 42.8375 177.711 43.103 177.407 43.4077C177.102 43.6996 176.753 44.0058 176.36 44.3263C175.967 44.6468 175.584 44.9522 175.212 45.2426C174.853 45.5306 174.534 45.7852 174.256 46.0061C173.978 46.2271 173.799 46.3775 173.721 46.4575C173.886 46.944 174.062 47.4551 174.249 47.9906C174.436 48.5262 174.653 49.0101 174.902 49.4423C175.15 49.8746 175.423 50.2231 175.721 50.4879C176.029 50.7376 176.376 50.8285 176.76 50.7607C177.331 50.6997 177.797 50.5315 178.159 50.2563C178.533 49.9787 178.825 49.6495 179.036 49.2687C179.246 48.8878 179.393 48.485 179.477 48.0604C179.574 47.6335 179.629 47.2337 179.643 46.8611C179.669 46.4862 179.674 46.1747 179.656 45.9265C179.65 45.6633 179.657 45.5166 179.678 45.4864C179.805 45.3846 179.966 45.3564 180.159 45.4016C180.35 45.4341 180.485 45.6019 180.565 45.9052C180.666 46.403 180.657 46.9929 180.54 47.6747C180.422 48.3566 180.205 49.0029 179.89 49.6139C179.587 50.2225 179.183 50.7433 178.678 51.1762C178.183 51.594 177.613 51.807 176.966 51.8152C176.31 51.9177 175.758 51.8233 175.31 51.5321C174.859 51.2281 174.474 50.8399 174.152 50.3677C173.842 49.8804 173.584 49.3573 173.38 48.7983C173.176 48.2394 172.995 47.7423 172.839 47.3071ZM177.15 42.283C176.64 41.7912 176.16 41.5056 175.709 41.4264C175.259 41.3471 174.815 41.3791 174.378 41.5223C174.115 41.6083 173.901 41.7784 173.734 42.0325C173.565 42.2739 173.446 42.5725 173.376 42.9286C173.305 43.2717 173.279 43.653 173.3 44.0724C173.319 44.479 173.385 44.8904 173.498 45.3068L177.15 42.283ZM110.749 92.7996C110.522 92.562 110.344 92.2297 110.216 91.8028C110.101 91.3736 109.995 90.9229 109.898 90.4507C109.812 89.9634 109.729 89.489 109.647 89.0273C109.577 88.5506 109.473 88.1523 109.338 87.8325C108.968 89.2596 108.579 90.3924 108.172 91.2311C107.775 92.0547 107.38 92.6664 106.988 93.0661C106.606 93.4507 106.234 93.6619 105.87 93.6995C105.504 93.7244 105.174 93.6504 104.879 93.4777C104.595 93.2898 104.354 93.048 104.156 92.7523C103.956 92.4438 103.824 92.1432 103.759 91.8505C103.583 91.3791 103.474 90.7968 103.431 90.1036C103.399 89.3953 103.421 88.6576 103.497 87.8905C103.586 87.1212 103.73 86.362 103.929 85.6131C104.138 84.849 104.402 84.1743 104.722 83.5891C105.055 83.0015 105.437 82.5441 105.868 82.2168C106.297 81.8767 106.783 81.7448 107.326 81.821C107.578 81.7502 107.791 81.7257 107.967 81.7476C108.153 81.7544 108.317 81.8181 108.457 81.9388C108.597 82.0596 108.716 82.2436 108.812 82.491C108.906 82.7256 109 83.033 109.094 83.4132C109.287 84.6615 109.506 85.7138 109.75 86.5699C110.006 87.4238 110.257 88.1728 110.503 88.817C110.749 89.4612 110.977 90.0424 111.187 90.5606C111.41 91.0766 111.585 91.6208 111.713 92.1933C111.749 92.3985 111.726 92.5678 111.644 92.7013C111.559 92.822 111.455 92.9064 111.331 92.9547C111.21 93.0158 111.087 93.0309 110.963 92.9999C110.851 92.9667 110.78 92.8999 110.749 92.7996ZM107.92 83.2829C107.54 82.9268 107.176 82.8125 106.829 82.9399C106.481 83.0673 106.162 83.3551 105.87 83.8031C105.59 84.236 105.343 84.7884 105.131 85.4605C104.917 86.1197 104.755 86.8159 104.647 87.549C104.538 88.2821 104.487 89.0051 104.494 89.7179C104.511 90.4156 104.598 91.0217 104.755 91.5361C105.036 92.0815 105.315 92.3893 105.592 92.4595C105.869 92.5297 106.138 92.4426 106.399 92.1982C106.657 91.9411 106.902 91.5674 107.133 91.0771C107.364 90.5869 107.576 90.0668 107.77 89.517C107.962 88.9543 108.123 88.4037 108.252 87.8652C108.393 87.3116 108.503 86.8492 108.583 86.4781L107.92 83.2829ZM105.935 81.1341C105.767 81.0051 105.57 80.8613 105.343 80.7029C105.128 80.5294 104.911 80.3495 104.693 80.1631C104.475 79.9768 104.276 79.7871 104.097 79.5939C103.93 79.3986 103.825 79.2122 103.78 79.035C103.595 78.8826 103.531 78.7087 103.589 78.5134C103.66 78.3158 103.853 78.1759 104.169 78.0937C104.521 78.3623 104.868 78.6448 105.211 78.9413C105.567 79.2355 105.849 79.5229 106.058 79.8035C106.276 80.0691 106.393 80.3195 106.408 80.5548C106.423 80.7902 106.266 80.9833 105.935 81.1341ZM121.618 74.541C121.686 74.4761 121.754 74.4113 121.822 74.3464C121.901 74.2665 121.984 74.2122 122.071 74.1835C122.156 74.1421 122.234 74.1349 122.305 74.1621C122.389 74.187 122.468 74.259 122.542 74.3782L125.455 90.2263C125.414 90.3659 125.345 90.4639 125.249 90.5205C125.156 90.5899 125.055 90.6208 124.948 90.6132C124.843 90.6185 124.74 90.597 124.639 90.5487C124.551 90.4981 124.486 90.4302 124.445 90.345L121.618 74.541ZM134.188 88.6667C133.961 88.429 133.783 88.0967 133.655 87.6698C133.54 87.2406 133.434 86.7899 133.338 86.3177C133.252 85.8304 133.168 85.356 133.087 84.8944C133.016 84.4177 132.912 84.0194 132.777 83.6995C132.407 85.1266 132.018 86.2595 131.611 87.0982C131.214 87.9218 130.819 88.5334 130.427 88.9331C130.045 89.3178 129.673 89.5289 129.309 89.5666C128.943 89.5914 128.613 89.5175 128.318 89.3447C128.034 89.1568 127.793 88.9151 127.595 88.6194C127.395 88.3108 127.263 88.0102 127.198 87.7176C127.023 87.2461 126.913 86.6638 126.87 85.9706C126.838 85.2623 126.86 84.5247 126.936 83.7576C127.025 82.9882 127.169 82.2291 127.368 81.4801C127.577 80.716 127.841 80.0414 128.161 79.4561C128.494 78.8686 128.876 78.4112 129.307 78.0839C129.737 77.7437 130.222 77.6118 130.765 77.6881C131.017 77.6172 131.231 77.5927 131.406 77.6146C131.593 77.6214 131.756 77.6852 131.896 77.8059C132.036 77.9266 132.155 78.1107 132.251 78.3581C132.346 78.5927 132.439 78.9 132.533 79.2802C132.727 80.5286 132.945 81.5808 133.189 82.4369C133.445 83.2908 133.696 84.0399 133.942 84.684C134.188 85.3282 134.416 85.9094 134.626 86.4276C134.849 86.9436 135.025 87.4878 135.152 88.0604C135.188 88.2655 135.165 88.4349 135.083 88.5683C134.999 88.689 134.894 88.7735 134.771 88.8217C134.649 88.8828 134.526 88.8979 134.402 88.8669C134.29 88.8337 134.219 88.767 134.188 88.6667ZM131.36 79.1499C130.98 78.7939 130.616 78.6795 130.268 78.807C129.92 78.9344 129.601 79.2221 129.309 79.6701C129.029 80.103 128.782 80.6555 128.57 81.3275C128.356 81.9867 128.195 82.6829 128.086 83.416C127.977 84.1492 127.926 84.8722 127.933 85.5849C127.95 86.2827 128.037 86.8887 128.194 87.4032C128.475 87.9485 128.754 88.2563 129.031 88.3265C129.308 88.3967 129.577 88.3096 129.838 88.0653C130.097 87.8081 130.341 87.4344 130.572 86.9441C130.803 86.4539 131.016 85.9338 131.209 85.384C131.401 84.8213 131.562 84.2707 131.692 83.7322C131.832 83.1786 131.942 82.7162 132.022 82.3451L131.36 79.1499ZM148.852 92.1498C148.687 90.5394 148.537 89.204 148.403 88.1434C148.269 87.0829 148.143 86.1796 148.024 85.4336C147.917 84.6726 147.805 84.0046 147.691 83.4299C147.576 82.8551 147.45 82.2494 147.311 81.6128C147.17 80.9633 147.007 80.2252 146.821 79.3985C146.646 78.5567 146.433 77.4969 146.181 76.2191C146.182 76.0736 146.212 75.9427 146.271 75.8266C146.327 75.6976 146.397 75.6059 146.48 75.5517C146.574 75.4823 146.683 75.4631 146.807 75.494C146.932 75.5249 147.067 75.62 147.214 75.7792L147.598 78.2898C147.934 77.6487 148.331 77.0499 148.788 76.4933C149.258 75.9345 149.743 75.459 150.242 75.0668C150.752 74.6596 151.26 74.3519 151.765 74.1438C152.268 73.9228 152.721 73.8298 153.124 73.8645C153.54 73.897 153.882 74.0747 154.15 74.3975C154.429 74.7053 154.593 75.1854 154.642 75.8379C154.69 76.4112 154.625 77.0508 154.445 77.7568C154.263 78.4499 154.011 79.1555 153.688 79.8735C153.375 80.5765 153.015 81.2681 152.606 81.9484C152.197 82.6287 151.788 83.2362 151.38 83.7709C150.972 84.3057 150.581 84.7514 150.208 85.1081C149.845 85.4497 149.542 85.642 149.298 85.685C149.317 85.8668 149.342 86.1202 149.373 86.4453C149.406 86.7832 149.446 87.1596 149.493 87.5745C149.542 88.0022 149.586 88.4438 149.627 88.8994C149.681 89.3527 149.731 89.7868 149.777 90.2017C149.824 90.6165 149.864 90.9929 149.897 91.3308C149.93 91.6688 149.962 91.9211 149.991 92.0878C149.938 92.1632 149.871 92.2345 149.791 92.3016C149.71 92.3687 149.619 92.4177 149.519 92.4486C149.419 92.4795 149.312 92.472 149.198 92.426C149.086 92.3927 148.971 92.3007 148.852 92.1498ZM149.009 84.6056C149.403 84.3643 149.85 83.9416 150.352 83.3375C150.851 82.7205 151.327 82.0086 151.78 81.2015C152.243 80.3794 152.638 79.5034 152.963 78.5734C153.288 77.6435 153.473 76.7448 153.519 75.8773C153.369 75.4806 153.149 75.2418 152.857 75.1611C152.565 75.0803 152.24 75.1112 151.882 75.2537C151.534 75.3811 151.165 75.6115 150.774 75.9448C150.381 76.2654 150.01 76.6349 149.66 77.0535C149.322 77.457 149.015 77.8944 148.742 78.3658C148.468 78.8372 148.27 79.2886 148.147 79.72L149.009 84.6056ZM155.39 68.5861C155.458 68.5212 155.526 68.4564 155.594 68.3915C155.673 68.3116 155.755 68.2573 155.843 68.2286C155.928 68.1872 156.006 68.18 156.077 68.2072C156.161 68.2321 156.24 68.3041 156.314 68.4233L159.227 84.2714C159.186 84.411 159.117 84.509 159.021 84.5656C158.928 84.635 158.827 84.6659 158.72 84.6583C158.615 84.6636 158.512 84.6421 158.411 84.5938C158.323 84.5432 158.258 84.4753 158.217 84.3901L155.39 68.5861ZM167.96 82.7117C167.733 82.4741 167.555 82.1418 167.427 81.7149C167.312 81.2857 167.206 80.835 167.11 80.3628C167.024 79.8755 166.94 79.4011 166.859 78.9395C166.788 78.4627 166.684 78.0645 166.549 77.7446C166.179 79.1717 165.79 80.3045 165.383 81.1432C164.986 81.9669 164.591 82.5785 164.199 82.9782C163.817 83.3629 163.445 83.574 163.081 83.6117C162.715 83.6365 162.385 83.5625 162.09 83.3898C161.806 83.2019 161.565 82.9601 161.367 82.6644C161.167 82.3559 161.035 82.0553 160.97 81.7626C160.795 81.2912 160.685 80.7089 160.642 80.0157C160.61 79.3074 160.632 78.5697 160.708 77.8027C160.797 77.0333 160.941 76.2741 161.14 75.5252C161.349 74.7611 161.613 74.0865 161.933 73.5012C162.266 72.9137 162.648 72.4562 163.079 72.1289C163.509 71.7888 163.994 71.6569 164.537 71.7332C164.789 71.6623 165.003 71.6378 165.178 71.6597C165.365 71.6665 165.528 71.7303 165.668 71.851C165.808 71.9717 165.927 72.1557 166.023 72.4032C166.118 72.6377 166.211 72.9451 166.305 73.3253C166.499 74.5737 166.717 75.6259 166.961 76.482C167.217 77.3359 167.468 78.0849 167.714 78.7291C167.96 79.3733 168.188 79.9545 168.398 80.4727C168.621 80.9887 168.797 81.5329 168.924 82.1054C168.96 82.3106 168.937 82.4799 168.855 82.6134C168.77 82.7341 168.666 82.8186 168.543 82.8668C168.421 82.9279 168.298 82.943 168.174 82.912C168.062 82.8788 167.991 82.8121 167.96 82.7117ZM165.132 73.195C164.752 72.8389 164.388 72.7246 164.04 72.8521C163.692 72.9795 163.373 73.2672 163.081 73.7152C162.801 74.1481 162.554 74.7006 162.342 75.3726C162.128 76.0318 161.967 76.728 161.858 77.4611C161.749 78.1943 161.698 78.9172 161.705 79.63C161.722 80.3277 161.809 80.9338 161.966 81.4483C162.247 81.9936 162.526 82.3014 162.803 82.3716C163.08 82.4418 163.349 82.3547 163.61 82.1104C163.869 81.8532 164.113 81.4795 164.344 80.9892C164.575 80.499 164.788 79.9789 164.981 79.4291C165.173 78.8664 165.334 78.3158 165.464 77.7773C165.604 77.2237 165.714 76.7613 165.794 76.3902L165.132 73.195ZM172.915 87.1729C173.855 86.9543 174.627 86.6067 175.23 86.1301C175.836 85.6663 176.306 85.1074 176.64 84.4535C176.975 83.7996 177.183 83.0687 177.265 82.2609C177.348 81.4531 177.342 80.5947 177.248 79.6858C177.184 79.102 177.114 78.5921 177.037 78.1561C176.971 77.7051 176.893 77.3023 176.804 76.9477C176.726 76.5781 176.645 76.2289 176.56 75.9C176.476 75.5711 176.389 75.2294 176.3 74.8749C176.211 74.5204 176.118 74.1402 176.02 73.7344C175.932 73.3135 175.841 72.8338 175.746 72.2952C175.449 74.2118 175.129 75.7689 174.785 76.9667C174.441 78.1644 174.081 79.0872 173.706 79.7351C173.344 80.3807 172.981 80.7952 172.616 80.9784C172.265 81.1594 171.935 81.1978 171.625 81.0937C171.314 80.9767 171.037 80.7545 170.794 80.4271C170.549 80.0869 170.36 79.7301 170.228 79.3567C170.141 78.7111 170.138 77.9843 170.221 77.1765C170.301 76.3559 170.455 75.542 170.683 74.735C170.908 73.9151 171.202 73.1428 171.563 72.418C171.922 71.6803 172.344 71.0705 172.827 70.5886C173.311 70.1067 173.837 69.7892 174.405 69.6362C174.985 69.4809 175.61 69.5757 176.279 69.9204C176.29 69.9054 176.328 70.0442 176.392 70.3368C176.47 70.6272 176.566 71.0202 176.68 71.5158C176.806 72.0091 176.941 72.5869 177.084 73.2492C177.238 73.8964 177.398 74.5756 177.563 75.2869C177.728 75.9982 177.886 76.7107 178.039 77.4242C178.204 78.1355 178.36 78.7956 178.507 79.4043C178.73 80.5946 178.744 81.7226 178.548 82.7883C178.353 83.8541 178.002 84.7886 177.496 85.5918C177.002 86.3928 176.38 87.0248 175.629 87.4878C174.89 87.9486 174.083 88.1702 173.207 88.1528C173.169 88.1596 173.1 88.1452 173.001 88.1098C172.915 88.072 172.839 88.0128 172.772 87.9321C172.717 87.8491 172.692 87.7412 172.695 87.6085C172.7 87.4886 172.774 87.3434 172.915 87.1729ZM171.251 79.1962C171.474 79.633 171.7 79.831 171.931 79.7903C172.16 79.7368 172.387 79.5249 172.612 79.1545C172.848 78.7691 173.077 78.2661 173.298 77.6453C173.519 77.0246 173.731 76.3526 173.934 75.6292C174.148 74.8908 174.347 74.1483 174.533 73.4016C174.716 72.642 174.891 71.9436 175.056 71.3063C175.029 71.1524 174.966 71.0181 174.866 70.9035C174.777 70.7737 174.615 70.756 174.381 70.8502C173.997 70.9972 173.641 71.265 173.312 71.6534C172.995 72.0267 172.709 72.4671 172.455 72.9747C172.198 73.4695 171.976 74.011 171.789 74.5994C171.613 75.1726 171.476 75.7454 171.378 76.3179C171.279 76.8776 171.214 77.4112 171.185 77.9188C171.168 78.4242 171.19 78.85 171.251 79.1962ZM180.483 75.4066C180.407 75.4994 180.252 75.5597 180.019 75.5875C179.797 75.6003 179.583 75.5852 179.377 75.5422C179.184 75.4969 179.044 75.4158 178.957 75.2989C178.868 75.1691 178.917 74.9953 179.103 74.7773C179.179 74.6846 179.266 74.6163 179.364 74.5726C179.473 74.5138 179.576 74.4625 179.674 74.4187C179.783 74.3599 179.864 74.2928 179.917 74.2174C179.982 74.1397 180.009 74.0292 179.997 73.8859C179.908 73.3066 179.849 72.7088 179.82 72.0926C179.803 71.4741 179.868 70.9072 180.016 70.3921C180.163 69.8769 180.423 69.441 180.796 69.0843C181.183 68.7253 181.734 68.5157 182.451 68.4554C182.707 68.4102 183.007 68.4235 183.35 68.4952C183.691 68.5541 184.027 68.6601 184.358 68.8132C184.687 68.9536 184.985 69.1456 185.253 69.3893C185.519 69.6201 185.705 69.8913 185.813 70.2028C185.925 70.3152 185.902 70.4846 185.744 70.7108C185.585 70.9371 185.355 71.2025 185.051 71.5072C184.746 71.7991 184.397 72.1053 184.004 72.4258C183.611 72.7463 183.228 73.0517 182.856 73.3421C182.497 73.6302 182.178 73.8847 181.9 74.1057C181.622 74.3266 181.443 74.4771 181.365 74.557C181.53 75.0435 181.706 75.5546 181.893 76.0902C182.08 76.6257 182.297 77.1096 182.546 77.5419C182.794 77.9741 183.067 78.3226 183.365 78.5874C183.673 78.8371 184.02 78.928 184.404 78.8602C184.975 78.7992 185.441 78.6311 185.803 78.3558C186.177 78.0783 186.469 77.7491 186.68 77.3682C186.89 76.9873 187.037 76.5845 187.121 76.1599C187.218 75.733 187.273 75.3332 187.287 74.9606C187.313 74.5858 187.318 74.2742 187.3 74.0261C187.294 73.7628 187.301 73.6161 187.322 73.586C187.449 73.4842 187.61 73.4559 187.803 73.5012C187.994 73.5336 188.129 73.7015 188.209 74.0047C188.31 74.5025 188.301 75.0924 188.184 75.7742C188.066 76.4561 187.849 77.1025 187.534 77.7134C187.231 78.3221 186.827 78.8428 186.322 79.2757C185.827 79.6935 185.257 79.9065 184.61 79.9147C183.954 80.0172 183.402 79.9228 182.954 79.6316C182.503 79.3276 182.118 78.9395 181.796 78.4672C181.486 77.9799 181.228 77.4568 181.024 76.8979C180.82 76.3389 180.639 75.8418 180.483 75.4066ZM184.794 70.3826C184.284 69.8907 183.804 69.6052 183.353 69.5259C182.903 69.4466 182.459 69.4786 182.022 69.6219C181.759 69.7078 181.545 69.8779 181.378 70.1321C181.209 70.3734 181.09 70.6721 181.02 71.0281C180.949 71.3713 180.923 71.7526 180.944 72.1719C180.963 72.5785 181.029 72.99 181.142 73.4063L184.794 70.3826Z" fill="#2C2C2C"/>
<path d="M116.5 22.3048C106.09 12.4085 87.4998 -0.678853 70.8464 1.17758C59.7887 2.41022 48.7409 9.93355 45.2842 22.5957M45.2842 22.5957C44.6001 25.1015 44.2389 27.9146 44.2746 31.0894C44.4586 47.4598 57.1983 40.91 57.8461 35.2079C58.5513 29 52.6991 26.3124 45.2842 22.5957ZM45.2842 22.5957C39.4173 19.655 32.4998 18.8203 26.0663 19.7621C13.7986 21.558 3.00857 32.977 3.00857 32.977M11.0718 32.575L1 35.8203L1.85404 23.1398" stroke="#2C2C2C" stroke-linecap="round" stroke-linejoin="round"/>
</svg>
