<svg width="206" height="105" viewBox="0 0 206 105" fill="none" xmlns="http://www.w3.org/2000/svg">
<rect x="89.2812" y="77.0623" width="107.56" height="23.0897" transform="rotate(-9.59682 89.2812 77.0623)" fill="white"/>
<rect x="74.8501" y="49.9167" width="126.394" height="23.0897" transform="rotate(-9.59682 74.8501 49.9167)" fill="white"/>
<path d="M94.0779 61.9306C93.7852 62.445 93.4189 62.9922 92.9791 63.5722C92.5393 64.1521 92.0531 64.694 91.5205 65.1978C90.9879 65.7016 90.4289 66.1307 89.8436 66.4851C89.2582 66.8396 88.6823 67.0601 88.1158 67.1468C87.5471 67.2206 86.9961 67.1327 86.4628 66.8829C85.9402 66.6181 85.4741 66.1119 85.0646 65.3644C84.7984 64.8295 84.6179 64.1805 84.5229 63.4171C84.4408 62.6515 84.4289 61.8339 84.4871 60.9642C84.5558 60.0794 84.694 59.1758 84.9016 58.2534C85.1197 57.3159 85.4034 56.413 85.7528 55.5449C86.1149 54.6745 86.5397 53.8592 87.0271 53.099C87.525 52.3236 88.0776 51.6709 88.6849 51.1407C89.3027 50.5955 89.9786 50.192 90.7125 49.9304C91.4442 49.6559 92.2313 49.5832 93.0738 49.7123C93.1764 49.6943 93.245 49.7086 93.2797 49.7554C93.3122 49.7893 93.3287 49.8459 93.3295 49.9251C93.3302 50.0043 93.3215 50.105 93.3034 50.2272C93.2981 50.3471 93.309 50.484 93.3362 50.6379C92.3775 50.6747 91.5021 50.9216 90.7101 51.3786C89.9157 51.8228 89.2063 52.4106 88.5816 53.1422C87.9698 53.8715 87.4489 54.7037 87.0188 55.639C86.5887 56.5742 86.2575 57.5449 86.025 58.5511C85.8054 59.555 85.6917 60.5601 85.684 61.5663C85.6741 62.5597 85.778 63.4867 85.9959 64.3473C86.1783 65.082 86.4856 65.5501 86.9178 65.7516C87.3477 65.9402 87.8316 65.9474 88.3694 65.7733C88.9178 65.584 89.4873 65.2522 90.078 64.7779C90.6664 64.2907 91.2156 63.7311 91.7256 63.0991C92.2461 62.452 92.6882 61.7724 93.0519 61.0604C93.4284 60.3462 93.666 59.6696 93.7649 59.0308L90.3027 59.6413C90.0629 59.4059 90.0075 59.2041 90.1365 59.0359C90.2655 58.8677 90.5114 58.7252 90.8742 58.6084C91.2476 58.4764 91.6972 58.3641 92.2229 58.2714C92.7487 58.1787 93.2895 58.0965 93.8454 58.025C94.0053 57.9571 94.2226 57.8395 94.4972 57.6721C94.7695 57.4918 95.0335 57.3395 95.2892 57.2151C95.5449 57.0906 95.7531 57.0341 95.9138 57.0454C96.0873 57.0545 96.14 57.2039 96.0721 57.4935C96.0638 57.5214 96.0268 57.5742 95.9612 57.6519C95.8933 57.7167 95.8137 57.7903 95.7225 57.8725C95.6417 57.9396 95.561 58.0067 95.4803 58.0738C95.4124 58.1387 95.3668 58.1798 95.3434 58.1971C95.1419 58.8541 95.0483 59.5978 95.0625 60.4283C95.0767 61.2587 95.1543 62.1111 95.2952 62.9853C95.4361 63.8595 95.6144 64.7205 95.83 65.5684C96.0584 66.414 96.285 67.1739 96.5097 67.8483L95.8228 68.2272C95.6607 68.0575 95.4861 67.7048 95.2991 67.1693C95.125 66.6314 94.9535 66.0336 94.7846 65.3759C94.6157 64.7181 94.4695 64.0762 94.3459 63.4502C94.22 62.8113 94.1307 62.3048 94.0779 61.9306ZM102.871 53.062C102.87 52.9828 102.894 52.8927 102.942 52.7916C103.001 52.6755 103.078 52.5891 103.174 52.5326C103.283 52.4737 103.408 52.4715 103.55 52.5258C103.702 52.5651 103.87 52.6941 104.054 52.9128C104.177 53.9093 104.287 54.9079 104.384 55.9089C104.492 56.8947 104.631 57.8685 104.8 58.8302C104.98 59.7769 105.211 60.7081 105.491 61.6238C105.784 62.5373 106.169 63.4081 106.646 64.2364C106.674 64.3239 106.656 64.4065 106.59 64.4842C106.527 64.5747 106.433 64.6441 106.31 64.6923C106.188 64.7534 106.062 64.7888 105.932 64.7986C105.801 64.8084 105.689 64.7688 105.594 64.6798L104.354 61.5863C104.332 61.7621 104.228 62.0317 104.04 62.3952C103.866 62.7565 103.648 63.1321 103.386 63.522C103.135 63.8969 102.865 64.2419 102.577 64.5572C102.287 64.8596 102.021 65.0387 101.78 65.0945C101.184 65.2392 100.672 65.1113 100.244 64.7107C99.8166 64.3101 99.4539 63.7527 99.156 63.0383C98.8688 62.3089 98.6309 61.4848 98.4425 60.5661C98.254 59.6473 98.0957 58.7497 97.9676 57.8732C97.8395 56.9968 97.7325 56.2025 97.6466 55.4904C97.5608 54.7784 97.4692 54.2591 97.3719 53.9324C97.3923 53.8231 97.4429 53.7348 97.5236 53.6677C97.6171 53.5983 97.7216 53.5535 97.837 53.5331C97.9524 53.5128 98.0659 53.5192 98.1776 53.5524C98.302 53.5833 98.3989 53.6456 98.4683 53.7391C98.5708 54.1706 98.6733 54.7144 98.7758 55.3707C98.8783 56.0269 98.9887 56.728 99.107 57.474C99.2231 58.2072 99.3531 58.9445 99.4971 59.686C99.6538 60.4252 99.825 61.0958 100.01 61.6977C100.194 62.2868 100.398 62.773 100.625 63.1562C100.861 63.5243 101.132 63.708 101.436 63.7073C101.654 63.6689 101.859 63.5599 102.052 63.3804C102.246 63.2009 102.432 62.983 102.611 62.7265C102.789 62.4573 102.95 62.1711 103.095 61.8679C103.237 61.5518 103.356 61.2532 103.452 60.9718C103.546 60.6777 103.618 60.4137 103.67 60.1799C103.721 59.946 103.743 59.7703 103.735 59.6526C103.721 59.4965 103.697 59.2495 103.664 58.9115C103.629 58.5608 103.58 58.1727 103.518 57.7473C103.467 57.3068 103.405 56.8418 103.332 56.3522C103.272 55.8604 103.211 55.4018 103.149 54.9764C103.098 54.5359 103.043 54.149 102.984 53.8156C102.936 53.4671 102.898 53.2159 102.871 53.062ZM114.747 62.4707C114.52 62.2331 114.343 61.9008 114.215 61.4739C114.099 61.0447 113.993 60.594 113.897 60.1218C113.811 59.6345 113.727 59.1601 113.646 58.6984C113.575 58.2217 113.472 57.8234 113.336 57.5036C112.966 58.9306 112.578 60.0635 112.17 60.9022C111.773 61.7258 111.379 62.3375 110.987 62.7372C110.605 63.1218 110.232 63.333 109.869 63.3706C109.503 63.3955 109.172 63.3215 108.878 63.1487C108.593 62.9609 108.352 62.7191 108.155 62.4234C107.955 62.1149 107.823 61.8143 107.758 61.5216C107.582 61.0502 107.473 60.4678 107.43 59.7747C107.398 59.0664 107.419 58.3287 107.496 57.5616C107.585 56.7923 107.729 56.0331 107.927 55.2841C108.136 54.5201 108.401 53.8454 108.721 53.2602C109.053 52.6726 109.435 52.2152 109.867 51.8879C110.296 51.5478 110.782 51.4159 111.324 51.4921C111.576 51.4212 111.79 51.3968 111.966 51.4187C112.152 51.4255 112.315 51.4892 112.456 51.6099C112.596 51.7306 112.714 51.9147 112.811 52.1621C112.905 52.3967 112.999 52.7041 113.092 53.0843C113.286 54.3326 113.505 55.3849 113.748 56.241C114.004 57.0949 114.256 57.8439 114.501 58.4881C114.747 59.1323 114.975 59.7135 115.186 60.2317C115.409 60.7477 115.584 61.2919 115.712 61.8644C115.748 62.0696 115.725 62.2389 115.642 62.3724C115.558 62.4931 115.454 62.5775 115.33 62.6258C115.209 62.6869 115.086 62.7019 114.961 62.671C114.85 62.6378 114.778 62.571 114.747 62.4707ZM111.919 52.954C111.539 52.5979 111.175 52.4836 110.827 52.611C110.48 52.7384 110.16 53.0262 109.869 53.4742C109.588 53.9071 109.342 54.4595 109.13 55.1316C108.916 55.7908 108.754 56.487 108.645 57.2201C108.537 57.9532 108.486 58.6762 108.492 59.389C108.51 60.0867 108.597 60.6928 108.753 61.2072C109.035 61.7526 109.314 62.0604 109.591 62.1306C109.867 62.2008 110.136 62.1137 110.397 61.8693C110.656 61.6122 110.901 61.2384 111.132 60.7482C111.363 60.2579 111.575 59.7379 111.769 59.1881C111.961 58.6254 112.121 58.0748 112.251 57.5363C112.391 56.9826 112.502 56.5203 112.582 56.1492L111.919 52.954ZM122.597 57.4771C122.513 57.8225 122.367 58.2317 122.159 58.7046C121.952 59.1775 121.695 59.6327 121.389 60.0701C121.082 60.5075 120.728 60.9005 120.327 61.2489C119.936 61.5822 119.504 61.7907 119.029 61.8744C118.824 61.9106 118.653 61.9143 118.516 61.8856C118.391 61.8547 118.27 61.8034 118.151 61.7317C118.043 61.6449 117.939 61.5378 117.837 61.4103C117.735 61.2828 117.611 61.1395 117.464 60.9803C117.235 60.3595 117.045 59.6592 116.895 58.8792C116.757 58.097 116.682 57.2971 116.67 56.4795C116.671 55.6596 116.743 54.8668 116.885 54.1013C117.038 53.3206 117.288 52.6354 117.633 52.0456C117.992 51.4535 118.459 50.9942 119.036 50.6677C119.624 50.3261 120.345 50.1791 121.2 50.2268C121.134 49.4053 120.998 48.5964 120.792 47.7998C120.583 46.9904 120.381 46.1468 120.187 45.2688C120.164 45.1405 120.206 45.0406 120.312 44.969C120.416 44.8845 120.538 44.8234 120.677 44.7857C120.826 44.7329 120.966 44.7017 121.097 44.6919C121.24 44.6798 121.334 44.6896 121.379 44.7213C121.57 45.8777 121.744 46.9378 121.9 47.9018C122.07 48.8635 122.231 49.774 122.382 50.6331C122.531 51.4794 122.676 52.3001 122.816 53.0951C122.956 53.8901 123.1 54.7044 123.247 55.5379C123.407 56.3691 123.568 57.2464 123.731 58.1696C123.906 59.0906 124.091 60.1025 124.286 61.2053C124.386 61.3992 124.398 61.5757 124.32 61.7348C124.255 61.8917 124.155 62.0018 124.021 62.0651C123.887 62.1285 123.736 62.1353 123.568 62.0854C123.414 62.0334 123.298 61.9017 123.221 61.6905L122.597 57.4771ZM120.579 51.4271C120.078 51.4361 119.64 51.6521 119.265 52.0752C118.9 52.4832 118.604 53.0116 118.374 53.6602C118.143 54.296 117.982 54.9986 117.893 55.768C117.802 56.5245 117.784 57.2482 117.84 57.9391C117.906 58.615 118.044 59.212 118.255 59.7302C118.465 60.2485 118.755 60.5808 119.124 60.7271C119.445 60.6706 119.74 60.5062 120.009 60.234C120.276 59.9489 120.514 59.6095 120.722 59.2158C120.943 58.8198 121.132 58.3899 121.288 57.9261C121.455 57.4471 121.592 56.9866 121.699 56.5447C121.806 56.1027 121.875 55.7071 121.906 55.3578C121.948 54.9935 121.953 54.7216 121.921 54.5421C121.896 54.401 121.852 54.151 121.789 53.7919C121.725 53.4329 121.635 53.072 121.519 52.7091C121.414 52.344 121.28 52.0306 121.115 51.7689C120.962 51.5048 120.784 51.3909 120.579 51.4271ZM126.059 55.3792C125.983 55.472 125.828 55.5323 125.595 55.5602C125.373 55.573 125.158 55.5579 124.952 55.5148C124.759 55.4696 124.619 55.3884 124.533 55.2715C124.444 55.1418 124.492 54.9679 124.679 54.75C124.755 54.6572 124.842 54.5889 124.94 54.5452C125.049 54.4864 125.152 54.4351 125.25 54.3914C125.359 54.3326 125.439 54.2654 125.492 54.19C125.558 54.1123 125.585 54.0018 125.573 53.8585C125.484 53.2792 125.425 52.6815 125.395 52.0652C125.379 51.4467 125.444 50.8799 125.591 50.3647C125.738 49.8496 125.999 49.4136 126.372 49.0569C126.758 48.6979 127.31 48.4883 128.026 48.4281C128.283 48.3829 128.583 48.3961 128.926 48.4678C129.267 48.5267 129.603 48.6327 129.934 48.7859C130.263 48.9262 130.561 49.1182 130.829 49.3619C131.094 49.5927 131.281 49.8639 131.389 50.1755C131.501 50.2879 131.478 50.4572 131.32 50.6835C131.161 50.9097 130.93 51.1752 130.627 51.4799C130.322 51.7717 129.972 52.0779 129.579 52.3984C129.186 52.7189 128.804 53.0244 128.432 53.3147C128.073 53.6028 127.754 53.8573 127.476 54.0783C127.197 54.2993 127.019 54.4497 126.94 54.5297C127.106 55.0162 127.282 55.5272 127.469 56.0628C127.656 56.5984 127.873 57.0823 128.121 57.5145C128.369 57.9467 128.642 58.2952 128.94 58.56C129.249 58.8097 129.595 58.9007 129.98 58.8328C130.551 58.7718 131.017 58.6037 131.378 58.3284C131.753 58.0509 132.045 57.7217 132.255 57.3408C132.466 56.9599 132.613 56.5572 132.697 56.1325C132.793 55.7056 132.849 55.3059 132.862 54.9333C132.889 54.5584 132.893 54.2469 132.876 53.9987C132.869 53.7355 132.876 53.5888 132.898 53.5586C133.025 53.4568 133.185 53.4285 133.378 53.4738C133.569 53.5063 133.705 53.6741 133.784 53.9773C133.885 54.4752 133.877 55.065 133.759 55.7469C133.642 56.4287 133.425 57.0751 133.11 57.686C132.807 58.2947 132.403 58.8155 131.898 59.2483C131.403 59.6661 130.832 59.8791 130.186 59.8874C129.53 59.9898 128.977 59.8955 128.529 59.6043C128.079 59.3002 127.693 58.9121 127.372 58.4399C127.061 57.9526 126.804 57.4294 126.6 56.8705C126.395 56.3116 126.215 55.8145 126.059 55.3792ZM130.369 50.3552C129.859 49.8633 129.379 49.5778 128.929 49.4985C128.479 49.4193 128.035 49.4513 127.597 49.5945C127.335 49.6805 127.12 49.8505 126.954 50.1047C126.785 50.346 126.665 50.6447 126.596 51.0007C126.524 51.3439 126.499 51.7252 126.52 52.1446C126.539 52.5511 126.605 52.9626 126.718 53.379L130.369 50.3552ZM133.738 42.7802C133.806 42.7153 133.874 42.6505 133.942 42.5856C134.02 42.5057 134.103 42.4514 134.19 42.4227C134.276 42.3812 134.354 42.3741 134.425 42.4012C134.508 42.4261 134.587 42.4982 134.661 42.6174L137.575 58.4655C137.533 58.6051 137.464 58.7031 137.369 58.7597C137.275 58.829 137.175 58.8599 137.068 58.8524C136.963 58.8577 136.86 58.8361 136.759 58.7879C136.671 58.7373 136.606 58.6694 136.564 58.5842L133.738 42.7802ZM142.077 57.7708C141.553 57.7971 141.093 57.6665 140.699 57.3791C140.317 57.0894 139.986 56.7115 139.706 56.2453C139.425 55.7791 139.201 55.2567 139.033 54.6782C138.875 54.0846 138.758 53.497 138.682 52.9154C138.565 52.0238 138.576 51.1492 138.715 50.2917C138.868 49.4318 139.104 48.6696 139.423 48.0052C139.753 47.3256 140.146 46.7803 140.602 46.3693C141.069 45.9432 141.559 45.7245 142.073 45.7133C142.612 45.6975 143.08 45.873 143.475 46.2396C143.883 46.604 144.231 47.0781 144.519 47.6619C144.807 48.2458 145.035 48.8998 145.202 49.6239C145.367 50.3352 145.483 51.0288 145.549 51.7046C145.618 52.4725 145.576 53.2071 145.422 53.9086C145.268 54.61 145.028 55.2342 144.701 55.781C144.387 56.3255 143.998 56.7777 143.532 57.1374C143.077 57.482 142.592 57.6932 142.077 57.7708ZM142.074 46.8436C141.642 46.8669 141.268 47.0716 140.953 47.4578C140.648 47.8288 140.394 48.3032 140.192 48.881C140.001 49.4436 139.867 50.0753 139.793 50.776C139.715 51.4639 139.701 52.1341 139.75 52.7866C139.78 53.2572 139.845 53.7351 139.944 54.2201C140.042 54.7051 140.178 55.1373 140.351 55.5168C140.536 55.8939 140.767 56.1904 141.043 56.4061C141.33 56.6068 141.672 56.6721 142.069 56.602C142.392 56.5583 142.706 56.3905 143.012 56.0987C143.33 55.8045 143.609 55.438 143.849 54.9991C144.087 54.5473 144.277 54.051 144.42 53.5102C144.575 52.9671 144.645 52.426 144.629 51.8866C144.622 51.3194 144.541 50.7518 144.388 50.1838C144.246 49.6008 144.054 49.0727 143.812 48.5998C143.582 48.1245 143.314 47.7289 143.007 47.4128C142.711 47.0816 142.4 46.8919 142.074 46.8436ZM151.826 44.4298C151.826 44.3506 151.849 44.2605 151.898 44.1594C151.957 44.0433 152.034 43.9569 152.13 43.9003C152.238 43.8415 152.364 43.8393 152.505 43.8936C152.658 43.9329 152.826 44.0619 153.01 44.2806C153.133 45.277 153.243 46.2757 153.34 47.2767C153.448 48.2625 153.586 49.2363 153.756 50.198C153.936 51.1447 154.166 52.0759 154.447 52.9916C154.74 53.9051 155.125 54.7759 155.602 55.6042C155.63 55.6917 155.612 55.7743 155.546 55.852C155.483 55.9425 155.389 56.0118 155.265 56.0601C155.144 56.1212 155.018 56.1566 154.888 56.1664C154.757 56.1762 154.644 56.1366 154.549 56.0476L153.31 52.9541C153.288 53.1298 153.183 53.3995 152.996 53.763C152.822 54.1243 152.604 54.4999 152.342 54.8898C152.091 55.2647 151.821 55.6097 151.533 55.9249C151.243 56.2274 150.977 56.4065 150.735 56.4623C150.139 56.607 149.628 56.4791 149.2 56.0785C148.772 55.6779 148.41 55.1204 148.112 54.4061C147.824 53.6767 147.587 52.8526 147.398 51.9339C147.21 51.0151 147.051 50.1175 146.923 49.241C146.795 48.3645 146.688 47.5703 146.602 46.8582C146.516 46.1462 146.425 45.6268 146.328 45.3002C146.348 45.1909 146.399 45.1026 146.479 45.0355C146.573 44.9661 146.677 44.9213 146.793 44.9009C146.908 44.8806 147.022 44.887 147.133 44.9202C147.258 44.9511 147.355 45.0134 147.424 45.1069C147.527 45.5384 147.629 46.0822 147.732 46.7385C147.834 47.3947 147.944 48.0958 148.063 48.8418C148.179 49.575 148.309 50.3123 148.453 51.0538C148.61 51.793 148.781 52.4636 148.966 53.0655C149.149 53.6546 149.354 54.1408 149.58 54.524C149.817 54.8921 150.087 55.0758 150.391 55.0751C150.609 55.0367 150.815 54.9277 151.008 54.7482C151.201 54.5687 151.388 54.3507 151.567 54.0943C151.744 53.8251 151.906 53.5388 152.05 53.2356C152.193 52.9196 152.312 52.6209 152.408 52.3396C152.502 52.0455 152.574 51.7815 152.625 51.5477C152.677 51.3138 152.699 51.1381 152.691 51.0204C152.677 50.8643 152.653 50.6173 152.62 50.2793C152.584 49.9286 152.536 49.5405 152.474 49.1151C152.423 48.6746 152.361 48.2096 152.288 47.72C152.227 47.2282 152.166 46.7696 152.105 46.3442C152.053 45.9037 151.998 45.5167 151.939 45.1833C151.891 44.8349 151.854 44.5837 151.826 44.4298ZM158.086 60.8977C157.921 59.2873 157.771 57.9519 157.637 56.8913C157.503 55.8308 157.377 54.9275 157.259 54.1816C157.151 53.4205 157.04 52.7525 156.925 52.1778C156.811 51.603 156.684 50.9973 156.545 50.3607C156.404 49.7112 156.241 48.9731 156.056 48.1464C155.881 47.3046 155.667 46.2448 155.416 44.9671C155.416 44.8215 155.446 44.6906 155.505 44.5745C155.562 44.4455 155.631 44.3539 155.714 44.2996C155.808 44.2302 155.917 44.211 156.041 44.2419C156.166 44.2728 156.302 44.3679 156.449 44.5271L156.832 47.0377C157.168 46.3966 157.565 45.7978 158.022 45.2412C158.492 44.6824 158.977 44.2069 159.476 43.8147C159.986 43.4075 160.494 43.0998 160.999 42.8917C161.503 42.6707 161.956 42.5777 162.358 42.6124C162.774 42.6449 163.116 42.8226 163.384 43.1455C163.664 43.4532 163.828 43.9334 163.876 44.5858C163.925 45.1591 163.859 45.7987 163.679 46.5047C163.497 47.1978 163.245 47.9034 162.922 48.6214C162.61 49.3244 162.249 50.016 161.84 50.6963C161.431 51.3766 161.023 51.9841 160.615 52.5188C160.206 53.0536 159.816 53.4993 159.442 53.856C159.079 54.1976 158.776 54.3899 158.533 54.4329C158.551 54.6147 158.576 54.8681 158.607 55.1932C158.64 55.5311 158.68 55.9075 158.727 56.3224C158.776 56.7501 158.821 57.1917 158.861 57.6473C158.915 58.1006 158.965 58.5347 159.012 58.9496C159.058 59.3644 159.098 59.7408 159.131 60.0787C159.165 60.4167 159.196 60.669 159.225 60.8357C159.172 60.9111 159.106 60.9824 159.025 61.0495C158.944 61.1166 158.854 61.1656 158.753 61.1965C158.653 61.2274 158.546 61.2199 158.432 61.1739C158.32 61.1407 158.205 61.0486 158.086 60.8977ZM158.243 53.3535C158.637 53.1122 159.085 52.6895 159.586 52.0854C160.086 51.4684 160.562 50.7565 161.014 49.9495C161.478 49.1274 161.872 48.2513 162.197 47.3213C162.522 46.3914 162.708 45.4927 162.753 44.6253C162.604 44.2285 162.383 43.9897 162.091 43.909C161.799 43.8282 161.474 43.8591 161.116 44.0016C160.768 44.129 160.399 44.3594 160.008 44.6928C159.615 45.0133 159.244 45.3828 158.895 45.8014C158.556 46.2049 158.25 46.6423 157.976 47.1137C157.702 47.5851 157.504 48.0365 157.382 48.4679L158.243 53.3535ZM167.009 48.1586C166.933 48.2513 166.778 48.3117 166.545 48.3395C166.323 48.3523 166.109 48.3372 165.903 48.2942C165.71 48.2489 165.57 48.1678 165.483 48.0509C165.394 47.9211 165.443 47.7473 165.629 47.5293C165.705 47.4366 165.792 47.3683 165.89 47.3246C165.999 47.2658 166.102 47.2145 166.2 47.1707C166.309 47.1119 166.39 47.0448 166.443 46.9694C166.508 46.8917 166.535 46.7812 166.523 46.6379C166.434 46.0586 166.375 45.4608 166.346 44.8446C166.329 44.2261 166.394 43.6592 166.542 43.1441C166.689 42.6289 166.949 42.193 167.322 41.8363C167.709 41.4773 168.26 41.2677 168.977 41.2074C169.233 41.1622 169.533 41.1755 169.876 41.2472C170.217 41.306 170.553 41.4121 170.884 41.5652C171.213 41.7056 171.511 41.8976 171.779 42.1412C172.045 42.3721 172.231 42.6433 172.339 42.9548C172.451 43.0672 172.428 43.2365 172.27 43.4628C172.111 43.6891 171.881 43.9545 171.577 44.2592C171.272 44.5511 170.923 44.8573 170.53 45.1778C170.137 45.4983 169.754 45.8037 169.382 46.0941C169.023 46.3822 168.704 46.6367 168.426 46.8576C168.148 47.0786 167.969 47.2291 167.891 47.309C168.056 47.7955 168.232 48.3066 168.419 48.8421C168.606 49.3777 168.823 49.8616 169.072 50.2938C169.32 50.7261 169.593 51.0746 169.891 51.3394C170.199 51.5891 170.546 51.68 170.93 51.6122C171.501 51.5512 171.967 51.383 172.329 51.1078C172.703 50.8303 172.995 50.5011 173.206 50.1202C173.416 49.7393 173.563 49.3365 173.647 48.9119C173.744 48.485 173.799 48.0852 173.813 47.7126C173.839 47.3377 173.844 47.0262 173.826 46.7781C173.82 46.5148 173.827 46.3681 173.848 46.338C173.975 46.2361 174.136 46.2079 174.329 46.2532C174.52 46.2856 174.655 46.4535 174.735 46.7567C174.836 47.2545 174.827 47.8444 174.71 48.5262C174.592 49.2081 174.375 49.8545 174.06 50.4654C173.757 51.074 173.353 51.5948 172.848 52.0277C172.353 52.4455 171.782 52.6585 171.136 52.6667C170.48 52.7692 169.928 52.6748 169.48 52.3836C169.029 52.0796 168.644 51.6915 168.322 51.2192C168.012 50.7319 167.754 50.2088 167.55 49.6499C167.346 49.0909 167.165 48.5938 167.009 48.1586ZM171.32 43.1346C170.81 42.6427 170.33 42.3571 169.879 42.2779C169.429 42.1986 168.985 42.2306 168.548 42.3739C168.285 42.4598 168.071 42.6299 167.904 42.884C167.735 43.1254 167.616 43.4241 167.546 43.7801C167.474 44.1233 167.449 44.5045 167.47 44.9239C167.489 45.3305 167.555 45.742 167.668 46.1583L171.32 43.1346ZM167.92 39.827C167.522 39.8179 167.284 39.7077 167.207 39.4965C167.13 39.2853 167.158 39.0292 167.29 38.7283C167.433 38.4123 167.636 38.0657 167.9 37.6886C168.177 37.3092 168.456 36.9427 168.737 36.589C168.968 36.5483 169.14 36.5841 169.252 36.6965C169.365 36.8089 169.435 36.9485 169.465 37.1152L169.492 37.2691C169.496 37.4403 169.439 37.642 169.321 37.8743C169.214 38.0916 169.076 38.3208 168.907 38.5622C168.748 38.7884 168.577 39.017 168.393 39.2477C168.207 39.4657 168.049 39.6588 167.92 39.827ZM177.169 46.3672C177.093 46.4599 176.938 46.5202 176.705 46.5481C176.483 46.5609 176.268 46.5458 176.062 46.5028C175.869 46.4575 175.729 46.3764 175.643 46.2595C175.554 46.1297 175.602 45.9559 175.789 45.7379C175.865 45.6451 175.952 45.5769 176.05 45.5331C176.159 45.4743 176.262 45.423 176.36 45.3793C176.469 45.3205 176.549 45.2534 176.602 45.178C176.668 45.1003 176.695 44.9898 176.683 44.8465C176.594 44.2672 176.535 43.6694 176.505 43.0531C176.489 42.4346 176.554 41.8678 176.701 41.3527C176.848 40.8375 177.109 40.4016 177.482 40.0448C177.868 39.6859 178.42 39.4763 179.136 39.416C179.393 39.3708 179.693 39.384 180.036 39.4557C180.377 39.5146 180.713 39.6206 181.044 39.7738C181.373 39.9141 181.671 40.1062 181.939 40.3498C182.204 40.5807 182.391 40.8519 182.499 41.1634C182.611 41.2758 182.588 41.4451 182.43 41.6714C182.271 41.8976 182.04 42.1631 181.737 42.4678C181.432 42.7597 181.082 43.0659 180.689 43.3864C180.296 43.7069 179.914 44.0123 179.542 44.3027C179.183 44.5907 178.864 44.8453 178.586 45.0662C178.307 45.2872 178.129 45.4376 178.05 45.5176C178.216 46.0041 178.392 46.5152 178.579 47.0507C178.766 47.5863 178.983 48.0702 179.231 48.5024C179.479 48.9347 179.752 49.2832 180.05 49.548C180.359 49.7977 180.705 49.8886 181.09 49.8208C181.661 49.7598 182.127 49.5916 182.488 49.3164C182.863 49.0388 183.155 48.7096 183.365 48.3288C183.576 47.9479 183.723 47.5451 183.807 47.1205C183.903 46.6936 183.959 46.2938 183.972 45.9212C183.999 45.5463 184.003 45.2348 183.986 44.9866C183.979 44.7234 183.986 44.5767 184.007 44.5465C184.135 44.4447 184.295 44.4165 184.488 44.4617C184.679 44.4942 184.815 44.662 184.894 44.9653C184.995 45.4631 184.987 46.053 184.869 46.7348C184.752 47.4167 184.535 48.063 184.22 48.674C183.917 49.2826 183.513 49.8034 183.008 50.2363C182.513 50.6541 181.942 50.8671 181.296 50.8753C180.64 50.9778 180.087 50.8834 179.639 50.5922C179.189 50.2882 178.803 49.9 178.482 49.4278C178.171 48.9405 177.914 48.4174 177.71 47.8584C177.505 47.2995 177.325 46.8024 177.169 46.3672ZM181.479 41.3431C180.969 40.8513 180.489 40.5657 180.039 40.4865C179.589 40.4072 179.145 40.4392 178.707 40.5824C178.445 40.6684 178.23 40.8385 178.064 41.0926C177.895 41.334 177.775 41.6326 177.706 41.9887C177.634 42.3318 177.609 42.7131 177.63 43.1325C177.649 43.5391 177.715 43.9505 177.828 44.3669L181.479 41.3431ZM185.347 38.4002C185.337 38.2697 185.371 38.1581 185.447 38.0653C185.523 37.9725 185.618 37.9096 185.731 37.8764C185.842 37.8304 185.959 37.8229 186.084 37.8538C186.206 37.8719 186.314 37.9191 186.406 37.9953L187.705 45.6993C187.786 44.7331 187.844 43.7842 187.878 42.8527C187.922 41.906 188.028 41.0413 188.194 40.2584C188.357 39.4626 188.622 38.788 188.987 38.2344C189.35 37.668 189.898 37.2871 190.63 37.0919C191.021 36.9833 191.388 37.0441 191.733 37.2742C192.076 37.4915 192.391 37.8192 192.68 38.2575C192.982 38.6935 193.26 39.2197 193.514 39.836C193.765 40.4394 193.991 41.0806 194.19 41.7595C194.4 42.4233 194.585 43.098 194.745 43.7836C194.906 44.4693 195.044 45.1059 195.161 45.6935C195.278 46.2811 195.37 46.8005 195.436 47.2515C195.515 47.7003 195.566 48.0284 195.59 48.2359C195.538 48.4697 195.403 48.639 195.183 48.7438C194.979 48.8592 194.764 48.8045 194.54 48.5797C194.484 48.3383 194.404 47.9227 194.3 47.3328C194.194 46.7301 194.06 46.0464 193.899 45.2815C193.75 44.5144 193.57 43.7197 193.359 42.8975C193.159 42.0603 192.926 41.3014 192.66 40.621C192.406 39.9256 192.115 39.3621 191.787 38.9306C191.47 38.484 191.121 38.2615 190.737 38.2629C190.408 38.2681 190.124 38.4966 189.886 38.9484C189.662 39.3979 189.466 39.9746 189.299 40.6783C189.145 41.3797 189.019 42.1623 188.92 43.0259C188.834 43.8873 188.764 44.7324 188.712 45.5614C188.673 46.3881 188.648 47.1461 188.637 47.8355C188.627 48.5249 188.634 49.0525 188.659 49.4184C188.638 49.5277 188.576 49.6247 188.472 49.7091C188.368 49.7936 188.245 49.8482 188.104 49.8731C187.978 49.9086 187.84 49.9131 187.69 49.8866C187.553 49.858 187.44 49.7787 187.351 49.649L185.347 38.4002ZM105.921 93.4744C105.694 93.2368 105.516 92.9045 105.388 92.4776C105.273 92.0484 105.167 91.5977 105.07 91.1255C104.985 90.6382 104.901 90.1638 104.819 89.7021C104.749 89.2254 104.645 88.8272 104.51 88.5073C104.14 89.9344 103.751 91.0672 103.344 91.9059C102.947 92.7296 102.552 93.3412 102.16 93.7409C101.778 94.1256 101.406 94.3367 101.042 94.3744C100.676 94.3992 100.346 94.3252 100.051 94.1525C99.7667 93.9646 99.5258 93.7228 99.3282 93.4271C99.1283 93.1186 98.996 92.818 98.9312 92.5253C98.7555 92.0539 98.6462 91.4716 98.6033 90.7784C98.571 90.0701 98.593 89.3324 98.6693 88.5654C98.7584 87.796 98.9022 87.0368 99.1006 86.2879C99.3097 85.5238 99.5741 84.8492 99.894 84.2639C100.227 83.6763 100.609 83.2189 101.04 82.8916C101.47 82.5515 101.955 82.4196 102.498 82.4958C102.75 82.425 102.963 82.4005 103.139 82.4224C103.326 82.4292 103.489 82.493 103.629 82.6137C103.769 82.7344 103.888 82.9184 103.984 83.1658C104.079 83.4004 104.172 83.7078 104.266 84.088C104.46 85.3363 104.678 86.3886 104.922 87.2447C105.178 88.0986 105.429 88.8476 105.675 89.4918C105.921 90.136 106.149 90.7172 106.359 91.2354C106.582 91.7514 106.758 92.2956 106.885 92.8681C106.921 93.0733 106.898 93.2426 106.816 93.3761C106.731 93.4968 106.627 93.5813 106.504 93.6295C106.382 93.6906 106.259 93.7057 106.135 93.6747C106.023 93.6415 105.952 93.5748 105.921 93.4744ZM103.093 83.9577C102.712 83.6016 102.349 83.4873 102.001 83.6147C101.653 83.7422 101.334 84.0299 101.042 84.4779C100.762 84.9108 100.515 85.4633 100.303 86.1353C100.089 86.7945 99.9275 87.4907 99.8188 88.2238C99.7101 88.957 99.6591 89.6799 99.6658 90.3927C99.683 91.0904 99.7701 91.6965 99.9269 92.2109C100.208 92.7563 100.487 93.0641 100.764 93.1343C101.041 93.2045 101.31 93.1174 101.571 92.8731C101.829 92.6159 102.074 92.2422 102.305 91.7519C102.536 91.2617 102.748 90.7416 102.942 90.1918C103.134 89.6291 103.295 89.0785 103.425 88.54C103.565 87.9864 103.675 87.524 103.755 87.1529L103.093 83.9577ZM112.382 80.8322C112.382 80.753 112.405 80.6629 112.454 80.5618C112.513 80.4457 112.59 80.3593 112.686 80.3028C112.794 80.244 112.92 80.2417 113.061 80.296C113.214 80.3353 113.382 80.4643 113.566 80.683C113.689 81.6795 113.799 82.6781 113.896 83.6791C114.004 84.6649 114.142 85.6387 114.312 86.6005C114.492 87.5471 114.722 88.4783 115.003 89.394C115.296 90.3075 115.681 91.1783 116.158 92.0066C116.186 92.0941 116.168 92.1767 116.102 92.2544C116.039 92.3449 115.945 92.4143 115.821 92.4625C115.7 92.5236 115.574 92.559 115.444 92.5688C115.313 92.5786 115.2 92.539 115.105 92.45L113.866 89.3565C113.844 89.5323 113.739 89.8019 113.552 90.1654C113.378 90.5267 113.16 90.9023 112.898 91.2922C112.647 91.6671 112.377 92.0121 112.089 92.3274C111.798 92.6298 111.533 92.8089 111.291 92.8647C110.695 93.0094 110.184 92.8815 109.756 92.4809C109.328 92.0803 108.966 91.5229 108.668 90.8085C108.38 90.0791 108.143 89.255 107.954 88.3363C107.766 87.4176 107.607 86.5199 107.479 85.6435C107.351 84.767 107.244 83.9727 107.158 83.2607C107.072 82.5486 106.981 82.0293 106.884 81.7027C106.904 81.5933 106.955 81.505 107.035 81.4379C107.129 81.3685 107.233 81.3237 107.349 81.3033C107.464 81.283 107.578 81.2894 107.689 81.3226C107.814 81.3536 107.911 81.4158 107.98 81.5093C108.082 81.9408 108.185 82.4846 108.287 83.1409C108.39 83.7971 108.5 84.4982 108.619 85.2442C108.735 85.9774 108.865 86.7147 109.009 87.4562C109.166 88.1954 109.337 88.866 109.522 89.4679C109.705 90.057 109.91 90.5432 110.136 90.9264C110.373 91.2945 110.643 91.4782 110.947 91.4775C111.165 91.4391 111.371 91.3301 111.564 91.1506C111.757 90.9711 111.944 90.7532 112.123 90.4967C112.3 90.2275 112.461 89.9413 112.606 89.6381C112.749 89.322 112.868 89.0234 112.964 88.742C113.058 88.4479 113.13 88.1839 113.181 87.9501C113.233 87.7163 113.255 87.5405 113.247 87.4228C113.233 87.2667 113.209 87.0197 113.176 86.6818C113.14 86.331 113.092 85.9429 113.03 85.5175C112.979 85.077 112.917 84.612 112.844 84.1224C112.783 83.6307 112.722 83.172 112.66 82.7466C112.609 82.3061 112.554 81.9192 112.495 81.5858C112.447 81.2373 112.41 80.9861 112.382 80.8322ZM127.776 84.7421C127.721 84.2095 127.672 83.6695 127.629 83.1218C127.585 82.5742 127.57 82.0413 127.585 81.5232C127.597 80.9921 127.647 80.4875 127.734 80.0093C127.822 79.5311 127.965 79.1027 128.162 78.7241C128.373 78.3432 128.647 78.0238 128.985 77.7659C129.336 77.5057 129.775 77.3357 130.303 77.2558C130.662 77.1925 130.965 77.2978 131.212 77.5716C131.456 77.8326 131.654 78.1679 131.805 78.5775C131.97 78.9849 132.092 79.4129 132.171 79.8617C132.263 80.3083 132.334 80.6726 132.383 80.9547C132.205 81.0656 132.038 81.095 131.883 81.0429C131.741 80.9886 131.611 80.886 131.492 80.7351C131.383 80.5691 131.276 80.3764 131.172 80.1569C131.067 79.9374 130.968 79.7168 130.876 79.495C130.797 79.271 130.708 79.062 130.607 78.8681C130.52 78.672 130.426 78.5166 130.327 78.402C130.078 78.3401 129.859 78.4117 129.671 78.6168C129.482 78.822 129.326 79.1007 129.203 79.4529C129.078 79.7923 128.977 80.1936 128.9 80.6567C128.836 81.1175 128.792 81.5814 128.768 82.0483C128.743 82.5024 128.734 82.9402 128.742 83.3619C128.75 83.7835 128.779 84.1354 128.829 84.4175C128.91 84.7999 129.022 85.2099 129.165 85.6474C129.306 86.0721 129.481 86.4643 129.69 86.8241C129.899 87.1839 130.143 87.4846 130.424 87.726C130.702 87.9545 131.028 88.0757 131.4 88.0893C131.888 88.0034 132.284 87.8541 132.591 87.6414C132.907 87.4137 133.153 87.1588 133.328 86.8767C133.514 86.5795 133.644 86.2658 133.718 85.9354C133.792 85.605 133.84 85.2792 133.863 84.9579C133.883 84.6237 133.889 84.3186 133.88 84.0426C133.881 83.7514 133.892 83.5116 133.912 83.323C134.229 83.1744 134.487 83.1356 134.684 83.2066C134.895 83.2752 135.012 83.3801 135.037 83.5211C135.141 84.111 135.143 84.7189 135.042 85.345C134.938 85.9582 134.735 86.5295 134.431 87.059C134.141 87.5862 133.751 88.0383 133.263 88.4154C132.774 88.7925 132.189 89.0409 131.51 89.1608C130.933 89.2625 130.427 89.1666 129.992 88.8732C129.554 88.5669 129.181 88.1765 128.873 87.702C128.577 87.2252 128.335 86.7127 128.145 86.1643C127.969 85.6136 127.846 85.1396 127.776 84.7421ZM144.155 86.7327C143.928 86.4951 143.751 86.1628 143.623 85.7358C143.507 85.3066 143.401 84.8559 143.305 84.3837C143.219 83.8965 143.135 83.422 143.054 82.9604C142.983 82.4837 142.88 82.0854 142.744 81.7656C142.374 83.1926 141.986 84.3255 141.578 85.1642C141.181 85.9878 140.787 86.5995 140.394 86.9992C140.013 87.3838 139.64 87.5949 139.277 87.6326C138.911 87.6575 138.58 87.5835 138.285 87.4107C138.001 87.2229 137.76 86.9811 137.563 86.6854C137.363 86.3769 137.23 86.0763 137.166 85.7836C136.99 85.3121 136.881 84.7298 136.838 84.0366C136.805 83.3284 136.827 82.5907 136.904 81.8236C136.993 81.0542 137.137 80.2951 137.335 79.5461C137.544 78.7821 137.809 78.1074 138.128 77.5221C138.461 76.9346 138.843 76.4772 139.275 76.1499C139.704 75.8098 140.19 75.6778 140.732 75.7541C140.984 75.6832 141.198 75.6587 141.374 75.6806C141.56 75.6875 141.723 75.7512 141.863 75.8719C142.004 75.9926 142.122 76.1767 142.219 76.4241C142.313 76.6587 142.407 76.9661 142.5 77.3462C142.694 78.5946 142.913 79.6468 143.156 80.503C143.412 81.3569 143.663 82.1059 143.909 82.7501C144.155 83.3943 144.383 83.9755 144.594 84.4937C144.817 85.0096 144.992 85.5539 145.119 86.1264C145.156 86.3315 145.133 86.5009 145.05 86.6344C144.966 86.755 144.862 86.8395 144.738 86.8878C144.617 86.9488 144.494 86.9639 144.369 86.933C144.258 86.8998 144.186 86.833 144.155 86.7327ZM141.327 77.216C140.947 76.8599 140.583 76.7456 140.235 76.873C139.887 77.0004 139.568 77.2881 139.277 77.7361C138.996 78.169 138.75 78.7215 138.538 79.3935C138.323 80.0528 138.162 80.7489 138.053 81.4821C137.944 82.2152 137.893 82.9382 137.9 83.651C137.917 84.3487 138.004 84.9548 138.161 85.4692C138.443 86.0146 138.722 86.3224 138.998 86.3925C139.275 86.4627 139.544 86.3756 139.805 86.1313C140.064 85.8741 140.309 85.5004 140.54 85.0102C140.77 84.5199 140.983 83.9999 141.177 83.45C141.368 82.8874 141.529 82.3368 141.659 81.7982C141.799 81.2446 141.91 80.7823 141.99 80.4112L141.327 77.216ZM147.259 86.2052C147.188 85.9533 147.09 85.5474 146.965 84.9878C146.851 84.413 146.716 83.7624 146.562 83.036C146.418 82.2945 146.266 81.5082 146.106 80.6769C145.946 79.8457 145.779 79.0488 145.605 78.2862C145.442 77.5085 145.269 76.7919 145.087 76.1364C144.918 75.4787 144.76 74.9578 144.613 74.5739C144.557 74.2533 144.621 74.0568 144.807 73.9844C145.003 73.897 145.234 73.8563 145.499 73.8623C145.784 74.8037 146.015 75.6621 146.192 76.4375C146.381 77.2107 146.536 77.9039 146.657 78.5172C146.789 79.1153 146.901 79.6377 146.993 80.0842C147.096 80.5157 147.203 80.8604 147.314 81.1184C147.258 79.8987 147.24 78.8574 147.259 77.9945C147.279 77.1316 147.332 76.4215 147.419 75.8641C147.517 75.2916 147.653 74.8643 147.828 74.5823C148.001 74.2874 148.212 74.0981 148.461 74.0144C148.688 73.948 148.939 74.0955 149.214 74.4569C149.487 74.8054 149.76 75.2663 150.033 75.8396C150.319 76.4106 150.588 77.0374 150.84 77.7201C151.103 78.3877 151.326 79.0096 151.506 79.5859C151.714 78.2139 151.892 77.1247 152.041 76.3184C152.202 75.5099 152.358 74.894 152.508 74.4709C152.656 74.0349 152.811 73.7498 152.972 73.6156C153.147 73.4791 153.35 73.3969 153.583 73.369C153.893 73.3276 154.161 73.4193 154.386 73.6441C154.621 73.8538 154.827 74.1612 155.004 74.5663C155.179 74.9585 155.335 75.427 155.47 75.9716C155.617 76.5011 155.756 77.0649 155.888 77.6631C156.032 78.259 156.186 78.8666 156.348 79.4859C156.52 80.0901 156.714 80.6641 156.929 81.208C157.144 81.7518 157.397 82.2493 157.688 82.7004C157.977 83.1387 158.322 83.4812 158.722 83.7279C158.647 83.979 158.548 84.2015 158.423 84.3954C158.297 84.5764 158.141 84.6303 157.956 84.5571C157.541 84.379 157.167 84.0218 156.835 83.4855C156.513 82.9341 156.216 82.2989 155.944 81.5801C155.671 80.8612 155.433 80.1099 155.229 79.3262C155.022 78.5296 154.835 77.8025 154.666 77.1447C154.497 76.487 154.342 75.9458 154.201 75.5211C154.073 75.0941 153.956 74.8833 153.851 74.8886C153.47 74.9029 153.189 75.5541 153.006 76.8424C152.836 78.1284 152.648 80.0258 152.443 82.5345C152.408 82.7125 152.353 82.8479 152.276 82.9406C152.198 83.0206 152.114 83.0685 152.024 83.0843C151.934 83.1001 151.84 83.0903 151.741 83.0548C151.64 83.0065 151.55 82.9432 151.47 82.8647C151.118 81.9218 150.799 81.0129 150.513 80.1379C150.239 79.2606 149.99 78.4848 149.765 77.8104C149.541 77.1361 149.333 76.5975 149.143 76.1947C148.966 75.7896 148.811 75.5856 148.678 75.5825C148.559 75.5772 148.466 75.7258 148.4 76.0283C148.345 76.3157 148.309 76.712 148.292 77.2174C148.274 77.7099 148.265 78.2998 148.267 78.9869C148.28 79.659 148.295 80.3835 148.313 81.1604C148.331 81.9373 148.347 82.741 148.362 83.5714C148.374 84.3891 148.372 85.2025 148.356 86.0119C148.322 86.1235 148.259 86.214 148.166 86.2834C148.074 86.3656 147.971 86.4169 147.856 86.4372C147.753 86.4553 147.646 86.4478 147.534 86.4145C147.423 86.3813 147.331 86.3116 147.259 86.2052ZM161.242 89.7885C161.077 88.1781 160.928 86.8427 160.794 85.7821C160.66 84.7216 160.533 83.8183 160.415 83.0723C160.307 82.3113 160.196 81.6433 160.082 81.0686C159.967 80.4938 159.84 79.8881 159.702 79.2514C159.561 78.602 159.398 77.8639 159.212 77.0372C159.037 76.1954 158.824 75.1356 158.572 73.8578C158.573 73.7123 158.603 73.5814 158.662 73.4652C158.718 73.3363 158.788 73.2446 158.871 73.1903C158.965 73.121 159.074 73.1017 159.198 73.1327C159.322 73.1636 159.458 73.2587 159.605 73.4179L159.989 75.9285C160.325 75.2874 160.722 74.6886 161.179 74.132C161.649 73.5731 162.134 73.0976 162.633 72.7055C163.143 72.2982 163.651 71.9906 164.156 71.7825C164.659 71.5615 165.112 71.4684 165.515 71.5032C165.931 71.5357 166.273 71.7134 166.541 72.0362C166.82 72.344 166.984 72.8241 167.033 73.4766C167.081 74.0499 167.016 74.6895 166.836 75.3954C166.654 76.0886 166.402 76.7942 166.079 77.5122C165.766 78.2152 165.406 78.9068 164.997 79.5871C164.588 80.2674 164.179 80.8749 163.771 81.4096C163.363 81.9443 162.972 82.3901 162.599 82.7468C162.236 83.0884 161.933 83.2807 161.689 83.3237C161.708 83.5055 161.733 83.7589 161.764 84.084C161.797 84.4219 161.837 84.7983 161.883 85.2132C161.932 85.6409 161.977 86.0825 162.018 86.5381C162.071 86.9914 162.122 87.4255 162.168 87.8404C162.215 88.2552 162.255 88.6316 162.288 88.9695C162.321 89.3074 162.352 89.5598 162.382 89.7265C162.329 89.8019 162.262 89.8731 162.181 89.9403C162.101 90.0074 162.01 90.0564 161.91 90.0873C161.81 90.1182 161.703 90.1107 161.589 90.0646C161.477 90.0314 161.362 89.9394 161.242 89.7885ZM161.4 82.2443C161.793 82.003 162.241 81.5803 162.743 80.9761C163.242 80.3592 163.718 79.6472 164.171 78.8402C164.634 78.0181 165.028 77.1421 165.354 76.2121C165.679 75.2821 165.864 74.3834 165.91 73.516C165.76 73.1193 165.54 72.8805 165.248 72.7998C164.956 72.719 164.631 72.7499 164.272 72.8924C163.925 73.0198 163.555 73.2502 163.165 73.5835C162.772 73.9041 162.401 74.2736 162.051 74.6922C161.713 75.0957 161.406 75.5331 161.132 76.0045C160.858 76.4759 160.66 76.9273 160.538 77.3587L161.4 82.2443ZM168.489 70.4632C168.559 70.4111 168.643 70.3632 168.741 70.3195C168.839 70.2758 168.933 70.246 169.023 70.2302C169.126 70.2121 169.225 70.2144 169.322 70.237C169.418 70.2596 169.501 70.3177 169.571 70.4113C169.718 71.2448 169.883 72.1477 170.068 73.1199C170.263 74.0771 170.462 75.0536 170.664 76.0493C170.876 77.0298 171.08 77.9987 171.276 78.9559C171.471 79.9132 171.654 80.7998 171.824 81.616C171.871 81.8061 171.845 81.9626 171.748 82.0855C171.651 82.2084 171.532 82.2823 171.39 82.3072C171.262 82.3298 171.131 82.3 170.998 82.2178C170.867 82.1484 170.783 82.0111 170.747 81.8059L168.489 70.4632ZM167.566 66.58C167.537 66.4133 167.575 66.2941 167.682 66.2225C167.786 66.138 167.908 66.0834 168.049 66.0585C168.332 66.0088 168.522 66.0744 168.62 66.2554C168.728 66.4214 168.804 66.6262 168.847 66.8698C168.797 67.0373 168.714 67.1644 168.597 67.2511C168.48 67.3378 168.348 67.3744 168.2 67.3608C168.065 67.3449 167.933 67.2755 167.806 67.1525C167.691 67.0273 167.611 66.8365 167.566 66.58ZM171.708 70.2525C171.698 70.122 171.732 70.0104 171.808 69.9176C171.884 69.8248 171.979 69.7619 172.092 69.7287C172.203 69.6827 172.32 69.6752 172.445 69.7061C172.567 69.7242 172.675 69.7714 172.767 69.8476L174.066 77.5516C174.147 76.5854 174.205 75.6365 174.239 74.705C174.283 73.7583 174.389 72.8936 174.555 72.1107C174.718 71.3149 174.983 70.6403 175.348 70.0867C175.711 69.5203 176.259 69.1394 176.991 68.9442C177.382 68.8356 177.749 68.8964 178.094 69.1265C178.437 69.3438 178.752 69.6715 179.041 70.1098C179.343 70.5458 179.621 71.072 179.875 71.6883C180.126 72.2917 180.352 72.9329 180.551 73.6118C180.761 74.2755 180.946 74.9503 181.106 75.6359C181.267 76.3216 181.405 76.9582 181.522 77.5458C181.639 78.1334 181.731 78.6528 181.797 79.1038C181.876 79.5526 181.927 79.8807 181.951 80.0882C181.899 80.322 181.764 80.4913 181.544 80.5961C181.34 80.7115 181.125 80.6568 180.901 80.432C180.845 80.1906 180.765 79.775 180.661 79.1851C180.555 78.5824 180.421 77.8987 180.26 77.1338C180.111 76.3667 179.931 75.572 179.72 74.7498C179.52 73.9126 179.287 73.1537 179.021 72.4733C178.767 71.7779 178.475 71.2144 178.148 70.7829C177.831 70.3363 177.482 70.1137 177.098 70.1152C176.769 70.1204 176.485 70.3489 176.247 70.8007C176.023 71.2502 175.827 71.8269 175.66 72.5306C175.506 73.232 175.38 74.0146 175.281 74.8782C175.195 75.7396 175.125 76.5847 175.073 77.4137C175.034 78.2404 175.009 78.9984 174.998 79.6878C174.988 80.3772 174.995 80.9048 175.02 81.2707C174.999 81.38 174.937 81.4769 174.833 81.5614C174.729 81.6459 174.606 81.7005 174.465 81.7254C174.339 81.7609 174.201 81.7654 174.051 81.7389C173.914 81.7103 173.801 81.631 173.712 81.5013L171.708 70.2525ZM185.806 84.7234C186.746 84.5048 187.518 84.1572 188.121 83.6806C188.727 83.2168 189.197 82.6579 189.531 82.004C189.866 81.3501 190.074 80.6193 190.156 79.8114C190.239 79.0036 190.233 78.1453 190.138 77.2363C190.075 76.6525 190.005 76.1426 189.928 75.7066C189.862 75.2556 189.784 74.8528 189.695 74.4982C189.617 74.1286 189.536 73.7794 189.451 73.4505C189.367 73.1216 189.28 72.7799 189.191 72.4254C189.102 72.0709 189.009 71.6907 188.911 71.2849C188.823 70.864 188.732 70.3843 188.637 69.8457C188.34 71.7623 188.02 73.3195 187.676 74.5172C187.332 75.7149 186.972 76.6378 186.597 77.2856C186.235 77.9312 185.872 78.3457 185.507 78.5289C185.156 78.7099 184.826 78.7483 184.516 78.6442C184.205 78.5272 183.928 78.305 183.685 77.9776C183.44 77.6374 183.251 77.2806 183.119 76.9072C183.032 76.2616 183.029 75.5348 183.112 74.727C183.192 73.9064 183.346 73.0925 183.574 72.2855C183.799 71.4656 184.093 70.6933 184.454 69.9685C184.813 69.2308 185.235 68.6211 185.718 68.1391C186.202 67.6572 186.728 67.3398 187.296 67.1867C187.876 67.0314 188.501 67.1262 189.17 67.471C189.181 67.4559 189.218 67.5947 189.283 67.8873C189.361 68.1777 189.457 68.5707 189.571 69.0663C189.697 69.5596 189.832 70.1374 189.975 70.7997C190.129 71.4469 190.289 72.1261 190.454 72.8374C190.619 73.5487 190.777 74.2612 190.93 74.9747C191.095 75.6861 191.251 76.3461 191.398 76.9548C191.621 78.1451 191.635 79.2731 191.439 80.3389C191.244 81.4046 190.893 82.3391 190.387 83.1424C189.893 83.9433 189.271 84.5753 188.519 85.0383C187.781 85.4991 186.974 85.7208 186.098 85.7033C186.06 85.7101 185.991 85.6957 185.892 85.6603C185.806 85.6225 185.73 85.5633 185.663 85.4826C185.608 85.3996 185.583 85.2918 185.586 85.159C185.591 85.0391 185.665 84.8939 185.806 84.7234ZM184.142 76.7467C184.365 77.1835 184.591 77.3815 184.822 77.3408C185.051 77.2873 185.278 77.0754 185.503 76.7051C185.739 76.3197 185.968 75.8166 186.189 75.1958C186.41 74.5751 186.622 73.9031 186.825 73.1798C187.039 72.4413 187.238 71.6988 187.424 70.9521C187.607 70.1925 187.782 69.4941 187.947 68.8568C187.92 68.7029 187.857 68.5686 187.757 68.454C187.668 68.3242 187.506 68.3065 187.272 68.4007C186.888 68.5477 186.532 68.8155 186.203 69.2039C185.886 69.5772 185.6 70.0177 185.346 70.5252C185.089 71.02 184.867 71.5616 184.68 72.1499C184.504 72.7231 184.367 73.2959 184.269 73.8684C184.17 74.4281 184.105 74.9617 184.075 75.4694C184.059 75.9747 184.081 76.4005 184.142 76.7467Z" fill="#2C2C2C"/>
<path d="M116.5 22.3048C106.09 12.4085 87.4998 -0.678853 70.8464 1.17758C59.7887 2.41022 48.7409 9.93355 45.2842 22.5957M45.2842 22.5957C44.6001 25.1015 44.2389 27.9146 44.2746 31.0894C44.4586 47.4598 57.1983 40.91 57.8461 35.2079C58.5513 29 52.6991 26.3124 45.2842 22.5957ZM45.2842 22.5957C39.4173 19.655 32.4998 18.8203 26.0663 19.7621C13.7986 21.558 3.00857 32.977 3.00857 32.977M11.0718 32.575L1 35.8203L1.85404 23.1398" stroke="#2C2C2C" stroke-linecap="round" stroke-linejoin="round"/>
</svg>
