<svg width="206" height="105" viewBox="0 0 206 105" fill="none" xmlns="http://www.w3.org/2000/svg">
<rect x="91.9316" y="76.6143" width="103.532" height="23.0897" transform="rotate(-9.59682 91.9316 76.6143)" fill="white"/>
<rect x="99.291" y="45.7842" width="76.4263" height="23.0897" transform="rotate(-9.59682 99.291 45.7842)" fill="white"/>
<path d="M107.216 48.8317C107.189 48.6779 107.215 48.561 107.293 48.481C107.372 48.4011 107.473 48.337 107.597 48.2887C107.72 48.2405 107.853 48.2039 107.994 48.179C108.135 48.1541 108.256 48.1263 108.356 48.0953L108.715 50.1342C109.602 49.687 110.333 49.3002 110.911 48.9737C111.485 48.6343 112.008 48.3372 112.479 48.0823C112.947 47.8146 113.406 47.5684 113.856 47.3437C114.303 47.1062 114.841 46.8592 115.47 46.6029C115.573 46.5848 115.653 46.6236 115.709 46.7194C115.766 46.8152 115.801 46.9016 115.814 46.9785C115.844 47.1452 115.778 47.2957 115.616 47.43L108.996 51.2747L110.422 57.449C111.369 56.6738 112.166 56.0177 112.812 55.4807C113.47 54.9415 114.013 54.4954 114.44 54.1425C114.867 53.7895 115.196 53.5199 115.428 53.3337C115.672 53.1451 115.853 53.0075 115.97 52.9208C116.087 52.834 116.157 52.782 116.18 52.7647C116.204 52.7473 116.222 52.7375 116.234 52.7352C116.343 52.6764 116.421 52.6693 116.469 52.7138C116.514 52.7455 116.544 52.8062 116.56 52.896C116.576 52.9857 116.575 53.0917 116.557 53.2139C116.552 53.3338 116.539 53.4485 116.518 53.5578C116.47 53.6589 116.286 53.8501 115.965 54.1314C115.657 54.4104 115.285 54.7339 114.847 55.102C114.409 55.47 113.943 55.8629 113.448 56.2807C112.964 56.6834 112.508 57.0613 112.082 57.4142C111.667 57.7649 111.325 58.0699 111.053 58.3294C110.781 58.5888 110.651 58.7506 110.663 58.8147L111.605 63.8247C111.637 64.0043 111.63 64.151 111.584 64.2648C111.538 64.3787 111.444 64.4481 111.303 64.473C111.149 64.5001 110.973 64.3262 110.775 63.9513C110.587 63.5613 110.39 63.0409 110.182 62.3899C109.973 61.7261 109.759 60.9639 109.541 60.1032C109.321 59.2297 109.109 58.3283 108.906 57.399C108.702 56.4698 108.506 55.5457 108.318 54.627C108.127 53.6954 107.956 52.8397 107.806 52.0597C107.655 51.2798 107.529 50.6013 107.427 50.0243C107.325 49.4472 107.255 49.0497 107.216 48.8317ZM119.092 57.7845C119.016 57.8772 118.861 57.9376 118.628 57.9654C118.406 57.9782 118.192 57.9631 117.986 57.9201C117.793 57.8748 117.653 57.7937 117.566 57.6768C117.477 57.547 117.526 57.3732 117.712 57.1552C117.788 57.0624 117.875 56.9942 117.973 56.9505C118.082 56.8916 118.185 56.8404 118.283 56.7966C118.392 56.7378 118.473 56.6707 118.525 56.5953C118.591 56.5176 118.618 56.4071 118.606 56.2638C118.517 55.6845 118.458 55.0867 118.428 54.4705C118.412 53.852 118.477 53.2851 118.624 52.77C118.772 52.2548 119.032 51.8189 119.405 51.4622C119.792 51.1032 120.343 50.8936 121.06 50.8333C121.316 50.7881 121.616 50.8014 121.959 50.8731C122.3 50.9319 122.636 51.038 122.967 51.1911C123.296 51.3315 123.594 51.5235 123.862 51.7671C124.127 51.998 124.314 52.2692 124.422 52.5807C124.534 52.6931 124.511 52.8624 124.353 53.0887C124.194 53.315 123.963 53.5804 123.66 53.8851C123.355 54.177 123.005 54.4832 122.612 54.8037C122.219 55.1242 121.837 55.4296 121.465 55.72C121.106 56.0081 120.787 56.2626 120.509 56.4835C120.231 56.7045 120.052 56.855 119.974 56.9349C120.139 57.4214 120.315 57.9325 120.502 58.468C120.689 59.0036 120.906 59.4875 121.154 59.9197C121.403 60.352 121.676 60.7005 121.973 60.9653C122.282 61.215 122.628 61.3059 123.013 61.2381C123.584 61.1771 124.05 61.0089 124.412 60.7337C124.786 60.4562 125.078 60.127 125.289 59.7461C125.499 59.3652 125.646 58.9624 125.73 58.5378C125.827 58.1109 125.882 57.7111 125.895 57.3385C125.922 56.9636 125.926 56.6521 125.909 56.404C125.902 56.1407 125.91 55.994 125.931 55.9638C126.058 55.862 126.218 55.8338 126.412 55.8791C126.602 55.9115 126.738 56.0794 126.818 56.3826C126.919 56.8804 126.91 57.4703 126.793 58.1521C126.675 58.834 126.458 59.4804 126.143 60.0913C125.84 60.6999 125.436 61.2207 124.931 61.6536C124.436 62.0714 123.865 62.2844 123.219 62.2926C122.563 62.3951 122.011 62.3007 121.563 62.0095C121.112 61.7055 120.727 61.3174 120.405 60.8451C120.095 60.3578 119.837 59.8347 119.633 59.2758C119.428 58.7168 119.248 58.2197 119.092 57.7845ZM123.402 52.7605C122.893 52.2686 122.413 51.983 121.962 51.9038C121.512 51.8245 121.068 51.8565 120.631 51.9998C120.368 52.0857 120.153 52.2558 119.987 52.5099C119.818 52.7513 119.699 53.05 119.629 53.406C119.557 53.7492 119.532 54.1304 119.553 54.5498C119.572 54.9564 119.638 55.3678 119.751 55.7842L123.402 52.7605ZM129.439 60.8785C129.088 59.1157 128.792 57.6211 128.549 56.3946C128.306 55.1681 128.107 54.1521 127.952 53.3465C127.797 52.5409 127.673 51.9148 127.581 51.4683C127.5 51.0067 127.434 50.668 127.382 50.4522C127.344 50.2343 127.321 50.106 127.315 50.0676C127.306 50.0163 127.3 49.9842 127.298 49.9714C127.29 49.8537 127.331 49.7474 127.42 49.6523C127.509 49.5573 127.61 49.4932 127.723 49.46C127.847 49.4118 127.971 49.4031 128.095 49.4341C128.22 49.465 128.318 49.5337 128.389 49.64L129.227 54.0538C129.264 53.1351 129.441 52.3435 129.76 51.679C130.092 51.0123 130.498 50.4647 130.978 50.0364C131.456 49.5952 131.974 49.2724 132.533 49.0681C133.105 48.8615 133.648 48.759 134.164 48.7606C134.338 48.7697 134.472 48.8187 134.567 48.9077C134.675 48.9945 134.74 49.102 134.763 49.2302C134.796 49.3434 134.784 49.4644 134.728 49.5934C134.682 49.7073 134.605 49.8 134.499 49.8717C133.915 49.935 133.379 50.0824 132.891 50.3138C132.414 50.5303 131.987 50.8104 131.612 51.1543C131.246 51.4831 130.935 51.8553 130.678 52.2709C130.433 52.6842 130.257 53.1054 130.147 53.5346C129.98 54.1591 129.901 54.801 129.912 55.4602C129.933 56.1044 129.986 56.7429 130.071 57.3757C130.169 58.0063 130.274 58.6026 130.386 59.1646C130.511 59.7242 130.605 60.2168 130.667 60.6422C130.679 60.7855 130.634 60.9058 130.532 61.0031C130.441 61.0853 130.324 61.1389 130.183 61.1637C130.057 61.1992 129.918 61.1973 129.766 61.158C129.624 61.1037 129.515 61.0105 129.439 60.8785ZM138.517 59.4762C138.446 59.2242 138.348 58.8184 138.223 58.2587C138.108 57.6839 137.974 57.0334 137.819 56.307C137.675 55.5655 137.523 54.7791 137.364 53.9479C137.204 53.1167 137.037 52.3197 136.863 51.5571C136.699 50.7795 136.527 50.0629 136.345 49.4074C136.176 48.7496 136.018 48.2288 135.871 47.8448C135.815 47.5243 135.879 47.3278 136.065 47.2554C136.261 47.1679 136.492 47.1272 136.757 47.1333C137.042 48.0747 137.273 48.9331 137.449 49.7085C137.638 50.4817 137.794 51.1749 137.915 51.7881C138.047 52.3863 138.159 52.9086 138.251 53.3552C138.353 53.7866 138.46 54.1313 138.572 54.3893C138.516 53.1696 138.497 52.1284 138.517 51.2655C138.537 50.4026 138.59 49.6924 138.677 49.135C138.774 48.5626 138.91 48.1353 139.085 47.8532C139.258 47.5583 139.469 47.369 139.719 47.2853C139.945 47.219 140.196 47.3665 140.471 47.7278C140.744 48.0763 141.017 48.5372 141.29 49.1105C141.576 49.6815 141.845 50.3084 142.098 50.991C142.361 51.6586 142.583 52.2805 142.764 52.8568C142.972 51.4848 143.15 50.3957 143.299 49.5894C143.46 48.7808 143.616 48.165 143.766 47.7418C143.914 47.3059 144.069 47.0208 144.23 46.8866C144.404 46.7501 144.608 46.6679 144.841 46.64C145.151 46.5986 145.418 46.6902 145.643 46.915C145.879 47.1248 146.085 47.4322 146.262 47.8372C146.437 48.2295 146.592 48.6979 146.728 49.2425C146.874 49.772 147.013 50.3359 147.145 50.934C147.29 51.5299 147.443 52.1375 147.605 52.7568C147.778 53.361 147.972 53.935 148.187 54.4789C148.402 55.0228 148.655 55.5203 148.946 55.9713C149.235 56.4096 149.579 56.7521 149.98 56.9988C149.905 57.25 149.805 57.4725 149.681 57.6663C149.554 57.8473 149.398 57.9012 149.214 57.828C148.799 57.65 148.425 57.2928 148.093 56.7564C147.771 56.205 147.473 55.5699 147.201 54.851C146.929 54.1321 146.691 53.3808 146.486 52.5971C146.28 51.8006 146.092 51.0734 145.923 50.4157C145.754 49.7579 145.6 49.2167 145.459 48.792C145.33 48.3651 145.214 48.1543 145.109 48.1595C144.728 48.1738 144.446 48.8251 144.264 50.1134C144.094 51.3994 143.906 53.2967 143.7 55.8054C143.666 55.9834 143.61 56.1188 143.534 56.2116C143.456 56.2915 143.372 56.3394 143.282 56.3552C143.192 56.3711 143.098 56.3612 142.999 56.3258C142.898 56.2775 142.807 56.2141 142.727 56.1357C142.376 55.1928 142.057 54.2838 141.771 53.4088C141.497 52.5316 141.248 51.7558 141.023 51.0814C140.798 50.407 140.591 49.8685 140.401 49.4657C140.224 49.0606 140.069 48.8565 139.936 48.8535C139.816 48.8482 139.723 48.9968 139.658 49.2992C139.603 49.5866 139.567 49.983 139.55 50.4883C139.531 50.9809 139.523 51.5707 139.525 52.2579C139.538 52.9299 139.553 53.6544 139.571 54.4313C139.589 55.2082 139.605 56.0119 139.619 56.8424C139.631 57.66 139.629 58.4735 139.613 59.2828C139.58 59.3945 139.517 59.485 139.423 59.5543C139.332 59.6365 139.229 59.6878 139.113 59.7082C139.011 59.7263 138.903 59.7187 138.792 59.6855C138.68 59.6523 138.589 59.5825 138.517 59.4762ZM149.683 45.5086C149.753 45.4565 149.837 45.4087 149.935 45.3649C150.033 45.3212 150.127 45.2914 150.217 45.2756C150.32 45.2575 150.419 45.2598 150.516 45.2824C150.612 45.3051 150.695 45.3631 150.765 45.4567C150.912 46.2902 151.077 47.1931 151.262 48.1654C151.457 49.1226 151.656 50.099 151.858 51.0947C152.071 52.0753 152.274 53.0442 152.47 54.0014C152.665 54.9586 152.848 55.8452 153.018 56.6614C153.065 56.8515 153.039 57.008 152.942 57.1309C152.845 57.2539 152.726 57.3278 152.585 57.3526C152.456 57.3752 152.326 57.3454 152.192 57.2632C152.061 57.1938 151.977 57.0565 151.941 56.8513L149.683 45.5086ZM148.76 41.6254C148.731 41.4587 148.769 41.3396 148.876 41.2679C148.98 41.1835 149.102 41.1288 149.244 41.1039C149.526 41.0542 149.716 41.1198 149.814 41.3009C149.922 41.4668 149.998 41.6716 150.041 41.9153C149.991 42.0827 149.908 42.2098 149.791 42.2965C149.674 42.3832 149.542 42.4198 149.394 42.4062C149.259 42.3903 149.128 42.3209 149 42.198C148.885 42.0727 148.806 41.8819 148.76 41.6254ZM154.788 51.4904C154.711 51.5832 154.557 51.6435 154.324 51.6714C154.101 51.6842 153.887 51.669 153.681 51.626C153.488 51.5807 153.348 51.4996 153.261 51.3827C153.172 51.253 153.221 51.0791 153.407 50.8611C153.484 50.7684 153.571 50.7001 153.669 50.6564C153.777 50.5976 153.881 50.5463 153.979 50.5026C154.087 50.4437 154.168 50.3766 154.221 50.3012C154.287 50.2235 154.313 50.113 154.301 49.9697C154.212 49.3904 154.153 48.7926 154.124 48.1764C154.107 47.5579 154.173 46.9911 154.32 46.4759C154.467 45.9608 154.727 45.5248 155.101 45.1681C155.487 44.8091 156.038 44.5995 156.755 44.5393C157.011 44.494 157.311 44.5073 157.654 44.579C157.995 44.6379 158.331 44.7439 158.662 44.8971C158.991 45.0374 159.29 45.2294 159.557 45.4731C159.823 45.7039 160.009 45.9751 160.117 46.2866C160.23 46.399 160.207 46.5684 160.048 46.7946C159.89 47.0209 159.659 47.2864 159.356 47.5911C159.05 47.8829 158.701 48.1891 158.308 48.5096C157.915 48.8301 157.532 49.1356 157.16 49.4259C156.801 49.714 156.483 49.9685 156.204 50.1895C155.926 50.4104 155.748 50.5609 155.669 50.6408C155.834 51.1274 156.01 51.6384 156.197 52.174C156.384 52.7095 156.602 53.1934 156.85 53.6257C157.098 54.0579 157.371 54.4064 157.669 54.6712C157.977 54.9209 158.324 55.0119 158.709 54.944C159.28 54.883 159.746 54.7149 160.107 54.4396C160.481 54.1621 160.774 53.8329 160.984 53.452C161.195 53.0711 161.342 52.6684 161.426 52.2437C161.522 51.8168 161.577 51.4171 161.591 51.0444C161.617 50.6696 161.622 50.3581 161.605 50.1099C161.598 49.8466 161.605 49.6999 161.626 49.6698C161.754 49.568 161.914 49.5397 162.107 49.585C162.298 49.6174 162.433 49.7853 162.513 50.0885C162.614 50.5864 162.606 51.1762 162.488 51.8581C162.37 52.5399 162.154 53.1863 161.838 53.7972C161.536 54.4059 161.132 54.9266 160.626 55.3595C160.131 55.7773 159.561 55.9903 158.914 55.9985C158.258 56.101 157.706 56.0067 157.258 55.7154C156.808 55.4114 156.422 55.0233 156.101 54.5511C155.79 54.0638 155.533 53.5406 155.328 52.9817C155.124 52.4227 154.944 51.9256 154.788 51.4904ZM159.098 46.4664C158.588 45.9745 158.108 45.689 157.658 45.6097C157.207 45.5304 156.763 45.5624 156.326 45.7057C156.063 45.7916 155.849 45.9617 155.682 46.2159C155.513 46.4572 155.394 46.7559 155.324 47.1119C155.253 47.4551 155.227 47.8364 155.249 48.2558C155.267 48.6623 155.333 49.0738 155.446 49.4902L159.098 46.4664ZM165.134 54.5845C164.784 52.8217 164.487 51.327 164.245 50.1005C164.002 48.874 163.803 47.858 163.648 47.0524C163.492 46.2468 163.369 45.6208 163.277 45.1742C163.195 44.7126 163.129 44.3739 163.078 44.1582C163.039 43.9402 163.017 43.812 163.01 43.7735C163.001 43.7222 162.995 43.6901 162.993 43.6773C162.986 43.5596 163.026 43.4533 163.115 43.3583C163.204 43.2632 163.305 43.1991 163.419 43.166C163.542 43.1177 163.666 43.1091 163.791 43.14C163.915 43.1709 164.013 43.2396 164.085 43.346L164.923 47.7597C164.959 46.841 165.137 46.0494 165.456 45.385C165.788 44.7182 166.194 44.1707 166.674 43.7423C167.151 43.3011 167.669 42.9784 168.228 42.774C168.8 42.5675 169.344 42.4649 169.86 42.4665C170.033 42.4756 170.167 42.5246 170.263 42.6137C170.37 42.7004 170.436 42.8079 170.458 42.9361C170.491 43.0493 170.48 43.1704 170.423 43.2993C170.377 43.4132 170.301 43.506 170.194 43.5776C169.611 43.6409 169.075 43.7883 168.587 44.0198C168.109 44.2362 167.683 44.5163 167.307 44.8602C166.942 45.1891 166.631 45.5612 166.373 45.9768C166.129 46.3901 165.952 46.8114 165.843 47.2405C165.675 47.8651 165.596 48.5069 165.607 49.1662C165.628 49.8103 165.681 50.4488 165.766 51.0817C165.864 51.7123 165.969 52.3085 166.082 52.8705C166.207 53.4302 166.3 53.9227 166.362 54.3482C166.374 54.4915 166.329 54.6118 166.227 54.7091C166.136 54.7913 166.02 54.8448 165.879 54.8697C165.753 54.9051 165.614 54.9032 165.461 54.864C165.32 54.8096 165.211 54.7165 165.134 54.5845ZM107.381 90.7843C107.296 91.1297 107.15 91.5389 106.943 92.0118C106.735 92.4847 106.479 92.9399 106.172 93.3773C105.866 93.8148 105.512 94.2077 105.111 94.5561C104.72 94.8894 104.287 95.0979 103.813 95.1816C103.608 95.2178 103.437 95.2215 103.299 95.1928C103.175 95.1619 103.053 95.1106 102.935 95.0389C102.827 94.9522 102.722 94.845 102.621 94.7176C102.519 94.5901 102.394 94.4467 102.247 94.2876C102.019 93.6668 101.829 92.9664 101.678 92.1865C101.54 91.4042 101.466 90.6043 101.454 89.7867C101.454 88.9668 101.526 88.1741 101.669 87.4085C101.822 86.6278 102.071 85.9426 102.417 85.3528C102.775 84.7607 103.243 84.3015 103.82 83.9749C104.408 83.6333 105.129 83.4864 105.984 83.534C105.918 82.7126 105.782 81.9036 105.575 81.107C105.367 80.2977 105.165 79.454 104.97 78.576C104.948 78.4478 104.99 78.3478 105.096 78.2762C105.2 78.1917 105.322 78.1306 105.46 78.0929C105.61 78.0402 105.75 78.0089 105.88 77.9991C106.024 77.987 106.118 77.9969 106.163 78.0285C106.354 79.1849 106.527 80.245 106.684 81.209C106.854 82.1708 107.014 83.0812 107.166 83.9403C107.315 84.7867 107.46 85.6073 107.6 86.4024C107.74 87.1974 107.884 88.0116 108.031 88.8451C108.19 89.6764 108.352 90.5536 108.515 91.4769C108.69 92.3979 108.875 93.4098 109.07 94.5125C109.17 94.7064 109.181 94.8829 109.103 95.042C109.039 95.1989 108.939 95.309 108.805 95.3724C108.67 95.4357 108.52 95.4425 108.352 95.3927C108.198 95.3406 108.082 95.209 108.005 94.9978L107.381 90.7843ZM105.362 84.7343C104.861 84.7433 104.423 84.9594 104.049 85.3825C103.684 85.7905 103.387 86.3188 103.158 86.9674C102.926 87.6033 102.766 88.3058 102.677 89.0752C102.585 89.8317 102.568 90.5555 102.623 91.2464C102.69 91.9222 102.828 92.5192 103.038 93.0375C103.249 93.5557 103.539 93.888 103.908 94.0344C104.229 93.9778 104.524 93.8134 104.793 93.5412C105.06 93.2561 105.298 92.9167 105.506 92.523C105.727 92.127 105.916 91.6971 106.072 91.2333C106.239 90.7543 106.376 90.2939 106.483 89.8519C106.59 89.4099 106.659 89.0143 106.69 88.6651C106.731 88.3007 106.736 88.0288 106.705 87.8493C106.68 87.7083 106.636 87.4582 106.572 87.0992C106.509 86.7401 106.419 86.3792 106.302 86.0164C106.198 85.6513 106.064 85.3379 105.898 85.0761C105.746 84.8121 105.567 84.6982 105.362 84.7343ZM110.843 88.6865C110.766 88.7792 110.612 88.8395 110.379 88.8674C110.156 88.8802 109.942 88.8651 109.736 88.8221C109.543 88.7768 109.403 88.6957 109.316 88.5788C109.227 88.449 109.276 88.2752 109.462 88.0572C109.539 87.9644 109.626 87.8962 109.724 87.8524C109.832 87.7936 109.936 87.7423 110.034 87.6986C110.142 87.6398 110.223 87.5727 110.276 87.4973C110.342 87.4196 110.368 87.3091 110.356 87.1658C110.267 86.5865 110.208 85.9887 110.179 85.3724C110.162 84.7539 110.228 84.1871 110.375 83.672C110.522 83.1568 110.782 82.7209 111.156 82.3641C111.542 82.0052 112.093 81.7956 112.81 81.7353C113.067 81.6901 113.366 81.7033 113.71 81.775C114.05 81.8339 114.386 81.9399 114.718 82.0931C115.046 82.2334 115.345 82.4254 115.612 82.6691C115.878 82.9 116.065 83.1712 116.172 83.4827C116.285 83.5951 116.262 83.7644 116.103 83.9907C115.945 84.2169 115.714 84.4824 115.411 84.7871C115.105 85.079 114.756 85.3851 114.363 85.7057C113.97 86.0262 113.587 86.3316 113.216 86.6219C112.856 86.91 112.538 87.1646 112.259 87.3855C111.981 87.6065 111.803 87.7569 111.724 87.8369C111.889 88.3234 112.065 88.8345 112.252 89.37C112.439 89.9056 112.657 90.3895 112.905 90.8217C113.153 91.254 113.426 91.6025 113.724 91.8673C114.032 92.117 114.379 92.2079 114.764 92.1401C115.335 92.0791 115.801 91.9109 116.162 91.6357C116.536 91.3581 116.829 91.0289 117.039 90.6481C117.25 90.2672 117.397 89.8644 117.481 89.4398C117.577 89.0129 117.632 88.6131 117.646 88.2405C117.672 87.8656 117.677 87.5541 117.66 87.3059C117.653 87.0427 117.66 86.896 117.681 86.8658C117.809 86.764 117.969 86.7358 118.162 86.781C118.353 86.8135 118.488 86.9813 118.568 87.2846C118.669 87.7824 118.661 88.3723 118.543 89.0541C118.425 89.736 118.209 90.3823 117.893 90.9933C117.591 91.6019 117.187 92.1227 116.681 92.5556C116.187 92.9734 115.616 93.1864 114.969 93.1946C114.313 93.2971 113.761 93.2027 113.313 92.9115C112.863 92.6075 112.477 92.2193 112.156 91.7471C111.845 91.2598 111.588 90.7367 111.383 90.1777C111.179 89.6188 110.999 89.1217 110.843 88.6865ZM115.153 83.6624C114.643 83.1706 114.163 82.885 113.713 82.8058C113.262 82.7265 112.819 82.7585 112.381 82.9017C112.119 82.9877 111.904 83.1578 111.737 83.4119C111.568 83.6533 111.449 83.9519 111.38 84.3079C111.308 84.6511 111.283 85.0324 111.304 85.4518C111.322 85.8584 111.388 86.2698 111.501 86.6862L115.153 83.6624ZM132.383 89.3307C131.861 86.5934 131.414 84.3188 131.041 82.507C130.667 80.6823 130.361 79.2092 130.123 78.0876C129.884 76.9531 129.703 76.1188 129.583 75.5848C129.46 75.0379 129.384 74.6811 129.354 74.5144C129.32 74.3221 129.345 74.1592 129.427 74.0257C129.522 73.8899 129.635 73.8171 129.765 73.8074C129.893 73.7847 130.028 73.8338 130.168 73.9545C130.306 74.0624 130.407 74.2627 130.472 74.5553L133.574 88.5457L141.609 85.3042C142.469 85.1527 142.719 85.4854 142.361 86.3022L133.068 90.0629C132.709 90.1262 132.481 89.8821 132.383 89.3307ZM151.234 86.6614C151.007 86.4238 150.829 86.0915 150.701 85.6646C150.585 85.2354 150.48 84.7847 150.383 84.3125C150.297 83.8252 150.213 83.3508 150.132 82.8891C150.061 82.4124 149.958 82.0141 149.822 81.6943C149.452 83.1213 149.064 84.2542 148.656 85.0929C148.26 85.9165 147.865 86.5282 147.473 86.9279C147.091 87.3125 146.718 87.5237 146.355 87.5613C145.989 87.5862 145.659 87.5122 145.364 87.3394C145.079 87.1516 144.838 86.9098 144.641 86.6141C144.441 86.3056 144.309 86.005 144.244 85.7123C144.068 85.2409 143.959 84.6585 143.916 83.9654C143.884 83.2571 143.906 82.5194 143.982 81.7523C144.071 80.983 144.215 80.2238 144.413 79.4748C144.622 78.7108 144.887 78.0361 145.207 77.4509C145.539 76.8633 145.921 76.4059 146.353 76.0786C146.782 75.7385 147.268 75.6066 147.81 75.6828C148.062 75.6119 148.276 75.5875 148.452 75.6094C148.638 75.6162 148.801 75.6799 148.942 75.8006C149.082 75.9213 149.2 76.1054 149.297 76.3528C149.391 76.5874 149.485 76.8948 149.578 77.275C149.772 78.5233 149.991 79.5756 150.234 80.4317C150.491 81.2856 150.742 82.0346 150.987 82.6788C151.233 83.323 151.461 83.9042 151.672 84.4224C151.895 84.9384 152.07 85.4826 152.198 86.0551C152.234 86.2603 152.211 86.4296 152.129 86.5631C152.044 86.6838 151.94 86.7682 151.816 86.8165C151.695 86.8776 151.572 86.8926 151.447 86.8617C151.336 86.8285 151.264 86.7617 151.234 86.6614ZM148.405 77.1447C148.025 76.7886 147.661 76.6743 147.313 76.8017C146.966 76.9291 146.646 77.2169 146.355 77.6649C146.074 78.0978 145.828 78.6502 145.616 79.3223C145.402 79.9815 145.24 80.6777 145.131 81.4108C145.023 82.1439 144.972 82.8669 144.978 83.5797C144.996 84.2774 145.083 84.8835 145.24 85.3979C145.521 85.9433 145.8 86.2511 146.077 86.3213C146.353 86.3915 146.622 86.3044 146.883 86.06C147.142 85.8029 147.387 85.4291 147.618 84.9389C147.849 84.4486 148.061 83.9286 148.255 83.3788C148.447 82.8161 148.607 82.2655 148.737 81.727C148.878 81.1733 148.988 80.711 149.068 80.3399L148.405 77.1447ZM154.207 85.9585C153.857 84.1957 153.56 82.7011 153.318 81.4746C153.075 80.2481 152.876 79.2321 152.721 78.4265C152.565 77.6209 152.442 76.9948 152.35 76.5483C152.268 76.0867 152.202 75.748 152.151 75.5323C152.112 75.3143 152.09 75.186 152.083 75.1476C152.074 75.0963 152.068 75.0642 152.066 75.0514C152.059 74.9337 152.099 74.8274 152.188 74.7324C152.277 74.6373 152.378 74.5732 152.492 74.5401C152.615 74.4918 152.739 74.4831 152.864 74.5141C152.988 74.545 153.086 74.6137 153.158 74.72L153.996 79.1338C154.032 78.2151 154.21 77.4235 154.529 76.759C154.861 76.0923 155.267 75.5448 155.747 75.1164C156.224 74.6752 156.742 74.3525 157.301 74.1481C157.873 73.9415 158.417 73.839 158.933 73.8406C159.106 73.8497 159.241 73.8987 159.336 73.9878C159.443 74.0745 159.509 74.182 159.531 74.3102C159.564 74.4234 159.553 74.5444 159.496 74.6734C159.45 74.7873 159.374 74.8801 159.268 74.9517C158.684 75.015 158.148 75.1624 157.66 75.3939C157.182 75.6103 156.756 75.8904 156.38 76.2343C156.015 76.5631 155.704 76.9353 155.446 77.3509C155.202 77.7642 155.025 78.1855 154.916 78.6146C154.748 79.2391 154.67 79.881 154.68 80.5403C154.701 81.1844 154.754 81.8229 154.839 82.4558C154.937 83.0864 155.042 83.6826 155.155 84.2446C155.28 84.8043 155.373 85.2968 155.435 85.7222C155.447 85.8656 155.402 85.9859 155.3 86.0831C155.209 86.1654 155.093 86.2189 154.952 86.2438C154.826 86.2792 154.687 86.2773 154.534 86.238C154.393 86.1837 154.284 86.0905 154.207 85.9585ZM163.015 84.4849C162.969 84.374 162.991 84.1586 163.08 83.8388C163.182 83.5168 163.323 83.1215 163.505 82.6532C163.7 82.1825 163.925 81.6602 164.181 81.0862C164.449 80.51 164.729 79.9187 165.018 79.3123C165.306 78.6931 165.588 78.0814 165.865 77.4773C166.155 76.8709 166.418 76.3022 166.655 75.7712C166.892 75.2402 167.093 74.7685 167.258 74.3559C167.421 73.9305 167.522 73.602 167.56 73.3705L162.053 74.302C162.006 74.3367 161.906 74.3344 161.754 74.2952C161.612 74.2408 161.48 74.165 161.357 74.0677C161.232 73.9575 161.144 73.8342 161.093 73.6977C161.043 73.5611 161.092 73.4269 161.24 73.2949C161.717 73.2241 162.271 73.1397 162.901 73.0417C163.545 72.9415 164.199 72.8262 164.863 72.6958C165.541 72.5631 166.203 72.4199 166.85 72.2661C167.495 72.0995 168.06 71.9272 168.544 71.7493C168.777 71.7214 168.948 71.7573 169.059 71.8568C169.179 71.9413 169.237 72.1163 169.23 72.3818L164.588 83.0572L170.626 81.8735C170.78 81.8463 170.896 81.8656 170.974 81.9312C171.049 81.984 171.092 82.0757 171.102 82.2062C171.109 82.3238 171.082 82.4675 171.019 82.6372C170.956 82.8069 170.874 82.98 170.773 83.1565L163.015 84.4849ZM179.578 81.6636C179.351 81.426 179.173 81.0937 179.045 80.6667C178.929 80.2376 178.824 79.7869 178.727 79.3147C178.641 78.8274 178.557 78.3529 178.476 77.8913C178.405 77.4146 178.302 77.0163 178.166 76.6965C177.796 78.1235 177.408 79.2564 177 80.0951C176.604 80.9187 176.209 81.5304 175.817 81.9301C175.435 82.3147 175.062 82.5259 174.699 82.5635C174.333 82.5884 174.003 82.5144 173.708 82.3416C173.423 82.1538 173.182 81.912 172.985 81.6163C172.785 81.3078 172.653 81.0072 172.588 80.7145C172.412 80.2431 172.303 79.6607 172.26 78.9676C172.228 78.2593 172.25 77.5216 172.326 76.7545C172.415 75.9852 172.559 75.226 172.757 74.477C172.966 73.713 173.231 73.0383 173.551 72.453C173.883 71.8655 174.265 71.4081 174.697 71.0808C175.126 70.7407 175.612 70.6087 176.154 70.685C176.406 70.6141 176.62 70.5897 176.796 70.6116C176.982 70.6184 177.145 70.6821 177.286 70.8028C177.426 70.9235 177.544 71.1076 177.641 71.355C177.735 71.5896 177.829 71.897 177.922 72.2772C178.116 73.5255 178.335 74.5778 178.578 75.4339C178.835 76.2878 179.086 77.0368 179.331 77.681C179.577 78.3252 179.805 78.9064 180.016 79.4246C180.239 79.9405 180.414 80.4848 180.542 81.0573C180.578 81.2625 180.555 81.4318 180.473 81.5653C180.388 81.686 180.284 81.7704 180.16 81.8187C180.039 81.8798 179.916 81.8948 179.791 81.8639C179.68 81.8307 179.608 81.7639 179.578 81.6636ZM176.749 72.1469C176.369 71.7908 176.005 71.6765 175.657 71.8039C175.31 71.9313 174.99 72.219 174.699 72.667C174.418 73.1 174.172 73.6524 173.96 74.3245C173.746 74.9837 173.584 75.6798 173.475 76.413C173.367 77.1461 173.316 77.8691 173.322 78.5819C173.34 79.2796 173.427 79.8857 173.584 80.4001C173.865 80.9455 174.144 81.2533 174.421 81.3235C174.697 81.3936 174.966 81.3066 175.227 81.0622C175.486 80.805 175.731 80.4313 175.962 79.9411C176.193 79.4508 176.405 78.9308 176.599 78.381C176.791 77.8183 176.951 77.2677 177.081 76.7292C177.222 76.1755 177.332 75.7132 177.412 75.3421L176.749 72.1469ZM181.709 76.4089C181.655 75.8764 181.606 75.3363 181.562 74.7887C181.519 74.2411 181.504 73.7082 181.518 73.19C181.531 72.659 181.58 72.1544 181.668 71.6762C181.756 71.198 181.898 70.7696 182.096 70.391C182.306 70.0101 182.581 69.6907 182.919 69.4328C183.269 69.1726 183.709 69.0026 184.237 68.9227C184.596 68.8594 184.899 68.9647 185.145 69.2385C185.39 69.4995 185.587 69.8348 185.739 70.2444C185.903 70.6517 186.025 71.0798 186.104 71.5286C186.196 71.9752 186.267 72.3395 186.317 72.6216C186.138 72.7324 185.971 72.7618 185.817 72.7098C185.675 72.6554 185.544 72.5528 185.425 72.402C185.317 72.236 185.21 72.0433 185.105 71.8238C185 71.6043 184.902 71.3836 184.81 71.1619C184.731 70.9378 184.641 70.7289 184.541 70.535C184.453 70.3389 184.36 70.1835 184.26 70.0688C184.011 70.0069 183.793 70.0786 183.604 70.2837C183.415 70.4888 183.26 70.7675 183.137 71.1198C183.011 71.4592 182.91 71.8604 182.833 72.3235C182.769 72.7844 182.725 73.2483 182.702 73.7152C182.676 74.1692 182.667 74.6071 182.676 75.0287C182.684 75.4504 182.713 75.8023 182.763 76.0844C182.843 76.4668 182.955 76.8768 183.098 77.3143C183.239 77.7389 183.414 78.1312 183.623 78.491C183.832 78.8508 184.077 79.1514 184.357 79.3928C184.636 79.6214 184.961 79.7425 185.334 79.7562C185.821 79.6702 186.218 79.5209 186.524 79.3083C186.841 79.0805 187.087 78.8256 187.262 78.5435C187.447 78.2464 187.577 77.9326 187.651 77.6023C187.725 77.2719 187.774 76.9461 187.796 76.6247C187.817 76.2906 187.822 75.9855 187.813 75.7094C187.815 75.4183 187.825 75.1784 187.845 74.9899C188.163 74.8413 188.42 74.8025 188.618 74.8734C188.828 74.9421 188.946 75.047 188.971 75.188C189.075 75.7779 189.076 76.3858 188.975 77.0119C188.872 77.6251 188.668 78.1964 188.365 78.7259C188.075 79.2531 187.685 79.7052 187.196 80.0823C186.707 80.4593 186.123 80.7078 185.443 80.8276C184.866 80.9294 184.36 80.8335 183.925 80.54C183.488 80.2337 183.115 79.8433 182.806 79.3689C182.511 78.8921 182.268 78.3796 182.079 77.8312C181.903 77.2805 181.779 76.8064 181.709 76.4089Z" fill="#2C2C2C"/>
<path d="M116.5 22.3048C106.09 12.4085 87.4998 -0.678853 70.8464 1.17758C59.7887 2.41022 48.7409 9.93355 45.2842 22.5957M45.2842 22.5957C44.6001 25.1015 44.2389 27.9146 44.2746 31.0894C44.4586 47.4598 57.1983 40.91 57.8461 35.2079C58.5513 29 52.6991 26.3124 45.2842 22.5957ZM45.2842 22.5957C39.4173 19.655 32.4998 18.8203 26.0663 19.7621C13.7986 21.558 3.00857 32.977 3.00857 32.977M11.0718 32.575L1 35.8203L1.85404 23.1398" stroke="#2C2C2C" stroke-linecap="round" stroke-linejoin="round"/>
</svg>
