<svg width="206" height="105" viewBox="0 0 206 105" fill="none" xmlns="http://www.w3.org/2000/svg">
<rect x="106.855" y="75.3628" width="72.374" height="23.0897" transform="rotate(-9.59682 106.855 75.3628)" fill="white"/>
<rect x="98.2881" y="45.9541" width="80.7408" height="23.0897" transform="rotate(-9.59682 98.2881 45.9541)" fill="white"/>
<path d="M112.188 64.0386C111.956 62.7179 111.753 61.4578 111.581 60.2585C111.422 59.0569 111.266 57.9078 111.112 56.811C110.959 55.7143 110.8 54.6647 110.636 53.6622C110.471 52.6469 110.266 51.6716 110.021 50.7363C109.964 50.7861 109.898 50.8638 109.824 50.9693C109.763 51.0727 109.696 51.1771 109.622 51.2827C109.561 51.386 109.492 51.4841 109.416 51.5769C109.337 51.6568 109.266 51.7024 109.202 51.7137C109.1 51.7318 108.997 51.7103 108.893 51.6492C108.8 51.573 108.743 51.4708 108.72 51.3426L108.71 51.2849C108.708 51.272 108.711 51.2517 108.719 51.2238C108.81 51.0624 108.905 50.8142 109.004 50.4793C109.117 50.1422 109.236 49.8039 109.361 49.4645C109.499 49.1228 109.631 48.8219 109.757 48.5617C109.893 48.2864 110.026 48.1374 110.154 48.1148C110.282 48.0922 110.384 48.1073 110.46 48.1601C110.535 48.2129 110.6 48.2808 110.654 48.3638C110.721 48.4445 110.783 48.5328 110.84 48.6286C110.909 48.7221 111.001 48.7919 111.115 48.8379C111.505 48.5046 111.941 48.203 112.423 47.933C112.902 47.6502 113.392 47.4315 113.894 47.277C114.406 47.1073 114.91 47.0052 115.406 46.9706C115.9 46.9231 116.363 46.9605 116.795 47.0828C117.239 47.2028 117.634 47.4174 117.979 47.7267C118.324 48.036 118.59 48.452 118.774 48.9748C118.886 49.6823 118.797 50.3789 118.508 51.0645C118.219 51.7501 117.831 52.4002 117.345 53.0149C116.856 53.6167 116.313 54.1752 115.716 54.6903C115.117 55.1925 114.562 55.6409 114.05 56.0353C113.535 56.4169 113.113 56.7227 112.783 56.9527C112.454 57.1827 112.305 57.3147 112.338 57.3486L113.22 63.817C113.238 63.9196 113.207 64.0045 113.126 64.0716C113.043 64.1259 112.944 64.1632 112.829 64.1836C112.711 64.1911 112.591 64.1858 112.469 64.1677C112.345 64.1367 112.251 64.0937 112.188 64.0386ZM112.1 56.0022C112.711 55.6432 113.341 55.2413 113.99 54.7964C114.639 54.3514 115.234 53.8695 115.778 53.3507C116.319 52.819 116.773 52.2496 117.142 51.6424C117.522 51.0202 117.734 50.3482 117.779 49.6263C117.547 48.9135 117.166 48.4386 116.635 48.2017C116.114 47.9497 115.527 47.8814 114.873 47.9967C114.23 48.0969 113.568 48.3525 112.886 48.7635C112.216 49.1594 111.616 49.6553 111.086 50.2511L112.1 56.0022ZM126.051 61.6537C125.824 61.4161 125.647 61.0838 125.519 60.6569C125.403 60.2277 125.297 59.777 125.201 59.3048C125.115 58.8175 125.031 58.3431 124.95 57.8815C124.879 57.4047 124.776 57.0065 124.64 56.6866C124.27 58.1137 123.882 59.2465 123.474 60.0852C123.077 60.9089 122.683 61.5205 122.29 61.9202C121.909 62.3049 121.536 62.516 121.173 62.5537C120.807 62.5785 120.476 62.5045 120.181 62.3318C119.897 62.1439 119.656 61.9021 119.459 61.6064C119.259 61.2979 119.126 60.9973 119.062 60.7046C118.886 60.2332 118.777 59.6509 118.734 58.9577C118.701 58.2494 118.723 57.5117 118.8 56.7447C118.889 55.9753 119.033 55.2161 119.231 54.4672C119.44 53.7031 119.705 53.0285 120.024 52.4432C120.357 51.8557 120.739 51.3982 121.171 51.0709C121.6 50.7308 122.086 50.5989 122.628 50.6752C122.88 50.6043 123.094 50.5798 123.27 50.6017C123.456 50.6085 123.619 50.6723 123.759 50.793C123.9 50.9137 124.018 51.0977 124.115 51.3452C124.209 51.5797 124.303 51.8871 124.396 52.2673C124.59 53.5157 124.809 54.5679 125.052 55.424C125.308 56.2779 125.559 57.0269 125.805 57.6711C126.051 58.3153 126.279 58.8965 126.489 59.4147C126.713 59.9307 126.888 60.4749 127.015 61.0474C127.052 61.2526 127.029 61.4219 126.946 61.5554C126.862 61.6761 126.758 61.7606 126.634 61.8088C126.513 61.8699 126.39 61.885 126.265 61.854C126.154 61.8208 126.082 61.7541 126.051 61.6537ZM123.223 52.137C122.843 51.7809 122.479 51.6666 122.131 51.7941C121.783 51.9215 121.464 52.2092 121.173 52.6572C120.892 53.0901 120.646 53.6426 120.434 54.3146C120.219 54.9738 120.058 55.67 119.949 56.4031C119.84 57.1363 119.789 57.8592 119.796 58.572C119.813 59.2697 119.9 59.8758 120.057 60.3903C120.339 60.9356 120.618 61.2434 120.894 61.3136C121.171 61.3838 121.44 61.2967 121.701 61.0524C121.96 60.7952 122.205 60.4215 122.436 59.9312C122.666 59.441 122.879 58.9209 123.073 58.3711C123.264 57.8084 123.425 57.2578 123.555 56.7193C123.695 56.1657 123.806 55.7033 123.886 55.3322L123.223 52.137ZM129.025 60.9509C128.675 59.1881 128.378 57.6934 128.135 56.467C127.893 55.2405 127.694 54.2244 127.538 53.4188C127.383 52.6132 127.26 51.9872 127.168 51.5406C127.086 51.079 127.02 50.7403 126.969 50.5246C126.93 50.3066 126.908 50.1784 126.901 50.1399C126.892 50.0886 126.886 50.0566 126.884 50.0437C126.876 49.9261 126.917 49.8197 127.006 49.7247C127.095 49.6297 127.196 49.5656 127.309 49.5324C127.433 49.4841 127.557 49.4755 127.682 49.5064C127.806 49.5374 127.904 49.606 127.976 49.7124L128.813 54.1261C128.85 53.2074 129.028 52.4159 129.347 51.7514C129.679 51.0846 130.085 50.5371 130.564 50.1087C131.042 49.6676 131.56 49.3448 132.119 49.1405C132.691 48.9339 133.235 48.8314 133.751 48.8329C133.924 48.842 134.058 48.8911 134.153 48.9801C134.261 49.0668 134.326 49.1743 134.349 49.3026C134.382 49.4157 134.37 49.5368 134.314 49.6657C134.268 49.7796 134.192 49.8724 134.085 49.944C133.502 50.0073 132.966 50.1547 132.478 50.3862C132 50.6026 131.573 50.8828 131.198 51.2267C130.833 51.5555 130.521 51.9277 130.264 52.3432C130.02 52.7566 129.843 53.1778 129.733 53.607C129.566 54.2315 129.487 54.8734 129.498 55.5326C129.519 56.1767 129.572 56.8153 129.657 57.4481C129.755 58.0787 129.86 58.675 129.972 59.2369C130.098 59.7966 130.191 60.2892 130.253 60.7146C130.265 60.8579 130.22 60.9782 130.118 61.0755C130.027 61.1577 129.911 61.2112 129.77 61.2361C129.644 61.2715 129.505 61.2696 129.352 61.2304C129.21 61.1761 129.101 61.0829 129.025 60.9509ZM136.013 47.9184C136.083 47.8664 136.167 47.8185 136.265 47.7747C136.363 47.731 136.457 47.7012 136.547 47.6854C136.65 47.6673 136.749 47.6696 136.846 47.6922C136.942 47.7149 137.025 47.773 137.094 47.8665C137.241 48.7 137.407 49.6029 137.592 50.5752C137.787 51.5324 137.986 52.5088 138.188 53.5045C138.4 54.4851 138.604 55.454 138.799 56.4112C138.995 57.3684 139.177 58.2551 139.348 59.0712C139.395 59.2613 139.369 59.4178 139.272 59.5407C139.175 59.6637 139.055 59.7376 138.914 59.7625C138.786 59.7851 138.655 59.7553 138.522 59.673C138.391 59.6036 138.307 59.4663 138.271 59.2611L136.013 47.9184ZM135.09 44.0353C135.061 43.8686 135.099 43.7494 135.206 43.6777C135.31 43.5933 135.432 43.5386 135.573 43.5137C135.855 43.464 136.046 43.5296 136.144 43.7107C136.252 43.8766 136.328 44.0814 136.371 44.3251C136.321 44.4925 136.238 44.6196 136.121 44.7063C136.004 44.7931 135.871 44.8296 135.724 44.816C135.589 44.8002 135.457 44.7307 135.33 44.6078C135.215 44.4826 135.135 44.2917 135.09 44.0353ZM141.509 57.6984C141.787 57.8478 142.1 57.8984 142.449 57.8502C142.81 57.7997 143.174 57.6892 143.54 57.5188C143.918 57.3333 144.287 57.1029 144.648 56.8277C145.02 56.5373 145.35 56.2345 145.638 55.9193C145.939 55.6018 146.187 55.2805 146.381 54.9554C146.585 54.6153 146.71 54.3091 146.754 54.0368C146.796 53.7517 146.747 53.5092 146.606 53.3093C146.465 53.1094 146.204 52.9769 145.822 52.912C145.195 53.1812 144.563 53.4183 143.924 53.6234C143.286 53.8285 142.696 53.9325 142.155 53.9354C141.626 53.9361 141.172 53.798 140.793 53.5212C140.413 53.2443 140.175 52.7574 140.079 52.0604C140 51.3868 140.07 50.7332 140.289 50.0997C140.518 49.451 140.847 48.8775 141.274 48.3789C141.715 47.8782 142.224 47.4645 142.801 47.138C143.391 46.8092 144.01 46.6075 144.658 46.5329C144.788 46.5232 144.906 46.5156 145.011 46.5104C145.126 46.49 145.232 46.4912 145.328 46.5138C145.425 46.5364 145.499 46.5828 145.551 46.653C145.616 46.7209 145.656 46.8329 145.67 46.989C145.691 47.1836 145.648 47.35 145.54 47.488C145.432 47.626 145.267 47.7014 145.044 47.7142C144.261 47.6937 143.587 47.8456 143.022 48.1699C142.458 48.4941 142.012 48.8901 141.685 49.3577C141.355 49.8125 141.15 50.2982 141.069 50.8148C140.988 51.3315 141.041 51.7784 141.226 52.1556C141.551 52.5743 141.917 52.8138 142.325 52.8742C142.743 52.9195 143.166 52.8845 143.595 52.7692C144.037 52.6515 144.481 52.5072 144.927 52.336C145.371 52.152 145.782 52.0465 146.16 52.0194C146.537 51.9795 146.869 52.0662 147.158 52.2797C147.445 52.4804 147.66 52.9119 147.803 53.5742C147.865 53.9996 147.796 54.4348 147.597 54.8798C147.395 55.312 147.114 55.7385 146.752 56.1593C146.4 56.5651 145.993 56.9542 145.529 57.3268C145.064 57.6865 144.591 58.0013 144.109 58.2713C143.641 58.539 143.188 58.7445 142.75 58.8877C142.326 59.0287 141.972 59.0845 141.689 59.055C141.349 58.8506 141.151 58.6277 141.095 58.3863C141.037 58.1321 141.175 57.9028 141.509 57.6984ZM148.388 45.7363C148.459 45.6842 148.543 45.6363 148.641 45.5926C148.739 45.5489 148.833 45.5191 148.922 45.5033C149.025 45.4852 149.125 45.4875 149.221 45.5101C149.318 45.5327 149.401 45.5908 149.47 45.6844C149.617 46.5179 149.783 47.4208 149.967 48.393C150.163 49.3503 150.361 50.3267 150.563 51.3224C150.776 52.303 150.98 53.2718 151.175 54.2291C151.37 55.1863 151.553 56.0729 151.723 56.8891C151.77 57.0792 151.745 57.2357 151.647 57.3586C151.55 57.4815 151.431 57.5554 151.29 57.5803C151.162 57.6029 151.031 57.5731 150.897 57.4909C150.766 57.4215 150.682 57.2842 150.646 57.079L148.388 45.7363ZM147.466 41.8531C147.436 41.6864 147.475 41.5673 147.581 41.4956C147.685 41.4111 147.808 41.3565 147.949 41.3316C148.231 41.2819 148.421 41.3475 148.519 41.5286C148.628 41.6945 148.703 41.8993 148.746 42.1429C148.697 42.3104 148.613 42.4375 148.496 42.5242C148.379 42.6109 148.247 42.6475 148.099 42.6339C147.964 42.618 147.833 42.5486 147.705 42.4256C147.591 42.3004 147.511 42.1096 147.466 41.8531ZM153.493 51.7181C153.417 51.8109 153.262 51.8712 153.029 51.899C152.806 51.9118 152.592 51.8967 152.386 51.8537C152.193 51.8084 152.053 51.7273 151.967 51.6104C151.878 51.4806 151.926 51.3068 152.113 51.0888C152.189 50.9961 152.276 50.9278 152.374 50.8841C152.483 50.8253 152.586 50.774 152.684 50.7303C152.793 50.6714 152.873 50.6043 152.926 50.5289C152.992 50.4512 153.019 50.3407 153.007 50.1974C152.918 49.6181 152.859 49.0203 152.829 48.4041C152.813 47.7856 152.878 47.2187 153.025 46.7036C153.172 46.1884 153.433 45.7525 153.806 45.3958C154.192 45.0368 154.744 44.8272 155.46 44.7669C155.717 44.7217 156.017 44.735 156.36 44.8067C156.701 44.8656 157.037 44.9716 157.368 45.1247C157.697 45.2651 157.995 45.4571 158.263 45.7008C158.528 45.9316 158.715 46.2028 158.823 46.5143C158.935 46.6267 158.912 46.7961 158.754 47.0223C158.595 47.2486 158.364 47.5141 158.061 47.8187C157.755 48.1106 157.406 48.4168 157.013 48.7373C156.62 49.0578 156.238 49.3632 155.866 49.6536C155.507 49.9417 155.188 50.1962 154.91 50.4172C154.631 50.6381 154.453 50.7886 154.374 50.8685C154.54 51.355 154.716 51.8661 154.903 52.4017C155.09 52.9372 155.307 53.4211 155.555 53.8534C155.803 54.2856 156.076 54.6341 156.374 54.8989C156.683 55.1486 157.029 55.2395 157.414 55.1717C157.985 55.1107 158.451 54.9426 158.812 54.6673C159.187 54.3898 159.479 54.0606 159.689 53.6797C159.9 53.2988 160.047 52.896 160.131 52.4714C160.227 52.0445 160.283 51.6447 160.296 51.2721C160.323 50.8973 160.327 50.5857 160.31 50.3376C160.303 50.0743 160.31 49.9276 160.331 49.8975C160.459 49.7957 160.619 49.7674 160.812 49.8127C161.003 49.8451 161.139 50.013 161.218 50.3162C161.319 50.814 161.311 51.4039 161.193 52.0857C161.076 52.7676 160.859 53.414 160.544 54.0249C160.241 54.6336 159.837 55.1543 159.332 55.5872C158.837 56.005 158.266 56.218 157.62 56.2262C156.963 56.3287 156.411 56.2343 155.963 55.9431C155.513 55.6391 155.127 55.251 154.806 54.7787C154.495 54.2914 154.238 53.7683 154.034 53.2094C153.829 52.6504 153.649 52.1533 153.493 51.7181ZM157.803 46.6941C157.293 46.2022 156.813 45.9167 156.363 45.8374C155.913 45.7581 155.469 45.7901 155.031 45.9334C154.769 46.0193 154.554 46.1894 154.387 46.4436C154.218 46.6849 154.099 46.9836 154.03 47.3396C153.958 47.6828 153.933 48.0641 153.954 48.4834C153.973 48.89 154.039 49.3015 154.152 49.7178L157.803 46.6941ZM161.671 43.7511C161.661 43.6206 161.695 43.509 161.771 43.4162C161.847 43.3235 161.942 43.2605 162.055 43.2273C162.166 43.1813 162.283 43.1738 162.408 43.2048C162.53 43.2229 162.638 43.27 162.73 43.3462L164.029 51.0502C164.11 50.084 164.167 49.1351 164.202 48.2036C164.246 47.257 164.352 46.3922 164.518 45.6093C164.681 44.8136 164.946 44.1389 165.311 43.5853C165.674 43.0189 166.222 42.6381 166.954 42.4428C167.345 42.3343 167.712 42.395 168.057 42.6251C168.399 42.8424 168.715 43.1702 169.004 43.6085C169.306 44.0445 169.583 44.5706 169.838 45.1869C170.089 45.7904 170.315 46.4315 170.514 47.1104C170.723 47.7742 170.909 48.4489 171.069 49.1346C171.23 49.8202 171.368 50.4569 171.485 51.0445C171.602 51.6321 171.694 52.1514 171.76 52.6025C171.839 53.0513 171.89 53.3794 171.914 53.5868C171.862 53.8206 171.727 53.9899 171.507 54.0948C171.303 54.2101 171.088 54.1554 170.864 53.9306C170.808 53.6892 170.728 53.2736 170.624 52.6838C170.518 52.0811 170.384 51.3973 170.223 50.6324C170.074 49.8653 169.894 49.0707 169.683 48.2485C169.483 47.4112 169.25 46.6524 168.984 45.972C168.73 45.2765 168.438 44.713 168.111 44.2815C167.794 43.8349 167.444 43.6124 167.061 43.6138C166.732 43.6191 166.448 43.8476 166.21 44.2994C165.986 44.7489 165.79 45.3255 165.623 46.0292C165.469 46.7307 165.343 47.5132 165.244 48.3768C165.157 49.2382 165.088 50.0834 165.036 50.9123C164.997 51.739 164.972 52.497 164.961 53.1865C164.951 53.8759 164.958 54.4035 164.982 54.7693C164.962 54.8787 164.9 54.9756 164.796 55.0601C164.692 55.1445 164.569 55.1992 164.428 55.2241C164.302 55.2595 164.164 55.264 164.014 55.2376C163.877 55.2089 163.764 55.1297 163.675 54.9999L161.671 43.7511ZM126.27 91.0229C126.231 90.5802 126.166 90.0231 126.074 89.3518C125.982 88.6805 125.863 87.9677 125.717 87.2134C125.584 86.4568 125.431 85.7037 125.259 84.9539C125.085 84.1913 124.899 83.5101 124.701 82.9105C124.515 82.3085 124.317 81.8212 124.106 81.4486C123.905 81.0609 123.705 80.8647 123.506 80.8602C123.073 80.8043 122.682 80.9129 122.334 81.1859C121.996 81.4438 121.699 81.8201 121.442 82.3149C121.183 82.7968 120.966 83.364 120.79 84.0164C120.612 84.6561 120.46 85.3307 120.334 86.0405C120.218 86.7352 120.123 87.4329 120.049 88.1336C119.984 88.8192 119.943 89.4479 119.925 90.0196C119.907 90.5914 119.901 91.0816 119.907 91.4905C119.923 91.8842 119.948 92.1376 119.981 92.2508C119.891 92.2666 119.779 92.3062 119.645 92.3695C119.521 92.4178 119.397 92.4596 119.271 92.4951C119.147 92.5433 119.032 92.5637 118.924 92.5561C118.828 92.5335 118.768 92.458 118.746 92.3298L115.627 76.5574C115.607 76.442 115.646 76.3625 115.744 76.3187C115.84 76.2622 115.953 76.229 116.083 76.2192C116.214 76.2094 116.341 76.22 116.466 76.2509C116.59 76.2819 116.676 76.3196 116.724 76.3641L118.963 88.5034C119.002 88.2718 119.036 87.9022 119.065 87.3946C119.108 86.8847 119.172 86.3115 119.258 85.6749C119.344 85.0383 119.473 84.381 119.644 83.7029C119.813 83.012 120.052 82.3815 120.362 81.8113C120.682 81.226 121.091 80.7373 121.591 80.3451C122.103 79.9507 122.73 79.7211 123.472 79.6563C123.726 79.7439 123.96 79.8744 124.176 80.0479C124.402 80.2063 124.618 80.4526 124.822 80.7868C125.037 81.1059 125.243 81.5257 125.441 82.0462C125.651 82.5644 125.866 83.2206 126.085 84.0149C126.305 84.8092 126.533 85.7672 126.77 86.8888C127.021 88.0082 127.286 89.3233 127.565 90.8342C127.543 90.9307 127.48 91.0276 127.379 91.1249C127.279 91.235 127.161 91.3153 127.024 91.3659C126.901 91.4141 126.769 91.4175 126.63 91.376C126.49 91.3345 126.37 91.2168 126.27 91.0229ZM127.463 78.8733C127.533 78.8213 127.618 78.7734 127.716 78.7296C127.814 78.6859 127.908 78.6561 127.997 78.6403C128.1 78.6222 128.2 78.6245 128.296 78.6471C128.393 78.6698 128.476 78.7279 128.545 78.8214C128.692 79.6549 128.858 80.5578 129.042 81.5301C129.238 82.4873 129.436 83.4637 129.638 84.4594C129.851 85.44 130.055 86.4089 130.25 87.3661C130.445 88.3233 130.628 89.21 130.798 90.0261C130.845 90.2162 130.82 90.3727 130.722 90.4956C130.625 90.6186 130.506 90.6925 130.365 90.7173C130.237 90.74 130.106 90.7101 129.972 90.6279C129.841 90.5585 129.757 90.4212 129.721 90.216L127.463 78.8733ZM126.541 74.9901C126.511 74.8234 126.55 74.7043 126.656 74.6326C126.76 74.5482 126.883 74.4935 127.024 74.4686C127.306 74.4189 127.496 74.4845 127.594 74.6656C127.703 74.8315 127.778 75.0363 127.821 75.28C127.772 75.4474 127.688 75.5745 127.571 75.6612C127.454 75.7479 127.322 75.7845 127.174 75.7709C127.039 75.755 126.908 75.6856 126.78 75.5627C126.666 75.4374 126.586 75.2466 126.541 74.9901ZM133.708 95.8198C133.543 94.2094 133.393 92.8739 133.259 91.8134C133.125 90.7529 132.999 89.8496 132.881 89.1036C132.773 88.3425 132.662 87.6746 132.547 87.0998C132.433 86.5251 132.306 85.9194 132.167 85.2827C132.026 84.6333 131.863 83.8952 131.678 83.0685C131.503 82.2267 131.29 81.1669 131.038 79.8891C131.039 79.7435 131.068 79.6127 131.127 79.4965C131.184 79.3676 131.254 79.2759 131.337 79.2216C131.43 79.1522 131.539 79.133 131.664 79.164C131.788 79.1949 131.924 79.29 132.071 79.4491L132.454 81.9598C132.79 81.3187 133.187 80.7199 133.645 80.1633C134.114 79.6044 134.599 79.1289 135.099 78.7368C135.609 78.3295 136.116 78.0219 136.622 77.8137C137.125 77.5928 137.578 77.4997 137.98 77.5345C138.396 77.567 138.738 77.7446 139.007 78.0675C139.286 78.3753 139.45 78.8554 139.499 79.5079C139.547 80.0811 139.481 80.7208 139.301 81.4267C139.12 82.1199 138.867 82.8255 138.544 83.5435C138.232 84.2464 137.871 84.9381 137.462 85.6184C137.053 86.2987 136.645 86.9062 136.237 87.4409C135.829 87.9756 135.438 88.4214 135.064 88.7781C134.702 89.1197 134.398 89.312 134.155 89.355C134.173 89.5368 134.198 89.7902 134.229 90.1153C134.262 90.4532 134.302 90.8296 134.349 91.2445C134.398 91.6721 134.443 92.1138 134.483 92.5694C134.537 93.0227 134.587 93.4568 134.634 93.8716C134.68 94.2865 134.72 94.6629 134.753 95.0008C134.787 95.3387 134.818 95.591 134.847 95.7577C134.794 95.8332 134.728 95.9044 134.647 95.9716C134.566 96.0387 134.476 96.0877 134.375 96.1186C134.275 96.1495 134.168 96.142 134.054 96.0959C133.942 96.0627 133.827 95.9707 133.708 95.8198ZM133.865 88.2756C134.259 88.0342 134.707 87.6115 135.208 87.0074C135.708 86.3905 136.184 85.6785 136.636 84.8715C137.1 84.0494 137.494 83.1734 137.819 82.2434C138.144 81.3134 138.33 80.4147 138.375 79.5473C138.226 79.1505 138.005 78.9118 137.713 78.831C137.421 78.7503 137.096 78.7812 136.738 78.9237C136.39 79.0511 136.021 79.2815 135.63 79.6148C135.237 79.9353 134.866 80.3049 134.517 80.7235C134.178 81.1269 133.872 81.5644 133.598 82.0358C133.324 82.5072 133.126 82.9586 133.004 83.39L133.865 88.2756ZM143.023 86.8789C143.301 87.0282 143.614 87.0788 143.963 87.0306C144.324 86.9801 144.688 86.8697 145.054 86.6992C145.432 86.5137 145.801 86.2834 146.162 86.0081C146.534 85.7178 146.864 85.415 147.152 85.0997C147.453 84.7822 147.701 84.4609 147.895 84.1359C148.099 83.7957 148.224 83.4895 148.268 83.2172C148.31 82.9321 148.261 82.6896 148.12 82.4897C147.979 82.2898 147.718 82.1574 147.336 82.0924C146.709 82.3616 146.077 82.5988 145.438 82.8038C144.8 83.0089 144.21 83.1129 143.669 83.1159C143.14 83.1165 142.686 82.9784 142.307 82.7016C141.927 82.4247 141.689 81.9378 141.593 81.2408C141.514 80.5672 141.584 79.9137 141.803 79.2801C142.032 78.6315 142.361 78.0579 142.788 77.5594C143.229 77.0586 143.738 76.6449 144.315 76.3184C144.905 75.9896 145.524 75.7879 146.171 75.7134C146.302 75.7036 146.42 75.696 146.524 75.6908C146.64 75.6704 146.746 75.6716 146.842 75.6942C146.939 75.7169 147.013 75.7633 147.065 75.8334C147.13 75.9013 147.17 76.0133 147.184 76.1695C147.205 76.3641 147.162 76.5304 147.054 76.6684C146.946 76.8064 146.781 76.8818 146.558 76.8946C145.775 76.8741 145.101 77.026 144.536 77.3503C143.972 77.6746 143.526 78.0705 143.199 78.5381C142.869 78.9929 142.664 79.4786 142.583 79.9953C142.502 80.5119 142.555 80.9589 142.74 81.336C143.065 81.7547 143.431 81.9942 143.839 82.0546C144.257 82.0999 144.68 82.0649 145.109 81.9496C145.551 81.832 145.995 81.6876 146.441 81.5164C146.885 81.3324 147.296 81.2269 147.674 81.1998C148.051 81.1599 148.383 81.2467 148.672 81.4602C148.959 81.6608 149.174 82.0923 149.317 82.7546C149.379 83.18 149.31 83.6152 149.111 84.0602C148.909 84.4924 148.628 84.9189 148.266 85.3397C147.914 85.7455 147.507 86.1346 147.043 86.5072C146.578 86.8669 146.105 87.1818 145.623 87.4517C145.155 87.7194 144.702 87.9249 144.264 88.0681C143.84 88.2091 143.486 88.2649 143.203 88.2354C142.863 88.031 142.665 87.8081 142.609 87.5667C142.551 87.3125 142.689 87.0832 143.023 86.8789ZM151.105 77.4614L149.44 78.3697C149.292 78.3561 149.165 78.3059 149.057 78.2192C148.936 78.1347 148.846 78.0381 148.787 77.9295C148.729 77.8209 148.703 77.713 148.711 77.6059C148.705 77.501 148.743 77.4151 148.824 77.3479L150.871 76.1342L149.872 70.6976C149.881 70.5242 149.943 70.3876 150.058 70.2881C150.173 70.1885 150.295 70.1339 150.426 70.1241C150.567 70.0992 150.703 70.1215 150.834 70.1909C150.963 70.2475 151.058 70.3365 151.119 70.4579C151.164 70.86 151.219 71.2865 151.285 71.7376C151.349 72.1758 151.415 72.6205 151.481 73.0716C151.558 73.5076 151.64 73.936 151.727 74.3569C151.813 74.765 151.905 75.1387 152.004 75.4782L154.772 73.7407C154.943 73.6577 155.087 73.6521 155.205 73.7238C155.322 73.7826 155.405 73.8803 155.455 74.0169C155.516 74.1383 155.533 74.2677 155.504 74.4049C155.475 74.5422 155.401 74.6478 155.282 74.7217L152.238 76.8053C152.261 76.9336 152.322 77.2402 152.42 77.7252C152.517 78.1974 152.629 78.7594 152.757 79.4111C152.886 80.0628 153.022 80.7594 153.166 81.5008C153.309 82.2423 153.439 82.94 153.554 83.594C153.683 84.2457 153.79 84.8152 153.876 85.3025C153.972 85.7747 154.032 86.0749 154.054 86.2031C154.103 86.6308 154.019 86.8639 153.801 86.9023C153.583 86.9407 153.327 86.88 153.035 86.72L151.105 77.4614ZM157.103 80.5288C157.027 80.6216 156.873 80.6819 156.64 80.7098C156.417 80.7226 156.203 80.7075 155.997 80.6644C155.804 80.6192 155.664 80.5381 155.577 80.4211C155.488 80.2914 155.537 80.1175 155.723 79.8996C155.799 79.8068 155.887 79.7386 155.985 79.6948C156.093 79.636 156.197 79.5847 156.295 79.541C156.403 79.4822 156.484 79.4151 156.537 79.3396C156.602 79.262 156.629 79.1515 156.617 79.0081C156.528 78.4288 156.469 77.8311 156.44 77.2148C156.423 76.5963 156.489 76.0295 156.636 75.5143C156.783 74.9992 157.043 74.5632 157.417 74.2065C157.803 73.8475 158.354 73.6379 159.071 73.5777C159.327 73.5325 159.627 73.5457 159.97 73.6174C160.311 73.6763 160.647 73.7823 160.978 73.9355C161.307 74.0758 161.605 74.2678 161.873 74.5115C162.139 74.7423 162.325 75.0135 162.433 75.3251C162.545 75.4375 162.522 75.6068 162.364 75.8331C162.206 76.0593 161.975 76.3248 161.671 76.6295C161.366 76.9213 161.017 77.2275 160.624 77.548C160.231 77.8686 159.848 78.174 159.476 78.4643C159.117 78.7524 158.799 79.0069 158.52 79.2279C158.242 79.4489 158.063 79.5993 157.985 79.6793C158.15 80.1658 158.326 80.6768 158.513 81.2124C158.7 81.748 158.918 82.2319 159.166 82.6641C159.414 83.0963 159.687 83.4448 159.985 83.7096C160.293 83.9593 160.64 84.0503 161.024 83.9825C161.595 83.9214 162.062 83.7533 162.423 83.478C162.797 83.2005 163.089 82.8713 163.3 82.4904C163.51 82.1096 163.658 81.7068 163.741 81.2821C163.838 80.8552 163.893 80.4555 163.907 80.0829C163.933 79.708 163.938 79.3965 163.92 79.1483C163.914 78.8851 163.921 78.7384 163.942 78.7082C164.069 78.6064 164.23 78.5781 164.423 78.6234C164.614 78.6559 164.749 78.8237 164.829 79.127C164.93 79.6248 164.922 80.2146 164.804 80.8965C164.686 81.5783 164.469 82.2247 164.154 82.8356C163.852 83.4443 163.448 83.9651 162.942 84.3979C162.447 84.8158 161.877 85.0288 161.23 85.037C160.574 85.1395 160.022 85.0451 159.574 84.7539C159.124 84.4498 158.738 84.0617 158.417 83.5895C158.106 83.1022 157.848 82.5791 157.644 82.0201C157.44 81.4612 157.26 80.9641 157.103 80.5288ZM161.414 75.5048C160.904 75.013 160.424 74.7274 159.974 74.6481C159.523 74.5689 159.079 74.6009 158.642 74.7441C158.379 74.8301 158.165 75.0001 157.998 75.2543C157.829 75.4956 157.71 75.7943 157.64 76.1503C157.569 76.4935 157.543 76.8748 157.564 77.2942C157.583 77.7007 157.649 78.1122 157.762 78.5286L161.414 75.5048ZM167.45 83.6229C167.1 81.8601 166.803 80.3654 166.56 79.139C166.318 77.9125 166.119 76.8964 165.963 76.0908C165.808 75.2853 165.685 74.6592 165.593 74.2126C165.511 73.751 165.445 73.4123 165.394 73.1966C165.355 72.9786 165.333 72.8504 165.326 72.8119C165.317 72.7606 165.311 72.7286 165.309 72.7157C165.301 72.5981 165.342 72.4917 165.431 72.3967C165.52 72.3017 165.621 72.2376 165.734 72.2044C165.858 72.1561 165.982 72.1475 166.107 72.1784C166.231 72.2094 166.329 72.278 166.401 72.3844L167.238 76.7982C167.275 75.8795 167.453 75.0879 167.772 74.4234C168.104 73.7567 168.51 73.2091 168.989 72.7807C169.467 72.3396 169.985 72.0168 170.544 71.8125C171.116 71.6059 171.66 71.5034 172.176 71.505C172.349 71.514 172.483 71.5631 172.578 71.6521C172.686 71.7388 172.751 71.8463 172.774 71.9746C172.807 72.0877 172.796 72.2088 172.739 72.3378C172.693 72.4516 172.617 72.5444 172.51 72.616C171.927 72.6793 171.391 72.8267 170.903 73.0582C170.425 73.2746 169.998 73.5548 169.623 73.8987C169.258 74.2275 168.946 74.5997 168.689 75.0152C168.445 75.4286 168.268 75.8498 168.158 76.279C167.991 76.9035 167.912 77.5454 167.923 78.2046C167.944 78.8488 167.997 79.4873 168.082 80.1201C168.18 80.7507 168.285 81.347 168.397 81.9089C168.523 82.4686 168.616 82.9612 168.678 83.3866C168.69 83.5299 168.645 83.6502 168.543 83.7475C168.452 83.8297 168.336 83.8832 168.195 83.9081C168.069 83.9435 167.93 83.9416 167.777 83.9024C167.635 83.8481 167.526 83.7549 167.45 83.6229Z" fill="#2C2C2C"/>
<path d="M116.5 22.3048C106.09 12.4085 87.4998 -0.678853 70.8464 1.17758C59.7887 2.41022 48.7409 9.93355 45.2842 22.5957M45.2842 22.5957C44.6001 25.1015 44.2389 27.9146 44.2746 31.0894C44.4586 47.4598 57.1983 40.91 57.8461 35.2079C58.5513 29 52.6991 26.3124 45.2842 22.5957ZM45.2842 22.5957C39.4173 19.655 32.4998 18.8203 26.0663 19.7621C13.7986 21.558 3.00857 32.977 3.00857 32.977M11.0718 32.575L1 35.8203L1.85404 23.1398" stroke="#2C2C2C" stroke-linecap="round" stroke-linejoin="round"/>
</svg>
