<svg width="210" height="105" viewBox="0 0 210 105" fill="none" xmlns="http://www.w3.org/2000/svg">
<rect x="80.7974" y="78.4968" width="126.691" height="23.0897" transform="rotate(-9.59682 80.7974 78.4968)" fill="white"/>
<rect x="85.7476" y="48.0742" width="106.376" height="23.0897" transform="rotate(-9.59682 85.7476 48.0742)" fill="white"/>
<path d="M91.0286 51.4279C91.0513 51.3313 91.1158 51.2472 91.2221 51.1756C91.3413 51.1017 91.465 51.0534 91.5933 51.0308C91.7343 51.006 91.8629 51.023 91.9791 51.0818C92.093 51.1278 92.1763 51.2255 92.2291 51.3749L92.531 52.4124C92.7656 52.3182 93.036 52.1647 93.3423 51.9521C93.6463 51.7266 94.0027 51.4984 94.4116 51.2677C94.8333 51.0347 95.3107 50.8183 95.844 50.6185C96.3773 50.4187 96.9906 50.2973 97.6838 50.2544C98.7714 50.2742 99.5774 50.3833 100.102 50.5817C100.626 50.7802 100.931 51.0502 101.018 51.3919C101.115 51.7186 101.039 52.1089 100.788 52.5629C100.548 53.0019 100.2 53.4665 99.7447 53.9567C99.2891 54.4469 98.7704 54.9548 98.1888 55.4805C97.6072 56.0061 97.0361 56.5167 96.4756 57.0122C95.9257 57.4926 95.412 57.9534 94.9344 58.3946C94.4675 58.8207 94.1242 59.1985 93.9047 59.5281L103.882 63.3616C103.918 63.5667 103.87 63.7802 103.737 64.0019C103.602 64.2109 103.423 64.3217 103.201 64.3345L93.857 60.9446L94.983 67.3305C94.8517 67.4858 94.7318 67.5929 94.6231 67.6517C94.5273 67.7083 94.4463 67.7358 94.3799 67.7343C94.3135 67.7328 94.249 67.7045 94.1864 67.6494C94.1261 67.6072 94.071 67.5574 94.0212 67.5001L91.0286 51.4279ZM92.7854 53.855C92.805 54.116 92.84 54.4271 92.8905 54.7884C92.941 55.1498 93.0024 55.5356 93.0747 55.9459C93.1448 56.3434 93.2149 56.7409 93.285 57.1385C93.3528 57.5231 93.4139 57.8694 93.4682 58.1771C93.521 58.1017 93.6994 57.9512 94.0034 57.7258C94.3179 57.4852 94.6963 57.1937 95.1383 56.8513C95.5804 56.5089 96.05 56.1353 96.5471 55.7303C97.0548 55.3102 97.5293 54.8894 97.9706 54.4678C98.4119 54.0463 98.7902 53.6424 99.1055 53.2562C99.4315 52.855 99.6208 52.5043 99.6737 52.2041C99.7393 51.9017 99.6375 51.6618 99.3683 51.4845C99.1096 51.2921 98.6227 51.1929 97.9077 51.1867C97.5185 51.2289 97.0655 51.322 96.5488 51.466C96.0449 51.6077 95.5426 51.7955 95.0417 52.0292C94.5514 52.2479 94.1022 52.5122 93.6941 52.8222C93.2859 53.1321 92.9831 53.4764 92.7854 53.855ZM112.341 64.0715C112.114 63.8338 111.936 63.5016 111.808 63.0746C111.693 62.6454 111.587 62.1947 111.49 61.7225C111.405 61.2353 111.321 60.7608 111.239 60.2992C111.169 59.8225 111.065 59.4242 110.93 59.1044C110.56 60.5314 110.171 61.6643 109.764 62.503C109.367 63.3266 108.972 63.9383 108.58 64.338C108.198 64.7226 107.826 64.9337 107.462 64.9714C107.096 64.9962 106.766 64.9223 106.471 64.7495C106.187 64.5617 105.946 64.3199 105.748 64.0242C105.548 63.7156 105.416 63.415 105.351 63.1224C105.175 62.6509 105.066 62.0686 105.023 61.3754C104.991 60.6672 105.013 59.9295 105.089 59.1624C105.178 58.393 105.322 57.6339 105.521 56.8849C105.73 56.1209 105.994 55.4462 106.314 54.8609C106.647 54.2734 107.029 53.816 107.46 53.4887C107.89 53.1486 108.375 53.0166 108.918 53.0929C109.17 53.022 109.383 52.9975 109.559 53.0194C109.745 53.0262 109.909 53.09 110.049 53.2107C110.189 53.3314 110.308 53.5155 110.404 53.7629C110.498 53.9975 110.592 54.3049 110.686 54.685C110.88 55.9334 111.098 56.9856 111.342 57.8418C111.598 58.6956 111.849 59.4447 112.095 60.0889C112.341 60.733 112.569 61.3142 112.779 61.8325C113.002 62.3484 113.178 62.8927 113.305 63.4652C113.341 63.6703 113.318 63.8397 113.236 63.9732C113.151 64.0938 113.047 64.1783 112.924 64.2266C112.802 64.2876 112.679 64.3027 112.555 64.2718C112.443 64.2386 112.372 64.1718 112.341 64.0715ZM109.513 54.5547C109.132 54.1987 108.769 54.0844 108.421 54.2118C108.073 54.3392 107.754 54.6269 107.462 55.0749C107.182 55.5078 106.935 56.0603 106.723 56.7323C106.509 57.3915 106.348 58.0877 106.239 58.8209C106.13 59.554 106.079 60.277 106.086 60.9898C106.103 61.6875 106.19 62.2935 106.347 62.808C106.628 63.3534 106.907 63.6611 107.184 63.7313C107.461 63.8015 107.73 63.7144 107.991 63.4701C108.249 63.2129 108.494 62.8392 108.725 62.349C108.956 61.8587 109.168 61.3387 109.362 60.7888C109.554 60.2262 109.715 59.6756 109.845 59.137C109.985 58.5834 110.095 58.1211 110.175 57.75L109.513 54.5547ZM113.146 52.3076C113.137 52.1771 113.17 52.0655 113.246 51.9727C113.322 51.8799 113.417 51.817 113.53 51.7838C113.641 51.7378 113.758 51.7303 113.883 51.7612C114.005 51.7793 114.113 51.8265 114.205 51.9027L115.504 59.6067C115.585 58.6405 115.643 57.6916 115.677 56.7601C115.721 55.8134 115.827 54.9487 115.993 54.1658C116.156 53.37 116.421 52.6954 116.786 52.1418C117.149 51.5754 117.697 51.1945 118.429 50.9993C118.82 50.8907 119.188 50.9515 119.532 51.1816C119.875 51.3989 120.19 51.7266 120.479 52.1649C120.781 52.6009 121.059 53.1271 121.313 53.7434C121.565 54.3468 121.79 54.988 121.989 55.6669C122.199 56.3307 122.384 57.0054 122.544 57.691C122.705 58.3767 122.843 59.0133 122.96 59.6009C123.077 60.1885 123.169 60.7079 123.235 61.1589C123.314 61.6077 123.365 61.9358 123.389 62.1433C123.337 62.3771 123.202 62.5464 122.983 62.6512C122.778 62.7666 122.564 62.7119 122.339 62.4871C122.283 62.2457 122.203 61.8301 122.099 61.2402C121.993 60.6375 121.859 59.9538 121.698 59.1889C121.549 58.4218 121.369 57.6271 121.158 56.8049C120.958 55.9677 120.725 55.2088 120.459 54.5284C120.205 53.833 119.914 53.2695 119.586 52.838C119.27 52.3914 118.92 52.1688 118.536 52.1703C118.207 52.1755 117.923 52.404 117.685 52.8558C117.461 53.3053 117.265 53.882 117.098 54.5857C116.944 55.2871 116.818 56.0697 116.719 56.9333C116.633 57.7947 116.563 58.6398 116.511 59.4688C116.472 60.2955 116.447 61.0535 116.436 61.7429C116.426 62.4323 116.433 62.9599 116.458 63.3258C116.437 63.4351 116.375 63.532 116.271 63.6165C116.167 63.701 116.044 63.7556 115.903 63.7805C115.777 63.816 115.639 63.8205 115.489 63.794C115.352 63.7654 115.239 63.6861 115.15 63.5564L113.146 52.3076ZM130.139 57.3237C130.054 57.6692 129.908 58.0783 129.701 58.5512C129.493 59.0241 129.236 59.4793 128.93 59.9167C128.624 60.3542 128.27 60.7471 127.869 61.0955C127.478 61.4289 127.045 61.6374 126.571 61.721C126.366 61.7572 126.194 61.7609 126.057 61.7323C125.933 61.7013 125.811 61.65 125.693 61.5783C125.585 61.4916 125.48 61.3845 125.378 61.257C125.277 61.1295 125.152 60.9862 125.005 60.827C124.777 60.2062 124.587 59.5058 124.436 58.7259C124.298 57.9437 124.223 57.1437 124.211 56.3261C124.212 55.5062 124.284 54.7135 124.427 53.9479C124.58 53.1672 124.829 52.482 125.175 51.8922C125.533 51.3002 126.001 50.8409 126.578 50.5144C127.166 50.1727 127.887 50.0258 128.741 50.0734C128.676 49.252 128.54 48.443 128.333 47.6465C128.124 46.8371 127.923 45.9934 127.728 45.1154C127.706 44.9872 127.748 44.8872 127.854 44.8156C127.958 44.7311 128.079 44.6701 128.218 44.6324C128.368 44.5796 128.508 44.5483 128.638 44.5385C128.781 44.5265 128.876 44.5363 128.921 44.568C129.112 45.7243 129.285 46.7845 129.442 47.7484C129.612 48.7102 129.772 49.6206 129.924 50.4797C130.073 51.3261 130.218 52.1467 130.358 52.9418C130.498 53.7368 130.642 54.5511 130.788 55.3846C130.948 56.2158 131.11 57.093 131.272 58.0163C131.448 58.9373 131.633 59.9492 131.827 61.052C131.928 61.2458 131.939 61.4223 131.861 61.5815C131.796 61.7383 131.697 61.8485 131.563 61.9118C131.428 61.9751 131.277 61.9819 131.11 61.9321C130.955 61.88 130.84 61.7484 130.763 61.5372L130.139 57.3237ZM128.12 51.2737C127.619 51.2827 127.181 51.4988 126.806 51.9219C126.442 52.3299 126.145 52.8582 125.916 53.5069C125.684 54.1427 125.524 54.8453 125.435 55.6146C125.343 56.3711 125.325 57.0949 125.381 57.7858C125.447 58.4616 125.586 59.0587 125.796 59.5769C126.006 60.0951 126.296 60.4274 126.666 60.5738C126.987 60.5173 127.282 60.3529 127.551 60.0806C127.818 59.7955 128.056 59.4561 128.264 59.0624C128.485 58.6665 128.673 58.2366 128.83 57.7727C128.996 57.2938 129.133 56.8333 129.241 56.3913C129.348 55.9493 129.417 55.5537 129.448 55.2045C129.489 54.8402 129.494 54.5682 129.463 54.3887C129.438 54.2477 129.394 53.9976 129.33 53.6386C129.267 53.2795 129.177 52.9186 129.06 52.5558C128.956 52.1907 128.821 51.8773 128.656 51.6155C128.504 51.3515 128.325 51.2376 128.12 51.2737ZM136.127 59.9963C135.603 60.0226 135.144 59.892 134.749 59.6046C134.368 59.3149 134.037 58.937 133.756 58.4708C133.476 58.0046 133.251 57.4822 133.083 56.9037C132.926 56.31 132.809 55.7224 132.733 55.1409C132.615 54.2493 132.626 53.3747 132.766 52.5171C132.918 51.6573 133.154 50.8951 133.473 50.2307C133.803 49.5511 134.196 49.0058 134.653 48.5948C135.119 48.1687 135.61 47.95 136.123 47.9388C136.663 47.923 137.13 48.0984 137.525 48.4651C137.933 48.8294 138.281 49.3036 138.569 49.8874C138.857 50.4713 139.085 51.1252 139.252 51.8494C139.418 52.5607 139.533 53.2543 139.599 53.9301C139.669 54.698 139.626 55.4326 139.472 56.1341C139.318 56.8355 139.078 57.4597 138.751 58.0065C138.438 58.551 138.048 59.0031 137.583 59.3629C137.128 59.7075 136.643 59.9186 136.127 59.9963ZM136.124 49.0691C135.692 49.0924 135.318 49.2971 135.003 49.6833C134.698 50.0543 134.445 50.5287 134.243 51.1065C134.051 51.6691 133.918 52.3008 133.843 53.0015C133.766 53.6894 133.752 54.3596 133.801 55.0121C133.831 55.4827 133.895 55.9606 133.994 56.4456C134.093 56.9306 134.229 57.3628 134.401 57.7422C134.587 58.1194 134.817 58.4159 135.094 58.6316C135.38 58.8323 135.722 58.8976 136.12 58.8275C136.443 58.7838 136.757 58.616 137.062 58.3242C137.381 58.03 137.66 57.6635 137.9 57.2245C138.137 56.7728 138.327 56.2765 138.47 55.7357C138.626 55.1926 138.695 54.6514 138.68 54.1121C138.672 53.5449 138.592 52.9773 138.439 52.4093C138.296 51.8262 138.104 51.2982 137.862 50.8253C137.633 50.35 137.365 49.9544 137.058 49.6383C136.761 49.3071 136.45 49.1174 136.124 49.0691ZM140.221 47.5336C140.211 47.4031 140.244 47.2915 140.32 47.1987C140.397 47.106 140.491 47.043 140.604 47.0098C140.715 46.9638 140.833 46.9563 140.957 46.9872C141.08 47.0054 141.187 47.0525 141.28 47.1287L142.579 54.8327C142.66 53.8665 142.717 52.9176 142.751 51.9861C142.796 51.0395 142.901 50.1747 143.067 49.3918C143.231 48.5961 143.495 47.9214 143.861 47.3678C144.224 46.8014 144.771 46.4206 145.504 46.2253C145.894 46.1167 146.262 46.1775 146.607 46.4076C146.949 46.6249 147.265 46.9527 147.554 47.3909C147.855 47.827 148.133 48.3531 148.387 48.9694C148.639 49.5728 148.864 50.214 149.064 50.8929C149.273 51.5567 149.458 52.2314 149.619 52.9171C149.779 53.6027 149.918 54.2394 150.035 54.827C150.152 55.4146 150.243 55.9339 150.31 56.385C150.389 56.8338 150.44 57.1619 150.463 57.3693C150.412 57.6031 150.277 57.7724 150.057 57.8773C149.853 57.9926 149.638 57.9379 149.413 57.7131C149.358 57.4717 149.278 57.0561 149.174 56.4663C149.067 55.8636 148.934 55.1798 148.772 54.4149C148.624 53.6478 148.444 52.8532 148.233 52.031C148.032 51.1937 147.799 50.4349 147.534 49.7545C147.279 49.059 146.988 48.4955 146.661 48.064C146.344 47.6174 145.994 47.3949 145.611 47.3963C145.281 47.4016 144.998 47.6301 144.76 48.0819C144.535 48.5314 144.339 49.108 144.173 49.8117C144.019 50.5132 143.892 51.2957 143.793 52.1593C143.707 53.0207 143.638 53.8659 143.586 54.6948C143.546 55.5215 143.521 56.2795 143.511 56.9689C143.5 57.6584 143.507 58.186 143.532 58.5518C143.512 58.6612 143.449 58.7581 143.345 58.8425C143.241 58.927 143.119 58.9817 142.978 59.0066C142.852 59.042 142.714 59.0465 142.564 59.0201C142.426 58.9914 142.313 58.9122 142.224 58.7824L140.221 47.5336ZM150.169 45.7795C150.159 45.649 150.192 45.5374 150.269 45.4446C150.345 45.3518 150.439 45.2889 150.553 45.2557C150.663 45.2097 150.781 45.2022 150.906 45.2331C151.028 45.2512 151.135 45.2984 151.228 45.3746L152.527 53.0786C152.608 52.1124 152.665 51.1635 152.699 50.232C152.744 49.2854 152.849 48.4206 153.015 47.6377C153.179 46.8419 153.444 46.1673 153.809 45.6137C154.172 45.0473 154.719 44.6664 155.452 44.4712C155.842 44.3626 156.21 44.4234 156.555 44.6535C156.897 44.8708 157.213 45.1986 157.502 45.6368C157.803 46.0728 158.081 46.599 158.335 47.2153C158.587 47.8187 158.813 48.4599 159.012 49.1388C159.221 49.8026 159.406 50.4773 159.567 51.163C159.727 51.8486 159.866 52.4852 159.983 53.0728C160.1 53.6604 160.191 54.1798 160.258 54.6308C160.337 55.0796 160.388 55.4078 160.411 55.6152C160.36 55.849 160.225 56.0183 160.005 56.1231C159.801 56.2385 159.586 56.1838 159.361 55.959C159.306 55.7176 159.226 55.302 159.122 54.7121C159.015 54.1095 158.882 53.4257 158.72 52.6608C158.572 51.8937 158.392 51.0991 158.181 50.2769C157.98 49.4396 157.748 48.6807 157.482 48.0004C157.227 47.3049 156.936 46.7414 156.609 46.3099C156.292 45.8633 155.942 45.6408 155.559 45.6422C155.229 45.6475 154.946 45.876 154.708 46.3277C154.483 46.7773 154.287 47.3539 154.121 48.0576C153.967 48.759 153.84 49.5416 153.741 50.4052C153.655 51.2666 153.586 52.1118 153.534 52.9407C153.495 53.7674 153.47 54.5254 153.459 55.2148C153.448 55.9042 153.455 56.4319 153.48 56.7977C153.46 56.907 153.398 57.004 153.293 57.0884C153.189 57.1729 153.067 57.2276 152.926 57.2524C152.8 57.2879 152.662 57.2924 152.512 57.266C152.374 57.2373 152.261 57.1581 152.172 57.0283L150.169 45.7795ZM162.002 50.2179C161.926 50.3106 161.771 50.371 161.538 50.3988C161.316 50.4116 161.102 50.3965 160.896 50.3535C160.703 50.3082 160.563 50.2271 160.476 50.1102C160.387 49.9804 160.436 49.8066 160.622 49.5886C160.698 49.4959 160.785 49.4276 160.883 49.3839C160.992 49.3251 161.095 49.2738 161.193 49.23C161.302 49.1712 161.383 49.1041 161.436 49.0287C161.501 48.951 161.528 48.8405 161.516 48.6972C161.427 48.1179 161.368 47.5201 161.339 46.9039C161.322 46.2854 161.387 45.7185 161.535 45.2034C161.682 44.6882 161.942 44.2523 162.315 43.8956C162.702 43.5366 163.253 43.327 163.97 43.2667C164.226 43.2215 164.526 43.2348 164.869 43.3065C165.21 43.3653 165.546 43.4714 165.877 43.6245C166.206 43.7649 166.504 43.9569 166.772 44.2005C167.037 44.4314 167.224 44.7026 167.332 45.0141C167.444 45.1265 167.421 45.2958 167.263 45.5221C167.104 45.7484 166.874 46.0138 166.57 46.3185C166.265 46.6104 165.916 46.9166 165.522 47.2371C165.129 47.5576 164.747 47.863 164.375 48.1534C164.016 48.4415 163.697 48.696 163.419 48.9169C163.141 49.1379 162.962 49.2884 162.884 49.3683C163.049 49.8548 163.225 50.3659 163.412 50.9015C163.599 51.437 163.816 51.9209 164.065 52.3531C164.313 52.7854 164.586 53.1339 164.884 53.3987C165.192 53.6484 165.539 53.7393 165.923 53.6715C166.494 53.6105 166.96 53.4423 167.322 53.1671C167.696 52.8896 167.988 52.5604 168.199 52.1795C168.409 51.7986 168.556 51.3958 168.64 50.9712C168.737 50.5443 168.792 50.1445 168.805 49.7719C168.832 49.397 168.837 49.0855 168.819 48.8374C168.812 48.5741 168.82 48.4274 168.841 48.3973C168.968 48.2954 169.129 48.2672 169.322 48.3125C169.512 48.3449 169.648 48.5128 169.728 48.816C169.829 49.3138 169.82 49.9037 169.703 50.5855C169.585 51.2674 169.368 51.9138 169.053 52.5247C168.75 53.1333 168.346 53.6541 167.841 54.087C167.346 54.5048 166.775 54.7178 166.129 54.726C165.473 54.8285 164.921 54.7341 164.473 54.4429C164.022 54.1389 163.637 53.7508 163.315 53.2785C163.005 52.7912 162.747 52.2681 162.543 51.7092C162.339 51.1502 162.158 50.6531 162.002 50.2179ZM166.312 45.1939C165.803 44.702 165.323 44.4164 164.872 44.3372C164.422 44.2579 163.978 44.2899 163.541 44.4332C163.278 44.5191 163.064 44.6892 162.897 44.9433C162.728 45.1847 162.609 45.4834 162.539 45.8394C162.467 46.1826 162.442 46.5638 162.463 46.9832C162.482 47.3898 162.548 47.8013 162.661 48.2176L166.312 45.1939ZM175.837 41.3726C175.836 41.2934 175.86 41.2033 175.908 41.1022C175.967 40.986 176.044 40.8997 176.14 40.8431C176.249 40.7843 176.374 40.7821 176.516 40.8364C176.668 40.8756 176.836 41.0046 177.02 41.2234C177.143 42.2198 177.253 43.2185 177.35 44.2194C177.458 45.2053 177.596 46.1791 177.766 47.1408C177.946 48.0875 178.176 49.0186 178.457 49.9344C178.75 50.8478 179.135 51.7187 179.612 52.547C179.64 52.6345 179.622 52.7171 179.556 52.7947C179.493 52.8852 179.399 52.9546 179.276 53.0029C179.154 53.064 179.028 53.0994 178.898 53.1092C178.767 53.119 178.654 53.0794 178.559 52.9903L177.32 49.8969C177.298 50.0726 177.193 50.3423 177.006 50.7058C176.832 51.0671 176.614 51.4427 176.352 51.8326C176.101 52.2074 175.831 52.5525 175.543 52.8677C175.253 53.1702 174.987 53.3493 174.745 53.405C174.149 53.5498 173.638 53.4219 173.21 53.0213C172.782 52.6207 172.42 52.0632 172.122 51.3489C171.835 50.6195 171.597 49.7954 171.408 48.8767C171.22 47.9579 171.062 47.0603 170.934 46.1838C170.805 45.3073 170.698 44.5131 170.613 43.801C170.527 43.089 170.435 42.5696 170.338 42.243C170.358 42.1336 170.409 42.0454 170.489 41.9783C170.583 41.9089 170.687 41.864 170.803 41.8437C170.918 41.8233 171.032 41.8298 171.143 41.863C171.268 41.8939 171.365 41.9562 171.434 42.0497C171.537 42.4812 171.639 43.025 171.742 43.6812C171.844 44.3375 171.955 45.0386 172.073 45.7846C172.189 46.5178 172.319 47.2551 172.463 47.9966C172.62 48.7358 172.791 49.4063 172.976 50.0083C173.16 50.5974 173.364 51.0836 173.59 51.4668C173.827 51.8349 174.098 52.0186 174.402 52.0179C174.62 51.9794 174.825 51.8705 175.018 51.691C175.211 51.5115 175.398 51.2935 175.577 51.0371C175.755 50.7679 175.916 50.4816 176.061 50.1784C176.203 49.8624 176.322 49.5637 176.418 49.2824C176.512 48.9882 176.584 48.7243 176.636 48.4904C176.687 48.2566 176.709 48.0809 176.701 47.9632C176.687 47.8071 176.663 47.56 176.63 47.2221C176.595 46.8714 176.546 46.4833 176.484 46.0579C176.433 45.6174 176.371 45.1523 176.298 44.6628C176.237 44.171 176.176 43.7124 176.115 43.287C176.063 42.8465 176.008 42.4595 175.95 42.1261C175.901 41.7776 175.864 41.5265 175.837 41.3726ZM181.239 51.7443C180.889 49.9816 180.592 48.4869 180.349 47.2604C180.107 46.0339 179.908 45.0179 179.752 44.2123C179.597 43.4067 179.474 42.7807 179.382 42.3341C179.3 41.8725 179.234 41.5338 179.183 41.3181C179.144 41.1001 179.122 40.9719 179.115 40.9334C179.106 40.8821 179.1 40.85 179.098 40.8372C179.09 40.7195 179.131 40.6132 179.22 40.5182C179.309 40.4231 179.41 40.359 179.523 40.3259C179.647 40.2776 179.771 40.269 179.896 40.2999C180.02 40.3308 180.118 40.3995 180.19 40.5059L181.027 44.9196C181.064 44.0009 181.242 43.2093 181.561 42.5449C181.893 41.8781 182.299 41.3306 182.778 40.9022C183.256 40.461 183.774 40.1383 184.333 39.9339C184.905 39.7273 185.449 39.6248 185.965 39.6264C186.138 39.6355 186.272 39.6845 186.367 39.7736C186.475 39.8603 186.54 39.9678 186.563 40.096C186.596 40.2092 186.585 40.3302 186.528 40.4592C186.482 40.5731 186.406 40.6659 186.299 40.7375C185.716 40.8008 185.18 40.9482 184.692 41.1797C184.214 41.3961 183.787 41.6762 183.412 42.0201C183.047 42.349 182.735 42.7211 182.478 43.1367C182.234 43.55 182.057 43.9713 181.947 44.4004C181.78 45.0249 181.701 45.6668 181.712 46.3261C181.733 46.9702 181.786 47.6087 181.871 48.2416C181.969 48.8722 182.074 49.4684 182.186 50.0304C182.312 50.5901 182.405 51.0826 182.467 51.5081C182.479 51.6514 182.434 51.7717 182.332 51.869C182.241 51.9512 182.125 52.0047 181.984 52.0296C181.858 52.065 181.719 52.0631 181.566 52.0239C181.424 51.9695 181.315 51.8764 181.239 51.7443ZM94.5263 93.0505C94.4417 93.396 94.2957 93.8051 94.0882 94.2781C93.8807 94.751 93.6238 95.2061 93.3175 95.6436C93.0113 96.081 92.6574 96.4739 92.2561 96.8223C91.8654 97.1557 91.4327 97.3642 90.9583 97.4478C90.7531 97.484 90.5819 97.4878 90.4446 97.4591C90.3202 97.4281 90.1988 97.3768 90.0803 97.3052C89.9725 97.2184 89.8677 97.1113 89.7659 96.9838C89.664 96.8563 89.5396 96.713 89.3925 96.5538C89.1641 95.933 88.9745 95.2326 88.8237 94.4527C88.6858 93.6705 88.6109 92.8706 88.5989 92.0529C88.5998 91.233 88.6716 90.4403 88.8142 89.6747C88.9674 88.8941 89.2168 88.2088 89.5624 87.619C89.9207 87.027 90.3884 86.5677 90.9655 86.2412C91.5531 85.8996 92.2743 85.7526 93.1288 85.8002C93.0633 84.9788 92.9273 84.1698 92.7207 83.3733C92.5119 82.5639 92.3103 81.7202 92.1158 80.8422C92.0932 80.714 92.1351 80.6141 92.2414 80.5424C92.3455 80.458 92.467 80.3969 92.6058 80.3592C92.7551 80.3064 92.895 80.2751 93.0255 80.2653C93.1688 80.2533 93.2631 80.2631 93.3084 80.2948C93.499 81.4511 93.6728 82.5113 93.8295 83.4753C93.9991 84.437 94.1596 85.3474 94.3111 86.2066C94.4603 87.0529 94.6051 87.8736 94.7452 88.6686C94.8854 89.4636 95.029 90.2779 95.176 91.1114C95.3358 91.9426 95.497 92.8199 95.6598 93.7431C95.8355 94.6641 96.0205 95.676 96.2149 96.7788C96.3152 96.9726 96.3265 97.1491 96.2488 97.3083C96.1839 97.4652 96.0843 97.5753 95.9501 97.6386C95.8158 97.702 95.6649 97.7087 95.4975 97.6589C95.3429 97.6068 95.2271 97.4752 95.1502 97.264L94.5263 93.0505ZM92.5075 87.0006C92.0067 87.0096 91.5688 87.2256 91.1939 87.6487C90.8295 88.0567 90.5326 88.585 90.3032 89.2337C90.0716 89.8695 89.9112 90.5721 89.8221 91.3414C89.7307 92.098 89.7129 92.8217 89.7686 93.5126C89.8349 94.1885 89.9732 94.7855 90.1836 95.3037C90.3939 95.8219 90.6839 96.1542 91.0535 96.3006C91.3741 96.2441 91.669 96.0797 91.9383 95.8074C92.2054 95.5223 92.443 95.183 92.6513 94.7893C92.8723 94.3933 93.061 93.9634 93.2172 93.4995C93.3839 93.0206 93.5209 92.5601 93.628 92.1181C93.7352 91.6761 93.8043 91.2805 93.8353 90.9313C93.8768 90.567 93.8817 90.2951 93.8501 90.1155C93.8252 89.9745 93.7811 89.7244 93.7178 89.3654C93.6545 89.0064 93.5644 88.6454 93.4476 88.2826C93.3435 87.9175 93.2089 87.6041 93.0438 87.3423C92.8914 87.0783 92.7127 86.9644 92.5075 87.0006ZM97.988 90.9527C97.9118 91.0455 97.7572 91.1058 97.5241 91.1336C97.3016 91.1464 97.0874 91.1313 96.8815 91.0883C96.6884 91.043 96.5485 90.9619 96.4617 90.845C96.3728 90.7152 96.4214 90.5414 96.6078 90.3234C96.684 90.2307 96.7711 90.1624 96.8692 90.1187C96.9778 90.0599 97.0811 90.0086 97.1792 89.9648C97.2878 89.906 97.3685 89.8389 97.4213 89.7635C97.487 89.6858 97.5138 89.5753 97.5017 89.432C97.4128 88.8527 97.3537 88.2549 97.3243 87.6387C97.3078 87.0202 97.3731 86.4533 97.5203 85.9382C97.6675 85.423 97.9277 84.9871 98.3012 84.6304C98.6874 84.2714 99.2388 84.0618 99.9554 84.0015C100.212 83.9563 100.512 83.9696 100.855 84.0413C101.196 84.1002 101.532 84.2062 101.863 84.3593C102.192 84.4997 102.49 84.6917 102.758 84.9354C103.023 85.1662 103.21 85.4374 103.318 85.7489C103.43 85.8613 103.407 86.0307 103.249 86.2569C103.09 86.4832 102.859 86.7487 102.556 87.0533C102.251 87.3452 101.901 87.6514 101.508 87.9719C101.115 88.2924 100.733 88.5978 100.361 88.8882C100.002 89.1763 99.6831 89.4308 99.4047 89.6518C99.1264 89.8727 98.948 90.0232 98.8695 90.1031C99.0346 90.5896 99.2107 91.1007 99.3977 91.6363C99.5846 92.1718 99.8022 92.6557 100.05 93.088C100.298 93.5202 100.571 93.8687 100.869 94.1335C101.178 94.3832 101.524 94.4741 101.909 94.4063C102.48 94.3453 102.946 94.1772 103.308 93.9019C103.682 93.6244 103.974 93.2952 104.184 92.9143C104.395 92.5334 104.542 92.1306 104.626 91.706C104.723 91.2791 104.778 90.8793 104.791 90.5067C104.818 90.1319 104.822 89.8203 104.805 89.5722C104.798 89.3089 104.805 89.1622 104.827 89.1321C104.954 89.0303 105.114 89.002 105.307 89.0473C105.498 89.0797 105.634 89.2476 105.714 89.5508C105.815 90.0486 105.806 90.6385 105.688 91.3203C105.571 92.0022 105.354 92.6486 105.039 93.2595C104.736 93.8682 104.332 94.3889 103.827 94.8218C103.332 95.2396 102.761 95.4526 102.115 95.4608C101.459 95.5633 100.906 95.4689 100.458 95.1777C100.008 94.8737 99.6224 94.4856 99.3012 94.0133C98.9905 93.526 98.7329 93.0029 98.5286 92.444C98.3243 91.885 98.1441 91.3879 97.988 90.9527ZM102.298 85.9287C101.788 85.4368 101.308 85.1513 100.858 85.072C100.408 84.9927 99.9639 85.0247 99.5264 85.168C99.2639 85.2539 99.0493 85.424 98.8826 85.6782C98.7136 85.9195 98.5943 86.2182 98.5249 86.5742C98.4532 86.9174 98.4279 87.2987 98.4489 87.718C98.4677 88.1246 98.5337 88.5361 98.6468 88.9524L102.298 85.9287ZM108.136 93.0307C108.413 93.1801 108.726 93.2307 109.075 93.1824C109.436 93.132 109.8 93.0215 110.167 92.8511C110.544 92.6656 110.913 92.4352 111.274 92.1599C111.646 91.8696 111.976 91.5668 112.265 91.2516C112.566 90.9341 112.813 90.6128 113.007 90.2877C113.211 89.9475 113.336 89.6413 113.38 89.369C113.423 89.0839 113.373 88.8414 113.232 88.6415C113.091 88.4416 112.83 88.3092 112.448 88.2443C111.821 88.5135 111.189 88.7506 110.551 88.9557C109.913 89.1608 109.323 89.2648 108.781 89.2677C108.253 89.2684 107.798 89.1303 107.419 88.8534C107.04 88.5765 106.802 88.0896 106.705 87.3927C106.626 86.7191 106.696 86.0655 106.915 85.4319C107.144 84.7833 107.473 84.2097 107.901 83.7112C108.341 83.2104 108.85 82.7968 109.427 82.4703C110.017 82.1415 110.636 81.9398 111.284 81.8652C111.414 81.8554 111.532 81.8479 111.637 81.8426C111.752 81.8223 111.858 81.8234 111.955 81.8461C112.051 81.8687 112.126 81.9151 112.178 81.9853C112.243 82.0532 112.282 82.1652 112.296 82.3213C112.317 82.5159 112.274 82.6822 112.166 82.8202C112.058 82.9583 111.893 83.0337 111.671 83.0465C110.887 83.026 110.213 83.1779 109.649 83.5021C109.084 83.8264 108.639 84.2223 108.311 84.6899C107.982 85.1447 107.776 85.6304 107.696 86.1471C107.615 86.6638 107.667 87.1107 107.853 87.4879C108.178 87.9065 108.544 88.1461 108.951 88.2065C109.369 88.2518 109.793 88.2168 110.222 88.1014C110.664 87.9838 111.108 87.8394 111.553 87.6683C111.997 87.4843 112.408 87.3787 112.787 87.3516C113.163 87.3117 113.496 87.3985 113.785 87.612C114.071 87.8127 114.286 88.2442 114.429 88.9064C114.491 89.3319 114.422 89.7671 114.223 90.2121C114.022 90.6442 113.74 91.0707 113.378 91.4916C113.026 91.8973 112.619 92.2865 112.156 92.659C111.69 93.0187 111.217 93.3336 110.736 93.6036C110.267 93.8713 109.814 94.0767 109.377 94.22C108.952 94.361 108.598 94.4167 108.316 94.3873C107.975 94.1828 107.777 93.9599 107.722 93.7185C107.664 93.4643 107.802 93.2351 108.136 93.0307ZM128.751 90.5657C128.519 89.245 128.316 87.9849 128.144 86.7856C127.985 85.584 127.829 84.4348 127.675 83.3381C127.522 82.2414 127.363 81.1918 127.199 80.1893C127.034 79.174 126.829 78.1987 126.584 77.2634C126.527 77.3132 126.461 77.3908 126.387 77.4964C126.326 77.5998 126.259 77.7042 126.185 77.8098C126.124 77.9131 126.055 78.0112 125.979 78.1039C125.901 78.1839 125.829 78.2295 125.765 78.2408C125.663 78.2589 125.56 78.2374 125.456 78.1763C125.363 78.1001 125.306 77.9979 125.283 77.8696L125.273 77.8119C125.271 77.7991 125.274 77.7787 125.282 77.7508C125.373 77.5894 125.468 77.3413 125.567 77.0064C125.68 76.6693 125.799 76.331 125.924 75.9916C126.062 75.6499 126.194 75.349 126.32 75.0888C126.457 74.8135 126.589 74.6645 126.717 74.6419C126.845 74.6193 126.947 74.6344 127.023 74.6872C127.098 74.74 127.163 74.8079 127.217 74.8909C127.284 74.9716 127.346 75.0599 127.403 75.1557C127.472 75.2492 127.564 75.319 127.678 75.365C128.068 75.0317 128.504 74.73 128.986 74.4601C129.465 74.1773 129.955 73.9586 130.457 73.8041C130.969 73.6344 131.473 73.5323 131.969 73.4977C132.463 73.4502 132.926 73.4876 133.358 73.6099C133.802 73.7298 134.197 73.9445 134.542 74.2538C134.887 74.5631 135.153 74.9791 135.337 75.5019C135.449 76.2094 135.36 76.9059 135.071 77.5915C134.782 78.2771 134.394 78.9273 133.908 79.5419C133.419 80.1438 132.876 80.7023 132.279 81.2173C131.68 81.7196 131.125 82.1679 130.613 82.5624C130.098 82.944 129.676 83.2498 129.346 83.4798C129.017 83.7098 128.868 83.8417 128.901 83.8757L129.783 90.3441C129.801 90.4467 129.77 90.5316 129.689 90.5987C129.606 90.653 129.507 90.6903 129.392 90.7106C129.274 90.7182 129.154 90.7129 129.032 90.6947C128.908 90.6638 128.814 90.6208 128.751 90.5657ZM128.663 82.5293C129.274 82.1703 129.904 81.7684 130.553 81.3235C131.202 80.8785 131.798 80.3966 132.341 79.8778C132.882 79.3461 133.336 78.7766 133.705 78.1695C134.085 77.5473 134.297 76.8752 134.342 76.1534C134.11 75.4406 133.729 74.9657 133.198 74.7288C132.677 74.4768 132.09 74.4085 131.436 74.5238C130.793 74.624 130.131 74.8796 129.449 75.2906C128.779 75.6865 128.179 76.1823 127.649 76.7782L128.663 82.5293ZM141.632 88.5722L135.675 79.6467C135.546 79.5109 135.493 79.3616 135.517 79.1987C135.539 79.0229 135.606 78.8789 135.719 78.7665C135.831 78.6541 135.973 78.5961 136.144 78.5923C136.326 78.5735 136.504 78.6478 136.679 78.8153L141.711 86.6544L141.698 76.7998C141.769 76.7478 141.853 76.6999 141.951 76.6561C142.062 76.6101 142.169 76.5845 142.274 76.5793C142.392 76.5717 142.501 76.5921 142.602 76.6404C142.703 76.6887 142.779 76.7811 142.83 76.9176C142.856 77.4418 142.875 78.1128 142.887 78.9304C142.899 79.7481 142.903 80.5936 142.898 81.467C142.891 82.3277 142.879 83.1562 142.86 83.9528C142.853 84.7342 142.85 85.3561 142.852 85.8185C142.848 86.0968 142.849 86.4736 142.853 86.9487C142.855 87.4111 142.853 87.9206 142.845 88.4773C142.85 89.0317 142.846 89.6076 142.832 90.205C142.834 90.8129 142.831 91.3952 142.823 91.9519C142.828 92.5063 142.818 93.0105 142.792 93.4646C142.782 93.9292 142.768 94.3018 142.751 94.5824C142.753 94.7408 142.696 94.8698 142.582 94.9693C142.467 95.0689 142.332 95.1258 142.176 95.1401C142.019 95.1544 141.863 95.1291 141.706 95.0642C141.562 94.9971 141.469 94.8813 141.427 94.7168L141.632 88.5722ZM146.55 87.3084C146.199 85.5456 145.903 84.0509 145.66 82.8245C145.417 81.598 145.218 80.5819 145.063 79.7763C144.908 78.9707 144.784 78.3447 144.692 77.8981C144.611 77.4365 144.545 77.0978 144.493 76.8821C144.455 76.6641 144.432 76.5359 144.426 76.4974C144.417 76.4461 144.411 76.4141 144.409 76.4012C144.401 76.2836 144.442 76.1772 144.531 76.0822C144.62 75.9872 144.721 75.9231 144.834 75.8899C144.958 75.8416 145.082 75.833 145.206 75.8639C145.331 75.8949 145.429 75.9635 145.5 76.0699L146.338 80.4837C146.375 79.5649 146.552 78.7734 146.871 78.1089C147.203 77.4422 147.609 76.8946 148.089 76.4662C148.567 76.0251 149.085 75.7023 149.644 75.498C150.216 75.2914 150.759 75.1889 151.275 75.1904C151.449 75.1995 151.583 75.2486 151.678 75.3376C151.786 75.4243 151.851 75.5318 151.874 75.6601C151.907 75.7732 151.895 75.8943 151.839 76.0232C151.793 76.1371 151.716 76.2299 151.61 76.3015C151.026 76.3648 150.49 76.5122 150.002 76.7437C149.525 76.9601 149.098 77.2403 148.723 77.5842C148.357 77.913 148.046 78.2852 147.789 78.7007C147.544 79.1141 147.368 79.5353 147.258 79.9645C147.091 80.589 147.012 81.2309 147.023 81.8901C147.044 82.5342 147.097 83.1728 147.182 83.8056C147.28 84.4362 147.385 85.0325 147.497 85.5944C147.622 86.1541 147.716 86.6467 147.778 87.0721C147.79 87.2154 147.745 87.3357 147.643 87.433C147.552 87.5152 147.435 87.5687 147.294 87.5936C147.168 87.629 147.029 87.6271 146.877 87.5879C146.735 87.5336 146.626 87.4404 146.55 87.3084ZM155.215 80.8621C155.138 80.9549 154.984 81.0152 154.751 81.0431C154.528 81.0559 154.314 81.0407 154.108 80.9977C153.915 80.9524 153.775 80.8713 153.688 80.7544C153.599 80.6247 153.648 80.4508 153.834 80.2328C153.911 80.1401 153.998 80.0718 154.096 80.0281C154.204 79.9693 154.308 79.918 154.406 79.8743C154.514 79.8154 154.595 79.7483 154.648 79.6729C154.714 79.5952 154.74 79.4847 154.728 79.3414C154.639 78.7621 154.58 78.1643 154.551 77.5481C154.534 76.9296 154.6 76.3628 154.747 75.8476C154.894 75.3325 155.154 74.8965 155.528 74.5398C155.914 74.1808 156.465 73.9712 157.182 73.911C157.438 73.8657 157.738 73.879 158.081 73.9507C158.422 74.0096 158.758 74.1156 159.089 74.2688C159.418 74.4091 159.717 74.6011 159.984 74.8448C160.25 75.0756 160.436 75.3468 160.544 75.6583C160.657 75.7707 160.634 75.9401 160.475 76.1663C160.317 76.3926 160.086 76.6581 159.783 76.9627C159.477 77.2546 159.128 77.5608 158.735 77.8813C158.342 78.2018 157.959 78.5073 157.587 78.7976C157.228 79.0857 156.91 79.3402 156.631 79.5612C156.353 79.7821 156.175 79.9326 156.096 80.0125C156.261 80.4991 156.437 81.0101 156.624 81.5457C156.811 82.0812 157.029 82.5651 157.277 82.9974C157.525 83.4296 157.798 83.7781 158.096 84.0429C158.404 84.2926 158.751 84.3836 159.136 84.3157C159.707 84.2547 160.173 84.0866 160.534 83.8113C160.908 83.5338 161.201 83.2046 161.411 82.8237C161.622 82.4428 161.769 82.0401 161.852 81.6154C161.949 81.1885 162.004 80.7887 162.018 80.4161C162.044 80.0413 162.049 79.7298 162.032 79.4816C162.025 79.2183 162.032 79.0716 162.053 79.0415C162.181 78.9397 162.341 78.9114 162.534 78.9567C162.725 78.9891 162.86 79.157 162.94 79.4602C163.041 79.9581 163.033 80.5479 162.915 81.2298C162.797 81.9116 162.581 82.558 162.265 83.1689C161.963 83.7776 161.559 84.2983 161.053 84.7312C160.558 85.149 159.988 85.362 159.341 85.3702C158.685 85.4727 158.133 85.3784 157.685 85.0871C157.235 84.7831 156.849 84.395 156.528 83.9228C156.217 83.4355 155.96 82.9123 155.755 82.3534C155.551 81.7944 155.371 81.2973 155.215 80.8621ZM159.525 75.8381C159.015 75.3462 158.535 75.0607 158.085 74.9814C157.634 74.9021 157.19 74.9341 156.753 75.0774C156.49 75.1633 156.276 75.3334 156.109 75.5876C155.94 75.8289 155.821 76.1276 155.751 76.4836C155.68 76.8268 155.654 77.2081 155.676 77.6274C155.694 78.034 155.76 78.4455 155.873 78.8619L159.525 75.8381ZM156.125 72.5305C155.727 72.5214 155.49 72.4112 155.413 72.2C155.336 71.9888 155.363 71.7327 155.495 71.4318C155.638 71.1158 155.841 70.7692 156.105 70.3921C156.382 70.0127 156.661 69.6462 156.943 69.2925C157.174 69.2518 157.345 69.2876 157.457 69.4C157.57 69.5125 157.641 69.652 157.67 69.8187L157.697 69.9726C157.701 70.1438 157.644 70.3456 157.526 70.5779C157.419 70.7951 157.281 71.0244 157.112 71.2657C156.954 71.492 156.782 71.7205 156.598 71.9513C156.412 72.1692 156.254 72.3623 156.125 72.5305ZM163.489 72.8782C163.479 72.7477 163.512 72.6361 163.589 72.5433C163.665 72.4505 163.76 72.3876 163.873 72.3544C163.984 72.3084 164.101 72.3009 164.226 72.3318C164.348 72.3499 164.455 72.3971 164.548 72.4733L165.847 80.1773C165.928 79.211 165.985 78.2622 166.019 77.3306C166.064 76.384 166.169 75.5193 166.335 74.7364C166.499 73.9406 166.764 73.266 167.129 72.7124C167.492 72.146 168.039 71.7651 168.772 71.5699C169.163 71.4613 169.53 71.5221 169.875 71.7522C170.217 71.9695 170.533 72.2972 170.822 72.7355C171.123 73.1715 171.401 73.6977 171.655 74.314C171.907 74.9174 172.133 75.5586 172.332 76.2374C172.541 76.9012 172.726 77.576 172.887 78.2616C173.048 78.9473 173.186 79.5839 173.303 80.1715C173.42 80.7591 173.511 81.2784 173.578 81.7295C173.657 82.1783 173.708 82.5064 173.732 82.7139C173.68 82.9477 173.545 83.117 173.325 83.2218C173.121 83.3372 172.906 83.2825 172.682 83.0577C172.626 82.8163 172.546 82.4007 172.442 81.8108C172.336 81.2081 172.202 80.5244 172.04 79.7595C171.892 78.9924 171.712 78.1977 171.501 77.3755C171.301 76.5383 171.068 75.7794 170.802 75.099C170.547 74.4036 170.256 73.8401 169.929 73.4086C169.612 72.962 169.262 72.7394 168.879 72.7409C168.55 72.7461 168.266 72.9746 168.028 73.4264C167.803 73.8759 167.608 74.4526 167.441 75.1563C167.287 75.8577 167.16 76.6403 167.061 77.5039C166.975 78.3653 166.906 79.2104 166.854 80.0394C166.815 80.8661 166.79 81.6241 166.779 82.3135C166.768 83.0029 166.775 83.5305 166.8 83.8964C166.78 84.0057 166.718 84.1026 166.614 84.1871C166.509 84.2716 166.387 84.3262 166.246 84.3511C166.12 84.3865 165.982 84.3911 165.832 84.3646C165.694 84.3359 165.581 84.2567 165.492 84.127L163.489 72.8782ZM175.322 77.3166C175.246 77.4093 175.092 77.4696 174.858 77.4975C174.636 77.5103 174.422 77.4952 174.216 77.4522C174.023 77.4069 173.883 77.3258 173.796 77.2089C173.707 77.0791 173.756 76.9053 173.942 76.6873C174.018 76.5945 174.105 76.5263 174.203 76.4825C174.312 76.4237 174.415 76.3725 174.514 76.3287C174.622 76.2699 174.703 76.2028 174.756 76.1274C174.821 76.0497 174.848 75.9392 174.836 75.7959C174.747 75.2166 174.688 74.6188 174.659 74.0026C174.642 73.384 174.707 72.8172 174.855 72.3021C175.002 71.7869 175.262 71.351 175.635 70.9943C176.022 70.6353 176.573 70.4257 177.29 70.3654C177.546 70.3202 177.846 70.3334 178.189 70.4051C178.53 70.464 178.866 70.57 179.197 70.7232C179.526 70.8636 179.824 71.0556 180.092 71.2992C180.358 71.5301 180.544 71.8013 180.652 72.1128C180.764 72.2252 180.741 72.3945 180.583 72.6208C180.425 72.847 180.194 73.1125 179.89 73.4172C179.585 73.7091 179.236 74.0153 178.843 74.3358C178.45 74.6563 178.067 74.9617 177.695 75.2521C177.336 75.5401 177.017 75.7947 176.739 76.0156C176.461 76.2366 176.282 76.387 176.204 76.467C176.369 76.9535 176.545 77.4646 176.732 78.0001C176.919 78.5357 177.137 79.0196 177.385 79.4518C177.633 79.8841 177.906 80.2326 178.204 80.4974C178.512 80.7471 178.859 80.838 179.243 80.7702C179.814 80.7092 180.281 80.541 180.642 80.2658C181.016 79.9882 181.308 79.659 181.519 79.2782C181.729 78.8973 181.876 78.4945 181.96 78.0699C182.057 77.643 182.112 77.2432 182.126 76.8706C182.152 76.4957 182.157 76.1842 182.139 75.936C182.133 75.6728 182.14 75.5261 182.161 75.4959C182.288 75.3941 182.449 75.3659 182.642 75.4111C182.833 75.4436 182.968 75.6114 183.048 75.9147C183.149 76.4125 183.14 77.0024 183.023 77.6842C182.905 78.3661 182.688 79.0124 182.373 79.6234C182.07 80.232 181.666 80.7528 181.161 81.1857C180.666 81.6035 180.096 81.8165 179.449 81.8247C178.793 81.9272 178.241 81.8328 177.793 81.5416C177.343 81.2376 176.957 80.8494 176.635 80.3772C176.325 79.8899 176.067 79.3668 175.863 78.8078C175.659 78.2489 175.478 77.7518 175.322 77.3166ZM179.633 72.2925C179.123 71.8007 178.643 71.5151 178.192 71.4359C177.742 71.3566 177.298 71.3886 176.861 71.5318C176.598 71.6178 176.384 71.7879 176.217 72.042C176.048 72.2834 175.929 72.582 175.859 72.9381C175.788 73.2812 175.762 73.6625 175.783 74.0819C175.802 74.4885 175.868 74.8999 175.981 75.3163L179.633 72.2925ZM176.233 68.9849C175.835 68.9758 175.597 68.8657 175.52 68.6545C175.444 68.4433 175.471 68.1872 175.603 67.8863C175.746 67.5702 175.949 67.2237 176.213 66.8466C176.49 66.4672 176.769 66.1007 177.05 65.7469C177.281 65.7062 177.453 65.7421 177.565 65.8545C177.678 65.9669 177.749 66.1065 177.778 66.2732L177.805 66.427C177.809 66.5983 177.752 66.8 177.634 67.0323C177.527 67.2495 177.389 67.4788 177.22 67.7202C177.062 67.9464 176.89 68.1749 176.706 68.4057C176.52 68.6237 176.362 68.8168 176.233 68.9849ZM185.482 75.5251C185.406 75.6179 185.251 75.6782 185.018 75.7061C184.796 75.7189 184.581 75.7038 184.375 75.6607C184.182 75.6155 184.042 75.5344 183.956 75.4174C183.867 75.2877 183.915 75.1138 184.102 74.8959C184.178 74.8031 184.265 74.7349 184.363 74.6911C184.472 74.6323 184.575 74.581 184.673 74.5373C184.782 74.4785 184.863 74.4114 184.915 74.3359C184.981 74.2583 185.008 74.1478 184.996 74.0044C184.907 73.4251 184.848 72.8274 184.818 72.2111C184.802 71.5926 184.867 71.0258 185.014 70.5106C185.161 69.9955 185.422 69.5595 185.795 69.2028C186.181 68.8438 186.733 68.6342 187.449 68.574C187.706 68.5288 188.006 68.542 188.349 68.6137C188.69 68.6726 189.026 68.7786 189.357 68.9318C189.686 69.0721 189.984 69.2641 190.252 69.5078C190.517 69.7386 190.704 70.0098 190.812 70.3214C190.924 70.4338 190.901 70.6031 190.743 70.8294C190.584 71.0556 190.353 71.3211 190.05 71.6258C189.745 71.9176 189.395 72.2238 189.002 72.5443C188.609 72.8649 188.227 73.1703 187.855 73.4606C187.496 73.7487 187.177 74.0032 186.899 74.2242C186.62 74.4452 186.442 74.5956 186.364 74.6756C186.529 75.1621 186.705 75.6731 186.892 76.2087C187.079 76.7443 187.296 77.2282 187.544 77.6604C187.792 78.0926 188.065 78.4411 188.363 78.7059C188.672 78.9556 189.018 79.0466 189.403 78.9788C189.974 78.9177 190.44 78.7496 190.802 78.4743C191.176 78.1968 191.468 77.8676 191.679 77.4867C191.889 77.1059 192.036 76.7031 192.12 76.2784C192.217 75.8515 192.272 75.4518 192.285 75.0792C192.312 74.7043 192.316 74.3928 192.299 74.1446C192.292 73.8814 192.299 73.7347 192.321 73.7045C192.448 73.6027 192.608 73.5744 192.801 73.6197C192.992 73.6522 193.128 73.82 193.208 74.1233C193.309 74.6211 193.3 75.2109 193.182 75.8928C193.065 76.5746 192.848 77.221 192.533 77.8319C192.23 78.4406 191.826 78.9614 191.321 79.3943C190.826 79.8121 190.255 80.0251 189.609 80.0333C188.953 80.1358 188.4 80.0414 187.952 79.7502C187.502 79.4461 187.116 79.058 186.795 78.5858C186.484 78.0985 186.227 77.5754 186.023 77.0164C185.818 76.4575 185.638 75.9604 185.482 75.5251ZM189.792 70.5011C189.282 70.0093 188.802 69.7237 188.352 69.6444C187.902 69.5652 187.458 69.5972 187.02 69.7404C186.758 69.8264 186.543 69.9964 186.377 70.2506C186.208 70.4919 186.088 70.7906 186.019 71.1466C185.947 71.4898 185.922 71.8711 185.943 72.2905C185.962 72.697 186.028 73.1085 186.141 73.5249L189.792 70.5011ZM195.63 77.6031C195.907 77.7525 196.22 77.8031 196.569 77.7549C196.93 77.7044 197.294 77.5939 197.661 77.4235C198.038 77.238 198.407 77.0077 198.769 76.7324C199.14 76.442 199.47 76.1393 199.759 75.824C200.06 75.5065 200.307 75.1852 200.501 74.8601C200.705 74.52 200.83 74.2138 200.874 73.9415C200.917 73.6564 200.867 73.4139 200.726 73.214C200.585 73.0141 200.324 72.8816 199.942 72.8167C199.315 73.0859 198.683 73.323 198.045 73.5281C197.407 73.7332 196.817 73.8372 196.275 73.8401C195.747 73.8408 195.292 73.7027 194.913 73.4259C194.534 73.149 194.296 72.6621 194.199 71.9651C194.12 71.2915 194.19 70.638 194.409 70.0044C194.638 69.3557 194.967 68.7822 195.395 68.2836C195.835 67.7829 196.344 67.3692 196.921 67.0427C197.511 66.7139 198.13 66.5122 198.778 66.4376C198.908 66.4279 199.026 66.4203 199.131 66.4151C199.246 66.3947 199.352 66.3959 199.449 66.4185C199.545 66.4411 199.62 66.4875 199.672 66.5577C199.737 66.6256 199.776 66.7376 199.79 66.8937C199.812 67.0884 199.768 67.2547 199.66 67.3927C199.552 67.5307 199.387 67.6061 199.165 67.6189C198.381 67.5984 197.707 67.7503 197.143 68.0746C196.578 68.3988 196.133 68.7948 195.805 69.2624C195.476 69.7172 195.27 70.2029 195.19 70.7196C195.109 71.2362 195.161 71.6831 195.347 72.0603C195.672 72.479 196.038 72.7185 196.445 72.7789C196.863 72.8242 197.287 72.7892 197.716 72.6739C198.158 72.5563 198.602 72.4119 199.047 72.2407C199.491 72.0567 199.902 71.9512 200.281 71.9241C200.657 71.8842 200.99 71.971 201.279 72.1845C201.565 72.3851 201.78 72.8166 201.923 73.4789C201.985 73.9043 201.916 74.3395 201.717 74.7845C201.516 75.2167 201.234 75.6432 200.872 76.064C200.52 76.4698 200.113 76.8589 199.65 77.2315C199.184 77.5912 198.711 77.906 198.23 78.176C197.761 78.4437 197.308 78.6492 196.871 78.7924C196.446 78.9334 196.092 78.9892 195.81 78.9597C195.469 78.7553 195.271 78.5324 195.216 78.291C195.158 78.0368 195.296 77.8075 195.63 77.6031Z" fill="#2C2C2C"/>
<path d="M116.5 22.3048C106.09 12.4085 87.4998 -0.678853 70.8464 1.17758C59.7887 2.41022 48.7409 9.93355 45.2842 22.5957M45.2842 22.5957C44.6001 25.1015 44.2389 27.9146 44.2746 31.0894C44.4586 47.4598 57.1983 40.91 57.8461 35.2079C58.5513 29 52.6991 26.3124 45.2842 22.5957ZM45.2842 22.5957C39.4173 19.655 32.4998 18.8203 26.0663 19.7621C13.7986 21.558 3.00857 32.977 3.00857 32.977M11.0718 32.575L1 35.8203L1.85404 23.1398" stroke="#2C2C2C" stroke-linecap="round" stroke-linejoin="round"/>
</svg>
