<svg width="205" height="105" viewBox="0 0 205 105" fill="none" xmlns="http://www.w3.org/2000/svg">
<rect width="92.9052" height="23.7898" transform="matrix(0.986228 -0.165389 0.168049 0.985779 97.5415 78.5361)" fill="white"/>
<rect width="73.1913" height="23.7898" transform="matrix(0.986228 -0.165389 0.168049 0.985779 102.58 47.2158)" fill="white"/>
<path d="M112.746 65.7795C112.746 65.7003 112.908 65.5725 113.234 65.396C113.573 65.2173 113.992 65.0047 114.49 64.7581C114.986 64.4987 115.537 64.2099 116.142 63.8917C116.745 63.5606 117.317 63.2084 117.86 62.8352C118.415 62.4596 118.901 62.0697 119.319 61.6655C119.735 61.2484 120.017 60.8219 120.165 60.386C120.129 60.1808 119.959 60.0454 119.657 59.9797C119.354 59.9141 118.966 59.8835 118.49 59.8879C118.015 59.8924 117.478 59.921 116.879 59.9737C116.28 60.0264 115.659 60.0633 115.015 60.0843C114.383 60.1031 113.76 60.0939 113.146 60.0569C112.531 60.0198 111.971 59.9202 111.467 59.758C110.96 59.5829 110.532 59.3343 110.185 59.0122C109.835 58.6772 109.61 58.2276 109.511 57.6634C109.413 57.112 109.437 56.5328 109.581 55.9256C109.736 55.3033 109.971 54.6867 110.286 54.0758C110.602 53.4649 110.98 52.8759 111.422 52.3087C111.877 51.7393 112.362 51.2242 112.875 50.7634C113.389 50.3026 113.91 49.9199 114.438 49.6152C114.966 49.3106 115.474 49.1153 115.961 49.0294C116.089 49.0068 116.224 48.983 116.365 48.9581C116.504 48.9205 116.627 48.9054 116.734 48.9129C116.854 48.9182 116.954 48.9601 117.033 49.0386C117.124 49.1019 117.184 49.217 117.213 49.3837C117.286 49.794 117.203 50.1127 116.965 50.3397C116.728 50.5667 116.417 50.7141 116.032 50.7819L115.157 50.6585C114.837 50.715 114.488 50.8756 114.112 51.1403C113.746 51.3899 113.386 51.7112 113.032 52.1041C112.676 52.4843 112.336 52.9145 112.011 53.3949C111.696 53.8603 111.423 54.3381 111.192 54.8283C110.972 55.3035 110.804 55.776 110.689 56.2459C110.584 56.7007 110.562 57.1013 110.623 57.4475C110.7 57.8835 110.904 58.2176 111.236 58.45C111.566 58.6695 111.976 58.822 112.467 58.9073C112.958 58.9926 113.506 59.0281 114.112 59.0138C114.728 58.9845 115.35 58.9476 115.976 58.9032C116.603 58.8588 117.218 58.8231 117.822 58.796C118.438 58.7667 118.989 58.7818 119.476 58.8415C119.96 58.8883 120.365 59.0087 120.69 59.2026C121.013 59.3837 121.209 59.6729 121.279 60.0705C121.347 60.4551 121.261 60.867 121.021 61.3059C120.781 61.7449 120.443 62.188 120.006 62.6352C119.567 63.0696 119.048 63.4983 118.448 63.9214C117.859 64.3294 117.256 64.7 116.641 65.0333C116.023 65.3538 115.41 65.6271 114.802 65.8533C114.207 66.0773 113.684 66.2224 113.233 66.2887C113.105 66.3113 112.988 66.2857 112.882 66.2117C112.777 66.1378 112.731 65.9937 112.746 65.7795ZM121.144 48.3732C121.387 48.0263 121.597 47.8637 121.772 47.8856C121.961 47.9053 122.126 48.0546 122.268 48.3337L124.196 59.0406L127.99 51.4301C128.208 51.3917 128.395 51.3985 128.549 51.4505C128.714 51.4875 128.82 51.6342 128.865 51.8907L125.021 59.7874L131.171 61.5986C131.219 61.6431 131.28 61.7249 131.354 61.8441C131.438 61.9482 131.492 62.0644 131.514 62.1926C131.535 62.308 131.51 62.4313 131.441 62.5626C131.369 62.681 131.212 62.7681 130.971 62.8239L124.626 60.8091L125.179 63.9443C125.128 64.1781 125.057 64.3361 124.965 64.4183C124.874 64.5005 124.775 64.5378 124.668 64.5303C124.563 64.5356 124.452 64.5088 124.336 64.4499C124.233 64.3888 124.137 64.333 124.049 64.2824L121.144 48.3732ZM131.316 50.923C131.386 50.871 131.47 50.8231 131.568 50.7794C131.666 50.7356 131.76 50.7058 131.85 50.69C131.953 50.6719 132.052 50.6742 132.149 50.6968C132.245 50.7195 132.328 50.7776 132.398 50.8711C132.545 51.7046 132.71 52.6075 132.895 53.5798C133.09 54.537 133.289 55.5134 133.491 56.5091C133.703 57.4897 133.907 58.4586 134.103 59.4158C134.298 60.373 134.481 61.2597 134.651 62.0758C134.698 62.2659 134.672 62.4224 134.575 62.5454C134.478 62.6683 134.359 62.7422 134.218 62.7671C134.089 62.7897 133.958 62.7599 133.825 62.6776C133.694 62.6082 133.61 62.4709 133.574 62.2658L131.316 50.923ZM130.393 47.0399C130.364 46.8732 130.402 46.754 130.509 46.6824C130.613 46.5979 130.735 46.5432 130.876 46.5183C131.159 46.4686 131.349 46.5343 131.447 46.7153C131.555 46.8812 131.631 47.086 131.674 47.3297C131.624 47.4971 131.541 47.6242 131.424 47.7109C131.307 47.7977 131.175 47.8342 131.027 47.8206C130.892 47.8048 130.76 47.7354 130.633 47.6124C130.518 47.4872 130.438 47.2963 130.393 47.0399ZM136.421 56.9048C136.344 56.9976 136.19 57.0579 135.957 57.0858C135.734 57.0986 135.52 57.0835 135.314 57.0404C135.121 56.9952 134.981 56.9141 134.894 56.7971C134.805 56.6674 134.854 56.4935 135.04 56.2756C135.116 56.1828 135.204 56.1146 135.302 56.0708C135.41 56.012 135.514 55.9607 135.612 55.917C135.72 55.8582 135.801 55.7911 135.854 55.7156C135.919 55.638 135.946 55.5275 135.934 55.3841C135.845 54.8048 135.786 54.2071 135.757 53.5908C135.74 52.9723 135.806 52.4055 135.953 51.8903C136.1 51.3752 136.36 50.9392 136.734 50.5825C137.12 50.2235 137.671 50.0139 138.388 49.9537C138.644 49.9085 138.944 49.9217 139.287 49.9934C139.628 50.0523 139.964 50.1583 140.295 50.3115C140.624 50.4518 140.923 50.6438 141.19 50.8875C141.456 51.1183 141.642 51.3895 141.75 51.7011C141.863 51.8135 141.84 51.9828 141.681 52.2091C141.523 52.4353 141.292 52.7008 140.989 53.0055C140.683 53.2973 140.334 53.6035 139.941 53.924C139.548 54.2446 139.165 54.55 138.793 54.8403C138.434 55.1284 138.116 55.3829 137.837 55.6039C137.559 55.8249 137.38 55.9753 137.302 56.0553C137.467 56.5418 137.643 57.0528 137.83 57.5884C138.017 58.124 138.235 58.6079 138.483 59.0401C138.731 59.4723 139.004 59.8208 139.302 60.0856C139.61 60.3353 139.957 60.4263 140.342 60.3585C140.913 60.2974 141.379 60.1293 141.74 59.854C142.114 59.5765 142.407 59.2473 142.617 58.8664C142.828 58.4856 142.975 58.0828 143.058 57.6581C143.155 57.2312 143.21 56.8315 143.224 56.4589C143.25 56.084 143.255 55.7725 143.237 55.5243C143.231 55.2611 143.238 55.1144 143.259 55.0842C143.387 54.9824 143.547 54.9541 143.74 54.9994C143.931 55.0319 144.066 55.1997 144.146 55.503C144.247 56.0008 144.239 56.5906 144.121 57.2725C144.003 57.9543 143.787 58.6007 143.471 59.2116C143.169 59.8203 142.765 60.3411 142.259 60.774C141.764 61.1918 141.194 61.4048 140.547 61.413C139.891 61.5155 139.339 61.4211 138.891 61.1299C138.441 60.8258 138.055 60.4377 137.734 59.9655C137.423 59.4782 137.165 58.9551 136.961 58.3961C136.757 57.8372 136.577 57.3401 136.421 56.9048ZM140.731 51.8808C140.221 51.389 139.741 51.1034 139.291 51.0241C138.84 50.9449 138.396 50.9769 137.959 51.1201C137.696 51.2061 137.482 51.3761 137.315 51.6303C137.146 51.8716 137.027 52.1703 136.957 52.5263C136.886 52.8695 136.86 53.2508 136.881 53.6702C136.9 54.0767 136.966 54.4882 137.079 54.9046L140.731 51.8808ZM150.255 48.0595C150.254 47.9803 150.278 47.8902 150.326 47.7891C150.385 47.673 150.462 47.5866 150.558 47.5301C150.667 47.4713 150.792 47.469 150.934 47.5233C151.086 47.5626 151.254 47.6916 151.438 47.9104C151.561 48.9068 151.671 49.9055 151.768 50.9064C151.876 51.8922 152.015 52.866 152.184 53.8278C152.364 54.7744 152.595 55.7056 152.875 56.6213C153.168 57.5348 153.553 58.4057 154.03 59.2339C154.059 59.3214 154.04 59.404 153.975 59.4817C153.911 59.5722 153.818 59.6416 153.694 59.6898C153.572 59.7509 153.446 59.7864 153.316 59.7961C153.185 59.8059 153.073 59.7663 152.978 59.6773L151.738 56.5838C151.716 56.7596 151.612 57.0292 151.425 57.3927C151.25 57.754 151.032 58.1296 150.77 58.5195C150.519 58.8944 150.25 59.2394 149.961 59.5547C149.671 59.8571 149.405 60.0362 149.164 60.092C148.568 60.2367 148.056 60.1088 147.628 59.7082C147.201 59.3076 146.838 58.7502 146.54 58.0358C146.253 57.3064 146.015 56.4823 145.827 55.5636C145.638 54.6449 145.48 53.7473 145.352 52.8708C145.224 51.9943 145.117 51.2 145.031 50.488C144.945 49.7759 144.853 49.2566 144.756 48.93C144.776 48.8206 144.827 48.7324 144.908 48.6652C145.001 48.5959 145.106 48.551 145.221 48.5306C145.337 48.5103 145.45 48.5167 145.562 48.5499C145.686 48.5809 145.783 48.6431 145.852 48.7366C145.955 49.1681 146.057 49.712 146.16 50.3682C146.262 51.0244 146.373 51.7255 146.491 52.4715C146.607 53.2047 146.737 53.942 146.881 54.6835C147.038 55.4227 147.209 56.0933 147.395 56.6952C147.578 57.2844 147.783 57.7705 148.009 58.1537C148.246 58.5218 148.516 58.7055 148.82 58.7048C149.038 58.6664 149.243 58.5574 149.437 58.3779C149.63 58.1984 149.816 57.9805 149.996 57.7241C150.173 57.4548 150.334 57.1686 150.479 56.8654C150.621 56.5494 150.741 56.2507 150.836 55.9693C150.93 55.6752 151.002 55.4112 151.054 55.1774C151.105 54.9436 151.127 54.7678 151.119 54.6502C151.105 54.494 151.081 54.247 151.048 53.9091C151.013 53.5583 150.964 53.1702 150.903 52.7448C150.851 52.3043 150.789 51.8393 150.716 51.3498C150.656 50.858 150.595 50.3994 150.533 49.9739C150.482 49.5334 150.427 49.1465 150.368 48.8131C150.32 48.4646 150.282 48.2134 150.255 48.0595ZM155.766 57.361C156.044 57.5104 156.357 57.561 156.705 57.5127C157.067 57.4622 157.431 57.3518 157.797 57.1814C158.174 56.9959 158.544 56.7655 158.905 56.4902C159.277 56.1999 159.607 55.8971 159.895 55.5819C160.196 55.2643 160.444 54.9431 160.637 54.618C160.842 54.2778 160.966 53.9716 161.011 53.6993C161.053 53.4142 161.004 53.1717 160.863 52.9718C160.722 52.7719 160.46 52.6395 160.079 52.5746C159.452 52.8438 158.819 53.0809 158.181 53.286C157.543 53.491 156.953 53.5951 156.412 53.598C155.883 53.5987 155.429 53.4606 155.05 53.1837C154.67 52.9068 154.432 52.4199 154.336 51.723C154.257 51.0494 154.327 50.3958 154.545 49.7622C154.775 49.1136 155.103 48.54 155.531 48.0415C155.972 47.5407 156.481 47.1271 157.058 46.8005C157.647 46.4718 158.266 46.2701 158.914 46.1955C159.045 46.1857 159.162 46.1782 159.267 46.1729C159.383 46.1526 159.489 46.1537 159.585 46.1764C159.682 46.199 159.756 46.2454 159.808 46.3156C159.873 46.3834 159.913 46.4955 159.927 46.6516C159.948 46.8462 159.905 47.0125 159.797 47.1505C159.689 47.2886 159.524 47.364 159.301 47.3768C158.517 47.3563 157.843 47.5082 157.279 47.8324C156.715 48.1567 156.269 48.5526 155.942 49.0202C155.612 49.475 155.407 49.9607 155.326 50.4774C155.245 50.9941 155.298 51.441 155.483 51.8182C155.808 52.2368 156.174 52.4764 156.582 52.5368C156.999 52.5821 157.423 52.5471 157.852 52.4317C158.294 52.3141 158.738 52.1697 159.184 51.9986C159.627 51.8146 160.039 51.709 160.417 51.6819C160.794 51.642 161.126 51.7288 161.415 51.9423C161.702 52.143 161.917 52.5745 162.06 53.2367C162.122 53.6622 162.053 54.0974 161.854 54.5424C161.652 54.9745 161.37 55.401 161.008 55.8219C160.657 56.2276 160.249 56.6168 159.786 56.9893C159.321 57.349 158.847 57.6639 158.366 57.9339C157.898 58.2016 157.445 58.407 157.007 58.5503C156.583 58.6913 156.229 58.747 155.946 58.7176C155.606 58.5131 155.408 58.2902 155.352 58.0488C155.294 57.7946 155.432 57.5654 155.766 57.361ZM164.322 51.985C164.246 52.0778 164.091 52.1381 163.858 52.166C163.636 52.1788 163.421 52.1637 163.216 52.1206C163.022 52.0754 162.883 51.9943 162.796 51.8773C162.707 51.7476 162.756 51.5737 162.942 51.3558C163.018 51.263 163.105 51.1947 163.203 51.151C163.312 51.0922 163.415 51.0409 163.513 50.9972C163.622 50.9384 163.703 50.8712 163.755 50.7958C163.821 50.7181 163.848 50.6076 163.836 50.4643C163.747 49.885 163.688 49.2873 163.658 48.671C163.642 48.0525 163.707 47.4857 163.854 46.9705C164.002 46.4554 164.262 46.0194 164.635 45.6627C165.022 45.3037 165.573 45.0941 166.289 45.0339C166.546 44.9887 166.846 45.0019 167.189 45.0736C167.53 45.1325 167.866 45.2385 168.197 45.3917C168.526 45.532 168.824 45.724 169.092 45.9677C169.357 46.1985 169.544 46.4697 169.652 46.7813C169.764 46.8937 169.741 47.063 169.583 47.2893C169.424 47.5155 169.193 47.781 168.89 48.0857C168.585 48.3775 168.235 48.6837 167.842 49.0042C167.449 49.3247 167.067 49.6302 166.695 49.9205C166.336 50.2086 166.017 50.4631 165.739 50.6841C165.46 50.9051 165.282 51.0555 165.204 51.1355C165.369 51.622 165.545 52.133 165.732 52.6686C165.919 53.2042 166.136 53.6881 166.384 54.1203C166.632 54.5525 166.905 54.901 167.203 55.1658C167.512 55.4155 167.858 55.5065 168.243 55.4386C168.814 55.3776 169.28 55.2095 169.642 54.9342C170.016 54.6567 170.308 54.3275 170.519 53.9466C170.729 53.5657 170.876 53.163 170.96 52.7383C171.057 52.3114 171.112 51.9117 171.125 51.5391C171.152 51.1642 171.156 50.8527 171.139 50.6045C171.132 50.3413 171.14 50.1946 171.161 50.1644C171.288 50.0626 171.448 50.0343 171.642 50.0796C171.832 50.1121 171.968 50.2799 172.048 50.5831C172.149 51.081 172.14 51.6708 172.022 52.3527C171.905 53.0345 171.688 53.6809 171.373 54.2918C171.07 54.9005 170.666 55.4213 170.161 55.8541C169.666 56.2719 169.095 56.4849 168.449 56.4932C167.793 56.5956 167.241 56.5013 166.793 56.2101C166.342 55.906 165.957 55.5179 165.635 55.0457C165.325 54.5584 165.067 54.0353 164.863 53.4763C164.658 52.9174 164.478 52.4203 164.322 51.985ZM168.632 46.961C168.123 46.4692 167.643 46.1836 167.192 46.1043C166.742 46.0251 166.298 46.0571 165.861 46.2003C165.598 46.2863 165.383 46.4563 165.217 46.7105C165.048 46.9518 164.928 47.2505 164.859 47.6065C164.787 47.9497 164.762 48.331 164.783 48.7504C164.802 49.1569 164.868 49.5684 164.981 49.9848L168.632 46.961ZM111.487 92.236C111.403 92.5815 111.257 92.9906 111.049 93.4635C110.842 93.9364 110.585 94.3916 110.279 94.829C109.972 95.2665 109.619 95.6594 109.217 96.0078C108.827 96.3412 108.394 96.5497 107.92 96.6333C107.714 96.6695 107.543 96.6733 107.406 96.6446C107.281 96.6136 107.16 96.5623 107.042 96.4906C106.934 96.4039 106.829 96.2968 106.727 96.1693C106.625 96.0418 106.501 95.8985 106.354 95.7393C106.125 95.1185 105.936 94.4181 105.785 93.6382C105.647 92.856 105.572 92.056 105.56 91.2384C105.561 90.4185 105.633 89.6258 105.775 88.8602C105.929 88.0796 106.178 87.3943 106.524 86.8045C106.882 86.2125 107.35 85.7532 107.927 85.4267C108.514 85.0851 109.235 84.9381 110.09 84.9857C110.025 84.1643 109.889 83.3553 109.682 82.5588C109.473 81.7494 109.271 80.9057 109.077 80.0277C109.054 79.8995 109.096 79.7995 109.203 79.7279C109.307 79.6434 109.428 79.5824 109.567 79.5447C109.716 79.4919 109.856 79.4606 109.987 79.4508C110.13 79.4388 110.224 79.4486 110.27 79.4803C110.46 80.6366 110.634 81.6968 110.791 82.6608C110.96 83.6225 111.121 84.5329 111.272 85.3921C111.422 86.2384 111.566 87.059 111.706 87.8541C111.847 88.6491 111.99 89.4634 112.137 90.2969C112.297 91.1281 112.458 92.0053 112.621 92.9286C112.797 93.8496 112.982 94.8615 113.176 95.9643C113.276 96.1581 113.288 96.3346 113.21 96.4938C113.145 96.6506 113.046 96.7608 112.911 96.8241C112.777 96.8874 112.626 96.8942 112.459 96.8444C112.304 96.7923 112.188 96.6607 112.111 96.4495L111.487 92.236ZM109.469 86.1861C108.968 86.195 108.53 86.4111 108.155 86.8342C107.791 87.2422 107.494 87.7705 107.264 88.4192C107.033 89.055 106.872 89.7576 106.783 90.5269C106.692 91.2834 106.674 92.0072 106.73 92.6981C106.796 93.3739 106.934 93.971 107.145 94.4892C107.355 95.0074 107.645 95.3397 108.015 95.4861C108.335 95.4296 108.63 95.2652 108.9 94.9929C109.167 94.7078 109.404 94.3684 109.612 93.9747C109.834 93.5788 110.022 93.1489 110.178 92.685C110.345 92.2061 110.482 91.7456 110.589 91.3036C110.696 90.8616 110.765 90.466 110.796 90.1168C110.838 89.7525 110.843 89.4806 110.811 89.301C110.786 89.16 110.742 88.9099 110.679 88.5509C110.616 88.1918 110.526 87.8309 110.409 87.4681C110.305 87.103 110.17 86.7896 110.005 86.5278C109.853 86.2638 109.674 86.1499 109.469 86.1861ZM114.949 90.1382C114.873 90.2309 114.718 90.2913 114.485 90.3191C114.263 90.3319 114.049 90.3168 113.843 90.2738C113.65 90.2285 113.51 90.1474 113.423 90.0305C113.334 89.9007 113.383 89.7269 113.569 89.5089C113.645 89.4161 113.732 89.3479 113.83 89.3042C113.939 89.2453 114.042 89.1941 114.14 89.1503C114.249 89.0915 114.33 89.0244 114.383 88.949C114.448 88.8713 114.475 88.7608 114.463 88.6175C114.374 88.0382 114.315 87.4404 114.286 86.8242C114.269 86.2057 114.334 85.6388 114.482 85.1237C114.629 84.6085 114.889 84.1726 115.262 83.8159C115.649 83.4569 116.2 83.2473 116.917 83.187C117.173 83.1418 117.473 83.1551 117.816 83.2268C118.157 83.2856 118.493 83.3917 118.824 83.5448C119.153 83.6852 119.451 83.8772 119.719 84.1208C119.984 84.3517 120.171 84.6229 120.279 84.9344C120.391 85.0468 120.368 85.2161 120.21 85.4424C120.051 85.6687 119.821 85.9341 119.517 86.2388C119.212 86.5307 118.862 86.8369 118.469 87.1574C118.076 87.4779 117.694 87.7833 117.322 88.0737C116.963 88.3618 116.644 88.6163 116.366 88.8372C116.088 89.0582 115.909 89.2087 115.831 89.2886C115.996 89.7751 116.172 90.2862 116.359 90.8217C116.546 91.3573 116.763 91.8412 117.011 92.2734C117.26 92.7057 117.533 93.0542 117.83 93.319C118.139 93.5687 118.486 93.6596 118.87 93.5918C119.441 93.5308 119.907 93.3626 120.269 93.0874C120.643 92.8099 120.935 92.4807 121.146 92.0998C121.356 91.7189 121.503 91.3161 121.587 90.8915C121.684 90.4646 121.739 90.0648 121.752 89.6922C121.779 89.3173 121.783 89.0058 121.766 88.7577C121.759 88.4944 121.767 88.3477 121.788 88.3175C121.915 88.2157 122.076 88.1875 122.269 88.2328C122.459 88.2652 122.595 88.4331 122.675 88.7363C122.776 89.2341 122.767 89.824 122.65 90.5058C122.532 91.1877 122.315 91.8341 122 92.445C121.697 93.0536 121.293 93.5744 120.788 94.0073C120.293 94.4251 119.722 94.6381 119.076 94.6463C118.42 94.7488 117.868 94.6544 117.42 94.3632C116.969 94.0592 116.584 93.6711 116.262 93.1988C115.952 92.7115 115.694 92.1884 115.49 91.6295C115.285 91.0705 115.105 90.5734 114.949 90.1382ZM119.259 85.1142C118.75 84.6223 118.27 84.3367 117.819 84.2575C117.369 84.1782 116.925 84.2102 116.488 84.3535C116.225 84.4394 116.01 84.6095 115.844 84.8636C115.675 85.105 115.556 85.4037 115.486 85.7597C115.414 86.1029 115.389 86.4841 115.41 86.9035C115.429 87.3101 115.495 87.7215 115.608 88.1379L119.259 85.1142ZM125.097 92.2162C125.375 92.3656 125.688 92.4162 126.036 92.3679C126.397 92.3174 126.761 92.207 127.128 92.0366C127.505 91.8511 127.874 91.6207 128.236 91.3454C128.608 91.0551 128.938 90.7523 129.226 90.437C129.527 90.1195 129.774 89.7982 129.968 89.4732C130.173 89.133 130.297 88.8268 130.342 88.5545C130.384 88.2694 130.335 88.0269 130.194 87.827C130.053 87.6271 129.791 87.4947 129.41 87.4298C128.783 87.699 128.15 87.9361 127.512 88.1412C126.874 88.3462 126.284 88.4502 125.742 88.4532C125.214 88.4539 124.76 88.3158 124.38 88.0389C124.001 87.762 123.763 87.2751 123.667 86.5781C123.587 85.9046 123.657 85.251 123.876 84.6174C124.106 83.9688 124.434 83.3952 124.862 82.8967C125.302 82.3959 125.811 81.9823 126.388 81.6557C126.978 81.327 127.597 81.1253 128.245 81.0507C128.376 81.0409 128.493 81.0334 128.598 81.0281C128.713 81.0078 128.819 81.0089 128.916 81.0315C129.013 81.0542 129.087 81.1006 129.139 81.1707C129.204 81.2386 129.243 81.3507 129.258 81.5068C129.279 81.7014 129.235 81.8677 129.127 82.0057C129.02 82.1437 128.854 82.2191 128.632 82.2319C127.848 82.2115 127.174 82.3634 126.61 82.6876C126.046 83.0119 125.6 83.4078 125.272 83.8754C124.943 84.3302 124.738 84.8159 124.657 85.3326C124.576 85.8493 124.628 86.2962 124.814 86.6733C125.139 87.092 125.505 87.3315 125.912 87.3919C126.33 87.4373 126.754 87.4022 127.183 87.2869C127.625 87.1693 128.069 87.0249 128.515 86.8538C128.958 86.6698 129.369 86.5642 129.748 86.5371C130.124 86.4972 130.457 86.584 130.746 86.7975C131.032 86.9982 131.247 87.4296 131.391 88.0919C131.452 88.5173 131.384 88.9526 131.184 89.3975C130.983 89.8297 130.701 90.2562 130.339 90.6771C129.988 91.0828 129.58 91.472 129.117 91.8445C128.652 92.2042 128.178 92.5191 127.697 92.789C127.229 93.0567 126.776 93.2622 126.338 93.4055C125.913 93.5465 125.56 93.6022 125.277 93.5728C124.937 93.3683 124.739 93.1454 124.683 92.904C124.625 92.6498 124.763 92.4205 125.097 92.2162ZM144.218 90.2726C144.256 89.9618 144.311 89.4497 144.383 88.7361C144.469 88.0204 144.561 87.0059 144.66 85.6927C144.757 84.3667 144.864 82.6884 144.982 80.6579C145.113 78.6252 145.241 76.13 145.368 73.1725C145.422 73.0307 145.516 72.9282 145.651 72.8648C145.783 72.7887 145.921 72.751 146.067 72.7518C146.21 72.7397 146.334 72.7642 146.437 72.8253C146.551 72.8714 146.609 72.9404 146.612 73.0324L152.026 81.5776L153.883 80.6354C154.049 80.606 154.198 80.626 154.33 80.6954C154.461 80.7648 154.544 80.8625 154.58 80.9885C154.615 81.1145 154.595 81.2634 154.52 81.4354C154.442 81.5946 154.283 81.7416 154.042 81.8766C153.946 81.9332 153.82 82.0018 153.662 82.0825C153.502 82.1503 153.342 82.2182 153.182 82.286C153.022 82.3539 152.888 82.4173 152.779 82.4761C152.671 82.5349 152.62 82.5835 152.627 82.622L155.766 87.939C155.751 88.0076 155.74 88.0955 155.733 88.2026C155.723 88.2969 155.684 88.3764 155.616 88.4413C155.55 88.519 155.438 88.5585 155.28 88.56C155.124 88.5743 154.89 88.523 154.579 88.4061L151.37 83.1411C151.114 83.2656 150.794 83.4013 150.41 83.5483C150.024 83.6825 149.62 83.8265 149.197 83.9804C148.772 84.1213 148.345 84.2827 147.914 84.4644C147.494 84.6311 147.11 84.8177 146.763 85.0243C146.416 85.2309 146.133 85.4594 145.912 85.7098C145.69 85.9474 145.578 86.2118 145.576 86.5029C145.582 86.6869 145.583 86.9909 145.578 87.4148C145.587 87.8365 145.595 88.2581 145.603 88.6797C145.612 89.1806 145.615 89.7222 145.612 90.3045C145.422 90.576 145.224 90.6902 145.018 90.6472C144.825 90.6019 144.558 90.477 144.218 90.2726ZM146.529 75.1493L146 84.0682C146.204 83.9528 146.491 83.8163 146.86 83.6587C147.229 83.5011 147.628 83.3315 148.059 83.1497C148.49 82.968 148.92 82.7863 149.351 82.6046C149.795 82.4206 150.192 82.2381 150.544 82.0571L146.529 75.1493ZM154.646 71.8935C154.714 71.8287 154.782 71.7638 154.85 71.699C154.928 71.619 155.011 71.5647 155.098 71.5361C155.184 71.4946 155.262 71.4874 155.333 71.5146C155.416 71.5395 155.495 71.6115 155.569 71.7307L158.483 87.5789C158.441 87.7184 158.372 87.8164 158.277 87.873C158.183 87.9424 158.083 87.9733 157.976 87.9657C157.871 87.971 157.768 87.9495 157.667 87.9012C157.579 87.8507 157.514 87.7828 157.472 87.6975L154.646 71.8935ZM161.598 93.0784C161.433 91.468 161.284 90.1326 161.15 89.072C161.015 88.0115 160.889 87.1082 160.771 86.3622C160.663 85.6012 160.552 84.9332 160.437 84.3585C160.323 83.7837 160.196 83.178 160.058 82.5413C159.917 81.8919 159.753 81.1538 159.568 80.3271C159.393 79.4853 159.18 78.4255 158.928 77.1477C158.929 77.0022 158.959 76.8713 159.017 76.7551C159.074 76.6262 159.144 76.5345 159.227 76.4802C159.32 76.4109 159.429 76.3916 159.554 76.4226C159.678 76.4535 159.814 76.5486 159.961 76.7078L160.344 79.2184C160.681 78.5773 161.078 77.9785 161.535 77.4219C162.005 76.863 162.489 76.3875 162.989 75.9954C163.499 75.5881 164.006 75.2805 164.512 75.0724C165.015 74.8514 165.468 74.7583 165.871 74.7931C166.286 74.8256 166.628 75.0033 166.897 75.3261C167.176 75.6339 167.34 76.114 167.389 76.7665C167.437 77.3398 167.371 77.9794 167.192 78.6853C167.01 79.3785 166.757 80.0841 166.434 80.8021C166.122 81.5051 165.761 82.1967 165.353 82.877C164.944 83.5573 164.535 84.1648 164.127 84.6995C163.719 85.2342 163.328 85.68 162.955 86.0367C162.592 86.3783 162.288 86.5706 162.045 86.6136C162.064 86.7954 162.089 87.0488 162.119 87.3739C162.153 87.7118 162.192 88.0882 162.239 88.5031C162.288 88.9308 162.333 89.3724 162.374 89.828C162.427 90.2813 162.477 90.7154 162.524 91.1303C162.571 91.5451 162.611 91.9215 162.644 92.2594C162.677 92.5974 162.708 92.8497 162.738 93.0164C162.685 93.0918 162.618 93.163 162.537 93.2302C162.457 93.2973 162.366 93.3463 162.266 93.3772C162.165 93.4081 162.058 93.4006 161.944 93.3545C161.833 93.3213 161.717 93.2293 161.598 93.0784ZM161.755 85.5342C162.149 85.2929 162.597 84.8702 163.099 84.266C163.598 83.6491 164.074 82.9371 164.527 82.1301C164.99 81.308 165.384 80.432 165.709 79.502C166.035 78.572 166.22 77.6733 166.265 76.8059C166.116 76.4092 165.895 76.1704 165.603 76.0897C165.312 76.0089 164.986 76.0398 164.628 76.1823C164.28 76.3097 163.911 76.5401 163.52 76.8734C163.127 77.194 162.756 77.5635 162.407 77.9821C162.068 78.3856 161.762 78.823 161.488 79.2944C161.214 79.7658 161.016 80.2172 160.894 80.6486L161.755 85.5342ZM170.522 80.3393C170.445 80.432 170.291 80.4923 170.058 80.5202C169.835 80.533 169.621 80.5179 169.415 80.4749C169.222 80.4296 169.082 80.3485 168.995 80.2316C168.906 80.1018 168.955 79.928 169.141 79.71C169.218 79.6172 169.305 79.549 169.403 79.5053C169.511 79.4464 169.615 79.3952 169.713 79.3514C169.821 79.2926 169.902 79.2255 169.955 79.1501C170.021 79.0724 170.047 78.9619 170.035 78.8186C169.946 78.2393 169.887 77.6415 169.858 77.0253C169.841 76.4067 169.907 75.8399 170.054 75.3248C170.201 74.8096 170.461 74.3737 170.835 74.017C171.221 73.658 171.772 73.4484 172.489 73.3881C172.745 73.3429 173.045 73.3561 173.388 73.4278C173.729 73.4867 174.065 73.5927 174.396 73.7459C174.725 73.8863 175.024 74.0783 175.291 74.3219C175.557 74.5528 175.743 74.824 175.851 75.1355C175.964 75.2479 175.941 75.4172 175.782 75.6435C175.624 75.8698 175.393 76.1352 175.09 76.4399C174.784 76.7318 174.435 77.038 174.042 77.3585C173.649 77.679 173.266 77.9844 172.894 78.2748C172.535 78.5628 172.217 78.8174 171.938 79.0383C171.66 79.2593 171.482 79.4097 171.403 79.4897C171.568 79.9762 171.744 80.4873 171.931 81.0228C172.118 81.5584 172.336 82.0423 172.584 82.4745C172.832 82.9068 173.105 83.2553 173.403 83.5201C173.711 83.7698 174.058 83.8607 174.443 83.7929C175.014 83.7319 175.48 83.5637 175.841 83.2885C176.215 83.0109 176.508 82.6817 176.718 82.3009C176.929 81.92 177.076 81.5172 177.16 81.0926C177.256 80.6657 177.311 80.2659 177.325 79.8933C177.351 79.5184 177.356 79.2069 177.339 78.9588C177.332 78.6955 177.339 78.5488 177.36 78.5186C177.488 78.4168 177.648 78.3886 177.841 78.4338C178.032 78.4663 178.167 78.6342 178.247 78.9374C178.348 79.4352 178.34 80.0251 178.222 80.7069C178.104 81.3888 177.888 82.0351 177.572 82.6461C177.27 83.2547 176.866 83.7755 176.36 84.2084C175.865 84.6262 175.295 84.8392 174.648 84.8474C173.992 84.9499 173.44 84.8555 172.992 84.5643C172.542 84.2603 172.156 83.8721 171.835 83.3999C171.524 82.9126 171.267 82.3895 171.062 81.8305C170.858 81.2716 170.678 80.7745 170.522 80.3393ZM174.832 75.3152C174.322 74.8234 173.842 74.5378 173.392 74.4586C172.941 74.3793 172.498 74.4113 172.06 74.5545C171.798 74.6405 171.583 74.8106 171.416 75.0647C171.247 75.3061 171.128 75.6048 171.059 75.9608C170.987 76.3039 170.961 76.6852 170.983 77.1046C171.001 77.5112 171.067 77.9226 171.18 78.339L174.832 75.3152ZM180.669 82.4173C180.947 82.5667 181.26 82.6172 181.608 82.569C181.97 82.5185 182.334 82.4081 182.7 82.2377C183.078 82.0522 183.447 81.8218 183.808 81.5465C184.18 81.2562 184.51 80.9534 184.798 80.6381C185.099 80.3206 185.347 79.9993 185.541 79.6743C185.745 79.3341 185.87 79.0279 185.914 78.7556C185.956 78.4705 185.907 78.228 185.766 78.0281C185.625 77.8282 185.364 77.6958 184.982 77.6309C184.355 77.9 183.723 78.1372 183.084 78.3423C182.446 78.5473 181.856 78.6513 181.315 78.6543C180.786 78.655 180.332 78.5169 179.953 78.24C179.573 77.9631 179.335 77.4762 179.239 76.7792C179.16 76.1057 179.23 75.4521 179.449 74.8185C179.678 74.1699 180.007 73.5963 180.434 73.0978C180.875 72.597 181.384 72.1833 181.961 71.8568C182.551 71.528 183.17 71.3264 183.817 71.2518C183.948 71.242 184.066 71.2345 184.17 71.2292C184.286 71.2088 184.392 71.21 184.488 71.2326C184.585 71.2553 184.659 71.3017 184.711 71.3718C184.776 71.4397 184.816 71.5517 184.83 71.7079C184.851 71.9025 184.808 72.0688 184.7 72.2068C184.592 72.3448 184.427 72.4202 184.204 72.433C183.421 72.4126 182.747 72.5644 182.182 72.8887C181.618 73.213 181.172 73.6089 180.845 74.0765C180.515 74.5313 180.31 75.017 180.229 75.5337C180.148 76.0504 180.201 76.4973 180.386 76.8744C180.711 77.2931 181.077 77.5326 181.485 77.593C181.903 77.6383 182.326 77.6033 182.755 77.488C183.197 77.3704 183.641 77.226 184.087 77.0548C184.531 76.8709 184.942 76.7653 185.32 76.7382C185.697 76.6983 186.029 76.7851 186.318 76.9986C186.605 77.1993 186.82 77.6307 186.963 78.293C187.025 78.7184 186.956 79.1536 186.757 79.5986C186.555 80.0308 186.274 80.4573 185.911 80.8781C185.56 81.2839 185.153 81.673 184.689 82.0456C184.224 82.4053 183.751 82.7202 183.269 82.9901C182.801 83.2578 182.348 83.4633 181.91 83.6066C181.486 83.7476 181.132 83.8033 180.849 83.7739C180.509 83.5694 180.311 83.3465 180.255 83.1051C180.197 82.8509 180.335 82.6216 180.669 82.4173Z" fill="#2C2C2C"/>
<path d="M116.5 22.3048C106.09 12.4085 87.4998 -0.678853 70.8464 1.17758C59.7887 2.41022 48.7409 9.93355 45.2842 22.5957M45.2842 22.5957C44.6001 25.1015 44.2389 27.9146 44.2746 31.0894C44.4586 47.4598 57.1983 40.91 57.8461 35.2079C58.5513 29 52.6991 26.3124 45.2842 22.5957ZM45.2842 22.5957C39.4173 19.655 32.4998 18.8203 26.0663 19.7621C13.7986 21.558 3.00857 32.977 3.00857 32.977M11.0718 32.575L1 35.8203L1.85404 23.1398" stroke="#2C2C2C" stroke-linecap="round" stroke-linejoin="round"/>
</svg>
