<svg width="206" height="105" viewBox="0 0 206 105" fill="none" xmlns="http://www.w3.org/2000/svg">
<rect x="103.227" y="74.7041" width="79.4609" height="23.0897" transform="rotate(-9.59682 103.227 74.7041)" fill="white"/>
<rect x="93.2983" y="46.7979" width="92.4341" height="23.0897" transform="rotate(-9.59682 93.2983 46.7979)" fill="white"/>
<path d="M105.685 64.8485C105.685 64.7693 105.847 64.6414 106.173 64.465C106.512 64.2863 106.93 64.0736 107.429 63.827C107.925 63.5676 108.476 63.2788 109.081 62.9606C109.684 62.6296 110.256 62.2774 110.799 61.9041C111.354 61.5285 111.84 61.1387 112.258 60.7344C112.674 60.3174 112.956 59.8909 113.104 59.4549C113.068 59.2497 112.898 59.1143 112.596 59.0487C112.293 58.983 111.904 58.9524 111.429 58.9568C110.954 58.9613 110.417 58.9899 109.818 59.0426C109.219 59.0953 108.598 59.1322 107.954 59.1532C107.322 59.172 106.699 59.1629 106.084 59.1258C105.47 59.0888 104.91 58.9891 104.405 58.8269C103.899 58.6518 103.471 58.4032 103.124 58.0811C102.774 57.7462 102.549 57.2966 102.45 56.7324C102.352 56.181 102.376 55.6017 102.52 54.9945C102.675 54.3723 102.91 53.7557 103.225 53.1448C103.54 52.5338 103.919 51.9448 104.361 51.3776C104.816 50.8082 105.3 50.2931 105.814 49.8323C106.328 49.3715 106.849 48.9888 107.377 48.6842C107.905 48.3795 108.413 48.1842 108.9 48.0983C109.028 48.0757 109.163 48.052 109.304 48.0271C109.443 47.9894 109.565 47.9743 109.673 47.9819C109.793 47.9872 109.892 48.0291 109.972 48.1075C110.063 48.1709 110.123 48.2859 110.152 48.4526C110.225 48.863 110.142 49.1816 109.904 49.4086C109.667 49.6356 109.356 49.783 108.971 49.8509L108.096 49.7274C107.776 49.784 107.427 49.9446 107.051 50.2093C106.685 50.4589 106.325 50.7802 105.971 51.1731C105.615 51.5532 105.275 51.9835 104.949 52.4639C104.635 52.9292 104.362 53.407 104.131 53.8973C103.911 54.3724 103.743 54.845 103.628 55.3149C103.523 55.7697 103.501 56.1702 103.562 56.5164C103.639 56.9524 103.843 57.2866 104.175 57.5189C104.504 57.7385 104.915 57.8909 105.406 57.9762C105.897 58.0615 106.445 58.097 107.051 58.0828C107.667 58.0535 108.289 58.0166 108.915 57.9722C109.542 57.9278 110.157 57.892 110.761 57.8649C111.377 57.8356 111.928 57.8508 112.415 57.9104C112.899 57.9573 113.304 58.0776 113.629 58.2715C113.952 58.4526 114.148 58.7419 114.218 59.1394C114.286 59.5241 114.2 59.9359 113.96 60.3749C113.72 60.8138 113.382 61.2569 112.945 61.7041C112.506 62.1385 111.987 62.5673 111.387 62.9903C110.798 63.3983 110.195 63.769 109.58 64.1023C108.962 64.4227 108.349 64.6961 107.741 64.9223C107.146 65.1462 106.623 65.2913 106.172 65.3577C106.044 65.3803 105.927 65.3546 105.821 65.2807C105.716 65.2067 105.67 65.0627 105.685 64.8485ZM120.466 51.136C120.466 51.0568 120.489 50.9666 120.538 50.8656C120.596 50.7494 120.674 50.6631 120.77 50.6065C120.878 50.5477 121.003 50.5454 121.145 50.5998C121.298 50.639 121.466 50.768 121.65 50.9868C121.773 51.9832 121.883 52.9819 121.98 53.9828C122.087 54.9687 122.226 55.9425 122.396 56.9042C122.576 57.8508 122.806 58.782 123.087 59.6977C123.38 60.6112 123.765 61.4821 124.241 62.3103C124.27 62.3978 124.252 62.4804 124.186 62.5581C124.123 62.6486 124.029 62.718 123.905 62.7663C123.784 62.8273 123.658 62.8628 123.527 62.8726C123.397 62.8823 123.284 62.8427 123.189 62.7537L121.95 59.6602C121.928 59.836 121.823 60.1056 121.636 60.4692C121.462 60.8304 121.244 61.206 120.982 61.596C120.731 61.9708 120.461 62.3158 120.173 62.6311C119.882 62.9335 119.616 63.1126 119.375 63.1684C118.779 63.3131 118.267 63.1852 117.84 62.7846C117.412 62.3841 117.049 61.8266 116.752 61.1123C116.464 60.3828 116.226 59.5588 116.038 58.64C115.85 57.7213 115.691 56.8237 115.563 55.9472C115.435 55.0707 115.328 54.2764 115.242 53.5644C115.156 52.8523 115.065 52.333 114.968 52.0064C114.988 51.897 115.038 51.8088 115.119 51.7417C115.213 51.6723 115.317 51.6274 115.433 51.6071C115.548 51.5867 115.661 51.5931 115.773 51.6263C115.898 51.6573 115.994 51.7195 116.064 51.8131C116.166 52.2445 116.269 52.7884 116.371 53.4446C116.474 54.1008 116.584 54.802 116.703 55.548C116.819 56.2811 116.949 57.0184 117.093 57.7599C117.249 58.4991 117.421 59.1697 117.606 59.7716C117.789 60.3608 117.994 60.8469 118.22 61.2301C118.457 61.5982 118.727 61.782 119.031 61.7812C119.249 61.7428 119.455 61.6338 119.648 61.4543C119.841 61.2749 120.027 61.0569 120.207 60.8005C120.384 60.5312 120.545 60.245 120.69 59.9418C120.833 59.6258 120.952 59.3271 121.048 59.0458C121.141 58.7516 121.214 58.4876 121.265 58.2538C121.317 58.02 121.338 57.8442 121.331 57.7266C121.317 57.5704 121.293 57.3234 121.26 56.9855C121.224 56.6347 121.176 56.2467 121.114 55.8212C121.063 55.3807 121.001 54.9157 120.927 54.4262C120.867 53.9344 120.806 53.4758 120.744 53.0504C120.693 52.6098 120.638 52.2229 120.579 51.8895C120.531 51.541 120.493 51.2898 120.466 51.136ZM125.869 61.5077C125.518 59.7449 125.222 58.2503 124.979 57.0238C124.736 55.7973 124.537 54.7813 124.382 53.9757C124.227 53.1701 124.103 52.544 124.011 52.0975C123.93 51.6358 123.864 51.2972 123.812 51.0814C123.774 50.8634 123.751 50.7352 123.745 50.6967C123.735 50.6455 123.73 50.6134 123.728 50.6006C123.72 50.4829 123.761 50.3766 123.85 50.2815C123.939 50.1865 124.04 50.1224 124.153 50.0892C124.277 50.041 124.401 50.0323 124.525 50.0633C124.65 50.0942 124.748 50.1629 124.819 50.2692L125.657 54.683C125.694 53.7643 125.871 52.9727 126.19 52.3082C126.522 51.6415 126.928 51.0939 127.408 50.6656C127.886 50.2244 128.404 49.9016 128.963 49.6973C129.535 49.4907 130.078 49.3882 130.594 49.3898C130.768 49.3989 130.902 49.4479 130.997 49.5369C131.105 49.6237 131.17 49.7312 131.193 49.8594C131.226 49.9726 131.214 50.0936 131.158 50.2226C131.112 50.3365 131.035 50.4292 130.929 50.5009C130.345 50.5642 129.809 50.7115 129.321 50.943C128.844 51.1595 128.417 51.4396 128.041 51.7835C127.676 52.1123 127.365 52.4845 127.108 52.9001C126.863 53.3134 126.687 53.7346 126.577 54.1638C126.41 54.7883 126.331 55.4302 126.342 56.0894C126.363 56.7336 126.416 57.3721 126.501 58.0049C126.599 58.6355 126.704 59.2318 126.816 59.7938C126.941 60.3534 127.035 60.846 127.097 61.2714C127.109 61.4147 127.064 61.535 126.962 61.6323C126.871 61.7145 126.754 61.7681 126.613 61.7929C126.487 61.8284 126.348 61.8265 126.196 61.7872C126.054 61.7329 125.945 61.6397 125.869 61.5077ZM132.373 53.0427C132.119 53.1007 131.935 53.1067 131.821 53.0607C131.707 53.0147 131.636 52.9479 131.607 52.8604C131.576 52.7601 131.577 52.6541 131.61 52.5425C131.641 52.418 131.681 52.3053 131.729 52.2042L133.873 50.7552C133.64 49.884 133.44 49.0071 133.271 48.1246C133.115 47.2398 133.053 46.4376 133.084 45.718C133.114 44.9856 133.267 44.3901 133.543 43.9316C133.83 43.4579 134.3 43.203 134.955 43.1669C135.263 43.1127 135.569 43.1644 135.875 43.3221C136.178 43.4669 136.452 43.6699 136.696 43.9309C136.953 44.1896 137.17 44.4819 137.347 44.8078C137.536 45.1314 137.655 45.4343 137.705 45.7164C137.715 45.8469 137.688 45.9574 137.625 46.0479C137.559 46.1256 137.484 46.1851 137.398 46.2266C137.311 46.2553 137.215 46.2722 137.11 46.2775C137.016 46.2677 136.938 46.2416 136.878 46.1994C136.745 45.7468 136.595 45.3832 136.428 45.1086C136.273 44.8318 136.111 44.6225 135.94 44.4806C135.78 44.3237 135.624 44.2257 135.472 44.1864C135.32 44.1472 135.192 44.1366 135.089 44.1547C134.681 44.2399 134.4 44.4416 134.244 44.7599C134.102 45.0759 134.037 45.4971 134.051 46.0236C134.062 46.5373 134.137 47.152 134.277 47.8679C134.427 48.5686 134.598 49.3516 134.79 50.2168L138.68 47.9839C138.837 48.0488 138.953 48.1472 139.03 48.2792C139.104 48.3984 139.074 48.6085 138.942 48.9094L135.07 51.3573L137.123 59.6225C137.115 59.7296 137.067 59.8307 136.978 59.9257C136.887 60.0079 136.778 60.0668 136.652 60.1022C136.528 60.1504 136.403 60.1527 136.276 60.1089C136.165 60.0757 136.081 59.978 136.026 59.8159L134.17 51.8731L132.373 53.0427ZM141.481 53.8364C141.405 53.9292 141.25 53.9895 141.017 54.0174C140.795 54.0302 140.58 54.015 140.375 53.972C140.181 53.9267 140.042 53.8456 139.955 53.7287C139.866 53.599 139.914 53.4251 140.101 53.2071C140.177 53.1144 140.264 53.0461 140.362 53.0024C140.471 52.9436 140.574 52.8923 140.672 52.8486C140.781 52.7897 140.862 52.7226 140.914 52.6472C140.98 52.5695 141.007 52.459 140.995 52.3157C140.906 51.7364 140.847 51.1386 140.817 50.5224C140.801 49.9039 140.866 49.3371 141.013 48.8219C141.161 48.3068 141.421 47.8708 141.794 47.5141C142.18 47.1551 142.732 46.9455 143.448 46.8853C143.705 46.84 144.005 46.8533 144.348 46.925C144.689 46.9839 145.025 47.0899 145.356 47.2431C145.685 47.3834 145.983 47.5754 146.251 47.8191C146.516 48.0499 146.703 48.3211 146.811 48.6326C146.923 48.745 146.9 48.9144 146.742 49.1406C146.583 49.3669 146.352 49.6324 146.049 49.9371C145.744 50.2289 145.394 50.5351 145.001 50.8556C144.608 51.1761 144.226 51.4816 143.854 51.7719C143.495 52.06 143.176 52.3145 142.898 52.5355C142.619 52.7564 142.441 52.9069 142.363 52.9868C142.528 53.4734 142.704 53.9844 142.891 54.52C143.078 55.0555 143.295 55.5394 143.543 55.9717C143.791 56.4039 144.064 56.7524 144.362 57.0172C144.671 57.2669 145.017 57.3579 145.402 57.29C145.973 57.229 146.439 57.0609 146.801 56.7856C147.175 56.5081 147.467 56.1789 147.678 55.798C147.888 55.4171 148.035 55.0144 148.119 54.5897C148.216 54.1628 148.271 53.7631 148.284 53.3904C148.311 53.0156 148.315 52.7041 148.298 52.4559C148.291 52.1927 148.298 52.0459 148.32 52.0158C148.447 51.914 148.607 51.8857 148.8 51.931C148.991 51.9634 149.127 52.1313 149.207 52.4345C149.308 52.9324 149.299 53.5222 149.181 54.2041C149.064 54.8859 148.847 55.5323 148.532 56.1432C148.229 56.7519 147.825 57.2726 147.32 57.7055C146.825 58.1233 146.254 58.3363 145.608 58.3445C144.952 58.447 144.399 58.3527 143.951 58.0615C143.501 57.7574 143.115 57.3693 142.794 56.8971C142.484 56.4098 142.226 55.8866 142.022 55.3277C141.817 54.7687 141.637 54.2716 141.481 53.8364ZM145.791 48.8124C145.281 48.3205 144.801 48.035 144.351 47.9557C143.901 47.8764 143.457 47.9084 143.019 48.0517C142.757 48.1376 142.542 48.3077 142.376 48.5619C142.207 48.8032 142.087 49.1019 142.018 49.4579C141.946 49.8011 141.921 50.1824 141.942 50.6018C141.961 51.0083 142.027 51.4198 142.14 51.8362L145.791 48.8124ZM155.315 44.9911C155.315 44.9119 155.338 44.8218 155.387 44.7207C155.446 44.6046 155.523 44.5182 155.619 44.4617C155.727 44.4028 155.853 44.4006 155.994 44.4549C156.147 44.4942 156.315 44.6232 156.499 44.8419C156.622 45.8384 156.732 46.837 156.829 47.838C156.937 48.8238 157.075 49.7976 157.245 50.7593C157.425 51.706 157.655 52.6372 157.936 53.5529C158.229 54.4664 158.614 55.3372 159.091 56.1655C159.119 56.253 159.101 56.3356 159.035 56.4133C158.972 56.5038 158.878 56.5732 158.754 56.6214C158.633 56.6825 158.507 56.7179 158.377 56.7277C158.246 56.7375 158.133 56.6979 158.038 56.6089L156.799 53.5154C156.777 53.6911 156.672 53.9608 156.485 54.3243C156.311 54.6856 156.093 55.0612 155.831 55.4511C155.58 55.826 155.31 56.171 155.022 56.4863C154.731 56.7887 154.466 56.9678 154.224 57.0236C153.628 57.1683 153.117 57.0404 152.689 56.6398C152.261 56.2392 151.899 55.6818 151.601 54.9674C151.313 54.238 151.076 53.4139 150.887 52.4952C150.699 51.5764 150.54 50.6788 150.412 49.8023C150.284 48.9259 150.177 48.1316 150.091 47.4195C150.005 46.7075 149.914 46.1882 149.817 45.8615C149.837 45.7522 149.888 45.6639 149.968 45.5968C150.062 45.5274 150.166 45.4826 150.282 45.4622C150.397 45.4419 150.511 45.4483 150.622 45.4815C150.747 45.5124 150.844 45.5747 150.913 45.6682C151.016 46.0997 151.118 46.6435 151.221 47.2998C151.323 47.956 151.433 48.6571 151.552 49.4031C151.668 50.1363 151.798 50.8736 151.942 51.6151C152.099 52.3543 152.27 53.0249 152.455 53.6268C152.638 54.2159 152.843 54.7021 153.069 55.0853C153.306 55.4534 153.576 55.6371 153.88 55.6364C154.098 55.598 154.304 55.489 154.497 55.3095C154.69 55.13 154.877 54.9121 155.056 54.6556C155.233 54.3864 155.394 54.1002 155.539 53.797C155.682 53.4809 155.801 53.1823 155.897 52.9009C155.991 52.6068 156.063 52.3428 156.114 52.109C156.166 51.8751 156.188 51.6994 156.18 51.5817C156.166 51.4256 156.142 51.1786 156.109 50.8406C156.073 50.4899 156.025 50.1018 155.963 49.6764C155.912 49.2359 155.85 48.7709 155.777 48.2813C155.716 47.7895 155.655 47.3309 155.593 46.9055C155.542 46.465 155.487 46.0781 155.428 45.7447C155.38 45.3962 155.343 45.145 155.315 44.9911ZM160.827 54.2926C161.104 54.442 161.417 54.4925 161.766 54.4443C162.127 54.3938 162.491 54.2834 162.858 54.113C163.235 53.9275 163.604 53.6971 163.965 53.4218C164.337 53.1315 164.667 52.8287 164.956 52.5134C165.257 52.1959 165.504 51.8746 165.698 51.5496C165.902 51.2094 166.027 50.9032 166.071 50.6309C166.114 50.3458 166.064 50.1033 165.923 49.9034C165.782 49.7035 165.521 49.5711 165.139 49.5062C164.512 49.7753 163.88 50.0125 163.242 50.2175C162.604 50.4226 162.014 50.5266 161.472 50.5296C160.944 50.5303 160.489 50.3922 160.11 50.1153C159.731 49.8384 159.493 49.3515 159.396 48.6545C159.317 47.9809 159.387 47.3274 159.606 46.6938C159.835 46.0452 160.164 45.4716 160.592 44.9731C161.032 44.4723 161.541 44.0586 162.118 43.7321C162.708 43.4033 163.327 43.2017 163.975 43.1271C164.105 43.1173 164.223 43.1098 164.328 43.1045C164.443 43.0841 164.549 43.0853 164.646 43.1079C164.742 43.1306 164.817 43.177 164.869 43.2471C164.934 43.315 164.973 43.427 164.987 43.5832C165.008 43.7778 164.965 43.9441 164.857 44.0821C164.749 44.2201 164.584 44.2955 164.362 44.3083C163.578 44.2879 162.904 44.4397 162.34 44.764C161.775 45.0883 161.33 45.4842 161.002 45.9518C160.673 46.4066 160.467 46.8923 160.387 47.409C160.306 47.9256 160.358 48.3726 160.544 48.7497C160.869 49.1684 161.235 49.4079 161.642 49.4683C162.06 49.5136 162.484 49.4786 162.913 49.3633C163.355 49.2457 163.799 49.1013 164.244 48.9301C164.688 48.7462 165.099 48.6406 165.478 48.6135C165.854 48.5736 166.187 48.6604 166.476 48.8739C166.762 49.0746 166.977 49.506 167.12 50.1683C167.182 50.5937 167.113 51.0289 166.914 51.4739C166.713 51.9061 166.431 52.3326 166.069 52.7534C165.717 53.1592 165.31 53.5483 164.847 53.9209C164.381 54.2806 163.908 54.5955 163.427 54.8654C162.958 55.1331 162.505 55.3386 162.068 55.4819C161.643 55.6229 161.289 55.6786 161.007 55.6492C160.666 55.4447 160.468 55.2218 160.413 54.9804C160.355 54.7262 160.493 54.4969 160.827 54.2926ZM169.383 48.9166C169.306 49.0094 169.152 49.0697 168.919 49.0976C168.696 49.1104 168.482 49.0952 168.276 49.0522C168.083 49.0069 167.943 48.9258 167.856 48.8089C167.767 48.6792 167.816 48.5053 168.002 48.2873C168.079 48.1946 168.166 48.1263 168.264 48.0826C168.372 48.0238 168.476 47.9725 168.574 47.9288C168.682 47.8699 168.763 47.8028 168.816 47.7274C168.882 47.6497 168.908 47.5392 168.896 47.3959C168.807 46.8166 168.748 46.2188 168.719 45.6026C168.702 44.9841 168.768 44.4173 168.915 43.9021C169.062 43.387 169.322 42.951 169.696 42.5943C170.082 42.2353 170.633 42.0257 171.35 41.9655C171.606 41.9202 171.906 41.9335 172.249 42.0052C172.59 42.0641 172.926 42.1701 173.258 42.3233C173.586 42.4636 173.885 42.6556 174.152 42.8993C174.418 43.1301 174.605 43.4013 174.712 43.7128C174.825 43.8252 174.802 43.9946 174.643 44.2208C174.485 44.4471 174.254 44.7126 173.951 45.0172C173.645 45.3091 173.296 45.6153 172.903 45.9358C172.51 46.2563 172.127 46.5618 171.756 46.8521C171.396 47.1402 171.078 47.3947 170.799 47.6157C170.521 47.8366 170.343 47.9871 170.264 48.067C170.429 48.5536 170.605 49.0646 170.792 49.6002C170.979 50.1357 171.197 50.6196 171.445 51.0519C171.693 51.4841 171.966 51.8326 172.264 52.0974C172.572 52.3471 172.919 52.4381 173.304 52.3702C173.875 52.3092 174.341 52.1411 174.702 51.8658C175.076 51.5883 175.369 51.2591 175.579 50.8782C175.79 50.4973 175.937 50.0946 176.021 49.6699C176.117 49.243 176.172 48.8432 176.186 48.4706C176.212 48.0958 176.217 47.7842 176.2 47.5361C176.193 47.2728 176.2 47.1261 176.221 47.096C176.349 46.9942 176.509 46.9659 176.702 47.0112C176.893 47.0436 177.028 47.2115 177.108 47.5147C177.209 48.0126 177.201 48.6024 177.083 49.2842C176.965 49.9661 176.749 50.6125 176.433 51.2234C176.131 51.8321 175.727 52.3528 175.221 52.7857C174.726 53.2035 174.156 53.4165 173.509 53.4247C172.853 53.5272 172.301 53.4329 171.853 53.1416C171.403 52.8376 171.017 52.4495 170.696 51.9773C170.385 51.49 170.128 50.9668 169.923 50.4079C169.719 49.8489 169.539 49.3518 169.383 48.9166ZM173.693 43.8926C173.183 43.4007 172.703 43.1152 172.253 43.0359C171.802 42.9566 171.359 42.9886 170.921 43.1319C170.659 43.2178 170.444 43.3879 170.277 43.6421C170.108 43.8834 169.989 44.1821 169.92 44.5381C169.848 44.8813 169.823 45.2626 169.844 45.6819C169.862 46.0885 169.928 46.5 170.041 46.9163L173.693 43.8926ZM119.791 88.5958C119.706 88.9412 119.56 89.3504 119.353 89.8233C119.145 90.2962 118.889 90.7514 118.582 91.1888C118.276 91.6262 117.922 92.0192 117.521 92.3676C117.13 92.7009 116.697 92.9094 116.223 92.9931C116.018 93.0293 115.847 93.033 115.709 93.0043C115.585 92.9734 115.463 92.9221 115.345 92.8504C115.237 92.7636 115.132 92.6565 115.031 92.529C114.929 92.4015 114.804 92.2582 114.657 92.099C114.429 91.4782 114.239 90.7779 114.088 89.9979C113.95 89.2157 113.876 88.4158 113.864 87.5982C113.864 86.7783 113.936 85.9855 114.079 85.22C114.232 84.4393 114.482 83.7541 114.827 83.1643C115.185 82.5722 115.653 82.1129 116.23 81.7864C116.818 81.4448 117.539 81.2978 118.394 81.3455C118.328 80.5241 118.192 79.7151 117.985 78.9185C117.777 78.1092 117.575 77.2655 117.38 76.3875C117.358 76.2592 117.4 76.1593 117.506 76.0877C117.61 76.0032 117.732 75.9421 117.87 75.9044C118.02 75.8516 118.16 75.8204 118.29 75.8106C118.434 75.7985 118.528 75.8083 118.573 75.84C118.764 76.9964 118.937 78.0565 119.094 79.0205C119.264 79.9822 119.424 80.8927 119.576 81.7518C119.725 82.5981 119.87 83.4188 120.01 84.2138C120.15 85.0089 120.294 85.8231 120.441 86.6566C120.6 87.4878 120.762 88.3651 120.925 89.2884C121.1 90.2093 121.285 91.2212 121.48 92.324C121.58 92.5179 121.591 92.6944 121.513 92.8535C121.449 93.0104 121.349 93.1205 121.215 93.1839C121.08 93.2472 120.93 93.254 120.762 93.2042C120.608 93.1521 120.492 93.0205 120.415 92.8092L119.791 88.5958ZM117.772 82.5458C117.271 82.5548 116.833 82.7708 116.459 83.1939C116.094 83.6019 115.797 84.1303 115.568 84.7789C115.336 85.4147 115.176 86.1173 115.087 86.8867C114.995 87.6432 114.978 88.3669 115.033 89.0579C115.1 89.7337 115.238 90.3307 115.448 90.8489C115.659 91.3672 115.949 91.6995 116.318 91.8458C116.639 91.7893 116.934 91.6249 117.203 91.3527C117.47 91.0676 117.708 90.7282 117.916 90.3345C118.137 89.9385 118.326 89.5086 118.482 89.0448C118.649 88.5658 118.786 88.1053 118.893 87.6634C119 87.2214 119.069 86.8258 119.1 86.4765C119.141 86.1122 119.146 85.8403 119.115 85.6608C119.09 85.5197 119.046 85.2697 118.982 84.9106C118.919 84.5516 118.829 84.1907 118.712 83.8278C118.608 83.4628 118.474 83.1493 118.308 82.8876C118.156 82.6236 117.977 82.5096 117.772 82.5458ZM123.253 86.4979C123.176 86.5907 123.022 86.651 122.789 86.6789C122.566 86.6917 122.352 86.6766 122.146 86.6335C121.953 86.5883 121.813 86.5072 121.726 86.3902C121.637 86.2605 121.686 86.0866 121.872 85.8687C121.949 85.7759 122.036 85.7077 122.134 85.6639C122.242 85.6051 122.346 85.5538 122.444 85.5101C122.552 85.4513 122.633 85.3842 122.686 85.3087C122.752 85.2311 122.778 85.1206 122.766 84.9772C122.677 84.3979 122.618 83.8002 122.589 83.1839C122.573 82.5654 122.638 81.9986 122.785 81.4834C122.932 80.9683 123.192 80.5323 123.566 80.1756C123.952 79.8166 124.503 79.607 125.22 79.5468C125.477 79.5016 125.776 79.5148 126.12 79.5865C126.46 79.6454 126.796 79.7514 127.128 79.9046C127.456 80.0449 127.755 80.2369 128.022 80.4806C128.288 80.7114 128.475 80.9826 128.582 81.2942C128.695 81.4066 128.672 81.5759 128.513 81.8022C128.355 82.0284 128.124 82.2939 127.821 82.5986C127.515 82.8904 127.166 83.1966 126.773 83.5171C126.38 83.8377 125.997 84.1431 125.626 84.4334C125.266 84.7215 124.948 84.976 124.669 85.197C124.391 85.418 124.213 85.5684 124.134 85.6484C124.299 86.1349 124.475 86.6459 124.662 87.1815C124.849 87.7171 125.067 88.201 125.315 88.6332C125.563 89.0654 125.836 89.4139 126.134 89.6787C126.442 89.9284 126.789 90.0194 127.174 89.9516C127.745 89.8905 128.211 89.7224 128.572 89.4471C128.946 89.1696 129.239 88.8404 129.449 88.4595C129.66 88.0787 129.807 87.6759 129.891 87.2512C129.987 86.8243 130.042 86.4246 130.056 86.052C130.082 85.6771 130.087 85.3656 130.07 85.1174C130.063 84.8542 130.07 84.7075 130.091 84.6773C130.219 84.5755 130.379 84.5472 130.572 84.5925C130.763 84.625 130.898 84.7928 130.978 85.0961C131.079 85.5939 131.071 86.1837 130.953 86.8656C130.835 87.5474 130.619 88.1938 130.303 88.8047C130.001 89.4134 129.597 89.9342 129.091 90.367C128.597 90.7849 128.026 90.9979 127.379 91.0061C126.723 91.1086 126.171 91.0142 125.723 90.723C125.273 90.4189 124.887 90.0308 124.566 89.5586C124.255 89.0713 123.998 88.5482 123.793 87.9892C123.589 87.4303 123.409 86.9332 123.253 86.4979ZM127.563 81.4739C127.053 80.9821 126.573 80.6965 126.123 80.6172C125.672 80.538 125.229 80.57 124.791 80.7132C124.529 80.7992 124.314 80.9692 124.147 81.2234C123.978 81.4647 123.859 81.7634 123.79 82.1194C123.718 82.4626 123.693 82.8439 123.714 83.2633C123.732 83.6698 123.798 84.0813 123.911 84.4977L127.563 81.4739ZM141.568 71.8846C141.672 71.6546 141.829 71.5675 142.037 71.6233C142.256 71.6641 142.464 71.7595 142.663 71.9097C142.872 72.0447 143.043 72.193 143.178 72.3544C143.309 72.503 143.349 72.5754 143.295 72.5716L152.481 83.387C152.485 83.1879 152.463 82.8745 152.414 82.4468C152.376 82.004 152.312 81.493 152.223 80.9137C152.132 80.3216 152.019 79.6804 151.884 78.9902C151.762 78.2978 151.627 77.6076 151.479 76.9197C151.344 76.2295 151.199 75.5544 151.043 74.8944C150.887 74.2344 150.737 73.646 150.593 73.1293C150.446 72.5998 150.311 72.1676 150.186 71.8327C150.058 71.4849 149.943 71.2805 149.839 71.2194C149.803 71.0142 149.808 70.8151 149.853 70.622C149.896 70.4161 150.033 70.2928 150.264 70.2521C150.482 70.2136 150.684 70.3102 150.87 70.5418C151.057 70.7734 151.216 71.0427 151.35 71.3497C151.483 71.6567 151.59 71.9618 151.67 72.2651C151.763 72.566 151.817 72.7614 151.833 72.8512C151.891 73.1054 151.97 73.5146 152.069 74.0788C152.179 74.6279 152.297 75.2615 152.424 75.9796C152.564 76.6954 152.703 77.4509 152.844 78.2459C152.994 79.0258 153.133 79.7748 153.26 80.4929C153.399 81.2088 153.518 81.8488 153.618 82.413C153.717 82.9772 153.796 83.3864 153.854 83.6406C153.93 83.9974 154.031 84.3037 154.155 84.5594C154.292 84.8128 154.391 85.1127 154.453 85.4589C154.502 85.741 154.431 85.9718 154.237 86.1513C154.057 86.3285 153.839 86.4397 153.582 86.485C153.441 86.5098 153.31 86.5132 153.187 86.4951C153.078 86.4747 152.983 86.4253 152.903 86.3468C152.824 86.2684 152.765 86.1597 152.727 86.021C152.7 85.8671 152.699 85.6755 152.725 85.4462C152.447 85.2176 152.072 84.8208 151.603 84.2558C151.131 83.678 150.606 83.03 150.03 82.3118C149.465 81.5786 148.867 80.8114 148.236 80.0103C147.619 79.2069 147.023 78.4525 146.449 77.7472C145.885 77.0268 145.366 76.4044 144.89 75.8801C144.414 75.3558 144.042 75.005 143.772 74.8278C143.855 75.6726 144.007 76.6441 144.227 77.7423C144.445 78.8278 144.687 79.9419 144.955 81.0846C145.22 82.2146 145.481 83.3189 145.737 84.3975C146.006 85.4739 146.215 86.4289 146.362 87.2624C146.409 87.5316 146.361 87.7119 146.219 87.8032C146.079 87.9072 145.922 87.9547 145.748 87.9457C145.575 87.9366 145.422 87.8973 145.291 87.8279C145.158 87.7457 145.125 87.6721 145.193 87.6073L141.568 71.8846ZM154.69 74.0728C154.76 74.0208 154.844 73.9729 154.942 73.9292C155.04 73.8854 155.134 73.8556 155.224 73.8398C155.327 73.8217 155.426 73.824 155.523 73.8466C155.619 73.8693 155.702 73.9274 155.772 74.0209C155.918 74.8544 156.084 75.7573 156.269 76.7296C156.464 77.6868 156.663 78.6632 156.865 79.6589C157.077 80.6395 157.281 81.6084 157.477 82.5656C157.672 83.5228 157.855 84.4095 158.025 85.2256C158.072 85.4157 158.046 85.5722 157.949 85.6952C157.852 85.8181 157.732 85.892 157.591 85.9169C157.463 85.9395 157.332 85.9097 157.199 85.8274C157.068 85.758 156.984 85.6207 156.948 85.4156L154.69 74.0728ZM153.767 70.1897C153.738 70.023 153.776 69.9038 153.883 69.8322C153.987 69.7477 154.109 69.693 154.25 69.6681C154.532 69.6184 154.723 69.6841 154.821 69.8651C154.929 70.0311 155.005 70.2358 155.048 70.4795C154.998 70.6469 154.915 70.774 154.798 70.8607C154.681 70.9475 154.549 70.984 154.401 70.9704C154.266 70.9546 154.134 70.8852 154.007 70.7622C153.892 70.637 153.812 70.4461 153.767 70.1897ZM159.235 80.3714C159.181 79.8388 159.132 79.2988 159.089 78.7511C159.045 78.2035 159.03 77.6706 159.045 77.1524C159.057 76.6214 159.107 76.1168 159.194 75.6386C159.282 75.1604 159.424 74.732 159.622 74.3534C159.833 73.9725 160.107 73.6531 160.445 73.3952C160.796 73.135 161.235 72.965 161.763 72.8851C162.122 72.8218 162.425 72.9271 162.671 73.2009C162.916 73.4619 163.114 73.7972 163.265 74.2068C163.43 74.6142 163.551 75.0422 163.631 75.491C163.723 75.9376 163.793 76.3019 163.843 76.584C163.664 76.6949 163.498 76.7243 163.343 76.6722C163.201 76.6179 163.071 76.5153 162.952 76.3644C162.843 76.1984 162.736 76.0057 162.631 75.7862C162.527 75.5667 162.428 75.346 162.336 75.1243C162.257 74.9002 162.167 74.6913 162.067 74.4974C161.98 74.3013 161.886 74.1459 161.787 74.0313C161.538 73.9694 161.319 74.041 161.13 74.2461C160.942 74.4513 160.786 74.73 160.663 75.0822C160.538 75.4216 160.437 75.8229 160.36 76.286C160.295 76.7468 160.252 77.2107 160.228 77.6776C160.202 78.1317 160.194 78.5695 160.202 78.9912C160.21 79.4128 160.239 79.7647 160.289 80.0468C160.37 80.4292 160.481 80.8392 160.625 81.2767C160.766 81.7014 160.941 82.0936 161.15 82.4534C161.358 82.8132 161.603 83.1139 161.884 83.3553C162.162 83.5838 162.487 83.705 162.86 83.7186C163.347 83.6327 163.744 83.4834 164.05 83.2707C164.367 83.043 164.613 82.788 164.788 82.506C164.974 82.2088 165.104 81.8951 165.178 81.5647C165.251 81.2343 165.3 80.9085 165.322 80.5872C165.343 80.253 165.349 79.9479 165.34 79.6719C165.341 79.3807 165.352 79.1408 165.371 78.9523C165.689 78.8037 165.947 78.7649 166.144 78.8359C166.355 78.9045 166.472 79.0094 166.497 79.1504C166.601 79.7403 166.603 80.3482 166.501 80.9743C166.398 81.5875 166.195 82.1588 165.891 82.6883C165.601 83.2155 165.211 83.6676 164.722 84.0447C164.234 84.4218 163.649 84.6702 162.97 84.79C162.393 84.8918 161.887 84.7959 161.451 84.5025C161.014 84.1962 160.641 83.8058 160.333 83.3313C160.037 82.8545 159.795 82.342 159.605 81.7936C159.429 81.2429 159.306 80.7689 159.235 80.3714ZM168.858 78.4565C168.782 78.5493 168.627 78.6096 168.394 78.6375C168.171 78.6503 167.957 78.6352 167.751 78.5921C167.558 78.5469 167.418 78.4658 167.331 78.3488C167.243 78.2191 167.291 78.0452 167.478 77.8273C167.554 77.7345 167.641 77.6663 167.739 77.6225C167.848 77.5637 167.951 77.5124 168.049 77.4687C168.158 77.4099 168.238 77.3428 168.291 77.2673C168.357 77.1896 168.384 77.0792 168.371 76.9358C168.283 76.3565 168.223 75.7588 168.194 75.1425C168.178 74.524 168.243 73.9572 168.39 73.442C168.537 72.9269 168.797 72.4909 169.171 72.1342C169.557 71.7752 170.109 71.5656 170.825 71.5054C171.082 71.4602 171.381 71.4734 171.725 71.5451C172.066 71.604 172.402 71.71 172.733 71.8632C173.061 72.0035 173.36 72.1955 173.628 72.4392C173.893 72.67 174.08 72.9412 174.187 73.2528C174.3 73.3652 174.277 73.5345 174.118 73.7608C173.96 73.987 173.729 74.2525 173.426 74.5572C173.12 74.849 172.771 75.1552 172.378 75.4757C171.985 75.7963 171.603 76.1017 171.231 76.392C170.872 76.6801 170.553 76.9346 170.274 77.1556C169.996 77.3766 169.818 77.527 169.739 77.607C169.904 78.0935 170.08 78.6045 170.267 79.1401C170.454 79.6757 170.672 80.1596 170.92 80.5918C171.168 81.024 171.441 81.3725 171.739 81.6373C172.047 81.887 172.394 81.978 172.779 81.9102C173.35 81.8491 173.816 81.681 174.177 81.4057C174.551 81.1282 174.844 80.799 175.054 80.4181C175.265 80.0373 175.412 79.6345 175.496 79.2098C175.592 78.7829 175.647 78.3832 175.661 78.0106C175.687 77.6357 175.692 77.3242 175.675 77.076C175.668 76.8128 175.675 76.6661 175.696 76.6359C175.824 76.5341 175.984 76.5058 176.177 76.5511C176.368 76.5836 176.503 76.7514 176.583 77.0546C176.684 77.5525 176.676 78.1423 176.558 78.8242C176.44 79.506 176.224 80.1524 175.908 80.7633C175.606 81.372 175.202 81.8928 174.696 82.3256C174.202 82.7434 173.631 82.9565 172.985 82.9647C172.328 83.0671 171.776 82.9728 171.328 82.6816C170.878 82.3775 170.492 81.9894 170.171 81.5172C169.86 81.0299 169.603 80.5068 169.398 79.9478C169.194 79.3889 169.014 78.8918 168.858 78.4565ZM173.168 73.4325C172.658 72.9407 172.178 72.6551 171.728 72.5758C171.278 72.4966 170.834 72.5286 170.396 72.6718C170.134 72.7578 169.919 72.9278 169.752 73.182C169.583 73.4233 169.464 73.722 169.395 74.078C169.323 74.4212 169.298 74.8025 169.319 75.2219C169.337 75.6284 169.403 76.0399 169.517 76.4563L173.168 73.4325Z" fill="#2C2C2C"/>
<path d="M116.5 22.3048C106.09 12.4085 87.4998 -0.678853 70.8464 1.17758C59.7887 2.41022 48.7409 9.93355 45.2842 22.5957M45.2842 22.5957C44.6001 25.1015 44.2389 27.9146 44.2746 31.0894C44.4586 47.4598 57.1983 40.91 57.8461 35.2079C58.5513 29 52.6991 26.3124 45.2842 22.5957ZM45.2842 22.5957C39.4173 19.655 32.4998 18.8203 26.0663 19.7621C13.7986 21.558 3.00857 32.977 3.00857 32.977M11.0718 32.575L1 35.8203L1.85404 23.1398" stroke="#2C2C2C" stroke-linecap="round" stroke-linejoin="round"/>
</svg>
