<svg width="212" height="105" viewBox="0 0 212 105" fill="none" xmlns="http://www.w3.org/2000/svg">
<rect x="79.3428" y="78.7427" width="129.95" height="23.0897" transform="rotate(-9.59682 79.3428 78.7427)" fill="white"/>
<rect x="99.208" y="45.7988" width="79.5737" height="23.0897" transform="rotate(-9.59682 99.208 45.7988)" fill="white"/>
<path d="M113.212 48.8651C112.7 48.8892 112.199 48.9709 111.708 49.1104C111.215 49.2371 110.724 49.3765 110.235 49.5288C109.759 49.6789 109.276 49.83 108.788 49.9823C108.297 50.1218 107.798 50.2164 107.291 50.2661C107.147 50.2782 106.994 50.2721 106.831 50.2479C106.681 50.2215 106.6 50.097 106.587 49.8745C106.575 49.7312 106.621 49.5777 106.724 49.4141C106.827 49.2504 106.951 49.1625 107.094 49.1505L112.823 47.7834C112.824 47.717 112.834 47.6228 112.852 47.5006C112.868 47.3656 112.898 47.2347 112.942 47.108C112.985 46.9813 113.045 46.8715 113.121 46.7788C113.195 46.6732 113.291 46.6166 113.409 46.6091C113.578 46.5925 113.716 46.6276 113.824 46.7144C113.942 46.786 114.044 46.8739 114.128 46.978C114.211 47.0693 114.285 47.1553 114.352 47.236C114.419 47.3167 114.493 47.3567 114.572 47.356C116.636 46.992 118.752 46.5793 120.918 46.118C120.957 46.1112 121.06 46.0995 121.229 46.0829C121.396 46.0535 121.513 46.0396 121.579 46.0411C121.694 46.2456 121.641 46.4334 121.42 46.6045C121.21 46.7607 120.886 46.9103 120.448 47.0536C120.024 47.1946 119.532 47.3276 118.972 47.4528C118.412 47.5779 117.851 47.6966 117.289 47.8089C116.74 47.919 116.218 48.0309 115.722 48.1447C115.24 48.2563 114.862 48.3626 114.589 48.4636C114.604 49.1485 114.673 49.8768 114.795 50.6484C114.918 51.4201 115.058 52.2151 115.216 53.0335C115.386 53.8497 115.572 54.6764 115.772 55.5137C115.973 56.3509 116.165 57.1765 116.348 57.9904C116.544 58.802 116.716 59.5914 116.865 60.3585C117.013 61.1256 117.12 61.8471 117.187 62.523C117.336 62.9197 117.339 63.1637 117.197 63.255C117.065 63.3312 116.788 63.3734 116.366 63.3816C116.171 62.8739 115.982 62.2528 115.8 61.5181C115.615 60.7706 115.433 59.9631 115.254 59.0956C115.072 58.2154 114.899 57.3072 114.734 56.3711C114.566 55.4222 114.396 54.4937 114.223 53.5855C114.049 52.6773 113.878 51.8216 113.71 51.0183C113.553 50.1998 113.387 49.4821 113.212 48.8651ZM123.235 62.2697C122.71 62.296 122.251 62.1655 121.857 61.878C121.475 61.5883 121.144 61.2104 120.863 60.7442C120.583 60.278 120.359 59.7557 120.19 59.1771C120.033 58.5835 119.916 57.9959 119.84 57.4143C119.722 56.5227 119.733 55.6482 119.873 54.7906C120.026 53.9307 120.261 53.1686 120.581 52.5041C120.91 51.8245 121.303 51.2792 121.76 50.8682C122.227 50.4421 122.717 50.2234 123.231 50.2122C123.77 50.1964 124.237 50.3719 124.632 50.7385C125.04 51.1029 125.388 51.577 125.676 52.1608C125.965 52.7447 126.192 53.3987 126.36 54.1228C126.525 54.8341 126.64 55.5277 126.707 56.2035C126.776 56.9714 126.734 57.7061 126.58 58.4075C126.426 59.109 126.185 59.7331 125.859 60.2799C125.545 60.8244 125.155 61.2766 124.69 61.6363C124.235 61.9809 123.75 62.1921 123.235 62.2697ZM123.232 51.3425C122.799 51.3658 122.426 51.5705 122.11 51.9567C121.806 52.3278 121.552 52.8022 121.35 53.3799C121.158 53.9426 121.025 54.5743 120.95 55.275C120.873 55.9629 120.859 56.633 120.908 57.2855C120.938 57.7562 121.003 58.234 121.101 58.719C121.2 59.204 121.336 59.6362 121.508 60.0157C121.694 60.3928 121.925 60.6893 122.201 60.9051C122.487 61.1057 122.829 61.171 123.227 61.1009C123.55 61.0572 123.864 60.8895 124.169 60.5976C124.488 60.3035 124.767 59.9369 125.007 59.498C125.244 59.0462 125.435 58.5499 125.577 58.0091C125.733 57.4661 125.803 56.9249 125.787 56.3856C125.779 55.8183 125.699 55.2507 125.546 54.6827C125.404 54.0997 125.211 53.5717 124.969 53.0987C124.74 52.6235 124.472 52.2278 124.165 51.9117C123.869 51.5806 123.557 51.3908 123.232 51.3425ZM132.984 48.9287C132.983 48.8495 133.007 48.7594 133.055 48.6583C133.114 48.5422 133.192 48.4558 133.287 48.3993C133.396 48.3404 133.521 48.3382 133.663 48.3925C133.815 48.4318 133.984 48.5608 134.168 48.7795C134.29 49.776 134.4 50.7746 134.497 51.7756C134.605 52.7614 134.744 53.7352 134.913 54.6969C135.094 55.6436 135.324 56.5748 135.604 57.4905C135.898 58.404 136.283 59.2748 136.759 60.1031C136.788 60.1906 136.769 60.2732 136.704 60.3509C136.64 60.4414 136.547 60.5108 136.423 60.559C136.302 60.6201 136.176 60.6555 136.045 60.6653C135.915 60.6751 135.802 60.6355 135.707 60.5465L134.467 57.453C134.445 57.6288 134.341 57.8984 134.154 58.2619C133.979 58.6232 133.761 58.9988 133.5 59.3887C133.248 59.7636 132.979 60.1086 132.691 60.4239C132.4 60.7263 132.134 60.9054 131.893 60.9612C131.297 61.1059 130.785 60.978 130.358 60.5774C129.93 60.1768 129.567 59.6194 129.269 58.905C128.982 58.1756 128.744 57.3515 128.556 56.4328C128.367 55.5141 128.209 54.6164 128.081 53.74C127.953 52.8635 127.846 52.0692 127.76 51.3571C127.674 50.6451 127.583 50.1258 127.485 49.7992C127.506 49.6898 127.556 49.6015 127.637 49.5344C127.73 49.465 127.835 49.4202 127.95 49.3998C128.066 49.3795 128.179 49.3859 128.291 49.4191C128.415 49.4501 128.512 49.5123 128.582 49.6058C128.684 50.0373 128.787 50.5811 128.889 51.2374C128.992 51.8936 129.102 52.5947 129.22 53.3407C129.336 54.0739 129.466 54.8112 129.61 55.5527C129.767 56.2919 129.938 56.9625 130.124 57.5644C130.307 58.1535 130.512 58.6397 130.738 59.0229C130.975 59.391 131.245 59.5747 131.549 59.574C131.767 59.5356 131.973 59.4266 132.166 59.2471C132.359 59.0676 132.545 58.8497 132.725 58.5932C132.902 58.324 133.063 58.0378 133.208 57.7346C133.351 57.4185 133.47 57.1199 133.566 56.8385C133.659 56.5444 133.732 56.2804 133.783 56.0466C133.834 55.8128 133.856 55.637 133.849 55.5193C133.834 55.3632 133.811 55.1162 133.777 54.7783C133.742 54.4275 133.693 54.0394 133.632 53.614C133.58 53.1735 133.518 52.7085 133.445 52.2189C133.385 51.7271 133.324 51.2685 133.262 50.8431C133.211 50.4026 133.156 50.0157 133.097 49.6823C133.049 49.3338 133.011 49.0826 132.984 48.9287ZM138.387 59.3005C138.036 57.5377 137.74 56.043 137.497 54.8166C137.254 53.5901 137.055 52.574 136.9 51.7684C136.745 50.9629 136.621 50.3368 136.529 49.8902C136.448 49.4286 136.381 49.0899 136.33 48.8742C136.292 48.6562 136.269 48.528 136.262 48.4895C136.253 48.4382 136.248 48.4062 136.245 48.3933C136.238 48.2757 136.279 48.1693 136.368 48.0743C136.457 47.9793 136.558 47.9152 136.671 47.882C136.795 47.8337 136.919 47.8251 137.043 47.856C137.167 47.887 137.266 47.9556 137.337 48.062L138.175 52.4758C138.211 51.5571 138.389 50.7655 138.708 50.101C139.04 49.4343 139.446 48.8867 139.926 48.4583C140.403 48.0172 140.922 47.6944 141.481 47.4901C142.052 47.2835 142.596 47.181 143.112 47.1826C143.286 47.1916 143.42 47.2407 143.515 47.3297C143.623 47.4165 143.688 47.5239 143.71 47.6522C143.744 47.7653 143.732 47.8864 143.675 48.0154C143.629 48.1292 143.553 48.222 143.447 48.2937C142.863 48.3569 142.327 48.5043 141.839 48.7358C141.361 48.9522 140.935 49.2324 140.559 49.5763C140.194 49.9051 139.883 50.2773 139.626 50.6928C139.381 51.1062 139.204 51.5274 139.095 51.9566C138.927 52.5811 138.849 53.223 138.859 53.8822C138.88 54.5264 138.933 55.1649 139.019 55.7977C139.116 56.4283 139.222 57.0246 139.334 57.5865C139.459 58.1462 139.553 58.6388 139.614 59.0642C139.626 59.2075 139.581 59.3278 139.48 59.4251C139.388 59.5073 139.272 59.5608 139.131 59.5857C139.005 59.6211 138.866 59.6192 138.714 59.58C138.572 59.5257 138.463 59.4325 138.387 59.3005ZM145.374 46.268C145.444 46.216 145.529 46.1681 145.627 46.1244C145.725 46.0806 145.819 46.0508 145.908 46.035C146.011 46.0169 146.111 46.0192 146.207 46.0418C146.304 46.0645 146.387 46.1226 146.456 46.2161C146.603 47.0496 146.769 47.9525 146.953 48.9248C147.149 49.882 147.347 50.8584 147.549 51.8541C147.762 52.8347 147.966 53.8036 148.161 54.7608C148.356 55.718 148.539 56.6047 148.709 57.4208C148.756 57.6109 148.731 57.7674 148.633 57.8904C148.536 58.0133 148.417 58.0872 148.276 58.1121C148.148 58.1347 148.017 58.1049 147.883 58.0226C147.752 57.9532 147.668 57.8159 147.632 57.6108L145.374 46.268ZM144.452 42.3849C144.422 42.2182 144.461 42.099 144.567 42.0274C144.671 41.9429 144.794 41.8882 144.935 41.8633C145.217 41.8136 145.407 41.8793 145.505 42.0603C145.614 42.2262 145.689 42.431 145.732 42.6747C145.683 42.8421 145.599 42.9692 145.482 43.0559C145.365 43.1427 145.233 43.1792 145.085 43.1656C144.95 43.1498 144.819 43.0804 144.691 42.9574C144.577 42.8322 144.497 42.6413 144.452 42.3849ZM150.871 56.048C151.149 56.1974 151.462 56.248 151.81 56.1998C152.171 56.1493 152.535 56.0388 152.902 55.8684C153.279 55.6829 153.648 55.4526 154.01 55.1773C154.382 54.8869 154.712 54.5842 155 54.2689C155.301 53.9514 155.548 53.6301 155.742 53.305C155.947 52.9649 156.071 52.6587 156.116 52.3864C156.158 52.1013 156.108 51.8588 155.967 51.6589C155.826 51.459 155.565 51.3265 155.183 51.2616C154.557 51.5308 153.924 51.768 153.286 51.973C152.648 52.1781 152.058 52.2821 151.516 52.285C150.988 52.2857 150.534 52.1476 150.154 51.8708C149.775 51.5939 149.537 51.107 149.441 50.41C149.361 49.7364 149.431 49.0829 149.65 48.4493C149.879 47.8006 150.208 47.2271 150.636 46.7285C151.076 46.2278 151.585 45.8141 152.162 45.4876C152.752 45.1588 153.371 44.9571 154.019 44.8825C154.149 44.8728 154.267 44.8652 154.372 44.86C154.487 44.8396 154.593 44.8408 154.69 44.8634C154.786 44.8861 154.861 44.9324 154.913 45.0026C154.978 45.0705 155.017 45.1825 155.032 45.3387C155.053 45.5333 155.009 45.6996 154.901 45.8376C154.793 45.9756 154.628 46.051 154.406 46.0638C153.622 46.0433 152.948 46.1952 152.384 46.5195C151.82 46.8437 151.374 47.2397 151.046 47.7073C150.717 48.1621 150.511 48.6478 150.431 49.1645C150.35 49.6811 150.402 50.128 150.588 50.5052C150.913 50.9239 151.279 51.1634 151.686 51.2238C152.104 51.2691 152.528 51.2341 152.957 51.1188C153.399 51.0012 153.843 50.8568 154.289 50.6856C154.732 50.5016 155.143 50.3961 155.522 50.369C155.898 50.3291 156.231 50.4159 156.52 50.6294C156.806 50.83 157.021 51.2615 157.164 51.9238C157.226 52.3492 157.158 52.7844 156.958 53.2294C156.757 53.6616 156.475 54.0881 156.113 54.5089C155.761 54.9147 155.354 55.3038 154.891 55.6764C154.425 56.0361 153.952 56.3509 153.471 56.6209C153.002 56.8886 152.549 57.0941 152.112 57.2373C151.687 57.3783 151.334 57.4341 151.051 57.4046C150.711 57.2002 150.513 56.9773 150.457 56.7359C150.399 56.4817 150.537 56.2524 150.871 56.048ZM158.952 46.6306L157.288 47.5389C157.14 47.5253 157.012 47.4751 156.904 47.3884C156.784 47.3039 156.694 47.2073 156.635 47.0987C156.576 46.9901 156.551 46.8822 156.558 46.7751C156.553 46.6702 156.591 46.5843 156.671 46.5171L158.718 45.3034L157.72 39.8668C157.729 39.6933 157.791 39.5568 157.905 39.4573C158.02 39.3577 158.143 39.3031 158.273 39.2933C158.414 39.2684 158.55 39.2907 158.682 39.3601C158.811 39.4167 158.906 39.5057 158.967 39.6271C159.011 40.0292 159.067 40.4557 159.133 40.9068C159.197 41.345 159.262 41.7897 159.328 42.2408C159.405 42.6767 159.487 43.1052 159.575 43.5261C159.66 43.9342 159.752 44.3079 159.852 44.6473L162.62 42.9099C162.79 42.8269 162.935 42.8213 163.053 42.893C163.169 42.9518 163.252 43.0495 163.303 43.186C163.364 43.3075 163.38 43.4368 163.352 43.5741C163.323 43.7114 163.249 43.817 163.13 43.8909L160.086 45.9745C160.109 46.1028 160.169 46.4094 160.268 46.8944C160.364 47.3666 160.477 47.9285 160.605 48.5803C160.733 49.232 160.869 49.9286 161.013 50.67C161.157 51.4115 161.287 52.1092 161.402 52.7632C161.53 53.4149 161.637 53.9844 161.723 54.4717C161.82 54.9439 161.879 55.2441 161.902 55.3723C161.951 55.8 161.866 56.0331 161.648 56.0715C161.43 56.1099 161.175 56.0492 160.882 55.8892L158.952 46.6306ZM164.951 49.698C164.875 49.7908 164.72 49.8511 164.487 49.879C164.265 49.8918 164.05 49.8767 163.844 49.8336C163.651 49.7883 163.511 49.7072 163.425 49.5903C163.336 49.4606 163.384 49.2867 163.571 49.0688C163.647 48.976 163.734 48.9077 163.832 48.864C163.941 48.8052 164.044 48.7539 164.142 48.7102C164.251 48.6514 164.331 48.5842 164.384 48.5088C164.45 48.4311 164.477 48.3206 164.465 48.1773C164.376 47.598 164.317 47.0003 164.287 46.384C164.271 45.7655 164.336 45.1987 164.483 44.6835C164.63 44.1684 164.891 43.7324 165.264 43.3757C165.65 43.0167 166.202 42.8071 166.918 42.7469C167.175 42.7017 167.475 42.7149 167.818 42.7866C168.159 42.8455 168.495 42.9515 168.826 43.1047C169.155 43.245 169.453 43.437 169.721 43.6807C169.986 43.9115 170.173 44.1827 170.281 44.4942C170.393 44.6067 170.37 44.776 170.212 45.0022C170.053 45.2285 169.822 45.494 169.519 45.7987C169.213 46.0905 168.864 46.3967 168.471 46.7172C168.078 47.0377 167.696 47.3432 167.324 47.6335C166.965 47.9216 166.646 48.1761 166.368 48.3971C166.089 48.6181 165.911 48.7685 165.832 48.8484C165.998 49.335 166.174 49.846 166.361 50.3816C166.548 50.9171 166.765 51.401 167.013 51.8333C167.261 52.2655 167.534 52.614 167.832 52.8788C168.141 53.1285 168.487 53.2195 168.872 53.1516C169.443 53.0906 169.909 52.9225 170.27 52.6472C170.645 52.3697 170.937 52.0405 171.147 51.6596C171.358 51.2787 171.505 50.876 171.589 50.4513C171.685 50.0244 171.741 49.6247 171.754 49.2521C171.781 48.8772 171.785 48.5657 171.768 48.3175C171.761 48.0543 171.768 47.9076 171.789 47.8774C171.917 47.7756 172.077 47.7473 172.27 47.7926C172.461 47.8251 172.597 47.9929 172.676 48.2961C172.777 48.794 172.769 49.3838 172.651 50.0657C172.534 50.7475 172.317 51.3939 172.002 52.0048C171.699 52.6135 171.295 53.1343 170.79 53.5671C170.295 53.9849 169.724 54.1979 169.078 54.2061C168.421 54.3086 167.869 54.2143 167.421 53.9231C166.971 53.619 166.585 53.2309 166.264 52.7587C165.953 52.2714 165.696 51.7482 165.492 51.1893C165.287 50.6303 165.107 50.1333 164.951 49.698ZM169.261 44.674C168.751 44.1821 168.271 43.8966 167.821 43.8173C167.371 43.7381 166.927 43.7701 166.489 43.9133C166.227 43.9993 166.012 44.1693 165.845 44.4235C165.677 44.6648 165.557 44.9635 165.488 45.3195C165.416 45.6627 165.391 46.044 165.412 46.4634C165.431 46.8699 165.497 47.2814 165.61 47.6978L169.261 44.674ZM96.9805 96.2274C96.7535 95.9898 96.5759 95.6575 96.4477 95.2305C96.3324 94.8013 96.2265 94.3506 96.13 93.8784C96.0441 93.3912 95.9604 92.9167 95.879 92.4551C95.8082 91.9784 95.7049 91.5801 95.5692 91.2603C95.1994 92.6873 94.8108 93.8202 94.4033 94.6589C94.0065 95.4825 93.6119 96.0942 93.2196 96.4939C92.8379 96.8785 92.4653 97.0896 92.1017 97.1273C91.7359 97.1521 91.4055 97.0782 91.1106 96.9054C90.8263 96.7176 90.5853 96.4758 90.3877 96.1801C90.1879 95.8715 90.0556 95.571 89.9907 95.2783C89.815 94.8068 89.7058 94.2245 89.6629 93.5313C89.6305 92.8231 89.6525 92.0854 89.7288 91.3183C89.8179 90.5489 89.9617 89.7898 90.1602 89.0408C90.3692 88.2768 90.6337 87.6021 90.9536 87.0168C91.2863 86.4293 91.6684 85.9719 92.0999 85.6446C92.5291 85.3045 93.0149 85.1725 93.5572 85.2488C93.8092 85.1779 94.023 85.1534 94.1987 85.1753C94.385 85.1821 94.5483 85.2459 94.6886 85.3666C94.8289 85.4873 94.9473 85.6714 95.0438 85.9188C95.1381 86.1534 95.2319 86.4608 95.3254 86.8409C95.5191 88.0893 95.7377 89.1415 95.9812 89.9977C96.2375 90.8515 96.4886 91.6006 96.7344 92.2448C96.9802 92.889 97.2083 93.4702 97.4186 93.9884C97.6418 94.5043 97.8171 95.0486 97.9445 95.6211C97.9807 95.8262 97.9577 95.9956 97.8754 96.1291C97.7909 96.2497 97.6868 96.3342 97.5631 96.3825C97.4417 96.4435 97.3187 96.4586 97.1943 96.4277C97.0827 96.3945 97.0114 96.3277 96.9805 96.2274ZM94.1521 86.7107C93.772 86.3546 93.4081 86.2403 93.0604 86.3677C92.7126 86.4951 92.3932 86.7828 92.1019 87.2308C91.8213 87.6637 91.5749 88.2162 91.3629 88.8882C91.1486 89.5474 90.9871 90.2436 90.8784 90.9768C90.7696 91.7099 90.7186 92.4329 90.7253 93.1457C90.7426 93.8434 90.8296 94.4494 90.9864 94.9639C91.2677 95.5093 91.5467 95.8171 91.8235 95.8872C92.1003 95.9574 92.3693 95.8703 92.6303 95.626C92.889 95.3688 93.1338 94.9951 93.3647 94.5049C93.5956 94.0146 93.808 93.4946 94.0019 92.9447C94.1936 92.3821 94.3543 91.8315 94.4841 91.2929C94.6245 90.7393 94.7347 90.277 94.8147 89.9059L94.1521 86.7107ZM92.1668 84.5618C91.9986 84.4328 91.8014 84.2891 91.5751 84.1307C91.3594 83.9572 91.1426 83.7772 90.9246 83.5909C90.7067 83.4046 90.508 83.2148 90.3285 83.0217C90.1618 82.8263 90.0562 82.64 90.0117 82.4627C89.8262 82.3104 89.7625 82.1365 89.8206 81.9411C89.8915 81.7435 90.085 81.6036 90.4011 81.5215C90.7525 81.79 91.0998 82.0726 91.443 82.369C91.799 82.6633 92.081 82.9507 92.2892 83.2313C92.5079 83.4968 92.6248 83.7473 92.6398 83.9826C92.6549 84.2179 92.4972 84.411 92.1668 84.5618ZM111.885 93.2027C111.884 93.1235 112.047 92.9957 112.372 92.8192C112.711 92.6405 113.13 92.4278 113.628 92.1813C114.125 91.9219 114.675 91.6331 115.28 91.3148C115.883 90.9838 116.456 90.6316 116.998 90.2583C117.553 89.8828 118.04 89.4929 118.458 89.0887C118.873 88.6716 119.155 88.2451 119.303 87.8091C119.267 87.604 119.098 87.4686 118.795 87.4029C118.493 87.3372 118.104 87.3066 117.629 87.3111C117.153 87.3155 116.616 87.3441 116.018 87.3968C115.419 87.4496 114.797 87.4864 114.153 87.5075C113.522 87.5262 112.899 87.5171 112.284 87.4801C111.669 87.443 111.109 87.3434 110.605 87.1811C110.098 87.0061 109.671 86.7575 109.323 86.4353C108.973 86.1004 108.748 85.6508 108.649 85.0866C108.552 84.5352 108.575 83.9559 108.719 83.3488C108.874 82.7265 109.109 82.1099 109.424 81.499C109.74 80.8881 110.119 80.299 110.561 79.7319C111.016 79.1625 111.5 78.6474 112.014 78.1866C112.527 77.7258 113.048 77.3431 113.576 77.0384C114.104 76.7338 114.612 76.5385 115.099 76.4525C115.227 76.4299 115.362 76.4062 115.503 76.3813C115.642 76.3436 115.765 76.3286 115.872 76.3361C115.992 76.3414 116.092 76.3833 116.172 76.4617C116.262 76.5251 116.322 76.6402 116.352 76.8069C116.424 77.2172 116.341 77.5359 116.104 77.7629C115.866 77.9899 115.555 78.1373 115.17 78.2051L114.296 78.0817C113.975 78.1382 113.627 78.2988 113.25 78.5635C112.884 78.8131 112.525 79.1344 112.171 79.5273C111.815 79.9074 111.474 80.3377 111.149 80.8181C110.834 81.2835 110.562 81.7613 110.331 82.2515C110.11 82.7267 109.942 83.1992 109.827 83.6691C109.722 84.1239 109.7 84.5244 109.761 84.8707C109.838 85.3066 110.042 85.6408 110.374 85.8732C110.704 86.0927 111.114 86.2451 111.605 86.3304C112.096 86.4157 112.645 86.4513 113.25 86.437C113.866 86.4077 114.488 86.3708 115.115 86.3264C115.742 86.282 116.357 86.2462 116.96 86.2192C117.576 86.1898 118.128 86.205 118.614 86.2647C119.099 86.3115 119.503 86.4319 119.828 86.6258C120.151 86.8068 120.348 87.0961 120.418 87.4936C120.485 87.8783 120.399 88.2901 120.159 88.7291C119.92 89.1681 119.581 89.6111 119.144 90.0584C118.705 90.4928 118.186 90.9215 117.586 91.3446C116.997 91.7526 116.395 92.1232 115.779 92.4565C115.161 92.777 114.549 93.0503 113.941 93.2765C113.345 93.5005 112.822 93.6456 112.371 93.7119C112.243 93.7345 112.126 93.7088 112.021 93.6349C111.915 93.561 111.87 93.4169 111.885 93.2027ZM129.652 90.4665C129.425 90.2288 129.248 89.8966 129.119 89.4696C129.004 89.0404 128.898 88.5897 128.802 88.1175C128.716 87.6303 128.632 87.1558 128.551 86.6942C128.48 86.2175 128.377 85.8192 128.241 85.4994C127.871 86.9264 127.483 88.0593 127.075 88.898C126.678 89.7216 126.284 90.3332 125.891 90.733C125.51 91.1176 125.137 91.3287 124.773 91.3664C124.408 91.3912 124.077 91.3173 123.782 91.1445C123.498 90.9566 123.257 90.7149 123.059 90.4192C122.86 90.1106 122.727 89.81 122.662 89.5174C122.487 89.0459 122.378 88.4636 122.335 87.7704C122.302 87.0621 122.324 86.3245 122.401 85.5574C122.49 84.788 122.633 84.0289 122.832 83.2799C123.041 82.5158 123.305 81.8412 123.625 81.2559C123.958 80.6684 124.34 80.211 124.772 79.8837C125.201 79.5435 125.687 79.4116 126.229 79.4879C126.481 79.417 126.695 79.3925 126.871 79.4144C127.057 79.4212 127.22 79.485 127.36 79.6057C127.501 79.7264 127.619 79.9105 127.716 80.1579C127.81 80.3925 127.904 80.6998 127.997 81.08C128.191 82.3284 128.409 83.3806 128.653 84.2368C128.909 85.0906 129.16 85.8397 129.406 86.4839C129.652 87.128 129.88 87.7092 130.09 88.2275C130.314 88.7434 130.489 89.2876 130.616 89.8602C130.652 90.0653 130.629 90.2347 130.547 90.3682C130.463 90.4888 130.359 90.5733 130.235 90.6216C130.113 90.6826 129.991 90.6977 129.866 90.6668C129.754 90.6336 129.683 90.5668 129.652 90.4665ZM126.824 80.9497C126.444 80.5937 126.08 80.4793 125.732 80.6068C125.384 80.7342 125.065 81.0219 124.774 81.4699C124.493 81.9028 124.247 82.4553 124.035 83.1273C123.82 83.7865 123.659 84.4827 123.55 85.2159C123.441 85.949 123.39 86.672 123.397 87.3848C123.414 88.0825 123.501 88.6885 123.658 89.203C123.939 89.7484 124.218 90.0561 124.495 90.1263C124.772 90.1965 125.041 90.1094 125.302 89.8651C125.561 89.6079 125.806 89.2342 126.036 88.744C126.267 88.2537 126.48 87.7337 126.674 87.1838C126.865 86.6212 127.026 86.0706 127.156 85.532C127.296 84.9784 127.406 84.516 127.486 84.145L126.824 80.9497ZM130.666 78.3089C130.736 78.2568 130.82 78.209 130.918 78.1652C131.016 78.1215 131.11 78.0917 131.2 78.0759C131.303 78.0578 131.402 78.0601 131.499 78.0827C131.595 78.1054 131.678 78.1634 131.748 78.257C131.894 79.0905 132.06 79.9934 132.245 80.9657C132.44 81.9229 132.639 82.8993 132.841 83.895C133.053 84.8756 133.257 85.8445 133.453 86.8017C133.648 87.7589 133.831 88.6455 134.001 89.4617C134.048 89.6518 134.022 89.8083 133.925 89.9312C133.828 90.0542 133.708 90.1281 133.567 90.1529C133.439 90.1755 133.308 90.1457 133.175 90.0635C133.044 89.9941 132.96 89.8568 132.924 89.6516L130.666 78.3089ZM129.743 74.4257C129.714 74.259 129.752 74.1399 129.859 74.0682C129.963 73.9838 130.085 73.9291 130.226 73.9042C130.508 73.8545 130.699 73.9201 130.797 74.1012C130.905 74.2671 130.981 74.4719 131.024 74.7156C130.974 74.883 130.891 75.0101 130.774 75.0968C130.657 75.1835 130.525 75.2201 130.377 75.2065C130.242 75.1906 130.11 75.1212 129.983 74.9983C129.868 74.873 129.788 74.6822 129.743 74.4257ZM133.885 78.0982C133.875 77.9677 133.909 77.8561 133.985 77.7633C134.061 77.6706 134.156 77.6076 134.269 77.5744C134.38 77.5284 134.497 77.5209 134.622 77.5518C134.744 77.57 134.852 77.6171 134.944 77.6933L136.243 85.3973C136.324 84.4311 136.382 83.4822 136.416 82.5507C136.46 81.6041 136.566 80.7393 136.732 79.9564C136.895 79.1606 137.16 78.486 137.525 77.9324C137.888 77.366 138.436 76.9851 139.168 76.7899C139.559 76.6813 139.926 76.7421 140.271 76.9722C140.614 77.1895 140.929 77.5173 141.218 77.9555C141.52 78.3915 141.797 78.9177 142.052 79.534C142.303 80.1374 142.529 80.7786 142.728 81.4575C142.938 82.1213 143.123 82.796 143.283 83.4817C143.444 84.1673 143.582 84.8039 143.699 85.3915C143.816 85.9791 143.908 86.4985 143.974 86.9495C144.053 87.3983 144.104 87.7265 144.128 87.9339C144.076 88.1677 143.941 88.337 143.721 88.4418C143.517 88.5572 143.302 88.5025 143.078 88.2777C143.022 88.0363 142.942 87.6207 142.838 87.0308C142.732 86.4282 142.598 85.7444 142.437 84.9795C142.288 84.2124 142.108 83.4178 141.897 82.5956C141.697 81.7583 141.464 80.9995 141.198 80.3191C140.944 79.6236 140.652 79.0601 140.325 78.6286C140.008 78.182 139.658 77.9595 139.275 77.9609C138.946 77.9662 138.662 78.1947 138.424 78.6464C138.2 79.096 138.004 79.6726 137.837 80.3763C137.683 81.0777 137.557 81.8603 137.458 82.7239C137.371 83.5853 137.302 84.4305 137.25 85.2594C137.211 86.0861 137.186 86.8441 137.175 87.5335C137.165 88.2229 137.172 88.7506 137.196 89.1164C137.176 89.2257 137.114 89.3227 137.01 89.4071C136.906 89.4916 136.783 89.5463 136.642 89.5711C136.516 89.6066 136.378 89.6111 136.228 89.5847C136.091 89.556 135.978 89.4768 135.889 89.347L133.885 78.0982ZM145.244 78.4951L143.579 79.4034C143.432 79.3898 143.304 79.3396 143.196 79.2529C143.075 79.1684 142.986 79.0718 142.927 78.9632C142.868 78.8546 142.842 78.7467 142.85 78.6396C142.845 78.5347 142.882 78.4488 142.963 78.3816L145.01 77.1679L144.012 71.7313C144.021 71.5578 144.083 71.4213 144.197 71.3218C144.312 71.2222 144.434 71.1676 144.565 71.1578C144.706 71.1329 144.842 71.1552 144.973 71.2246C145.102 71.2812 145.197 71.3702 145.258 71.4916C145.303 71.8937 145.358 72.3202 145.425 72.7713C145.489 73.2095 145.554 73.6542 145.62 74.1053C145.697 74.5412 145.779 74.9697 145.867 75.3906C145.952 75.7987 146.044 76.1724 146.144 76.5119L148.911 74.7744C149.082 74.6914 149.226 74.6858 149.345 74.7575C149.461 74.8163 149.544 74.914 149.595 75.0505C149.656 75.172 149.672 75.3014 149.643 75.4386C149.615 75.5759 149.541 75.6815 149.421 75.7554L146.378 77.839C146.4 77.9673 146.461 78.2739 146.56 78.7589C146.656 79.2311 146.768 79.793 146.897 80.4448C147.025 81.0965 147.161 81.7931 147.305 82.5345C147.449 83.276 147.578 83.9737 147.694 84.6277C147.822 85.2794 147.929 85.8489 148.015 86.3362C148.111 86.8084 148.171 87.1086 148.193 87.2368C148.242 87.6645 148.158 87.8976 147.94 87.936C147.722 87.9744 147.467 87.9137 147.174 87.7537L145.244 78.4951ZM165.836 69.0335C165.324 69.0575 164.823 69.1393 164.332 69.2788C163.839 69.4054 163.348 69.5449 162.859 69.6972C162.383 69.8472 161.9 69.9984 161.412 70.1507C160.921 70.2902 160.422 70.3847 159.915 70.4345C159.771 70.4465 159.618 70.4404 159.455 70.4163C159.305 70.3899 159.224 70.2654 159.211 70.0429C159.199 69.8996 159.245 69.7461 159.348 69.5824C159.451 69.4188 159.575 69.3309 159.718 69.3189L165.447 67.9518C165.448 67.8854 165.458 67.7911 165.476 67.6689C165.492 67.5339 165.522 67.403 165.565 67.2763C165.609 67.1496 165.669 67.0399 165.745 66.9471C165.819 66.8415 165.915 66.785 166.033 66.7774C166.202 66.7609 166.34 66.796 166.448 66.8827C166.566 66.9544 166.668 67.0423 166.752 67.1464C166.835 67.2377 166.909 67.3237 166.976 67.4044C167.043 67.4851 167.117 67.5251 167.196 67.5243C169.26 67.1603 171.376 66.7476 173.542 66.2863C173.581 66.2795 173.684 66.2679 173.853 66.2513C174.02 66.2219 174.136 66.208 174.203 66.2095C174.318 66.4139 174.265 66.6017 174.044 66.7729C173.834 66.929 173.51 67.0787 173.072 67.2219C172.648 67.3629 172.156 67.496 171.596 67.6211C171.036 67.7463 170.475 67.865 169.913 67.9773C169.364 68.0873 168.842 68.1993 168.346 68.3131C167.864 68.4247 167.486 68.531 167.213 68.632C167.228 69.3169 167.297 70.0451 167.419 70.8168C167.542 71.5884 167.682 72.3835 167.84 73.2019C168.01 74.018 168.196 74.8447 168.396 75.682C168.597 76.5193 168.789 77.3449 168.972 78.1588C169.168 78.9704 169.34 79.7598 169.488 80.5269C169.637 81.294 169.744 82.0155 169.811 82.6913C169.96 83.0881 169.963 83.3321 169.821 83.4233C169.689 83.4995 169.412 83.5417 168.99 83.5499C168.795 83.0423 168.606 82.4211 168.424 81.6864C168.239 80.9389 168.057 80.1314 167.878 79.264C167.696 78.3837 167.523 77.4756 167.357 76.5395C167.19 75.5906 167.02 74.662 166.846 73.7539C166.673 72.8457 166.502 71.9899 166.334 71.1866C166.177 70.3682 166.011 69.6505 165.836 69.0335ZM173.923 82.4819C173.572 80.7191 173.276 79.2245 173.033 77.998C172.79 76.7715 172.591 75.7555 172.436 74.9499C172.281 74.1443 172.157 73.5182 172.065 73.0717C171.984 72.61 171.917 72.2714 171.866 72.0556C171.828 71.8376 171.805 71.7094 171.798 71.6709C171.789 71.6196 171.784 71.5876 171.781 71.5748C171.774 71.4571 171.815 71.3507 171.904 71.2557C171.993 71.1607 172.094 71.0966 172.207 71.0634C172.33 71.0152 172.455 71.0065 172.579 71.0375C172.703 71.0684 172.802 71.137 172.873 71.2434L173.711 75.6572C173.747 74.7385 173.925 73.9469 174.244 73.2824C174.576 72.6157 174.982 72.0681 175.462 71.6398C175.939 71.1986 176.458 70.8758 177.016 70.6715C177.588 70.4649 178.132 70.3624 178.648 70.364C178.822 70.373 178.956 70.4221 179.051 70.5111C179.159 70.5979 179.224 70.7054 179.246 70.8336C179.28 70.9467 179.268 71.0678 179.211 71.1968C179.165 71.3107 179.089 71.4034 178.983 71.4751C178.399 71.5383 177.863 71.6857 177.375 71.9172C176.897 72.1336 176.471 72.4138 176.095 72.7577C175.73 73.0865 175.419 73.4587 175.162 73.8743C174.917 74.2876 174.74 74.7088 174.631 75.138C174.463 75.7625 174.385 76.4044 174.395 77.0636C174.416 77.7078 174.469 78.3463 174.555 78.9791C174.652 79.6097 174.758 80.206 174.87 80.7679C174.995 81.3276 175.089 81.8202 175.15 82.2456C175.162 82.3889 175.117 82.5092 175.016 82.6065C174.924 82.6887 174.808 82.7423 174.667 82.7671C174.541 82.8026 174.402 82.8007 174.25 82.7614C174.108 82.7071 173.999 82.6139 173.923 82.4819ZM183.883 81.0231C183.359 81.0494 182.9 80.9189 182.505 80.6314C182.124 80.3417 181.792 79.9638 181.512 79.4976C181.231 79.0314 181.007 78.5091 180.839 77.9305C180.681 77.3369 180.565 76.7493 180.488 76.1677C180.371 75.2761 180.382 74.4016 180.522 73.544C180.674 72.6841 180.91 71.9219 181.229 71.2575C181.559 70.5779 181.952 70.0326 182.408 69.6216C182.875 69.1955 183.366 68.9768 183.879 68.9656C184.419 68.9498 184.886 69.1253 185.281 69.4919C185.689 69.8563 186.037 70.3304 186.325 70.9142C186.613 71.4981 186.841 72.1521 187.008 72.8762C187.173 73.5875 187.289 74.2811 187.355 74.9569C187.425 75.7248 187.382 76.4594 187.228 77.1609C187.074 77.8624 186.834 78.4865 186.507 79.0333C186.193 79.5778 185.804 80.03 185.338 80.3897C184.883 80.7343 184.398 80.9455 183.883 81.0231ZM183.88 70.0959C183.448 70.1192 183.074 70.3239 182.759 70.7101C182.454 71.0811 182.201 71.5555 181.998 72.1333C181.807 72.696 181.673 73.3276 181.599 74.0284C181.522 74.7162 181.508 75.3864 181.557 76.0389C181.587 76.5096 181.651 76.9874 181.75 77.4724C181.849 77.9574 181.984 78.3896 182.157 78.7691C182.342 79.1462 182.573 79.4427 182.849 79.6585C183.136 79.8591 183.478 79.9244 183.875 79.8543C184.198 79.8106 184.512 79.6428 184.818 79.351C185.136 79.0569 185.415 78.6903 185.655 78.2514C185.893 77.7996 186.083 77.3033 186.226 76.7625C186.381 76.2194 186.451 75.6783 186.435 75.139C186.428 74.5717 186.348 74.0041 186.195 73.4361C186.052 72.8531 185.86 72.325 185.618 71.8521C185.389 71.3769 185.12 70.9812 184.814 70.6651C184.517 70.3339 184.206 70.1442 183.88 70.0959ZM191.002 85.7176C190.837 84.1072 190.687 82.7718 190.553 81.7112C190.419 80.6507 190.293 79.7474 190.175 79.0014C190.067 78.2404 189.956 77.5724 189.841 76.9977C189.727 76.4229 189.6 75.8172 189.461 75.1806C189.32 74.5311 189.157 73.793 188.972 72.9663C188.797 72.1245 188.583 71.0647 188.332 69.7869C188.332 69.6414 188.362 69.5105 188.421 69.3944C188.478 69.2654 188.547 69.1737 188.63 69.1195C188.724 69.0501 188.833 69.0309 188.957 69.0618C189.082 69.0927 189.218 69.1878 189.365 69.347L189.748 71.8576C190.084 71.2165 190.481 70.6177 190.938 70.0611C191.408 69.5023 191.893 69.0268 192.392 68.6346C192.902 68.2274 193.41 67.9197 193.915 67.7116C194.419 67.4906 194.872 67.3976 195.274 67.4323C195.69 67.4648 196.032 67.6425 196.3 67.9653C196.58 68.2731 196.744 68.7532 196.792 69.4057C196.841 69.979 196.775 70.6186 196.595 71.3246C196.413 72.0177 196.161 72.7233 195.838 73.4413C195.526 74.1443 195.165 74.8359 194.756 75.5162C194.347 76.1965 193.939 76.804 193.531 77.3387C193.122 77.8735 192.732 78.3192 192.358 78.6759C191.995 79.0175 191.692 79.2098 191.449 79.2528C191.467 79.4346 191.492 79.688 191.523 80.0131C191.556 80.351 191.596 80.7274 191.643 81.1423C191.692 81.57 191.737 82.0116 191.777 82.4672C191.831 82.9205 191.881 83.3546 191.928 83.7695C191.974 84.1843 192.014 84.5607 192.047 84.8986C192.081 85.2366 192.112 85.4889 192.141 85.6556C192.088 85.731 192.022 85.8023 191.941 85.8694C191.86 85.9365 191.77 85.9855 191.669 86.0164C191.569 86.0473 191.462 86.0398 191.348 85.9938C191.236 85.9605 191.121 85.8685 191.002 85.7176ZM191.159 78.1734C191.553 77.9321 192.001 77.5094 192.502 76.9053C193.002 76.2883 193.478 75.5764 193.93 74.7693C194.394 73.9472 194.788 73.0712 195.113 72.1412C195.438 71.2113 195.624 70.3126 195.669 69.4451C195.52 69.0484 195.299 68.8096 195.007 68.7289C194.715 68.6481 194.39 68.679 194.032 68.8215C193.684 68.9489 193.315 69.1793 192.924 69.5126C192.531 69.8332 192.16 70.2027 191.811 70.6213C191.472 71.0248 191.166 71.4622 190.892 71.9336C190.618 72.405 190.42 72.8564 190.298 73.2878L191.159 78.1734ZM198.528 64.3795C198.621 64.2309 198.729 64.1325 198.853 64.0843C198.987 64.0209 199.109 63.9994 199.218 64.0198C199.34 64.0379 199.442 64.0862 199.521 64.1647C199.612 64.2281 199.666 64.311 199.684 64.4136L200.35 68.3024C200.353 68.3944 200.309 68.4815 200.218 68.5637C200.124 68.6331 200.013 68.6791 199.885 68.7017C199.77 68.7221 199.649 68.7104 199.522 68.6666C199.393 68.61 199.296 68.5082 199.23 68.3611L198.528 64.3795Z" fill="#2C2C2C"/>
<path d="M116.5 22.3048C106.09 12.4085 87.4998 -0.678853 70.8464 1.17758C59.7887 2.41022 48.7409 9.93355 45.2842 22.5957M45.2842 22.5957C44.6001 25.1015 44.2389 27.9146 44.2746 31.0894C44.4586 47.4598 57.1983 40.91 57.8461 35.2079C58.5513 29 52.6991 26.3124 45.2842 22.5957ZM45.2842 22.5957C39.4173 19.655 32.4998 18.8203 26.0663 19.7621C13.7986 21.558 3.00857 32.977 3.00857 32.977M11.0718 32.575L1 35.8203L1.85404 23.1398" stroke="#2C2C2C" stroke-linecap="round" stroke-linejoin="round"/>
</svg>
