<?xml version="1.0" standalone="no"?>
<!DOCTYPE svg PUBLIC "-//W3C//DTD SVG 20010904//EN"
 "http://www.w3.org/TR/2001/REC-SVG-20010904/DTD/svg10.dtd">
<svg version="1.0" xmlns="http://www.w3.org/2000/svg"
 width="700.000000pt" height="700.000000pt" viewBox="0 0 700.000000 700.000000"
 preserveAspectRatio="xMidYMid meet">
<metadata>
Created by potrace 1.14, written by Peter Selinger 2001-2017
</metadata>
<g transform="translate(0.000000,700.000000) scale(0.100000,-0.100000)"
fill="#000000" stroke="none">
<path d="M6389 5276 c-2 -2 -20 -7 -39 -10 -19 -3 -75 -14 -125 -25 -49 -11
-110 -23 -135 -26 -24 -4 -47 -8 -50 -10 -3 -1 -32 -6 -65 -10 -33 -4 -69 -9
-80 -11 -96 -15 -138 -19 -315 -31 -133 -9 -1179 -9 -1575 0 -388 9 -686 16
-955 22 -752 15 -888 18 -1012 19 -76 1 -138 4 -138 8 0 4 -14 3 -31 -2 -18
-5 -35 -7 -39 -5 -4 2 -117 7 -251 10 -294 7 -461 14 -764 29 -33 2 -71 -1
-84 -6 -24 -9 -24 -9 -5 -28 18 -18 38 -24 114 -35 19 -3 44 -7 55 -9 11 -3
25 -5 31 -5 9 -1 9 -12 0 -43 -19 -71 -51 -121 -115 -181 -34 -31 -61 -65 -61
-75 0 -48 69 -60 163 -28 90 30 137 64 249 179 72 75 103 101 123 102 15 0 28
-2 30 -6 2 -3 18 -5 35 -4 16 1 30 -1 30 -4 0 -4 15 -6 33 -5 18 1 40 -4 49
-10 15 -11 15 -17 -3 -70 -23 -67 -23 -67 -112 -158 -57 -58 -66 -72 -57 -88
15 -27 25 -32 88 -36 31 -2 75 -6 97 -8 51 -4 156 30 176 57 3 5 9 8 13 7 4
-1 21 9 37 22 27 20 50 43 161 160 16 16 28 32 28 37 0 16 48 33 81 27 19 -2
70 -8 114 -11 142 -11 170 -14 170 -15 0 -2 76 -8 143 -10 61 -3 58 -17 -5
-22 -7 -1 -13 -5 -13 -10 0 -5 -4 -6 -10 -3 -5 3 -23 -1 -40 -10 -16 -8 -30
-13 -30 -11 0 3 -38 -10 -85 -29 -47 -18 -85 -30 -85 -27 0 4 -4 1 -9 -6 -4
-7 -14 -15 -22 -16 -8 -1 -41 -15 -73 -29 -33 -15 -87 -39 -120 -54 -34 -15
-63 -31 -64 -35 -2 -5 -8 -6 -13 -2 -5 3 -9 -6 -9 -20 0 -16 -11 -32 -32 -48
-18 -12 -42 -30 -53 -40 -11 -9 -30 -26 -43 -36 -13 -11 -41 -35 -64 -54 -23
-18 -46 -37 -52 -43 -6 -5 -27 -22 -46 -36 -32 -25 -62 -49 -100 -81 -60 -52
-73 -60 -109 -62 -23 -2 -48 -12 -62 -25 -13 -12 -37 -32 -52 -44 -66 -51 -87
-78 -143 -182 -32 -61 -62 -112 -66 -113 -4 -2 -6 -8 -3 -12 3 -5 -27 -19 -67
-31 -40 -12 -82 -27 -93 -33 -11 -5 -22 -11 -25 -11 -15 -3 -106 -52 -112 -60
-4 -5 -8 -7 -8 -2 0 4 -22 -9 -50 -28 -27 -19 -54 -35 -59 -35 -5 0 -11 -3
-13 -7 -2 -5 -28 -26 -58 -49 -90 -67 -290 -257 -290 -275 0 -4 -3 -9 -7 -11
-13 -5 -68 -80 -94 -128 -24 -43 -25 -53 -24 -197 2 -218 5 -222 214 -238 36
-3 69 -9 73 -13 9 -9 18 -48 22 -94 1 -15 5 -31 9 -34 4 -4 7 -15 7 -24 0 -22
39 -66 65 -73 35 -10 78 -17 153 -24 40 -3 75 -10 78 -15 3 -5 7 -26 9 -46 7
-91 78 -283 112 -305 7 -4 13 -13 13 -20 0 -14 60 -86 108 -131 46 -43 185
-135 194 -130 4 3 8 0 8 -6 0 -6 4 -9 8 -6 5 3 20 -1 34 -8 96 -50 316 -66
443 -32 6 1 25 6 43 10 18 4 45 14 60 22 15 8 32 14 37 14 28 0 168 96 229
156 80 81 96 99 96 107 0 3 12 23 26 44 14 21 32 54 41 73 29 67 34 75 70 115
30 34 97 139 98 155 0 3 5 12 10 21 9 14 43 16 282 15 150 -1 273 -5 273 -9 0
-5 6 -5 12 -1 18 11 460 12 476 1 6 -5 12 -6 12 -1 0 5 29 9 65 9 36 0 65 -4
65 -8 0 -5 5 -5 12 -1 15 10 951 10 966 0 7 -4 12 -4 12 1 0 4 29 8 65 8 36 0
65 -4 65 -8 0 -5 5 -5 11 -1 7 4 66 7 133 6 181 0 174 1 182 -24 3 -13 19 -42
35 -66 16 -24 29 -45 29 -47 0 -6 36 -49 88 -103 23 -25 42 -50 42 -55 0 -4
19 -40 42 -79 38 -65 187 -228 208 -228 5 0 15 -6 22 -13 15 -15 163 -87 188
-92 8 -2 15 -4 15 -5 0 -2 14 -5 53 -14 13 -3 32 -8 43 -11 33 -11 186 -12
246 -3 63 11 88 16 88 18 0 1 13 5 48 13 29 7 170 80 188 98 10 10 22 19 27
19 7 0 58 49 112 107 16 17 41 51 56 75 15 24 31 46 36 49 5 3 9 8 8 10 -2 5
18 60 29 80 8 14 22 58 38 124 3 11 7 52 10 90 2 39 5 81 6 95 2 20 8 25 32
26 85 4 117 9 127 22 12 14 14 227 3 285 -6 30 -5 31 10 13 8 -11 15 -24 15
-30 0 -5 2 -7 5 -4 3 3 -2 22 -10 43 -9 20 -14 40 -11 42 3 3 1 13 -4 23 -5 9
-12 32 -15 50 -3 18 -12 45 -21 61 -8 16 -12 29 -10 29 8 0 -39 129 -76 210
-42 93 -77 150 -91 150 -6 0 -7 3 -4 7 4 3 2 12 -5 20 -9 11 -7 15 10 19 38
11 48 63 38 209 -6 103 -19 116 -113 111 -54 -3 -68 -1 -84 15 -16 16 -30 18
-91 15 -40 -3 -95 -10 -123 -16 -27 -7 -55 -13 -62 -14 -7 -1 -15 -5 -19 -9
-3 -3 -36 5 -72 19 -61 23 -221 64 -307 80 -22 3 -49 8 -60 11 -11 2 -38 6
-60 8 -22 2 -56 6 -75 9 -19 3 -64 7 -100 10 -36 3 -96 8 -135 12 -38 3 -129
7 -200 8 -72 1 -137 7 -146 12 -14 8 -101 147 -174 279 -15 28 -41 75 -58 105
-17 30 -45 78 -62 105 -53 83 -112 198 -119 231 -7 33 -23 42 -131 74 -22 7
-48 16 -57 21 -10 5 -24 9 -32 9 -8 0 -17 4 -20 8 -3 4 28 9 67 9 108 2 402
13 482 18 39 3 108 7 155 10 47 3 112 7 145 10 33 4 83 8 110 10 62 5 141 13
180 19 17 3 53 8 80 11 28 4 57 8 65 10 8 2 31 7 50 10 19 3 46 8 60 10 14 3
36 7 50 10 96 18 138 27 160 35 14 5 39 11 55 14 17 3 46 10 65 16 19 6 46 13
60 16 76 16 293 92 302 107 12 19 -17 58 -33 43z m-2594 -571 c125 -10 188
-17 267 -29 46 -8 55 -18 63 -71 0 -5 4 -17 8 -25 6 -15 83 -271 97 -325 5
-16 13 -44 18 -61 l10 -30 -433 0 c-239 1 -436 3 -439 6 -5 5 -10 273 -6 295
1 6 1 15 0 20 -2 10 -2 96 -1 167 2 63 10 65 188 62 87 -2 190 -6 228 -9z
m-716 -20 c6 -15 7 -467 2 -521 -1 -8 -122 -11 -438 -9 -241 2 -453 6 -471 9
-105 18 -150 109 -99 200 13 23 98 106 109 106 4 0 13 6 20 14 22 21 225 126
232 119 3 -4 6 -1 6 6 0 6 6 11 13 10 6 -1 29 5 50 15 64 28 179 51 312 62 44
4 81 7 82 8 1 1 41 1 89 1 78 0 87 -2 93 -20z m1196 -56 c91 -22 185 -85 185
-123 0 -8 4 -16 9 -18 9 -3 57 -83 105 -173 11 -22 23 -42 26 -45 8 -8 50 -91
50 -100 0 -4 -67 -7 -149 -6 l-149 0 -26 86 c-14 47 -40 128 -57 180 -56 172
-68 219 -56 215 7 -2 35 -9 62 -16z"/>
<path d="M6979 3168 c-15 -63 -14 -126 5 -188 13 -43 13 -38 13 98 0 78 -2
142 -3 142 -1 0 -8 -24 -15 -52z"/>
</g>
</svg>
