<svg width="222" height="99" viewBox="0 0 222 99" fill="none" xmlns="http://www.w3.org/2000/svg">
<g filter="url(#filter0_d)">
<path d="M5.63301 23.4396C5.38831 20.8 7.33173 18.4843 9.97375 18.2673L172.266 4.93931C173.452 4.8419 174.637 5.18819 175.59 5.91099L213.072 34.3316C215.267 35.9958 215.642 39.139 213.895 41.2315L182.399 78.9645C181.584 79.94 180.411 80.5472 179.138 80.6517L16.9915 93.9677C14.3494 94.1847 12.0093 92.2208 11.7646 89.5812L5.63301 23.4396Z" fill="white"/>
</g>
<path d="M11.454 25.2632C11.3361 23.9425 12.3125 22.7877 13.6344 22.6843L169.516 10.5026C170.101 10.4568 170.685 10.6269 171.157 10.9806L172.584 9.07062L171.157 10.9806L189.951 25.0595L206.086 37.1461C207.202 37.9824 207.387 39.5797 206.489 40.628L176.843 75.2304C176.434 75.7073 175.852 76.0023 175.223 76.0515L19.4845 88.2221C18.1636 88.3253 16.9976 87.3395 16.8798 86.0198L11.454 25.2632Z" fill="white" stroke="#9DDEFF" stroke-width="4.79991"/>
<defs>
<filter id="filter0_d" x="0.812392" y="0.123427" width="218.984" height="98.6608" filterUnits="userSpaceOnUse" color-interpolation-filters="sRGB">
<feFlood flood-opacity="0" result="BackgroundImageFix"/>
<feColorMatrix in="SourceAlpha" type="matrix" values="0 0 0 0 0 0 0 0 0 0 0 0 0 0 0 0 0 0 127 0"/>
<feOffset/>
<feGaussianBlur stdDeviation="2.39996"/>
<feColorMatrix type="matrix" values="0 0 0 0 0 0 0 0 0 0 0 0 0 0 0 0 0 0 0.25 0"/>
<feBlend mode="normal" in2="BackgroundImageFix" result="effect1_dropShadow"/>
<feBlend mode="normal" in="SourceGraphic" in2="effect1_dropShadow" result="shape"/>
</filter>
</defs>
</svg>
