<svg width="48" height="48" viewBox="0 0 48 48" fill="none" xmlns="http://www.w3.org/2000/svg">
<path d="M24 48C37.2548 48 48 37.2548 48 24C48 10.7452 37.2548 0 24 0C10.7452 0 0 10.7452 0 24C0 37.2548 10.7452 48 24 48Z" fill="#232222"/>
<path d="M13.7118 21.4291C13.7118 20.4824 12.9443 19.7148 11.9975 19.7148C11.0507 19.7148 10.2832 20.4824 10.2832 21.4291V26.572C10.2832 27.5188 11.0507 28.2863 11.9975 28.2863C12.9443 28.2863 13.7118 27.5188 13.7118 26.572V21.4291Z" fill="white"/>
<path d="M33.4269 22.2852H12.8555V25.7137H33.4269V22.2852Z" fill="white"/>
<path fill-rule="evenodd" clip-rule="evenodd" d="M37.5791 14.6016C34.8251 19.7241 29.709 22.2853 22.2308 22.2853C22.2147 22.7991 22.2147 23.942 22.2308 25.7139C30.6501 25.7139 35.7662 28.211 37.5791 33.205C37.5791 28.9449 37.5791 22.7438 37.5791 14.6016Z" fill="white"/>
<path d="M18.1406 25.7148V26.0049C18.1406 28.8453 20.4432 31.1478 23.2835 31.1478C26.1238 31.1478 28.4263 28.8453 28.4263 26.0049V25.7148" stroke="white" stroke-width="3"/>
<path d="M32 37.7129L16 10.0001" stroke="#232222" stroke-width="6"/>
<path d="M32 37.7129L16 10.0001" stroke="white" stroke-width="2" stroke-linecap="round"/>
</svg>
