<svg id="Calque_1" data-name="Calque 1" xmlns="http://www.w3.org/2000/svg" viewBox="0 0 127.32 127.32"><defs><style>.cls-1{fill:#2c2c2c;}</style></defs><path class="cls-1" d="M79.8,2.38a1.69,1.69,0,0,1,2.64.75L87,15.77a1.7,1.7,0,0,0,2,1.06l13-3.61a1.7,1.7,0,0,1,2.15,1.71l-.6,13.43a1.7,1.7,0,0,0,1.49,1.76l13.35,1.62a1.7,1.7,0,0,1,1.33,2.4L114,46.32a1.7,1.7,0,0,0,.7,2.2l11.71,6.6a1.7,1.7,0,0,1,.31,2.73l-9.92,9.07a1.69,1.69,0,0,0-.19,2.3l8.29,10.58a1.69,1.69,0,0,1-.76,2.64L111.54,87a1.7,1.7,0,0,0-1.05,2l3.61,13a1.7,1.7,0,0,1-1.71,2.15L99,103.57a1.69,1.69,0,0,0-1.76,1.49l-1.63,13.35a1.69,1.69,0,0,1-2.4,1.33L81,114a1.69,1.69,0,0,0-2.19.7l-6.61,11.71a1.69,1.69,0,0,1-2.72.31l-9.08-9.92a1.69,1.69,0,0,0-2.29-.19l-10.59,8.29a1.7,1.7,0,0,1-2.64-.76l-4.58-12.64a1.69,1.69,0,0,0-2-1.05l-13,3.61a1.7,1.7,0,0,1-2.15-1.71L23.75,99a1.69,1.69,0,0,0-1.49-1.76L8.91,95.57a1.69,1.69,0,0,1-1.33-2.4L13.28,81a1.69,1.69,0,0,0-.71-2.19L.86,72.19a1.69,1.69,0,0,1-.31-2.72l9.93-9.08a1.7,1.7,0,0,0,.19-2.29L2.38,47.51a1.69,1.69,0,0,1,.75-2.64l12.64-4.58a1.69,1.69,0,0,0,1.06-2l-3.61-13a1.7,1.7,0,0,1,1.71-2.15l13.43.61a1.7,1.7,0,0,0,1.76-1.49L31.74,8.91a1.69,1.69,0,0,1,2.4-1.33l12.18,5.7a1.71,1.71,0,0,0,2.2-.71L55.12.86A1.7,1.7,0,0,1,57.85.55l9.07,9.93a1.71,1.71,0,0,0,2.3.19Z"/></svg>