<svg width="112" height="142" viewBox="0 0 112 142" fill="none" xmlns="http://www.w3.org/2000/svg">
<path opacity="0.5" d="M19 31H93.1783V121.729H19V31Z" fill="white"/>
<path opacity="0.5" fill-rule="evenodd" clip-rule="evenodd" d="M19 33.5202V31H21.6492V32H20V33.5202H19ZM32.2461 31H26.9477V32H32.2461V31ZM37.5446 31V32H42.843V31H37.5446ZM48.1415 31V32H53.4399V31H48.1415ZM58.7384 31V32H64.0368V31H58.7384ZM69.3353 31V32H74.6337V31H69.3353ZM79.9321 31V32H85.2306V31H79.9321ZM90.529 31V32H92.1783V33.5203H93.1783V31H90.529ZM93.1783 38.5607H92.1783V43.6012H93.1783V38.5607ZM93.1783 48.6417H92.1783V53.6822H93.1783V48.6417ZM93.1783 58.7227H92.1783V63.7632H93.1783V58.7227ZM93.1783 68.8037H92.1783V73.8442H93.1783V68.8037ZM93.1783 78.8847H92.1783V83.9251H93.1783V78.8847ZM93.1783 88.9656H92.1783V94.0061H93.1783V88.9656ZM93.1783 99.0466H92.1783V104.087H93.1783V99.0466ZM93.1783 109.128H92.1783V114.168H93.1783V109.128ZM93.1783 119.209H92.1783V120.729H90.529V121.729H93.1783V119.209ZM85.2306 121.729V120.729H79.9321V121.729H85.2306ZM74.6337 121.729V120.729H69.3352V121.729H74.6337ZM64.0368 121.729V120.729H58.7383V121.729H64.0368ZM53.4399 121.729V120.729H48.1415V121.729H53.4399ZM42.843 121.729V120.729H37.5446V121.729H42.843ZM32.2461 121.729V120.729H26.9477V121.729H32.2461ZM21.6492 121.729V120.729H20V119.209H19V121.729H21.6492ZM19 114.168H20V109.128H19V114.168ZM19 104.087H20V99.0466H19V104.087ZM19 94.0061H20V88.9656H19V94.0061ZM19 83.9251H20V78.8847H19V83.9251ZM19 73.8442H20V68.8037H19V73.8442ZM19 63.7632H20V58.7227H19V63.7632ZM19 53.6822H20V48.6417H19V53.6822ZM19 43.6012H20V38.5607H19V43.6012Z" fill="black"/>
</svg>
