<svg width="31" height="32" viewBox="0 0 31 32" fill="none" xmlns="http://www.w3.org/2000/svg">
<path d="M14.9815 1.44346C15.1082 1.26863 15.3687 1.26863 15.4954 1.44346L17.4037 4.0768C17.501 4.21114 17.6854 4.24782 17.8268 4.16096L20.5975 2.45835C20.7815 2.3453 21.0222 2.445 21.0723 2.65502L21.8276 5.81817C21.8662 5.97954 22.0225 6.084 22.1863 6.05785L25.3977 5.54516C25.611 5.51112 25.7952 5.69534 25.7611 5.90856L25.2485 9.11997C25.2223 9.2838 25.3268 9.44013 25.4881 9.47866L28.6513 10.234C28.8613 10.2841 28.961 10.5248 28.848 10.7088L27.1453 13.4795C27.0585 13.6209 27.0952 13.8053 27.2295 13.9026L29.8628 15.8109C30.0377 15.9376 30.0377 16.1981 29.8628 16.3248L27.2295 18.2331C27.0952 18.3305 27.0585 18.5149 27.1453 18.6562L28.848 21.427C28.961 21.611 28.8613 21.8517 28.6513 21.9018L25.4881 22.6571C25.3268 22.6956 25.2223 22.852 25.2485 23.0158L25.7611 26.2272C25.7952 26.4404 25.611 26.6246 25.3977 26.5906L22.1863 26.0779C22.0225 26.0518 21.8662 26.1562 21.8276 26.3176L21.0723 29.4807C21.0222 29.6908 20.7815 29.7905 20.5975 29.6774L17.8268 27.9748C17.6854 27.8879 17.501 27.9246 17.4037 28.059L15.4954 30.6923C15.3687 30.8671 15.1082 30.8671 14.9815 30.6923L13.0732 28.059C12.9758 27.9246 12.7914 27.8879 12.6501 27.9748L9.87929 29.6774C9.69533 29.7905 9.45463 29.6908 9.40449 29.4807L8.6492 26.3176C8.61066 26.1562 8.45434 26.0518 8.2905 26.0779L5.07909 26.5906C4.86587 26.6246 4.68165 26.4404 4.71569 26.2272L5.22838 23.0158C5.25453 22.852 5.15008 22.6956 4.98871 22.6571L1.82555 21.9018C1.61553 21.8517 1.51583 21.611 1.62888 21.427L3.3315 18.6562C3.41836 18.5149 3.38168 18.3305 3.24733 18.2331L0.613996 16.3248C0.439157 16.1981 0.439158 15.9376 0.613996 15.8109L3.24734 13.9026C3.38168 13.8053 3.41836 13.6209 3.3315 13.4795L1.62888 10.7088C1.51583 10.5248 1.61553 10.2841 1.82555 10.234L4.98871 9.47866C5.15008 9.44013 5.25453 9.2838 5.22838 9.11997L4.71569 5.90856C4.68165 5.69534 4.86587 5.51112 5.07909 5.54516L8.2905 6.05785C8.45434 6.084 8.61066 5.97954 8.6492 5.81817L9.40449 2.65502C9.45463 2.445 9.69533 2.3453 9.87929 2.45835L12.6501 4.16096C12.7914 4.24782 12.9758 4.21114 13.0732 4.0768L14.9815 1.44346Z" fill="#2C2C2C"/>
<path d="M10.0844 17.6629C10.7124 18.124 11.7474 19.1431 12.383 19.5939C12.4457 19.6384 13.9762 20.9196 14.5773 20.732C14.7935 20.6645 14.8924 20.3945 14.9827 20.1868C15.1617 19.7753 15.2307 19.3239 15.3746 18.8988C15.5738 18.3104 15.7825 17.7248 16.0118 17.1475C16.8662 14.9956 17.8744 12.8876 19.0851 10.9121" stroke="#FAF5ED" stroke-width="2.26898" stroke-linecap="round" stroke-linejoin="round"/>
</svg>
