<svg width="226" height="267" viewBox="0 0 226 267" fill="none" xmlns="http://www.w3.org/2000/svg">
<g filter="url(#filter0_d)">
<path d="M213.664 254.035C213.664 254.035 213.664 253.791 213.664 254.035C214.623 252.573 215.583 251.598 216.782 251.354C217.981 250.867 219.42 250.623 220.859 250.623V240.631C216.542 240.631 212.945 238.194 212.945 235.27C212.945 232.345 216.542 229.908 220.859 229.908V219.917C216.542 219.917 212.945 217.48 212.945 214.555C212.945 211.631 216.542 209.194 220.859 209.194V199.202C216.542 199.202 212.945 196.765 212.945 193.841C212.945 190.916 216.542 188.479 220.859 188.479V178.487C216.542 178.487 212.945 176.05 212.945 173.126C212.945 170.202 216.542 167.765 220.859 167.765V157.773C216.542 157.773 212.945 155.336 212.945 152.411C212.945 149.487 216.542 147.05 220.859 147.05V137.058C216.542 137.058 212.945 134.621 212.945 131.697C212.945 128.773 216.542 126.336 220.859 126.336V116.344C216.542 116.344 212.945 113.907 212.945 110.982C212.945 108.058 216.542 105.621 220.859 105.621V95.6292C216.542 95.6292 212.945 93.1922 212.945 90.2678C212.945 87.3434 216.542 84.9064 220.859 84.9064V74.9146C216.542 74.9146 212.945 72.4776 212.945 69.5532C212.945 66.6288 216.542 64.1918 220.859 64.1918V54.2001C216.542 54.2001 212.945 51.7631 212.945 48.8386C212.945 45.9142 216.542 43.4772 220.859 43.4772V33.4855C216.542 33.4855 212.945 31.0485 212.945 28.1241C212.945 25.1997 216.542 22.7627 220.859 22.7627V10.5776C219.42 10.5776 217.981 10.3339 216.782 9.84651C215.583 9.60281 214.384 8.62801 213.664 7.4095C213.664 7.4095 213.664 7.4095 213.664 7.1658C212.945 5.7036 212.225 3.99769 212.225 2.04808H200.953C200.953 6.4347 198.555 10.0902 195.677 10.0902C192.8 10.0902 190.401 6.4347 190.401 2.04808H180.569C180.569 6.4347 178.17 10.0902 175.292 10.0902C172.415 10.0902 170.016 6.4347 170.016 2.04808H160.184C160.184 6.4347 157.785 10.0902 154.908 10.0902C152.03 10.0902 149.631 6.4347 149.631 2.04808H139.319C139.319 6.4347 136.921 10.0902 134.043 10.0902C131.165 10.0902 128.767 6.4347 128.767 2.04808H118.934C118.934 6.4347 116.536 10.0902 113.658 10.0902C110.78 10.0902 108.382 6.4347 108.382 2.04808H98.5492C98.5492 6.4347 96.151 10.0902 93.2731 10.0902C90.3953 10.0902 87.997 6.4347 87.997 2.04808H78.1643C78.1643 6.4347 75.7661 10.0902 72.8882 10.0902C70.0103 10.0902 66.6528 6.191 66.6528 1.80438H56.8201C56.8201 6.191 54.4219 9.84651 51.544 9.84651C48.6661 9.84651 46.2679 6.191 46.2679 1.80438H36.4352C36.4352 6.191 34.037 9.84651 31.1591 9.84651C28.0414 9.84651 25.6432 6.191 25.6432 1.80438H13.652C13.652 3.51029 13.1724 5.21619 12.6928 6.4347C12.2131 7.1658 11.9733 7.6532 11.4936 8.1406C10.7742 8.87171 10.0547 9.35911 9.09542 9.60281C7.8963 10.0902 6.45737 10.5776 5.01843 10.5776V20.5693C9.33524 20.5693 12.9326 23.0064 12.9326 25.9308C12.9326 28.8552 9.33524 31.2922 5.01843 31.2922V41.2839C9.33524 41.2839 12.9326 43.7209 12.9326 46.6453C12.9326 49.5697 9.33524 52.0068 5.01843 52.0068V61.9985C9.33524 61.9985 12.9326 64.4355 12.9326 67.3599C12.9326 70.2843 9.33524 73.2087 5.01843 73.2087V83.2005C9.33524 83.2005 12.9326 85.6375 12.9326 88.5619C12.9326 91.4863 9.33524 93.9233 5.01843 93.9233V104.159C9.33524 104.159 12.9326 106.596 12.9326 109.52C12.9326 112.445 9.33524 114.882 5.01843 114.882V124.873C9.33524 124.873 12.9326 127.31 12.9326 130.235C12.9326 133.159 9.33524 135.596 5.01843 135.596V145.588C9.33524 145.588 12.9326 148.025 12.9326 150.949C12.9326 153.874 9.33524 156.311 5.01843 156.311V166.302C9.33524 166.302 12.9326 168.739 12.9326 171.664C12.9326 174.588 9.33524 177.025 5.01843 177.025V187.017C9.33524 187.017 12.9326 189.454 12.9326 192.378C12.9326 195.303 9.33524 197.74 5.01843 197.74V207.732C9.33524 207.732 12.9326 210.169 12.9326 213.093C12.9326 216.017 9.33524 218.454 5.01843 218.454V228.446C9.33524 228.446 12.9326 230.883 12.9326 233.808C12.9326 238.194 9.33524 240.631 5.01843 240.631V250.623C6.45737 250.623 7.8963 250.867 9.09542 251.354C10.0547 251.598 10.7742 252.085 11.4936 252.816C11.9733 253.304 12.4529 253.791 12.6928 254.522C13.4122 255.741 13.652 257.447 13.652 259.152H25.6432C25.6432 254.766 28.0414 251.11 30.9193 251.11C33.7971 251.11 36.1954 254.766 36.1954 259.152H46.0281C46.0281 254.766 48.4263 251.11 51.3042 251.11C54.1821 251.11 56.5803 254.766 56.5803 259.152H66.413C66.413 254.766 68.8112 251.11 71.6891 251.11C74.567 251.11 76.9652 254.766 76.9652 259.152H86.7979C86.7979 254.766 89.1962 251.11 92.074 251.11C94.9519 251.11 97.3501 254.766 97.3501 259.152H107.183C107.183 254.766 109.581 251.11 112.459 251.11C115.337 251.11 117.735 254.766 117.735 259.152H127.568C127.568 254.766 129.966 251.11 132.844 251.11C135.722 251.11 138.12 254.766 138.12 259.152H147.953C147.953 254.766 150.351 251.11 153.229 251.11C156.107 251.11 158.505 254.766 158.505 259.152H168.338C168.338 254.766 170.736 251.11 173.614 251.11C176.492 251.11 178.89 254.766 178.89 259.152H188.723C188.723 254.766 191.121 251.11 193.999 251.11C196.877 251.11 199.275 254.766 199.275 259.152H210.546C212.225 257.203 212.945 255.497 213.664 254.035Z" fill="#FAF5ED"/>
</g>
<defs>
<filter id="filter0_d" x="0.867658" y="0.974227" width="224.142" height="265.65" filterUnits="userSpaceOnUse" color-interpolation-filters="sRGB">
<feFlood flood-opacity="0" result="BackgroundImageFix"/>
<feColorMatrix in="SourceAlpha" type="matrix" values="0 0 0 0 0 0 0 0 0 0 0 0 0 0 0 0 0 0 127 0"/>
<feOffset dy="3.32062"/>
<feGaussianBlur stdDeviation="2.07539"/>
<feColorMatrix type="matrix" values="0 0 0 0 0 0 0 0 0 0 0 0 0 0 0 0 0 0 0.1 0"/>
<feBlend mode="normal" in2="BackgroundImageFix" result="effect1_dropShadow"/>
<feBlend mode="normal" in="SourceGraphic" in2="effect1_dropShadow" result="shape"/>
</filter>
</defs>
</svg>
