<svg width="88" height="64" viewBox="0 0 88 64" fill="none" xmlns="http://www.w3.org/2000/svg">
<path fill-rule="evenodd" clip-rule="evenodd" d="M57.7678 18.2322C58.7441 19.2085 58.7441 20.7915 57.7678 21.7678L33.7678 45.7678C32.7915 46.7441 31.2085 46.7441 30.2322 45.7678C29.2559 44.7915 29.2559 43.2085 30.2322 42.2322L54.2322 18.2322C55.2085 17.2559 56.7915 17.2559 57.7678 18.2322Z" fill="#FF7360"/>
<path fill-rule="evenodd" clip-rule="evenodd" d="M30.2322 18.2322C29.2559 19.2085 29.2559 20.7915 30.2322 21.7678L54.2322 45.7678C55.2085 46.7441 56.7915 46.7441 57.7678 45.7678C58.7441 44.7915 58.7441 43.2085 57.7678 42.2322L33.7678 18.2322C32.7915 17.2559 31.2085 17.2559 30.2322 18.2322Z" fill="#FF7360"/>
</svg>
