<svg width="88" height="64" viewBox="0 0 88 64" fill="none" xmlns="http://www.w3.org/2000/svg">
<path fill-rule="evenodd" clip-rule="evenodd" d="M22.3561 22.2385L19.7626 11L30.7883 16.0117C34.66 14.2273 39.1766 13.2033 44 13.2033C58.3594 13.2033 70 22.279 70 33.4744C70 44.6699 58.3594 53.7456 44 53.7456C29.6406 53.7456 18 44.6699 18 33.4744C18 29.3184 19.6042 25.4545 22.3561 22.2385Z" fill="white"/>
<path d="M25.2363 41.2894C25.1707 40.3284 25.1216 39.4002 25.0888 38.5047C25.067 37.6092 25.0506 36.6427 25.0397 35.6052C25.0288 34.5677 25.0179 33.4047 25.0069 32.1161C24.996 30.8274 24.9742 29.3149 24.9414 27.5785C25.0834 27.5785 25.2144 27.573 25.3346 27.5621C25.4656 27.5403 25.5748 27.5348 25.6622 27.5457C25.7605 27.5567 25.8369 27.5949 25.8915 27.6604C25.9461 27.715 25.9734 27.8242 25.9734 27.988C25.9734 28.4358 25.9734 28.8726 25.9734 29.2985C25.9843 29.7135 25.9898 30.1722 25.9898 30.6745C25.9898 31.1769 25.9898 31.7502 25.9898 32.3945C26.0007 33.0389 26.0062 33.8033 26.0062 34.6879C26.4321 34.1309 26.8198 33.6886 27.1692 33.361C27.5296 33.0225 27.8682 32.7713 28.1849 32.6075C28.5016 32.4328 28.8073 32.329 29.1022 32.2962C29.408 32.2526 29.7138 32.2471 30.0195 32.2799C30.369 32.2799 30.6584 32.3563 30.8877 32.5092C31.1171 32.6512 31.2973 32.8477 31.4283 33.0989C31.5703 33.3392 31.6686 33.6176 31.7232 33.9343C31.7778 34.251 31.8051 34.5787 31.8051 34.9172C31.7941 35.1575 31.7778 35.4196 31.7559 35.7035C31.7341 35.9765 31.6686 36.2768 31.5593 36.6045C31.4611 36.9212 31.3027 37.2542 31.0843 37.6037C30.8659 37.9532 30.5546 38.3245 30.1506 38.7176C29.7574 39.0998 29.2551 39.4984 28.6435 39.9134C28.0429 40.3284 27.3057 40.7543 26.4321 41.1912C26.1481 41.2676 25.9243 41.3167 25.7605 41.3386C25.6076 41.3604 25.4874 41.3659 25.4001 41.355C25.3236 41.355 25.2745 41.344 25.2526 41.3222C25.2417 41.3113 25.2363 41.3004 25.2363 41.2894ZM26.0553 40.2411C26.1099 40.1974 26.2628 40.1155 26.514 39.9953C26.7652 39.8752 27.0655 39.7169 27.4149 39.5203C27.7644 39.3237 28.1357 39.0835 28.5289 38.7995C28.922 38.5156 29.2878 38.188 29.6264 37.8167C29.9758 37.4344 30.2707 37.0031 30.511 36.5226C30.7512 36.042 30.8932 35.5069 30.9369 34.9172C30.9369 34.7534 30.9096 34.5732 30.855 34.3766C30.8113 34.1801 30.7348 33.9999 30.6256 33.8361C30.5273 33.6613 30.3963 33.5194 30.2325 33.4102C30.0796 33.29 29.8939 33.23 29.6755 33.23C29.2278 33.23 28.8183 33.3446 28.447 33.574C28.0866 33.7924 27.7589 34.0709 27.4641 34.4094C27.1692 34.7479 26.9071 35.1192 26.6778 35.5233C26.4594 35.9165 26.2737 36.2878 26.1208 36.6372L26.0553 40.2411Z" fill="#2C2C2C"/>
<path d="M33.6594 27.6604C33.7249 27.6167 33.7904 27.573 33.856 27.5294C33.9324 27.4748 34.0089 27.442 34.0853 27.4311C34.1618 27.4092 34.2273 27.4147 34.2819 27.4475C34.3474 27.4802 34.402 27.5512 34.4457 27.6604L34.544 41.1748C34.4894 41.284 34.4184 41.355 34.331 41.3877C34.2437 41.4314 34.1563 41.4423 34.0689 41.4205C33.9816 41.4096 33.8997 41.3768 33.8232 41.3222C33.7577 41.2676 33.714 41.2021 33.6922 41.1256L33.6594 27.6604Z" fill="#2C2C2C"/>
<path d="M41.9842 41.1584C41.8314 40.9291 41.7331 40.6287 41.6894 40.2574C41.6566 39.8861 41.6348 39.4984 41.6239 39.0944C41.6239 38.6794 41.6239 38.2753 41.6239 37.8822C41.6348 37.4781 41.6075 37.1341 41.542 36.8502C41.0287 37.975 40.5427 38.8541 40.084 39.4875C39.6363 40.11 39.2213 40.5578 38.8391 40.8308C38.4678 41.0929 38.1292 41.213 37.8235 41.1912C37.5177 41.1584 37.2556 41.0492 37.0372 40.8635C36.8297 40.667 36.6659 40.4322 36.5457 40.1591C36.4256 39.8752 36.3601 39.6077 36.3492 39.3565C36.2727 38.9415 36.2673 38.4446 36.3328 37.8658C36.4092 37.2761 36.5348 36.67 36.7096 36.0475C36.8952 35.425 37.1245 34.8189 37.3976 34.2292C37.6815 33.6286 37.9982 33.1098 38.3477 32.673C38.708 32.2362 39.0903 31.914 39.4943 31.7065C39.8984 31.4881 40.3188 31.4499 40.7557 31.5919C40.9741 31.57 41.1543 31.5809 41.2962 31.6246C41.4491 31.6574 41.5747 31.7338 41.673 31.854C41.7713 31.9741 41.8423 32.1434 41.886 32.3618C41.9296 32.5693 41.9624 32.8368 41.9842 33.1644C41.9624 34.2237 41.9897 35.1247 42.0662 35.8673C42.1535 36.6099 42.2518 37.2652 42.361 37.833C42.4702 38.4009 42.574 38.9142 42.6723 39.3729C42.7815 39.8315 42.847 40.3066 42.8688 40.798C42.8688 40.9727 42.8251 41.1092 42.7378 41.2075C42.6504 41.2949 42.5521 41.3495 42.4429 41.3713C42.3337 41.4041 42.23 41.3986 42.1317 41.355C42.0443 41.3113 41.9952 41.2458 41.9842 41.1584ZM41.0341 32.886C40.7721 32.5365 40.4881 32.3891 40.1823 32.4437C39.8766 32.4983 39.5708 32.6894 39.265 33.017C38.9701 33.3337 38.6862 33.7542 38.4132 34.2784C38.1402 34.7916 37.9054 35.3431 37.7088 35.9328C37.5122 36.5226 37.3648 37.1123 37.2665 37.702C37.1791 38.2808 37.1628 38.7941 37.2174 39.2418C37.3703 39.7332 37.5559 40.0281 37.7743 40.1264C37.9927 40.2247 38.2275 40.1919 38.4787 40.0281C38.7299 39.8534 38.9865 39.5804 39.2486 39.209C39.5107 38.8377 39.7619 38.4391 40.0021 38.0132C40.2424 37.5764 40.4553 37.145 40.641 36.7191C40.8376 36.2823 40.9959 35.9165 41.1161 35.6216L41.0341 32.886Z" fill="#2C2C2C"/>
<path d="M44.7723 41.2894C44.7068 40.3284 44.6576 39.4002 44.6249 38.5047C44.603 37.6092 44.5867 36.6427 44.5757 35.6052C44.5648 34.5677 44.5539 33.4047 44.543 32.1161C44.532 30.8274 44.5102 29.3149 44.4774 27.5785C44.6194 27.5785 44.7505 27.573 44.8706 27.5621C45.0016 27.5403 45.1108 27.5348 45.1982 27.5457C45.2965 27.5567 45.3729 27.5949 45.4275 27.6604C45.4821 27.715 45.5095 27.8242 45.5095 27.988C45.5095 28.4358 45.5095 28.8726 45.5095 29.2985C45.5204 29.7135 45.5258 30.1722 45.5258 30.6745C45.5258 31.1769 45.5258 31.7502 45.5258 32.3945C45.5368 33.0389 45.5422 33.8033 45.5422 34.6879C45.9681 34.1309 46.3558 33.6886 46.7053 33.361C47.0656 33.0225 47.4042 32.7713 47.7209 32.6075C48.0376 32.4328 48.3434 32.329 48.6382 32.2962C48.944 32.2526 49.2498 32.2471 49.5556 32.2799C49.905 32.2799 50.1944 32.3563 50.4238 32.5092C50.6531 32.6512 50.8333 32.8477 50.9643 33.0989C51.1063 33.3392 51.2046 33.6176 51.2592 33.9343C51.3138 34.251 51.3411 34.5787 51.3411 34.9172C51.3302 35.1575 51.3138 35.4196 51.292 35.7035C51.2701 35.9765 51.2046 36.2768 51.0954 36.6045C50.9971 36.9212 50.8388 37.2542 50.6203 37.6037C50.4019 37.9532 50.0907 38.3245 49.6866 38.7176C49.2935 39.0998 48.7911 39.4984 48.1796 39.9134C47.5789 40.3284 46.8418 40.7543 45.9681 41.1912C45.6842 41.2676 45.4603 41.3167 45.2965 41.3386C45.1436 41.3604 45.0235 41.3659 44.9361 41.355C44.8597 41.355 44.8105 41.344 44.7887 41.3222C44.7778 41.3113 44.7723 41.3004 44.7723 41.2894ZM45.5914 40.2411C45.646 40.1974 45.7988 40.1155 46.05 39.9953C46.3012 39.8752 46.6015 39.7169 46.951 39.5203C47.3004 39.3237 47.6717 39.0835 48.0649 38.7995C48.458 38.5156 48.8239 38.188 49.1624 37.8167C49.5119 37.4344 49.8067 37.0031 50.047 36.5226C50.2873 36.042 50.4292 35.5069 50.4729 34.9172C50.4729 34.7534 50.4456 34.5732 50.391 34.3766C50.3473 34.1801 50.2709 33.9999 50.1617 33.8361C50.0634 33.6613 49.9323 33.5194 49.7685 33.4102C49.6156 33.29 49.43 33.23 49.2116 33.23C48.7638 33.23 48.3543 33.3446 47.983 33.574C47.6226 33.7924 47.295 34.0709 47.0001 34.4094C46.7053 34.7479 46.4432 35.1192 46.2138 35.5233C45.9954 35.9165 45.8098 36.2878 45.6569 36.6372L45.5914 40.2411Z" fill="#2C2C2C"/>
<path d="M53.1954 27.6604C53.261 27.6167 53.3265 27.573 53.392 27.5294C53.4685 27.4748 53.5449 27.442 53.6213 27.4311C53.6978 27.4092 53.7633 27.4147 53.8179 27.4475C53.8834 27.4802 53.938 27.5512 53.9817 27.6604L54.08 41.1748C54.0254 41.284 53.9544 41.355 53.8671 41.3877C53.7797 41.4314 53.6923 41.4423 53.605 41.4205C53.5176 41.4096 53.4357 41.3768 53.3592 41.3222C53.2937 41.2676 53.25 41.2021 53.2282 41.1256L53.1954 27.6604Z" fill="#2C2C2C"/>
<path d="M61.5203 41.1584C61.3674 40.9291 61.2691 40.6287 61.2254 40.2574C61.1927 39.8861 61.1708 39.4984 61.1599 39.0944C61.1599 38.6794 61.1599 38.2753 61.1599 37.8822C61.1708 37.4781 61.1435 37.1341 61.078 36.8502C60.5647 37.975 60.0788 38.8541 59.6201 39.4875C59.1723 40.11 58.7574 40.5578 58.3751 40.8308C58.0038 41.0929 57.6653 41.213 57.3595 41.1912C57.0537 41.1584 56.7916 41.0492 56.5732 40.8635C56.3657 40.667 56.2019 40.4322 56.0818 40.1591C55.9617 39.8752 55.8961 39.6077 55.8852 39.3565C55.8088 38.9415 55.8033 38.4446 55.8688 37.8658C55.9453 37.2761 56.0709 36.67 56.2456 36.0475C56.4312 35.425 56.6606 34.8189 56.9336 34.2292C57.2175 33.6286 57.5342 33.1098 57.8837 32.673C58.2441 32.2362 58.6263 31.914 59.0304 31.7065C59.4344 31.4881 59.8549 31.4499 60.2917 31.5919C60.5101 31.57 60.6903 31.5809 60.8323 31.6246C60.9852 31.6574 61.1108 31.7338 61.209 31.854C61.3073 31.9741 61.3783 32.1434 61.422 32.3618C61.4657 32.5693 61.4984 32.8368 61.5203 33.1644C61.4984 34.2237 61.5257 35.1247 61.6022 35.8673C61.6896 36.6099 61.7878 37.2652 61.8971 37.833C62.0063 38.4009 62.11 38.9142 62.2083 39.3729C62.3175 39.8315 62.383 40.3066 62.4049 40.798C62.4049 40.9727 62.3612 41.1092 62.2738 41.2075C62.1864 41.2949 62.0882 41.3495 61.979 41.3713C61.8698 41.4041 61.766 41.3986 61.6677 41.355C61.5804 41.3113 61.5312 41.2458 61.5203 41.1584ZM60.5702 32.886C60.3081 32.5365 60.0242 32.3891 59.7184 32.4437C59.4126 32.4983 59.1068 32.6894 58.801 33.017C58.5062 33.3337 58.2222 33.7542 57.9492 34.2784C57.6762 34.7916 57.4414 35.3431 57.2448 35.9328C57.0483 36.5226 56.9008 37.1123 56.8025 37.702C56.7152 38.2808 56.6988 38.7941 56.7534 39.2418C56.9063 39.7332 57.0919 40.0281 57.3104 40.1264C57.5288 40.2247 57.7636 40.1919 58.0147 40.0281C58.2659 39.8534 58.5226 39.5804 58.7847 39.209C59.0467 38.8377 59.2979 38.4391 59.5382 38.0132C59.7784 37.5764 59.9914 37.145 60.177 36.7191C60.3736 36.2823 60.532 35.9165 60.6521 35.6216L60.5702 32.886Z" fill="#2C2C2C"/>
</svg>
