<svg width="88" height="64" viewBox="0 0 88 64" fill="none" xmlns="http://www.w3.org/2000/svg">
<path fill-rule="evenodd" clip-rule="evenodd" d="M73.875 43C73.875 44.0355 73.0355 44.875 72 44.875L16 44.875C14.9645 44.875 14.125 44.0355 14.125 43L14.125 29.75C14.125 28.7145 14.9645 27.875 16 27.875C17.0355 27.875 17.875 28.7145 17.875 29.75L17.875 41.125L70.125 41.125L70.125 22.875L42.9818 22.875C41.9463 22.875 41.1068 22.0355 41.1068 21C41.1068 19.9645 41.9463 19.125 42.9818 19.125L72 19.125C72.4973 19.125 72.9742 19.3225 73.3258 19.6742C73.6775 20.0258 73.875 20.5027 73.875 21L73.875 43Z" fill="#F9CC4E"/>
</svg>
