<svg width="88" height="64" viewBox="0 0 88 64" fill="none" xmlns="http://www.w3.org/2000/svg">
<rect opacity="0.5" y="23.0713" width="53.0361" height="16.5001" rx="8.25005" fill="white"/>
<path d="M6.6397 32.6213C6.8271 32.6213 6.95969 32.5895 7.03747 32.5259C7.1188 32.4587 7.15946 32.3791 7.15946 32.2872C7.15946 32.2023 7.12764 32.1352 7.06399 32.0857C7.00388 32.0326 6.91196 31.9867 6.7882 31.9478L6.51772 31.8629C6.36922 31.8169 6.23486 31.7674 6.11465 31.7144C5.99443 31.6578 5.8919 31.5924 5.80704 31.5182C5.72218 31.4404 5.655 31.3502 5.6055 31.2477C5.55954 31.1416 5.53655 31.0143 5.53655 30.8658C5.53655 30.5688 5.64793 30.3337 5.87068 30.1604C6.09697 29.9872 6.40988 29.9006 6.80942 29.9006C6.96146 29.9006 7.10112 29.9112 7.2284 29.9324C7.35923 29.9536 7.4706 29.9872 7.56253 30.0332C7.65446 30.0756 7.72694 30.1286 7.77998 30.1923C7.83302 30.2559 7.85953 30.3302 7.85953 30.415C7.85953 30.4963 7.83832 30.5688 7.79589 30.6325C7.757 30.6926 7.71103 30.7438 7.658 30.7863C7.57667 30.7297 7.46883 30.682 7.33448 30.6431C7.20012 30.6042 7.05339 30.5847 6.89428 30.5847C6.72456 30.5847 6.59904 30.6112 6.51772 30.6643C6.4364 30.7173 6.39574 30.7845 6.39574 30.8658C6.39574 30.9365 6.42226 30.9913 6.47529 31.0302C6.52833 31.0656 6.61142 31.1027 6.72456 31.1416L7.01096 31.2371C7.17714 31.2936 7.3221 31.3555 7.44585 31.4227C7.57314 31.4863 7.67921 31.5606 7.76407 31.6455C7.84893 31.7268 7.91257 31.8222 7.955 31.9318C7.99743 32.0379 8.01864 32.1599 8.01864 32.2978C8.01864 32.4463 7.98859 32.5824 7.92848 32.7062C7.87191 32.8264 7.78528 32.9307 7.6686 33.0191C7.55546 33.1075 7.41403 33.1764 7.24431 33.2259C7.07814 33.2754 6.88544 33.3002 6.66622 33.3002C6.50358 33.3002 6.35331 33.286 6.21542 33.2577C6.07752 33.233 5.95731 33.1959 5.85477 33.1464C5.75577 33.0969 5.67622 33.0368 5.61611 32.966C5.55954 32.8918 5.53125 32.8087 5.53125 32.7168C5.53125 32.6213 5.55777 32.5418 5.6108 32.4781C5.66738 32.4145 5.72925 32.3632 5.79643 32.3243C5.8919 32.4021 6.01034 32.471 6.15177 32.5312C6.29674 32.5913 6.45938 32.6213 6.6397 32.6213Z" fill="#2C2C2C"/>
<path d="M9.60794 32.6956C9.68573 32.6956 9.76175 32.6885 9.836 32.6744C9.91378 32.6567 9.97212 32.6355 10.011 32.6107V32.1228L9.57612 32.1599C9.46298 32.1705 9.37105 32.197 9.30033 32.2395C9.23315 32.2783 9.19956 32.3385 9.19956 32.4198C9.19956 32.5046 9.23139 32.5718 9.29503 32.6213C9.35867 32.6708 9.46298 32.6956 9.60794 32.6956ZM9.57612 30.5794C9.75998 30.5794 9.92616 30.5989 10.0747 30.6378C10.2267 30.6731 10.3557 30.7297 10.4618 30.8075C10.5679 30.8853 10.6492 30.9843 10.7058 31.1045C10.7659 31.2247 10.7959 31.3661 10.7959 31.5288V32.7274C10.7959 32.8193 10.7712 32.8936 10.7217 32.9501C10.6757 33.0032 10.6192 33.0491 10.552 33.088C10.4424 33.1552 10.308 33.2065 10.1489 33.2418C9.9898 33.2772 9.80948 33.2949 9.60794 33.2949C9.24376 33.2949 8.95383 33.2259 8.73815 33.088C8.52247 32.9466 8.41463 32.7327 8.41463 32.4463C8.41463 32.2023 8.48711 32.0167 8.63208 31.8894C8.77704 31.7621 8.99979 31.6826 9.30033 31.6508L10.0057 31.5765V31.5182C10.0057 31.405 9.95975 31.3219 9.86782 31.2689C9.77589 31.2159 9.6433 31.1893 9.47005 31.1893C9.33569 31.1893 9.2031 31.2053 9.07228 31.2371C8.94499 31.2689 8.83008 31.306 8.72754 31.3484C8.68511 31.3202 8.64799 31.2777 8.61617 31.2212C8.58788 31.1611 8.57374 31.0974 8.57374 31.0302C8.57374 30.8747 8.65506 30.7633 8.8177 30.6961C8.92024 30.6572 9.03869 30.6289 9.17305 30.6112C9.31094 30.59 9.4453 30.5794 9.57612 30.5794Z" fill="#2C2C2C"/>
<path d="M12.2181 33.2047C12.1828 33.2153 12.1333 33.2242 12.0696 33.2312C12.006 33.2418 11.9353 33.2471 11.8575 33.2471C11.6984 33.2471 11.5835 33.2224 11.5128 33.1729C11.4456 33.1199 11.412 33.0191 11.412 32.8706V30.6908C11.4474 30.6802 11.4969 30.6696 11.5605 30.659C11.6241 30.6484 11.6949 30.6431 11.7726 30.6431C11.9317 30.6431 12.0449 30.6696 12.1121 30.7226C12.1828 30.7757 12.2181 30.8764 12.2181 31.0249V33.2047ZM11.3643 29.9271C11.3643 29.8069 11.4049 29.7043 11.4862 29.6195C11.5711 29.5346 11.6807 29.4922 11.8151 29.4922C11.9494 29.4922 12.0573 29.5346 12.1386 29.6195C12.2234 29.7043 12.2659 29.8069 12.2659 29.9271C12.2659 30.0508 12.2234 30.1551 12.1386 30.24C12.0573 30.3249 11.9494 30.3673 11.8151 30.3673C11.6807 30.3673 11.5711 30.3249 11.4862 30.24C11.4049 30.1551 11.3643 30.0508 11.3643 29.9271Z" fill="#2C2C2C"/>
<path d="M14.9305 32.4622C14.9305 32.7239 14.8332 32.9289 14.6388 33.0774C14.4443 33.2224 14.1579 33.2949 13.7796 33.2949C13.6311 33.2949 13.495 33.2843 13.3712 33.2631C13.251 33.2418 13.1467 33.21 13.0583 33.1676C12.9699 33.1252 12.901 33.0721 12.8515 33.0085C12.802 32.9448 12.7772 32.8706 12.7772 32.7857C12.7772 32.7079 12.7931 32.6425 12.825 32.5895C12.8568 32.5329 12.8974 32.487 12.9469 32.4516C13.0495 32.5117 13.1662 32.5647 13.297 32.6107C13.4278 32.6567 13.5798 32.6797 13.7531 32.6797C14.0041 32.6797 14.1296 32.6089 14.1296 32.4675C14.1296 32.4074 14.1067 32.3614 14.0607 32.3296C14.0183 32.2978 13.944 32.2695 13.8379 32.2448L13.6258 32.197C13.3359 32.1369 13.1202 32.045 12.9788 31.9212C12.8373 31.794 12.7666 31.6172 12.7666 31.3909C12.7666 31.1398 12.8674 30.9418 13.0689 30.7969C13.274 30.6484 13.548 30.5741 13.891 30.5741C14.0183 30.5741 14.1385 30.5847 14.2516 30.6059C14.3648 30.6236 14.462 30.6519 14.5433 30.6908C14.6246 30.7297 14.6883 30.7792 14.7343 30.8393C14.7838 30.8959 14.8085 30.9631 14.8085 31.0408C14.8085 31.1116 14.7944 31.1752 14.7661 31.2318C14.7378 31.2848 14.7007 31.329 14.6547 31.3644C14.6264 31.3467 14.584 31.3272 14.5274 31.306C14.4744 31.2848 14.416 31.2654 14.3524 31.2477C14.2887 31.23 14.2216 31.2159 14.1509 31.2053C14.0801 31.1946 14.0147 31.1893 13.9546 31.1893C13.8309 31.1893 13.7336 31.207 13.6629 31.2424C13.5957 31.2742 13.5622 31.3237 13.5622 31.3909C13.5622 31.4404 13.5816 31.4793 13.6205 31.5076C13.6594 31.5358 13.7301 31.5624 13.8326 31.5871L14.0342 31.6348C14.3559 31.7056 14.5857 31.8081 14.7236 31.9425C14.8615 32.0768 14.9305 32.2501 14.9305 32.4622Z" fill="#2C2C2C"/>
<path d="M16.2373 33.2047C16.2019 33.2153 16.1524 33.2242 16.0888 33.2312C16.0251 33.2418 15.9544 33.2471 15.8766 33.2471C15.7175 33.2471 15.6026 33.2224 15.5319 33.1729C15.4647 33.1199 15.4311 33.0191 15.4311 32.8706V30.6908C15.4665 30.6802 15.516 30.6696 15.5796 30.659C15.6433 30.6484 15.714 30.6431 15.7918 30.6431C15.9509 30.6431 16.064 30.6696 16.1312 30.7226C16.2019 30.7757 16.2373 30.8764 16.2373 31.0249V33.2047ZM15.3834 29.9271C15.3834 29.8069 15.4241 29.7043 15.5054 29.6195C15.5902 29.5346 15.6999 29.4922 15.8342 29.4922C15.9686 29.4922 16.0764 29.5346 16.1577 29.6195C16.2426 29.7043 16.285 29.8069 16.285 29.9271C16.285 30.0508 16.2426 30.1551 16.1577 30.24C16.0764 30.3249 15.9686 30.3673 15.8342 30.3673C15.6999 30.3673 15.5902 30.3249 15.5054 30.24C15.4241 30.1551 15.3834 30.0508 15.3834 29.9271Z" fill="#2C2C2C"/>
<path d="M18.3991 33.2471C18.24 33.2471 18.1251 33.2224 18.0543 33.1729C17.9872 33.1199 17.9536 33.0191 17.9536 32.8706V29.7574C17.9889 29.7468 18.0384 29.7362 18.1021 29.7255C18.1693 29.7149 18.2417 29.7096 18.3195 29.7096C18.4751 29.7096 18.5882 29.7362 18.659 29.7892C18.7297 29.8422 18.765 29.943 18.765 30.0915V33.2047C18.7261 33.2153 18.6749 33.2242 18.6112 33.2312C18.5476 33.2418 18.4769 33.2471 18.3991 33.2471Z" fill="#2C2C2C"/>
<path d="M20.0821 32.2713C20.1316 32.4198 20.2183 32.5259 20.342 32.5895C20.4658 32.6496 20.609 32.6797 20.7716 32.6797C20.9201 32.6797 21.0598 32.6602 21.1906 32.6213C21.3214 32.5789 21.4275 32.5329 21.5088 32.4834C21.5619 32.5188 21.6061 32.5647 21.6414 32.6213C21.6768 32.6779 21.6944 32.7398 21.6944 32.8069C21.6944 32.8883 21.6697 32.959 21.6202 33.0191C21.5707 33.0792 21.5017 33.1305 21.4134 33.1729C21.3285 33.2118 21.226 33.2401 21.1057 33.2577C20.9891 33.279 20.86 33.2896 20.7186 33.2896C20.51 33.2896 20.3173 33.2613 20.1405 33.2047C19.9637 33.1446 19.8117 33.058 19.6844 32.9448C19.5571 32.8282 19.4563 32.6832 19.3821 32.5099C19.3114 32.3367 19.276 32.1334 19.276 31.9C19.276 31.6737 19.3114 31.4775 19.3821 31.3113C19.4563 31.1451 19.5536 31.0073 19.6738 30.8976C19.7975 30.788 19.9372 30.7085 20.0928 30.659C20.2519 30.6059 20.4145 30.5794 20.5807 30.5794C20.761 30.5794 20.9254 30.6077 21.0739 30.6643C21.226 30.7173 21.355 30.7933 21.4611 30.8923C21.5707 30.9913 21.6556 31.1098 21.7157 31.2477C21.7758 31.3856 21.8058 31.5358 21.8058 31.6985C21.8058 31.8116 21.7758 31.8965 21.7157 31.9531C21.6556 32.0096 21.5707 32.0468 21.4611 32.0644L20.0821 32.2713ZM20.586 31.1787C20.434 31.1787 20.3067 31.2265 20.2041 31.3219C20.1051 31.4139 20.0468 31.5482 20.0291 31.725L21.0421 31.5606C21.035 31.4687 20.9944 31.382 20.9201 31.3007C20.8459 31.2194 20.7345 31.1787 20.586 31.1787Z" fill="#2C2C2C"/>
<path d="M24.9835 31.5818C24.9835 31.4581 24.9464 31.3661 24.8722 31.306C24.7979 31.2459 24.6989 31.2159 24.5752 31.2159C24.4903 31.2159 24.4125 31.2265 24.3418 31.2477C24.2711 31.2689 24.2057 31.2954 24.1456 31.3272V33.2047C24.1102 33.2153 24.0607 33.2242 23.9971 33.2312C23.9334 33.2418 23.8627 33.2471 23.7849 33.2471C23.6258 33.2471 23.5109 33.2224 23.4402 33.1729C23.3695 33.1199 23.3341 33.0191 23.3341 32.8706V31.2318C23.3341 31.1398 23.3536 31.0656 23.3925 31.009C23.4314 30.9524 23.4862 30.8994 23.5569 30.8499C23.67 30.7686 23.815 30.7032 23.9918 30.6537C24.1721 30.6042 24.3701 30.5794 24.5858 30.5794C24.9712 30.5794 25.2682 30.6643 25.4768 30.834C25.6889 31.0037 25.795 31.2459 25.795 31.5606V33.2047C25.7561 33.2153 25.7048 33.2242 25.6412 33.2312C25.5776 33.2418 25.5068 33.2471 25.4291 33.2471C25.2699 33.2471 25.155 33.2224 25.0843 33.1729C25.0171 33.1199 24.9835 33.0191 24.9835 32.8706V31.5818Z" fill="#2C2C2C"/>
<path d="M28.9886 31.9318C28.9886 32.1405 28.9567 32.3296 28.8931 32.4993C28.8295 32.6655 28.7375 32.8069 28.6173 32.9236C28.5006 33.0403 28.3592 33.1305 28.193 33.1941C28.0268 33.2577 27.8412 33.2896 27.6361 33.2896C27.4311 33.2896 27.2437 33.2595 27.074 33.1994C26.9078 33.1358 26.7646 33.0456 26.6444 32.9289C26.5277 32.8122 26.4375 32.6708 26.3739 32.5046C26.3102 32.3349 26.2784 32.144 26.2784 31.9318C26.2784 31.7268 26.3102 31.5411 26.3739 31.375C26.4411 31.2053 26.533 31.0621 26.6497 30.9454C26.7699 30.8287 26.9131 30.7385 27.0793 30.6749C27.249 30.6112 27.4346 30.5794 27.6361 30.5794C27.8377 30.5794 28.0215 30.6112 28.1877 30.6749C28.3539 30.7385 28.4953 30.8305 28.612 30.9507C28.7322 31.0674 28.8241 31.2088 28.8878 31.375C28.955 31.5411 28.9886 31.7268 28.9886 31.9318ZM27.6361 31.2159C27.47 31.2159 27.3409 31.2777 27.249 31.4015C27.157 31.5252 27.1111 31.702 27.1111 31.9318C27.1111 32.1687 27.1553 32.3491 27.2437 32.4728C27.3356 32.593 27.4664 32.6531 27.6361 32.6531C27.8059 32.6531 27.9349 32.5913 28.0233 32.4675C28.1152 32.3438 28.1612 32.1652 28.1612 31.9318C28.1612 31.7056 28.1152 31.5305 28.0233 31.4068C27.9314 31.2795 27.8023 31.2159 27.6361 31.2159Z" fill="#2C2C2C"/>
<path d="M33.3326 33.2047C33.2937 33.2153 33.2425 33.2242 33.1788 33.2312C33.1152 33.2418 33.0445 33.2471 32.9667 33.2471C32.8076 33.2471 32.6927 33.2224 32.6219 33.1729C32.5548 33.1199 32.5212 33.0191 32.5212 32.8706V31.5553C32.5212 31.4386 32.4894 31.3538 32.4257 31.3007C32.3621 31.2441 32.2754 31.2159 32.1658 31.2159C32.0951 31.2159 32.0279 31.2282 31.9643 31.253C31.9042 31.2777 31.8494 31.3096 31.7999 31.3484C31.8034 31.3661 31.8052 31.3838 31.8052 31.4015C31.8087 31.4192 31.8105 31.4368 31.8105 31.4545V33.2047C31.7716 33.2153 31.7203 33.2242 31.6567 33.2312C31.593 33.2418 31.5223 33.2471 31.4445 33.2471C31.2854 33.2471 31.1705 33.2224 31.0998 33.1729C31.0326 33.1199 30.999 33.0191 30.999 32.8706V31.5553C30.999 31.4386 30.9637 31.3538 30.893 31.3007C30.8223 31.2441 30.7356 31.2159 30.6331 31.2159C30.5588 31.2159 30.4917 31.2282 30.4316 31.253C30.3714 31.2742 30.3219 31.2954 30.2831 31.3166V33.2047C30.2477 33.2153 30.1982 33.2242 30.1346 33.2312C30.0709 33.2418 30.0002 33.2471 29.9224 33.2471C29.7633 33.2471 29.6484 33.2224 29.5777 33.1729C29.507 33.1199 29.4716 33.0191 29.4716 32.8706V31.2318C29.4716 31.1398 29.491 31.0656 29.5299 31.009C29.5688 30.9524 29.6236 30.8994 29.6944 30.8499C29.811 30.7686 29.9542 30.7032 30.1239 30.6537C30.2972 30.6042 30.4775 30.5794 30.6649 30.5794C30.8134 30.5794 30.9531 30.6006 31.0839 30.6431C31.2183 30.682 31.3402 30.7438 31.4498 30.8287C31.5559 30.758 31.6761 30.6996 31.8105 30.6537C31.9449 30.6042 32.104 30.5794 32.2878 30.5794C32.4257 30.5794 32.5565 30.5971 32.6803 30.6325C32.8076 30.6643 32.9189 30.7191 33.0144 30.7969C33.1099 30.8711 33.1859 30.9701 33.2425 31.0939C33.3026 31.2141 33.3326 31.3608 33.3326 31.5341V33.2047Z" fill="#2C2C2C"/>
<g filter="url(#filter0_d)">
<path d="M74.3587 19.8041C74.5364 19.6649 74.7983 19.74 74.8753 19.9523L75.7727 22.4274C75.8319 22.5905 76.0067 22.6806 76.1738 22.634L78.71 21.9273C78.9275 21.8667 79.1407 22.0363 79.1306 22.2618L79.0125 24.892C79.0047 25.0653 79.1318 25.2154 79.304 25.2363L81.9176 25.554C82.1417 25.5812 82.2738 25.8195 82.1782 26.024L81.0625 28.4088C80.989 28.566 81.049 28.7532 81.2001 28.8385L83.4932 30.1321C83.6898 30.2431 83.7207 30.5138 83.554 30.6661L81.6107 32.4424C81.4826 32.5595 81.4664 32.7554 81.5733 32.892L83.1968 34.9647C83.336 35.1425 83.261 35.4044 83.0487 35.4813L80.5735 36.3788C80.4104 36.4379 80.3204 36.6127 80.367 36.7798L81.0737 39.316C81.1343 39.5335 80.9647 39.7468 80.7391 39.7366L78.1089 39.6186C77.9356 39.6108 77.7855 39.7378 77.7646 39.9101L77.447 42.5236C77.4197 42.7478 77.1814 42.8799 76.9769 42.7842L74.5921 41.6686C74.435 41.5951 74.2477 41.655 74.1625 41.8061L72.8688 44.0992C72.7579 44.2959 72.4872 44.3267 72.3348 44.1601L70.5585 42.2167C70.4415 42.0887 70.2455 42.0724 70.1089 42.1794L68.0362 43.8029C67.8585 43.9421 67.5966 43.867 67.5196 43.6547L66.6222 41.1796C66.563 41.0165 66.3882 40.9264 66.2211 40.973L63.6849 41.6797C63.4674 41.7403 63.2542 41.5707 63.2643 41.3452L63.3824 38.715C63.3902 38.5417 63.2631 38.3916 63.0909 38.3707L60.4773 38.053C60.2532 38.0258 60.1211 37.7875 60.2167 37.583L61.3324 35.1982C61.4059 35.041 61.3459 34.8538 61.1948 34.7685L58.9017 33.4749C58.7051 33.3639 58.6742 33.0932 58.8409 32.9409L60.7842 31.1646C60.9123 31.0475 60.9285 30.8516 60.8216 30.715L59.1981 28.6423C59.0588 28.4645 59.1339 28.2026 59.3462 28.1257L61.8214 27.2282C61.9845 27.1691 62.0745 26.9943 62.0279 26.8272L61.3212 24.291C61.2606 24.0734 61.4302 23.8602 61.6558 23.8704L64.286 23.9884C64.4593 23.9962 64.6094 23.8692 64.6303 23.6969L64.9479 21.0833C64.9752 20.8592 65.2135 20.7271 65.418 20.8228L67.8028 21.9384C67.9599 22.0119 68.1472 21.952 68.2324 21.8009L69.5261 19.5078C69.637 19.3111 69.9077 19.2803 70.0601 19.4469L71.8364 21.3903C71.9534 21.5183 72.1494 21.5346 72.286 21.4276L74.3587 19.8041Z" fill="#2C2C2C"/>
<path d="M64.9743 32.0365C64.9315 32.0561 64.8701 32.0664 64.7901 32.0674C64.7126 32.069 64.6309 32.0576 64.545 32.0329C64.4419 32.0034 64.3577 31.9633 64.2925 31.9127C64.2281 31.8597 64.1901 31.8023 64.1785 31.7406C64.1677 31.6764 64.1554 31.5945 64.1414 31.4948C64.1282 31.3927 64.1153 31.2801 64.1028 31.157C64.0927 31.0346 64.082 30.9053 64.0706 30.7692C64.0623 30.6314 64.0556 30.4926 64.0504 30.353C64.0453 30.2134 64.0419 30.077 64.0403 29.9437C64.0387 29.8104 64.0398 29.6859 64.0438 29.5701C64.088 29.5456 64.1459 29.529 64.2175 29.5203C64.2922 29.5098 64.3664 29.5152 64.44 29.5363C64.5309 29.5623 64.5989 29.6031 64.6441 29.6585C64.6924 29.7123 64.7153 29.7945 64.7127 29.9054C64.71 30.1649 64.7102 30.4147 64.7131 30.6546C64.7192 30.8928 64.7249 31.1415 64.7303 31.4007L64.7524 31.407C64.8848 31.1953 65.0244 30.963 65.1713 30.7103C65.3206 30.4582 65.4659 30.2063 65.6071 29.9546C65.6577 29.9452 65.7096 29.9402 65.7629 29.9395C65.8187 29.9396 65.8785 29.9487 65.9423 29.967C66.0331 29.9931 66.1044 30.0361 66.1563 30.0962C66.2089 30.1537 66.2218 30.2292 66.195 30.3224C66.1795 30.3764 66.1435 30.4511 66.0869 30.5465C66.0328 30.6425 65.9663 30.7496 65.8872 30.8678C65.8114 30.9841 65.7276 31.1049 65.6359 31.23C65.5467 31.3559 65.4584 31.474 65.3709 31.5844C65.2866 31.6931 65.2087 31.7889 65.137 31.872C65.0661 31.9526 65.0119 32.0074 64.9743 32.0365Z" fill="white"/>
<path d="M66.9346 30.3353C66.9833 30.3227 67.0526 30.3173 67.1424 30.3191C67.2347 30.3217 67.3237 30.3353 67.4096 30.3599C67.5324 30.3951 67.6351 30.4445 67.7178 30.5081C67.8037 30.5699 67.8492 30.6427 67.8544 30.7265C67.862 30.8668 67.8673 31.0291 67.8703 31.2132C67.8732 31.3974 67.8745 31.5877 67.8739 31.7841C67.8741 31.9781 67.8734 32.1705 67.8718 32.3613C67.8709 32.5496 67.8695 32.7166 67.8676 32.8622C67.8283 32.8881 67.7764 32.9024 67.7119 32.9052C67.6466 32.9104 67.5735 32.9013 67.4925 32.8781C67.4336 32.8612 67.3847 32.8419 67.3457 32.8201C67.3093 32.799 67.2804 32.7748 67.259 32.7474C67.2401 32.7207 67.2266 32.689 67.2186 32.6521C67.213 32.616 67.2101 32.5753 67.2097 32.5301L67.2163 32.257L66.5499 32.0659C66.5091 32.1339 66.4677 32.2044 66.4255 32.2773C66.3833 32.3502 66.3419 32.4207 66.3011 32.4887C66.2633 32.4911 66.2236 32.4904 66.1822 32.4865C66.1426 32.4857 66.0958 32.4776 66.0418 32.4621C65.9166 32.4262 65.8293 32.3786 65.7799 32.3193C65.7336 32.2582 65.7214 32.1896 65.7433 32.1135C65.7531 32.0792 65.7679 32.0462 65.7875 32.0147C65.8072 31.9831 65.8299 31.9458 65.8555 31.9027C65.8917 31.8413 65.9386 31.7658 65.9962 31.676C66.0563 31.587 66.1209 31.4913 66.1901 31.3889C66.26 31.2841 66.3331 31.1776 66.4093 31.0693C66.4855 30.9609 66.5572 30.8593 66.6243 30.7643C66.692 30.6668 66.7526 30.5806 66.806 30.5056C66.8619 30.4313 66.9047 30.3745 66.9346 30.3353ZM67.2402 30.9369C67.1763 31.0302 67.1039 31.1343 67.0231 31.2493C66.9455 31.3625 66.8709 31.4792 66.7992 31.5995L67.2558 31.7304C67.2594 31.588 67.2608 31.4489 67.2598 31.3131C67.2621 31.1756 67.2629 31.0524 67.2623 30.9433L67.2402 30.9369Z" fill="white"/>
<path d="M68.4865 33.1352C68.3809 33.105 68.3063 33.0504 68.2625 32.9714C68.2187 32.8924 68.212 32.8002 68.2422 32.6946L68.7881 30.791C68.8165 30.7939 68.8612 30.8001 68.9222 30.8096C68.984 30.8167 69.0418 30.8279 69.0958 30.8434C69.1523 30.8596 69.2 30.8786 69.2389 30.9004C69.281 30.9204 69.3136 30.9457 69.3367 30.9762C69.3598 31.0068 69.3731 31.0438 69.3766 31.0873C69.38 31.1308 69.3726 31.1844 69.3543 31.2483L68.9373 32.7027L69.7804 32.9444C69.7899 32.9764 69.7953 33.0178 69.7966 33.0686C69.7987 33.117 69.7927 33.1658 69.7786 33.2149C69.7505 33.3131 69.7095 33.377 69.6558 33.4068C69.6028 33.4341 69.542 33.4379 69.4733 33.4182L68.4865 33.1352Z" fill="white"/>
<path d="M70.6835 33.7374C70.6544 33.737 70.6094 33.732 70.5483 33.7225C70.4898 33.7137 70.4322 33.7012 70.3758 33.685C70.3193 33.6688 70.2704 33.6494 70.2291 33.627C70.1894 33.6076 70.1581 33.5827 70.1349 33.5522C70.1118 33.5216 70.0985 33.4846 70.0951 33.4411C70.0916 33.3976 70.099 33.3439 70.1173 33.2801L70.6748 31.336C70.7032 31.3389 70.7479 31.345 70.8089 31.3546C70.8706 31.3616 70.9285 31.3729 70.9825 31.3884C71.039 31.4046 71.0867 31.4236 71.1256 31.4454C71.1676 31.4654 71.2002 31.4907 71.2234 31.5212C71.2465 31.5518 71.2598 31.5888 71.2632 31.6323C71.2667 31.6758 71.2593 31.7294 71.241 31.7933L70.6835 33.7374Z" fill="white"/>
<path d="M71.9347 33.5941C71.9603 33.6067 71.9921 33.6211 72.0299 33.6373C72.0685 33.651 72.105 33.6628 72.1393 33.6726C72.2228 33.6966 72.3024 33.7061 72.3782 33.7013C72.4564 33.6971 72.5275 33.6763 72.5913 33.6389C72.6577 33.6021 72.7159 33.5471 72.7662 33.4738C72.8195 33.3988 72.8628 33.3036 72.8959 33.1883C72.9592 32.9673 72.9552 32.7869 72.8838 32.6468C72.813 32.5044 72.6918 32.4085 72.5199 32.3592C72.4856 32.3494 72.4496 32.3404 72.4121 32.3323C72.377 32.3249 72.3404 32.3184 72.3022 32.3127L71.9347 33.5941ZM71.9868 34.1907C71.9451 34.1788 71.8975 34.1638 71.8442 34.1459C71.7909 34.1279 71.7359 34.1069 71.6791 34.0826C71.6248 34.059 71.5699 34.0327 71.5145 34.0035C71.4608 33.9775 71.4123 33.9476 71.3688 33.9139C71.2486 33.8237 71.2068 33.7147 71.2434 33.5871L71.7365 31.8676C71.7512 31.816 71.776 31.7806 71.8107 31.7614C71.8486 31.7404 71.8946 31.7283 71.9486 31.7252C72.064 31.7211 72.1821 31.731 72.3027 31.755C72.424 31.7765 72.5313 31.8006 72.6246 31.8274C72.8161 31.8823 72.9825 31.9552 73.1237 32.0462C73.2674 32.1379 73.3805 32.2487 73.4628 32.3785C73.5482 32.5066 73.6005 32.6531 73.6197 32.818C73.6388 32.9829 73.6195 33.166 73.5618 33.3673C73.5055 33.5636 73.4268 33.727 73.3256 33.8574C73.2252 33.9853 73.1053 34.0838 72.966 34.1527C72.8298 34.22 72.6786 34.2563 72.5123 34.2618C72.3461 34.2672 72.1709 34.2435 71.9868 34.1907Z" fill="white"/>
<path d="M74.1507 32.7033C74.181 32.5978 74.2356 32.5231 74.3146 32.4793C74.3935 32.4356 74.4858 32.4288 74.5913 32.4591L75.8064 32.8075C75.8158 32.8394 75.8203 32.8792 75.82 32.9269C75.822 32.9753 75.816 33.0241 75.8019 33.0732C75.7752 33.1665 75.7353 33.2268 75.6823 33.2541C75.6318 33.2821 75.5734 33.2866 75.5071 33.2676L74.7302 33.0448L74.632 33.3872L75.4605 33.6248C75.4699 33.6567 75.4744 33.6965 75.474 33.7442C75.4768 33.7902 75.4711 33.8377 75.4571 33.8868C75.4303 33.9801 75.3917 34.0407 75.3411 34.0687C75.2906 34.0968 75.2322 34.1013 75.1659 34.0823L74.4884 33.888L74.3776 34.2746L75.3238 34.5459C75.3333 34.5779 75.3378 34.6177 75.3374 34.6654C75.3395 34.7138 75.3334 34.7625 75.3194 34.8116C75.2926 34.9049 75.2524 34.9664 75.1987 34.9962C75.1482 35.0242 75.0898 35.0287 75.0235 35.0097L73.9483 34.7014C73.8428 34.6711 73.7681 34.6165 73.7244 34.5376C73.6806 34.4586 73.6738 34.3663 73.7041 34.2608L74.1507 32.7033Z" fill="white"/>
<path d="M76.4739 34.6326L76.2712 35.3396C76.2421 35.3392 76.197 35.3342 76.136 35.3247C76.0774 35.3159 76.0199 35.3034 75.9634 35.2872C75.907 35.271 75.8581 35.2517 75.8167 35.2292C75.7771 35.2099 75.7457 35.1849 75.7226 35.1544C75.7019 35.1245 75.6898 35.0879 75.6864 35.0444C75.6829 35.0009 75.6903 34.9472 75.7086 34.8834L76.2059 33.1492C76.2207 33.0976 76.2455 33.0622 76.2802 33.043C76.3181 33.022 76.3641 33.0099 76.4181 33.0068C76.51 33.0013 76.6129 33.0082 76.7269 33.0276C76.8416 33.0446 76.9615 33.071 77.0867 33.1069C77.4255 33.204 77.6603 33.3484 77.7913 33.54C77.9223 33.7317 77.953 33.949 77.8833 34.192C77.8397 34.3442 77.7631 34.463 77.6536 34.5485C77.5441 34.634 77.4268 34.6907 77.302 34.7187C77.3558 34.8643 77.4106 35.0022 77.4662 35.1324C77.5219 35.2626 77.5619 35.3776 77.5864 35.4776C77.5372 35.5565 77.4728 35.6098 77.3932 35.6374C77.3167 35.6633 77.2379 35.6646 77.1569 35.6414C77.1029 35.6259 77.058 35.6064 77.0223 35.5828C76.9865 35.5593 76.9571 35.5323 76.934 35.5017C76.9108 35.4712 76.8916 35.4365 76.8762 35.3975C76.8608 35.3586 76.8473 35.3175 76.8358 35.2744L76.669 34.6886L76.4739 34.6326ZM76.8463 34.2094C76.9395 34.2362 77.0199 34.234 77.0873 34.2028C77.1553 34.1692 77.2027 34.1058 77.2295 34.0125C77.2562 33.9192 77.2456 33.8405 77.1976 33.7762C77.1528 33.7103 77.0653 33.6586 76.9352 33.6213C76.8984 33.6107 76.8686 33.6035 76.8458 33.5996C76.823 33.5958 76.7974 33.5924 76.769 33.5896L76.6106 34.1419L76.8463 34.2094Z" fill="white"/>
</g>
<defs>
<filter id="filter0_d" x="55.0199" y="15.6253" width="32.3563" height="32.3563" filterUnits="userSpaceOnUse" color-interpolation-filters="sRGB">
<feFlood flood-opacity="0" result="BackgroundImageFix"/>
<feColorMatrix in="SourceAlpha" type="matrix" values="0 0 0 0 0 0 0 0 0 0 0 0 0 0 0 0 0 0 127 0"/>
<feOffset/>
<feGaussianBlur stdDeviation="0.331862"/>
<feColorMatrix type="matrix" values="0 0 0 0 0 0 0 0 0 0 0 0 0 0 0 0 0 0 0.25 0"/>
<feBlend mode="normal" in2="BackgroundImageFix" result="effect1_dropShadow"/>
<feBlend mode="normal" in="SourceGraphic" in2="effect1_dropShadow" result="shape"/>
</filter>
</defs>
</svg>
