<svg width="88" height="64" viewBox="0 0 88 64" fill="none" xmlns="http://www.w3.org/2000/svg">
<path d="M53.2158 15C59.1714 15 64 19.8721 64 25.88C64 35.8105 44.4995 49 44.4995 49C44.4995 49 25 36.2859 25 25.8799C25 18.3998 29.8287 15 35.7832 15C39.37 15 42.5384 16.7748 44.4995 19.4922C46.4609 16.7748 49.6298 15 53.2158 15Z" fill="#FF7360"/>
<path fill-rule="evenodd" clip-rule="evenodd" d="M44.4994 22.9096L42.8778 20.6626C41.2705 18.4356 38.6907 17 35.7832 17C33.1701 17 31.0023 17.7444 29.5085 19.1107C28.0456 20.4488 27 22.5919 27 25.8799C27 27.8896 27.9602 30.2297 29.6941 32.7483C31.4045 35.2327 33.7235 37.6832 36.1029 39.8695C38.4735 42.0477 40.8525 43.9169 42.6434 45.2439C43.3683 45.781 43.9942 46.2273 44.4807 46.5672C44.9703 46.2145 45.6022 45.7505 46.335 45.1926C48.1288 43.8271 50.5119 41.9112 52.887 39.7001C55.271 37.4806 57.5956 35.0108 59.3102 32.5413C61.0551 30.0282 62 27.7543 62 25.88C62 20.9598 58.0501 17 53.2158 17C50.3091 17 47.7287 18.4356 46.1212 20.6627L44.4994 22.9096ZM43.1541 17.9528C41.2272 16.1241 38.6377 15 35.7832 15C29.8287 15 25 18.3998 25 25.8799C25 36.2859 44.4995 49 44.4995 49C44.4995 49 64 35.8105 64 25.88C64 19.8721 59.1714 15 53.2158 15C50.3619 15 47.7721 16.1242 45.845 17.9529C45.3507 18.422 44.8999 18.9375 44.4995 19.4922C44.0991 18.9374 43.6484 18.422 43.1541 17.9528Z" fill="#2C2C2C"/>
</svg>
