<svg width="88" height="64" viewBox="0 0 88 64" fill="none" xmlns="http://www.w3.org/2000/svg">
<circle cx="44.7402" cy="31.0038" r="14.3389" transform="rotate(-30.5831 44.7402 31.0038)" fill="#2C2C2C" stroke="#2C2C2C" stroke-width="0.249372"/>
<path d="M22.7842 37.4273L25.2479 36.5587C25.347 36.6331 25.456 36.7526 25.5748 36.9173C25.6898 37.0711 25.7816 37.2453 25.8501 37.4398C25.9758 37.7964 25.9789 38.0808 25.8594 38.293C25.7506 38.5015 25.5612 38.6533 25.291 38.7485L23.4756 39.3885L24.4813 42.2413C24.3847 42.3118 24.2395 42.3994 24.0456 42.5042C23.8587 42.5944 23.6734 42.6719 23.4897 42.7366C23.0899 42.8776 22.7645 42.9194 22.5134 42.8621C22.2586 42.794 22.055 42.5439 21.9026 42.1117L21.2226 40.1828L18.6941 41.0742C18.5911 40.989 18.4841 40.8749 18.3729 40.7319C18.2725 40.585 18.1881 40.4144 18.1195 40.2199C17.9938 39.8633 17.9834 39.5754 18.0884 39.3561C18.2041 39.1331 18.3971 38.9739 18.6672 38.8787L20.5312 38.2216L19.5426 35.4175C19.6431 35.3578 19.7848 35.2774 19.9679 35.1764C20.1472 35.0646 20.334 34.9744 20.5286 34.9059C20.9068 34.7725 21.2287 34.738 21.4943 34.8023C21.76 34.8666 21.969 35.1148 22.1213 35.5471L22.7842 37.4273Z" fill="#FAF5ED"/>
<path d="M26.1763 34.8829C25.9908 34.839 25.7919 34.7572 25.5796 34.6377C25.3636 34.5073 25.2003 34.2854 25.0899 33.9721C24.8842 33.3886 25.0941 32.8468 25.7196 32.3469L27.3761 30.9975L27.9272 30.8032C28.3378 30.6585 28.7112 30.6665 29.0473 30.8275C29.3835 30.9884 29.6239 31.2741 29.7687 31.6848L32.7973 40.2754C32.6898 40.3497 32.5446 40.4373 32.3615 40.5383C32.1784 40.6393 31.968 40.7317 31.7303 40.8155C31.244 40.987 30.8643 41.0297 30.591 40.9438C30.3177 40.8579 30.1011 40.5881 29.9411 40.1342L27.6668 33.6832L26.1763 34.8829Z" fill="#FAF5ED"/>
<path d="M38.8904 32.6056C38.5209 31.5574 38.0807 30.8258 37.5699 30.4106C37.0661 29.9808 36.544 29.8611 36.0037 30.0516C35.4634 30.242 35.1318 30.6627 35.0089 31.3134C34.893 31.9496 35.0198 32.7917 35.3894 33.8399C35.7703 34.9205 36.2 35.6741 36.6784 36.1007C37.1638 36.5127 37.6875 36.6197 38.2494 36.4216C38.8113 36.2235 39.1521 35.8118 39.2718 35.1864C39.3985 34.5465 39.2714 33.6862 38.8904 32.6056ZM38.9628 38.3933C38.336 38.6143 37.7198 38.71 37.1141 38.6806C36.5193 38.6473 35.9566 38.4812 35.426 38.1823C34.9062 37.8796 34.4313 37.4457 34.0012 36.8805C33.5673 36.3046 33.198 35.5844 32.8932 34.7199C32.5923 33.8662 32.4321 33.0844 32.4126 32.3745C32.4002 31.65 32.5068 31.0049 32.7327 30.4394C32.9585 29.8738 33.2926 29.3915 33.7351 28.9926C34.1776 28.5936 34.7068 28.2855 35.3228 28.0684C35.9279 27.8551 36.5279 27.765 37.1228 27.7983C37.7176 27.8315 38.2804 27.9976 38.8109 28.2965C39.3415 28.5954 39.8292 29.0309 40.2738 29.6031C40.7147 30.1644 41.0856 30.872 41.3866 31.7256C41.6913 32.5901 41.85 33.3846 41.8624 34.1091C41.8819 34.819 41.7787 35.4568 41.5529 36.0223C41.3378 36.5841 41.0037 37.0664 40.5504 37.4692C40.1079 37.8681 39.5787 38.1762 38.9628 38.3933Z" fill="#FAF5ED"/>
<path d="M48.641 29.1681C48.2715 28.12 47.8313 27.3883 47.3204 26.9731C46.8166 26.5433 46.2945 26.4236 45.7542 26.6141C45.214 26.8045 44.8824 27.2252 44.7595 27.8759C44.6436 28.5121 44.7704 29.3542 45.1399 30.4024C45.5209 31.483 45.9506 32.2366 46.429 32.6632C46.9144 33.0752 47.4381 33.1822 48 32.9841C48.5619 32.786 48.9027 32.3743 49.0224 31.7489C49.1491 31.109 49.0219 30.2487 48.641 29.1681ZM48.7133 34.9558C48.0866 35.1768 47.4704 35.2725 46.8647 35.2431C46.2698 35.2098 45.7071 35.0437 45.1765 34.7448C44.6567 34.4421 44.1818 34.0082 43.7517 33.443C43.3179 32.8671 42.9485 32.1469 42.6438 31.2824C42.3428 30.4287 42.1826 29.6469 42.1632 28.937C42.1507 28.2125 42.2574 27.5674 42.4832 27.0019C42.709 26.4363 43.0432 25.954 43.4857 25.5551C43.9282 25.1561 44.4574 24.848 45.0733 24.6309C45.6784 24.4176 46.2784 24.3275 46.8733 24.3608C47.4682 24.394 48.0309 24.5601 48.5615 24.859C49.0921 25.1579 49.5797 25.5934 50.0244 26.1656C50.4653 26.7269 50.8362 27.4345 51.1371 28.2881C51.4419 29.1526 51.6005 29.9471 51.613 30.6716C51.6324 31.3815 51.5292 32.0193 51.3034 32.5848C51.0884 33.1466 50.7542 33.6289 50.3009 34.0317C49.8584 34.4306 49.3292 34.7387 48.7133 34.9558Z" fill="#FAF5ED"/>
<path d="M56.9291 28.0351L60.0659 29.4805C60.1542 29.8746 60.1403 30.2085 60.0242 30.4823C59.9139 30.7439 59.6877 30.935 59.3455 31.0556C59.0844 31.1477 58.8325 31.1656 58.59 31.1094C58.3474 31.0532 58.0538 30.9238 57.7091 30.7214L55.4303 29.3835L56.3446 31.9769C56.2641 32.0357 56.1459 32.1026 55.9902 32.1778C55.8376 32.262 55.6623 32.339 55.4642 32.4088C55.059 32.5517 54.7441 32.5918 54.5196 32.5292C54.2918 32.4576 54.1113 32.2327 53.978 31.8545L51.1827 23.9258C51.2723 23.8639 51.3933 23.7908 51.5459 23.7067C51.6984 23.6225 51.8738 23.5455 52.0719 23.4757C52.4771 23.3328 52.7891 23.2987 53.0078 23.3735C53.2355 23.4451 53.416 23.67 53.5494 24.0482L54.897 27.8707L56.4656 24.5235C56.8888 24.3743 57.2598 24.3498 57.5786 24.45C57.8974 24.5502 58.106 24.7399 58.2045 25.019C58.2902 25.2622 58.2808 25.5084 58.1764 25.7579C58.0778 25.9951 57.9069 26.3287 57.6636 26.7587L56.9291 28.0351Z" fill="#FAF5ED"/>
<path d="M71.4051 26.6674C71.3155 26.7294 71.1929 26.7979 71.0372 26.8731C70.8846 26.9572 70.7093 27.0342 70.5112 27.1041C70.1059 27.2469 69.7911 27.2871 69.5665 27.2245C69.3478 27.1497 69.1718 26.9233 69.0385 26.5451L67.8575 23.1953C67.7527 22.8981 67.5955 22.7106 67.3858 22.6326C67.1729 22.5457 66.9269 22.5514 66.6478 22.6498C66.4677 22.7133 66.3077 22.8052 66.1678 22.9253C66.037 23.0424 65.926 23.1726 65.8348 23.3161C65.8597 23.3579 65.8801 23.4014 65.8959 23.4464C65.9208 23.4883 65.9412 23.5317 65.9571 23.5767L67.5285 28.0341C67.439 28.096 67.3163 28.1646 67.1606 28.2397C67.008 28.3239 66.8327 28.4009 66.6346 28.4707C66.2294 28.6136 65.9145 28.6537 65.6899 28.5912C65.4712 28.5164 65.2952 28.2899 65.1619 27.9117L63.9809 24.5619C63.8762 24.2648 63.7099 24.0804 63.4822 24.0088C63.2513 23.9282 63.0053 23.934 62.7442 24.026C62.5551 24.0927 62.3951 24.1845 62.2642 24.3015C62.1302 24.4095 62.0232 24.508 61.9432 24.597L63.6384 29.4055C63.5579 29.4643 63.4397 29.5313 63.284 29.6064C63.1314 29.6906 62.9561 29.7676 62.758 29.8374C62.3528 29.9803 62.0379 30.0204 61.8134 29.9578C61.5856 29.8862 61.4051 29.6614 61.2718 29.2832L59.8004 25.1094C59.7178 24.8753 59.7007 24.6687 59.7489 24.4897C59.7972 24.3107 59.8892 24.1265 60.0248 23.9369C60.249 23.625 60.5549 23.3299 60.9427 23.0514C61.3395 22.7698 61.7765 22.5448 62.2538 22.3766C62.632 22.2433 63.0067 22.1719 63.378 22.1625C63.7551 22.1409 64.1213 22.189 64.4767 22.3067C64.6833 22.0313 64.9371 21.7748 65.238 21.5371C65.5358 21.2904 65.9187 21.0845 66.387 20.9195C66.7382 20.7956 67.0872 20.7232 67.4342 20.7021C67.7869 20.6689 68.1198 20.7085 68.4327 20.8209C68.7425 20.9243 69.025 21.1081 69.2802 21.3725C69.5412 21.6247 69.7495 21.9714 69.9051 22.4127L71.4051 26.6674Z" fill="#FAF5ED"/>
<path fill-rule="evenodd" clip-rule="evenodd" d="M22.5119 42.8621C22.2571 42.794 22.0535 42.5439 21.9011 42.1116L21.2211 40.1828L18.6925 41.0742C18.5896 40.989 18.4826 40.8749 18.3714 40.7319C18.271 40.585 18.1866 40.4144 18.118 40.2199C17.9923 39.8633 17.9819 39.5754 18.0868 39.3561C18.2026 39.1331 18.3955 38.9739 18.6657 38.8787L20.5297 38.2216L19.5411 35.4175C19.6415 35.3577 19.7833 35.2774 19.9664 35.1764C20.1456 35.0646 20.3325 34.9744 20.527 34.9059C20.8417 34.7949 21.1174 34.7524 21.3542 34.7783C21.402 34.7835 21.4482 34.7915 21.4928 34.8023C21.7584 34.8666 21.9674 35.1148 22.1198 35.5471L22.7827 37.4273L25.2464 36.5587C25.3455 36.6331 25.4545 36.7526 25.5733 36.9173C25.6047 36.9593 25.6344 37.0029 25.6624 37.048C25.7367 37.1679 25.7988 37.2985 25.8486 37.4398C25.8668 37.4913 25.8823 37.5412 25.8954 37.5897C25.9726 37.877 25.9601 38.1114 25.8578 38.293C25.7491 38.5015 25.5596 38.6533 25.2895 38.7485L23.4741 39.3885L24.4798 42.2413C24.3832 42.3118 24.2379 42.3994 24.0441 42.5042C23.8572 42.5944 23.6719 42.6719 23.4882 42.7366C23.1617 42.8517 22.8849 42.9007 22.6576 42.8837C22.6066 42.8798 22.558 42.8727 22.5119 42.8621ZM19.6027 43.6387L19.5973 43.6406C18.6958 43.9584 17.6937 43.78 16.9574 43.1705C16.6584 42.923 16.4159 42.6502 16.2228 42.4018C16.1888 42.358 16.1561 42.3131 16.1248 42.2674C15.8716 41.8969 15.6867 41.5077 15.5516 41.1246C15.3158 40.4556 15.0802 39.3346 15.6324 38.1812C15.645 38.1548 15.6581 38.1286 15.6715 38.1027C16.0161 37.4386 16.5197 36.9539 17.0818 36.626L16.9747 36.3222C16.5434 35.0989 17.0356 33.7412 18.1506 33.0784C18.2752 33.0043 18.4273 32.9181 18.5973 32.8239C18.9202 32.629 19.2624 32.4663 19.6223 32.3395C20.278 32.1083 21.1689 31.9242 22.1329 32.1574C22.264 32.1892 22.3889 32.2272 22.5078 32.2708C22.5225 32.2287 22.5379 32.1868 22.5542 32.1449C22.8841 31.2935 23.4588 30.6713 24.0078 30.2303L25.6559 28.8877C25.8989 28.6898 26.1742 28.5353 26.4698 28.4311L27.0209 28.2368C27.9885 27.8957 29.1242 27.8481 30.2207 28.373C30.3571 28.4383 30.4869 28.5095 30.6104 28.5862C30.9533 27.9856 31.3878 27.4437 31.9114 26.9716C32.6453 26.3098 33.4945 25.8271 34.4165 25.502C35.3341 25.1785 36.2927 25.0265 37.2731 25.0813C38.2425 25.1355 39.1635 25.3988 40.0122 25.8527C40.3886 24.9669 40.9409 24.1842 41.6619 23.5341C42.3959 22.8723 43.245 22.3896 44.167 22.0645C45.0847 21.741 46.0433 21.589 47.0237 21.6438C47.7615 21.6851 48.4714 21.8475 49.1427 22.1229C49.2856 21.9613 49.4496 21.8149 49.6331 21.6879C49.8289 21.5524 50.0386 21.4295 50.23 21.3239M50.23 21.3239C50.5373 21.1544 50.8539 21.0192 51.1656 20.9093C51.71 20.7173 52.7459 20.4227 53.8508 20.7866C54.6169 21.0347 55.1424 21.5002 55.501 21.9784C55.5203 21.9711 55.5398 21.964 55.5593 21.9571C56.3132 21.6913 57.2571 21.5397 58.2502 21.812C58.5868 21.4438 58.962 21.1225 59.354 20.841L59.3662 20.8323C59.9773 20.3986 60.6414 20.0592 61.3475 19.8102C61.9599 19.5943 62.6018 19.4649 63.2647 19.4434C63.3453 19.4394 63.4258 19.4371 63.5061 19.4365C63.513 19.431 63.5198 19.4255 63.5266 19.4201C64.1242 18.9314 64.8016 18.5925 65.4807 18.3531C66.0399 18.1559 66.6229 18.0295 67.2241 17.9888C67.9233 17.929 68.6333 18.007 69.3224 18.2497C70.069 18.5045 70.6962 18.9319 71.205 19.4503C71.8242 20.0614 72.218 20.7932 72.4699 21.5079L73.9699 25.7627C74.3779 26.92 73.9609 28.2072 72.9517 28.9053C72.7225 29.0639 72.4851 29.1925 72.2801 29.2937C71.9949 29.4456 71.7026 29.5689 71.4144 29.6704C70.9751 29.8253 70.2597 30.0329 69.4512 29.9585C69.337 30.0726 69.2115 30.1777 69.0751 30.272C68.8459 30.4306 68.6086 30.5592 68.4035 30.6603C68.1183 30.8123 67.826 30.9355 67.5378 31.0371C67.0971 31.1925 66.3784 31.401 65.5665 31.3244C65.4667 31.4248 65.358 31.5183 65.2409 31.6037C64.9917 31.7856 64.732 31.9258 64.5271 32.0269C64.2418 32.1789 63.9494 32.3022 63.6612 32.4038C63.2314 32.5553 62.5373 32.7573 61.7501 32.6962C61.2941 33.1486 60.755 33.4436 60.2488 33.622C59.6616 33.829 59.0117 33.918 58.3387 33.8271C58.2213 33.9537 58.0905 34.0704 57.9471 34.1751C57.6979 34.357 57.4382 34.4972 57.2333 34.5983C56.948 34.7503 56.6556 34.8736 56.3674 34.9752C55.8191 35.1685 54.8405 35.444 53.7875 35.1505C53.7589 35.1425 53.7304 35.1341 53.702 35.1252C53.4998 35.0616 53.3142 34.983 53.1438 34.8929C52.8515 35.3191 52.5073 35.709 52.1144 36.0592C51.3821 36.7176 50.5355 37.1982 49.6166 37.5222C48.6893 37.8491 47.7213 38.0092 46.731 37.9611L46.7113 37.96C45.7553 37.9066 44.8463 37.6497 44.0073 37.2072C43.6345 38.088 43.08 38.8584 42.3639 39.4966C41.6316 40.155 40.785 40.6357 39.866 40.9597C38.9387 41.2866 37.9707 41.4467 36.9805 41.3986L36.9607 41.3975C36.4188 41.3672 35.892 41.2716 35.3845 41.1138C35.2052 41.6677 34.8486 42.1641 34.3439 42.5133C34.1301 42.6611 33.8963 42.7986 33.6743 42.9211C33.3366 43.1074 32.9849 43.258 32.6335 43.3819C31.9827 43.6114 30.905 43.8955 29.7735 43.5398C28.2576 43.0633 27.6268 41.7583 27.3732 41.039L27.2678 40.7398C27.1541 40.8263 27.0374 40.9048 26.919 40.9756L27.0462 41.3365C27.4458 42.4698 27.0546 43.7311 26.0839 44.4394C25.8383 44.6186 25.566 44.7748 25.338 44.8981C25.3013 44.9179 25.2642 44.9369 25.2267 44.955C24.9552 45.086 24.6772 45.2028 24.3929 45.303C23.7898 45.5156 22.8869 45.7389 21.9065 45.5151C21.874 45.5077 21.8416 45.4997 21.8094 45.4911C20.615 45.1719 19.9573 44.3244 19.6027 43.6387M30.7905 40.9823C31.0394 41.0039 31.3521 40.9483 31.7288 40.8155C31.9665 40.7317 32.1769 40.6393 32.36 40.5383C32.543 40.4373 32.6883 40.3497 32.7957 40.2754L29.7672 31.6848C29.7516 31.6405 29.7349 31.5978 29.7171 31.5564C29.5695 31.214 29.3457 30.971 29.0458 30.8275C28.7096 30.6665 28.3363 30.6585 27.9256 30.8032L27.3745 30.9975L25.7181 32.3468C25.2855 32.6926 25.0517 33.0583 25.0166 33.444C25.0047 33.5752 25.0158 33.7087 25.0499 33.8446C25.0605 33.8868 25.0733 33.9293 25.0883 33.9721C25.1638 34.186 25.2638 34.3572 25.3884 34.4859C25.4463 34.5457 25.5096 34.5963 25.5781 34.6377C25.7904 34.7572 25.9893 34.839 26.1748 34.8829L27.6653 33.6832L29.9396 40.1342C30.0996 40.5881 30.3162 40.8579 30.5895 40.9438C30.6511 40.9632 30.7181 40.976 30.7905 40.9823ZM54.6986 32.5567C54.8642 32.5643 55.0642 32.533 55.2985 32.4625C55.3515 32.4466 55.4062 32.4287 55.4627 32.4088C55.6608 32.339 55.8361 32.262 55.9887 32.1778C56.1444 32.1026 56.2625 32.0357 56.3431 31.9769L55.4288 29.3835L57.7076 30.7214C58.0523 30.9238 58.3459 31.0532 58.5885 31.1094C58.6366 31.1205 58.685 31.1288 58.7338 31.1341C58.7993 31.1412 58.8655 31.1431 58.9323 31.1398C59.004 31.1362 59.0764 31.1265 59.1496 31.1108C59.2117 31.0975 59.2743 31.0799 59.3375 31.0579C59.3396 31.0572 59.3418 31.0564 59.344 31.0556C59.6862 30.935 59.9124 30.7439 60.0227 30.4823C60.1171 30.2595 60.1439 29.997 60.1031 29.6946C60.0937 29.6254 60.0808 29.554 60.0643 29.4805L58.783 28.8901L56.9276 28.0351L57.6621 26.7587C57.9054 26.3287 58.0763 25.9951 58.1749 25.7579C58.1871 25.7287 58.198 25.6995 58.2076 25.6704C58.2117 25.6582 58.2154 25.6461 58.219 25.634C58.2454 25.5441 58.2593 25.4546 58.2608 25.3655C58.2627 25.2493 58.2434 25.1338 58.2029 25.019C58.1045 24.7399 57.8959 24.5502 57.5771 24.45C57.4041 24.3956 57.2157 24.378 57.0119 24.397C56.8769 24.4097 56.7351 24.4384 56.5866 24.4833C56.5463 24.4955 56.5054 24.5089 56.4641 24.5235L54.8955 27.8707L53.5478 24.0482C53.4145 23.67 53.234 23.4451 53.0063 23.3735C52.957 23.3566 52.9029 23.3453 52.8442 23.3395C52.6422 23.3196 52.3842 23.365 52.0704 23.4756C51.8723 23.5455 51.6969 23.6225 51.5444 23.7066C51.5302 23.7144 51.5164 23.7221 51.5028 23.7297C51.3697 23.8042 51.2625 23.8696 51.1812 23.9258L53.9765 31.8545C54.0411 32.0379 54.1168 32.1852 54.2036 32.2964C54.2959 32.4147 54.4007 32.4923 54.518 32.5292C54.5728 32.5445 54.633 32.5536 54.6986 32.5567ZM48.9247 25.0908C48.9086 25.0794 48.8925 25.0681 48.8763 25.0569C48.799 25.0036 48.7208 24.9534 48.6415 24.9062C48.6145 24.8901 48.5873 24.8744 48.56 24.859C48.0294 24.5601 47.4667 24.394 46.8718 24.3608C46.2769 24.3275 45.6769 24.4176 45.0718 24.6309C45.0664 24.6328 45.061 24.6347 45.0556 24.6366C44.4466 24.8534 43.9228 25.1596 43.4842 25.5551C43.0417 25.954 42.7075 26.4363 42.4817 27.0019C42.4279 27.1365 42.3809 27.2757 42.3406 27.4194C42.3392 27.4245 42.3378 27.4296 42.3364 27.4348C42.3091 27.5334 42.285 27.6342 42.2641 27.737C42.2412 27.8501 42.222 27.9657 42.2067 28.0839C42.2059 28.0897 42.2052 28.0956 42.2044 28.1014C42.1709 28.3671 42.1566 28.6456 42.1616 28.937C42.1811 29.6469 42.3413 30.4287 42.6423 31.2824C42.947 32.1469 43.3163 32.8671 43.7502 33.443C43.9175 33.6629 44.0916 33.8629 44.2725 34.043C44.2806 34.0511 44.2888 34.0592 44.297 34.0672C44.3909 34.1595 44.4867 34.2465 44.5842 34.3282C44.6535 34.3862 44.7237 34.4415 44.7948 34.4941C44.8109 34.5061 44.8271 34.5179 44.8434 34.5295C44.9518 34.6075 45.0623 34.6792 45.175 34.7448C45.7056 35.0437 46.2683 35.2098 46.8632 35.2431C47.4636 35.2723 48.0744 35.1784 48.6956 34.9615C48.701 34.9596 48.7064 34.9577 48.7118 34.9558C49.3277 34.7387 49.8569 34.4306 50.2994 34.0317C50.7527 33.6289 51.0869 33.1466 51.3019 32.5848C51.3102 32.564 51.3184 32.543 51.3264 32.5219C51.3632 32.4251 51.3964 32.3261 51.4261 32.2251C51.4276 32.2201 51.429 32.2152 51.4305 32.2102C51.5664 31.7418 51.6267 31.229 51.6114 30.6716C51.599 29.9471 51.4404 29.1526 51.1356 28.2881C50.8347 27.4344 50.4637 26.7269 50.0229 26.1656C49.682 25.7271 49.316 25.3688 48.9247 25.0908ZM47.3189 26.9731C47.1303 26.8122 46.9391 26.6947 46.7454 26.6208C46.4268 26.4991 46.1014 26.495 45.769 26.6084C45.7636 26.6103 45.7581 26.6122 45.7527 26.6141C45.4201 26.7313 45.1666 26.9358 44.9922 27.2275C44.8833 27.4097 44.8052 27.6258 44.758 27.8759C44.756 27.8867 44.7541 27.8976 44.7523 27.9085C44.7054 28.1886 44.7045 28.5078 44.7497 28.8661C44.7508 28.8749 44.752 28.8837 44.7531 28.8925C44.8116 29.3364 44.94 29.8397 45.1384 30.4024C45.3462 30.9919 45.5686 31.4842 45.8055 31.8791C45.8076 31.8827 45.8098 31.8863 45.812 31.8899C45.9913 32.1872 46.179 32.4289 46.3749 32.6148C46.3836 32.6231 46.3924 32.6313 46.4012 32.6394C46.4099 32.6474 46.4187 32.6554 46.4275 32.6632C46.6041 32.8131 46.7858 32.9227 46.9726 32.9918C46.978 32.9938 46.9834 32.9958 46.9887 32.9977C47.3103 33.1125 47.6469 33.108 47.9984 32.9841C48.0039 32.9822 48.0092 32.9802 48.0146 32.9783C48.3581 32.8537 48.6177 32.6481 48.7934 32.3614C48.7964 32.3566 48.7994 32.3517 48.8023 32.3468C48.9044 32.1758 48.9773 31.9765 49.0209 31.7489C49.0231 31.7374 49.0253 31.7259 49.0274 31.7143C49.0295 31.7026 49.0316 31.6909 49.0335 31.6791C49.0788 31.4052 49.0798 31.0929 49.0366 30.7422C49.0355 30.7334 49.0344 30.7247 49.0333 30.7159C48.975 30.2633 48.8437 29.7474 48.6395 29.1681C48.4427 28.61 48.2259 28.1416 47.9891 27.7629C47.9867 27.7592 47.9844 27.7555 47.9821 27.7517C47.7861 27.4404 47.5764 27.1903 47.3531 27.0014C47.3417 26.9918 47.3303 26.9823 47.3189 26.9731ZM61.9924 29.9853C62.1955 29.9947 62.4502 29.9454 62.7565 29.8374C62.7848 29.8274 62.8126 29.8173 62.84 29.807C62.9064 29.7821 62.97 29.7564 63.0308 29.7298C63.1207 29.6905 63.2045 29.6494 63.2825 29.6064C63.4382 29.5313 63.5564 29.4643 63.6369 29.4055L61.9416 24.597C61.9588 24.5779 61.9771 24.5585 61.9967 24.5386C61.9991 24.5362 62.0014 24.5338 62.0038 24.5313C62.0745 24.4602 62.1608 24.3836 62.2627 24.3015C62.2963 24.2715 62.3318 24.2431 62.3693 24.2164C62.3693 24.2164 62.3692 24.2164 62.3693 24.2164C62.4776 24.1391 62.6021 24.0756 62.7426 24.026C62.7701 24.0163 62.7974 24.0076 62.8245 23.9998C62.9491 23.9642 63.0701 23.9486 63.1876 23.9532C63.2677 23.9563 63.346 23.9687 63.4228 23.9905C63.4422 23.996 63.4615 24.0021 63.4807 24.0088C63.4812 24.009 63.4817 24.0091 63.4822 24.0093C63.5032 24.0159 63.5237 24.0236 63.5437 24.0322C63.629 24.0689 63.7048 24.1231 63.7709 24.195C63.7905 24.2163 63.8092 24.239 63.827 24.2633C63.8391 24.2797 63.8508 24.2969 63.8621 24.3147C63.8876 24.3549 63.9112 24.3986 63.9328 24.4459C63.9495 24.4824 63.965 24.5211 63.9794 24.5619L65.1604 27.9117C65.2937 28.2899 65.4697 28.5164 65.6884 28.5912C65.7432 28.6064 65.8034 28.6156 65.869 28.6186C65.9756 28.6236 66.0964 28.6123 66.2314 28.5849C66.3536 28.5601 66.4875 28.522 66.6331 28.4707C66.73 28.4366 66.8214 28.4007 66.9074 28.3631C66.9972 28.3239 67.0811 28.2827 67.1591 28.2397C67.3148 28.1646 67.4374 28.096 67.527 28.0341L65.9555 23.5767C65.9397 23.5317 65.9193 23.4883 65.8944 23.4464C65.8807 23.4076 65.8637 23.37 65.8434 23.3336C65.8401 23.3277 65.8367 23.3219 65.8333 23.3161C65.9244 23.1726 66.0354 23.0423 66.1663 22.9253C66.1738 22.9189 66.1813 22.9126 66.1888 22.9064C66.215 22.8848 66.2418 22.8642 66.2693 22.8446C66.2799 22.837 66.2906 22.8296 66.3014 22.8223C66.4067 22.7512 66.5217 22.6938 66.6462 22.6498C66.7594 22.6099 66.8671 22.5853 66.9694 22.5758C67.0089 22.5722 67.0476 22.5708 67.0855 22.5717C67.1632 22.5736 67.2374 22.585 67.3083 22.6059C67.3341 22.6136 67.3594 22.6225 67.3843 22.6326C67.446 22.6556 67.5031 22.688 67.5557 22.7299C67.5817 22.7505 67.6065 22.7735 67.6302 22.7987C67.6385 22.8075 67.6466 22.8165 67.6545 22.8259C67.6679 22.8415 67.6809 22.8579 67.6935 22.8751C67.6974 22.8805 67.7013 22.8859 67.7051 22.8914C67.7131 22.9027 67.7209 22.9144 67.7285 22.9264C67.7329 22.9332 67.7372 22.9401 67.7414 22.9471C67.7434 22.9505 67.7455 22.9539 67.7475 22.9573C67.78 23.0125 67.8095 23.0739 67.836 23.1416C67.8429 23.159 67.8495 23.1769 67.856 23.1953L69.0369 26.5451C69.1703 26.9233 69.3463 27.1497 69.565 27.2245C69.6198 27.2398 69.68 27.2489 69.7456 27.252C69.8558 27.2571 69.9813 27.2449 70.1221 27.2153C70.2405 27.1905 70.3697 27.1534 70.5096 27.1041C70.7078 27.0342 70.8831 26.9572 71.0357 26.8731C71.1914 26.7979 71.314 26.7294 71.4036 26.6674L69.9036 22.4127C69.748 21.9714 69.5397 21.6247 69.2787 21.3725C69.0235 21.1081 68.741 20.9243 68.4312 20.8209C68.3412 20.7886 68.2496 20.7623 68.1564 20.742C68.1349 20.7373 68.1134 20.733 68.0917 20.7289C67.8803 20.6896 67.6606 20.6807 67.4326 20.7021C67.0857 20.7232 66.7367 20.7956 66.3855 20.9194C66.2786 20.9571 66.1762 20.9969 66.0783 21.0388C65.7469 21.1806 65.4663 21.3467 65.2365 21.5371C65.1837 21.5788 65.1324 21.6211 65.0825 21.664C65.0742 21.6711 65.0659 21.6782 65.0577 21.6854C65.0412 21.6998 65.0248 21.7143 65.0086 21.7288C64.8052 21.9112 64.6274 22.1038 64.4751 22.3067C64.3541 22.2666 64.2318 22.2346 64.1083 22.2106C64.101 22.2092 64.0937 22.2078 64.0864 22.2065C64.074 22.2042 64.0617 22.202 64.0493 22.1998C63.829 22.1619 63.6047 22.1494 63.3765 22.1625C63.3738 22.1626 63.3712 22.1626 63.3686 22.1627C62.9999 22.1729 62.6278 22.2442 62.2523 22.3766C62.2252 22.3861 62.1982 22.3959 62.1714 22.4058C61.8051 22.5412 61.4628 22.7106 61.1448 22.9141C61.1188 22.9307 61.093 22.9476 61.0674 22.9646C61.0249 22.9929 60.9828 23.0219 60.9412 23.0514C60.8037 23.1501 60.6765 23.2509 60.5596 23.3539C60.5242 23.385 60.4898 23.4163 60.4564 23.4478C60.2883 23.606 60.1439 23.769 60.0233 23.9369C59.8919 24.1205 59.8015 24.2992 59.7521 24.4729C59.7505 24.4785 59.7489 24.4841 59.7474 24.4897C59.6992 24.6687 59.7163 24.8753 59.7988 25.1094L61.2703 29.2831C61.4036 29.6614 61.5841 29.8862 61.8118 29.9578C61.8667 29.9731 61.9268 29.9823 61.9924 29.9853ZM41.7619 35.3164C41.7895 35.1829 41.8115 35.0461 41.8278 34.906C41.8284 34.9006 41.829 34.8952 41.8296 34.8898C41.8579 34.6401 41.8683 34.3798 41.8609 34.1091C41.8484 33.3846 41.6898 32.5901 41.3851 31.7256C41.0841 30.8719 40.7132 30.1644 40.2723 29.6031C40.1012 29.383 39.9238 29.1831 39.74 29.0034C39.7317 28.9952 39.7233 28.9871 39.715 28.9791C39.6248 28.8921 39.5331 28.81 39.4399 28.7327C39.3527 28.6603 39.2641 28.5922 39.1741 28.5283C39.158 28.5168 39.1419 28.5056 39.1258 28.4944C39.0221 28.4229 38.9166 28.3569 38.8094 28.2965C38.2788 27.9976 37.7161 27.8315 37.1212 27.7983C36.5264 27.765 35.9264 27.855 35.3212 28.0684C35.3158 28.0703 35.3104 28.0722 35.305 28.0741C34.696 28.2909 34.1722 28.5971 33.7336 28.9926C33.2911 29.3915 32.957 29.8738 32.7312 30.4394C32.6774 30.574 32.6304 30.7132 32.5901 30.8569C32.5887 30.862 32.5872 30.8671 32.5858 30.8723C32.552 30.9947 32.5231 31.1204 32.499 31.2493C32.4335 31.6003 32.4042 31.9753 32.4111 32.3745C32.4306 33.0844 32.5908 33.8662 32.8917 34.7199C33.1965 35.5844 33.5658 36.3046 33.9997 36.8805C34.2453 37.2033 34.5055 37.4832 34.7803 37.7204C34.8668 37.795 34.9548 37.8654 35.0442 37.9316C35.0604 37.9435 35.0766 37.9554 35.0928 37.967C35.2013 38.045 35.3118 38.1167 35.4245 38.1823C35.955 38.4812 36.5178 38.6473 37.1126 38.6806C37.7131 38.7098 38.3239 38.6159 38.945 38.399C38.9504 38.3971 38.9558 38.3952 38.9612 38.3933C39.5772 38.1762 40.1064 37.8681 40.5489 37.4692C41.0022 37.0664 41.3363 36.5841 41.5513 36.0223C41.598 35.9055 41.6394 35.7856 41.6756 35.6626C41.677 35.6576 41.6785 35.6527 41.6799 35.6477C41.7113 35.5396 41.7386 35.4292 41.7619 35.3164ZM36.0614 35.3274C36.2408 35.6247 36.4284 35.8664 36.6244 36.0523C36.6331 36.0606 36.6419 36.0688 36.6506 36.0769C36.6594 36.0849 36.6681 36.0929 36.6769 36.1007C36.8536 36.2506 37.0353 36.3602 37.2221 36.4293C37.2274 36.4313 37.2328 36.4333 37.2382 36.4352C37.5598 36.55 37.8964 36.5455 38.2479 36.4216C38.2533 36.4197 38.2587 36.4177 38.2641 36.4158C38.6076 36.2912 38.8672 36.0856 39.0429 35.7989C39.0459 35.7941 39.0488 35.7892 39.0518 35.7843C39.1539 35.6133 39.2267 35.414 39.2703 35.1864C39.2726 35.1749 39.2748 35.1634 39.2769 35.1518C39.279 35.1401 39.281 35.1284 39.283 35.1166C39.3283 34.8427 39.3293 34.5304 39.2861 34.1797C39.285 34.1709 39.2839 34.1622 39.2827 34.1534C39.2244 33.7008 39.0931 33.1849 38.8889 32.6056C38.6922 32.0475 38.4754 31.5791 38.2385 31.2004C38.2362 31.1967 38.2339 31.193 38.2315 31.1892C38.0355 30.8779 37.8259 30.6278 37.6025 30.4389C37.5912 30.4293 37.5798 30.4198 37.5684 30.4106C37.3798 30.2497 37.1886 30.1322 36.9949 30.0583C36.6763 29.9366 36.3508 29.9325 36.0184 30.0459C36.013 30.0478 36.0076 30.0496 36.0022 30.0516C35.6696 30.1688 35.416 30.3733 35.2416 30.665C35.1327 30.8472 35.0546 31.0633 35.0074 31.3134C35.0054 31.3242 35.0035 31.3351 35.0017 31.346C34.9548 31.6261 34.954 31.9453 34.9992 32.3036C35.0003 32.3124 35.0014 32.3212 35.0026 32.33C35.0611 32.7739 35.1895 33.2772 35.3879 33.8399C35.5957 34.4294 35.818 34.9217 36.0549 35.3166C36.0571 35.3202 36.0593 35.3238 36.0614 35.3274Z" fill="#2C2C2C"/>
</svg>
