<svg width="166" height="166" viewBox="0 0 166 166" fill="none" xmlns="http://www.w3.org/2000/svg">
<g filter="url(#filter0_d)">
<path d="M81.4776 4.84598C82.1543 3.9122 83.5457 3.9122 84.2224 4.84598L94.4142 18.9101C94.9341 19.6276 95.919 19.8235 96.6739 19.3596L111.472 10.2663C112.454 9.66252 113.74 10.195 114.008 11.3166L118.042 28.2105C118.247 29.0723 119.082 29.6302 119.957 29.4905L137.109 26.7523C138.248 26.5705 139.232 27.5544 139.05 28.6932L136.312 45.8447C136.172 46.7197 136.73 47.5546 137.592 47.7604L154.485 51.7943C155.607 52.0621 156.14 53.3476 155.536 54.3301L146.443 69.1282C145.979 69.8832 146.175 70.868 146.892 71.388L160.956 81.5798C161.89 82.2564 161.89 83.6479 160.956 84.3245L146.892 94.5163C146.175 95.0363 145.979 96.0211 146.443 96.7761L155.536 111.574C156.14 112.557 155.607 113.842 154.485 114.11L137.592 118.144C136.73 118.35 136.172 119.185 136.312 120.06L139.05 137.211C139.232 138.35 138.248 139.334 137.109 139.152L119.957 136.414C119.082 136.274 118.247 136.832 118.042 137.694L114.008 154.588C113.74 155.709 112.454 156.242 111.472 155.638L96.6739 146.545C95.919 146.081 94.9341 146.277 94.4142 146.994L84.2224 161.058C83.5457 161.992 82.1543 161.992 81.4776 161.058L71.2858 146.994C70.7659 146.277 69.781 146.081 69.0261 146.545L54.228 155.638C53.2455 156.242 51.9599 155.709 51.6921 154.588L47.6582 137.694C47.4525 136.832 46.6175 136.274 45.7425 136.414L28.591 139.152C27.4522 139.334 26.4683 138.35 26.6501 137.211L29.3883 120.06C29.528 119.185 28.9701 118.35 28.1083 118.144L11.2145 114.11C10.0928 113.842 9.56035 112.557 10.1641 111.574L19.2574 96.7761C19.7213 96.0211 19.5254 95.0363 18.808 94.5163L4.7438 84.3245C3.81003 83.6479 3.81003 82.2564 4.74381 81.5798L18.808 71.388C19.5254 70.868 19.7213 69.8832 19.2574 69.1282L10.1641 54.3301C9.56035 53.3476 10.0928 52.0621 11.2145 51.7943L28.1083 47.7604C28.9701 47.5546 29.528 46.7197 29.3883 45.8447L26.6501 28.6932C26.4683 27.5544 27.4522 26.5705 28.591 26.7523L45.7425 29.4905C46.6175 29.6302 47.4525 29.0723 47.6582 28.2105L51.6921 11.3166C51.9599 10.195 53.2455 9.66252 54.228 10.2663L69.0261 19.3596C69.781 19.8235 70.7659 19.6276 71.2858 18.9101L81.4776 4.84598Z" fill="#2C2C2C"/>
</g>
<defs>
<filter id="filter0_d" x="0.653747" y="0.755797" width="164.392" height="164.392" filterUnits="userSpaceOnUse" color-interpolation-filters="sRGB">
<feFlood flood-opacity="0" result="BackgroundImageFix"/>
<feColorMatrix in="SourceAlpha" type="matrix" values="0 0 0 0 0 0 0 0 0 0 0 0 0 0 0 0 0 0 127 0"/>
<feOffset/>
<feGaussianBlur stdDeviation="1.69486"/>
<feColorMatrix type="matrix" values="0 0 0 0 0 0 0 0 0 0 0 0 0 0 0 0 0 0 0.25 0"/>
<feBlend mode="normal" in2="BackgroundImageFix" result="effect1_dropShadow"/>
<feBlend mode="normal" in="SourceGraphic" in2="effect1_dropShadow" result="shape"/>
</filter>
</defs>
</svg>
