<svg width="24" height="20" viewBox="0 0 24 20" fill="none" xmlns="http://www.w3.org/2000/svg">
<path d="M17.3635 0C21.0286 0 24 2.86591 24 6.4C24 12.2415 11.9997 20 11.9997 20C11.9997 20 0 12.5211 0 6.39995C0 1.99988 2.9715 0 6.63579 0C8.84306 0 10.7928 1.04401 11.9997 2.64246C13.2067 1.04401 15.1568 0 17.3635 0Z" fill="#FF7360"/>
<path fill-rule="evenodd" clip-rule="evenodd" d="M11.9996 5.96148L10.4036 3.84759C9.56592 2.73817 8.20146 2 6.63579 2C5.1456 2 4.00216 2.40691 3.26021 3.05561C2.5607 3.66721 2 4.68149 2 6.39995C2 7.31159 2.46804 8.50868 3.49784 9.93847C4.50022 11.3302 5.87786 12.7264 7.31967 13.9927C8.75187 15.2506 10.1929 16.3332 11.2807 17.1037C11.5365 17.2849 11.7719 17.4482 11.982 17.5917C12.1959 17.4412 12.4363 17.2697 12.698 17.0793C13.7886 16.2857 15.2337 15.1749 16.6703 13.8965C18.1166 12.6094 19.5 11.2001 20.5068 9.81398C21.5485 8.37992 22 7.22471 22 6.4C22 4.03818 19.9929 2 17.3635 2C15.7984 2 14.4336 2.73817 13.5958 3.84769L11.9996 5.96148ZM10.5558 1.24172C9.45831 0.461935 8.10402 0 6.63579 0C2.9715 0 0 1.99988 0 6.39995C0 12.5211 11.9997 20 11.9997 20C11.9997 20 24 12.2415 24 6.4C24 2.86591 21.0286 0 17.3635 0C15.8956 0 14.5413 0.461964 13.4437 1.24179C12.8912 1.63428 12.4038 2.1073 11.9997 2.64246C11.5956 2.10727 11.1082 1.63422 10.5558 1.24172Z" fill="#2C2C2C"/>
</svg>
