<svg width="141" height="140" viewBox="0 0 141 140" fill="none" xmlns="http://www.w3.org/2000/svg">
<path d="M70.0046 0C35.3995 0 7.24609 25.9872 7.24609 57.931V67.5861H16.9012V57.931C16.9012 31.3122 40.7233 9.65508 70.0046 9.65508C99.286 9.65508 123.108 31.3122 123.108 57.931V67.5861H132.763V57.931C132.763 25.9872 104.61 0 70.0046 0Z" fill="#FAF5ED"/>
<g clip-path="url(#clip0)">
<path d="M135.177 65.1729V67.5868L124.46 131.938C123.684 136.597 119.649 140.009 114.925 140H25.0839C20.3605 140.009 16.3254 136.597 15.5494 131.938L4.83203 67.5868V65.1729H135.177Z" fill="#FAF5ED"/>
<path d="M104.763 67.5868H135.176C137.835 67.5676 139.985 65.4173 140.004 62.7592C139.996 60.0962 137.839 57.9394 135.176 57.9317H4.83151C3.55073 57.9249 2.32245 58.4389 1.42804 59.3558C0.5112 60.2499 -0.00286237 61.4785 0.00397357 62.7592C0.0119033 65.4223 2.1685 67.5791 4.83151 67.5868H104.763Z" fill="#2C2C2C"/>
<path d="M113.454 57.9307L97.4509 75.7205L95.4234 73.6927L89.3164 67.586L98.9715 57.9307H113.454Z" fill="white"/>
<path d="M98.9707 57.9307L89.3156 67.586L80.8672 59.1376L82.0741 57.9307H98.9707Z" fill="#CB0B05"/>
<path d="M97.4497 75.7214L87.1668 87.1626H87.1427L78.4531 78.4489L89.3152 67.5869L95.4221 73.6936L97.4497 75.7214Z" fill="#CB0B05"/>
<path d="M80.8668 59.1376L79.6602 57.9307H82.0738L80.8668 59.1376Z" fill="#CB0B05"/>
<path d="M59.1425 59.1376L50.6944 67.586L41.0391 57.9307H57.9356L59.1425 59.1376Z" fill="#CB0B05"/>
<path d="M59.1445 59.1376L57.9375 57.9307H60.3514L59.1445 59.1376Z" fill="#CB0B05"/>
<path d="M50.6927 67.586L44.5857 73.6927L42.5582 75.7205L26.5547 57.9307H41.0373L50.6927 67.586Z" fill="white"/>
<path d="M61.5551 78.4489L52.8412 87.1626L42.5586 75.7214L44.5861 73.6936L50.6931 67.5869L61.5551 78.4489Z" fill="#CB0B05"/>
<path d="M70.0058 86.8964L60.8577 96.0448L52.8438 87.1619L61.5577 78.4482L70.0058 86.8964Z" fill="white"/>
<path d="M79.1517 96.0449L73.6001 102.224C72.6797 103.239 71.3735 103.817 70.0036 103.817C68.6337 103.817 67.3275 103.239 66.4071 102.224L60.8555 96.0449L70.0033 86.8965L79.1517 96.0449Z" fill="#CB0B05"/>
<path d="M87.1419 87.1619L79.1523 96.0448L70.0039 86.8964L78.4523 78.4482L87.1419 87.1619Z" fill="white"/>
<path d="M80.8647 59.1376L70.0027 69.9996L59.1406 59.1376L60.3476 57.9307H79.658L80.8647 59.1376Z" fill="#CB0B05"/>
<path d="M70.0122 86.9175L78.4609 78.4688L70.0122 70.02L61.5635 78.4687L70.0122 86.9175Z" fill="#CB0B05"/>
<path d="M78.4622 78.4568L89.3242 67.5947L80.8755 59.146L70.0135 70.0081L78.4622 78.4568Z" fill="white"/>
<path d="M61.5591 78.4594L70.0078 70.0107L59.1457 59.1487L50.697 67.5974L61.5591 78.4594Z" fill="white"/>
</g>
<defs>
<clipPath id="clip0">
<rect width="140" height="140" fill="white" transform="translate(0.00390625)"/>
</clipPath>
</defs>
</svg>
