<svg width="31" height="31" viewBox="0 0 31 31" fill="none" xmlns="http://www.w3.org/2000/svg">
<path d="M14.9818 0.614362C15.1085 0.439524 15.369 0.439524 15.4957 0.614362L17.404 3.2477C17.5014 3.38204 17.6858 3.41872 17.8271 3.33186L20.5979 1.62924C20.7819 1.5162 21.0226 1.6159 21.0727 1.82591L21.828 4.98907C21.8665 5.15044 22.0229 5.2549 22.1867 5.22874L25.3981 4.71605C25.6113 4.68201 25.7955 4.86624 25.7615 5.07946L25.2488 8.29087C25.2227 8.4547 25.3271 8.61103 25.4885 8.64956L28.6516 9.40485C28.8617 9.455 28.9614 9.6957 28.8483 9.87966L27.1457 12.6504C27.0588 12.7918 27.0955 12.9762 27.2299 13.0735L29.8632 14.9818C30.038 15.1085 30.038 15.369 29.8632 15.4957L27.2299 17.404C27.0955 17.5014 27.0588 17.6858 27.1457 17.8271L28.8483 20.5979C28.9614 20.7819 28.8617 21.0226 28.6516 21.0727L25.4885 21.828C25.3271 21.8665 25.2227 22.0229 25.2488 22.1867L25.7615 25.3981C25.7955 25.6113 25.6113 25.7955 25.3981 25.7615L22.1867 25.2488C22.0229 25.2227 21.8665 25.3271 21.828 25.4885L21.0727 28.6516C21.0226 28.8617 20.7819 28.9614 20.5979 28.8483L17.8271 27.1457C17.6858 27.0588 17.5014 27.0955 17.404 27.2299L15.4957 29.8632C15.369 30.038 15.1085 30.038 14.9818 29.8632L13.0735 27.2299C12.9762 27.0955 12.7918 27.0588 12.6504 27.1457L9.87966 28.8483C9.6957 28.9614 9.455 28.8617 9.40485 28.6516L8.64956 25.4885C8.61103 25.3271 8.4547 25.2227 8.29087 25.2488L5.07946 25.7615C4.86624 25.7955 4.68201 25.6113 4.71605 25.3981L5.22874 22.1867C5.2549 22.0229 5.15044 21.8665 4.98907 21.828L1.82591 21.0727C1.6159 21.0226 1.5162 20.7819 1.62924 20.5979L3.33186 17.8271C3.41872 17.6858 3.38204 17.5014 3.2477 17.404L0.614362 15.4957C0.439524 15.369 0.439524 15.1085 0.614362 14.9818L3.2477 13.0735C3.38204 12.9762 3.41872 12.7918 3.33186 12.6504L1.62924 9.87966C1.5162 9.6957 1.6159 9.455 1.82591 9.40485L4.98907 8.64956C5.15044 8.61103 5.2549 8.4547 5.22874 8.29087L4.71605 5.07946C4.68201 4.86624 4.86624 4.68201 5.07946 4.71605L8.29087 5.22874C8.4547 5.2549 8.61103 5.15044 8.64956 4.98907L9.40485 1.82591C9.455 1.6159 9.6957 1.5162 9.87966 1.62924L12.6504 3.33186C12.7918 3.41872 12.9762 3.38204 13.0735 3.2477L14.9818 0.614362Z" fill="#2C2C2C"/>
<path d="M10.085 16.8348C10.713 17.2959 11.748 18.315 12.3836 18.7658C12.4463 18.8103 13.9768 20.0915 14.5779 19.9038C14.7941 19.8364 14.893 19.5663 14.9834 19.3587C15.1623 18.9472 15.2313 18.4958 15.3752 18.0707C15.5744 17.4823 15.7831 16.8967 16.0124 16.3193C16.8668 14.1675 17.875 12.0595 19.0858 10.084" stroke="#FAF5ED" stroke-width="2.26898" stroke-linecap="round" stroke-linejoin="round"/>
</svg>
