<svg width="44" height="51" viewBox="0 0 44 51" fill="none" xmlns="http://www.w3.org/2000/svg">
<path fill-rule="evenodd" clip-rule="evenodd" d="M14.9952 30.9102C14.973 30.8834 14.9502 30.8568 14.9269 30.8303C14.5151 30.3498 13.9092 30.0189 13.1092 29.8376C12.3206 29.6589 11.6294 29.7174 11.0354 30.0129C10.9119 30.0743 10.7927 30.146 10.6776 30.2279C10.009 30.7039 9.56538 31.4244 9.34669 32.3895C9.27112 32.723 9.23662 33.0515 9.2432 33.3749C9.25271 33.8427 9.34821 34.3 9.52969 34.7467C9.53362 34.7564 9.53759 34.766 9.54161 34.7757C9.55999 34.82 9.57921 34.8642 9.59929 34.9082C9.72782 35.1904 9.89106 35.4683 10.089 35.7419C10.7063 36.5702 11.4609 37.2742 12.3529 37.8539C12.4051 37.8878 12.4577 37.9213 12.5108 37.9543C12.6943 38.0686 12.8835 38.1777 13.0782 38.2817C14.2682 38.9316 15.5535 39.4164 16.9342 39.7361C16.9595 39.742 16.9849 39.7478 17.0103 39.7535C19.8148 40.389 22.2729 40.4525 24.3846 39.9441C24.4021 39.9399 24.4196 39.9356 24.4371 39.9313C25.2222 39.7382 25.9591 39.4657 26.6478 39.1137C26.7014 39.0862 26.7546 39.0585 26.8073 39.0304C29.2813 37.7149 30.8212 35.7205 31.427 33.0472C31.6848 31.9096 31.676 30.8269 31.4007 29.7991C31.2365 29.1861 30.9776 28.5927 30.6238 28.0188C30.2137 27.3455 29.7166 26.7375 29.1327 26.1947C28.7971 25.8827 28.4328 25.5923 28.0398 25.3234C27.8413 25.1876 27.6354 25.0573 27.4223 24.9325C27.4086 24.9245 27.3948 24.9165 27.3811 24.9085C27.119 24.7566 26.846 24.613 26.562 24.4775C26.5313 24.4629 26.5005 24.4484 26.4696 24.434L26.5257 24.1863C26.5469 24.1837 26.5679 24.181 26.5889 24.1783C27.1359 24.1071 27.6464 24.0004 28.1204 23.8583C28.5718 23.723 28.9901 23.5555 29.3752 23.3559C29.7728 23.1499 30.135 22.9096 30.462 22.6351C31.3115 21.9333 31.9022 21.0817 32.2342 20.0804C32.2938 19.9007 32.345 19.7162 32.3879 19.5268C32.8167 17.6347 32.3619 15.9295 31.0237 14.4113C30.7822 14.1344 30.5191 13.8728 30.2345 13.6263C29.6992 13.1628 29.0877 12.7531 28.3999 12.3971C27.4311 11.8958 26.311 11.501 25.0397 11.2129C23.9278 10.961 22.8725 10.8456 21.8738 10.8668C20.4612 10.8968 19.1617 11.2001 17.9753 11.7765C17.9023 11.8119 17.8298 11.8484 17.7578 11.8859C17.3642 12.0903 16.9947 12.3202 16.6492 12.5755C16.6445 12.579 16.6398 12.5825 16.6351 12.586C16.0013 13.0565 15.4487 13.613 14.9771 14.2555C14.5003 14.9051 14.1064 15.6427 13.7954 16.4681C13.7084 16.6991 13.6278 16.9369 13.5538 17.1816L15.8787 17.9687C15.8865 17.943 15.8943 17.9175 15.9022 17.892C15.9649 17.6899 16.0317 17.4951 16.1025 17.3078C16.4979 16.262 17.0198 15.4478 17.668 14.8652C17.792 14.7538 17.9206 14.6509 18.0538 14.5564C18.3287 14.3585 18.6094 14.1986 18.8958 14.0768C18.8963 14.0766 18.8968 14.0764 18.8973 14.0762C19.6244 13.7673 20.3886 13.7037 21.1898 13.8852C22.32 14.1413 23.1532 14.6773 23.6893 15.493C23.7938 15.652 23.8831 15.8177 23.9572 15.9901C24.179 16.5064 24.2643 17.0827 24.2133 17.7191C24.2081 17.7836 24.2015 17.8488 24.1936 17.9146C24.1717 18.0947 24.1393 18.2796 24.0964 18.469C24.0045 18.8745 23.8877 19.2512 23.746 19.5992C23.4305 20.3738 22.9916 21.006 22.4292 21.4957C22.1869 21.7037 21.9322 21.8696 21.665 21.9935C21.181 22.218 20.6562 22.3045 20.0904 22.2531C19.9707 22.2422 19.8492 22.2252 19.7258 22.202C19.6751 22.1924 19.6241 22.1819 19.5728 22.1702L18.6394 21.9587L18.0136 24.7207L19.0993 24.9668C19.2207 24.9943 19.3393 25.0244 19.455 25.0572C19.8736 25.1758 20.2553 25.3289 20.6 25.5165C21.4064 25.9554 22.0108 26.5832 22.4131 27.3999C22.6114 27.7953 22.7592 28.2151 22.8564 28.6593C22.9631 29.1467 23.009 29.6634 22.9941 30.2095C22.9791 30.7585 22.9027 31.3371 22.7649 31.9455C22.6915 32.2691 22.6086 32.5761 22.5162 32.8664C22.5086 32.8904 22.5009 32.9142 22.4931 32.938C22.4567 33.0494 22.4188 33.1583 22.3795 33.2648C22.3611 33.3147 22.3423 33.3641 22.3233 33.413C22.3087 33.4502 22.294 33.4871 22.2791 33.5237C21.9021 34.4491 21.4077 35.1695 20.7961 35.6849C19.9046 36.4493 18.8902 36.7132 17.7529 36.4765C17.7275 36.4713 17.7021 36.4657 17.6765 36.46C17.0797 36.3247 16.6501 36.0405 16.3878 35.6072C16.1411 35.1641 15.9815 34.6607 15.909 34.0968C15.901 34.0218 15.8927 33.9466 15.8843 33.8714C15.8843 33.8713 15.8843 33.8716 15.8843 33.8714C15.862 33.6731 15.838 33.4738 15.8125 33.2747C15.8087 33.2452 15.8049 33.2156 15.8011 33.1861C15.7672 32.9265 15.7307 32.6662 15.6915 32.4054C15.6634 32.2188 15.617 32.0367 15.5521 31.8591C15.5493 31.8513 15.5464 31.8436 15.5435 31.8359C15.4221 31.5123 15.2394 31.2037 14.9952 30.9102ZM14.6676 5.93719C18.4386 3.97653 22.548 3.77492 26.5211 4.67523C30.0904 5.48402 33.5243 7.08738 36.0637 9.99148C38.7447 13.0403 39.8525 16.918 38.9256 21.0082C38.5492 22.6695 37.8592 24.1829 36.8953 25.5088C38.3266 28.3311 38.6657 31.4351 37.9647 34.5286C36.8919 39.263 33.9763 42.8932 29.702 45.0809L29.6986 45.0827C25.294 47.3338 20.3466 47.3829 15.5289 46.2912C13.5526 45.8434 11.6645 45.1444 9.8911 44.1791C7.86945 43.094 6.10871 41.6192 4.71389 39.7475L4.68562 39.7095L4.65789 39.6712C2.8609 37.1874 2.0812 34.1199 2.80899 30.9081C3.31311 28.6833 4.51448 26.3869 6.78988 24.767C7.95964 23.9342 9.20153 23.4399 10.4394 23.2043L5.25884 21.4503L7.13757 15.2404C8.34237 11.258 10.822 7.93622 14.6637 5.93922C14.665 5.93854 14.6663 5.93786 14.6676 5.93719Z" fill="white"/>
<path d="M17.0127 39.7539C15.6031 39.4345 14.2924 38.9439 13.0805 38.2821C11.8658 37.6331 10.8694 36.7865 10.0913 35.7423C9.32885 34.6884 9.0814 33.5709 9.34902 32.3899C9.56771 31.4248 10.0114 30.7043 10.68 30.2283C11.3486 29.7523 12.1591 29.6222 13.1115 29.838C13.9115 30.0193 14.5174 30.3502 14.9292 30.8307C15.3537 31.314 15.6086 31.8391 15.6938 32.4058C15.779 32.9725 15.8515 33.5363 15.9113 34.0972C15.9838 34.661 16.1434 35.1645 16.3901 35.6076C16.6524 36.0408 17.082 36.3251 17.6789 36.4603C18.8472 36.7251 19.887 36.4667 20.7984 35.6853C21.7225 34.9067 22.3787 33.6602 22.7672 31.9459C23.1672 30.1807 23.0499 28.6655 22.4154 27.4003C21.7936 26.1379 20.689 25.3269 19.1017 24.9672L18.0159 24.7211L18.6418 21.9591L19.5751 22.1706C20.6672 22.4181 21.6194 22.1933 22.4315 21.4961C23.2466 20.7863 23.8023 19.7774 24.0987 18.4694C24.3634 17.3011 24.2277 16.3091 23.6916 15.4934C23.1555 14.6776 22.3224 14.1417 21.1922 13.8856C20.0747 13.6324 19.0293 13.8561 18.0561 14.5568C17.0858 15.2448 16.3608 16.3823 15.8811 17.9691L13.5561 17.1819C14.3008 14.7205 15.7021 12.9553 17.7601 11.8863C19.8336 10.8075 22.2609 10.5831 25.042 11.2133C27.696 11.8147 29.6907 12.8809 31.0261 14.4117C32.3643 15.9299 32.819 17.6351 32.3902 19.5272C32.1082 20.7717 31.4663 21.8078 30.4643 22.6355C29.475 23.466 28.163 23.9831 26.5281 24.1867L26.4719 24.4344C28.3072 25.2908 29.692 26.4858 30.6262 28.0192C31.5731 29.5555 31.8408 31.2316 31.4293 33.0476C30.8106 35.7778 29.2176 37.8 26.6502 39.114C24.0983 40.4183 20.8858 40.6316 17.0127 39.7539Z" fill="#2C2C2C"/>
</svg>
