<svg width="42" height="48" viewBox="0 0 42 48" fill="none" xmlns="http://www.w3.org/2000/svg">
<path fill-rule="evenodd" clip-rule="evenodd" d="M34.5781 21.6152C35.0513 19.494 35.0981 17.3357 34.7424 15.1849C34.0399 10.9369 31.693 7.44887 27.7896 5.39391C24.2698 3.53198 20.3796 3.16405 16.4853 3.80805C12.2008 4.51659 8.40253 6.49487 5.75273 10.0609C3.06673 13.675 2.34651 17.9329 3.0597 22.2456L3.91796 27.4354L10.9388 27.2057C10.0586 28.2969 9.01668 29.4346 7.79635 30.6166L5.5382 32.8038L7.82033 46.6038L26.2651 43.5536C27.0315 43.4268 27.5552 43.3854 27.8799 43.3792L29.13 44.0894L36.2871 42.9059L38.7686 22.832L34.5781 21.6152ZM32.1868 27.1687L30.2321 26.6011C30.1701 26.7045 30.1083 26.8055 30.0467 26.9041C29.9524 27.0552 29.8585 27.2007 29.765 27.3407C29.761 27.3468 29.7569 27.3529 29.7528 27.359C29.4533 27.8063 29.1584 28.1963 28.8682 28.5291C28.4245 29.038 27.5129 29.6309 26.1335 30.3077C26.0022 30.3712 25.8677 30.4332 25.7301 30.4938C25.5867 30.5568 25.4399 30.6183 25.2897 30.6781C25.283 30.6808 25.2762 30.6835 25.2695 30.6862C24.8942 30.835 24.4975 30.9739 24.0796 31.1027C23.6249 31.2429 23.145 31.3712 22.6398 31.4878C22.1191 31.6079 21.5716 31.7154 20.9973 31.8104L19.0511 32.1322L19.0192 31.9395C19.6442 31.4753 20.2356 31.0214 20.7935 30.5778C21.5844 29.9489 22.3079 29.3408 22.9641 28.7533C22.965 28.7525 22.966 28.7516 22.9669 28.7508C23.0658 28.6623 23.163 28.5743 23.2588 28.4867C23.7166 28.0625 24.1606 27.6216 24.591 27.1641C24.5959 27.1589 24.6008 27.1537 24.6057 27.1484C24.8053 26.936 25.0019 26.7199 25.1955 26.5003C25.39 26.2797 25.5815 26.0555 25.7701 25.8276C26.0264 25.518 26.2771 25.2016 26.5224 24.8786C26.6108 24.7635 26.6967 24.6479 26.7803 24.5317C27.6525 23.3197 28.2672 22.0459 28.6244 20.7102C28.6921 20.4536 28.75 20.1958 28.7981 19.9369C29.027 18.7058 29.0352 17.4481 28.8228 16.1638C28.4064 13.6459 27.1286 11.8248 24.9894 10.7004C24.1729 10.2679 23.3001 9.95358 22.371 9.75759C20.8804 9.44318 19.2448 9.4332 17.4643 9.72765C16.5577 9.87757 15.7167 10.0992 14.9413 10.3927C13.1235 11.0806 11.6659 12.1629 10.5687 13.6395C10.3436 13.9424 10.14 14.2547 9.95784 14.5764C9.83461 14.7941 9.72121 15.0162 9.61766 15.2425C9.23281 16.0838 8.98381 16.9848 8.87066 17.9455C8.7485 18.9829 8.78471 20.0899 8.97931 21.2666L11.8147 21.1739C11.7942 21.0503 11.7756 20.928 11.7589 20.807C11.6239 19.8305 11.6092 18.9365 11.7149 18.125C11.8222 17.3012 12.0536 16.5625 12.4089 15.9087C12.5291 15.6877 12.6561 15.4816 12.7901 15.2906C12.7901 15.2905 12.79 15.2907 12.7901 15.2906C13.4909 14.2911 14.3807 13.702 15.4591 13.5236C16.478 13.3551 17.3875 13.5481 18.1877 14.1025C18.2955 14.1772 18.4014 14.2585 18.5052 14.3463C18.8917 14.6731 19.2158 15.067 19.4776 15.5279C19.8081 16.1099 20.0392 16.7988 20.1708 17.5946C20.4998 19.5844 20.4072 21.5175 19.893 23.394C19.7968 23.7449 19.6858 24.0939 19.5601 24.4409C19.5554 24.454 19.5506 24.4671 19.5458 24.4802C19.3485 25.0198 19.1156 25.5546 18.8469 26.0845C18.8125 26.1524 18.7775 26.2203 18.7419 26.288C18.716 26.3372 18.6898 26.3864 18.6633 26.4356C18.5689 26.6111 18.4716 26.7868 18.3715 26.9626C18.3266 27.0413 18.2812 27.12 18.2352 27.1987C17.8518 27.8554 17.4285 28.514 16.9652 29.1744C16.1319 30.3624 15.1695 31.5565 14.0779 32.7567C14.0072 32.8345 13.9359 32.9122 13.8641 32.99C13.6999 33.168 13.5329 33.346 13.363 33.5243C13.3168 33.5727 13.2704 33.6211 13.2239 33.6696C12.8217 34.0878 12.404 34.5068 11.9707 34.9265L12.761 39.7053L25.2862 37.634C26.4004 37.4497 27.3545 37.3651 28.1487 37.3801C28.7018 37.3906 29.1772 37.4494 29.5751 37.5565C29.8312 37.6254 30.0551 37.7143 30.2468 37.8233L30.8827 37.7181L32.1868 27.1687Z" fill="white"/>
<path d="M30.232 26.6018L32.1867 27.1694L30.8826 37.7188L30.2467 37.824C29.3291 37.3027 27.6755 37.2396 25.2861 37.6347L12.7609 39.706L11.9706 34.9272C14.9283 32.0625 17.1592 29.2322 18.6633 26.4363C20.1781 23.6255 20.6805 20.6785 20.1707 17.5953C19.9349 16.1694 19.3797 15.0866 18.5051 14.347C17.6305 13.6074 16.6151 13.3332 15.459 13.5244C14.1743 13.7368 13.1576 14.5318 12.4088 15.9095C11.66 17.2871 11.4619 19.0421 11.8146 21.1746L8.97921 21.2674C8.48422 18.2742 9.01402 15.7318 10.5686 13.6402C12.1339 11.5337 14.4324 10.2298 17.4642 9.72839C20.3546 9.25039 22.863 9.57465 24.9893 10.7012C27.1285 11.8255 28.4063 13.6467 28.8227 16.1645C29.0798 17.719 29.0136 19.2344 28.6243 20.711C28.2329 22.1746 27.5322 23.5641 26.5223 24.8793C25.5253 26.1924 24.4374 27.3951 23.2587 28.4875C22.0779 29.567 20.6647 30.7179 19.0191 31.9403L19.051 32.133L20.9972 31.8111C23.0527 31.4712 24.7647 30.9703 26.1334 30.3085C27.5128 29.6316 28.4244 29.0388 28.8681 28.5299C29.3119 28.021 29.7665 27.3783 30.232 26.6018Z" fill="#2C2C2C"/>
</svg>
