<svg width="38" height="47" viewBox="0 0 38 47" fill="none" xmlns="http://www.w3.org/2000/svg">
<path fill-rule="evenodd" clip-rule="evenodd" d="M10.4725 45.7136L5.50565 33.2037L9.47774 31.2702L8.28563 24.0615L6.59785 24.3406L2.22069 11.9297L16.4825 2.74252L26.9899 1.00488L31.3963 27.6504L35.8601 28.2387L35.0474 41.6496L10.4725 45.7136ZM11.05 16.8099L13.8056 16.3542L16.4345 32.2515C16.7404 34.0264 16.0605 35.3821 14.395 36.3188C14.2784 36.3844 14.1569 36.4479 14.0306 36.5094L14.7092 38.2185L28.6796 35.9082L28.7911 34.0684C28.6443 34.0491 28.5019 34.026 28.3639 33.999C26.4955 33.6344 25.4159 32.5728 25.1251 30.8144L21.47 8.71221L18.9457 9.12966L10.3045 14.6961L11.05 16.8099Z" fill="white"/>
<path d="M14.7074 38.2176L14.0288 36.5086C15.9587 35.5691 16.76 34.1498 16.4327 32.2507L13.8037 16.3533L11.0482 16.809L10.3027 14.6953L18.9439 9.12883L21.4682 8.71138L25.1233 30.8135C25.4356 32.702 26.6576 33.7866 28.7893 34.0676L28.6778 35.9073L14.7074 38.2176Z" fill="#2C2C2C"/>
</svg>
