<svg width="43" height="48" viewBox="0 0 43 48" fill="none" xmlns="http://www.w3.org/2000/svg">
<path d="M24.8508 11.0977C27.868 11.7814 30.0535 13.3521 31.4071 15.8096C32.7633 18.2558 33.0465 21.2218 32.2566 24.7076C31.1689 29.5078 28.8754 32.8151 25.3762 34.6297C21.877 36.4442 17.7044 36.8024 12.8585 35.7043L13.3907 33.3557C15.2422 33.7752 17.0078 33.4603 18.6874 32.4111C20.3785 31.3644 21.8198 29.5642 23.0113 27.0104L22.8742 26.9794C21.6893 27.6481 20.2295 27.7799 18.4949 27.3748C16.0605 26.8232 14.3776 25.6068 13.4461 23.7255C12.526 21.8468 12.3314 19.736 12.8623 17.393C13.4243 14.9129 14.8251 13.0795 17.0646 11.8928C19.3067 10.6946 21.9021 10.4296 24.8508 11.0977ZM22.2024 24.3759C22.511 24.4458 22.8613 24.4111 23.2534 24.2716C23.6569 24.1347 24.0152 23.8795 24.3281 23.5058C24.5862 22.579 24.7735 21.8584 24.8901 21.3441C25.4883 18.704 25.744 16.8334 25.657 15.7323C25.5841 14.6223 25.1134 13.9689 24.2448 13.7721C23.399 13.5805 22.6998 13.9087 22.1472 14.7567C21.606 15.6074 21.0997 17.0727 20.6283 19.1528C20.2684 20.7414 20.2029 21.9582 20.432 22.8032C20.6751 23.6393 21.2653 24.1635 22.2024 24.3759Z" fill="#2C2C2C"/>
<path fill-rule="evenodd" clip-rule="evenodd" d="M25.131 20.2413C24.8122 20.3294 24.4993 20.3821 24.1991 20.4064L21.834 19.8705L21.7162 19.937C21.7149 19.9364 21.7136 19.9357 21.7124 19.9351C21.3397 19.7522 20.9669 19.5124 20.6172 19.2098C20.5367 19.5702 20.4715 19.9113 20.4216 20.2331C20.4167 20.2651 20.4118 20.2969 20.4072 20.3285C20.3883 20.4567 20.3719 20.5817 20.358 20.7035C20.3504 20.7703 20.3436 20.8361 20.3374 20.9009C20.3375 20.9008 20.3374 20.901 20.3374 20.9009C20.2835 21.4735 20.2878 21.9728 20.3504 22.3983C20.358 22.4501 20.3665 22.5008 20.3758 22.5505C20.3924 22.6383 20.4116 22.7228 20.4336 22.8038C20.5644 23.2538 20.7958 23.6135 21.1278 23.8828C21.4125 24.1139 21.7713 24.2784 22.204 24.3765C22.5126 24.4464 22.8629 24.4117 23.255 24.2722C23.3434 24.2422 23.4295 24.2066 23.5135 24.1653C23.5693 24.1378 23.6242 24.1079 23.6781 24.0754C23.9136 23.9336 24.1308 23.7439 24.3297 23.5064C24.5458 22.7303 24.7123 22.0989 24.8292 21.612C24.8367 21.5805 24.8441 21.5496 24.8512 21.5193C24.8655 21.4587 24.879 21.4005 24.8916 21.3447C24.9495 21.0894 25.0041 20.8414 25.0556 20.6005C25.0815 20.4789 25.1067 20.3592 25.131 20.2413ZM15.6808 26.2361C15.0211 25.807 14.4668 25.2847 14.0178 24.6692C14.0049 24.6516 13.9922 24.634 13.9795 24.6162C13.7811 24.3382 13.6038 24.0415 13.4477 23.7261C12.5276 21.8474 12.333 19.7366 12.8639 17.3936C13.2902 15.5126 14.1989 14.0036 15.5901 12.8666C16.0332 12.5044 16.5252 12.18 17.0662 11.8933C17.1728 11.8363 17.2803 11.7815 17.3886 11.7287C17.4101 11.7182 17.4317 11.7078 17.4533 11.6974C19.6055 10.668 22.0719 10.4682 24.8524 11.0983C27.6564 11.7337 29.7421 13.1351 31.1093 15.3026C31.1238 15.3256 31.1383 15.3488 31.1527 15.372C31.2411 15.5148 31.3264 15.6609 31.4087 15.8102C31.7809 16.4816 32.0723 17.1922 32.2829 17.9419C32.8395 19.9237 32.8313 22.1791 32.2582 24.7082C31.3271 28.8171 29.5126 31.8322 26.8145 33.7535C26.3606 34.0767 25.8817 34.3689 25.3778 34.6302C24.0156 35.3366 22.5514 35.8223 20.9851 36.0872C20.9788 36.0883 20.9724 36.0894 20.966 36.0905C20.5213 36.1652 20.0685 36.2221 19.6074 36.2612C17.5257 36.4379 15.2766 36.2525 12.8601 35.7049L13.3923 33.3562C14.1223 33.5217 14.839 33.5729 15.5423 33.51C16.0847 33.4615 16.619 33.3451 17.1454 33.1608C17.16 33.1557 17.1745 33.1505 17.189 33.1453C17.6964 32.964 18.1964 32.7194 18.689 32.4117C19.3398 32.0089 19.9535 31.4945 20.5303 30.8686C20.6219 30.7691 20.7127 30.6669 20.8024 30.5617C21.2477 30.0405 21.67 29.45 22.0693 28.7902C22.3013 28.4069 22.5255 28.0001 22.742 27.57C22.8151 27.4249 22.8872 27.2771 22.9585 27.1266C22.9767 27.0883 22.9948 27.0497 23.0129 27.011L22.8757 26.9799C22.4517 27.2192 21.9925 27.3898 21.4981 27.4916C20.6109 27.6743 19.6104 27.6356 18.4965 27.3754C17.4075 27.1287 16.469 26.7489 15.6808 26.2361ZM7.85262 27.4703C7.7086 27.2212 7.57104 26.9647 7.44027 26.7006L7.43381 26.6875L7.4274 26.6744C5.73627 23.2213 5.50992 19.5146 6.32621 15.9122C7.31733 11.5383 9.95043 8.08136 13.9165 5.9759C17.8368 3.88429 22.1294 3.6079 26.3338 4.56061C31.0015 5.61831 34.8964 8.25358 37.2757 12.5677C39.6292 16.8179 39.8449 21.5603 38.7959 26.1896C37.3898 32.3951 34.1394 37.638 28.4636 40.5812C23.2237 43.2983 17.3551 43.5969 11.3786 42.2426L4.84093 40.7612L7.85262 27.4703ZM25.6407 16.979C25.6796 16.4897 25.6856 16.0743 25.6586 15.7329C25.5857 14.6229 25.1149 13.9695 24.2463 13.7727C23.4006 13.581 22.7014 13.9093 22.1488 14.7573C21.9417 15.0827 21.7398 15.498 21.5431 16.0032C21.5358 16.0219 21.5285 16.0406 21.5213 16.0595C21.3588 16.483 21.1998 16.968 21.0443 17.5146C21.0004 17.669 20.9568 17.8283 20.9134 17.9925C20.9448 17.9803 20.9765 17.9683 21.0086 17.9567C21.0212 17.9521 21.0339 17.9476 21.0466 17.9431C21.0643 17.937 21.0827 17.9309 21.1019 17.9246C21.5271 17.7863 22.3242 17.6107 23.3401 17.7722C23.4526 17.7901 23.5678 17.8121 23.6854 17.8388C24.0262 17.916 24.6005 18.1099 25.2097 18.5667C25.2805 18.6476 25.3432 18.7313 25.4004 18.8174C25.4053 18.7881 25.4102 18.7589 25.4151 18.7299C25.5216 18.0898 25.5954 17.5232 25.6365 17.0301C25.6379 17.013 25.6393 16.996 25.6407 16.979Z" fill="white"/>
</svg>
