<svg width="42" height="48" viewBox="0 0 42 48" fill="none" xmlns="http://www.w3.org/2000/svg">
<path d="M21.4382 20.2308C24.3869 20.8989 26.5495 22.146 27.9261 23.9719C29.3142 25.8004 29.7427 27.8862 29.2118 30.2291C28.6006 32.9264 27.1956 34.885 24.9966 36.105C22.7976 37.3249 20.0352 37.5581 16.7093 36.8045C15.4636 36.5222 14.291 36.0762 13.1915 35.4666C12.0894 34.8684 11.1908 34.088 10.4957 33.1255C9.81205 32.1655 9.58935 31.1598 9.82761 30.1083C10.0193 29.2626 10.4287 28.6224 11.0559 28.1877C11.683 27.7531 12.3681 27.6199 13.111 27.7883C13.9339 27.9747 14.5363 28.2855 14.9184 28.7205C15.3004 29.1556 15.5241 29.6268 15.5893 30.1342C15.6546 30.6417 15.7269 31.1447 15.8061 31.6433C15.8994 32.133 16.1657 32.6019 16.6049 33.0499C17.0441 33.4979 17.7094 33.8229 18.6009 34.0249C19.7209 34.2787 20.7077 34.1658 21.5614 33.6864C22.429 33.1981 22.9975 32.3596 23.2668 31.171C23.5388 29.971 23.2563 28.8315 22.4193 27.7527C21.5849 26.6624 20.2763 25.9153 18.4933 25.5113C16.6876 25.1021 14.9559 25.2144 13.2983 25.8481L11.5345 24.9618L14.9647 9.82408L27.0509 12.5628C28.5938 12.9124 29.7393 12.8416 30.4875 12.3502L31.0532 12.4784L28.607 18.8993L16.5286 16.1263L15.6273 20.1036C17.2726 19.6834 19.2096 19.7257 21.4382 20.2308Z" fill="#2C2C2C"/>
<path fill-rule="evenodd" clip-rule="evenodd" d="M21.6036 26.9133C21.9136 27.1658 22.186 27.4454 22.4209 27.7523C22.4823 27.8315 22.5408 27.9111 22.5963 27.991C22.6005 27.997 22.6047 28.0031 22.6088 28.0091C22.796 28.2809 22.9485 28.5565 23.0665 28.8358C23.3837 29.5868 23.451 30.365 23.2684 31.1706C23.1747 31.5842 23.0448 31.9554 22.8786 32.2842C22.5673 32.9003 22.1287 33.3676 21.5629 33.686C20.7093 34.1654 19.7225 34.2783 18.6024 34.0245C18.1549 33.9231 17.7643 33.7906 17.4308 33.6272C17.0999 33.4652 16.8252 33.2726 16.6065 33.0495C16.3848 32.8234 16.2072 32.592 16.0737 32.3553C16.0141 32.2497 15.9633 32.1431 15.9212 32.0354C15.8708 31.9061 15.8329 31.7752 15.8077 31.6429C15.7978 31.5807 15.788 31.5184 15.7784 31.456C15.7519 31.2853 15.7262 31.114 15.7014 30.9423C15.6977 30.9167 15.694 30.891 15.6903 30.8654C15.6555 30.6226 15.6224 30.3787 15.5909 30.1338C15.5671 29.9489 15.5223 29.7687 15.4564 29.5934C15.4516 29.5805 15.4466 29.5676 15.4415 29.5547C15.3264 29.2631 15.1525 28.9849 14.92 28.7201C14.7296 28.5034 14.4846 28.3175 14.1848 28.1625C13.8829 28.0063 13.5255 27.8814 13.1125 27.7879C13.0163 27.7661 12.9209 27.7493 12.8266 27.7376C12.6677 27.7179 12.5116 27.7126 12.3582 27.7217C11.9 27.7487 11.4664 27.9039 11.0574 28.1873C11.0558 28.1885 11.0542 28.1896 11.0525 28.1907C10.4281 28.6253 10.0203 29.2644 9.82919 30.1079C9.76973 30.3703 9.73897 30.6299 9.73694 30.8866C9.73504 31.1248 9.75787 31.3606 9.80543 31.594C9.8709 31.9152 9.98322 32.2317 10.1424 32.5436C10.17 32.5977 10.199 32.6516 10.2294 32.7055C10.2462 32.7351 10.2634 32.7647 10.281 32.7942C10.3471 32.9051 10.4192 33.0154 10.4973 33.1251C10.8067 33.5536 11.1564 33.946 11.5465 34.3022C12.0327 34.7463 12.5815 35.1343 13.193 35.4662C13.397 35.5793 13.6035 35.6868 13.8125 35.7886C14.7302 36.2357 15.6963 36.5742 16.7109 36.8041C17.1224 36.8973 17.5252 36.9755 17.9195 37.0385C19.9475 37.3627 21.7472 37.2872 23.3188 36.8121C23.3198 36.8118 23.3207 36.8115 23.3217 36.8112C23.9128 36.6322 24.4716 36.3967 24.9982 36.1046C26.5703 35.2324 27.7366 33.9827 28.4971 32.3554C28.8004 31.7066 29.0392 30.9977 29.2134 30.2287C29.5693 28.6582 29.4941 27.2032 28.9877 25.8638C28.7386 25.2051 28.3853 24.5743 27.9277 23.9715C27.8586 23.8799 27.7876 23.7897 27.7146 23.701C27.7053 23.6897 27.6959 23.6784 27.6865 23.6672C27.6419 23.6135 27.5965 23.5604 27.5504 23.5079C26.3411 22.1294 24.6298 21.1205 22.4167 20.4812C22.1012 20.3901 21.7756 20.3065 21.4398 20.2304C20.86 20.099 20.2999 19.9989 19.7595 19.9301C19.6911 19.9214 19.623 19.9132 19.5552 19.9055C18.3558 19.7692 17.2555 19.7901 16.2544 19.9682C16.0414 20.0061 15.8329 20.0511 15.6289 20.1032L16.5302 16.1259L28.6086 18.8989L31.0548 12.478L30.4891 12.3498C30.3588 12.4354 30.2164 12.5082 30.062 12.5683C29.3298 12.8531 28.3266 12.8511 27.0525 12.5624L14.9663 9.82369L11.5361 24.9614L13.2999 25.8477C13.3913 25.8127 13.483 25.7794 13.5749 25.7476C13.7766 25.6778 13.9793 25.6157 14.1832 25.5612C15.0852 25.3202 16.0084 25.2288 16.953 25.2871C17.3956 25.3144 17.8428 25.3746 18.2948 25.4676C18.3614 25.4813 18.4281 25.4958 18.4949 25.5109C18.5159 25.5157 18.5369 25.5205 18.5578 25.5253C19.1297 25.6584 19.6522 25.8271 20.1252 26.0317C20.688 26.2749 21.1808 26.5688 21.6036 26.9133ZM4.53027 25.5458L9.91002 1.80455L28.0691 5.91937L29.1913 5.18237L40.0688 7.64719L34.5959 22.0121C36.1527 25.0078 36.5134 28.3463 35.7511 31.7102C34.7653 36.0608 32.2957 39.7219 28.2502 41.9663C24.1647 44.233 19.5846 44.3287 15.2295 43.3418C13.3847 42.9238 11.624 42.2579 9.96828 41.3431C8.04466 40.2942 6.37322 38.8644 5.06267 37.0495L5.04977 37.0317L5.03698 37.0137C3.36157 34.6611 2.58922 31.7256 3.29149 28.6265C3.53189 27.5656 3.93725 26.5172 4.53027 25.5458Z" fill="white"/>
</svg>
