<svg width="43" height="48" viewBox="0 0 43 48" fill="none" xmlns="http://www.w3.org/2000/svg">
<path d="M25.2161 20.7868C27.6505 21.3384 29.3392 22.5562 30.2821 24.4401C31.225 26.3239 31.431 28.4373 30.9001 30.7803C30.3381 33.2604 28.9304 35.0982 26.6768 36.2938C24.4259 37.478 21.8261 37.736 18.8774 37.0678C15.883 36.3893 13.702 34.8257 12.3343 32.3769C10.9666 29.9282 10.6791 26.9552 11.4715 23.4579C12.5592 18.6578 14.8527 15.3504 18.352 13.5359C21.8512 11.7214 26.0238 11.3632 30.8697 12.4612L30.3336 14.827C28.4821 14.4075 26.7108 14.7211 25.0197 15.7677C23.3426 16.8056 21.907 18.6071 20.713 21.1723L20.8844 21.2111C21.3418 20.9423 21.9718 20.7606 22.7742 20.6661C23.5793 20.5601 24.3932 20.6003 25.2161 20.7868ZM18.0711 32.4333C18.1669 33.5484 18.6376 34.2018 19.4834 34.3934C20.3291 34.5851 21.0239 34.2499 21.5677 33.3878C22.1229 32.5283 22.6336 31.07 23.0998 29.0127C23.4598 27.4241 23.5182 26.2117 23.2751 25.3756C23.0346 24.5281 22.4458 23.9981 21.5086 23.7858C21.2 23.7158 20.8427 23.755 20.4366 23.9033C20.0445 24.0428 19.7003 24.2892 19.4039 24.6426C19.1458 25.5694 18.9559 26.3014 18.8342 26.8386C18.2411 29.4558 17.9868 31.3207 18.0711 32.4333Z" fill="#2C2C2C"/>
<path fill-rule="evenodd" clip-rule="evenodd" d="M29.8058 42.2215L29.7955 42.227C25.8748 44.2896 21.5913 44.5573 17.3936 43.6061C12.741 42.5518 8.86841 39.9235 6.47947 35.6462C4.09986 31.3856 3.87843 26.6243 4.9315 21.9771C6.33764 15.7716 9.58798 10.5287 15.2638 7.58553C20.5037 4.86838 26.3723 4.56986 32.3488 5.92411L38.8865 7.40555L35.8742 20.6989C36.0136 20.9391 36.1471 21.1862 36.2742 21.4403C38.0073 24.9028 38.2582 28.6317 37.4355 32.2623C36.4405 36.6533 33.788 40.1089 29.8162 42.2161L29.8058 42.2215ZM28.0428 21.9339C27.2502 21.4173 26.3073 21.0352 25.2138 20.7874C24.3909 20.6009 23.577 20.5607 22.7719 20.6666C22.5678 20.6907 22.3748 20.7204 22.193 20.7557C21.6601 20.8592 21.2231 21.0112 20.8821 21.2117L20.7106 21.1728C20.7326 21.1257 20.7546 21.0789 20.7767 21.0323C20.8656 20.8448 20.9558 20.6614 21.0474 20.4822C21.246 20.0934 21.4509 19.7242 21.662 19.3747C21.915 18.9558 22.1768 18.5652 22.4476 18.2028C22.4574 18.1897 22.4672 18.1766 22.477 18.1636C22.6159 17.9792 22.7571 17.8022 22.9007 17.6325C22.9979 17.5177 23.0962 17.4062 23.1956 17.2981C23.7674 16.676 24.3746 16.1661 25.0174 15.7683C25.5101 15.4633 26.0097 15.2206 26.5161 15.0401C27.0758 14.8406 27.6438 14.7171 28.22 14.6697C28.9118 14.6128 29.6155 14.6654 30.3313 14.8276L30.8673 12.4618C28.4508 11.9142 26.2017 11.7288 24.12 11.9055C23.6499 11.9454 23.1883 12.0038 22.7353 12.0807C22.7352 12.0807 22.7354 12.0806 22.7353 12.0807C21.1718 12.3459 19.7097 12.8312 18.3496 13.5365C17.8464 13.7974 17.3681 14.0893 16.9147 14.412C14.2157 16.3331 12.4005 19.3487 11.4692 23.4585C10.8959 25.9885 10.8878 28.2442 11.4451 30.2255C11.6581 30.9829 11.9537 31.7003 12.332 32.3775C12.4216 32.538 12.5147 32.6947 12.6113 32.8476C12.6224 32.865 12.6334 32.8824 12.6445 32.8997C14.0224 35.0498 16.0993 36.4394 18.875 37.0684C21.6748 37.7028 24.16 37.5023 26.3307 36.4668C26.3524 36.4564 26.3741 36.446 26.3958 36.4354C26.4893 36.39 26.5822 36.343 26.6745 36.2944C27.1908 36.0205 27.6627 35.7128 28.0902 35.3715C29.5287 34.223 30.4645 32.6928 30.8978 30.7809C31.4287 28.4379 31.2227 26.3245 30.2798 24.4406C30.113 24.1074 29.9228 23.795 29.7094 23.5035C29.2581 22.8871 28.7026 22.3639 28.0428 21.9339ZM23.3563 25.7444C23.3342 25.6145 23.3064 25.4918 23.2728 25.3762C23.2511 25.2996 23.2265 25.2256 23.199 25.1541C23.1078 24.9166 22.985 24.7077 22.8308 24.5275C22.5184 24.1627 22.0769 23.9156 21.5063 23.7863C21.1977 23.7164 20.8403 23.7556 20.4342 23.9039C20.3735 23.9255 20.314 23.9496 20.2556 23.9763C20.1858 24.0083 20.1177 24.0438 20.0512 24.0831C19.8138 24.2231 19.5972 24.4098 19.4016 24.6432C19.1767 25.4508 19.0036 26.1104 18.8822 26.6222C18.8796 26.6332 18.877 26.6442 18.8745 26.655C18.8594 26.7188 18.8452 26.7801 18.8319 26.8392C18.774 27.0944 18.7194 27.3425 18.668 27.5834C18.6436 27.6978 18.62 27.8105 18.597 27.9217C18.8938 27.8407 19.1854 27.7901 19.4665 27.7643L21.9898 28.3361L22.1001 28.2712C22.4493 28.4493 22.7919 28.6745 23.112 28.9489C23.193 28.5854 23.258 28.2419 23.307 27.9183C23.3102 27.8973 23.3134 27.8763 23.3164 27.8553C23.3326 27.745 23.3468 27.6369 23.3592 27.5313C23.4409 26.8324 23.44 26.2368 23.3563 25.7444ZM22.814 30.1699C22.7874 30.1803 22.7606 30.1905 22.7336 30.2005C22.7265 30.2031 22.7195 30.2057 22.7124 30.2083C22.7022 30.212 22.6916 30.2157 22.6806 30.2195C22.3097 30.3479 21.4811 30.5646 20.3876 30.3935C20.2697 30.3751 20.1487 30.3521 20.0248 30.324C19.6905 30.2483 19.1499 30.0654 18.5726 29.6524C18.4804 29.5543 18.4003 29.4512 18.328 29.3439C18.322 29.3795 18.3161 29.4149 18.3102 29.45C18.2047 30.0868 18.1317 30.6514 18.0911 31.144C18.0897 31.1608 18.0884 31.1775 18.0871 31.1942C18.0489 31.6786 18.0429 32.0918 18.0688 32.4338C18.1646 33.549 18.6353 34.2024 19.4811 34.394C20.3268 34.5857 21.0216 34.2505 21.5654 33.3884C21.7803 33.0558 21.9885 32.6334 22.19 32.1214C22.1956 32.1072 22.2012 32.0929 22.2068 32.0785C22.3681 31.664 22.5251 31.1919 22.6777 30.6622C22.7235 30.5033 22.769 30.3392 22.814 30.1699Z" fill="white"/>
</svg>
