<svg width="47" height="47" viewBox="0 0 47 47" fill="none" xmlns="http://www.w3.org/2000/svg">
<path d="M31.2354 31.9916L28.1838 31.3001L28.0245 32.003C27.6438 33.6831 28.2942 35.002 29.9757 35.9598L29.2583 37.4554L16.8293 34.639L16.8438 32.9841C18.7713 32.8561 19.921 31.9451 20.2928 30.251L20.4521 29.5481L11.4689 27.5126L11.2361 25.2789L26.9944 11.0963L32.4803 12.3394L28.8209 28.4886L32.5753 29.3394L31.2354 31.9916ZM15.2604 25.4158L21.0892 26.7366L22.9111 18.6963L22.6711 18.6419L15.2992 25.2444L15.2604 25.4158Z" fill="#2C2C2C"/>
<path fill-rule="evenodd" clip-rule="evenodd" d="M29.2596 37.4556L29.977 35.96C29.8613 35.8941 29.7504 35.8265 29.6445 35.7571C29.4951 35.6593 29.3554 35.5582 29.2254 35.4536C28.1081 34.5547 27.7083 33.4046 28.0259 32.0032L28.1851 31.3004L31.2367 31.9918L32.5766 29.3396L28.8222 28.4888L32.4816 12.3396L26.9957 11.0965L11.2374 25.2791L11.4702 27.5128L20.4534 29.5484L20.2941 30.2512C20.2895 30.2726 20.2847 30.2937 20.2797 30.3148C19.959 31.6867 19.1161 32.533 17.7509 32.8535C17.58 32.8936 17.4008 32.9255 17.2135 32.9491C17.0941 32.9642 16.9712 32.976 16.8451 32.9843L16.8306 34.6392L29.2596 37.4556ZM22.9124 18.6965L22.6724 18.6421L15.3006 25.2446L15.2617 25.416L21.0905 26.7368L22.9124 18.6965ZM10.1317 34.0829L5.30121 32.9883L4.21621 22.5796L25.0915 3.79167L40.5007 7.28338L36.8414 23.4326L42.4314 24.6993L38.2571 32.9617L38.7227 33.227L32.9917 45.1747L10.08 39.9829L10.1317 34.0829ZM33.2929 30.1341C33.2929 30.1341 33.2935 30.1344 33.2949 30.1352L33.2929 30.1341Z" fill="white"/>
</svg>
