<svg width="43" height="48" viewBox="0 0 43 48" fill="none" xmlns="http://www.w3.org/2000/svg">
<path d="M18.3442 36.9483C15.5098 36.306 13.3589 35.1397 11.8915 33.4494C10.4381 31.7503 9.9341 29.9178 10.3795 27.952C10.9959 25.2319 12.7995 23.4237 15.7903 22.5273L15.8291 22.3559C15.0629 21.3892 14.5286 20.433 14.2262 19.4874C13.9264 18.5302 13.928 17.3831 14.231 16.0459C14.6868 14.0344 15.9621 12.5691 18.0568 11.6499C20.163 10.7333 22.5648 10.5806 25.262 11.1918C27.925 11.7952 29.8774 12.8565 31.1193 14.3755C32.3637 15.8831 32.8086 17.4198 32.4538 18.9856C31.8711 21.5571 30.3237 23.1891 27.8117 23.8816L27.7806 24.0187C29.0478 25.2671 29.951 26.4511 30.4904 27.5706C31.0412 28.6927 31.1314 30.071 30.761 31.7053C30.2405 34.0025 28.8381 35.6313 26.5537 36.5916C24.2694 37.552 21.5329 37.6708 18.3442 36.9483ZM24.6405 21.2524C26.2866 20.6161 27.304 19.4408 27.6924 17.7264C27.8892 16.8578 27.8046 16.1177 27.4386 15.5061C27.0725 14.8944 26.4552 14.4902 25.5866 14.2934C24.7865 14.1121 24.0942 14.1715 23.5095 14.4716C22.9248 14.7716 22.5418 15.3217 22.3605 16.1217C21.9964 17.7815 22.7564 19.4918 24.6405 21.2524ZM18.5854 33.9749C20.814 34.48 22.1402 33.7711 22.5638 31.8485C22.8384 30.637 22.6174 29.5175 21.901 28.49C21.1846 27.4626 20.0962 26.3268 18.6358 25.0826C17.0094 25.8436 15.9696 27.2241 15.5164 29.2242C15.2419 30.4357 15.3927 31.4671 15.9688 32.3186C16.5474 33.1587 17.4196 33.7108 18.5854 33.9749Z" fill="#2C2C2C"/>
<path fill-rule="evenodd" clip-rule="evenodd" d="M6.81492 37.825L6.79896 37.8064C4.14265 34.7009 2.87405 30.7481 3.84342 26.4702C4.45469 23.7726 5.71578 21.5558 7.44459 19.8268C7.15723 17.9738 7.33077 16.1708 7.69485 14.5641C8.67692 10.2301 11.5679 7.17711 15.3649 5.51101L15.3742 5.50693L15.3835 5.50287C19.0476 3.90834 22.947 3.7931 26.745 4.65373C30.2997 5.45922 33.8046 7.07409 36.3005 10.1199C38.5406 12.8393 39.906 16.4376 38.993 20.4666C38.6042 22.1828 37.9188 23.8646 36.8488 25.3772C37.9231 28.0463 37.8423 30.7947 37.3003 33.1864C36.2731 37.7198 33.3097 41.0234 29.1532 42.7708C25.2241 44.4226 20.985 44.4194 16.8643 43.4856C13.0537 42.6221 9.47847 40.8932 6.83102 37.8436L6.81492 37.825ZM30.9859 29.8857C30.9895 29.0203 30.8249 28.2485 30.492 27.5702C30.2683 27.106 29.982 26.6306 29.6332 26.1442C29.162 25.4871 28.5766 24.8098 27.877 24.1122C27.8456 24.081 27.814 24.0497 27.7822 24.0183L27.8133 23.8812C27.8618 23.8678 27.9101 23.854 27.9579 23.8399C30.2577 23.1627 31.7244 21.6739 32.358 19.3738C32.393 19.2467 32.4254 19.1172 32.4553 18.9852C32.4683 18.9278 32.4803 18.8704 32.4911 18.8131C32.7764 17.3068 32.3197 15.8275 31.1208 14.3751C30.9242 14.1346 30.7097 13.9055 30.4774 13.6879C29.4272 12.7042 28.0129 11.9552 26.2344 11.4408C25.922 11.3504 25.5984 11.2673 25.2636 11.1914C23.9919 10.9033 22.7859 10.7849 21.6455 10.8364C20.3673 10.894 19.1716 11.1651 18.0584 11.6495C17.5088 11.8907 17.0155 12.1695 16.5787 12.4859C15.3508 13.3753 14.5688 14.5618 14.2326 16.0455C14.1712 16.3161 14.1223 16.5789 14.0856 16.834C13.9412 17.8392 13.9886 18.7235 14.2277 19.487C14.2624 19.5954 14.3002 19.704 14.341 19.8128C14.6326 20.5904 15.0802 21.375 15.6839 22.1667C15.7319 22.2296 15.7808 22.2925 15.8307 22.3555L15.7919 22.5269C15.6926 22.5567 15.5947 22.5874 15.4981 22.6192C13.3743 23.317 11.882 24.4999 11.0212 26.1678C10.7409 26.711 10.5275 27.3056 10.3811 27.9516C10.3733 27.986 10.3658 28.0204 10.3586 28.0547C9.9536 29.9815 10.4651 31.7796 11.8931 33.449C12.1912 33.7924 12.5175 34.1142 12.872 34.4144C12.8803 34.4214 12.8886 34.4283 12.8969 34.4353C14.1988 35.5297 15.8783 36.3346 17.9354 36.85C18.0705 36.8839 18.2073 36.9165 18.3458 36.9479C21.5345 37.6705 24.271 37.5516 26.5553 36.5912C27.2238 36.3102 27.8168 35.9719 28.3343 35.5763C29.585 34.6203 30.3944 33.3298 30.7626 31.7049C30.9091 31.0584 30.9835 30.452 30.9859 29.8857ZM24.2358 20.8554C24.3648 20.9873 24.5003 21.1195 24.642 21.252C24.9737 21.1239 25.2798 20.9738 25.5603 20.8019C25.8786 20.6068 26.164 20.3837 26.4166 20.1324C26.5146 20.0349 26.6077 19.9331 26.6958 19.8272C27.1031 19.3373 27.4048 18.7568 27.6009 18.0858C27.6191 18.0237 27.6364 17.9607 27.6527 17.8969C27.6672 17.8406 27.681 17.7836 27.694 17.7261C27.7234 17.5963 27.7465 17.4693 27.7634 17.3453C27.7651 17.3326 27.7668 17.3199 27.7684 17.3072C27.776 17.2466 27.7821 17.1866 27.7867 17.1273C27.7875 17.1179 27.7882 17.1085 27.7888 17.0992C27.831 16.4957 27.7148 15.9645 27.4401 15.5057C27.0741 14.894 26.4567 14.4898 25.5881 14.293C25.2318 14.2122 24.8968 14.1792 24.5832 14.194C24.1927 14.2123 23.8353 14.3047 23.5111 14.4712C23.0396 14.7132 22.6992 15.1177 22.4901 15.6848C22.4399 15.8209 22.3972 15.9665 22.3621 16.1213C22.3343 16.2484 22.313 16.3757 22.2983 16.5034C22.2591 16.8434 22.2667 17.1856 22.321 17.5298C22.5932 17.5373 22.8976 17.5659 23.239 17.6222L23.4368 18.1341L22.5483 18.379C22.5538 18.3938 22.5595 18.4085 22.5652 18.4233C22.8608 19.1862 23.3813 19.9593 24.1267 20.7424C24.1625 20.78 24.1989 20.8177 24.2358 20.8554ZM21.4122 27.8405C20.7217 26.9894 19.7967 26.0699 18.6374 25.0822C17.9702 25.3944 17.4018 25.8108 16.9321 26.3314C16.3967 26.9247 15.9896 27.6535 15.7106 28.5177C15.6479 28.712 15.5917 28.9131 15.5419 29.1211C15.5338 29.1551 15.5258 29.1894 15.518 29.2238C15.423 29.643 15.3789 30.0407 15.3858 30.4168C15.3861 30.4315 15.3864 30.446 15.3868 30.4606C15.3953 30.7525 15.4347 31.0313 15.505 31.297C15.6017 31.6622 15.7568 32.0026 15.9703 32.3182C16.549 33.1583 17.4212 33.7104 18.587 33.9746C18.7286 34.0067 18.8667 34.0339 19.001 34.0562C20.9806 34.3845 22.1687 33.6485 22.5654 31.8481C22.6549 31.4533 22.6917 31.0683 22.6759 30.6931C22.6433 29.9168 22.3855 29.1823 21.9026 28.4896C21.7549 28.2779 21.5914 28.0615 21.4122 27.8405ZM22.0025 30.7076C22.0056 30.7034 22.0086 30.6993 22.0115 30.6952C22.0391 30.6567 22.0593 30.6243 22.0734 30.5996C22.0894 30.4726 22.103 30.2432 22.0582 29.9364C21.9968 29.5168 21.8445 29.0842 21.6079 28.6951C21.5806 28.6501 21.5521 28.6057 21.5225 28.5619L20.5677 29.2079L21.2445 30.6544C21.5179 30.6847 21.7701 30.7016 22.0025 30.7076ZM20.5477 29.1652L21.4908 28.5155C21.3492 28.3099 21.1814 28.124 20.999 27.9643L20.1105 28.2307L20.5477 29.1652Z" fill="white"/>
</svg>
