<svg width="43" height="48" viewBox="0 0 43 48" fill="none" xmlns="http://www.w3.org/2000/svg">
<path d="M33.7777 13.8603L32.8531 17.9405C31.0942 19.3924 29.7873 20.5201 28.9323 21.3237C28.0799 22.1158 27.1275 23.1376 26.0749 24.3891C25.0337 25.6431 24.2089 26.9762 23.6005 28.3884C23.0036 29.8032 22.4902 31.4592 22.0603 33.3564C21.7314 34.8079 21.1063 35.7897 20.1852 36.3019C19.2781 36.8053 18.2874 36.9353 17.2131 36.6919C16.0473 36.4277 15.195 35.814 14.6563 34.8508C14.1202 33.8762 13.988 32.7889 14.26 31.5888C14.62 30.0002 15.2789 28.4974 16.2369 27.0803C17.2062 25.6658 18.3516 24.4293 19.6728 23.3709C20.9941 22.3125 22.323 21.4061 23.6595 20.6515C24.996 19.897 26.3804 19.2494 27.8126 18.7088L27.8592 18.5031L24.5677 17.7572C22.739 17.3429 21.1349 17.1837 19.7554 17.2796C18.3759 17.3755 17.4148 17.5603 16.8722 17.8339C16.3436 18.0986 15.7522 18.4813 15.098 18.9819L13.6559 17.7899L18.3393 9.3707L18.9393 9.50667C19.4255 10.2777 21.1201 10.9921 24.023 11.6499L33.7777 13.8603Z" fill="#2C2C2C"/>
<path fill-rule="evenodd" clip-rule="evenodd" d="M41.7975 8.80315L38.8859 21.6526L37.1212 23.1093C35.3906 24.5378 34.2177 25.5553 33.524 26.2074L33.5102 26.2203L33.4964 26.2331C32.9102 26.778 32.1543 27.5763 31.2202 28.6857C30.5763 29.4641 30.1045 30.2407 29.7671 31.0179C29.3612 31.985 28.9602 33.2415 28.5987 34.8369C28.0272 37.3587 26.6265 40.3898 23.4438 42.1596L23.4386 42.1625C20.9959 43.518 18.3058 43.8118 15.7323 43.2287C12.8861 42.5837 10.3561 40.8926 8.80655 38.1223L8.79502 38.1017L8.78364 38.081C7.37116 35.5134 7.13013 32.7228 7.72298 30.1065C8.23582 27.8433 9.13903 25.7285 10.3842 23.7811L5.08764 19.4035L14.9234 1.7222L23.1295 3.58169L23.8143 4.66785C23.8696 4.68517 23.9283 4.7031 23.9903 4.72162C24.3918 4.84144 24.8927 4.97255 25.5052 5.11132L41.7975 8.80315ZM15.0987 18.981C15.1998 18.9036 15.2994 18.8291 15.3974 18.7574C15.5235 18.6652 15.6471 18.5777 15.7682 18.4948C16.1627 18.2248 16.5309 18.0042 16.8729 17.8329C17.3595 17.5876 18.1827 17.4137 19.3424 17.3112C19.4759 17.2994 19.6138 17.2886 19.7561 17.2787C20.3161 17.2397 20.913 17.2428 21.547 17.288C21.5659 17.2893 21.5849 17.2907 21.6038 17.2921C21.6595 17.2963 21.7155 17.3008 21.7717 17.3056C22.0786 17.3319 22.3939 17.3677 22.7176 17.4132C22.8964 17.4383 23.0778 17.4663 23.2618 17.4972C23.6838 17.5682 24.1193 17.6546 24.5684 17.7563L27.8599 18.5022L27.8133 18.7079C27.4919 18.8292 27.1729 18.956 26.8563 19.0881C26.8506 19.0904 26.845 19.0928 26.8393 19.0951C26.8056 19.1092 26.772 19.1233 26.7383 19.1375C25.7867 19.5394 24.8569 19.9901 23.949 20.4897C23.8525 20.5428 23.7562 20.5964 23.6602 20.6506C23.2647 20.8739 22.8699 21.1105 22.4758 21.3604C22.4669 21.366 22.458 21.3716 22.4491 21.3773C21.6814 21.8652 20.9161 22.4036 20.1535 22.9925C19.9934 23.1161 19.8334 23.242 19.6735 23.37C19.6714 23.3718 19.6692 23.3735 19.667 23.3752C19.6626 23.3788 19.6582 23.3823 19.6538 23.3859C19.4086 23.5829 19.1694 23.7861 18.9363 23.9954C18.482 24.4035 18.0508 24.8349 17.6426 25.2897C17.4832 25.4674 17.3272 25.6486 17.1748 25.8334C16.846 26.2321 16.5336 26.6474 16.2376 27.0794C15.2796 28.4965 14.6207 29.9993 14.2607 31.5879C13.9888 32.788 14.1209 33.8753 14.657 34.8499C15.1958 35.8131 16.048 36.4268 17.2138 36.691C18.2881 36.9344 19.2788 36.8044 20.1859 36.301C21.1071 35.7888 21.7321 34.807 22.061 33.3555C22.4246 31.751 22.8479 30.319 23.3309 29.0595C23.4191 28.8298 23.5092 28.6058 23.6013 28.3875C23.6119 28.3628 23.6226 28.3381 23.6334 28.3134C24.1584 27.112 24.8407 25.9681 25.6802 24.8817C25.7507 24.7904 25.8223 24.6996 25.895 24.6091C25.9545 24.5352 26.0146 24.4615 26.0756 24.3882C26.2837 24.1407 26.488 23.9022 26.6883 23.6727C27.4623 22.7859 28.1778 22.0332 28.8349 21.4145C28.8678 21.3836 28.9005 21.353 28.933 21.3228C29.3347 20.9453 29.8361 20.4962 30.4372 19.9757C30.6334 19.8058 30.8402 19.6282 31.0577 19.4431C31.1237 19.3869 31.1907 19.33 31.2587 19.2723C31.7411 18.8635 32.2728 18.4192 32.8538 17.9396L33.7784 13.8594L24.0237 11.649C22.5989 11.3262 21.4651 10.9896 20.6225 10.6395C20.55 10.6093 20.4796 10.5791 20.4114 10.5488C19.9444 10.341 19.5785 10.1286 19.3137 9.91141C19.151 9.77798 19.0264 9.64277 18.9401 9.50576L18.34 9.3698L13.6566 17.789L15.0987 18.981Z" fill="white"/>
</svg>
