<svg width="322" height="105" viewBox="0 0 322 105" fill="none" xmlns="http://www.w3.org/2000/svg">
<path fill-rule="evenodd" clip-rule="evenodd" d="M105.019 34.4745C105.35 32.6375 106.073 31.0372 107.188 29.6737C107.295 29.5424 107.406 29.4133 107.521 29.2864C108.615 28.0747 109.946 27.1871 111.515 26.6236C107.711 28.0385 105.001 31.7024 105.001 35.9993C105.001 41.5222 109.478 45.9993 115.001 45.9993C120.523 45.9993 125.001 41.5222 125.001 35.9993C125.001 30.4765 120.523 25.9993 115.001 25.9993C114.377 25.9993 113.767 26.0564 113.175 26.1655C113.424 26.1158 113.677 26.0728 113.935 26.0365C114.448 25.9643 114.981 25.9185 115.533 25.8993C116.743 25.857 117.871 25.9503 118.914 26.1792C119.622 26.3344 120.291 26.552 120.921 26.832L120.983 26.8594L121.032 26.8817C121.268 26.9902 121.499 27.1077 121.725 27.234C122.447 27.6384 123.113 28.1339 123.722 28.7206C123.958 28.9469 124.182 29.182 124.393 29.426C124.425 29.4633 124.457 29.5007 124.489 29.5384C124.51 29.5638 124.531 29.5893 124.552 29.6148C125.005 30.1649 125.395 30.7585 125.724 31.3956L125.757 31.4605C125.88 31.704 125.994 31.9537 126.099 32.2098C126.355 32.8315 126.557 33.4903 126.707 34.1862C126.804 34.6403 126.879 35.1103 126.931 35.596C126.937 35.6512 126.943 35.7065 126.948 35.7621L126.956 35.8504C126.983 36.14 127.001 36.4351 127.011 36.7357C127.049 37.8194 126.979 38.8406 126.8 39.7995L126.794 39.8311C126.677 40.4491 126.515 41.041 126.308 41.607C125.853 42.8503 125.18 43.9682 124.289 44.9608C123.297 46.066 122.114 46.903 120.739 47.4717C120.251 47.6737 119.739 47.8418 119.202 47.9761C118.763 48.086 118.308 48.1733 117.837 48.2379C117.348 48.305 116.841 48.3477 116.317 48.366C114.76 48.4204 113.34 48.2493 112.057 47.8527C111.676 47.7348 111.307 47.597 110.95 47.4392L110.906 47.4197C110.191 47.0999 109.525 46.6999 108.908 46.2196C108.631 46.0045 108.365 45.7732 108.108 45.5258C107.353 44.7951 106.728 43.9774 106.233 43.0726C105.957 42.5689 105.721 42.0382 105.525 41.4806C105.509 41.435 105.493 41.3891 105.478 41.3432C105.358 40.9864 105.254 40.6187 105.166 40.2402L105.151 40.1742C105.132 40.0894 105.113 40.0041 105.096 39.9181C105.066 39.7738 105.039 39.628 105.014 39.4806C104.965 39.1949 104.925 38.9036 104.894 38.6065C104.856 38.2495 104.831 37.8843 104.818 37.5107L104.817 37.4768C104.782 36.4255 104.848 35.4347 105.013 34.5044L105.019 34.4745ZM115.184 15.9054C110.055 16.0845 105.053 17.7631 101.112 21.541L98.2463 10.1648L69.9394 11.1533L66.5684 30.0082L70.3907 31.018L70.6817 39.3508L66.9375 40.6615L71.6333 59.1313L84.2896 58.6893L81.0201 74.0231L85.201 75.1312L85.4431 82.0648L81.6989 83.3755L86.3947 101.845L113.472 100.9L114.81 92.5192C115.845 92.1483 116.846 91.6869 117.802 91.1337C120.611 92.5789 123.65 93.1374 126.632 93.0333C128.726 92.9601 130.764 92.5448 132.7 91.7985C134.84 92.4907 136.968 92.6723 138.871 92.6059C140.832 92.5374 142.949 92.2045 145.016 91.4308C147.253 92.0836 149.479 92.2354 151.422 92.1676C154.469 92.0612 157.434 91.4451 160.272 90.3391L161.107 90.0138C163.984 91.1493 167.078 91.6208 170.239 91.5105C172.24 91.4406 174.219 91.1167 176.117 90.5039L240.221 88.2654L243.673 69.6938L238.997 68.3416L238.435 64.1153L238.432 64.0931C237.967 60.7172 236.913 56.7542 234.34 53.4494L252.409 52.8184L255.861 34.2468L251.185 32.8946L250.623 28.6683L250.62 28.6461C250.095 24.8366 248.821 20.2795 245.46 16.7642C242.802 13.973 239.562 12.5451 236.314 12.0263L236.283 11.6765L223.93 12.1079C223.181 10.3241 222.073 8.73883 220.706 7.40793C217.603 4.35661 213.694 3.29954 210.138 3.42374C206.539 3.54942 202.709 4.91232 199.839 8.19667L199.835 8.20065C198.455 9.78121 197.424 11.6296 196.845 13.6598C195.172 13.3271 193.475 13.2105 191.798 13.269C189.893 13.3355 187.784 13.5686 185.673 14.1567L185.473 8.40868L167.7 9.0293L164.937 13.8723C164.626 14.417 164.167 14.9958 163.452 15.6002C163.354 15.6829 163.259 15.7591 163.165 15.8293C161.888 15.2885 160.57 14.928 159.251 14.7174L159.221 14.3675L146.868 14.7989C146.119 13.0152 145.011 11.4299 143.643 10.099C140.54 7.04769 136.632 5.99062 133.075 6.11482C129.477 6.2405 125.647 7.6034 122.776 10.8877L122.773 10.8917C121.431 12.4283 120.42 14.218 119.832 16.1819C118.303 15.9371 116.745 15.8508 115.184 15.9054ZM90.9759 22.2423C90.8405 22.2897 90.7121 22.3453 90.5909 22.4089C90.3057 22.5584 90.0598 22.7527 89.853 22.9918C89.2619 23.6754 88.991 24.7249 89.0405 26.1404L89.6942 44.8594C90.0756 44.8903 90.4335 44.9146 90.7679 44.9321C91.268 44.9583 91.7155 44.9696 92.1105 44.9659C92.2295 44.9648 92.3437 44.9623 92.4532 44.9585C93.0836 44.9365 93.7038 44.8497 94.3138 44.6981C94.3871 44.6799 94.4602 44.6608 94.5332 44.6407C94.9564 44.5243 95.3747 44.3764 95.788 44.1971C95.8185 44.1839 95.8488 44.1707 95.8789 44.1573C96.9171 43.6983 97.7926 43.1588 98.5052 42.5388L98.5068 42.5375L98.5593 42.4925C98.9213 42.1813 99.2633 41.8724 99.5852 41.5658C99.886 41.2793 100.169 40.9948 100.435 40.7123L100.491 40.6519C100.714 40.4135 100.914 40.1884 101.093 39.9766C101.379 39.638 101.609 39.3335 101.784 39.0629L102.191 38.4037L104.057 39.218L101.404 48.8868L100.721 48.9107C100.337 48.7156 99.445 48.5578 98.0468 48.4373C97.9522 48.4299 97.8589 48.4229 97.7668 48.4162L97.6132 48.4052C96.4246 48.3218 95.4408 48.2938 94.6617 48.321L79.339 48.8561L78.8859 47.0739C79.0214 47.0265 79.1497 46.9709 79.271 46.9072C79.4446 46.816 79.6037 46.708 79.7483 46.5833C80.1453 46.2406 80.4327 45.7718 80.6105 45.1766C80.7781 44.6155 80.8482 43.9421 80.8207 43.1564L80.2372 26.4478C80.1876 25.0255 79.8449 23.9954 79.2092 23.3574C78.9857 23.1332 78.7261 22.9574 78.4302 22.83C78.3048 22.7761 78.173 22.7308 78.0346 22.6943L78.3616 20.8653L90.5221 20.4407L90.9759 22.2423ZM104.895 91.1931L94.1005 91.5701L93.6474 89.7879C93.7828 89.7405 93.9111 89.6849 94.0324 89.6212C94.5744 89.3363 94.9748 88.8884 95.2335 88.2773C95.294 88.1344 95.3468 87.9827 95.3918 87.8219C95.545 87.2748 95.6084 86.6242 95.5821 85.8703L95.0477 70.5672C95.0389 70.3145 95.0206 70.0741 94.9927 69.846C94.836 68.5636 94.3781 67.6698 93.6192 67.1648C93.3731 67.0011 93.0953 66.8782 92.7858 66.7962L93.1721 64.9847L93.2714 64.9641C94.8543 64.6307 96.3345 64.1087 97.7121 63.398L97.7435 63.3818C98.463 63.0087 99.1544 62.584 99.8177 62.1078C100.073 61.9244 100.324 61.7334 100.572 61.5347C100.611 61.5029 100.65 61.471 100.69 61.4389L101.295 61.4178L101.694 63.8858L101.986 63.8756L102.021 63.8329C102.128 63.7031 102.236 63.5787 102.343 63.4597C102.551 63.2298 102.761 63.02 102.972 62.8303C103.446 62.4045 103.928 62.0798 104.417 61.856C104.607 61.7676 104.806 61.688 105.015 61.6172C105.737 61.3725 106.572 61.2335 107.521 61.2004C108.735 61.158 109.866 61.3209 110.915 61.6891C111.115 61.7594 111.312 61.8372 111.506 61.9224C111.653 61.9869 111.798 62.0556 111.941 62.1286C111.962 62.1394 111.983 62.1503 112.004 62.1613C112.015 62.1666 112.025 62.172 112.035 62.1774C112.94 62.6529 113.776 63.3009 114.542 64.1212C114.783 64.3779 115.01 64.6443 115.223 64.9203C115.522 65.3081 115.793 65.7148 116.036 66.1406C116.137 66.3184 116.233 66.4994 116.325 66.6838C116.339 66.7125 116.353 66.7413 116.367 66.7702C116.989 68.0516 117.377 69.4915 117.53 71.0899L117.538 71.1755C117.544 71.235 117.549 71.2948 117.553 71.3547L117.555 71.3716L117.557 71.395C117.573 71.6032 117.585 71.814 117.593 72.0274L117.595 72.0859L117.596 72.1054C117.625 72.9764 117.593 73.8068 117.501 74.5964L117.498 74.6201C117.475 74.809 117.449 74.9956 117.42 75.1798C117.367 75.5087 117.303 75.8301 117.228 76.1441C117.147 76.4833 117.053 76.8137 116.946 77.1355C116.89 77.3032 116.83 77.4686 116.767 77.6316C116.755 77.6628 116.743 77.6939 116.731 77.725C116.36 78.6609 115.87 79.5183 115.263 80.2973C115.018 80.6107 114.761 80.9024 114.49 81.1721L114.463 81.1983C114.367 81.2933 114.269 81.3856 114.17 81.4751C113.765 81.8384 113.334 82.1566 112.875 82.4298C112.613 82.5856 112.342 82.7268 112.063 82.8533C111.578 83.0726 111.066 83.2478 110.527 83.379C109.855 83.5429 109.14 83.638 108.384 83.6644C108.279 83.6681 108.175 83.6699 108.072 83.6698C107.625 83.6694 107.193 83.6339 106.775 83.5634C106.332 83.4886 105.906 83.3744 105.496 83.2206C105.189 83.1055 104.891 82.9681 104.602 82.8087C104.077 82.5185 103.582 82.155 103.118 81.7181L102.844 81.7277L102.98 85.612C103.003 86.2757 103.09 86.8546 103.241 87.3488C103.266 87.4321 103.294 87.513 103.323 87.5915C103.381 87.7494 103.447 87.8976 103.52 88.0359C103.827 88.6163 104.262 89.0252 104.827 89.2627C104.941 89.3104 105.059 89.3512 105.183 89.3851L104.895 91.1931ZM103.669 75.66C103.585 75.4004 103.506 75.1429 103.43 74.8875L103.409 74.8145L103.389 74.7477C103.316 74.4961 103.247 74.2466 103.183 73.9991L103.162 73.9173L103.142 73.8414C103.035 73.4218 102.94 73.0081 102.858 72.6005C102.832 72.4653 102.808 72.3314 102.785 72.199C102.776 72.1462 102.767 72.0937 102.758 72.0413L102.739 71.9238C102.728 71.8576 102.718 71.7918 102.708 71.7263C102.703 71.6925 102.698 71.6589 102.693 71.6253C102.688 71.5886 102.682 71.5521 102.677 71.5156L102.664 71.4233C102.638 71.2393 102.616 71.0583 102.596 70.8803C102.59 70.8325 102.585 70.7848 102.58 70.7374C102.565 70.5914 102.552 70.4474 102.54 70.3055C102.521 70.0587 102.507 69.8182 102.498 69.5839C102.49 69.3363 102.49 69.0974 102.498 68.867C102.523 68.181 102.624 67.5711 102.8 67.0375C102.885 66.7801 102.987 66.5404 103.107 66.3185C103.319 65.932 103.574 65.6301 103.872 65.413C103.887 65.4024 103.901 65.392 103.916 65.3819C103.984 65.335 104.054 65.2924 104.126 65.2541C104.425 65.0957 104.76 65.01 105.133 64.997C105.391 64.9879 105.641 65.0109 105.884 65.0657L105.917 65.0733C106.542 65.2225 107.115 65.5848 107.636 66.1603C107.656 66.1821 107.677 66.2041 107.697 66.2262C108.382 66.9773 108.92 67.9032 109.312 69.0039L109.321 69.0297C109.335 69.0692 109.349 69.1089 109.362 69.1488C109.385 69.2133 109.408 69.2776 109.43 69.3418C109.486 69.5052 109.541 69.6676 109.593 69.8291L109.609 69.878C109.64 69.9733 109.67 70.0683 109.699 70.1629L109.712 70.2055L109.715 70.2133L109.717 70.2194C109.814 70.5351 109.903 70.8472 109.984 71.1556L110.008 71.25C110.086 71.5519 110.157 71.8502 110.219 72.1451C110.233 72.2109 110.247 72.2766 110.26 72.342C110.275 72.4134 110.289 72.4846 110.302 72.5555C110.332 72.7023 110.36 72.8467 110.386 72.9886C110.427 73.211 110.464 73.4274 110.497 73.6378L110.511 73.732C110.523 73.8126 110.535 73.8923 110.546 73.9712C110.617 74.4914 110.66 74.9728 110.676 75.4153C110.691 75.8621 110.674 76.2836 110.624 76.6799C110.566 77.1364 110.465 77.5593 110.32 77.9488C110.231 78.1864 110.127 78.4116 110.006 78.6243C109.85 78.8945 109.674 79.1233 109.478 79.3109C109.165 79.6111 108.801 79.8054 108.386 79.8937C108.371 79.8969 108.355 79.9 108.34 79.903C108.311 79.9085 108.282 79.9135 108.253 79.918C108.152 79.9337 108.048 79.9434 107.942 79.9471C107.882 79.9492 107.822 79.9496 107.764 79.9483C106.992 79.9313 106.288 79.6244 105.65 79.0276C105.593 78.9742 105.536 78.9185 105.48 78.8605C105.432 78.8107 105.385 78.76 105.338 78.7084C104.676 77.9773 104.156 77.0706 103.777 75.9885C103.741 75.8786 103.705 75.7691 103.669 75.66ZM119.787 75.0972C120.013 74.5239 120.275 74.0358 120.573 73.6327L120.58 73.6233C120.941 73.1416 121.459 72.6871 122.135 72.2596C122.324 72.1422 122.507 72.0319 122.683 71.9286L122.721 71.9069C122.814 71.8526 122.906 71.8003 122.995 71.75L123.072 71.7074C123.087 71.6993 123.101 71.6913 123.116 71.6833C123.133 71.6736 123.151 71.664 123.168 71.6545C123.37 71.5449 123.562 71.4459 123.745 71.3573C123.817 71.3226 123.888 71.2894 123.957 71.2579C124.379 71.0545 124.937 70.8463 125.629 70.6335C125.797 70.5818 125.973 70.5298 126.157 70.4775C126.659 70.3299 127.1 70.2042 127.481 70.1003C127.711 70.0376 127.919 69.9828 128.105 69.936L128.124 69.9314L128.131 69.9296C128.178 69.9179 128.223 69.9067 128.267 69.896L128.364 69.8728L128.423 69.8589C128.446 69.8536 128.469 69.8482 128.493 69.8428C128.51 69.8389 128.527 69.835 128.544 69.831C128.633 69.8107 128.729 69.7896 128.83 69.7676C128.892 69.7541 128.957 69.7403 129.023 69.7261C129.098 69.7103 129.176 69.694 129.256 69.6774L129.399 69.6479L129.518 69.6239C129.643 69.5985 129.775 69.5722 129.913 69.5451L129.991 69.5297L130.013 69.5253C130.16 69.4966 130.314 69.4669 130.474 69.4362L130.654 69.402L129.962 65.8106C129.951 65.7578 129.94 65.7061 129.928 65.6555C129.91 65.5825 129.891 65.5119 129.871 65.4436C129.802 65.2157 129.715 65.0136 129.61 64.8371C129.6 64.8205 129.591 64.8042 129.58 64.7881C129.484 64.6346 129.373 64.5017 129.247 64.3894C129.162 64.3063 129.072 64.2343 128.979 64.1734C128.929 64.1409 128.878 64.1115 128.826 64.0853C128.593 63.9672 128.337 63.9131 128.059 63.9228C127.667 63.9364 127.335 64.0833 127.061 64.3635C127.034 64.3907 127.008 64.4192 126.983 64.4489C126.707 64.7712 126.643 65.1709 126.79 65.6478C126.801 65.6867 126.812 65.7255 126.821 65.764C126.877 65.9819 126.912 66.1925 126.925 66.3959L126.926 66.4157C126.933 66.5388 126.932 66.6592 126.924 66.777L126.923 66.786C126.917 66.8629 126.908 66.9386 126.895 67.0131C126.843 67.3199 126.734 67.6072 126.569 67.8752L126.562 67.8869C126.48 68.0175 126.384 68.1436 126.275 68.265C126.094 68.4668 125.895 68.6415 125.678 68.7892L125.663 68.7991C125.453 68.9403 125.226 69.0564 124.982 69.1474C124.826 69.2055 124.663 69.2534 124.494 69.291C124.237 69.348 123.965 69.3815 123.676 69.3915C123.476 69.3986 123.283 69.3936 123.099 69.3768C123.089 69.3759 123.08 69.375 123.07 69.3741C123.063 69.3734 123.056 69.3726 123.049 69.3719C122.301 69.2941 121.693 69.0165 121.223 68.5391C120.984 68.2901 120.791 67.9997 120.644 67.6679C120.635 67.6492 120.627 67.6303 120.619 67.6113C120.611 67.593 120.604 67.5746 120.596 67.5561C120.581 67.5181 120.566 67.4797 120.552 67.4407C120.463 67.1954 120.397 66.9299 120.353 66.644C120.322 66.4373 120.302 66.2199 120.294 65.9919C120.273 65.3924 120.377 64.8267 120.605 64.2948C120.633 64.2306 120.662 64.1669 120.693 64.1037C120.786 63.915 120.896 63.7307 121.021 63.5507C121.344 63.0871 121.775 62.6526 122.313 62.2473C122.638 62.0013 123.002 61.7811 123.404 61.5867C123.444 61.5675 123.484 61.5486 123.524 61.5299L123.551 61.5173L123.559 61.5136L123.606 61.4925C123.937 61.3441 124.292 61.212 124.672 61.0964C125.145 60.9525 125.655 60.834 126.204 60.7408C126.535 60.6846 126.879 60.6376 127.238 60.5999C127.467 60.5759 127.701 60.5556 127.94 60.539C128.188 60.522 128.442 60.5089 128.701 60.4998C128.789 60.4968 128.876 60.4945 128.963 60.4931C129.212 60.489 129.457 60.4917 129.698 60.5011C130.575 60.5355 131.396 60.6597 132.161 60.8738C132.224 60.8916 132.287 60.9099 132.35 60.9289C132.415 60.9487 132.48 60.9691 132.544 60.9902C133.365 61.2593 134.117 61.6372 134.801 62.1239C134.895 62.1903 134.987 62.2587 135.078 62.3292C135.306 62.5035 135.524 62.6915 135.73 62.8932C135.779 62.9404 135.826 62.9883 135.873 63.0369C136.144 63.3168 136.395 63.6214 136.626 63.9508C136.642 63.9747 136.659 63.9986 136.675 64.0228C136.764 64.1519 136.849 64.2848 136.931 64.4214L136.956 64.4626C136.992 64.5224 137.027 64.5829 137.061 64.6442C137.587 65.5783 137.979 66.6769 138.239 67.9401C138.276 68.1196 138.31 68.3024 138.341 68.4886L138.608 70.0891L139.553 75.7749C139.58 75.9493 139.61 76.1176 139.643 76.2799C139.658 76.3537 139.673 76.4262 139.69 76.4974C139.733 76.6843 139.78 76.8627 139.833 77.0325C139.917 77.3049 140.013 77.5553 140.121 77.7838C140.224 78.0032 140.339 78.2025 140.465 78.3814C140.718 78.7398 141.003 78.9914 141.321 79.1363C141.475 79.2067 141.638 79.2519 141.808 79.2719C141.896 79.2823 141.987 79.2859 142.08 79.2826C142.116 79.2814 142.152 79.2795 142.188 79.2772C142.447 79.2598 142.671 79.2131 142.86 79.1371C142.892 79.1242 142.923 79.1104 142.953 79.0958L143.653 80.6739C143.332 81.0107 142.968 81.3038 142.561 81.5532C142.434 81.6313 142.302 81.7052 142.167 81.7747C141.498 82.1172 140.728 82.3556 139.857 82.49C139.718 82.5114 139.576 82.5303 139.432 82.5464C139.296 82.5616 139.158 82.5744 139.018 82.5849C138.855 82.5971 138.69 82.6061 138.522 82.612C138.415 82.6157 138.309 82.6179 138.204 82.6186C138.155 82.6189 138.106 82.6188 138.057 82.6184C137.204 82.6117 136.442 82.4993 135.772 82.2813C135.582 82.2197 135.4 82.1497 135.224 82.0712C135.113 82.0213 135.005 81.968 134.899 81.9113C134.513 81.7031 134.165 81.449 133.857 81.1489C133.83 81.1226 133.804 81.096 133.778 81.0691C133.38 80.6616 133.051 80.1737 132.792 79.6054C132.769 79.5552 132.746 79.5044 132.725 79.453L132.49 79.4612C132.472 79.4999 132.453 79.5383 132.434 79.5764C132.036 80.3678 131.505 81.0184 130.842 81.5282C130.555 81.7491 130.243 81.9436 129.905 82.1116C129.835 82.1469 129.765 82.1813 129.694 82.2147C128.617 82.7227 127.48 82.9976 126.283 83.0394C125.949 83.051 125.624 83.0462 125.308 83.0251C125.038 83.0071 124.775 82.9772 124.518 82.9354C124.075 82.8633 123.65 82.7559 123.244 82.6132C122.598 82.3863 121.999 82.07 121.447 81.6643C120.879 81.2428 120.428 80.7549 120.093 80.2007C119.838 79.7795 119.65 79.3198 119.53 78.8219C119.439 78.4472 119.386 78.0508 119.372 77.6327C119.352 77.0796 119.393 76.5571 119.495 76.065C119.544 75.8277 119.607 75.5975 119.684 75.3744C119.717 75.2799 119.752 75.1874 119.787 75.0972ZM130.209 78.3694C130.104 78.4191 129.997 78.4572 129.887 78.4836C129.782 78.5091 129.675 78.5237 129.565 78.5275C129.432 78.5322 129.302 78.5287 129.176 78.5171C129.012 78.5019 128.854 78.4728 128.702 78.4299C128.625 78.4081 128.549 78.3828 128.475 78.3538C128.444 78.3416 128.413 78.3287 128.383 78.3152C128.196 78.2326 128.019 78.1261 127.854 77.9957C127.842 77.986 127.83 77.9762 127.817 77.9663C127.773 77.9295 127.728 77.8909 127.685 77.8505C127.529 77.7048 127.395 77.5401 127.284 77.3564C127.259 77.3156 127.235 77.2737 127.213 77.2309C127.151 77.1139 127.097 76.9897 127.052 76.8586C126.994 76.6896 126.949 76.5089 126.919 76.3165C126.909 76.2567 126.901 76.1957 126.894 76.1337C126.891 76.1074 126.889 76.0809 126.886 76.0542C126.879 75.9738 126.874 75.8915 126.871 75.8074C126.868 75.7149 126.868 75.6237 126.871 75.5338C126.882 75.1939 126.939 74.8721 127.04 74.5683C127.045 74.5515 127.051 74.5347 127.057 74.518C127.099 74.3979 127.148 74.2808 127.205 74.1665C127.213 74.1504 127.221 74.1344 127.229 74.1185C127.269 74.0398 127.313 73.9625 127.36 73.8866C127.401 73.8221 127.443 73.7586 127.488 73.6962C127.522 73.6494 127.557 73.6033 127.593 73.5577C127.805 73.2918 128.064 73.0448 128.369 72.8165C128.524 72.7009 128.69 72.5901 128.869 72.4841C128.901 72.4646 128.935 72.4453 128.968 72.4262C129.089 72.3575 129.214 72.2909 129.345 72.2264C129.579 72.1111 129.829 72.0026 130.096 71.9007C130.15 71.8801 130.205 71.8598 130.26 71.8398C130.515 71.7474 130.784 71.6608 131.067 71.5799L131.081 71.5759L131.819 75.361C131.822 75.4257 131.822 75.4899 131.821 75.5536C131.821 75.569 131.821 75.5844 131.82 75.5998C131.82 75.6114 131.819 75.623 131.819 75.6346C131.802 76.0831 131.701 76.5085 131.517 76.9108C131.503 76.9412 131.489 76.9714 131.474 77.0015C131.453 77.0446 131.431 77.0874 131.408 77.13C131.333 77.2675 131.248 77.4022 131.153 77.534C130.903 77.8734 130.637 78.1258 130.356 78.2915C130.307 78.32 130.258 78.346 130.209 78.3694ZM143.495 64.4195L139.845 64.547L139.755 61.9509C140.147 61.8261 140.532 61.6837 140.912 61.5237C141.423 61.3086 141.924 61.0618 142.413 60.7832C142.729 60.6032 143.041 60.4101 143.348 60.2036C143.829 59.8808 144.299 59.5255 144.757 59.1379C144.904 59.0142 145.047 58.8891 145.188 58.7625C145.979 58.0514 146.683 57.2935 147.301 56.4889C147.662 56.0196 147.993 55.5344 148.294 55.0332C148.355 54.9322 148.414 54.8305 148.473 54.7282L150.678 54.6511L150.882 60.4874L156.035 60.3075L156.164 63.9771L151.01 64.1571L151.424 76.0053C151.439 76.4429 151.493 76.8261 151.586 77.1549C151.875 78.1857 152.542 78.6828 153.588 78.6463C153.622 78.645 153.657 78.6436 153.691 78.6418C153.715 78.6405 153.739 78.6392 153.763 78.6376C154.398 78.5972 154.994 78.4581 155.55 78.2206C155.653 78.1766 155.754 78.1292 155.855 78.0785L156.642 81.0216C156.096 81.234 155.546 81.4173 154.991 81.5715C154.564 81.69 154.134 81.7913 153.701 81.8755C153.465 81.9213 153.228 81.962 152.991 81.9976C152.465 82.0763 151.936 82.1301 151.402 82.159C151.292 82.165 151.183 82.1698 151.073 82.1737C149.074 82.2435 147.493 81.9082 146.329 81.168C145.846 80.8602 145.434 80.4823 145.094 80.0344C144.758 79.5911 144.493 79.0792 144.299 78.4987C144.079 77.8427 143.949 77.099 143.91 76.2677C143.908 76.2224 143.906 76.1769 143.904 76.1311L143.495 64.4195ZM161.988 61.3666C162.193 61.2135 162.403 61.0682 162.616 60.9305C163.17 60.5741 163.754 60.2695 164.367 60.0165C164.893 59.7993 165.442 59.6202 166.013 59.4792C166.634 59.3256 167.282 59.2173 167.956 59.1543C168.145 59.1366 168.337 59.1224 168.531 59.1119C168.587 59.1088 168.644 59.106 168.701 59.1036C168.745 59.1017 168.789 59.0999 168.833 59.0984C170.027 59.0567 171.138 59.1742 172.168 59.451C172.261 59.4761 172.354 59.5025 172.446 59.5302C172.496 59.5452 172.545 59.5606 172.594 59.5763C173.203 59.7704 173.781 60.0227 174.329 60.3331C174.7 60.5384 175.047 60.7656 175.371 61.0148L175.424 61.0562C175.685 61.2608 175.93 61.4798 176.16 61.7134C176.79 62.3526 177.302 63.1006 177.698 63.9574C177.735 64.0368 177.771 64.1172 177.806 64.1985C178.12 64.8669 178.515 65.2781 178.99 65.4322C179.089 65.4642 179.191 65.4851 179.297 65.4949L179.764 67.687L166.401 72.2772C166.422 72.3177 166.442 72.3579 166.464 72.3976C166.481 72.4306 166.499 72.4633 166.517 72.4957C166.562 72.5762 166.608 72.6552 166.655 72.7326C166.678 72.7697 166.7 72.8065 166.724 72.8429C167.374 73.8628 168.248 74.5976 169.347 75.0474C169.452 75.0904 169.559 75.1308 169.668 75.1685C170.564 75.4788 171.598 75.6135 172.77 75.5726C172.961 75.5659 173.15 75.5503 173.338 75.5256L173.358 75.5229C173.608 75.4892 173.853 75.4395 174.096 75.3739C174.46 75.2752 174.816 75.1404 175.164 74.9695C175.197 74.9529 175.231 74.936 175.265 74.9187C175.333 74.8834 175.402 74.8466 175.47 74.8084C176.173 74.4141 176.842 73.8679 177.475 73.1697C177.595 73.0378 177.714 72.9004 177.831 72.7575L179.254 73.216C179.248 73.4429 179.233 73.667 179.208 73.8884C179.19 74.0511 179.166 74.2123 179.138 74.3721C179.113 74.5113 179.084 74.6495 179.051 74.7865L179.046 74.8096C179.016 74.9321 178.984 75.0537 178.948 75.1744C178.729 75.9103 178.395 76.6126 177.944 77.2814C177.565 77.8445 177.104 78.3839 176.56 78.8994C176.262 79.1837 175.95 79.4449 175.623 79.6831L175.593 79.7047C175.301 79.9157 174.997 80.1083 174.681 80.2826C174.141 80.5804 173.568 80.8247 172.96 81.0155C172.384 81.1962 171.778 81.3288 171.141 81.4135C170.884 81.4476 170.622 81.4739 170.355 81.4924C170.202 81.503 170.046 81.5111 169.89 81.5166C169.785 81.5202 169.681 81.5229 169.577 81.5245C168.705 81.5379 167.872 81.4783 167.079 81.3456C165.94 81.1549 164.883 80.8132 163.909 80.3205C163.416 80.0713 162.944 79.7835 162.494 79.4571C162.078 79.156 161.681 78.822 161.301 78.4551C160.811 77.982 160.373 77.4884 159.985 76.9743C159.725 76.6293 159.488 76.275 159.274 75.9114C159.239 75.8528 159.205 75.7939 159.172 75.7348C158.841 75.149 158.57 74.5396 158.357 73.9066C158.015 72.8924 157.825 71.8177 157.785 70.6824C157.782 70.5813 157.779 70.4809 157.778 70.3809C157.775 70.2292 157.775 70.0788 157.777 69.9297C157.79 68.975 157.895 68.0758 158.091 67.2321C158.237 66.604 158.434 66.0066 158.682 65.44C158.885 64.9764 159.122 64.5334 159.392 64.1111C159.447 64.0261 159.503 63.9419 159.56 63.8585C159.914 63.3434 160.32 62.8602 160.78 62.4088C161.16 62.0326 161.558 61.6883 161.975 61.3761L161.988 61.3666ZM166.034 64.0233C166.077 63.9581 166.121 63.8954 166.165 63.8349C166.707 63.0917 167.345 62.7072 168.079 62.6816C168.396 62.6705 168.691 62.7148 168.963 62.8145C169.41 62.9784 169.796 63.2921 170.12 63.7556C170.181 63.8421 170.239 63.9339 170.295 64.0308C170.552 64.4624 170.762 64.9222 170.925 65.4101C170.974 65.5575 171.019 65.7074 171.06 65.86C171.068 65.8883 171.075 65.9167 171.083 65.9452C171.09 65.9727 171.096 66.0002 171.103 66.0279C171.111 66.0587 171.118 66.0897 171.125 66.1207C171.175 66.3332 171.216 66.5505 171.25 66.7726C171.26 66.8432 171.27 66.9142 171.279 66.9857C171.288 67.0564 171.296 67.1277 171.303 67.1994L171.305 67.2202L168.615 68.1407L165.454 69.2225C165.388 68.7864 165.338 68.3198 165.302 67.8227C165.284 67.5644 165.27 67.2978 165.26 67.023L165.258 66.9819L165.258 66.9641L165.257 66.9527L165.257 66.9339C165.227 65.8346 165.486 64.8644 166.034 64.0233ZM192.365 78.1716L192.016 79.9426L181.222 80.3196L180.731 78.5778C180.881 78.5212 181.022 78.4557 181.154 78.3815C181.562 78.1529 181.89 77.8409 182.138 77.4453C182.257 77.2551 182.357 77.0457 182.439 76.817C182.465 76.7466 182.488 76.6744 182.51 76.6003C182.543 76.4875 182.572 76.3705 182.597 76.2492C182.611 76.182 182.624 76.1135 182.635 76.0436C182.667 75.8475 182.689 75.641 182.701 75.4243C182.715 75.182 182.716 74.9269 182.705 74.6589L182.12 57.9113C182.092 57.1116 181.972 56.4383 181.76 55.8914C181.757 55.8819 181.753 55.8725 181.749 55.8631C181.743 55.8471 181.736 55.8313 181.73 55.8155C181.71 55.7663 181.689 55.7182 181.667 55.6712C181.657 55.6493 181.646 55.6277 181.636 55.6063C181.4 55.1243 181.079 54.7593 180.672 54.5114C180.437 54.3677 180.172 54.2633 179.88 54.1982L180.246 52.3679L180.289 52.3593L180.411 52.3345C181.736 52.0632 182.995 51.7113 184.19 51.2786L184.223 51.2664C184.614 51.1243 184.997 50.9736 185.374 50.8143C186.001 50.5489 186.609 50.2596 187.197 49.9464C187.69 49.6838 188.17 49.4043 188.636 49.108C188.775 49.02 188.912 48.9305 189.048 48.8396L189.096 48.807C189.133 48.7823 189.17 48.7575 189.206 48.7326L189.742 48.968C189.716 49.1091 189.692 49.2569 189.669 49.4113C189.662 49.4573 189.656 49.5039 189.649 49.5511C189.618 49.7793 189.59 50.0213 189.566 50.2772C189.549 50.4583 189.534 50.6463 189.521 50.8413C189.499 51.1549 189.482 51.4865 189.469 51.836C189.457 52.1652 189.45 52.5103 189.446 52.8713C189.445 52.9983 189.444 53.1274 189.444 53.2583C189.443 53.5643 189.445 53.8811 189.45 54.2086C189.457 54.6593 189.469 55.1302 189.486 55.6216L190.142 74.3992C190.145 74.4983 190.15 74.5955 190.157 74.6909C190.186 75.1232 190.245 75.5168 190.335 75.8718C190.386 76.0766 190.448 76.2685 190.52 76.4476C190.821 77.1953 191.297 77.7187 191.949 78.018C192.08 78.0783 192.219 78.1295 192.365 78.1716ZM178.85 45.9759C178.614 46.0217 178.377 46.0624 178.14 46.098C177.786 46.151 177.43 46.1927 177.073 46.2232C176.79 46.2472 176.507 46.2642 176.222 46.2741C175.405 46.3027 174.657 46.2635 173.98 46.1565C173 46.002 172.166 45.706 171.479 45.2684L171.469 45.2621C171.189 45.0835 170.934 44.8814 170.703 44.6558C169.696 43.6724 169.148 42.2431 169.059 40.3682C169.057 40.3229 169.055 40.2773 169.054 40.2315L168.645 28.5199L164.995 28.6474L164.904 26.0513C165.296 25.9265 165.682 25.7841 166.062 25.6241C166.572 25.409 167.073 25.1622 167.562 24.8836C167.878 24.7037 168.19 24.5105 168.497 24.3041C168.978 23.9812 169.448 23.626 169.906 23.2383C170.183 23.0049 170.449 22.7662 170.706 22.5222C171.884 21.4024 172.856 20.1712 173.622 18.8286L175.828 18.7516L176.031 24.5879L181.185 24.4079L181.313 28.0776L176.16 28.2575L176.573 40.1058C176.58 40.2837 176.592 40.4526 176.611 40.6126C176.732 41.6326 177.112 42.2873 177.75 42.5767C177.8 42.5992 177.852 42.6196 177.905 42.6377C178.036 42.6827 178.178 42.7141 178.329 42.7317C178.458 42.7467 178.594 42.7517 178.737 42.7467C178.796 42.7446 178.854 42.7418 178.912 42.7381C179.547 42.6976 180.143 42.5586 180.699 42.321C180.749 42.2996 180.799 42.2775 180.848 42.2545C180.9 42.2302 180.952 42.205 181.004 42.179L181.791 45.122C180.865 45.4827 179.925 45.7594 178.969 45.9522C178.943 45.9575 178.917 45.9627 178.891 45.9679C178.877 45.9706 178.864 45.9733 178.85 45.9759ZM167.108 43.9603C167.174 43.9837 167.241 44.0053 167.31 44.0252L166.981 45.7956L156.187 46.1725L155.696 44.4307C155.848 44.3726 155.989 44.3038 156.119 44.2243C156.973 43.7017 157.354 42.7166 157.263 41.269L157.262 41.2519C157.247 41.0224 157.22 40.7814 157.182 40.5289L156.337 34.9755L156.336 34.9728L156.261 34.4825L155.939 32.3641C155.892 32.0666 155.834 31.7905 155.763 31.5359L155.753 31.4971C155.671 31.2086 155.574 30.9482 155.462 30.7158C155.339 30.46 155.198 30.2383 155.037 30.0505C154.569 29.5015 153.944 29.2431 153.16 29.2756L153.154 29.2759C153.005 29.2811 152.862 29.2977 152.727 29.3259C152.7 29.3314 152.674 29.3374 152.647 29.3438C152.097 29.4788 151.659 29.8095 151.334 30.3361C151.321 30.3577 151.308 30.3794 151.295 30.4013C151.045 30.8277 150.881 31.3184 150.805 31.8732C150.792 31.9696 150.781 32.068 150.773 32.1684C150.755 32.3948 150.75 32.6311 150.758 32.8773L151.033 40.7436C151.042 40.993 151.061 41.2305 151.089 41.4562L151.09 41.4599C151.133 41.7996 151.199 42.1124 151.287 42.3984C151.313 42.4811 151.34 42.5616 151.37 42.6399C151.434 42.8121 151.508 42.9734 151.591 43.1239C151.896 43.6772 152.326 44.0831 152.879 44.3417C153.022 44.4088 153.174 44.466 153.334 44.5132L152.947 46.2856L142.152 46.6626L141.74 44.9181C141.861 44.8702 141.976 44.8159 142.086 44.7552C142.75 44.3873 143.201 43.7849 143.44 42.948C143.49 42.7714 143.531 42.5844 143.563 42.387C143.629 41.9715 143.653 41.5098 143.635 41.0019L143.386 33.8578C143.377 33.6051 143.359 33.3647 143.332 33.1366C143.229 32.2797 142.996 31.5961 142.632 31.086C142.433 30.8074 142.196 30.5806 141.919 30.4055C141.699 30.2656 141.453 30.1587 141.183 30.0848L141.512 28.3144C141.543 28.3083 141.574 28.3021 141.605 28.2959C141.629 28.2911 141.652 28.2863 141.676 28.2815C141.963 28.2221 142.252 28.1535 142.543 28.0759L142.544 28.0756C143.588 27.7965 144.655 27.3994 145.743 26.8844C145.946 26.7883 146.15 26.6882 146.354 26.5839C146.796 26.359 147.24 26.115 147.688 25.852L147.699 25.8459C148.268 25.5114 148.843 25.1461 149.424 24.75L149.477 24.7139L150.082 24.6928L150.343 27.6933L150.616 27.6838L150.626 27.6687C150.766 27.4449 150.913 27.2329 151.065 27.0327C151.215 26.8353 151.37 26.6493 151.531 26.4748C151.973 25.9964 152.456 25.6043 152.981 25.2984L153.014 25.2791C153.578 24.9559 154.189 24.7314 154.847 24.6055C155.185 24.541 155.536 24.5023 155.899 24.4897C157.621 24.4295 159.052 24.7799 160.193 25.5407C160.478 25.7308 160.745 25.9465 160.994 26.1879C161.051 26.2432 161.107 26.2999 161.162 26.3579C161.751 26.9721 162.247 27.7626 162.648 28.7293C162.947 29.4514 163.195 30.2717 163.39 31.1903L163.398 31.2289C163.495 31.6944 163.58 32.185 163.651 32.7007L164.658 40.2678C164.662 40.2975 164.666 40.3271 164.67 40.3564C164.672 40.3658 164.673 40.3752 164.674 40.3845C164.753 40.9112 164.871 41.3834 165.029 41.8009C165.197 42.242 165.409 42.6222 165.666 42.9413C166.004 43.3619 166.42 43.6766 166.914 43.8853C166.976 43.9114 167.039 43.9359 167.103 43.9586L167.108 43.9603ZM140.49 44.9617L140.103 46.7342L129.309 47.1111L128.857 45.368C128.992 45.318 129.12 45.2601 129.242 45.1943C129.329 45.147 129.412 45.0957 129.492 45.0403C130.018 44.6742 130.386 44.1302 130.594 43.4082C130.646 43.2259 130.689 43.0323 130.721 42.8274C130.758 42.5922 130.781 42.3421 130.791 42.077C130.799 41.8767 130.799 41.6678 130.792 41.4504L130.533 34.0526C130.531 33.9916 130.528 33.9314 130.525 33.8719C130.511 33.6033 130.485 33.3494 130.449 33.1101C130.265 31.9014 129.802 31.0671 129.058 30.6073C128.84 30.4723 128.597 30.3695 128.331 30.2991L128.572 28.9676C129.907 29.6281 131.41 29.9993 133.001 29.9993C134.738 29.9993 136.372 29.5564 137.795 28.7772L138.228 41.1907C138.251 41.8298 138.336 42.3907 138.483 42.8733C138.537 43.0498 138.599 43.2158 138.67 43.3714C138.972 44.0369 139.427 44.5111 140.035 44.7938C140.178 44.8604 140.33 44.9164 140.49 44.9617ZM183.784 27.9913C183.833 27.6694 183.922 27.3582 184.051 27.0579C184.079 26.9937 184.108 26.93 184.139 26.8668C184.232 26.6781 184.342 26.4938 184.467 26.3138C184.79 25.8502 185.221 25.4157 185.759 25.0104C186.084 24.7644 186.448 24.5442 186.85 24.3497C186.89 24.3306 186.93 24.3117 186.97 24.293L186.997 24.2804L187.006 24.2766L187.052 24.2556C187.095 24.2362 187.139 24.2172 187.183 24.1985C187.896 23.8937 188.718 23.6622 189.65 23.5039C189.981 23.4477 190.326 23.4007 190.684 23.363C190.838 23.3468 190.994 23.3324 191.153 23.3196C191.23 23.3134 191.308 23.3075 191.387 23.3021C191.634 23.285 191.888 23.272 192.147 23.2629C192.235 23.2598 192.322 23.2576 192.409 23.2562C193.566 23.2371 194.632 23.3641 195.607 23.6369C195.67 23.6547 195.733 23.673 195.796 23.692C195.841 23.7058 195.887 23.7199 195.932 23.7344L195.99 23.7533C196.414 23.8921 196.819 24.0598 197.206 24.2565C197.671 24.4932 198.111 24.7718 198.524 25.0923C198.542 25.1059 198.559 25.1196 198.577 25.1334C198.786 25.2961 198.986 25.4704 199.177 25.6563C199.225 25.7035 199.272 25.7514 199.32 25.8C199.568 26.0571 199.8 26.3351 200.015 26.634C200.025 26.6481 200.035 26.6622 200.045 26.6763C200.054 26.6888 200.063 26.7013 200.072 26.7139C200.082 26.7289 200.093 26.744 200.103 26.7591C200.109 26.768 200.115 26.7769 200.122 26.7858C200.21 26.915 200.295 27.0479 200.378 27.1845L200.402 27.2257C200.47 27.3389 200.535 27.4548 200.598 27.5731C201.078 28.4706 201.44 29.514 201.685 30.7031C201.722 30.8827 201.756 31.0655 201.788 31.2516L202.054 32.8522L202.787 37.2627L203 38.538C203.02 38.671 203.042 38.8005 203.066 38.9266C203.088 39.0407 203.111 39.152 203.136 39.2605C203.164 39.3809 203.193 39.4978 203.225 39.6111C203.234 39.6438 203.243 39.6762 203.253 39.7083C203.261 39.7376 203.27 39.7667 203.279 39.7956C203.363 40.0679 203.459 40.3184 203.567 40.5468C203.671 40.7663 203.785 40.9655 203.911 41.1445C204.164 41.5029 204.449 41.7545 204.767 41.8994C205.002 42.0064 205.255 42.0552 205.526 42.0457C205.562 42.0444 205.598 42.0426 205.634 42.0403C205.642 42.0397 205.65 42.0391 205.658 42.0385C205.667 42.0379 205.675 42.0373 205.683 42.0366L205.698 42.0353C205.921 42.0157 206.116 41.9736 206.283 41.909L206.306 41.9002C206.338 41.8873 206.369 41.8735 206.399 41.8589L206.601 42.3156L206.616 42.3049C206.839 42.1397 207.033 41.9408 207.196 41.7083C207.258 41.6198 207.316 41.5266 207.369 41.4284C207.486 41.2144 207.581 40.9773 207.656 40.7171C207.709 40.5348 207.751 40.3412 207.783 40.1363C207.82 39.9011 207.844 39.651 207.854 39.3859C207.862 39.1856 207.862 38.9767 207.854 38.7593L207.596 31.3615C207.594 31.3006 207.591 31.2403 207.588 31.1808C207.573 30.9122 207.548 30.6583 207.511 30.419C207.508 30.3981 207.505 30.3772 207.502 30.3565C207.499 30.3384 207.496 30.3205 207.493 30.3026L207.49 30.286C207.485 30.261 207.481 30.2363 207.476 30.2117C207.273 29.1144 206.821 28.3493 206.121 27.9163C205.902 27.7812 205.66 27.6784 205.393 27.608L205.608 26.422C207.164 27.4204 209.015 27.9993 211.001 27.9993C212.383 27.9993 213.699 27.7189 214.897 27.2119L215.291 38.4996C215.307 38.9524 215.354 39.366 215.432 39.7402C215.465 39.8942 215.502 40.0416 215.545 40.1822C215.599 40.3587 215.662 40.5248 215.732 40.6803C216.034 41.3459 216.489 41.82 217.097 42.1027C217.23 42.1643 217.37 42.2168 217.517 42.2602L217.553 42.2707L217.165 44.0431L206.371 44.42L206.295 44.1275C206.081 44.2777 205.854 44.4145 205.613 44.5378C205.493 44.5994 205.369 44.6577 205.242 44.7126C204.664 44.9627 204.018 45.1429 203.303 45.2531C203.2 45.269 203.095 45.2834 202.989 45.2964C202.964 45.2995 202.939 45.3025 202.914 45.3054C202.902 45.3068 202.89 45.3081 202.878 45.3095C202.742 45.3247 202.604 45.3375 202.464 45.348C202.302 45.3602 202.136 45.3692 201.968 45.375C201.861 45.3788 201.755 45.381 201.65 45.3816C201.601 45.3819 201.552 45.3819 201.503 45.3815C201.184 45.379 200.878 45.3617 200.584 45.3296C200.093 45.2759 199.638 45.1809 199.218 45.0444C199.028 44.9828 198.846 44.9127 198.671 44.8342C198.544 44.7775 198.421 44.7164 198.302 44.6508C198.25 44.6221 198.199 44.5926 198.148 44.5621C197.84 44.3768 197.558 44.1601 197.304 43.912C197.277 43.8857 197.25 43.8591 197.224 43.8322C196.826 43.4246 196.497 42.9367 196.238 42.3684C196.215 42.3183 196.192 42.2675 196.171 42.2161L195.936 42.2243C195.918 42.263 195.899 42.3014 195.88 42.3394C195.799 42.4998 195.713 42.6544 195.622 42.8032C195.261 43.3888 194.817 43.8848 194.288 44.2912C194.001 44.5122 193.689 44.7066 193.352 44.8747C193.281 44.91 193.211 44.9444 193.14 44.9777C192.833 45.1226 192.521 45.2485 192.204 45.3554C191.878 45.4655 191.547 45.5555 191.21 45.6255C190.983 45.6727 190.753 45.7108 190.521 45.7397C190.38 45.7572 190.239 45.7713 190.097 45.7821L190.092 45.7825C189.972 45.7915 189.851 45.7982 189.729 45.8024C189.111 45.824 188.523 45.7894 187.964 45.6985C187.626 45.6436 187.299 45.5682 186.983 45.4723C186.885 45.4423 186.787 45.4103 186.69 45.3763C186.597 45.3436 186.505 45.3091 186.414 45.2728C185.873 45.0565 185.366 44.7747 184.893 44.4274C184.849 44.3945 184.805 44.3612 184.763 44.3276C183.856 43.6149 183.265 42.7216 182.991 41.6477C182.986 41.6268 182.981 41.6059 182.976 41.585C182.924 41.3704 182.884 41.1486 182.857 40.9198C182.837 40.7491 182.824 40.5744 182.818 40.3958C182.812 40.2235 182.812 40.0541 182.817 39.8877C182.83 39.52 182.871 39.1668 182.941 38.8281C182.99 38.5908 183.053 38.3606 183.13 38.1375C183.134 38.1251 183.139 38.1128 183.143 38.1005C183.153 38.0731 183.163 38.0458 183.173 38.0187C183.413 37.3719 183.698 36.8278 184.026 36.3864C184.224 36.1231 184.468 35.8679 184.759 35.6209C185.001 35.4159 185.275 35.2165 185.581 35.0227C185.77 34.9053 185.953 34.795 186.129 34.6917C186.216 34.641 186.301 34.592 186.385 34.5448L186.442 34.5131L186.518 34.4705C186.551 34.4526 186.583 34.435 186.615 34.4176C186.816 34.308 187.008 34.2089 187.191 34.1204C187.263 34.0856 187.334 34.0525 187.403 34.021C187.813 33.8237 188.349 33.622 189.012 33.4159L189.075 33.3966C189.243 33.3449 189.419 33.2929 189.603 33.2406C190.371 33.0148 190.996 32.8403 191.481 32.717L191.551 32.6991L191.57 32.6945L191.577 32.6927C191.596 32.688 191.614 32.6834 191.632 32.6789C191.66 32.6721 191.687 32.6655 191.713 32.6591L191.81 32.6358L191.869 32.622C191.908 32.6129 191.949 32.6036 191.99 32.5941C192.079 32.5738 192.175 32.5527 192.276 32.5307C192.338 32.5172 192.403 32.5033 192.47 32.4892C192.544 32.4733 192.622 32.4571 192.702 32.4404L192.846 32.411L192.964 32.387C193.089 32.3615 193.221 32.3353 193.359 32.3082L193.437 32.2928C193.591 32.2627 193.752 32.2315 193.92 32.1993L194.1 32.165L193.408 28.5737C193.397 28.5209 193.386 28.4692 193.374 28.4186C193.298 28.1023 193.193 27.8295 193.056 27.6002C193.052 27.5925 193.047 27.5849 193.043 27.5773C193.037 27.5685 193.032 27.5598 193.026 27.5511C192.93 27.3977 192.819 27.2648 192.694 27.1525C192.608 27.0694 192.519 26.9974 192.425 26.9365C192.375 26.9039 192.325 26.8746 192.273 26.8483C192.039 26.7303 191.783 26.6761 191.505 26.6859C191.424 26.6887 191.346 26.6971 191.271 26.7111C190.979 26.7655 190.725 26.9039 190.507 27.1265C190.48 27.1538 190.454 27.1823 190.429 27.212C190.288 27.3771 190.202 27.5625 190.172 27.7682C190.143 27.964 190.164 28.1783 190.236 28.4109C190.247 28.4498 190.258 28.4885 190.268 28.527C190.323 28.745 190.358 28.9556 190.371 29.159L190.372 29.1788C190.379 29.305 190.378 29.4285 190.369 29.5491C190.363 29.626 190.354 29.7017 190.341 29.7762C190.289 30.0829 190.181 30.3703 190.015 30.6383L190.008 30.6499C189.926 30.7806 189.831 30.9067 189.722 31.0281C189.541 31.2298 189.341 31.4046 189.124 31.5523L189.109 31.5622C188.947 31.6712 188.775 31.7652 188.592 31.8443C188.538 31.8677 188.484 31.8897 188.428 31.9105C188.272 31.9686 188.109 32.0165 187.94 32.0541C187.683 32.1111 187.411 32.1446 187.123 32.1546C186.922 32.1616 186.729 32.1567 186.545 32.1398C186.534 32.1389 186.524 32.1379 186.513 32.1368L186.495 32.135C186.429 32.1281 186.364 32.1197 186.3 32.1097C185.641 32.0066 185.097 31.7374 184.669 31.3022C184.43 31.0532 184.237 30.7628 184.09 30.431C184.081 30.4123 184.073 30.3934 184.065 30.3743C184.057 30.3561 184.05 30.3377 184.042 30.3191C184.033 30.2963 184.024 30.2733 184.015 30.2501C184.01 30.2347 184.004 30.2193 183.998 30.2038C183.924 29.9984 183.865 29.7788 183.823 29.5449C183.814 29.4995 183.807 29.4536 183.8 29.4071C183.768 29.2003 183.748 28.983 183.74 28.755C183.731 28.494 183.746 28.2394 183.784 27.9913ZM193.011 41.2906C192.878 41.2953 192.748 41.2918 192.622 41.2801C192.601 41.2782 192.581 41.2761 192.56 41.2737C192.535 41.2709 192.511 41.2677 192.486 41.2642C192.37 41.2477 192.257 41.224 192.148 41.193C192.071 41.1712 191.995 41.1459 191.922 41.1169C191.89 41.1047 191.859 41.0918 191.829 41.0783C191.642 40.9957 191.466 40.8892 191.3 40.7588C191.295 40.7549 191.29 40.7509 191.285 40.747C191.278 40.7412 191.271 40.7353 191.264 40.7294L191.242 40.7116C191.205 40.6802 191.168 40.6476 191.131 40.6136C191.029 40.5185 190.937 40.4152 190.854 40.3039C190.81 40.2447 190.768 40.1833 190.73 40.1195C190.64 39.9717 190.565 39.8116 190.504 39.6392L190.498 39.6216C190.44 39.4526 190.396 39.272 190.365 39.0796C190.356 39.0198 190.347 38.9588 190.341 38.8968C190.338 38.8705 190.335 38.844 190.333 38.8173C190.325 38.7369 190.32 38.6546 190.317 38.5705C190.314 38.4786 190.314 38.3879 190.317 38.2985L190.317 38.2969L190.317 38.2959C190.323 38.1145 190.342 37.9383 190.374 37.7672C190.401 37.618 190.439 37.4728 190.486 37.3314C190.491 37.3145 190.497 37.2978 190.503 37.281C190.545 37.161 190.595 37.0438 190.651 36.9295C190.659 36.9135 190.667 36.8975 190.675 36.8816C190.715 36.8029 190.759 36.7256 190.807 36.6496C190.847 36.5852 190.889 36.5217 190.934 36.4592C191.113 36.2109 191.331 35.9782 191.587 35.761C191.66 35.6993 191.736 35.6388 191.815 35.5795C191.97 35.4639 192.136 35.3532 192.315 35.2472C192.348 35.2277 192.381 35.2084 192.414 35.1893C192.535 35.1206 192.661 35.054 192.791 34.9894C193.072 34.8509 193.377 34.7221 193.706 34.6028C193.796 34.5702 193.888 34.5384 193.981 34.5072C194.152 34.4501 194.33 34.3953 194.513 34.343L194.528 34.3389L195.266 38.1241C195.268 38.1887 195.268 38.253 195.267 38.3167C195.267 38.3438 195.266 38.3708 195.265 38.3977C195.254 38.6841 195.209 38.9611 195.13 39.2287C195.085 39.3801 195.03 39.5285 194.963 39.6739C194.949 39.7043 194.935 39.7345 194.92 39.7646C194.907 39.791 194.894 39.8172 194.88 39.8434C194.875 39.8542 194.869 39.865 194.863 39.8758L194.854 39.893C194.796 39.9993 194.732 40.1039 194.662 40.2068C194.642 40.237 194.62 40.2671 194.599 40.2971C194.349 40.6364 194.083 40.8889 193.802 41.0546C193.753 41.0831 193.704 41.1091 193.655 41.1324C193.55 41.1822 193.443 41.2202 193.334 41.2467C193.262 41.2639 193.19 41.2762 193.117 41.2835C193.099 41.2853 193.082 41.2867 193.064 41.2879C193.047 41.2891 193.029 41.29 193.011 41.2906ZM218.802 42.227C218.923 42.1791 219.039 42.1248 219.148 42.0641C219.812 41.6962 220.264 41.0938 220.502 40.257C220.553 40.0804 220.594 39.8934 220.625 39.6959C220.691 39.2804 220.715 38.8187 220.698 38.3108L220.448 31.1667C220.439 30.9141 220.421 30.6737 220.394 30.4455C220.291 29.5886 220.058 28.905 219.694 28.3949C219.496 28.1164 219.258 27.8895 218.982 27.7144C218.761 27.5745 218.515 27.4676 218.245 27.3937L218.574 25.6233C218.629 25.6127 218.683 25.6017 218.738 25.5904C219.025 25.531 219.314 25.4625 219.605 25.3848L219.606 25.3845C220.651 25.1054 221.717 24.7083 222.806 24.1933C223.009 24.0972 223.212 23.9971 223.417 23.8928C223.858 23.6679 224.303 23.424 224.751 23.1609L224.761 23.1548C225.33 22.8203 225.905 22.455 226.486 22.059L226.539 22.0228L227.144 22.0017L227.405 25.0022L227.679 24.9927L227.688 24.9776C227.829 24.7538 227.975 24.5418 228.127 24.3416C228.277 24.1442 228.432 23.9582 228.593 23.7837C229.035 23.3053 229.518 22.9132 230.043 22.6073L230.077 22.588C230.929 22.0991 231.89 21.836 232.961 21.7986C234.683 21.7384 236.115 22.0888 237.256 22.8497C237.606 23.0833 237.929 23.3557 238.225 23.6668C239.254 24.7397 239.996 26.3505 240.452 28.4993L240.46 28.5378C240.558 29.0033 240.642 29.4939 240.713 30.0096L241.72 37.5767C241.798 38.1507 241.922 38.6617 242.092 39.1098C242.259 39.5509 242.471 39.9311 242.728 40.2503C243.067 40.6708 243.483 40.9855 243.977 41.1943C244.038 41.2203 244.101 41.2448 244.165 41.2676C244.233 41.2916 244.302 41.3138 244.372 41.3341L244.043 43.1045L233.249 43.4814L232.758 41.7397C232.91 41.6816 233.051 41.6127 233.181 41.5332C234.035 41.0106 234.417 40.0255 234.326 38.5779L234.325 38.5608C234.31 38.3313 234.283 38.0903 234.244 37.8378L233.399 32.2844L233.399 32.2817L233.324 31.7914L233.001 29.6731C232.955 29.3755 232.896 29.0994 232.826 28.8448L232.815 28.806C232.734 28.5175 232.637 28.2571 232.525 28.0247C232.041 27.021 231.274 26.541 230.223 26.5845L230.216 26.5848C230.067 26.59 229.925 26.6067 229.789 26.6348C229.762 26.6403 229.736 26.6463 229.71 26.6527C229.159 26.7877 228.722 27.1184 228.397 27.645C228.383 27.6666 228.37 27.6883 228.357 27.7102C228.107 28.1367 227.944 28.6273 227.867 29.1821C227.854 29.2786 227.843 29.377 227.835 29.4773C227.817 29.7037 227.812 29.94 227.821 30.1862L228.096 38.0525C228.104 38.3019 228.123 38.5394 228.152 38.7651L228.152 38.7688C228.195 39.1085 228.261 39.4213 228.35 39.7073C228.375 39.7901 228.403 39.8706 228.432 39.9488C228.497 40.121 228.571 40.2823 228.654 40.4328C228.959 40.9861 229.388 41.3921 229.941 41.6507C230.085 41.7177 230.236 41.7749 230.397 41.8221L230.009 43.5946L219.215 43.9715L218.802 42.227ZM196.187 49.4056C196.262 49.3638 196.339 49.3243 196.418 49.2873C196.67 49.1681 196.941 49.0738 197.229 49.0046C197.257 48.9977 197.286 48.9911 197.315 48.9847C197.386 48.9691 197.458 48.9549 197.531 48.9422C197.775 48.8998 198.031 48.874 198.299 48.8646C198.861 48.845 199.377 48.9005 199.847 49.0311C199.864 49.0358 199.881 49.0406 199.897 49.0455C200.356 49.1796 200.77 49.3867 201.138 49.6667C201.176 49.6952 201.213 49.7245 201.249 49.7544C201.344 49.8321 201.436 49.9149 201.524 50.0027C201.58 50.0565 201.634 50.1109 201.686 50.1659C201.842 50.3304 201.982 50.5005 202.105 50.6762C202.122 50.7005 202.139 50.7249 202.156 50.7494C202.207 50.8256 202.255 50.903 202.301 50.9813C202.42 51.1873 202.518 51.4005 202.596 51.6209C202.606 51.6493 202.616 51.6778 202.625 51.7065C202.737 52.0508 202.8 52.4125 202.813 52.7915C202.835 53.4197 202.711 54.0103 202.441 54.5634L202.427 54.5924C202.387 54.6721 202.344 54.7511 202.298 54.8293C202.188 55.0171 202.06 55.2004 201.915 55.3792C201.905 55.3915 201.894 55.4038 201.884 55.4161L201.87 55.4334C201.822 55.491 201.771 55.5481 201.719 55.6048C201.663 55.666 201.605 55.7251 201.546 55.782L201.543 55.7851C201.374 55.9462 201.193 56.0899 200.998 56.2164C200.962 56.2397 200.926 56.2623 200.889 56.2844C200.49 56.5249 200.038 56.6962 199.533 56.7982C199.234 56.8587 198.916 56.8948 198.579 56.9066C198.011 56.9264 197.491 56.873 197.018 56.7464C196.512 56.6108 196.06 56.3914 195.663 56.088C195.627 56.0603 195.591 56.032 195.555 56.0029C195.494 55.9526 195.435 55.9003 195.376 55.8458C195.303 55.7752 195.233 55.7033 195.166 55.6301C195.106 55.5642 195.048 55.4973 194.993 55.4293C194.893 55.3051 194.801 55.1775 194.718 55.0465C194.472 54.6571 194.302 54.2373 194.209 53.787C194.163 53.5638 194.136 53.333 194.127 53.0948C194.103 52.4139 194.238 51.7778 194.53 51.1867C194.678 50.8867 194.868 50.5982 195.097 50.3213C195.124 50.2888 195.152 50.2565 195.18 50.2243C195.245 50.15 195.312 50.0788 195.381 50.0106C195.42 49.9726 195.459 49.9355 195.499 49.8994L195.5 49.8986C195.581 49.8252 195.665 49.7556 195.752 49.6899L195.77 49.676C195.903 49.5768 196.042 49.4867 196.187 49.4056ZM201.956 57.9026L202.542 57.8822L203.103 73.9466C203.115 74.2962 203.146 74.6224 203.195 74.9252C203.236 75.1759 203.29 75.4106 203.357 75.6292C203.411 75.8057 203.473 75.9717 203.544 76.1273C203.846 76.7928 204.301 77.2669 204.909 77.5496C205.052 77.6163 205.204 77.6723 205.364 77.7176L204.977 79.49L194.183 79.867L193.731 78.1239C193.866 78.0739 193.995 78.016 194.116 77.9502C194.778 77.5907 195.228 76.9953 195.468 76.1641C195.52 75.9818 195.563 75.7882 195.595 75.5832C195.632 75.3481 195.655 75.0979 195.666 74.8329C195.673 74.6326 195.673 74.4237 195.666 74.2063L195.407 66.8085C195.406 66.7683 195.404 66.7285 195.402 66.689C195.402 66.6685 195.4 66.6481 195.399 66.6278C195.385 66.3592 195.359 66.1052 195.323 65.866C195.139 64.6573 194.676 63.823 193.932 63.3632C193.714 63.2281 193.471 63.1254 193.205 63.0549L193.532 61.2455C193.585 61.2355 193.638 61.2254 193.691 61.2151C194.591 61.0395 195.464 60.8204 196.31 60.5579C197.123 60.3053 197.912 60.0126 198.676 59.6796L198.744 59.65C199.039 59.5201 199.331 59.3842 199.619 59.2422C200.427 58.8433 201.206 58.3968 201.956 57.9026ZM217.821 79.0415L207.026 79.4185L206.614 77.674C206.735 77.6261 206.85 77.5718 206.96 77.5111C207.624 77.1432 208.075 76.5408 208.314 75.7039C208.365 75.5273 208.405 75.3403 208.437 75.1429C208.503 74.7274 208.527 74.2657 208.509 73.7578L208.26 66.6137C208.251 66.361 208.233 66.1206 208.206 65.8925C208.103 65.0355 207.87 64.352 207.506 63.8418C207.307 63.5633 207.07 63.3365 206.793 63.1613C206.573 63.0215 206.327 62.9146 206.057 62.8407L206.386 61.0703C206.44 61.0596 206.495 61.0486 206.55 61.0373C206.837 60.978 207.126 60.9094 207.417 60.8318L207.418 60.8314C208.463 60.5523 209.529 60.1553 210.617 59.6402C210.82 59.5442 211.024 59.444 211.229 59.3398C211.67 59.1149 212.114 58.8709 212.562 58.6078L212.573 58.6018C213.142 58.2673 213.717 57.902 214.298 57.5059L214.351 57.4698L214.956 57.4487L215.217 60.4492L215.49 60.4396L215.5 60.4246C215.64 60.2008 215.787 59.9888 215.939 59.7886C216.089 59.5911 216.244 59.4052 216.405 59.2307C216.847 58.7523 217.33 58.3602 217.855 58.0543L217.888 58.035C218.741 57.5461 219.702 57.2829 220.773 57.2455C222.495 57.1854 223.927 57.5358 225.068 58.2966C225.418 58.5303 225.741 58.8027 226.036 59.1138C227.065 60.1867 227.808 61.7975 228.264 63.9462L228.272 63.9847C228.37 64.4502 228.454 64.9409 228.525 65.4566L229.532 73.0237C229.609 73.5976 229.733 74.1087 229.903 74.5568C230.071 74.9979 230.283 75.378 230.54 75.6972C230.878 76.1178 231.294 76.4325 231.788 76.6412C231.85 76.6673 231.913 76.6917 231.977 76.7145C232.045 76.7385 232.114 76.7607 232.184 76.7811L231.855 78.5514L221.061 78.9284L220.57 77.1866C220.722 77.1285 220.863 77.0597 220.993 76.9802C221.847 76.4576 222.228 75.4725 222.137 74.0248L222.136 74.0077C222.121 73.7783 222.094 73.5373 222.056 73.2847L221.211 67.7314L221.21 67.7286L221.136 67.2383L220.813 65.12C220.766 64.8224 220.708 64.5464 220.638 64.2918L220.627 64.253C220.545 63.9645 220.448 63.704 220.336 63.4716C219.853 62.468 219.086 61.9879 218.035 62.0315L218.028 62.0317C217.879 62.0369 217.737 62.0536 217.601 62.0818C217.574 62.0873 217.548 62.0933 217.521 62.0997C216.971 62.2346 216.533 62.5654 216.208 63.092C216.195 63.1135 216.182 63.1353 216.169 63.1572C215.919 63.5836 215.755 64.0742 215.679 64.629C215.666 64.7255 215.655 64.8239 215.647 64.9243C215.629 65.1507 215.624 65.387 215.633 65.6332L215.907 73.4995C215.916 73.7488 215.935 73.9864 215.963 74.2121L215.964 74.2158C216.007 74.5555 216.073 74.8683 216.161 75.1543C216.187 75.237 216.214 75.3175 216.244 75.3958C216.308 75.568 216.382 75.7293 216.465 75.8797C216.77 76.4331 217.2 76.839 217.753 77.0976C217.896 77.1647 218.048 77.2219 218.208 77.2691L217.821 79.0415Z" fill="white"/>
<path d="M102.19 38.4059L104.056 39.2202L101.403 48.8889L100.72 48.9128C100.335 48.7178 99.4438 48.56 98.0455 48.4394C96.6607 48.3314 95.5323 48.2927 94.6605 48.3231L79.3378 48.8582L78.8847 47.0761C80.2491 46.5985 80.894 45.2926 80.8194 43.1585L80.236 26.4499C80.1614 24.3158 79.4272 23.0646 78.0333 22.6964L78.3603 20.8675L90.5209 20.4428L90.9747 22.2445C89.6103 22.7221 88.9651 24.0214 89.0392 26.1425L89.6929 44.8616C90.8165 44.9526 91.7362 44.9856 92.4519 44.9607C93.5971 44.9207 94.7087 44.6669 95.7868 44.1993C96.8649 43.7317 97.7706 43.1789 98.504 42.5409C99.2504 41.9025 99.9124 41.2736 100.49 40.6541C101.068 40.0346 101.499 39.5049 101.783 39.065L102.19 38.4059Z" fill="#2C2C2C"/>
<path d="M124.288 44.9629C122.357 47.1149 119.699 48.25 116.316 48.3682C112.933 48.4863 110.196 47.5396 108.106 45.528C106.03 43.5159 104.933 40.8442 104.817 37.5129C104.699 34.1555 105.6 31.4141 107.52 29.2885C109.451 27.1495 112.122 26.0205 115.531 25.9014C118.915 25.7832 121.644 26.7237 123.721 28.7228C125.796 30.7088 126.893 33.3805 127.01 36.7379C127.127 40.0692 126.219 42.8108 124.288 44.9629ZM117.708 44.5868C119.335 44.53 120.097 43.0246 119.993 40.0707C119.972 39.4591 119.832 38.6171 119.573 37.5448C119.327 36.472 118.974 35.3182 118.514 34.0835C118.067 32.8484 117.437 31.7955 116.625 30.9249C115.826 30.0538 114.971 29.6342 114.06 29.666C112.46 29.7219 111.718 31.2461 111.836 34.2386C111.861 34.9543 111.996 35.855 112.243 36.9409C112.489 38.0267 112.842 39.1674 113.3 40.3631C113.759 41.5587 114.381 42.5728 115.165 43.4053C115.95 44.2248 116.797 44.6186 117.708 44.5868Z" fill="#2C2C2C"/>
<path d="M136.844 22.851C136.091 23.6721 135.044 24.106 133.704 24.1528C132.377 24.1992 131.309 23.8456 130.501 23.0921C129.705 22.3251 129.289 21.4081 129.252 20.341C129.215 19.274 129.566 18.3171 130.305 17.4705C131.056 16.6104 132.096 16.1572 133.423 16.1109C134.763 16.0641 135.839 16.4434 136.648 17.249C137.471 18.0411 137.901 18.9707 137.938 20.0377C137.974 21.0788 137.61 22.0165 136.844 22.851ZM129.307 47.1132L128.856 45.3701C130.219 44.8665 130.864 43.5606 130.79 41.4526L130.532 34.0547C130.457 31.9206 129.723 30.6694 128.329 30.3012L128.657 28.4918C131.789 27.9003 134.597 26.786 137.081 25.1489L137.666 25.1284L138.227 41.1929C138.301 43.3009 139.055 44.558 140.489 44.9639L140.102 46.7363L129.307 47.1132Z" fill="#2C2C2C"/>
<path d="M164.656 40.2699C164.937 42.3447 165.821 43.5972 167.309 44.0273L166.98 45.7977L156.185 46.1746L155.695 44.4329C157.006 43.9311 157.501 42.6304 157.181 40.531L155.938 32.3663C155.603 30.2412 154.675 29.2118 153.153 29.278C152.359 29.3057 151.752 29.6591 151.333 30.3382C150.914 31.0173 150.722 31.8644 150.757 32.8794L151.032 40.7457C151.105 42.8278 151.872 44.0843 153.333 44.5154L152.945 46.2878L142.151 46.6647L141.738 44.9202C143.075 44.3915 143.707 43.0861 143.634 41.004L143.385 33.86C143.31 31.7258 142.576 30.4682 141.181 30.0869L141.51 28.3165C144.034 27.8245 146.689 26.6244 149.475 24.716L150.081 24.6949L150.342 27.6954L150.615 27.6859C151.898 25.6346 153.659 24.5699 155.897 24.4918C158.149 24.4132 159.903 25.0359 161.161 26.36C162.418 27.6711 163.248 29.7853 163.65 32.7028L164.656 40.2699Z" fill="#2C2C2C"/>
<path d="M176.221 46.2762C171.588 46.438 169.199 44.4238 169.052 40.2337L168.643 28.5221L164.993 28.6495L164.903 26.0535C166.694 25.4828 168.361 24.5451 169.905 23.2404C171.449 21.9358 172.688 20.4659 173.621 18.8307L175.826 18.7537L176.03 24.59L181.183 24.41L181.311 28.0797L176.158 28.2596L176.572 40.1079C176.635 41.9167 177.357 42.797 178.736 42.7488C179.556 42.7202 180.311 42.5309 181.003 42.1811L181.789 45.1242C179.99 45.8254 178.134 46.2094 176.221 46.2762Z" fill="#2C2C2C"/>
<path d="M206.398 41.861L207.098 43.4391C205.941 44.6521 204.231 45.2981 201.967 45.3772C199.039 45.4794 197.106 44.4264 196.169 42.2182L195.935 42.2264C195.364 43.4189 194.503 44.3024 193.35 44.8768C192.211 45.4508 191.003 45.76 189.728 45.8046C187.841 45.8704 186.229 45.4121 184.892 44.4295C183.568 43.4465 182.876 42.1026 182.816 40.3979C182.788 39.5781 182.892 38.8253 183.128 38.1396C183.378 37.4404 183.677 36.8567 184.025 36.3885C184.386 35.9068 184.904 35.4523 185.58 35.0248C186.268 34.5969 186.876 34.263 187.401 34.0231C187.927 33.7702 188.66 33.5101 189.602 33.2427C190.556 32.9618 191.292 32.7603 191.809 32.638C192.326 32.5157 193.089 32.3588 194.099 32.1672L193.406 28.5758C193.28 27.9419 193.042 27.4681 192.692 27.1546C192.355 26.8276 191.959 26.6721 191.503 26.688C191.074 26.703 190.715 26.8784 190.427 27.2141C190.152 27.5364 190.088 27.9361 190.235 28.413C190.531 29.4449 190.36 30.3173 189.72 31.0302C189.081 31.7431 188.214 32.1186 187.121 32.1568C186.08 32.1931 185.263 31.909 184.668 31.3043C184.087 30.6993 183.777 29.8502 183.739 28.7571C183.688 27.3127 184.361 26.0645 185.758 25.0125C187.167 23.947 189.296 23.3646 192.146 23.265C194.71 23.1755 196.835 23.7853 198.522 25.0944C200.222 26.39 201.31 28.4432 201.786 31.2538L202.998 38.5401C203.168 39.6547 203.471 40.5235 203.91 41.1466C204.349 41.7697 204.887 42.0701 205.525 42.0479C205.876 42.0356 206.167 41.9733 206.398 41.861ZM193.01 41.2927C193.596 41.2723 194.125 40.9411 194.598 40.2992C195.07 39.6443 195.292 38.92 195.264 38.1262L194.526 34.3411C191.649 35.1581 190.246 36.5686 190.316 38.5726C190.347 39.4575 190.618 40.1385 191.13 40.6158C191.642 41.093 192.268 41.3186 193.01 41.2927Z" fill="#2C2C2C"/>
<path d="M213.906 20.16C213.153 20.981 212.107 21.4149 210.766 21.4618C209.439 21.5081 208.371 21.1545 207.563 20.401C206.768 19.634 206.352 18.717 206.314 17.65C206.277 16.5829 206.628 15.6261 207.367 14.7794C208.119 13.9194 209.158 13.4661 210.486 13.4198C211.826 13.373 212.901 13.7524 213.711 14.5579C214.533 15.35 214.963 16.2796 215 17.3466C215.037 18.3877 214.672 19.3254 213.906 20.16ZM206.37 44.4222L205.918 42.679C207.281 42.1754 207.926 40.8696 207.853 38.7615L207.594 31.3636C207.52 29.2295 206.786 27.9783 205.392 27.6101L205.719 25.8007C208.852 25.2092 211.66 24.0949 214.143 22.4578L214.729 22.4373L215.29 38.5018C215.363 40.6099 216.117 41.8669 217.552 42.2728L217.164 44.0452L206.37 44.4222Z" fill="#2C2C2C"/>
<path d="M241.719 37.5788C242 39.6536 242.884 40.9061 244.371 41.3362L244.042 43.1066L233.248 43.4835L232.757 41.7418C234.069 41.24 234.564 39.9394 234.243 37.8399L233 29.6752C232.665 27.5502 231.737 26.5207 230.215 26.5869C229.421 26.6146 228.815 26.968 228.395 27.6472C227.976 28.3263 227.784 29.1733 227.82 30.1883L228.094 38.0546C228.167 40.1367 228.934 41.3932 230.395 41.8243L230.008 43.5967L219.213 43.9736L218.801 42.2292C220.137 41.7004 220.769 40.395 220.696 38.313L220.447 31.1689C220.372 29.0348 219.638 27.7771 218.244 27.3958L218.573 25.6254C221.096 25.1334 223.751 23.9333 226.538 22.025L227.143 22.0038L227.404 25.0044L227.677 24.9948C228.961 22.9436 230.722 21.8789 232.96 21.8007C235.211 21.7221 236.966 22.3448 238.223 23.6689C239.481 24.98 240.31 27.0943 240.712 30.0117L241.719 37.5788Z" fill="#2C2C2C"/>
<path d="M107.52 61.2025C110.292 61.1057 112.632 62.0793 114.54 64.1233C116.462 66.1669 117.48 68.8218 117.594 72.088C117.71 75.4193 116.933 78.1565 115.262 80.2994C113.591 82.4424 111.298 83.5647 108.383 83.6665C106.327 83.7383 104.571 83.0896 103.116 81.7202L102.843 81.7298L102.979 85.6141C103.053 87.7483 103.788 89.0059 105.182 89.3872L104.893 91.1952L94.0992 91.5722L93.6461 89.79C95.0105 89.3124 95.6554 88.0066 95.5809 85.8725L95.0465 70.5693C94.9719 68.4352 94.218 67.1782 92.7846 66.7983L93.1708 64.9868C96.0038 64.4058 98.5097 63.2239 100.688 61.4411L101.293 61.4199L101.692 63.888L101.985 63.8778C102.772 62.9122 103.583 62.239 104.416 61.8581C105.262 61.4637 106.297 61.2452 107.52 61.2025ZM107.94 79.9492C108.825 79.9183 109.513 79.4774 110.005 78.6264C110.496 77.7624 110.719 76.6927 110.674 75.4175C110.646 74.5977 110.521 73.6444 110.301 72.5577C110.094 71.4705 109.78 70.3349 109.361 69.1509C108.955 67.9534 108.379 66.9573 107.635 66.1624C106.903 65.3542 106.069 64.9664 105.132 64.9991C104.247 65.03 103.572 65.4705 103.106 66.3206C102.653 67.1572 102.45 68.2457 102.497 69.586C102.529 70.4969 102.649 71.5025 102.857 72.6027C103.077 73.6894 103.383 74.8187 103.776 75.9906C104.181 77.149 104.749 78.1064 105.479 78.8626C106.209 79.6188 107.029 79.9811 107.94 79.9492Z" fill="#2C2C2C"/>
<path d="M142.951 79.0979L143.651 80.676C142.495 81.889 140.785 82.535 138.521 82.6141C135.593 82.7163 133.66 81.6634 132.723 79.4551L132.489 79.4633C131.918 80.6558 131.057 81.5393 129.904 82.1137C128.765 82.6877 127.557 82.9969 126.282 83.0415C124.395 83.1074 122.783 82.649 121.446 81.6665C120.122 80.6834 119.43 79.3396 119.37 77.6349C119.342 76.8151 119.446 76.0623 119.682 75.3765C119.932 74.6773 120.23 74.0936 120.579 73.6254C120.94 73.1438 121.458 72.6892 122.134 72.2617C122.822 71.8338 123.43 71.4999 123.955 71.26C124.481 71.0072 125.214 70.747 126.156 70.4796C127.11 70.1988 127.846 69.9972 128.363 69.8749C128.88 69.7526 129.643 69.5957 130.652 69.4041L129.96 65.8128C129.834 65.1788 129.596 64.705 129.246 64.3915C128.909 64.0645 128.513 63.909 128.057 63.9249C127.628 63.9399 127.269 64.1153 126.981 64.4511C126.706 64.7734 126.642 65.173 126.789 65.6499C127.085 66.6819 126.914 67.5543 126.274 68.2671C125.635 68.98 124.768 69.3555 123.675 69.3937C122.634 69.43 121.816 69.1459 121.222 68.5413C120.641 67.9362 120.331 67.0871 120.293 65.994C120.242 64.5496 120.915 63.3014 122.312 62.2494C123.721 61.184 125.85 60.6015 128.7 60.502C131.264 60.4124 133.389 61.0222 135.076 62.3313C136.776 63.627 137.864 65.6801 138.34 68.4907L139.552 75.7771C139.721 76.8916 140.025 77.7605 140.464 78.3835C140.903 79.0066 141.441 79.307 142.078 79.2848C142.43 79.2725 142.721 79.2102 142.951 79.0979ZM129.564 78.5297C130.15 78.5092 130.679 78.178 131.151 77.5362C131.624 76.8813 131.846 76.1569 131.818 75.3631L131.08 71.578C128.203 72.395 126.8 73.8055 126.87 75.8095C126.901 76.6944 127.172 77.3755 127.684 77.8527C128.196 78.3299 128.822 78.5556 129.564 78.5297Z" fill="#2C2C2C"/>
<path d="M151.072 82.1758C146.439 82.3376 144.05 80.3234 143.903 76.1332L143.494 64.4216L139.844 64.5491L139.753 61.953C141.545 61.3824 143.212 60.4447 144.756 59.14C146.3 57.8353 147.538 56.3654 148.472 54.7303L150.677 54.6533L150.881 60.4896L156.034 60.3096L156.162 63.9792L151.009 64.1592L151.423 76.0074C151.486 77.8162 152.207 78.6966 153.587 78.6484C154.407 78.6198 155.162 78.4305 155.853 78.0806L156.64 81.0237C154.841 81.725 152.984 82.109 151.072 82.1758Z" fill="#2C2C2C"/>
<path d="M172.768 75.5747C174.655 75.5088 176.342 74.5705 177.83 72.7597L179.253 73.2181C179.197 75.3568 178.299 77.2512 176.559 78.9015C174.831 80.5513 172.608 81.4237 169.888 81.5187C166.401 81.6405 163.538 80.62 161.3 78.4572C159.061 76.2944 157.889 73.7035 157.784 70.6845C157.664 67.2491 158.662 64.4913 160.778 62.4109C162.894 60.3176 165.579 59.2141 168.832 59.1005C170.914 59.0278 172.746 59.4394 174.327 60.3353C175.922 61.2177 177.081 62.5061 177.804 64.2007C178.184 65.0082 178.681 65.4403 179.296 65.497L179.763 67.6891L166.4 72.2794C167.574 74.5835 169.697 75.682 172.768 75.5747ZM168.077 62.6837C167.284 62.7114 166.602 63.1587 166.033 64.0254C165.477 64.8787 165.218 65.8649 165.257 66.984C165.286 67.8038 165.351 68.5507 165.453 69.2246L171.304 67.2223C171.184 66.0278 170.848 64.9647 170.294 64.033C169.753 63.1008 169.014 62.651 168.077 62.6837Z" fill="#2C2C2C"/>
<path d="M181.221 80.3217L180.73 78.58C182.131 78.049 182.789 76.7427 182.704 74.661L182.119 57.9134C182.043 55.7533 181.297 54.5156 179.878 54.2003L180.244 52.37C183.66 51.6905 186.647 50.4787 189.205 48.7348L189.741 48.9701C189.467 50.4519 189.382 52.6698 189.485 55.6237L190.14 74.4013C190.214 76.5094 190.955 77.7669 192.363 78.1737L192.015 79.9448L181.221 80.3217Z" fill="#2C2C2C"/>
<path d="M201.718 55.6069C200.965 56.428 199.918 56.8619 198.578 56.9087C197.251 56.9551 196.183 56.6015 195.375 55.848C194.58 55.081 194.163 54.164 194.126 53.0969C194.089 52.0299 194.44 51.073 195.179 50.2264C195.93 49.3663 196.97 48.9131 198.297 48.8667C199.638 48.8199 200.713 49.1993 201.523 50.0049C202.345 50.797 202.775 51.7265 202.812 52.7936C202.848 53.8346 202.484 54.7724 201.718 55.6069ZM194.181 79.8691L193.73 78.126C195.093 77.6224 195.738 76.3165 195.664 74.2084L195.406 66.8106C195.332 64.6765 194.597 63.4253 193.203 63.0571L193.531 61.2477C196.663 60.6562 199.471 59.5419 201.955 57.9048L202.54 57.8843L203.101 73.9487C203.175 76.0568 203.929 77.3138 205.363 77.7198L204.976 79.4922L194.181 79.8691Z" fill="#2C2C2C"/>
<path d="M229.531 73.0258C229.811 75.1006 230.696 76.3531 232.183 76.7832L231.854 78.5536L221.06 78.9305L220.569 77.1888C221.88 76.687 222.375 75.3863 222.055 73.2869L220.812 65.1221C220.477 62.9971 219.549 61.9677 218.027 62.0339C217.233 62.0616 216.626 62.415 216.207 63.0941C215.788 63.7732 215.596 64.6203 215.631 65.6353L215.906 73.5016C215.979 75.5837 216.746 76.8402 218.207 77.2712L217.819 79.0437L207.025 79.4206L206.612 77.6761C207.949 77.1474 208.581 75.842 208.508 73.7599L208.259 66.6158C208.184 64.4817 207.45 63.224 206.055 62.8428L206.384 61.0724C208.908 60.5804 211.563 59.3802 214.35 57.4719L214.955 57.4508L215.216 60.4513L215.489 60.4418C216.772 58.3905 218.533 57.3258 220.771 57.2477C223.023 57.1691 224.777 57.7918 226.035 59.1159C227.293 60.427 228.122 62.5412 228.524 65.4587L229.531 73.0258Z" fill="#2C2C2C"/>
</svg>
