<svg xmlns="http://www.w3.org/2000/svg" viewBox="0 0 337.85 66.78"><defs><style>.cls-1{fill:#fff;}.cls-2{fill:#2c2c2c;}</style></defs><title>Fichier 1</title><g id="Calque_2" data-name="Calque 2"><g id="Calque_1-2" data-name="Calque 1"><path class="cls-1" d="M334.26,31l1.48-.05-.82-23.66-5.16.18-.2-5.84-17.77.62L309,7.12a5.55,5.55,0,0,1-.88,1.16,13.91,13.91,0,0,0-1.69-.42l0-.34-2.75.09h-.45l-.47,0-9,.3L291.4,9.51l-2,1.33c-.09,0-.39.19-1,.44a6.31,6.31,0,0,1-1.15.32l-.38.07a19.91,19.91,0,0,0-11.59-3,21.27,21.27,0,0,0-11.14,3.12,18.26,18.26,0,0,0-7.43-2.35l0-.15-2,.07h-.54l-.51,0-9.69.33-1,.81A11.77,11.77,0,0,0,239,3.81a12.16,12.16,0,0,0-8.42-3,13.53,13.53,0,0,0-8.49,3.51L211.25,0l-4.38,2.91A14.31,14.31,0,0,1,201.56,5l-6.72,1.31-1.08,6a18.21,18.21,0,0,0-8.53,6.07c-.21.26-.39.54-.58.8h-.15a17.69,17.69,0,0,0-5.17-4.31,20.24,20.24,0,0,0-10.73-2.51,23.77,23.77,0,0,0-4.17.51l1-5.62L152.5,2.05,148.12,5a14.39,14.39,0,0,1-5.31,2.1l-6.73,1.31-1.07,6a18.24,18.24,0,0,0-8.54,6.08c-.2.26-.38.53-.57.79h-.16a17.8,17.8,0,0,0-5.16-4.31,20.14,20.14,0,0,0-10.73-2.51A22.07,22.07,0,0,0,98.49,17.9a16,16,0,0,0-6.55-2.56l0-.34-13,.46-.07,0a13.23,13.23,0,0,0-1.74-1.28,14.37,14.37,0,0,0-7.87-2,15.62,15.62,0,0,0-10.23,4c-.69.07-1.36.18-2,.31v-.35l-.45,0a14.53,14.53,0,0,0-24.09-3.91c-.1.11-.18.23-.27.34l-.48-1.9-28.31,1L0,30.62l3.82,1L4.11,40,.37,41.27l4.7,18.47,23.37-.82c.23,0,.9,0,2.18.09h.16l1.15.59,10.61-.38.22-.81h.46a13.65,13.65,0,0,0,2.31,3.23,15.26,15.26,0,0,0,6.87,4,25.82,25.82,0,0,0,5,.95c1.07.1,2.19.15,3.34.15l1.39,0a26.67,26.67,0,0,0,13.52-3.85,17.11,17.11,0,0,0,5.69-5.83l24.12-.85a22.9,22.9,0,0,0,5.23.61l.89,0a19.78,19.78,0,0,0,13.2-5.36,20.58,20.58,0,0,0,2.26-2.53c.22.26.43.53.67.78a18.79,18.79,0,0,0,14.48,6l0,0,9.39-.34,1.42-.49a13.1,13.1,0,0,1,3.75-.53l7.45-.26a22.88,22.88,0,0,0,5.22.61l.89,0a19.74,19.74,0,0,0,13.2-5.36,20.49,20.49,0,0,0,2.26-2.53c.22.26.43.53.67.78a18.81,18.81,0,0,0,14.49,6l0,0,9.38-.34,1.42-.49a12.79,12.79,0,0,1,3.75-.53l7.45-.26a22.88,22.88,0,0,0,5.22.6h.89c.78,0,1.54-.11,2.29-.21L233.3,60,260.37,59l1.34-8.36a17.87,17.87,0,0,0,3-1.41,17.74,17.74,0,0,0,8.13,1.92h.7a18.62,18.62,0,0,0,6.08-1.25,18.13,18.13,0,0,0,6.16.82,19.4,19.4,0,0,0,5.62-1l17.18-.6.62-2.9a17,17,0,0,0,10.6,3.3l.86,0a26.74,26.74,0,0,0,8.85-1.83l8.34-3.25Zm-79.48-1.71-.05-1.24h0l.05,1.23Z"/><path class="cls-2" d="M35.62,39l1.87.82L34.84,49.5l-.69,0a8.92,8.92,0,0,0-2.67-.47,31.09,31.09,0,0,0-3.39-.12l-15.32.53-.45-1.78c1.36-.48,2-1.78,1.93-3.92l-.58-16.7c-.08-2.14-.81-3.39-2.2-3.76l.32-1.83L24,21.05l.46,1.8c-1.37.48-2,1.78-1.94,3.9l.66,18.72a26.34,26.34,0,0,0,2.76.1,9.28,9.28,0,0,0,3.33-.76,10.54,10.54,0,0,0,2.72-1.66,24.25,24.25,0,0,0,2-1.89,12.56,12.56,0,0,0,1.3-1.59Z"/><path class="cls-2" d="M46.5,24.29a4.27,4.27,0,0,1-3.14,1.3,4.28,4.28,0,0,1-3.2-1.06,3.9,3.9,0,0,1-1.25-2.75A4,4,0,0,1,40,18.91a4.66,4.66,0,0,1,6.35-.22,4,4,0,0,1,1.29,2.78A3.87,3.87,0,0,1,46.5,24.29ZM39,48.55l-.46-1.74c1.37-.51,2-1.81,1.94-3.92l-.26-7.4c-.07-2.13-.81-3.38-2.2-3.75l.33-1.81a22.89,22.89,0,0,0,8.42-3.34l.59,0,.56,16.07c.07,2.11.82,3.36,2.26,3.77l-.39,1.77Z"/><path class="cls-2" d="M64.93,43.36q8.44-.28,8.63,5.17a6.35,6.35,0,0,1-3.22,5.92,16.73,16.73,0,0,1-8.53,2.31,28,28,0,0,1-3.47-.09,15.21,15.21,0,0,1-3.16-.6,5.36,5.36,0,0,1-2.46-1.38,3.46,3.46,0,0,1-1-2.31,3.26,3.26,0,0,1,1.89-3.11v-.16a4.44,4.44,0,0,1-2.09-3.93,4.79,4.79,0,0,1,.8-2.94,4.93,4.93,0,0,1,2.32-1.84v-.16a7.08,7.08,0,0,1-3-5.81,7,7,0,0,1,2.49-5.85,11.15,11.15,0,0,1,7.22-2.47,20.25,20.25,0,0,1,2.64.11,5.92,5.92,0,0,1,5.55-4,4.32,4.32,0,0,1,2.44.58,2.17,2.17,0,0,1,1.09,1.94,3.17,3.17,0,0,1-.54,2,2.19,2.19,0,0,1-1.84.87A2.54,2.54,0,0,1,69,27.06a2.3,2.3,0,0,0-1.3-.6,1.89,1.89,0,0,0-1,.46,7.11,7.11,0,0,1,4.86,6.81,7,7,0,0,1-2.49,5.85A11.11,11.11,0,0,1,61.9,42a13.78,13.78,0,0,1-4.67-.56.85.85,0,0,0-.39.7c0,.59.63,1,1.84,1.13A44.63,44.63,0,0,0,64.93,43.36ZM62.28,30a2.07,2.07,0,0,0-1.59-.69,1.59,1.59,0,0,0-1.36.85,3.65,3.65,0,0,0-.43,2,12.89,12.89,0,0,0,.36,2.53,9.21,9.21,0,0,0,1.21,2.77,2.38,2.38,0,0,0,2.06,1.3A1.55,1.55,0,0,0,63.85,38a3.7,3.7,0,0,0,.43-2.07A10.86,10.86,0,0,0,64,34a14.56,14.56,0,0,0-.62-2.14A4.64,4.64,0,0,0,62.28,30Zm-.62,23.73a7.84,7.84,0,0,0,3.78-.92c.93-.55,1.39-1.08,1.37-1.59a.92.92,0,0,0-.77-.93,17,17,0,0,0-3.31-.08,46.28,46.28,0,0,1-4.93-.06c-.75.35-1.12.83-1.1,1.42a1.93,1.93,0,0,0,1.19,1.6A7.65,7.65,0,0,0,61.66,53.76Z"/><path class="cls-2" d="M97.35,40.9Q97.77,44,100,44.66l-.33,1.77-10.79.38-.49-1.74q2-.76,1.48-3.91L88.63,33c-.34-2.13-1.26-3.16-2.79-3.09A2.12,2.12,0,0,0,84,31a4.5,4.5,0,0,0-.57,2.54l.27,7.87c.08,2.08.84,3.34,2.3,3.77l-.38,1.77-10.8.38-.41-1.75q2-.79,1.9-3.91l-.25-7.15c-.08-2.13-.81-3.39-2.21-3.77L74.2,29a21.59,21.59,0,0,0,8-3.6l.6,0,.26,3h.28a6.23,6.23,0,0,1,5.28-3.2A6.61,6.61,0,0,1,93.85,27q1.89,2,2.49,6.35Z"/><path class="cls-2" d="M114.13,40.88a6.79,6.79,0,0,0,5.07-2.81l1.42.46a8,8,0,0,1-2.69,5.68,9.84,9.84,0,0,1-6.68,2.62,11.24,11.24,0,0,1-8.58-3.06A11,11,0,0,1,99.15,36a10.55,10.55,0,0,1,3-8.27,11.59,11.59,0,0,1,8.06-3.31,10.27,10.27,0,0,1,5.49,1.23,7.77,7.77,0,0,1,3.48,3.87,1.93,1.93,0,0,0,1.49,1.3l.47,2.19-13.36,4.59Q109.53,41,114.13,40.88ZM109.44,28a2.58,2.58,0,0,0-2,1.34,5,5,0,0,0-.78,3,20.27,20.27,0,0,0,.2,2.24l5.85-2a7.73,7.73,0,0,0-1-3.19A2.38,2.38,0,0,0,109.44,28Z"/><path class="cls-2" d="M154.58,38.86c.07,2.14.81,3.4,2.2,3.78l-.33,1.81a23,23,0,0,0-6.68,1.07l-.57,0-.89-2.49H148a7.81,7.81,0,0,1-5.94,2.69A8.88,8.88,0,0,1,135,42.83a11.84,11.84,0,0,1-3.06-8,12.05,12.05,0,0,1,2.36-8.18,8.71,8.71,0,0,1,6.89-3.34,7,7,0,0,1,5.23,1.9h.27l-.09-2.78c-.08-2.13-.81-3.38-2.21-3.75l.33-1.83a24.5,24.5,0,0,0,8.93-3.57l.53.21a34.38,34.38,0,0,0-.26,6.62ZM144.41,42a2.29,2.29,0,0,0,2-1.3,6.24,6.24,0,0,0,.65-3.32,18.36,18.36,0,0,0-.38-3,22.16,22.16,0,0,0-.94-3.39A7.59,7.59,0,0,0,144,28.09,3.11,3.11,0,0,0,141.6,27a2.33,2.33,0,0,0-2,1.36,6.22,6.22,0,0,0-.65,3.19,19,19,0,0,0,.36,2.86,30.11,30.11,0,0,0,.92,3.44,8.28,8.28,0,0,0,1.72,3A3.21,3.21,0,0,0,144.41,42Z"/><path class="cls-2" d="M172.89,38.83A6.79,6.79,0,0,0,178,36l1.42.45a7.92,7.92,0,0,1-2.69,5.69A9.76,9.76,0,0,1,170,44.77a11.19,11.19,0,0,1-8.59-3.06,11,11,0,0,1-3.52-7.77,10.52,10.52,0,0,1,3-8.27,11.52,11.52,0,0,1,8-3.31,10.21,10.21,0,0,1,5.5,1.23,7.76,7.76,0,0,1,3.47,3.87,1.91,1.91,0,0,0,1.5,1.29l.46,2.2-13.36,4.59C167.69,37.84,169.82,38.94,172.89,38.83ZM168.2,25.94a2.55,2.55,0,0,0-2,1.34,5,5,0,0,0-.77,3,20.41,20.41,0,0,0,.19,2.24l5.85-2a7.54,7.54,0,0,0-1-3.19A2.37,2.37,0,0,0,168.2,25.94Z"/><path class="cls-2" d="M213.33,36.81c.07,2.14.81,3.39,2.2,3.78l-.32,1.81a23.05,23.05,0,0,0-6.69,1.07l-.57,0L207.07,41h-.32a7.79,7.79,0,0,1-5.94,2.69,8.9,8.9,0,0,1-7.06-2.92,11.8,11.8,0,0,1-3.05-8,12,12,0,0,1,2.35-8.18,8.75,8.75,0,0,1,6.9-3.35,7,7,0,0,1,5.22,1.91h.28l-.1-2.77c-.07-2.13-.81-3.38-2.2-3.75l.32-1.83a24.27,24.27,0,0,0,8.93-3.58l.53.22a34.46,34.46,0,0,0-.25,6.61Zm-10.17,3.13a2.31,2.31,0,0,0,2-1.3,6.34,6.34,0,0,0,.64-3.32,18.23,18.23,0,0,0-.38-3,21.07,21.07,0,0,0-.94-3.39A7.59,7.59,0,0,0,202.79,26a3.14,3.14,0,0,0-2.44-1.11,2.33,2.33,0,0,0-2,1.37,6,6,0,0,0-.65,3.18,17.56,17.56,0,0,0,.35,2.86,31.86,31.86,0,0,0,.92,3.45,8.3,8.3,0,0,0,1.73,3A3.26,3.26,0,0,0,203.16,39.94Z"/><path class="cls-2" d="M231.33,15.66l-5.9,3.85-1.77-1.35,4.21-5.46a4.13,4.13,0,0,1,3-1.87,2.21,2.21,0,0,1,1.55.55,1.89,1.89,0,0,1,.69,1.41A3.27,3.27,0,0,1,231.33,15.66Zm.31,21.12A6.77,6.77,0,0,0,236.7,34l1.43.46a8,8,0,0,1-2.7,5.69,9.76,9.76,0,0,1-6.67,2.61,11.23,11.23,0,0,1-8.59-3.06,11,11,0,0,1-3.51-7.77,10.5,10.5,0,0,1,3-8.27,11.54,11.54,0,0,1,8-3.31,10.1,10.1,0,0,1,5.5,1.23,7.82,7.82,0,0,1,3.48,3.87,1.92,1.92,0,0,0,1.49,1.29l.47,2.19-13.37,4.59Q227,36.95,231.64,36.78ZM227,23.89a2.54,2.54,0,0,0-2,1.34,4.93,4.93,0,0,0-.78,3,18.1,18.1,0,0,0,.2,2.24l5.85-2a7.68,7.68,0,0,0-1-3.19A2.38,2.38,0,0,0,227,23.89Z"/><path class="cls-2" d="M254.43,19.33a8.82,8.82,0,0,1,7,2.92,11.84,11.84,0,0,1,3.05,8,12.21,12.21,0,0,1-2.33,8.21,8.67,8.67,0,0,1-6.88,3.37A7,7,0,0,1,250,39.85h-.27l.13,3.88c.08,2.14.81,3.4,2.21,3.78l-.29,1.81L241,49.7l-.45-1.78c1.37-.48,2-1.78,1.94-3.92L242,28.7c-.07-2.13-.83-3.39-2.26-3.77l.39-1.81a17.13,17.13,0,0,0,7.51-3.55l.61,0,.4,2.47h.29a7,7,0,0,1,2.43-2A8,8,0,0,1,254.43,19.33Zm.42,18.75a2.38,2.38,0,0,0,2.06-1.32,6.06,6.06,0,0,0,.67-3.21,17.81,17.81,0,0,0-.37-2.86,23.72,23.72,0,0,0-.94-3.41,8.26,8.26,0,0,0-1.73-3,3.14,3.14,0,0,0-2.5-1.16,2.3,2.3,0,0,0-2,1.32,6.49,6.49,0,0,0-.61,3.27,19.59,19.59,0,0,0,.36,3,28.75,28.75,0,0,0,.92,3.39,7.74,7.74,0,0,0,1.7,2.87A3.18,3.18,0,0,0,254.85,38.08Z"/><path class="cls-2" d="M289.86,37.23l.7,1.58a7.11,7.11,0,0,1-5.13,1.93c-2.93.11-4.86-1-5.8-3.15h-.24a5.49,5.49,0,0,1-2.58,2.65,8.49,8.49,0,0,1-3.62.93,7.48,7.48,0,0,1-4.84-1.37,5,5,0,0,1-2.07-4,6.1,6.1,0,0,1,.31-2.26,6.8,6.8,0,0,1,.89-1.75A5.63,5.63,0,0,1,269,30.39a16,16,0,0,1,1.82-1,15.15,15.15,0,0,1,2.2-.78c1-.28,1.69-.48,2.21-.6s1.28-.28,2.29-.48l-.69-3.59a2.56,2.56,0,0,0-.72-1.42,1.54,1.54,0,0,0-1.19-.46,1.4,1.4,0,0,0-1.07.52,1.2,1.2,0,0,0-.2,1.2,2.6,2.6,0,0,1-.51,2.62,3.47,3.47,0,0,1-2.6,1.12,3.08,3.08,0,0,1-2.45-.85,3.73,3.73,0,0,1-.93-2.55,4.38,4.38,0,0,1,2-3.74q2.11-1.61,6.39-1.75A9.51,9.51,0,0,1,282,20.46a9.36,9.36,0,0,1,3.27,6.16l1.21,7.29a6.09,6.09,0,0,0,.91,2.6,1.85,1.85,0,0,0,1.61.91A2.39,2.39,0,0,0,289.86,37.23Zm-13.39-.57a2.11,2.11,0,0,0,1.59-1,3.43,3.43,0,0,0,.66-2.18L278,29.71q-4.32,1.23-4.22,4.23a2.83,2.83,0,0,0,.82,2A2.49,2.49,0,0,0,276.47,36.66Z"/><path class="cls-2" d="M303.56,17.62a4.73,4.73,0,0,1,5,4.67,4.55,4.55,0,0,1-1.1,3.22,3.82,3.82,0,0,1-2.87,1.39,4,4,0,0,1-2-.36,2.69,2.69,0,0,1-1.11-1,13.38,13.38,0,0,1-.59-1.21,3.62,3.62,0,0,0-.6-1,1,1,0,0,0-.86-.42c-.82,0-1.2,1-1.15,2.9l.28,8.06q.12,3.19,2.26,3.77l-.38,1.81-10.8.38L289.18,38c1.36-.47,2-1.78,1.94-3.91L290.87,27c-.08-2.13-.81-3.39-2.2-3.77l.32-1.81a16.34,16.34,0,0,0,3.16-.91,19.41,19.41,0,0,0,2.38-1.14l2.39-1.55.6,0,.34,3h.2A6.27,6.27,0,0,1,303.56,17.62Z"/><path class="cls-2" d="M320.31,39.53q-7,.24-7.17-6.05l-.41-11.71-3.65.13L309,19.3a14.42,14.42,0,0,0,5-2.81,16.31,16.31,0,0,0,3.72-4.41l2.2-.08.21,5.84,5.15-.18.13,3.67-5.16.18.42,11.85q.09,2.72,2.16,2.64a5.4,5.4,0,0,0,2.27-.57l.79,2.94A16.75,16.75,0,0,1,320.31,39.53Z"/></g></g></svg>