<svg width="322" height="105" viewBox="0 0 322 105" fill="none" xmlns="http://www.w3.org/2000/svg">
<circle cx="192.758" cy="37.8384" r="11.5" fill="white"/>
<circle cx="204.758" cy="79.8384" r="11.5" fill="white"/>
<path fill-rule="evenodd" clip-rule="evenodd" d="M104.424 33.1537C104.087 33.5336 103.783 33.934 103.513 34.3549C102.912 35.2935 102.478 36.3338 102.212 37.476C101.985 38.4513 101.88 39.5009 101.898 40.6248C101.9 40.7135 101.902 40.8027 101.905 40.8923C101.905 40.9036 101.906 40.9149 101.906 40.9262C101.93 41.6083 102.008 42.2684 102.141 42.9067C102.173 43.0605 102.208 43.2131 102.246 43.3643C102.258 43.411 102.27 43.4575 102.282 43.5038C102.301 43.5723 102.32 43.6404 102.339 43.7084C102.454 44.1053 102.591 44.4933 102.75 44.8723C102.772 44.9243 102.794 44.976 102.817 45.0277C102.986 45.4129 103.178 45.7888 103.394 46.1552C103.928 47.0603 104.603 47.9082 105.422 48.6989C105.673 48.9418 105.932 49.1704 106.2 49.3845C106.773 49.8442 107.383 50.2374 108.029 50.5643C108.407 50.7553 108.797 50.9237 109.2 51.0693C109.865 51.3099 110.564 51.4885 111.296 51.6052C112.06 51.7268 112.861 51.7812 113.698 51.7683C113.802 51.7667 113.906 51.7641 114.01 51.7604C114.167 51.7549 114.323 51.7469 114.476 51.7362C115.036 51.6974 115.574 51.6242 116.089 51.5166C116.101 51.5143 116.112 51.5119 116.124 51.5095C116.33 51.4658 116.532 51.4166 116.731 51.362C116.849 51.3297 116.965 51.2954 117.081 51.2593C118.044 50.9569 118.922 50.52 119.714 49.9485C119.724 49.9413 119.734 49.9341 119.744 49.9269C120.071 49.6887 120.383 49.4275 120.681 49.1432C121.083 48.762 121.44 48.3678 121.752 47.9605C121.862 47.817 121.966 47.6719 122.065 47.5252C122.515 46.8565 122.85 46.1541 123.068 45.4182C123.193 45.0004 123.279 44.5717 123.329 44.1322C123.337 44.0615 123.343 43.9906 123.349 43.9193C123.362 43.7674 123.371 43.6142 123.375 43.4598L121.952 43.0014C121.834 43.1442 121.716 43.2816 121.596 43.4135C121.128 43.929 120.641 44.3617 120.135 44.7116C119.956 44.8355 119.775 44.9491 119.591 45.0523C119.146 45.3014 118.688 45.4898 118.216 45.6177C118.062 45.6595 117.906 45.6949 117.749 45.7237C117.66 45.7401 117.57 45.7545 117.479 45.7667C117.472 45.7676 117.465 45.7685 117.458 45.7695C117.271 45.7941 117.082 45.8097 116.891 45.8164C115.718 45.8574 114.684 45.7227 113.789 45.4123C112.755 45.0543 111.905 44.4625 111.239 43.6368C111.099 43.4637 110.968 43.2804 110.844 43.0867C110.821 43.0503 110.798 43.0135 110.776 42.9764C110.728 42.899 110.683 42.8201 110.638 42.7395C110.598 42.668 110.559 42.5951 110.522 42.5211L123.885 37.9308L123.418 35.7387C123.319 35.7296 123.223 35.7107 123.13 35.682C123.123 35.68 123.117 35.678 123.111 35.676C122.636 35.522 122.241 35.1108 121.926 34.4423C121.517 33.4841 120.969 32.6557 120.281 31.9572C120.051 31.7236 119.806 31.5046 119.545 31.3C119.527 31.2862 119.509 31.2724 119.491 31.2586C119.168 31.0094 118.82 30.7822 118.449 30.5769C117.901 30.2665 117.323 30.0143 116.715 29.8201C115.568 29.454 114.314 29.2947 112.954 29.3422C112.853 29.3457 112.752 29.3502 112.652 29.3557C112.458 29.3662 112.266 29.3804 112.076 29.3981C110.065 29.5863 108.285 30.1783 106.737 31.1743C106.523 31.312 106.314 31.4574 106.109 31.6105C106.105 31.6136 106.1 31.6167 106.096 31.6199C105.679 31.9322 105.281 32.2764 104.9 32.6526C104.735 32.8155 104.576 32.9825 104.424 33.1537ZM109.61 35.4175C109.438 35.962 109.36 36.5487 109.378 37.1778C109.378 37.184 109.378 37.1902 109.378 37.1965C109.378 37.2003 109.378 37.2041 109.378 37.208C109.379 37.2139 109.379 37.2198 109.379 37.2257C109.38 37.2394 109.38 37.2531 109.381 37.2668C109.391 37.5416 109.405 37.8082 109.423 38.0665C109.458 38.5636 109.509 39.0302 109.575 39.4663L112.736 38.3845L115.426 37.464C115.426 37.4571 115.425 37.4501 115.424 37.4432C115.417 37.3715 115.409 37.3003 115.4 37.2295C115.391 37.158 115.381 37.087 115.37 37.0165C115.337 36.7943 115.295 36.577 115.246 36.3645C115.239 36.3335 115.232 36.3025 115.224 36.2717C115.21 36.2154 115.196 36.1594 115.181 36.1038C115.14 35.9513 115.095 35.8013 115.046 35.6539C114.882 35.166 114.672 34.7062 114.416 34.2747C114.36 34.1777 114.301 34.086 114.241 33.9994C113.917 33.5359 113.531 33.2222 113.084 33.0583C112.812 32.9586 112.517 32.9143 112.199 32.9254C111.406 32.9531 110.724 33.4004 110.155 34.2671C109.921 34.6269 109.739 35.0104 109.61 35.4175ZM125.069 53.7706C125.067 53.7708 125.065 53.7711 125.064 53.7713C124.76 53.8156 124.466 53.8716 124.182 53.9391C123.211 54.17 122.357 54.5364 121.619 55.0384C121.252 55.2881 120.913 55.5714 120.604 55.8883C119.912 56.6026 119.405 57.395 119.084 58.2653C119.05 58.3573 119.018 58.4502 118.988 58.5439C118.929 58.7312 118.878 58.9219 118.835 59.1161C118.703 59.7107 118.648 60.338 118.671 60.9979C118.673 61.0383 118.675 61.0788 118.676 61.1193C118.677 61.1404 118.679 61.1615 118.68 61.1826C118.682 61.2243 118.685 61.2661 118.687 61.3079C118.708 61.6104 118.743 61.9161 118.792 62.2249C118.794 62.237 118.796 62.2491 118.798 62.2614C118.864 62.655 118.95 63.1153 119.057 63.6423C119.167 64.1857 119.253 64.6061 119.316 64.9036L115.607 65.0331L115.734 68.6637L119.599 68.5287L120.005 80.1622C120.026 80.7568 119.991 81.2871 119.9 81.7531C119.855 81.9825 119.797 82.1963 119.725 82.3945C119.471 83.0955 119.048 83.6017 118.455 83.9131C118.334 83.9768 118.206 84.0324 118.07 84.0798L118.522 85.8229L129.316 85.446L129.665 83.6749C129.519 83.6355 129.381 83.5867 129.249 83.5285C128.654 83.2648 128.205 82.8081 127.903 82.1586C127.821 81.9823 127.75 81.7918 127.689 81.5871C127.547 81.1045 127.464 80.543 127.442 79.9025L127.036 68.269L133.048 68.0591L132.921 64.4285L126.401 64.6561C126.189 64.2677 125.992 63.8954 125.809 63.5393C125.795 63.5112 125.781 63.4832 125.766 63.4553C125.763 63.4492 125.76 63.4431 125.757 63.437C125.754 63.4301 125.75 63.4232 125.747 63.4163C125.671 63.2675 125.598 63.1216 125.528 62.9786C125.475 62.871 125.424 62.7651 125.374 62.6608C125.339 62.5869 125.304 62.5138 125.271 62.4415C125.262 62.4234 125.254 62.4054 125.246 62.3874C125.237 62.3681 125.228 62.3489 125.219 62.3297C125.103 62.0779 124.996 61.8364 124.899 61.6049C124.85 61.4895 124.804 61.3766 124.76 61.2663C124.757 61.2587 124.754 61.2511 124.751 61.2435C124.69 61.0878 124.633 60.9371 124.581 60.7915C124.506 60.5827 124.441 60.3842 124.386 60.1961C124.38 60.1772 124.375 60.1583 124.369 60.1395C124.293 59.8723 124.236 59.6265 124.199 59.4022C124.197 59.3894 124.195 59.3767 124.193 59.364C124.191 59.3518 124.189 59.3397 124.187 59.3276C124.169 59.2073 124.158 59.0935 124.152 58.9861C124.151 58.9674 124.15 58.9488 124.149 58.9305C124.142 58.7192 124.152 58.5299 124.18 58.3626C124.253 57.9181 124.448 57.6288 124.767 57.4947C124.89 57.443 125.031 57.4144 125.191 57.4088C125.545 57.3964 125.841 57.4855 126.077 57.6761C126.106 57.6993 126.133 57.7239 126.16 57.7501C126.217 57.8051 126.27 57.8668 126.319 57.9351C126.357 57.9888 126.393 58.0465 126.427 58.1083C126.458 58.1653 126.488 58.2229 126.517 58.281C126.536 58.3208 126.555 58.3609 126.574 58.4012C126.62 58.5007 126.662 58.6019 126.702 58.7047C126.709 58.7239 126.716 58.7431 126.723 58.7624C126.733 58.788 126.742 58.8138 126.751 58.8396C126.847 59.1124 126.92 59.3965 126.971 59.6918C126.99 59.791 127.015 59.8887 127.046 59.9851C127.055 60.0135 127.064 60.0418 127.074 60.0699C127.151 60.2848 127.256 60.4926 127.39 60.6934C127.413 60.7282 127.437 60.7627 127.462 60.797C127.47 60.8076 127.478 60.8181 127.485 60.8286C127.596 60.9774 127.723 61.1222 127.866 61.2631C128.043 61.4326 128.249 61.5699 128.485 61.675C128.514 61.6881 128.543 61.7006 128.573 61.7126C128.674 61.7529 128.78 61.7876 128.89 61.8168C129.042 61.8569 129.203 61.8865 129.374 61.9058C129.587 61.9299 129.815 61.9377 130.059 61.9292C130.969 61.8974 131.674 61.5666 132.174 60.9368C132.327 60.7436 132.455 60.5372 132.558 60.3175C132.641 60.1414 132.707 59.9567 132.758 59.7635C132.778 59.6877 132.795 59.6106 132.81 59.5322C132.861 59.2621 132.883 58.9766 132.876 58.6755C132.876 58.659 132.875 58.6424 132.875 58.6258C132.874 58.5997 132.873 58.5736 132.871 58.5477C132.871 58.5454 132.871 58.543 132.871 58.5407C132.851 58.1407 132.785 57.7603 132.675 57.3995C132.61 57.1861 132.53 56.9796 132.433 56.78C132.417 56.7451 132.399 56.7104 132.381 56.6759C132.367 56.6484 132.353 56.6211 132.338 56.5939C132.103 56.162 131.791 55.7637 131.403 55.399C131.257 55.2612 131.099 55.1282 130.931 55C130.701 54.8213 130.462 54.6602 130.214 54.5169C130.076 54.4375 129.935 54.3635 129.792 54.295C129.719 54.2601 129.645 54.2266 129.57 54.1945C128.735 53.8354 127.805 53.6531 126.779 53.6475C126.657 53.6469 126.533 53.6487 126.408 53.6531C126.105 53.6637 125.81 53.684 125.523 53.7139C125.44 53.7226 125.358 53.7321 125.277 53.7424C125.216 53.75 125.156 53.7581 125.097 53.7666C125.087 53.7679 125.078 53.7692 125.069 53.7706ZM135.919 55.4797C135.878 55.5226 135.838 55.5666 135.799 55.6117C135.77 55.6439 135.743 55.6763 135.716 55.7088C135.102 56.4484 134.779 57.2704 134.746 58.1749C134.744 58.2343 134.743 58.2941 134.743 58.3542C134.743 58.3967 134.744 58.4394 134.746 58.4822C134.747 58.5084 134.748 58.5344 134.749 58.5603C134.761 58.7911 134.791 59.0148 134.84 59.2314C134.892 59.4692 134.967 59.6984 135.063 59.919C135.108 60.0228 135.159 60.1248 135.213 60.2248C135.366 60.5039 135.557 60.7681 135.785 61.0176C135.852 61.0908 135.922 61.1627 135.995 61.2333C136.053 61.2877 136.113 61.3401 136.174 61.3903C136.209 61.4194 136.245 61.4478 136.281 61.4755C136.679 61.7788 137.13 61.9983 137.637 62.1338C138.11 62.2605 138.63 62.3139 139.198 62.294C140.101 62.2625 140.871 62.0551 141.508 61.6719C141.544 61.6498 141.581 61.6271 141.616 61.6039C141.811 61.4774 141.993 61.3336 142.161 61.1726C142.162 61.1716 142.164 61.1705 142.165 61.1695C142.224 61.1126 142.282 61.0535 142.338 60.9922C142.39 60.9356 142.44 60.8785 142.488 60.8209C142.589 60.7008 142.682 60.5787 142.766 60.4545C142.771 60.4469 142.776 60.4394 142.781 60.4318C142.783 60.429 142.785 60.4262 142.787 60.4234C142.884 60.2783 142.97 60.1305 143.045 59.9798C143.325 59.4185 143.454 58.8182 143.432 58.1789C143.423 57.9324 143.394 57.6932 143.343 57.4613C143.31 57.3071 143.267 57.1561 143.215 57.0083C143.137 56.7879 143.038 56.5747 142.919 56.3688C142.834 56.2208 142.737 56.0765 142.63 55.936C142.619 55.9203 142.607 55.9047 142.594 55.8892C142.505 55.7747 142.408 55.6628 142.304 55.5534C142.252 55.4984 142.198 55.444 142.142 55.3902C142.054 55.3024 141.963 55.2196 141.868 55.1419C141.831 55.1119 141.794 55.0827 141.757 55.0542C141.433 54.8075 141.073 54.6174 140.678 54.484C140.625 54.4661 140.571 54.4492 140.517 54.4334C140.405 54.4006 140.291 54.3723 140.173 54.3482C140.091 54.3314 140.008 54.3168 139.924 54.3042C139.877 54.2972 139.829 54.2908 139.781 54.2852C139.755 54.2821 139.729 54.2792 139.703 54.2765C139.452 54.2507 139.19 54.2425 138.917 54.2521C138.891 54.253 138.865 54.254 138.839 54.2553C138.745 54.2597 138.653 54.2662 138.562 54.2748C138.344 54.2954 138.135 54.3278 137.934 54.3722C137.591 54.4478 137.272 54.5579 136.978 54.7025C136.768 54.806 136.571 54.9271 136.385 55.0659C136.306 55.1256 136.228 55.1885 136.153 55.2547C136.142 55.2651 136.13 55.2755 136.118 55.2861C136.118 55.2863 136.118 55.2866 136.117 55.2868C136.113 55.2908 136.109 55.2947 136.104 55.2987C136.041 55.3566 135.979 55.417 135.919 55.4797ZM134.734 83.3376C134.613 83.4034 134.485 83.4613 134.349 83.5113L134.801 85.2544L145.595 84.8775L145.983 83.1051C145.823 83.0597 145.671 83.0037 145.528 82.9371C144.92 82.6544 144.464 82.1803 144.162 81.5147C144.092 81.3592 144.03 81.1931 143.976 81.0167C143.828 80.534 143.743 79.9731 143.721 79.3341L143.16 63.2696L142.575 63.2901C142.384 63.4158 142.191 63.5384 141.997 63.658C141.725 63.8248 141.45 63.9856 141.171 64.1404C140.585 64.4659 139.982 64.765 139.362 65.0374C139.34 65.0473 139.317 65.0572 139.295 65.0671C138.879 65.2483 138.456 65.4175 138.026 65.5749C137.665 65.7068 137.299 65.8302 136.928 65.9453C136.082 66.2079 135.209 66.427 134.309 66.6026C134.257 66.6129 134.204 66.623 134.151 66.633L133.823 68.4424C134.09 68.5128 134.332 68.6156 134.551 68.7507C135.146 69.1188 135.562 69.7269 135.798 70.5751C135.857 70.7863 135.905 71.0124 135.942 71.2534C135.978 71.4927 136.003 71.7466 136.018 72.0152C136.021 72.0747 136.024 72.135 136.026 72.1959L136.284 79.5938C136.292 79.8112 136.292 80.02 136.284 80.2203C136.274 80.4854 136.25 80.7355 136.213 80.9707C136.181 81.1756 136.139 81.3693 136.086 81.5515C135.847 82.3828 135.396 82.9782 134.734 83.3376ZM147.578 82.8985C147.469 82.9592 147.353 83.0135 147.232 83.0614L147.645 84.8059L158.439 84.429L158.827 82.6566C158.667 82.6093 158.515 82.5521 158.371 82.4851C157.818 82.2265 157.389 81.8205 157.084 81.2672C157.001 81.1168 156.927 80.9554 156.862 80.7832C156.833 80.705 156.805 80.6245 156.78 80.5417C156.691 80.2558 156.626 79.9429 156.582 79.6033C156.582 79.602 156.582 79.6008 156.582 79.5995C156.553 79.3738 156.535 79.1363 156.526 78.8869L156.251 71.0206C156.243 70.7744 156.247 70.5381 156.265 70.3117C156.274 70.2114 156.284 70.113 156.297 70.0165C156.374 69.4617 156.537 68.9711 156.788 68.5446C156.8 68.5227 156.814 68.501 156.827 68.4794C157.152 67.9529 157.59 67.6221 158.14 67.4872C158.166 67.4807 158.193 67.4747 158.219 67.4692C158.355 67.4411 158.497 67.4244 158.646 67.4192C158.649 67.4191 158.651 67.419 158.653 67.4189C159.704 67.3754 160.471 67.8554 160.955 68.8591C161.067 69.0915 161.164 69.3519 161.245 69.6405C161.249 69.6533 161.253 69.6662 161.256 69.6792C161.326 69.9338 161.385 70.2099 161.432 70.5075L161.754 72.6258L161.829 73.1161L161.829 73.1189L162.674 78.6722C162.713 78.9248 162.74 79.1657 162.755 79.3952C162.755 79.4009 162.756 79.4066 162.756 79.4123C162.847 80.8599 162.465 81.845 161.611 82.3676C161.481 82.4472 161.34 82.516 161.189 82.5741L161.679 84.3158L172.474 83.9389L172.803 82.1685C172.732 82.1482 172.663 82.126 172.596 82.102C172.532 82.0792 172.469 82.0548 172.407 82.0287C171.913 81.8199 171.497 81.5052 171.158 81.0846C171.039 80.9358 170.928 80.7737 170.828 80.5984C170.713 80.3977 170.611 80.1796 170.522 79.9442C170.431 79.7038 170.353 79.4452 170.288 79.1685C170.28 79.134 170.272 79.0992 170.265 79.0641C170.219 78.8563 170.181 78.6387 170.15 78.4111L169.143 70.844C169.072 70.3283 168.988 69.8377 168.89 69.3722C168.888 69.3593 168.885 69.3465 168.882 69.3337C168.752 68.7203 168.599 68.1508 168.422 67.625C168.333 67.3624 168.239 67.1107 168.139 66.8699C167.738 65.9044 167.243 65.1148 166.655 64.5012C166.359 64.1901 166.036 63.9177 165.686 63.6841C165.308 63.4319 164.898 63.2248 164.456 63.0628C163.564 62.736 162.543 62.5928 161.391 62.633C160.321 62.6704 159.359 62.9335 158.507 63.4225C158.496 63.4288 158.485 63.4353 158.473 63.4417C157.948 63.7476 157.465 64.1397 157.024 64.6181C156.863 64.7926 156.707 64.9786 156.557 65.176C156.405 65.3762 156.259 65.5882 156.118 65.812C156.115 65.8171 156.112 65.8221 156.109 65.8271L155.836 65.8366L155.574 62.8361L154.969 62.8572C154.952 62.8693 154.934 62.8814 154.916 62.8934C154.336 63.2895 153.761 63.6547 153.191 63.9892C153.188 63.9913 153.184 63.9933 153.181 63.9953C152.733 64.2584 152.288 64.5023 151.847 64.7272C151.643 64.8315 151.439 64.9316 151.236 65.0277C150.148 65.5427 149.081 65.9398 148.037 66.2189C148.036 66.219 148.036 66.2191 148.035 66.2192C147.745 66.2969 147.456 66.3654 147.168 66.4248C147.114 66.4361 147.059 66.4471 147.004 66.4577L146.675 68.2281C146.946 68.302 147.191 68.4089 147.412 68.5488C147.688 68.7239 147.926 68.9508 148.125 69.2293C148.488 69.7394 148.722 70.423 148.824 71.28C148.852 71.5081 148.87 71.7485 148.879 72.0012L149.128 79.1452C149.146 79.6532 149.122 80.1149 149.055 80.5303C149.024 80.7278 148.983 80.9148 148.933 81.0913C148.694 81.9282 148.243 82.5306 147.578 82.8985ZM172.929 78.0415C172.89 78.3741 172.878 78.7194 172.89 79.0776C172.905 79.4957 172.957 79.8921 173.048 80.2668C173.091 80.4445 173.143 80.6173 173.203 80.7852C173.422 81.3981 173.755 81.9459 174.203 82.4287C174.428 82.6721 174.682 82.8989 174.966 83.1092C175.518 83.5149 176.117 83.8312 176.762 84.0581C177.168 84.2008 177.593 84.3082 178.036 84.3803C178.595 84.4712 179.184 84.5058 179.802 84.4842C180.73 84.4518 181.621 84.2793 182.477 83.9667C182.536 83.9454 182.594 83.9234 182.652 83.9008C182.841 83.8273 183.027 83.7469 183.213 83.6596C183.283 83.6262 183.354 83.5919 183.424 83.5565C183.761 83.3885 184.073 83.194 184.361 82.9731C184.78 82.6503 185.147 82.2712 185.461 81.8356C185.642 81.5831 185.806 81.3117 185.952 81.0213C185.971 80.9832 185.99 80.9448 186.009 80.9061L186.243 80.8979C186.265 80.9493 186.287 81.0001 186.31 81.0503C186.569 81.6186 186.898 82.1065 187.296 82.514C187.322 82.5409 187.349 82.5675 187.376 82.5938C187.706 82.9158 188.082 83.185 188.504 83.4012C188.582 83.4413 188.662 83.4796 188.743 83.5161C188.918 83.5946 189.1 83.6646 189.29 83.7262C189.961 83.9442 190.723 84.0566 191.576 84.0633C191.624 84.0637 191.673 84.0638 191.723 84.0635C191.827 84.0628 191.933 84.0606 192.04 84.0569C192.209 84.051 192.374 84.042 192.536 84.0298C192.676 84.0193 192.814 84.0065 192.95 83.9913C193.029 83.9825 193.106 83.9729 193.183 83.9626C193.248 83.9539 193.312 83.9447 193.375 83.9349C194.169 83.8125 194.879 83.6037 195.504 83.3086C195.565 83.2798 195.626 83.2501 195.685 83.2196C195.851 83.1348 196.01 83.0437 196.163 82.9461L196.209 83.11L207.003 82.7331L207.352 80.962C207.206 80.9199 207.068 80.8687 206.936 80.8084C206.284 80.5091 205.808 79.9857 205.507 79.2381C205.436 79.059 205.374 78.867 205.322 78.6622C205.31 78.615 205.299 78.567 205.288 78.5184C205.199 78.1212 205.146 77.6782 205.129 77.1896L204.473 58.412C204.466 58.2067 204.46 58.005 204.455 57.8068C204.447 57.5307 204.441 57.2614 204.437 56.9991C204.414 55.4484 204.453 54.1389 204.553 53.0705C204.555 53.0507 204.557 53.0309 204.559 53.0112C204.582 52.7761 204.608 52.5529 204.637 52.3416C204.643 52.2944 204.65 52.2478 204.656 52.2018C204.667 52.1283 204.678 52.0563 204.69 51.9859C204.703 51.9082 204.716 51.8324 204.73 51.7584L204.194 51.5231C204.19 51.5256 204.186 51.5281 204.183 51.5306C204.15 51.553 204.117 51.5753 204.084 51.5975C204.071 51.6058 204.059 51.6142 204.047 51.6225C204.043 51.625 204.039 51.6275 204.035 51.63C203.609 51.9151 203.171 52.1856 202.721 52.4415C200.52 53.6932 198.039 54.596 195.276 55.1498C195.262 55.1526 195.247 55.1555 195.233 55.1583L194.867 56.9886C195.16 57.0537 195.424 57.1581 195.659 57.3018C195.956 57.4829 196.208 57.7265 196.414 58.0325C196.426 58.0503 196.437 58.0682 196.449 58.0864C196.563 58.2647 196.663 58.4631 196.747 58.6818C196.959 59.2287 197.079 59.902 197.107 60.7017L197.692 77.4493C197.717 78.0424 197.681 78.5725 197.584 79.0397C197.543 79.2406 197.49 79.4298 197.427 79.6074C197.342 79.8445 197.237 80.0609 197.112 80.2566C196.972 80.4764 196.806 80.67 196.616 80.8374C196.613 80.8402 196.609 80.8429 196.606 80.8456L196.471 80.5407C196.441 80.5553 196.41 80.5691 196.378 80.582C196.299 80.6137 196.215 80.6403 196.124 80.6618C195.996 80.6919 195.857 80.712 195.706 80.7221C195.671 80.7244 195.635 80.7263 195.598 80.7275C195.577 80.7283 195.556 80.7287 195.535 80.7287C195.515 80.7287 195.495 80.7284 195.476 80.7278C195.251 80.7208 195.039 80.6719 194.839 80.5812C194.521 80.4363 194.236 80.1847 193.984 79.8263C193.858 79.6474 193.743 79.4481 193.639 79.2287C193.531 79.0002 193.435 78.7498 193.351 78.4774C193.299 78.3076 193.251 78.1292 193.208 77.9423C193.185 77.8428 193.164 77.741 193.144 77.6367C193.142 77.6272 193.14 77.6178 193.138 77.6084C193.114 77.4824 193.092 77.3528 193.072 77.2198L192.126 71.534L191.86 69.9335C191.828 69.7473 191.794 69.5645 191.757 69.385C191.517 68.2182 191.164 67.1918 190.698 66.3058C190.626 66.1697 190.552 66.0369 190.475 65.9075C190.466 65.8937 190.458 65.88 190.45 65.8663C190.441 65.8511 190.431 65.8359 190.422 65.8208C190.348 65.7001 190.272 65.5824 190.194 65.4677C190.177 65.4435 190.161 65.4196 190.144 65.3957C189.913 65.0663 189.663 64.7617 189.392 64.4818C189.345 64.4332 189.297 64.3853 189.249 64.3381C189.042 64.1364 188.825 63.9484 188.596 63.7741C188.377 63.604 188.15 63.4458 187.916 63.2994C187.678 63.15 187.432 63.013 187.178 62.8882C186.821 62.713 186.449 62.562 186.063 62.4351C185.998 62.414 185.934 62.3936 185.868 62.3738C185.806 62.3548 185.743 62.3365 185.679 62.3187C185.049 62.1421 184.38 62.0267 183.672 61.9724C183.287 61.9427 182.89 61.9313 182.481 61.938C182.395 61.9394 182.307 61.9417 182.22 61.9447C181.96 61.9538 181.707 61.9669 181.459 61.9839C181.219 62.0005 180.985 62.0208 180.756 62.0448C180.398 62.0825 180.053 62.1295 179.722 62.1857C178.811 62.3406 178.004 62.5655 177.302 62.8606C177.242 62.8857 177.183 62.9113 177.125 62.9374C177.109 62.9444 177.093 62.9514 177.078 62.9585C177.075 62.9597 177.073 62.9609 177.07 62.9622C177.061 62.9664 177.051 62.9706 177.042 62.9748C177.002 62.9935 176.962 63.0124 176.922 63.0316C176.52 63.226 176.157 63.4462 175.832 63.6922C175.293 64.0975 174.863 64.532 174.54 64.9956C174.414 65.1756 174.305 65.3599 174.212 65.5486C174.18 65.6118 174.151 65.6755 174.124 65.7397C173.895 66.2716 173.792 66.8373 173.813 67.4368C173.821 67.6648 173.84 67.8822 173.872 68.0889C173.916 68.3748 173.982 68.6403 174.071 68.8856C174.085 68.9246 174.099 68.963 174.115 69.001C174.122 69.0195 174.13 69.0379 174.137 69.0562C174.145 69.0752 174.154 69.0941 174.162 69.1128C174.309 69.4446 174.503 69.735 174.742 69.984C174.768 70.0108 174.795 70.0369 174.822 70.0624C174.83 70.0701 174.838 70.0776 174.847 70.0851C175.3 70.5008 175.874 70.7447 176.567 70.8168C176.584 70.8185 176.6 70.8201 176.617 70.8217C176.801 70.8385 176.994 70.8435 177.195 70.8364C177.483 70.8264 177.755 70.7929 178.012 70.7359C178.182 70.6983 178.344 70.6504 178.5 70.5923C178.734 70.5053 178.952 70.3953 179.154 70.2623C179.163 70.2562 179.173 70.2501 179.182 70.244C179.187 70.2407 179.192 70.2374 179.196 70.2341C179.414 70.0864 179.613 69.9117 179.794 69.7099C179.903 69.5885 179.998 69.4624 180.08 69.3318C180.082 69.3279 180.085 69.324 180.087 69.3201C180.253 69.0521 180.362 68.7648 180.414 68.458C180.426 68.3835 180.436 68.3078 180.442 68.2309C180.451 68.1103 180.452 67.9869 180.445 67.8606C180.444 67.854 180.444 67.8474 180.443 67.8408C180.43 67.6374 180.396 67.4268 180.34 67.2088C180.33 67.1704 180.32 67.1316 180.308 67.0927C180.161 66.6158 180.226 66.2161 180.501 65.8938C180.527 65.8641 180.553 65.8356 180.579 65.8084C180.853 65.5282 181.186 65.3813 181.577 65.3677C181.855 65.358 182.111 65.4121 182.345 65.5302C182.397 65.5564 182.448 65.5858 182.498 65.6183C182.591 65.6792 182.68 65.7512 182.766 65.8343C182.891 65.9466 183.002 66.0795 183.099 66.233C183.109 66.2491 183.119 66.2654 183.129 66.282C183.265 66.5114 183.371 66.7841 183.446 67.1004C183.458 67.151 183.47 67.2027 183.48 67.2555L184.172 70.8469C184.111 70.8584 184.051 70.8698 183.992 70.8811C183.824 70.9133 183.663 70.9445 183.509 70.9746C183.483 70.9798 183.457 70.9849 183.431 70.99C183.293 71.0171 183.162 71.0434 183.036 71.0688C182.996 71.0769 182.957 71.0849 182.918 71.0928C182.869 71.1028 182.822 71.1126 182.775 71.1223C182.694 71.1389 182.617 71.1552 182.542 71.171C182.475 71.1852 182.411 71.199 182.348 71.2125C182.247 71.2345 182.152 71.2556 182.063 71.2759C182.021 71.2854 181.981 71.2947 181.942 71.3038C181.922 71.3085 181.902 71.3131 181.883 71.3177C181.851 71.3251 181.819 71.3329 181.786 71.3409C181.742 71.3516 181.696 71.3628 181.649 71.3745C181.647 71.3751 181.645 71.3757 181.642 71.3763C181.636 71.3779 181.63 71.3794 181.624 71.3809C181.13 71.505 180.481 71.6855 179.676 71.9224C179.577 71.9505 179.48 71.9784 179.386 72.0063C179.305 72.0304 179.225 72.0544 179.147 72.0784C178.455 72.2912 177.898 72.4994 177.475 72.7028C177.406 72.7343 177.336 72.7675 177.264 72.8022C177.162 72.8512 177.058 72.9033 176.952 72.9586C176.897 72.987 176.842 73.0162 176.786 73.0462C176.753 73.0637 176.72 73.0814 176.687 73.0994C176.655 73.1168 176.623 73.1344 176.591 73.1523C176.565 73.1663 176.54 73.1806 176.514 73.1949C176.412 73.2519 176.308 73.3114 176.202 73.3735C176.025 73.4768 175.842 73.5871 175.653 73.7045C175.475 73.8175 175.307 73.9323 175.151 74.0491C174.715 74.3741 174.364 74.7138 174.099 75.0682C173.75 75.5364 173.451 76.1201 173.202 76.8193C173.125 77.0424 173.062 77.2726 173.013 77.5099C172.978 77.6812 172.95 77.8562 172.929 78.0349C172.929 78.0371 172.929 78.0393 172.929 78.0415ZM182.695 79.962C182.821 79.9736 182.95 79.9771 183.084 79.9724C183.187 79.9688 183.289 79.9554 183.389 79.9324C183.395 79.9311 183.4 79.9298 183.406 79.9285C183.515 79.9021 183.622 79.864 183.727 79.8143C183.777 79.7909 183.826 79.7649 183.874 79.7364C184.151 79.5732 184.413 79.3258 184.66 78.9941C184.664 78.9891 184.667 78.984 184.671 78.9789C184.766 78.8471 184.851 78.7124 184.926 78.5749C184.949 78.5323 184.971 78.4895 184.993 78.4464C185.007 78.4163 185.022 78.3861 185.036 78.3557C185.219 77.9534 185.32 77.528 185.337 77.0795C185.339 77.0526 185.339 77.0256 185.34 76.9985C185.341 76.9348 185.34 76.8706 185.338 76.8059L184.6 73.0207C184.595 73.0221 184.59 73.0235 184.586 73.0248C184.302 73.1057 184.033 73.1923 183.778 73.2847C183.45 73.4039 183.145 73.5328 182.864 73.6713C182.733 73.7358 182.607 73.8024 182.487 73.8711C182.453 73.8902 182.42 73.9095 182.387 73.929C182.209 74.035 182.042 74.1458 181.888 74.2614C181.848 74.2913 181.808 74.3216 181.77 74.3521C181.465 74.5948 181.211 74.8578 181.007 75.1411C180.962 75.2035 180.919 75.267 180.879 75.3314C180.832 75.4074 180.788 75.4847 180.747 75.5634C180.739 75.5793 180.731 75.5953 180.723 75.6114C180.667 75.7257 180.618 75.8428 180.575 75.9629C180.57 75.9796 180.564 75.9964 180.558 76.0132C180.457 76.317 180.401 76.6388 180.389 76.9787C180.386 77.0686 180.386 77.1598 180.39 77.2523C180.393 77.3364 180.398 77.4187 180.405 77.4991C180.407 77.5258 180.41 77.5523 180.413 77.5786C180.42 77.6406 180.428 77.7016 180.437 77.7614C180.468 77.9538 180.512 78.1345 180.571 78.3035C180.632 78.4826 180.709 78.6485 180.802 78.8013C180.913 78.985 181.047 79.1497 181.204 79.2954C181.247 79.3358 181.291 79.3744 181.336 79.4112C181.348 79.4211 181.36 79.4309 181.373 79.4406C181.538 79.571 181.714 79.6775 181.901 79.7601C181.932 79.7736 181.963 79.7865 181.994 79.7987C182.068 79.8277 182.143 79.853 182.22 79.8748C182.372 79.9177 182.53 79.9468 182.695 79.962ZM202.561 47.8669L213.355 47.4899L213.742 45.6785C213.581 45.636 213.43 45.5826 213.286 45.5183C212.681 45.2463 212.228 44.7788 211.926 44.1158C211.904 44.0679 211.883 44.0191 211.863 43.9692C211.858 43.9568 211.853 43.9444 211.848 43.932C211.81 43.8366 211.775 43.7376 211.744 43.635C211.638 43.2961 211.564 42.9175 211.52 42.4991C211.504 42.342 211.492 42.1792 211.484 42.0109C211.482 41.9766 211.481 41.9422 211.48 41.9075L211.198 33.846C211.197 33.7879 211.195 33.7307 211.194 33.6744C211.194 33.6168 211.193 33.56 211.193 33.5042C211.193 33.4837 211.193 33.4632 211.193 33.4429C211.194 33.4344 211.194 33.426 211.194 33.4175C211.194 33.319 211.197 33.2234 211.2 33.1308C211.201 33.1099 211.202 33.0891 211.203 33.0685C211.205 33.0306 211.207 32.9933 211.209 32.9565C211.249 32.2972 211.364 31.8005 211.556 31.4665C211.594 31.3998 211.635 31.3397 211.679 31.286C211.855 31.0731 212.078 30.962 212.348 30.9525C212.661 30.9416 212.928 31.0605 213.15 31.3094C213.168 31.3295 213.186 31.3504 213.203 31.3721C213.276 31.4554 213.345 31.544 213.41 31.638C213.563 31.8581 213.695 32.1077 213.805 32.3869C213.914 32.6412 214.033 32.8978 214.164 33.1567C214.173 33.1758 214.183 33.1949 214.193 33.214C214.257 33.3413 214.325 33.4691 214.395 33.5975C214.42 33.6429 214.447 33.6876 214.477 33.7315C214.482 33.7388 214.487 33.7462 214.492 33.7535C214.655 33.9908 214.876 34.2059 215.154 34.3987C215.262 34.4739 215.379 34.5457 215.505 34.6141C215.875 34.8011 216.309 34.9161 216.807 34.9592C217.023 34.9779 217.251 34.9831 217.491 34.9747C217.77 34.965 218.037 34.9302 218.292 34.8705C218.568 34.8061 218.831 34.7126 219.081 34.5901C219.14 34.5609 219.199 34.53 219.257 34.4975C219.577 34.3179 219.875 34.0878 220.15 33.8073C220.219 33.7377 220.286 33.6649 220.351 33.5891C220.352 33.5877 220.354 33.5863 220.355 33.5848C220.372 33.5648 220.389 33.5446 220.406 33.5244C220.456 33.4649 220.504 33.4046 220.55 33.3435C221.047 32.6863 221.34 31.9421 221.429 31.1109C221.454 30.8683 221.463 30.6183 221.454 30.3609C221.447 30.1623 221.431 29.9689 221.405 29.7807C221.4 29.7443 221.395 29.7081 221.39 29.6722C221.376 29.5844 221.36 29.4977 221.342 29.4123C221.327 29.3356 221.309 29.2598 221.29 29.185C221.189 28.7942 221.044 28.4289 220.853 28.0892C220.784 27.9674 220.71 27.8488 220.63 27.7335C220.437 27.4546 220.209 27.1949 219.947 26.9544C219.886 26.8968 219.823 26.8412 219.76 26.7876C219.69 26.7283 219.619 26.6714 219.547 26.6169C219.484 26.57 219.422 26.5248 219.358 26.4814C219.246 26.4048 219.132 26.3338 219.015 26.2682C218.453 25.9531 217.837 25.7655 217.168 25.7054C216.945 25.6855 216.717 25.6796 216.483 25.6878C216.03 25.7036 215.598 25.7527 215.187 25.835C214.503 25.9718 213.878 26.2006 213.311 26.5213C212.92 26.7424 212.557 27.0072 212.221 27.3157C212.109 27.4181 212.001 27.5254 211.896 27.6375C211.717 27.8272 211.548 28.0307 211.387 28.248C211.25 28.4332 211.119 28.6285 210.995 28.8338C210.991 28.8393 210.988 28.8448 210.985 28.8504L210.789 28.8572L210.452 25.8984L209.846 25.9196C209.817 25.939 209.788 25.9583 209.759 25.9775C209.096 26.416 208.529 26.7859 208.059 27.0872C207.985 27.1348 207.913 27.1807 207.844 27.2249C207.706 27.3129 207.577 27.3942 207.458 27.4687C206.883 27.8145 206.089 28.194 205.074 28.6073C204.114 28.9982 203.122 29.2912 202.096 29.4862C202.038 29.4974 201.979 29.5082 201.92 29.5187L201.593 31.3281C201.85 31.3985 202.085 31.4987 202.297 31.6288C203.033 32.0796 203.499 32.8888 203.696 34.0565C203.698 34.0735 203.701 34.0905 203.704 34.1077C203.753 34.4145 203.784 34.7457 203.796 35.1012L204.043 42.1672C204.061 42.6932 204.036 43.1689 203.967 43.5943C203.934 43.7945 203.892 43.9836 203.84 44.1615C203.659 44.7827 203.36 45.2679 202.943 45.6173C202.806 45.7323 202.656 45.8325 202.493 45.918C202.372 45.9817 202.243 46.0373 202.108 46.0847L202.561 47.8669ZM225.647 28.4361C225.114 28.9604 224.651 29.5279 224.26 30.1383C224.233 30.1806 224.206 30.2231 224.18 30.2657C223.62 31.1708 223.213 32.1687 222.959 33.2594C222.789 33.9871 222.688 34.7562 222.655 35.5666C222.655 35.5674 222.655 35.5682 222.655 35.5689C222.644 35.8439 222.641 36.1237 222.645 36.4082C222.647 36.5081 222.649 36.6086 222.653 36.7097C222.665 37.0503 222.69 37.3855 222.729 37.7152C222.91 39.2395 223.38 40.6473 224.141 41.9387C224.286 42.1853 224.442 42.4277 224.609 42.6658C224.655 42.7315 224.701 42.7969 224.749 42.862C225.161 43.4264 225.635 43.9666 226.168 44.4823C226.96 45.2469 227.829 45.8687 228.776 46.3477C230.428 47.1832 232.318 47.5845 234.445 47.5517C234.548 47.5501 234.652 47.5475 234.757 47.5438C234.914 47.5384 235.069 47.5303 235.223 47.5196C236.151 47.4552 237.02 47.2962 237.827 47.0427C238.791 46.7403 239.669 46.3034 240.46 45.7319C240.47 45.7248 240.48 45.7176 240.49 45.7103C240.817 45.4722 241.13 45.2109 241.428 44.9266C241.971 44.4111 242.433 43.8718 242.812 43.3086C243.262 42.6399 243.597 41.9376 243.815 41.2017C243.939 40.7838 244.026 40.3552 244.075 39.9157C244.1 39.6943 244.116 39.4701 244.121 39.2432L242.698 38.7848C242.581 38.9276 242.462 39.065 242.343 39.197C241.709 39.8951 241.041 40.4413 240.337 40.8357C239.893 41.0848 239.435 41.2733 238.963 41.4012C238.721 41.4668 238.475 41.5164 238.226 41.5501C238.219 41.5511 238.212 41.552 238.205 41.5529C238.018 41.5775 237.829 41.5932 237.637 41.5999C236.465 41.6408 235.431 41.5061 234.535 41.1958C233.285 40.7627 232.304 39.9875 231.591 38.8701C231.568 38.8337 231.545 38.7969 231.522 38.7598C231.475 38.6824 231.429 38.6035 231.385 38.523C231.345 38.4514 231.306 38.3786 231.268 38.3045L244.632 33.7142L244.164 31.5222C244.059 31.5124 243.956 31.4915 243.857 31.4594C243.382 31.3054 242.988 30.8942 242.673 30.2258C242.264 29.2676 241.715 28.4392 241.028 27.7407C240.798 27.5071 240.552 27.288 240.291 27.0835C240.274 27.0696 240.256 27.0558 240.238 27.0421C239.914 26.7929 239.567 26.5656 239.196 26.3604C238.648 26.05 238.07 25.7977 237.462 25.6036C236.315 25.2374 235.061 25.0781 233.701 25.1256C233.599 25.1292 233.499 25.1337 233.398 25.1391C233.205 25.1497 233.013 25.1638 232.823 25.1816C232.061 25.2529 231.332 25.3821 230.636 25.5694C229.496 25.8763 228.445 26.3391 227.484 26.9577C227.27 27.0954 227.061 27.2408 226.856 27.3939C226.851 27.397 226.847 27.4002 226.843 27.4033C226.426 27.7156 226.027 28.0598 225.647 28.4361ZM236.171 33.2266C236.163 33.1549 236.155 33.0837 236.146 33.0129C236.137 32.9414 236.128 32.8704 236.117 32.7999C236.084 32.5778 236.042 32.3605 235.993 32.148C235.986 32.1169 235.978 32.086 235.971 32.0551C235.957 31.9988 235.943 31.9429 235.928 31.8872C235.887 31.7347 235.842 31.5847 235.792 31.4373C235.629 30.9494 235.419 30.4897 235.163 30.0581C235.106 29.9611 235.048 29.8694 234.987 29.7829C234.663 29.3194 234.278 29.0057 233.83 28.8417C233.558 28.7421 233.264 28.6978 232.946 28.7088C232.379 28.7287 231.868 28.963 231.416 29.412C231.24 29.586 231.073 29.7921 230.915 30.0305C230.911 30.0372 230.906 30.0438 230.902 30.0505C230.353 30.8916 230.094 31.8618 230.124 32.9612C230.124 32.9674 230.125 32.9737 230.125 32.9799C230.125 32.9837 230.125 32.9876 230.125 32.9914C230.125 32.9973 230.126 33.0032 230.126 33.0091C230.126 33.0228 230.127 33.0366 230.127 33.0503C230.137 33.3251 230.151 33.5916 230.17 33.8499C230.205 34.3471 230.255 34.8137 230.321 35.2497L233.483 34.1679L236.173 33.2474C236.172 33.2405 236.172 33.2336 236.171 33.2266ZM248.321 52.1708C251.373 49.272 253.505 45.5025 254.009 41.0666L256.26 40.2937L252.41 22.2409L249.251 21.9493C247.84 20.2179 246.104 18.7611 244.081 17.6347C240.682 15.7208 236.988 15.0048 233.352 15.1317C230.002 15.2487 226.783 16.0232 223.859 17.5192C222.451 16.7368 220.942 16.205 219.378 15.9231L219.339 15.582L206.68 16.024L204.329 17.5795C203.427 18.176 202.757 18.6111 202.292 18.9042C202.261 18.9205 202.205 18.949 202.121 18.9893C201.937 19.077 201.67 19.1962 201.303 19.3458C201.07 19.4406 200.83 19.5199 200.581 19.5836C196.925 17.3726 192.772 16.5097 188.592 16.6557C184.828 16.7871 181.132 17.7265 177.873 19.7108C174.439 17.968 170.717 17.319 167.025 17.4479C164.76 17.527 162.556 17.9066 160.461 18.6064L160.422 18.4407L148.965 18.8408C147.14 18.3963 145.232 18.1699 143.268 18.2384C139.111 18.3836 134.991 19.5973 131.432 22.2955C130.132 23.281 129.01 24.4149 128.085 25.6708C126.754 24.1557 125.162 22.869 123.335 21.8517C119.935 19.9375 116.241 19.2213 112.605 19.3483C107.269 19.5346 102.267 21.3892 98.2536 25.1708L95.3344 13.5803L67.0275 14.5688L63.6564 33.4237L67.4788 34.4335L67.7698 42.7663L64.0255 44.077L68.7213 62.5468L92.0988 61.7304C92.4386 61.7185 93.1394 61.7286 94.3153 61.8193C94.3592 61.8231 94.4013 61.8269 94.4417 61.8307L95.5841 62.41L105.497 62.0638L106.089 79.0066L106.422 78.9949L110.854 96.0968L174.659 93.8686C176.467 94.3562 178.319 94.5421 180.151 94.4782C182.245 94.405 184.282 93.9897 186.218 93.2434C188.358 93.9356 190.486 94.1172 192.389 94.0508C194.194 93.9878 196.131 93.7007 198.04 93.0522L215.283 92.4501L218.934 73.8989L214.98 72.7568L214.467 58.063C214.46 57.8531 214.454 57.6514 214.449 57.4578L221.507 57.2113L222.179 54.0596C226.036 56.6237 230.501 57.6986 235.106 57.5377C239.906 57.3701 244.575 55.7418 248.321 52.1708ZM207.686 77.1004C207.724 78.1149 207.687 79.2821 207.479 80.5236C207.472 80.5642 207.465 80.6049 207.457 80.6457L209.024 84.1777L207.123 86.1717M101.145 42.6335L99.2793 41.8192L98.8724 42.4784C98.6975 42.749 98.4671 43.0535 98.1812 43.3921C98.0024 43.6039 97.8018 43.829 97.5794 44.0674C97.5607 44.0875 97.5418 44.1077 97.5229 44.1278C97.2572 44.4103 96.974 44.6948 96.6733 44.9813C96.3513 45.2879 96.0094 45.5968 95.6473 45.908C95.6299 45.923 95.6124 45.938 95.5949 45.953C95.5943 45.9534 95.5938 45.9538 95.5933 45.9543C94.903 46.5548 94.0599 47.0798 93.0642 47.5294C93.0021 47.5574 92.9394 47.5852 92.8761 47.6126C92.4627 47.7919 92.0445 47.9398 91.6213 48.0562C91.5483 48.0763 91.4752 48.0954 91.4019 48.1136C90.7918 48.2652 90.1716 48.352 89.5412 48.374C89.4318 48.3778 89.3175 48.3803 89.1985 48.3814C88.8036 48.3851 88.356 48.3738 87.856 48.3476C87.5215 48.3301 87.1636 48.3058 86.7822 48.2749L86.1285 29.5559C86.0791 28.1404 86.3499 27.0909 86.9411 26.4073C87.1478 26.1682 87.3938 25.9739 87.6789 25.8243C87.8002 25.7607 87.9285 25.7052 88.064 25.6578L87.6102 23.8562L75.4496 24.2808L75.1226 26.1098C75.261 26.1463 75.3929 26.1916 75.5182 26.2455C75.8141 26.3729 76.0738 26.5486 76.2972 26.7729C76.9329 27.4109 77.2756 28.441 77.3253 29.8633L77.9088 46.5719C77.9362 47.3575 77.8661 48.031 77.6985 48.5921C77.5208 49.1873 77.2334 49.6561 76.8363 49.9987C76.6917 50.1235 76.5326 50.2315 76.359 50.3227C76.2378 50.3864 76.1094 50.442 75.974 50.4894L76.4271 52.2716L91.7498 51.7365C92.5288 51.7093 93.5126 51.7373 94.7012 51.8207C94.8428 51.8306 94.9874 51.8413 95.1348 51.8528C95.1437 51.8536 95.1525 51.8543 95.1613 51.8551C96.5444 51.9753 97.427 52.1324 97.8092 52.3262L98.4924 52.3023L101.145 42.6335ZM146.938 50.5688C147.908 50.468 148.809 50.2894 149.641 50.0329C149.928 49.9442 150.207 49.8461 150.478 49.7388C151.329 49.4017 152.098 48.9728 152.786 48.452C153.701 47.7562 154.375 46.9212 154.807 45.947C154.891 45.7579 154.965 45.5636 155.031 45.364C155.107 45.1314 155.171 44.8917 155.223 44.6449C155.267 44.4323 155.303 44.2144 155.329 43.9912C155.378 43.571 155.395 43.1321 155.379 42.6744C155.347 41.7635 155.116 40.9507 154.688 40.2361C154.487 39.9019 154.247 39.5876 153.968 39.2931C153.911 39.2327 153.852 39.1731 153.792 39.1144C153.738 39.0626 153.684 39.0115 153.628 38.9611C153.487 38.8339 153.338 38.7109 153.181 38.5919C153.103 38.5336 153.024 38.4763 152.943 38.42C152.917 38.4016 152.89 38.3832 152.863 38.365C152.683 38.2412 152.503 38.1223 152.323 38.0082C152.075 37.8514 151.827 37.7039 151.578 37.5657C151.334 37.4296 151.088 37.3026 150.843 37.1846C150.739 37.1346 150.635 37.0862 150.53 37.0394C150.478 37.0159 150.425 36.9925 150.372 36.9691C150.15 36.8722 149.917 36.7757 149.672 36.6797C149.092 36.452 148.448 36.2266 147.739 36.0034C147.706 35.9934 147.673 35.9835 147.641 35.9735C147.561 35.949 147.482 35.9246 147.404 35.9001C147.162 35.824 146.929 35.748 146.707 35.6721C146.699 35.6695 146.691 35.6668 146.683 35.6641C146.618 35.6418 146.554 35.6196 146.491 35.5974C146.132 35.4714 145.801 35.3459 145.498 35.2209C145.492 35.2183 145.485 35.2157 145.479 35.213C145.364 35.1654 145.253 35.1178 145.146 35.0703C145.118 35.058 145.091 35.0456 145.063 35.0333C144.975 34.9934 144.89 34.9535 144.807 34.9136C144.642 34.8339 144.489 34.7544 144.347 34.675C144.314 34.6568 144.282 34.6386 144.251 34.6204C144.248 34.6189 144.246 34.6174 144.243 34.6159C144.091 34.5256 143.953 34.4307 143.83 34.3313C143.756 34.271 143.687 34.209 143.623 34.1454C143.262 33.7853 143.074 33.3713 143.057 32.9032C143.049 32.6531 143.083 32.4267 143.162 32.2242C143.183 32.1706 143.206 32.1185 143.233 32.0682C143.311 31.9231 143.414 31.7919 143.542 31.6746C143.553 31.6643 143.564 31.6542 143.575 31.6442C143.624 31.5997 143.677 31.5582 143.732 31.5197C144.056 31.2945 144.482 31.1727 145.009 31.1543C145.386 31.1411 145.778 31.1828 146.187 31.2792C146.197 31.2816 146.207 31.284 146.217 31.2865C146.373 31.3243 146.532 31.37 146.693 31.4238C146.695 31.4247 146.698 31.4256 146.701 31.4264C146.911 31.497 147.125 31.5812 147.343 31.679C147.807 31.8871 148.289 32.1568 148.789 32.488C148.793 32.491 148.798 32.4941 148.802 32.4971C148.813 32.5044 148.825 32.5117 148.836 32.5191C148.921 32.5757 149.006 32.6335 149.09 32.6925C149.496 32.9778 149.885 33.2919 150.255 33.6346C150.685 34.032 151.09 34.4679 151.472 34.9424C151.627 35.1356 151.778 35.3351 151.926 35.5411C152.037 35.6971 152.147 35.8569 152.254 36.0202C152.261 36.0317 152.269 36.0431 152.276 36.0546C152.301 36.0924 152.325 36.1305 152.35 36.1687C152.359 36.1834 152.368 36.198 152.378 36.2127L154.251 35.5805L152.605 28.7198L152 28.7409C151.992 28.7483 151.984 28.7557 151.976 28.763C151.97 28.7689 151.963 28.7748 151.957 28.7806C151.906 28.8274 151.852 28.8717 151.797 28.9135C151.532 29.1151 151.222 29.2603 150.869 29.3492C150.858 29.3521 150.846 29.3548 150.835 29.3576C150.611 29.4113 150.369 29.4428 150.109 29.4518C150.105 29.452 150.101 29.4521 150.097 29.4522C150.022 29.4536 149.926 29.4457 149.809 29.4283C149.786 29.4249 149.762 29.4211 149.737 29.4169C149.73 29.4157 149.722 29.4145 149.715 29.4133C149.4 29.3589 148.955 29.2477 148.38 29.0797C148.156 29.0143 147.913 28.9403 147.65 28.8577C147.633 28.8525 147.616 28.8472 147.6 28.8419C147.575 28.8343 147.551 28.8266 147.527 28.8189C146.631 28.5318 145.758 28.3491 144.909 28.2706C144.472 28.2303 144.042 28.2175 143.617 28.2323C142.605 28.2677 141.659 28.4066 140.777 28.6492C140.746 28.6578 140.714 28.6666 140.683 28.6755C139.493 29.0146 138.424 29.5442 137.474 30.2644C137.016 30.6116 136.623 30.9881 136.296 31.394C135.859 31.9348 135.539 32.5278 135.334 33.1728C135.131 33.8149 135.042 34.5085 135.068 35.2537C135.123 36.8283 135.808 38.1724 137.124 39.286C137.206 39.3545 137.289 39.4221 137.373 39.4887C137.683 39.7351 138.008 39.9682 138.348 40.188C138.397 40.2197 138.446 40.2512 138.496 40.2824C138.618 40.3591 138.742 40.4341 138.867 40.5074C139.022 40.5977 139.18 40.6855 139.34 40.7707C139.558 40.8863 139.781 40.9972 140.009 41.1035C140.117 41.1542 140.227 41.2039 140.339 41.2525C140.357 41.2605 140.375 41.2685 140.394 41.2764C140.887 41.4899 141.404 41.6824 141.943 41.8537C142.124 41.9143 142.301 41.9749 142.473 42.0354C142.478 42.0371 142.483 42.0387 142.487 42.0404C142.945 42.2013 143.372 42.3622 143.769 42.5229C144.092 42.6538 144.395 42.7846 144.678 42.9154C144.73 42.9393 144.781 42.9632 144.831 42.9871C144.921 43.0297 145.009 43.0724 145.095 43.1151C145.2 43.1675 145.302 43.22 145.401 43.2725C145.412 43.2781 145.422 43.2837 145.433 43.2894C145.436 43.2912 145.44 43.293 145.443 43.2948C145.467 43.3077 145.491 43.3207 145.515 43.3337C146.234 43.7249 146.773 44.1156 147.131 44.5056C147.142 44.5173 147.153 44.529 147.163 44.5406C147.205 44.5874 147.244 44.6342 147.28 44.681C147.525 44.9948 147.653 45.3082 147.664 45.6212C147.668 45.7274 147.665 45.8293 147.656 45.9267C147.652 45.9699 147.647 46.0122 147.64 46.0536C147.638 46.0671 147.636 46.0804 147.634 46.0937C147.588 46.3482 147.493 46.5693 147.35 46.7569C147.327 46.7879 147.302 46.8181 147.276 46.8473C146.974 47.1818 146.498 47.3964 145.848 47.491C145.762 47.5035 145.673 47.5139 145.581 47.5222C145.474 47.5318 145.364 47.5386 145.249 47.5426C144.416 47.5717 143.526 47.4343 142.578 47.1304C141.926 46.9213 141.247 46.6333 140.541 46.2665C140.52 46.2555 140.498 46.2443 140.477 46.2331C140.403 46.1944 140.329 46.1549 140.255 46.1145C140.124 46.0426 139.994 45.9689 139.867 45.8935C139.483 45.6666 139.115 45.4237 138.764 45.1648C138.707 45.123 138.651 45.0808 138.595 45.0381C138.568 45.0176 138.542 44.997 138.515 44.9763C138.263 44.7804 138.019 44.5758 137.784 44.3627C137.765 44.3452 137.746 44.3277 137.727 44.3101C137.315 43.9308 136.93 43.5245 136.573 43.0913C136.351 42.8214 136.139 42.5409 135.938 42.25C135.917 42.2202 135.897 42.1902 135.876 42.1601C135.855 42.1294 135.835 42.0987 135.814 42.0678L134.268 42.5712L136.215 50.1837L136.82 50.1626L137.049 49.9983C137.067 49.9843 137.086 49.9701 137.106 49.9558C137.245 49.8586 137.444 49.7545 137.701 49.6433C137.866 49.5643 138.041 49.5056 138.224 49.4671C138.294 49.4525 138.365 49.4408 138.437 49.432C138.442 49.4314 138.447 49.4308 138.452 49.4303C138.475 49.4276 138.499 49.4252 138.522 49.4231C138.571 49.4188 138.62 49.4157 138.67 49.414C138.694 49.4145 138.72 49.4157 138.748 49.4174C138.839 49.423 138.947 49.4349 139.073 49.453C139.166 49.4664 139.269 49.4832 139.382 49.5034C139.422 49.5106 139.463 49.5181 139.505 49.5261C139.532 49.5313 139.56 49.5366 139.588 49.542C140.139 49.6494 140.883 49.8241 141.82 50.0662C143.277 50.4427 144.456 50.6395 145.358 50.6564C145.473 50.6586 145.584 50.6578 145.69 50.6541C146.059 50.6412 146.419 50.6183 146.77 50.5854C146.826 50.5801 146.882 50.5746 146.938 50.5688ZM157.101 34.0741C156.985 34.3652 156.882 34.6642 156.791 34.9709C156.729 35.1819 156.673 35.3966 156.623 35.615C156.46 36.3257 156.362 37.0756 156.329 37.8647C156.313 38.2428 156.312 38.6298 156.326 39.0258C156.329 39.0998 156.332 39.1736 156.336 39.2471C156.36 39.7115 156.41 40.1657 156.486 40.6096C156.605 41.3038 156.787 41.9728 157.032 42.6167C157.165 42.9677 157.317 43.3113 157.488 43.6474C157.691 44.0456 157.92 44.4334 158.175 44.8107C158.615 45.462 159.134 46.0821 159.731 46.6708C159.774 46.7133 159.817 46.7557 159.861 46.7978C161.12 48.0069 162.572 48.8589 164.217 49.3539C165.515 49.7441 166.932 49.9123 168.469 49.8587C169.388 49.8266 170.238 49.7205 171.018 49.5404C171.13 49.5145 171.241 49.4871 171.35 49.4581C172.163 49.2428 172.897 48.9428 173.551 48.5581C173.97 48.3117 174.356 48.0305 174.71 47.7146C175.136 47.3336 175.515 46.902 175.847 46.4198C175.85 46.4153 175.853 46.4107 175.856 46.4062C175.861 46.3991 175.866 46.3921 175.871 46.385C176.374 45.645 176.766 44.787 177.047 43.8112C177.181 43.3468 177.29 42.8557 177.374 42.3379C177.409 42.1196 177.44 41.8964 177.466 41.6686L176.062 41.19C175.978 41.2861 175.89 41.3812 175.798 41.4754C175.305 41.9816 174.703 42.4595 173.992 42.9092C173.929 42.949 173.865 42.9885 173.801 43.0278C172.882 43.5941 171.89 43.8958 170.822 43.9331C170.161 43.9562 169.543 43.9126 168.971 43.8024C168.723 43.7547 168.483 43.6946 168.251 43.6219C167.758 43.467 167.303 43.2554 166.886 42.987C166.537 42.7632 166.216 42.5 165.92 42.1973C165.806 42.0805 165.696 41.9578 165.59 41.8293C165.497 41.7168 165.407 41.6004 165.32 41.4801C165.27 41.4104 165.221 41.3394 165.173 41.267C165.009 41.0191 164.857 40.7558 164.718 40.4773C164.459 39.9567 164.245 39.3827 164.075 38.7553C163.974 38.3823 163.889 37.9905 163.819 37.5797C163.812 37.5339 163.804 37.4879 163.797 37.4416C163.711 36.9007 163.652 36.3278 163.621 35.7227C163.614 35.6067 163.609 35.4895 163.605 35.3711C163.605 35.3557 163.604 35.3404 163.604 35.325C163.602 35.2851 163.602 35.2453 163.601 35.2058C163.6 35.1721 163.6 35.1386 163.6 35.1053C163.6 35.0959 163.599 35.0865 163.599 35.0771C163.599 35.0127 163.6 34.949 163.601 34.8858C163.601 34.8511 163.602 34.8166 163.603 34.7823C163.619 34.2379 163.687 33.7396 163.806 33.2872C163.836 33.1741 163.869 33.064 163.906 32.9567C164.021 32.6165 164.168 32.3053 164.348 32.0229C164.891 31.157 165.547 30.7107 166.314 30.6839C166.768 30.668 167.162 30.7462 167.495 30.9184C167.661 31.0041 167.812 31.1131 167.948 31.2454C167.993 31.2892 168.036 31.3356 168.078 31.3845C168.362 31.7072 168.598 32.0734 168.785 32.4832C168.883 32.6995 168.968 32.9279 169.039 33.1684C169.105 33.3771 169.173 33.5869 169.243 33.7978C169.28 33.9126 169.319 34.0278 169.358 34.1433C169.374 34.1918 169.39 34.2404 169.407 34.2891C169.505 34.5767 169.606 34.8663 169.71 35.158C169.726 35.2029 169.742 35.248 169.759 35.2931C169.78 35.3491 169.803 35.4044 169.827 35.4591C169.839 35.4852 169.85 35.5112 169.862 35.537C169.902 35.6223 169.945 35.7058 169.991 35.7877C169.998 35.7997 170.005 35.8118 170.012 35.8237C170.042 35.8758 170.074 35.9271 170.106 35.9777C170.238 36.1824 170.391 36.3754 170.565 36.5567C170.744 36.7439 170.946 36.9186 171.169 37.0809C171.199 37.1024 171.229 37.1233 171.26 37.1438C171.41 37.2451 171.571 37.3338 171.743 37.4099C172.003 37.5254 172.286 37.6119 172.593 37.6694C172.965 37.739 173.371 37.7662 173.812 37.7508C174.399 37.7303 174.935 37.576 175.421 37.2879C175.732 37.1034 176.022 36.864 176.291 36.5698C176.649 36.172 176.91 35.7513 177.073 35.3077C177.078 35.2957 177.082 35.2837 177.086 35.2717C177.229 34.8711 177.292 34.452 177.277 34.0143C177.261 33.5408 177.192 33.0886 177.071 32.6579C177.055 32.6037 177.039 32.5498 177.022 32.4964C176.856 31.9708 176.611 31.4778 176.285 31.0174C176.259 30.9801 176.232 30.943 176.204 30.9061C176.124 30.7977 176.039 30.6912 175.949 30.5865C175.936 30.572 175.924 30.5576 175.911 30.5432C175.832 30.4521 175.749 30.3623 175.662 30.274C175.276 29.8791 174.819 29.5124 174.294 29.174C174.035 29.0055 173.769 28.8493 173.496 28.7052C173.012 28.4502 172.507 28.2335 171.979 28.0551C171.95 28.0453 171.921 28.0356 171.892 28.026C171.882 28.0229 171.873 28.0199 171.864 28.0168C171.43 27.8754 170.981 27.7597 170.517 27.6696C169.535 27.4788 168.488 27.4029 167.374 27.4418C166.975 27.4557 166.586 27.4845 166.204 27.5281C164.986 27.6673 163.856 27.9579 162.812 28.3999C162.032 28.7303 161.3 29.1454 160.617 29.645C160.608 29.6517 160.598 29.6585 160.589 29.6653C160.464 29.7573 160.341 29.8521 160.219 29.9498C159.92 30.19 159.631 30.4474 159.351 30.722C159.341 30.7321 159.331 30.7421 159.32 30.7522C158.675 31.3868 158.133 32.0844 157.696 32.8451C157.47 33.238 157.272 33.6476 157.101 34.0741ZM185.607 27.1533C183.738 27.6917 182.179 28.6528 180.93 30.0367C180.425 30.5954 179.991 31.1966 179.627 31.8403C179.253 32.503 178.953 33.2108 178.728 33.9636C178.606 34.3708 178.506 34.7913 178.427 35.2249C178.426 35.2348 178.424 35.2448 178.422 35.2548C178.255 36.195 178.19 37.1971 178.227 38.2611C178.227 38.2782 178.228 38.2954 178.229 38.3125C178.229 38.3233 178.229 38.3341 178.23 38.3449C178.242 38.6512 178.263 38.9519 178.292 39.247C178.295 39.2837 178.299 39.3203 178.303 39.3568C178.395 40.2283 178.56 41.0504 178.799 41.823C179.018 42.5312 179.299 43.1978 179.641 43.8229C179.856 44.2152 180.096 44.591 180.359 44.9505C180.534 45.1892 180.72 45.4207 180.916 45.645C181.106 45.8621 181.306 46.0725 181.516 46.2761C182.142 46.8787 182.826 47.3857 183.568 47.7972C183.811 47.9317 184.059 48.056 184.314 48.17C184.329 48.1766 184.344 48.1831 184.358 48.1895C184.851 48.407 185.366 48.5866 185.905 48.7284C186.036 48.7628 186.168 48.7951 186.302 48.8251C187.358 49.0621 188.499 49.1592 189.726 49.1164C190.25 49.0981 190.757 49.0554 191.246 48.9883C191.667 48.9305 192.075 48.8547 192.47 48.7608C192.958 48.6449 193.426 48.5015 193.875 48.3305C194.167 48.2192 194.451 48.0962 194.726 47.9616C195.857 47.4084 196.848 46.6582 197.698 45.7111C198.202 45.1496 198.636 44.5479 199 43.9062C199.253 43.4608 199.473 42.996 199.659 42.5119C199.683 42.4476 199.707 42.3828 199.731 42.3177C199.927 41.7757 200.082 41.21 200.195 40.6205C200.198 40.6075 200.2 40.5945 200.203 40.5815C200.386 39.6134 200.458 38.5816 200.42 37.486C200.41 37.1854 200.391 36.8903 200.365 36.6007C200.362 36.5712 200.36 36.5418 200.357 36.5124C200.342 36.3538 200.324 36.1968 200.304 36.0415C200.268 35.765 200.225 35.4937 200.174 35.2276C199.966 34.1328 199.629 33.1272 199.166 32.2109C199.155 32.1892 199.144 32.1675 199.132 32.1459C198.874 31.6439 198.577 31.169 198.241 30.7211C197.909 30.2779 197.539 29.8612 197.131 29.471C196.723 29.0786 196.29 28.727 195.833 28.4162C195.392 28.117 194.928 27.8556 194.44 27.632C194.424 27.6245 194.408 27.6171 194.391 27.6097C193.716 27.3041 192.995 27.0708 192.23 26.9096C191.213 26.6952 190.116 26.6085 188.941 26.6496C188.389 26.6689 187.857 26.7146 187.344 26.7868C186.738 26.8721 186.159 26.9942 185.607 27.1533ZM190.035 31.6731C189.728 31.3381 189.412 31.0699 189.089 30.8685C188.57 30.546 188.031 30.3946 187.47 30.4142C187.247 30.422 187.04 30.4584 186.85 30.5234C185.884 30.8542 185.351 31.925 185.251 33.7358C185.251 33.7427 185.25 33.7497 185.25 33.7566C185.247 33.8138 185.244 33.8717 185.242 33.9303C185.242 33.9301 185.242 33.9306 185.242 33.9303C185.23 34.2592 185.231 34.6118 185.246 34.9868C185.256 35.2868 185.286 35.6195 185.335 35.9846C185.338 36.0059 185.341 36.0273 185.344 36.0488C185.392 36.3866 185.455 36.7517 185.535 37.144C185.539 37.165 185.544 37.1861 185.548 37.2073C185.568 37.3049 185.589 37.4042 185.612 37.5051C185.625 37.5658 185.639 37.6271 185.653 37.689C185.676 37.7919 185.7 37.8953 185.726 37.9992C185.846 38.4947 185.988 39.0014 186.152 39.5194C186.185 39.6243 186.219 39.7296 186.254 39.8354C186.263 39.8608 186.271 39.8862 186.28 39.9116C186.325 40.0477 186.372 40.1845 186.42 40.322C186.493 40.5283 186.568 40.7362 186.647 40.9459C186.65 40.9541 186.654 40.9624 186.657 40.9706C186.667 40.9982 186.678 41.0258 186.688 41.0534C186.695 41.0727 186.703 41.092 186.71 41.1113C186.916 41.6465 187.154 42.1454 187.424 42.6079C187.758 43.1785 188.142 43.6937 188.575 44.1535C188.9 44.4922 189.235 44.7582 189.58 44.9515C190.071 45.2258 190.584 45.3537 191.118 45.335C191.282 45.3293 191.437 45.3088 191.584 45.2737C192.709 45.0034 193.315 43.8641 193.402 41.8556C193.416 41.5325 193.416 41.187 193.403 40.8189C193.393 40.5106 193.352 40.1437 193.28 39.7183C193.277 39.699 193.274 39.6795 193.271 39.6599C193.257 39.5778 193.241 39.4936 193.225 39.4072C193.182 39.1769 193.13 38.9315 193.071 38.671C193.07 38.6655 193.069 38.6599 193.068 38.6543C193.041 38.5369 193.013 38.4165 192.983 38.293C192.981 38.2852 192.979 38.2775 192.978 38.2698C192.938 38.0987 192.896 37.9256 192.851 37.7504C192.72 37.2381 192.566 36.7082 192.388 36.1608C192.31 35.9191 192.227 35.6739 192.139 35.4254C192.077 35.2487 192.012 35.0703 191.946 34.8902C191.943 34.882 191.94 34.8738 191.937 34.8656C191.932 34.8543 191.928 34.843 191.924 34.8317C191.915 34.8059 191.905 34.7802 191.896 34.7545C191.892 34.745 191.889 34.7355 191.885 34.726C191.668 34.1437 191.409 33.6026 191.109 33.1027C190.796 32.5813 190.438 32.1048 190.035 31.6731ZM188.436 39.054C188.415 39.0289 188.404 39.0071 188.387 38.9665C188.353 38.8818 188.244 38.5733 188.221 37.9121C188.208 37.5439 188.227 37.279 188.253 37.0991C188.275 36.9412 188.302 36.8487 188.315 36.8092C188.319 36.7956 188.323 36.7856 188.325 36.7779C188.437 36.7409 188.732 36.663 189.29 36.6435C189.684 36.6298 189.943 36.6555 190.095 36.681C190.157 36.6915 190.202 36.7019 190.231 36.7096C190.235 36.7139 190.237 36.7169 190.239 36.7188C190.242 36.7238 190.249 36.7368 190.259 36.7611C190.278 36.8078 190.327 36.9419 190.368 37.194L190.121 38.5584L190.392 38.6326C190.371 38.7744 190.346 38.8595 190.333 38.8985C190.333 38.8992 190.333 38.8998 190.333 38.9005C190.328 38.9141 190.324 38.9257 190.32 38.936C190.311 38.959 190.301 38.9759 190.286 38.996C190.201 39.0243 189.987 39.0828 189.595 39.1109C189.528 39.1158 189.455 39.1197 189.377 39.1225C189.372 39.1226 189.367 39.1228 189.362 39.1229C188.808 39.1411 188.526 39.0792 188.436 39.054Z" fill="white"/>
<path d="M99.2787 41.8192L101.144 42.6335L98.4917 52.3023L97.8086 52.3261C97.4239 52.1311 96.5324 51.9733 95.1342 51.8528C93.7493 51.7448 92.621 51.706 91.7491 51.7365L76.4264 52.2716L75.9733 50.4894C77.3377 50.0118 77.9826 48.706 77.9081 46.5718L77.3246 29.8633C77.2501 27.7292 76.5159 26.478 75.122 26.1097L75.449 24.2808L87.6095 23.8561L88.0633 25.6578C86.6989 26.1354 86.0538 27.4348 86.1279 29.5559L86.7815 48.2749C87.9052 48.366 88.8249 48.399 89.5406 48.374C90.6857 48.334 91.7973 48.0802 92.8754 47.6126C93.9535 47.145 94.8593 46.5922 95.5926 45.9543C96.339 45.3159 97.0011 44.6869 97.5788 44.0674C98.1565 43.4479 98.5875 42.9182 98.8718 42.4783L99.2787 41.8192Z" fill="#2C2C2C"/>
<path d="M116.89 45.8164C118.777 45.7505 120.464 44.8122 121.951 43.0013L123.374 43.4598C123.318 45.5984 122.42 47.4929 120.68 49.1432C118.953 50.793 116.729 51.6654 114.01 51.7604C110.522 51.8822 107.659 50.8617 105.421 48.6989C103.183 46.5361 102.011 43.9452 101.905 40.9262C101.785 37.4908 102.784 34.7329 104.9 32.6526C107.015 30.5593 109.7 29.4558 112.953 29.3422C115.035 29.2695 116.867 29.6811 118.449 30.5769C120.043 31.4593 121.202 32.7478 121.926 34.4423C122.306 35.2499 122.803 35.682 123.417 35.7387L123.885 37.9308L110.521 42.521C111.696 44.8252 113.819 45.9236 116.89 45.8164ZM112.199 32.9254C111.405 32.9531 110.724 33.4003 110.155 34.2671C109.598 35.1204 109.339 36.1065 109.378 37.2257C109.407 38.0455 109.472 38.7924 109.574 39.4663L115.426 37.464C115.306 36.2695 114.969 35.2064 114.415 34.2746C113.875 33.3424 113.136 32.8927 112.199 32.9254Z" fill="#2C2C2C"/>
<path d="M145.69 50.6541C144.753 50.6868 143.462 50.4908 141.819 50.0662C140.176 49.6415 139.126 49.4241 138.669 49.414C138.318 49.4262 137.995 49.5027 137.7 49.6432C137.405 49.7708 137.188 49.8892 137.048 49.9983L136.819 50.1626L136.214 50.1837L134.268 42.5712L135.814 42.0678C136.941 43.7612 138.421 45.1101 140.254 46.1145C142.1 47.1184 143.765 47.5944 145.249 47.5426C146.901 47.4849 147.706 46.8444 147.664 45.6212C147.62 44.372 145.713 43.1161 141.943 41.8537C140.059 41.255 138.452 40.3991 137.124 39.286C135.808 38.1724 135.122 36.8283 135.067 35.2537C134.996 33.1977 135.797 31.5346 137.473 30.2644C139.148 28.9942 141.196 28.3168 143.617 28.2323C144.866 28.1887 146.169 28.3842 147.526 28.8189C148.896 29.2531 149.757 29.4641 150.109 29.4518C150.902 29.4241 151.532 29.1871 151.999 28.7409L152.604 28.7197L154.251 35.5805L152.377 36.2127C151.384 34.6448 150.188 33.4033 148.788 32.488C147.387 31.5598 146.128 31.1152 145.009 31.1543C144.371 31.1765 143.882 31.35 143.541 31.6745C143.201 31.9861 143.039 32.3956 143.057 32.9031C143.081 33.5928 143.479 34.1652 144.25 34.6203C145.035 35.075 146.197 35.536 147.738 36.0034C148.818 36.3435 149.749 36.6888 150.53 37.0394C151.311 37.3899 152.088 37.8318 152.863 38.365C153.65 38.8978 154.258 39.5215 154.687 40.2361C155.116 40.9507 155.346 41.7635 155.378 42.6744C155.464 45.1469 154.6 47.0727 152.785 48.452C150.983 49.8178 148.617 50.5519 145.69 50.6541Z" fill="#2C2C2C"/>
<path d="M168.469 49.8586C164.981 49.9804 162.112 48.9601 159.86 46.7978C157.609 44.6355 156.431 42.0448 156.325 39.0258C156.205 35.5904 157.203 32.8326 159.32 30.7522C161.435 28.6589 164.12 27.5554 167.373 27.4418C170.067 27.3477 172.373 27.9251 174.293 29.174C176.213 30.4099 177.207 32.0233 177.276 34.0143C177.309 34.9512 176.981 35.803 176.291 36.5697C175.601 37.3235 174.774 37.7171 173.811 37.7508C172.718 37.7889 171.837 37.5656 171.169 37.0808C170.5 36.5961 170.03 36.0001 169.758 35.293C169.498 34.5725 169.259 33.8643 169.039 33.1684C168.832 32.4721 168.512 31.8774 168.078 31.3845C167.656 30.8911 167.068 30.6575 166.314 30.6839C165.546 30.7107 164.891 31.157 164.348 32.0228C163.804 32.8757 163.556 33.9918 163.605 35.3711C163.703 38.1949 164.365 40.3476 165.589 41.8292C166.813 43.3109 168.558 44.0121 170.822 43.9331C171.889 43.8958 172.882 43.594 173.8 43.0278C174.731 42.4611 175.485 41.8485 176.061 41.1899L177.466 41.6686C176.855 46.9405 173.856 49.6705 168.469 49.8586Z" fill="#2C2C2C"/>
<path d="M197.697 45.7111C195.766 47.8631 193.109 48.9982 189.725 49.1163C186.342 49.2345 183.605 48.2878 181.516 46.2761C179.439 44.264 178.342 41.5923 178.226 38.261C178.109 34.9037 179.01 32.1623 180.929 30.0367C182.861 27.8977 185.531 26.7686 188.941 26.6496C192.324 26.5314 195.054 27.4719 197.13 29.4709C199.206 31.457 200.302 34.1287 200.42 37.486C200.536 40.8173 199.628 43.559 197.697 45.7111ZM191.118 45.335C192.744 45.2782 193.506 43.7728 193.403 40.8189C193.381 40.2073 193.241 39.3653 192.982 38.293C192.736 37.2202 192.383 36.0664 191.923 34.8317C191.476 33.5966 190.847 32.5437 190.035 31.673C189.235 30.802 188.38 30.3823 187.47 30.4141C185.869 30.47 185.127 31.9942 185.245 34.9867C185.27 35.7025 185.406 36.6032 185.652 37.689C185.898 38.7748 186.251 39.9156 186.71 41.1112C187.168 42.3069 187.79 43.321 188.575 44.1535C189.359 44.973 190.207 45.3668 191.118 45.335Z" fill="#2C2C2C"/>
<path d="M216.482 25.6878C217.836 25.6405 218.991 26.0627 219.947 26.9544C220.902 27.833 221.405 28.9685 221.453 30.3609C221.497 31.6101 221.131 32.6848 220.354 33.5848C219.59 34.4714 218.636 34.9347 217.491 34.9747C216.697 35.0024 216.035 34.8822 215.504 34.6141C214.986 34.3325 214.616 33.9937 214.394 33.5975C214.171 33.1884 213.975 32.7848 213.804 32.3869C213.647 31.9885 213.446 31.6502 213.202 31.3721C212.971 31.0806 212.686 30.9407 212.347 30.9525C211.527 30.9811 211.144 31.9456 211.198 33.8459L211.479 41.9074C211.554 44.0416 212.308 45.2986 213.741 45.6785L213.355 47.4899L202.56 47.8669L202.107 46.0847C203.472 45.6071 204.117 44.3013 204.042 42.1671L203.795 35.1011C203.721 32.967 202.986 31.7093 201.592 31.3281L201.92 29.5187C203.007 29.3243 204.059 29.0205 205.073 28.6073C206.088 28.194 206.883 27.8145 207.457 27.4687C208.031 27.1099 208.827 26.5935 209.846 25.9195L210.451 25.8984L210.789 28.8572L210.984 28.8504C212.203 26.8274 214.036 25.7732 216.482 25.6878Z" fill="#2C2C2C"/>
<path d="M237.637 41.5998C239.523 41.5339 241.21 40.5956 242.698 38.7848L244.121 39.2432C244.065 41.3819 243.167 43.2763 241.427 44.9266C239.7 46.5764 237.476 47.4488 234.756 47.5438C231.269 47.6656 228.406 46.6451 226.168 44.4823C223.929 42.3195 222.758 39.7286 222.652 36.7097C222.532 33.2742 223.53 30.5164 225.646 28.436C227.762 26.3427 230.447 25.2392 233.7 25.1256C235.782 25.0529 237.614 25.4645 239.196 26.3604C240.79 27.2428 241.949 28.5312 242.672 30.2258C243.052 31.0333 243.55 31.4654 244.164 31.5221L244.631 33.7142L231.268 38.3045C232.443 40.6086 234.566 41.7071 237.637 41.5998ZM232.946 28.7088C232.152 28.7365 231.47 29.1838 230.901 30.0505C230.345 30.9038 230.086 31.89 230.125 33.0091C230.154 33.8289 230.219 34.5758 230.321 35.2497L236.172 33.2474C236.052 32.053 235.716 30.9898 235.162 30.0581C234.621 29.1259 233.882 28.6761 232.946 28.7088Z" fill="#2C2C2C"/>
<path d="M124.149 58.9304C124.189 60.0756 124.939 61.9841 126.401 64.6561L132.92 64.4284L133.047 68.059L127.035 68.269L127.441 79.9025C127.516 82.0366 128.257 83.2941 129.664 83.6749L129.316 85.446L118.521 85.8229L118.07 84.0798C119.434 83.6022 120.079 82.2963 120.004 80.1622L119.598 68.5287L115.733 68.6637L115.607 65.0331L119.315 64.9035C119.253 64.6061 119.166 64.1856 119.056 63.6423C118.946 63.0989 118.858 62.6264 118.792 62.2249C118.725 61.8103 118.685 61.4013 118.671 60.9979C118.601 58.9939 119.245 57.2907 120.603 55.8883C121.974 54.4854 123.909 53.7403 126.407 53.6531C128.19 53.5908 129.698 54.0398 130.93 55C132.175 55.9467 132.823 57.1553 132.874 58.6257C132.906 59.5366 132.672 60.307 132.173 60.9368C131.674 61.5666 130.969 61.8974 130.058 61.9292C129.095 61.9628 128.364 61.7408 127.865 61.2631C127.38 60.785 127.081 60.2612 126.97 59.6918C126.872 59.122 126.691 58.5941 126.426 58.1083C126.162 57.6224 125.75 57.3893 125.19 57.4088C124.461 57.4342 124.114 57.9415 124.149 58.9304Z" fill="#2C2C2C"/>
<path d="M142.337 60.9922C141.584 61.8133 140.538 62.2472 139.197 62.294C137.87 62.3404 136.802 61.9868 135.994 61.2333C135.199 60.4663 134.782 59.5493 134.745 58.4822C134.708 57.4152 135.059 56.4583 135.798 55.6117C136.55 54.7516 137.589 54.2984 138.916 54.252C140.257 54.2052 141.332 54.5846 142.142 55.3902C142.964 56.1823 143.394 57.1118 143.431 58.1789C143.468 59.2199 143.103 60.1577 142.337 60.9922ZM134.801 85.2544L134.349 83.5113C135.712 83.0077 136.357 81.7018 136.284 79.5937L136.025 72.1959C135.951 70.0618 135.217 68.8106 133.823 68.4424L134.15 66.633C137.283 66.0415 140.09 64.9272 142.574 63.2901L143.16 63.2696L143.72 79.334C143.794 81.4421 144.548 82.6991 145.982 83.1051L145.595 84.8775L134.801 85.2544Z" fill="#2C2C2C"/>
<path d="M170.15 78.4111C170.431 80.4859 171.315 81.7384 172.802 82.1685L172.473 83.9389L161.679 84.3158L161.188 82.5741C162.499 82.0723 162.995 80.7716 162.674 78.6722L161.431 70.5074C161.096 68.3824 160.168 67.353 158.646 67.4192C157.852 67.4469 157.245 67.8003 156.826 68.4794C156.407 69.1585 156.215 70.0056 156.25 71.0206L156.525 78.8869C156.598 80.969 157.365 82.2255 158.826 82.6565L158.439 84.429L147.644 84.8059L147.232 83.0614C148.568 82.5327 149.2 81.2273 149.127 79.1452L148.878 72.0011C148.803 69.867 148.069 68.6093 146.675 68.2281L147.004 66.4577C149.527 65.9657 152.182 64.7655 154.969 62.8572L155.574 62.8361L155.835 65.8366L156.108 65.8271C157.392 63.7758 159.152 62.7111 161.391 62.633C163.642 62.5544 165.396 63.1771 166.654 64.5012C167.912 65.8123 168.741 67.9265 169.143 70.844L170.15 78.4111Z" fill="#2C2C2C"/>
<path d="M196.471 80.5407L197.171 82.1188C196.014 83.3318 194.304 83.9778 192.04 84.0568C189.112 84.1591 187.179 83.1061 186.242 80.8979L186.008 80.9061C185.437 82.0986 184.576 82.982 183.423 83.5565C182.284 84.1304 181.076 84.4397 179.801 84.4842C177.914 84.5501 176.302 84.0918 174.965 83.1092C173.641 82.1262 172.949 80.7823 172.889 79.0776C172.861 78.2578 172.965 77.505 173.201 76.8193C173.451 76.12 173.749 75.5363 174.098 75.0682C174.459 74.5865 174.977 74.132 175.653 73.7045C176.341 73.2765 176.949 72.9426 177.474 72.7028C178 72.4499 178.733 72.1898 179.675 71.9224C180.629 71.6415 181.365 71.4399 181.882 71.3177C182.399 71.1954 183.162 71.0384 184.172 70.8468L183.479 67.2555C183.353 66.6215 183.115 66.1478 182.765 65.8343C182.428 65.5073 182.032 65.3518 181.576 65.3677C181.147 65.3827 180.788 65.558 180.5 65.8938C180.225 66.2161 180.161 66.6157 180.308 67.0927C180.604 68.1246 180.433 68.997 179.793 69.7099C179.154 70.4227 178.287 70.7983 177.194 70.8364C176.153 70.8728 175.336 70.5886 174.741 69.984C174.16 69.3789 173.85 68.5299 173.812 67.4368C173.761 65.9923 174.434 64.7441 175.831 63.6922C177.24 62.6267 179.369 62.0442 182.219 61.9447C184.783 61.8552 186.908 62.465 188.595 63.7741C190.295 65.0697 191.383 67.1228 191.859 69.9335L193.071 77.2198C193.241 78.3344 193.544 79.2032 193.983 79.8263C194.422 80.4494 194.96 80.7498 195.598 80.7275C195.949 80.7153 196.24 80.653 196.471 80.5407ZM183.083 79.9724C183.669 79.952 184.198 79.6208 184.671 78.9789C185.143 78.324 185.365 77.5997 185.337 76.8059L184.599 73.0207C181.722 73.8378 180.319 75.2483 180.389 77.2523C180.42 78.1372 180.691 78.8182 181.203 79.2954C181.715 79.7727 182.341 79.9983 183.083 79.9724Z" fill="#2C2C2C"/>
<path d="M196.208 83.11L195.718 81.3683C197.119 80.8373 197.777 79.5309 197.692 77.4493L197.107 60.7017C197.031 58.5416 196.284 57.3039 194.866 56.9886L195.232 55.1583C198.648 54.4788 201.635 53.267 204.193 51.523L204.729 51.7584C204.455 53.2402 204.369 55.4581 204.473 58.412L205.128 77.1896C205.202 79.2977 205.943 80.5552 207.351 80.962L207.003 82.7331L196.208 83.11Z" fill="#2C2C2C"/>
</svg>
