<svg width="322" height="105" viewBox="0 0 322 105" fill="none" xmlns="http://www.w3.org/2000/svg">
<path fill-rule="evenodd" clip-rule="evenodd" d="M92.1456 30.0129C92.1837 29.9358 92.2244 29.8594 92.2678 29.7838C92.3307 29.6743 92.3993 29.5663 92.4735 29.4599C92.7967 28.9963 93.2274 28.5618 93.7655 28.1564C94.0907 27.9105 94.4544 27.6903 94.8564 27.4958C94.896 27.4766 94.936 27.4577 94.9763 27.439L95.0038 27.4264L95.0119 27.4227L95.0585 27.4016C95.8013 27.0685 96.6671 26.818 97.6562 26.65C97.9871 26.5937 98.3319 26.5468 98.6904 26.509C98.919 26.485 99.1531 26.4647 99.3929 26.4482C99.6405 26.4311 99.8941 26.418 100.154 26.409C100.241 26.4059 100.329 26.4036 100.415 26.4022C101.573 26.3832 102.639 26.5101 103.613 26.783C103.677 26.8007 103.74 26.8191 103.802 26.8381C103.867 26.8578 103.932 26.8783 103.997 26.8994C104.929 27.2051 105.774 27.6515 106.53 28.2383C106.759 28.4126 106.976 28.6006 107.183 28.8024C107.231 28.8495 107.279 28.8974 107.326 28.946C107.597 29.2259 107.847 29.5305 108.078 29.8599C108.095 29.8838 108.111 29.9078 108.128 29.9319C108.216 30.061 108.302 30.1939 108.384 30.3305L108.408 30.3717C108.987 31.344 109.415 32.5032 109.691 33.8492C109.728 34.0287 109.762 34.2115 109.794 34.3977L110.06 35.9983L111.006 41.6841C111.044 41.9376 111.09 42.1784 111.142 42.4065C111.185 42.5934 111.233 42.7718 111.285 42.9416C111.369 43.214 111.465 43.4644 111.573 43.6929C111.677 43.9124 111.792 44.1116 111.918 44.2905C112.17 44.6489 112.455 44.9005 112.773 45.0454C113.008 45.1525 113.261 45.2012 113.532 45.1918C113.569 45.1905 113.605 45.1887 113.64 45.1863C113.899 45.1689 114.123 45.1223 114.312 45.0462C114.344 45.0333 114.375 45.0196 114.405 45.0049L115.105 46.583C114.684 47.0254 114.188 47.3923 113.619 47.6838C112.951 48.0263 112.181 48.2647 111.309 48.3991C111.17 48.4206 111.028 48.4394 110.884 48.4555C110.748 48.4707 110.61 48.4836 110.47 48.4941C110.308 48.5062 110.143 48.5152 109.974 48.5211C109.867 48.5248 109.761 48.527 109.657 48.5277C109.607 48.528 109.558 48.5279 109.51 48.5276C108.657 48.5208 107.895 48.4085 107.224 48.1905C107.034 48.1288 106.852 48.0588 106.677 47.9803C106.157 47.7472 105.701 47.4398 105.31 47.058C105.283 47.0318 105.256 47.0052 105.23 46.9782C104.832 46.5707 104.503 46.0828 104.244 45.5145C104.221 45.4643 104.199 45.4135 104.177 45.3621L103.943 45.3703C103.924 45.409 103.905 45.4474 103.886 45.4855C103.488 46.2769 102.958 46.9275 102.295 47.4373C102.007 47.6582 101.695 47.8527 101.358 48.0207C101.288 48.0561 101.217 48.0904 101.147 48.1238C100.069 48.6318 98.9324 48.9067 97.7357 48.9485L97.6846 48.9501C97.0852 48.9681 96.5138 48.9329 95.9701 48.8445C95.527 48.7725 95.1024 48.6651 94.6963 48.5223C94.2902 48.3796 93.9027 48.2016 93.5337 47.9882C93.3159 47.8623 93.1045 47.724 92.8996 47.5734C92.2346 47.0797 91.729 46.495 91.383 45.8192C91.209 45.4795 91.0753 45.1167 90.982 44.731C90.8913 44.3563 90.8387 43.9599 90.8241 43.5419C90.8048 42.9888 90.8458 42.4662 90.9472 41.9741C90.9663 41.8816 90.9875 41.7901 91.0108 41.6998C91.0182 41.6714 91.0257 41.6431 91.0335 41.6149C91.0643 41.5027 91.0985 41.3923 91.1361 41.2835C91.1873 41.1397 91.2407 41.0007 91.2961 40.8667C91.4048 40.6041 91.5215 40.3602 91.6462 40.1351C91.7674 39.9165 91.8962 39.7156 92.0325 39.5324C92.3936 39.0508 92.9119 38.5962 93.5875 38.1687C93.7763 38.0513 93.9591 37.941 94.1358 37.8378C94.242 37.7757 94.346 37.7161 94.4479 37.6592L94.5245 37.6165C94.5569 37.5986 94.589 37.581 94.6209 37.5636C94.8222 37.4541 95.0145 37.355 95.1976 37.2665C95.2695 37.2317 95.34 37.1986 95.4091 37.167C95.8317 36.9636 96.3891 36.7555 97.0813 36.5426C97.2495 36.4909 97.4256 36.4389 97.6097 36.3866C98.4147 36.1497 99.064 35.9692 99.5577 35.8452L99.5761 35.8406L99.5833 35.8388C99.6302 35.827 99.6756 35.8158 99.7196 35.8051L99.8165 35.7819L99.8756 35.768C99.9146 35.7589 99.955 35.7496 99.9966 35.7402C100.086 35.7199 100.181 35.6987 100.282 35.6767C100.32 35.6686 100.358 35.6604 100.397 35.652C100.423 35.6464 100.449 35.6409 100.476 35.6352C100.551 35.6194 100.628 35.6031 100.709 35.5865L100.852 35.5571L100.97 35.533C101.096 35.5076 101.227 35.4813 101.365 35.4542L101.388 35.4497L101.443 35.4389C101.597 35.4087 101.758 35.3776 101.926 35.3454L102.106 35.3111L101.414 31.7198C101.403 31.6669 101.392 31.6152 101.38 31.5646C101.305 31.2484 101.199 30.9756 101.063 30.7462C101.053 30.7297 101.043 30.7133 101.033 30.6972C100.936 30.5437 100.825 30.4108 100.7 30.2985C100.614 30.2155 100.525 30.1435 100.432 30.0825C100.382 30.05 100.331 30.0206 100.279 29.9944C100.045 29.8764 99.789 29.8222 99.511 29.8319C99.1197 29.8456 98.787 29.9925 98.5132 30.2726C98.4866 30.2998 98.4605 30.3283 98.435 30.3581C98.1596 30.6804 98.0954 31.08 98.2424 31.5569C98.2535 31.5959 98.2641 31.6346 98.2739 31.6731C98.3298 31.891 98.3642 32.1017 98.3773 32.305L98.3785 32.3248C98.381 32.3679 98.3825 32.4107 98.3831 32.4531C98.3841 32.535 98.3816 32.6157 98.3755 32.6952C98.3696 32.772 98.3603 32.8477 98.3477 32.9222C98.2958 33.229 98.1869 33.5164 98.0212 33.7843L98.014 33.796C97.9322 33.9267 97.8368 34.0527 97.7279 34.1741C97.5469 34.3759 97.3477 34.5506 97.1304 34.6983L97.1158 34.7082C96.9055 34.8494 96.6783 34.9655 96.4343 35.0565C96.2784 35.1146 96.1157 35.1625 95.946 35.2002C95.6894 35.2571 95.417 35.2906 95.1289 35.3007C94.928 35.3077 94.7353 35.3028 94.551 35.2859C94.5343 35.2844 94.5178 35.2828 94.5013 35.281C93.7536 35.2032 93.1451 34.9256 92.6758 34.4483C92.5466 34.3138 92.4308 34.1673 92.3284 34.0087C92.2412 33.8736 92.1637 33.7297 92.096 33.5771C92.0919 33.568 92.0879 33.5589 92.084 33.5497C92.0797 33.54 92.0756 33.5302 92.0714 33.5204C92.0673 33.5107 92.0633 33.501 92.0593 33.4913C92.0557 33.4826 92.0522 33.4739 92.0487 33.4652C92.0334 33.4272 92.0187 33.3888 92.0046 33.3498C91.9158 33.1046 91.8495 32.839 91.8058 32.5531C91.7742 32.3464 91.7545 32.129 91.7465 31.901C91.7256 31.3015 91.8292 30.7358 92.0576 30.2039C92.0851 30.1397 92.1145 30.0761 92.1456 30.0129ZM88.0018 38.8328L89.8673 39.6471L87.2148 49.3159L86.5316 49.3397C86.147 49.1447 85.2555 48.9869 83.8572 48.8664C83.7098 48.8549 83.5652 48.8442 83.4236 48.8342C82.8195 48.7919 82.2682 48.7638 81.7698 48.75C81.2878 48.7367 80.8552 48.7367 80.4722 48.7501L65.1495 49.2851L64.6964 47.503C64.816 47.4611 64.93 47.4129 65.0385 47.3584C65.0476 47.3538 65.0566 47.3492 65.0656 47.3446C65.0709 47.3418 65.0762 47.3391 65.0814 47.3363C65.2551 47.245 65.4141 47.137 65.5587 47.0123C65.9558 46.6697 66.2432 46.2009 66.4209 45.6057C66.5885 45.0446 66.6586 44.3711 66.6312 43.5854L66.0477 26.8769C65.998 25.4546 65.6553 24.4244 65.0196 23.7865C64.7962 23.5622 64.5365 23.3864 64.2406 23.2591C64.1153 23.2051 63.9834 23.1599 63.845 23.1233L64.172 21.2944L76.3326 20.8697L76.7864 22.6714C76.6509 22.7188 76.5226 22.7743 76.4013 22.8379C76.1162 22.9875 75.8702 23.1818 75.6635 23.4209C75.0723 24.1045 74.8015 25.154 74.8509 26.5695L75.5046 45.2885C75.886 45.3194 76.244 45.3436 76.5784 45.3612C77.0785 45.3874 77.526 45.3987 77.9209 45.395C78.04 45.3939 78.1542 45.3914 78.2636 45.3876C78.894 45.3656 79.5142 45.2788 80.1243 45.1272C80.1976 45.109 80.2707 45.0898 80.3437 45.0698C80.5289 45.0188 80.7131 44.9618 80.8964 44.8989C81.132 44.8179 81.366 44.727 81.5985 44.6262C82.171 44.3779 82.695 44.1055 83.1703 43.8091C83.59 43.5475 83.9718 43.267 84.3157 42.9679L84.3173 42.9665L84.3697 42.9216C84.7318 42.6104 85.0738 42.3015 85.3957 41.9949C85.5143 41.8818 85.6302 41.7691 85.7435 41.6567C85.9172 41.4842 86.0844 41.3124 86.2453 41.1414L86.3018 41.081C86.5242 40.8426 86.7248 40.6175 86.9036 40.4057C87.0383 40.2461 87.1607 40.0942 87.2708 39.9498L87.2969 39.9153C87.4096 39.766 87.5089 39.6249 87.5948 39.4919L88.0018 38.8328ZM64.758 53.1858C64.9016 53.2543 65.0422 53.3283 65.1799 53.4077C65.2188 53.4301 65.2574 53.453 65.2959 53.4763C65.4673 53.5803 65.6341 53.6929 65.7962 53.8141C65.8299 53.8393 65.8634 53.8649 65.8966 53.8908C66.0652 54.019 66.2228 54.152 66.3694 54.2898C66.4789 54.3926 66.5822 54.498 66.6794 54.6062C66.9271 54.8817 67.1353 55.1745 67.304 55.4847C67.3188 55.5119 67.3333 55.5392 67.3475 55.5667C67.4036 55.6754 67.455 55.7862 67.5016 55.8991C67.5544 56.0268 67.601 56.1572 67.6416 56.2903C67.7515 56.651 67.8167 57.0314 67.8371 57.4315C67.8385 57.4598 67.8398 57.4881 67.8407 57.5165L67.8422 57.5663C67.8517 57.9548 67.8123 58.3175 67.7241 58.6543C67.7181 58.6772 67.7119 58.6999 67.7055 58.7226C67.6575 58.8911 67.5971 59.053 67.5241 59.2083C67.421 59.428 67.2928 59.6344 67.1397 59.8276C66.6406 60.4574 65.9355 60.7882 65.0246 60.82C64.7816 60.8285 64.5533 60.8207 64.3398 60.7966C64.1692 60.7773 64.0081 60.7477 63.8564 60.7076C63.7458 60.6784 63.6402 60.6437 63.5396 60.6034C63.5095 60.5914 63.4799 60.5789 63.4507 60.5658C63.2153 60.4607 63.0091 60.3234 62.8321 60.1539C62.689 60.013 62.5621 59.8682 62.4515 59.7194L62.4283 59.6878C62.4035 59.6535 62.3794 59.619 62.3563 59.5842C62.3142 59.5211 62.275 59.4574 62.2385 59.3929C62.159 59.2521 62.093 59.1081 62.0405 58.9607C62.0305 58.9326 62.021 58.9043 62.0119 58.8759C61.9812 58.7795 61.9562 58.6818 61.9369 58.5826C61.886 58.2873 61.8128 58.0032 61.7173 57.7304C61.7014 57.6851 61.685 57.6401 61.6679 57.5955C61.6285 57.4927 61.5859 57.3915 61.54 57.292C61.5296 57.2693 61.519 57.2468 61.5082 57.2243C61.4998 57.2068 61.4913 57.1893 61.4827 57.1718C61.4539 57.1137 61.424 57.0561 61.393 56.9991L61.3924 56.9981C61.316 56.858 61.2274 56.7389 61.1264 56.6409C60.8778 56.3995 60.5546 56.2857 60.1569 56.2996C59.5838 56.3196 59.2468 56.6376 59.1457 57.2534C59.1183 57.4207 59.1082 57.61 59.1156 57.8212C59.1199 57.9447 59.1325 58.0771 59.1533 58.2184L59.1589 58.2548L59.165 58.293C59.2018 58.5173 59.2587 58.7631 59.3355 59.0303L59.3519 59.0869C59.39 59.2161 59.4326 59.3502 59.4798 59.4892C59.5013 59.5526 59.5237 59.6169 59.5471 59.6823C59.5992 59.8279 59.656 59.9786 59.7176 60.1343L59.7266 60.1571C59.7498 60.2155 59.7736 60.2746 59.798 60.3344C59.9126 60.6143 60.0416 60.9096 60.1849 61.2204L60.2116 61.2782L60.2368 61.3323C60.2705 61.4046 60.305 61.4777 60.3403 61.5516C60.4562 61.7946 60.5803 62.0464 60.7126 62.3071L60.7231 62.3277L60.7325 62.3461L60.7753 62.43C60.9577 62.7862 61.1551 63.1585 61.3676 63.5469L67.887 63.3192L68.0138 66.9498L62.0019 67.1598L62.4081 78.7933C62.4305 79.4338 62.5129 79.9953 62.6553 80.4778C62.7157 80.6826 62.7869 80.8731 62.8689 81.0494C63.1711 81.6989 63.62 82.1556 64.2154 82.4193C64.3468 82.4775 64.4853 82.5263 64.631 82.5657L64.2824 84.3368L53.4882 84.7137L53.0365 82.9706C53.1719 82.9232 53.3003 82.8676 53.4215 82.8039C54.0139 82.4925 54.4371 81.9863 54.6911 81.2853C54.763 81.0871 54.8212 80.8733 54.866 80.6439C54.9569 80.1779 54.992 79.6476 54.9712 79.053L54.565 67.4195L50.7002 67.5545L50.5734 63.9239L54.282 63.7943C54.2195 63.4969 54.1332 63.0764 54.023 62.5331C53.9162 62.0061 53.83 61.5458 53.7646 61.1522L53.7586 61.1157C53.709 60.8069 53.6739 60.5012 53.6535 60.1987C53.6492 60.1357 53.6456 60.0728 53.6426 60.0101C53.6406 59.9696 53.6389 59.9291 53.6375 59.8887C53.6145 59.2288 53.6689 58.6015 53.8007 58.0068C53.8437 57.8127 53.895 57.6219 53.9546 57.4347C53.9844 57.341 54.0163 57.2481 54.0502 57.1561C54.3715 56.2857 54.878 55.4934 55.5698 54.7791C55.7391 54.6058 55.9171 54.4426 56.1036 54.2893C57.1446 53.4345 58.4534 52.8921 60.0299 52.6621C60.1003 52.6518 60.1712 52.6422 60.2427 52.6332C60.6061 52.5873 60.9832 52.5575 61.3742 52.5439C62.6412 52.4996 63.7691 52.7136 64.758 53.1858ZM68.9705 65.8025C69.0292 65.792 69.0879 65.7812 69.1464 65.77C70.1716 65.575 71.1641 65.282 72.1242 64.8911C72.4514 64.7578 72.7557 64.6281 73.0372 64.5018C73.6285 64.2366 74.1187 63.9868 74.5078 63.7525C74.6866 63.6407 74.8871 63.5135 75.1092 63.371C75.2645 63.2714 75.4304 63.1643 75.6069 63.0497C75.9642 62.8176 76.3649 62.5548 76.8089 62.2613L76.8965 62.2034L77.5017 62.1822L77.8395 65.141L78.0347 65.1342L78.0447 65.1176C78.1691 64.9123 78.2999 64.717 78.437 64.5318C78.5978 64.3145 78.7674 64.111 78.9457 63.9213C79.0511 63.8092 79.1595 63.7019 79.2709 63.5995C79.6066 63.291 79.9699 63.0262 80.3608 62.8051C80.6041 62.6676 80.8582 62.5469 81.1229 62.4431C81.8463 62.1596 82.6497 62.0025 83.5331 61.9716C83.7673 61.9634 83.9955 61.9693 84.2178 61.9892C84.8874 62.0493 85.5031 62.2369 86.0648 62.552C86.1816 62.6176 86.2961 62.6886 86.4082 62.7652C86.4718 62.8086 86.5345 62.8538 86.5966 62.9007C86.6686 62.9552 86.7397 63.0121 86.8097 63.0714C86.8731 63.125 86.9357 63.1806 86.9974 63.2382C87.0621 63.2977 87.1247 63.3583 87.1852 63.4201C87.3695 63.6083 87.5345 63.8074 87.6802 64.0173C87.7311 64.0906 87.7796 64.1652 87.8258 64.2412L87.8346 64.2557C88.0591 64.6282 88.2275 65.0326 88.3397 65.4688C88.359 65.5436 88.3766 65.6194 88.3925 65.6961C88.4103 65.7816 88.426 65.8682 88.4397 65.956C88.4453 65.9919 88.4505 66.0281 88.4554 66.0645C88.4808 66.2527 88.497 66.4461 88.5039 66.6447C88.5086 66.777 88.5086 66.9073 88.504 67.0356C88.5025 67.0786 88.5004 67.1213 88.4979 67.1639C88.4968 67.1823 88.4955 67.2007 88.4942 67.2191C88.4932 67.2333 88.4922 67.2474 88.4911 67.2615C88.4339 67.9803 88.2273 68.6354 87.8713 69.2269C87.8237 69.3059 87.7735 69.3838 87.7206 69.4605C87.6388 69.5791 87.5507 69.695 87.4561 69.8082C87.4392 69.8284 87.4221 69.8486 87.4048 69.8686L87.4012 69.8729C87.0718 70.2543 86.7071 70.5571 86.307 70.7813C86.249 70.8138 86.1903 70.8447 86.1308 70.8739C86.0517 70.9127 85.9713 70.9486 85.8895 70.9816L85.8673 70.9905C85.4581 71.1526 85.0162 71.2419 84.5414 71.2585C84.3012 71.2669 84.073 71.2617 83.8569 71.243C83.3589 71.1999 82.9249 71.0849 82.555 70.8979C82.4291 70.8295 82.312 70.7577 82.2036 70.6825C81.992 70.5358 81.8137 70.3761 81.6686 70.2036C81.6231 70.1494 81.5808 70.094 81.5418 70.0373L81.5269 70.0153C81.4975 69.9714 81.4701 69.9267 81.4446 69.8813C81.3747 69.753 81.3074 69.6251 81.2427 69.4978L81.2137 69.4405C81.0834 69.1816 80.9639 68.925 80.8551 68.6707C80.7473 68.3975 80.6191 68.1527 80.4704 67.936L80.4605 67.9218C80.3952 67.8278 80.326 67.7392 80.253 67.656C80.0213 67.3644 79.7363 67.2245 79.3979 67.2363C79.1277 67.2458 78.9048 67.3569 78.7295 67.5698C78.6852 67.6235 78.644 67.6836 78.6058 67.7503C78.4143 68.0843 78.2987 68.581 78.259 69.2403C78.2567 69.2771 78.2548 69.3144 78.253 69.3523L78.2504 69.4146C78.2468 69.5072 78.2446 69.6028 78.2437 69.7013L78.2435 69.7267L78.2433 69.788C78.2433 69.8438 78.2437 69.9006 78.2446 69.9582C78.2454 70.0145 78.2466 70.0717 78.2482 70.1298L78.5297 78.1913C78.5309 78.226 78.5323 78.2604 78.5339 78.2947C78.5416 78.463 78.5537 78.6258 78.5701 78.7829C78.6138 79.2013 78.6883 79.5799 78.7936 79.9188C78.8255 80.0214 78.8602 80.1204 78.8977 80.2158C78.9225 80.2787 78.9484 80.3399 78.9757 80.3996C79.1809 80.8499 79.4559 81.21 79.8009 81.4799C79.9638 81.6074 80.1424 81.7148 80.3365 81.8021C80.4797 81.8664 80.6314 81.9198 80.7916 81.9623L80.4054 83.7737L69.6112 84.1507L69.1581 82.3685C69.2935 82.3211 69.4219 82.2655 69.5431 82.2018C70.2006 81.8562 70.6497 81.2707 70.8903 80.4453C70.9422 80.2674 70.9843 80.0783 71.0168 79.8781C71.0842 79.4633 71.1099 79.0006 71.0941 78.49L71.0929 78.451L70.8461 71.385C70.8337 71.0295 70.803 70.6983 70.7539 70.3915L70.7456 70.3403C70.6988 70.0617 70.6366 69.8036 70.5591 69.5658C70.3117 68.8069 69.9078 68.2558 69.3475 67.9126C69.1351 67.7825 68.9002 67.6823 68.6428 67.6119L68.9705 65.8025ZM90.4348 66.5773C90.4612 66.1214 90.5635 65.686 90.7415 65.2712C90.7691 65.207 90.7984 65.1433 90.8296 65.0802C90.9227 64.8914 91.032 64.7071 91.1574 64.5272C91.4807 64.0635 91.9114 63.6291 92.4494 63.2237C92.7747 62.9778 93.1383 62.7575 93.5403 62.5631C93.5799 62.5439 93.6199 62.525 93.6603 62.5063L93.6877 62.4937L93.6959 62.49L93.7425 62.4689C94.4852 62.1358 95.3511 61.8852 96.3401 61.7173C96.6711 61.661 97.0159 61.6141 97.3744 61.5763C97.4426 61.5692 97.5114 61.5623 97.5806 61.5558C97.7432 61.5405 97.9087 61.5271 98.0769 61.5155C98.3245 61.4984 98.5781 61.4853 98.8377 61.4762C98.9254 61.4732 99.0127 61.4709 99.0994 61.4695C100.257 61.4505 101.323 61.5774 102.297 61.8502C102.361 61.868 102.424 61.8864 102.486 61.9053L102.497 61.9086C102.559 61.9274 102.62 61.9467 102.681 61.9666C103.37 62.1928 104.012 62.4958 104.605 62.8757C104.814 63.0095 105.017 63.1528 105.214 63.3056C105.443 63.4799 105.66 63.6679 105.867 63.8697C105.915 63.9168 105.963 63.9647 106.01 64.0133C106.281 64.2932 106.531 64.5978 106.762 64.9272C106.779 64.9511 106.795 64.9751 106.812 64.9992C106.842 65.0437 106.872 65.0887 106.902 65.1342C106.959 65.2204 107.014 65.3083 107.068 65.3978L107.092 65.439C107.671 66.4113 108.099 67.5705 108.375 68.9165C108.412 69.096 108.446 69.2788 108.478 69.465L108.744 71.0656L109.69 76.7514C109.71 76.8844 109.732 77.0139 109.756 77.1399C109.778 77.2541 109.801 77.3654 109.826 77.4738C109.869 77.6607 109.917 77.8391 109.969 78.0089C110.053 78.2813 110.149 78.5317 110.257 78.7602C110.361 78.9797 110.476 79.1789 110.602 79.3578C110.854 79.7162 111.139 79.9678 111.457 80.1127C111.676 80.2123 111.91 80.2615 112.16 80.2602C112.174 80.2601 112.188 80.2599 112.202 80.2595L112.216 80.2591C112.253 80.2578 112.289 80.256 112.324 80.2536C112.491 80.2424 112.643 80.2192 112.78 80.1838C112.857 80.1641 112.929 80.1407 112.996 80.1135C113.028 80.1006 113.059 80.0868 113.089 80.0722L113.245 80.4238L113.256 80.4146C113.469 80.2292 113.652 80.0095 113.803 79.7555C113.949 79.5107 114.066 79.2341 114.154 78.9256C114.204 78.749 114.245 78.562 114.277 78.3646C114.343 77.9491 114.367 77.4874 114.349 76.9795L114.1 69.8354C114.091 69.5827 114.073 69.3423 114.045 69.1142C114.022 68.9184 113.992 68.7317 113.955 68.5539L113.951 68.5381L113.95 68.5307C113.734 67.5184 113.295 66.8025 112.633 66.383C112.412 66.2432 112.167 66.1363 111.896 66.0624L112.225 64.292C112.28 64.2813 112.335 64.2704 112.389 64.259C113.709 63.9863 115.065 63.5206 116.457 62.862C116.593 62.7977 116.729 62.7315 116.866 62.6636C117.373 62.411 117.885 62.133 118.402 61.8296C118.975 61.4934 119.553 61.1261 120.138 60.7276L120.19 60.6915L120.796 60.6704L121.057 63.6709L121.33 63.6614L121.339 63.6463C121.48 63.4225 121.626 63.2105 121.778 63.0103C121.928 62.8128 122.084 62.6269 122.245 62.4524C122.686 61.974 123.17 61.5819 123.695 61.276L123.728 61.2567C124.58 60.7678 125.542 60.5046 126.612 60.4672C127.731 60.4282 128.726 60.5622 129.6 60.8693C130.071 61.0352 130.507 61.2515 130.907 61.5183C131.258 61.752 131.581 62.0244 131.876 62.3355C132.905 63.4084 133.648 65.0192 134.103 67.1679L134.112 67.2065C134.209 67.672 134.294 68.1626 134.365 68.6783L135.371 76.2454C135.449 76.8194 135.573 77.3304 135.743 77.7785C135.91 78.2196 136.123 78.5998 136.379 78.9189C136.59 79.1807 136.831 79.4015 137.102 79.5812C137.266 79.6902 137.442 79.7841 137.628 79.8629C137.69 79.889 137.753 79.9135 137.817 79.9362C137.884 79.9603 137.953 79.9824 138.024 80.0028L137.695 81.7731L126.9 82.1501L126.41 80.4083C126.562 80.3502 126.702 80.2814 126.832 80.2019C127.687 79.6793 128.068 78.6942 127.977 77.2465L127.976 77.2295C127.961 77 127.934 76.759 127.896 76.5065L127.05 70.9531L127.05 70.9504L126.975 70.4601L126.653 68.3417C126.606 68.0442 126.547 67.7681 126.477 67.5135L126.466 67.4747C126.385 67.1862 126.288 66.9257 126.176 66.6934C125.693 65.6897 124.925 65.2096 123.874 65.2532L123.868 65.2535C123.719 65.2587 123.576 65.2753 123.44 65.3035C123.414 65.309 123.387 65.315 123.361 65.3214C122.811 65.4563 122.373 65.7871 122.048 66.3137C122.035 66.3353 122.022 66.357 122.009 66.3789C121.758 66.8053 121.595 67.2959 121.519 67.8508C121.505 67.9472 121.495 68.0456 121.487 68.146C121.468 68.3724 121.464 68.6087 121.472 68.8549L121.747 76.7212C121.756 76.9706 121.774 77.2081 121.803 77.4338L121.803 77.4375C121.831 77.6514 121.867 77.8545 121.912 78.0471C121.959 78.2489 122.016 78.439 122.083 78.6175C122.148 78.7897 122.222 78.951 122.305 79.1015C122.61 79.6548 123.039 80.0607 123.592 80.3193C123.736 80.3864 123.888 80.4436 124.048 80.4908L123.66 82.2632L112.866 82.6402L112.821 82.4515C112.656 82.5589 112.483 82.6588 112.303 82.7511C112.276 82.7653 112.248 82.7793 112.22 82.7931C111.571 83.1131 110.829 83.3376 109.993 83.4664C109.854 83.4879 109.712 83.5067 109.568 83.5228C109.432 83.538 109.294 83.5509 109.154 83.5614C109.071 83.5675 108.988 83.5729 108.904 83.5775C108.823 83.5819 108.741 83.5855 108.658 83.5884C108.551 83.5921 108.445 83.5943 108.341 83.595C108.291 83.5953 108.242 83.5952 108.194 83.5948C107.341 83.5881 106.579 83.4758 105.908 83.2578C105.718 83.1961 105.536 83.1261 105.361 83.0476C105.145 82.9508 104.94 82.8413 104.747 82.7189C104.474 82.5465 104.223 82.3486 103.994 82.1253C103.967 82.0991 103.94 82.0725 103.914 82.0455C103.516 81.638 103.187 81.1501 102.928 80.5818C102.905 80.5316 102.883 80.4808 102.861 80.4294L102.627 80.4376C102.608 80.4763 102.589 80.5147 102.57 80.5528C102.467 80.7575 102.355 80.9527 102.235 81.1386C101.889 81.6713 101.47 82.1266 100.979 82.5046C100.691 82.7255 100.379 82.92 100.042 83.088C99.9717 83.1234 99.9012 83.1577 99.8305 83.1911C98.7533 83.6991 97.6164 83.974 96.4197 84.0158C95.8017 84.0374 95.2132 84.0027 94.6541 83.9118C94.211 83.8398 93.7863 83.7324 93.3802 83.5896C92.7345 83.3627 92.1356 83.0464 91.5836 82.6407C91.3658 82.479 91.165 82.3075 90.9814 82.1263C90.4213 81.5734 90.0204 80.9296 89.7788 80.1949C89.7362 80.0655 89.6986 79.9333 89.6659 79.7983C89.5753 79.4236 89.5226 79.0272 89.508 78.6092C89.4887 78.0561 89.5298 77.5335 89.6312 77.0414C89.6801 76.8041 89.7431 76.5739 89.82 76.3508C90.0692 75.6516 90.368 75.0679 90.7165 74.5997C90.7896 74.5022 90.8691 74.4059 90.955 74.3106C91.1737 74.0682 91.4342 73.833 91.7364 73.6049L91.7392 73.6028C91.9042 73.4784 92.0816 73.3561 92.2714 73.236C92.4603 73.1186 92.6431 73.0083 92.8197 72.9051C92.926 72.843 93.03 72.7834 93.1318 72.7265L93.2085 72.6838C93.2243 72.6751 93.2401 72.6664 93.2558 72.6578C93.2722 72.6488 93.2886 72.6398 93.3049 72.6309C93.5062 72.5213 93.6984 72.4223 93.8815 72.3338C93.9534 72.299 94.0239 72.2658 94.093 72.2343C94.5157 72.0309 95.0731 71.8228 95.7652 71.6099C95.9334 71.5582 96.1096 71.5062 96.2937 71.4539C96.9356 71.265 97.4785 71.112 97.9224 70.9948C98.0352 70.965 98.1416 70.9376 98.2417 70.9125L98.26 70.9078L98.2672 70.906C98.3141 70.8943 98.3596 70.8831 98.4036 70.8724L98.5005 70.8492L98.5596 70.8353C98.5986 70.8262 98.6389 70.8169 98.6806 70.8075C98.7698 70.7872 98.865 70.766 98.9663 70.744C99.0285 70.7305 99.0931 70.7167 99.1599 70.7025C99.2346 70.6867 99.3122 70.6704 99.3927 70.6538L99.5359 70.6243L99.6541 70.6003C99.7797 70.5749 99.9114 70.5486 100.049 70.5215L100.127 70.5062C100.281 70.476 100.442 70.4448 100.61 70.4127L100.79 70.3784L100.098 66.7871C100.087 66.7342 100.076 66.6825 100.064 66.6319C99.9886 66.3157 99.8828 66.0429 99.7467 65.8135C99.7402 65.8025 99.7336 65.7916 99.7269 65.7808C99.7235 65.7753 99.7202 65.7699 99.7168 65.7645C99.6201 65.611 99.5092 65.4781 99.3839 65.3658C99.2983 65.2827 99.2088 65.2107 99.1155 65.1498C99.0657 65.1173 99.0148 65.0879 98.9629 65.0617C98.7841 64.9715 98.5924 64.9186 98.3878 64.903C98.3248 64.8982 98.2605 64.8969 98.195 64.8992C97.8036 64.9129 97.471 65.0598 97.1972 65.3399C97.1705 65.3671 97.1445 65.3956 97.119 65.4254C96.8975 65.6845 96.8126 65.9937 96.8643 66.3528C96.8768 66.4403 96.8975 66.5308 96.9263 66.6242C96.9375 66.6632 96.948 66.7019 96.9579 66.7404C97.0137 66.9583 97.0482 67.169 97.0613 67.3723L97.0625 67.3921C97.0698 67.5184 97.0688 67.6418 97.0595 67.7625C97.0536 67.8393 97.0443 67.915 97.0317 67.9895C96.9797 68.2963 96.8709 68.5837 96.7052 68.8516L96.6979 68.8633C96.6162 68.9939 96.5208 69.12 96.4119 69.2414C96.2309 69.4432 96.0317 69.6179 95.8143 69.7656L95.7997 69.7755C95.5894 69.9167 95.3623 70.0328 95.1183 70.1238C94.9624 70.1819 94.7996 70.2298 94.63 70.2675C94.3734 70.3244 94.101 70.3579 93.8129 70.368C93.6119 70.375 93.4193 70.3701 93.2349 70.3532C93.2183 70.3517 93.2018 70.35 93.1853 70.3483C92.4375 70.2705 91.8291 69.9929 91.3598 69.5156C91.1205 69.2665 90.9272 68.9761 90.7799 68.6444C90.7764 68.6364 90.7729 68.6285 90.7694 68.6205C90.7647 68.6096 90.76 68.5987 90.7554 68.5877C90.7477 68.5694 90.7401 68.551 90.7326 68.5325C90.7224 68.5071 90.7125 68.4815 90.7028 68.4557C90.698 68.4429 90.6933 68.43 90.6886 68.4171C90.5997 68.1719 90.5335 67.9063 90.4898 67.6204C90.4582 67.4137 90.4384 67.1963 90.4305 66.9683C90.4259 66.8363 90.4273 66.706 90.4348 66.5773ZM99.7017 79.504C99.5682 79.5086 99.4385 79.5051 99.3124 79.4935C99.148 79.4783 98.9899 79.4493 98.8382 79.4064C98.7611 79.3846 98.6857 79.3592 98.6118 79.3302C98.5807 79.318 98.5498 79.3051 98.5192 79.2916C98.332 79.209 98.1558 79.1025 97.9905 78.9721C97.9782 78.9625 97.966 78.9527 97.9539 78.9427C97.9089 78.9059 97.8648 78.8674 97.8215 78.827C97.6652 78.6813 97.5314 78.5166 97.42 78.3329C97.3273 78.1801 97.2501 78.0141 97.1884 77.835C97.1303 77.666 97.0859 77.4853 97.0553 77.2929C97.0458 77.2331 97.0376 77.1722 97.0308 77.1101C97.0279 77.0838 97.0252 77.0573 97.0228 77.0306C97.0155 76.9502 97.0104 76.8679 97.0075 76.7838C97.0043 76.6914 97.0042 76.6002 97.0072 76.5102C97.0187 76.1703 97.075 75.8485 97.1761 75.5447C97.1817 75.5279 97.1875 75.5111 97.1934 75.4944C97.2355 75.3744 97.2848 75.2572 97.3412 75.1429C97.345 75.135 97.349 75.1271 97.3529 75.1193C97.357 75.1111 97.3611 75.103 97.3653 75.0949C97.4057 75.0162 97.4496 74.9389 97.4968 74.863C97.5369 74.7985 97.5795 74.7351 97.6245 74.6726C97.8543 74.3536 98.148 74.0604 98.5056 73.7929C98.6601 73.6773 98.8266 73.5665 99.005 73.4605C99.0378 73.4411 99.071 73.4218 99.1046 73.4026C99.2251 73.3339 99.3508 73.2673 99.4817 73.2028C99.7626 73.0643 100.067 72.9354 100.396 72.8162C100.422 72.8067 100.449 72.7973 100.475 72.788C100.706 72.7061 100.949 72.6289 101.204 72.5564L101.218 72.5523L101.956 76.3374C101.957 76.3757 101.958 76.4138 101.958 76.4517C101.958 76.4779 101.958 76.504 101.958 76.5301C101.957 76.5426 101.957 76.5551 101.957 76.5676C101.956 76.5821 101.956 76.5966 101.955 76.611C101.938 77.0595 101.837 77.485 101.654 77.8873C101.64 77.9176 101.625 77.9478 101.611 77.9779C101.589 78.021 101.567 78.0638 101.544 78.1064L101.525 78.14C101.455 78.2659 101.376 78.3893 101.289 78.5104C101.039 78.8498 100.774 79.1023 100.492 79.2679C100.444 79.2965 100.395 79.3224 100.345 79.3458C100.24 79.3955 100.133 79.4336 100.024 79.46C99.9184 79.4855 99.8111 79.5001 99.7017 79.504ZM146.776 59.7631C145.196 59.8183 143.797 60.1733 142.579 60.8281C141.859 61.2151 141.202 61.7069 140.608 62.3033C140.353 62.5598 140.109 62.8357 139.877 63.1309C138.757 64.5576 138.035 66.2531 137.712 68.2176L137.709 68.2332L137.707 68.2489C137.548 69.2268 137.488 70.2712 137.527 71.382C137.538 71.6767 137.555 71.9662 137.58 72.2508L137.588 72.3363C137.706 73.604 137.969 74.7714 138.379 75.8382L138.381 75.8449C138.49 76.1284 138.61 76.4049 138.739 76.6742C138.753 76.7027 138.767 76.7312 138.781 76.7596C138.818 76.8358 138.857 76.9115 138.896 76.9865C139.342 77.8416 139.897 78.622 140.56 79.3279C140.941 79.7299 141.338 80.0901 141.753 80.4087C141.931 80.546 142.113 80.6755 142.298 80.7972C142.524 80.946 142.755 81.0833 142.991 81.2089C143.013 81.2209 143.035 81.2327 143.058 81.2444C143.076 81.2536 143.093 81.2628 143.111 81.2719C143.142 81.2879 143.174 81.3038 143.205 81.3194C143.422 81.4276 143.644 81.5262 143.869 81.6152C145.022 82.0707 146.278 82.2747 147.638 82.2272C147.671 82.2261 147.703 82.2248 147.735 82.2233C147.751 82.2226 147.767 82.2219 147.783 82.2211C148.269 82.1969 148.73 82.1368 149.167 82.041C149.493 81.9693 149.806 81.8776 150.104 81.7659C150.222 81.7218 150.338 81.6747 150.451 81.6244C150.754 81.49 151.042 81.3335 151.314 81.1547C151.823 80.8209 152.277 80.4097 152.678 79.921L152.952 79.9114L153.087 83.7958C153.109 84.4104 153.07 84.9564 152.973 85.4336C152.947 85.5586 152.917 85.6788 152.883 85.7944C152.872 85.832 152.861 85.8691 152.849 85.9057C152.838 85.9407 152.826 85.9753 152.814 86.0094C152.561 86.7201 152.135 87.2325 151.537 87.5466C151.416 87.6104 151.288 87.6659 151.152 87.7133L151.605 89.4955L162.4 89.1186L162.747 87.3085C162.601 87.2691 162.463 87.2203 162.331 87.1621C161.732 86.8965 161.281 86.4354 160.979 85.7788C160.942 85.6988 160.907 85.6158 160.875 85.5299L160.86 85.4896C160.833 85.4166 160.808 85.3416 160.784 85.2645C160.634 84.7722 160.547 84.1961 160.524 83.5361L159.706 60.1129L157.871 60.1769C157.747 60.3209 157.619 60.4623 157.489 60.6012C157.311 60.7906 157.127 60.9753 156.937 61.1553C156.358 61.7034 155.726 62.2076 155.038 62.6679C154.65 62.928 154.244 63.1741 153.821 63.4062L153.49 63.4178C153.221 63.0369 152.943 62.6857 152.654 62.3642C152.543 62.2413 152.431 62.1227 152.318 62.0085L152.272 61.9629C151.619 61.3142 150.915 60.8086 150.162 60.4461C149.205 59.9854 148.167 59.7561 147.049 59.7581C146.959 59.7582 146.868 59.7599 146.776 59.7631ZM145.778 74.4262L145.769 74.4004C145.759 74.3736 145.75 74.3468 145.74 74.3198L145.698 74.1931L145.663 74.088C145.602 73.9024 145.543 73.7183 145.487 73.5357L145.472 73.4887C145.457 73.4402 145.443 73.3918 145.428 73.3436C145.414 73.2968 145.4 73.25 145.386 73.2034L145.368 73.1439L145.351 73.0857C145.273 72.8197 145.2 72.5569 145.132 72.2973L145.107 72.2026C145.054 71.9992 145.004 71.7977 144.958 71.5983C144.92 71.4397 144.885 71.2823 144.852 71.1263C144.834 71.0418 144.816 70.9577 144.799 70.874C144.775 70.7454 144.751 70.6187 144.729 70.4938C144.693 70.2858 144.659 70.0829 144.63 69.8853L144.616 69.7903C144.602 69.7012 144.59 69.6131 144.579 69.5261C144.572 69.4756 144.565 69.4254 144.559 69.3755C144.498 68.8866 144.46 68.4326 144.445 68.0135C144.43 67.5731 144.448 67.1558 144.499 66.7617C144.592 66.0378 144.798 65.392 145.116 64.8242C145.554 64.0394 146.151 63.5934 146.906 63.4861C146.995 63.4734 147.086 63.4655 147.179 63.4623C148.076 63.4309 148.891 63.7999 149.621 64.5691C149.704 64.6539 149.786 64.7413 149.865 64.8313C150.067 65.0613 150.255 65.3085 150.43 65.5727C150.795 66.1267 151.1 66.7558 151.344 67.4599C151.381 67.5631 151.418 67.6661 151.453 67.7688C151.489 67.8718 151.524 67.9746 151.558 68.0771C151.605 68.2199 151.651 68.3623 151.695 68.5042C151.719 68.5801 151.742 68.6559 151.765 68.7316C151.834 68.963 151.899 69.1932 151.959 69.4221L151.981 69.5043C152.019 69.6485 152.054 69.7922 152.088 69.9355C152.161 70.2416 152.226 70.5455 152.283 70.8472C152.317 71.0155 152.349 71.1816 152.379 71.3457C152.387 71.3914 152.395 71.437 152.403 71.4825C152.431 71.6427 152.457 71.8009 152.48 71.9571L152.494 72.0487L152.496 72.0621C152.52 72.2297 152.542 72.3949 152.561 72.5578C152.567 72.6059 152.572 72.6539 152.577 72.7016C152.605 72.9582 152.627 73.2088 152.642 73.4534C152.651 73.5853 152.657 73.7153 152.661 73.8436C152.686 74.5355 152.642 75.1613 152.532 75.7209C152.424 76.2664 152.252 76.7491 152.015 77.169C151.691 77.751 151.266 78.1381 150.74 78.3304C150.612 78.377 150.479 78.4121 150.34 78.4358C150.227 78.455 150.11 78.4668 149.989 78.471C149.477 78.4889 148.993 78.383 148.539 78.1535C148.162 77.9632 147.805 77.688 147.467 77.3278C146.757 76.5436 146.194 75.5763 145.778 74.4262ZM109.007 93.5823C110.812 93.5193 112.749 93.2323 114.658 92.5837L141.831 91.6348L143.9 99.7707L170.718 98.8342L172.142 91.4115C172.289 91.4098 172.436 91.4064 172.583 91.4013C172.982 91.3873 173.378 91.3622 173.769 91.3259L173.781 91.3594L183.064 91.0353L184.434 90.5786C185.005 90.3884 186.242 90.123 188.424 90.0468L195.916 89.7852C197.881 90.2318 199.915 90.4077 201.978 90.3357C205.859 90.2001 209.655 89.1095 212.946 86.8091C216.488 89.1959 220.497 89.689 223.723 89.5764C226.77 89.4699 229.735 88.8539 232.573 87.7479L232.884 87.6268C235.682 88.7956 238.574 89.0577 241.017 88.9724C244.064 88.866 247.029 88.2499 249.867 87.144L250.702 86.8186C253.579 87.9541 256.673 88.4257 259.833 88.3153C264.633 88.1477 269.303 86.5194 273.048 82.9486C276.1 80.0498 278.232 76.2803 278.737 71.8442L280.987 71.0713L277.138 53.0185L273.978 52.7269C272.567 50.9955 270.831 49.5387 268.809 48.4124C265.409 46.4984 261.715 45.7823 258.079 45.9093C256.026 45.981 254.022 46.2997 252.105 46.8801L250.122 46.9494L250.106 46.484C252.024 43.9895 253.322 41.0316 253.702 37.6971L255.952 36.9242L252.103 18.8714L248.943 18.5798C247.532 16.8484 245.796 15.3916 243.774 14.2652C240.374 12.3513 236.68 11.6353 233.044 11.7622C228.962 11.9048 225.076 13.0233 221.679 15.2336C219.629 13.853 217.384 13.0585 215.136 12.6994L215.106 12.3496L202.109 12.8034L199.711 14.4451C198.537 15.2494 197.57 15.7556 196.803 16.0692C194.766 14.708 192.539 13.9228 190.308 13.5664L190.277 13.2166L177.28 13.6705L174.883 15.3122C173.272 16.4156 172.051 16.9579 171.201 17.2117C167.551 15.013 163.409 14.1549 159.24 14.3004C155.124 14.4442 151.089 15.5539 147.619 17.9397C145.951 16.8966 144.147 16.1321 142.239 15.6622L143.326 9.83871L130.448 4.43164L125.991 7.37193C124.612 8.28195 122.851 9.03048 120.546 9.4889L113.928 10.8055L112.189 19.9841C108.406 17.2371 104.04 16.2672 99.8047 16.415C96.0577 16.5459 91.5199 17.3208 87.7415 20.1745C87.3827 20.4451 87.0304 20.7334 86.6875 21.0391L84.0568 10.5939L55.7499 11.5824L52.3788 30.4372L56.2012 31.447L56.4922 39.7799L52.7479 41.0906L53.5425 44.2159C51.7162 45.0366 49.9728 46.1989 48.4183 47.7893L48.4022 47.8058L48.3862 47.8223C46.5877 49.6795 45.2944 51.8183 44.5151 54.1293L40.2305 54.2789L41.0552 77.8974L41.3884 77.8857L45.8204 94.9876L88.5574 93.4952L88.7678 92.5083C91.3403 93.6581 94.0773 94.1037 96.7687 94.0097C98.8629 93.9365 100.9 93.5212 102.836 92.7749C104.976 93.4671 107.104 93.6488 109.007 93.5823ZM188.076 80.0529L187.919 80.0586C187.545 80.0731 187.18 80.0923 186.823 80.1162C185.975 80.1731 185.177 80.2568 184.431 80.3672C184.252 80.3937 184.075 80.4217 183.902 80.4513C183.561 80.5094 183.232 80.5736 182.914 80.6437C182.328 80.7728 181.78 80.9222 181.272 81.0918L180.764 81.1095L179.42 77.3064L179.225 77.3132C179.209 77.3396 179.194 77.3658 179.178 77.3919C178.99 77.7053 178.791 78.0004 178.581 78.2771C178.144 78.8508 177.658 79.3458 177.121 79.7621C176.727 80.0681 176.307 80.3316 175.859 80.5526C175.314 80.8214 174.73 81.0273 174.107 81.1703C173.518 81.3053 172.894 81.3843 172.234 81.4074C171.606 81.4293 171.012 81.387 170.451 81.2806C170.367 81.2646 170.283 81.247 170.2 81.228C170.073 81.1991 169.948 81.1667 169.825 81.131C169.54 81.0484 169.265 80.9477 169 80.8288C168.976 80.818 168.951 80.807 168.927 80.7959C168.235 80.4751 167.608 80.0292 167.046 79.4583C166.593 78.9934 166.21 78.449 165.898 77.8251L165.884 77.7976C165.342 76.7035 165.015 75.3667 164.904 73.7874C164.89 73.5897 164.88 73.3881 164.872 73.1827L164.686 67.8539C164.683 67.7539 164.678 67.6558 164.672 67.5596C164.625 66.8402 164.502 66.2305 164.303 65.7304C164.068 65.1407 163.727 64.7035 163.279 64.4186C163.049 64.2719 162.79 64.1656 162.503 64.0997L162.85 62.2896L162.922 62.2751C164.205 62.0134 165.422 61.6746 166.574 61.2587C167.354 60.9768 168.105 60.6595 168.825 60.3067C169.123 60.161 169.416 60.0092 169.703 59.8514C170.237 59.5579 170.754 59.2436 171.253 58.9084L171.858 58.8872L172.369 73.5267C172.377 73.7471 172.399 73.9565 172.436 74.1551L172.444 74.1956C172.576 74.87 172.878 75.4173 173.349 75.8377C173.967 76.3764 174.758 76.6289 175.721 76.5952C175.937 76.5877 176.145 76.5584 176.345 76.5076C176.649 76.43 176.933 76.302 177.197 76.1236C177.446 75.9552 177.677 75.7419 177.89 75.4837C178.093 75.2388 178.258 74.979 178.387 74.7042C178.573 74.3068 178.682 73.8781 178.714 73.4182C178.717 73.3806 178.719 73.3429 178.72 73.305C178.725 73.1959 178.725 73.0852 178.721 72.9727L178.526 67.3706L178.525 67.3521L178.524 67.3316C178.457 65.6092 177.974 64.4733 177.074 63.9239C176.844 63.7836 176.587 63.6816 176.303 63.6178L176.651 61.8077L176.713 61.7951C178.305 61.473 179.789 61.0343 181.164 60.4789C181.416 60.3771 181.664 60.2714 181.909 60.1618C183.019 59.6644 184.054 59.0864 185.014 58.4278L185.639 58.406L186.198 74.4314C186.204 74.5926 186.214 74.7488 186.227 74.8999C186.363 76.4593 186.904 77.4866 187.849 77.9819C187.9 78.0086 187.953 78.0338 188.006 78.0574C188.137 78.1156 188.276 78.1644 188.421 78.2038L188.076 80.0529ZM191.132 62.9363C191.523 62.3258 191.986 61.7584 192.519 61.234C192.899 60.8578 193.298 60.5135 193.715 60.2012L193.728 60.1918C193.933 60.0387 194.142 59.8934 194.356 59.7557C194.776 59.4855 195.213 59.245 195.667 59.0342C196.886 58.4682 198.229 58.1166 199.695 57.9795C199.885 57.9618 200.077 57.9476 200.27 57.9371C200.371 57.9316 200.471 57.9271 200.573 57.9236C201.062 57.9065 201.538 57.9162 202 57.9527C202.822 58.0175 203.6 58.1672 204.334 58.4015C204.942 58.5956 205.52 58.8479 206.068 59.1583C206.288 59.28 206.5 59.4094 206.703 59.5466C206.843 59.6407 206.978 59.7386 207.11 59.84C207.128 59.8538 207.146 59.8675 207.163 59.8814C207.424 60.086 207.67 60.305 207.9 60.5386C208.346 60.9921 208.734 61.5004 209.063 62.0634C209.241 62.3675 209.402 62.6876 209.545 63.0237C209.86 63.6921 210.254 64.1033 210.729 64.2574C210.828 64.2894 210.931 64.3103 211.037 64.3201L211.504 66.5122L198.14 71.1024C198.178 71.1765 198.217 71.2493 198.257 71.3209C198.284 71.3702 198.312 71.4189 198.34 71.467C198.358 71.4975 198.376 71.5277 198.394 71.5578C198.417 71.5949 198.44 71.6317 198.463 71.6681C198.781 72.166 199.152 72.596 199.576 72.958C200.104 73.4084 200.714 73.7536 201.407 73.9937C202.303 74.304 203.337 74.4387 204.509 74.3978C204.701 74.3911 204.89 74.3755 205.077 74.3508L205.098 74.3481C205.347 74.3144 205.593 74.2647 205.835 74.1991C205.964 74.1642 206.092 74.1247 206.219 74.0807C206.396 74.0193 206.571 73.9492 206.744 73.8703C206.9 73.7986 207.056 73.7198 207.209 73.6336C207.888 73.2529 208.535 72.7305 209.149 72.0665C209.171 72.0428 209.193 72.0189 209.215 71.9949C209.335 71.8629 209.453 71.7256 209.57 71.5827L210.993 72.0412C210.988 72.2681 210.972 72.4922 210.947 72.7136C210.909 73.0591 210.847 73.3979 210.762 73.73C210.747 73.7859 210.732 73.8416 210.717 73.8971C210.707 73.9313 210.697 73.9655 210.687 73.9996C210.469 74.7355 210.134 75.4378 209.684 76.1065C209.305 76.6697 208.843 77.2091 208.3 77.7246C208.002 78.0089 207.689 78.2701 207.362 78.5083L207.332 78.5299C207.227 78.6058 207.121 78.6793 207.012 78.7505C206.306 79.2151 205.535 79.5785 204.699 79.8407C203.892 80.0942 203.023 80.2532 202.095 80.3176C201.941 80.3282 201.786 80.3363 201.629 80.3418C201.524 80.3454 201.42 80.3481 201.317 80.3497C200.232 80.3664 199.209 80.2702 198.247 80.061C198.113 80.0319 197.981 80.0005 197.849 79.967C197.074 79.7694 196.34 79.4956 195.648 79.1456C194.701 78.6666 193.832 78.0448 193.04 77.2803C192.222 76.4896 191.546 75.6417 191.013 74.7366C190.923 74.5835 190.837 74.4287 190.755 74.2723C190.44 73.6729 190.186 73.0495 189.991 72.4021C189.716 71.4855 189.56 70.5206 189.525 69.5076C189.523 69.4502 189.521 69.3929 189.52 69.3358C189.519 69.2925 189.518 69.2493 189.517 69.2061C189.507 68.571 189.536 67.9596 189.604 67.3719C189.656 66.9196 189.732 66.4815 189.831 66.0573C189.866 65.9077 189.903 65.7598 189.944 65.6136C190.213 64.6443 190.609 63.7519 191.132 62.9363ZM203.043 66.0246L203.045 66.0454L200.355 66.9659L197.193 68.0477C197.128 67.6116 197.077 67.145 197.042 66.6479C197.023 66.3896 197.009 66.123 196.999 65.8482L196.998 65.8071L196.997 65.7893L196.997 65.7779L196.996 65.7591C196.966 64.6598 197.225 63.6895 197.774 62.8485C198.343 61.9817 199.024 61.5345 199.818 61.5068C200.136 61.4957 200.43 61.54 200.702 61.6397C201.15 61.8036 201.535 62.1173 201.859 62.5808C201.92 62.6673 201.978 62.7591 202.035 62.856C202.085 62.9408 202.134 63.0267 202.18 63.1137C202.372 63.4694 202.533 63.8432 202.664 64.2353C202.714 64.3827 202.759 64.5326 202.8 64.6852C202.815 64.7408 202.829 64.7968 202.843 64.8531C202.85 64.8839 202.858 64.9149 202.865 64.9459C202.914 65.1584 202.956 65.3757 202.989 65.5978C203 65.6684 203.009 65.7394 203.018 65.8109C203.027 65.8816 203.036 65.9529 203.043 66.0246ZM212.146 61.9557L212.055 59.3597C212.447 59.2348 212.833 59.0924 213.213 58.9325C213.724 58.7174 214.224 58.4705 214.714 58.1919C215.03 58.012 215.342 57.8188 215.649 57.6124C216.104 57.3064 216.55 56.9713 216.986 56.6071L217.058 56.5466C217.135 56.4815 217.211 56.416 217.287 56.3501C217.788 55.9128 218.255 55.4575 218.689 54.9841C218.862 54.7955 219.029 54.6041 219.192 54.4098C219.332 54.2412 219.469 54.0705 219.602 53.8976C220.035 53.3337 220.425 52.7468 220.774 52.1369L222.979 52.0599L223.183 57.8962L228.336 57.7162L228.464 61.3859L223.311 61.5658L223.725 73.4141C223.788 75.2229 224.509 76.1032 225.889 76.055C225.947 76.053 226.006 76.0501 226.064 76.0464C226.699 76.0059 227.295 75.8669 227.851 75.6293C227.954 75.5854 228.055 75.538 228.155 75.4873L228.942 78.4304C227.978 78.806 226.998 79.0906 226.001 79.2842C225.766 79.33 225.529 79.3707 225.291 79.4063C225.122 79.4317 224.952 79.4546 224.781 79.4748C224.316 79.53 223.846 79.5659 223.374 79.5824C221.82 79.6367 220.519 79.4463 219.471 79.0114C219.17 78.8867 218.89 78.7418 218.63 78.5768C217.529 77.8763 216.802 76.8131 216.448 75.3872C216.319 74.8655 216.24 74.2953 216.211 73.6765C216.21 73.6497 216.208 73.6228 216.207 73.5959C216.207 73.5772 216.206 73.5586 216.205 73.5399L215.796 61.8283L212.146 61.9557ZM229.44 61.3518L229.35 58.7557C229.741 58.6309 230.127 58.4885 230.507 58.3285C231.018 58.1134 231.518 57.8666 232.008 57.588C232.324 57.4081 232.636 57.2149 232.943 57.0085C233.013 56.9613 233.083 56.9134 233.153 56.8649C233.561 56.5811 233.96 56.2737 234.352 55.9427C235.05 55.3526 235.686 54.7288 236.26 54.0711C236.954 53.2746 237.557 52.4286 238.068 51.533L240.273 51.456L240.477 57.2923L245.63 57.1123L245.758 60.782L240.605 60.9619L241.019 72.8102C241.082 74.6189 241.803 75.4993 243.183 75.4511C243.242 75.449 243.3 75.4462 243.358 75.4425C243.993 75.402 244.589 75.263 245.145 75.0254C245.248 74.9814 245.349 74.9341 245.45 74.8834L246.236 77.8264C245.272 78.2021 244.292 78.4867 243.296 78.6803C243.06 78.7261 242.823 78.7668 242.586 78.8024C242.06 78.8811 241.531 78.935 240.997 78.9639C240.887 78.9698 240.777 78.9747 240.668 78.9785C240.238 78.9935 239.828 78.9898 239.437 78.9674C238.009 78.8855 236.838 78.554 235.924 77.9728C235.457 77.6755 235.057 77.3127 234.724 76.8847C234.141 76.1347 233.765 75.1841 233.596 74.0328C233.551 73.7269 233.521 73.4068 233.505 73.0726C233.504 73.0598 233.504 73.047 233.503 73.0342C233.502 73.0016 233.5 72.9688 233.499 72.936L233.09 61.2243L229.44 61.3518ZM251.583 58.1715C251.788 58.0184 251.997 57.873 252.211 57.7353C252.765 57.379 253.349 57.0743 253.962 56.8214C254.488 56.6041 255.037 56.425 255.607 56.284C256.229 56.1305 256.877 56.0222 257.55 55.9592C257.74 55.9414 257.932 55.9273 258.126 55.9167C258.162 55.9148 258.198 55.9129 258.234 55.9112C258.298 55.9082 258.363 55.9055 258.428 55.9032C259.789 55.8557 261.042 56.015 262.189 56.3812C262.797 56.5753 263.375 56.8276 263.924 57.138C264.294 57.3432 264.642 57.5705 264.965 57.8197L264.987 57.8367C264.998 57.8448 265.008 57.8529 265.019 57.8611C265.28 58.0656 265.525 58.2847 265.755 58.5182C266.443 59.2168 266.991 60.0451 267.4 61.0034C267.715 61.6718 268.11 62.083 268.585 62.237C268.684 62.2691 268.786 62.29 268.892 62.2998L269.359 64.4918L255.996 69.0821C256.016 69.1226 256.037 69.1627 256.059 69.2025C256.076 69.2354 256.094 69.2681 256.112 69.3006C256.139 69.3501 256.167 69.3991 256.196 69.4475C256.214 69.4777 256.232 69.5077 256.25 69.5374C256.272 69.5745 256.295 69.6113 256.319 69.6477C257.031 70.7651 258.012 71.5403 259.263 71.9734C260.159 72.2837 261.193 72.4184 262.365 72.3774C262.556 72.3708 262.745 72.3551 262.933 72.3305L262.953 72.3277C263.203 72.294 263.448 72.2444 263.69 72.1788C264.162 72.0509 264.62 71.8624 265.065 71.6133C265.768 71.2189 266.436 70.6727 267.07 69.9746C267.19 69.8426 267.308 69.7052 267.426 69.5624L268.849 70.0208C268.843 70.2477 268.828 70.4719 268.803 70.6933C268.753 71.1328 268.667 71.5614 268.543 71.9793C268.324 72.7152 267.99 73.4175 267.539 74.0862C267.16 74.6494 266.699 75.1887 266.155 75.7042C265.857 75.9885 265.545 76.2498 265.218 76.4879L265.188 76.5095C264.396 77.081 263.518 77.5179 262.555 77.8203C261.747 78.0738 260.879 78.2328 259.95 78.2972C259.797 78.3079 259.641 78.3159 259.484 78.3214C259.423 78.3236 259.361 78.3254 259.3 78.3268C259.257 78.3278 259.215 78.3286 259.172 78.3293C258.299 78.3428 257.467 78.2832 256.674 78.1505C255.535 77.9597 254.478 77.618 253.504 77.1253C253.011 76.8761 252.539 76.5883 252.089 76.2619C251.673 75.9608 251.275 75.6268 250.896 75.2599C250.406 74.7868 249.968 74.2932 249.58 73.7792C249.32 73.4341 249.083 73.0798 248.868 72.7162C248.834 72.6576 248.8 72.5987 248.767 72.5396C248.436 71.9538 248.164 71.3444 247.951 70.7115C247.61 69.6973 247.42 68.6225 247.38 67.4873C247.377 67.3862 247.374 67.2857 247.372 67.1858C247.37 67.034 247.37 66.8836 247.372 66.7345C247.385 65.7798 247.49 64.8806 247.686 64.037C247.832 63.4088 248.029 62.8115 248.277 62.2449C248.48 61.7813 248.717 61.3383 248.987 60.9159C249.042 60.8309 249.098 60.7467 249.155 60.6633C249.509 60.1482 249.915 59.665 250.374 59.2137C250.755 58.8374 251.153 58.4932 251.57 58.1809L251.583 58.1715ZM255.629 60.8281C255.672 60.763 255.715 60.7002 255.76 60.6398C256.301 59.8965 256.939 59.5121 257.674 59.4864C257.991 59.4753 258.286 59.5196 258.558 59.6193C259.005 59.7832 259.391 60.097 259.715 60.5604C259.775 60.647 259.834 60.7387 259.89 60.8357C260.146 61.2673 260.356 61.727 260.52 62.2149C260.569 62.3623 260.614 62.5123 260.655 62.6648C260.67 62.7204 260.684 62.7764 260.698 62.8327C260.706 62.8636 260.713 62.8945 260.72 62.9256C260.77 63.1381 260.811 63.3554 260.844 63.5775C260.855 63.648 260.865 63.719 260.874 63.7905C260.883 63.8613 260.891 63.9325 260.898 64.0042L260.9 64.025L258.21 64.9455L255.049 66.0273C254.983 65.5913 254.932 65.1247 254.897 64.6275C254.879 64.3692 254.865 64.1027 254.855 63.8279L254.853 63.7867L254.853 63.769L254.852 63.7575L254.852 63.7388C254.822 62.6394 255.081 61.6692 255.629 60.8281ZM187.774 23.342C189.136 23.4038 190.295 23.753 191.25 24.3898C191.6 24.6234 191.923 24.8958 192.219 25.2069C192.267 25.2569 192.314 25.3081 192.361 25.3604C192.858 25.9178 193.285 26.6077 193.641 27.43C193.969 28.1874 194.238 29.0572 194.446 30.0394L194.454 30.0779C194.552 30.5434 194.636 31.034 194.707 31.5497L195.714 39.1168C195.792 39.6908 195.916 40.2018 196.086 40.6499C196.253 41.0911 196.465 41.4712 196.722 41.7904C196.911 42.0253 197.124 42.2272 197.362 42.396C197.39 42.4163 197.419 42.4361 197.449 42.4555C197.612 42.5633 197.786 42.6563 197.971 42.7344L197.973 42.7356C198.048 42.6941 198.12 42.6495 198.19 42.602C198.309 42.5204 198.42 42.43 198.523 42.3309C198.893 41.9763 199.16 41.5094 199.325 40.93C199.375 40.7535 199.416 40.5665 199.448 40.369C199.514 39.9535 199.538 39.4918 199.52 38.9839L199.271 31.8398C199.262 31.5872 199.244 31.3468 199.217 31.1186C199.21 31.0625 199.203 31.0072 199.195 30.9526L199.192 30.9325C199.012 29.7082 198.55 28.8598 197.804 28.3875C197.583 28.2476 197.338 28.1407 197.067 28.0668L197.397 26.2964C197.451 26.2858 197.506 26.2748 197.561 26.2635C198.881 25.9907 200.236 25.525 201.628 24.8664C202.111 24.6381 202.597 24.3866 203.088 24.1119C203.25 24.0218 203.411 23.9291 203.573 23.834C204.146 23.4978 204.724 23.1305 205.309 22.7321L205.362 22.6959L205.967 22.6748L206.228 25.6753L206.501 25.6658L206.511 25.6507C206.651 25.4269 206.798 25.2149 206.95 25.0147C207.099 24.8173 207.255 24.6313 207.416 24.4568C207.858 23.9784 208.341 23.5863 208.866 23.2804L208.899 23.2611C209.751 22.7722 210.713 22.5091 211.784 22.4717C212.862 22.434 213.827 22.5573 214.677 22.8416C215.185 23.0113 215.652 23.2383 216.078 23.5227C216.429 23.7564 216.752 24.0288 217.047 24.3399C217.955 25.2864 218.64 26.6514 219.101 28.435C219.163 28.6733 219.221 28.9191 219.275 29.1724L219.283 29.2109C219.38 29.6764 219.465 30.167 219.536 30.6827L220.543 38.2498C220.62 38.8238 220.744 39.3348 220.914 39.7829C220.993 39.9911 221.082 40.1857 221.181 40.3667C221.292 40.5692 221.415 40.7548 221.551 40.9233C221.889 41.3439 222.305 41.6586 222.799 41.8674C222.861 41.8934 222.924 41.9179 222.988 41.9407C223.056 41.9647 223.125 41.9869 223.195 42.0072L222.866 43.7776L212.072 44.1545L211.581 42.4128C211.733 42.3547 211.874 42.2858 212.004 42.2063C212.858 41.6837 213.239 40.6986 213.148 39.251L213.147 39.2339C213.133 39.0135 213.107 38.7823 213.071 38.5406L213.067 38.5109L212.221 32.9575L212.221 32.9548L212.146 32.4645L211.824 30.3461C211.777 30.0486 211.719 29.7725 211.648 29.5179L211.638 29.4791C211.556 29.1906 211.459 28.9302 211.347 28.6978C210.864 27.6941 210.096 27.2141 209.045 27.2576L209.039 27.2579C208.89 27.2631 208.747 27.2798 208.612 27.3079C208.585 27.3134 208.558 27.3194 208.532 27.3258C207.982 27.4608 207.544 27.7915 207.219 28.3181C207.206 28.3397 207.193 28.3614 207.18 28.3833C206.93 28.8098 206.766 29.3004 206.69 29.8552C206.676 29.9516 206.666 30.0501 206.658 30.1504C206.64 30.3768 206.635 30.6131 206.643 30.8593L206.918 38.7256C206.927 38.975 206.945 39.2125 206.974 39.4382L206.975 39.4419C207.03 39.8799 207.124 40.2732 207.255 40.6219C207.319 40.7941 207.393 40.9554 207.476 41.1059C207.76 41.6208 208.152 42.0081 208.65 42.2678C208.687 42.2872 208.725 42.3058 208.764 42.3237C208.907 42.3908 209.059 42.448 209.219 42.4952L208.831 44.2677L187.243 45.0215L186.752 43.2798C186.904 43.2217 187.045 43.1529 187.175 43.0733C187.239 43.034 187.301 42.9921 187.36 42.9475C188.084 42.3999 188.404 41.4567 188.32 40.118L188.318 40.1009C188.303 39.8715 188.277 39.6305 188.238 39.3779L187.393 33.8246L187.392 33.8218L187.318 33.3315L186.995 31.2132C186.948 30.9156 186.89 30.6395 186.82 30.3849L186.809 30.3462C186.745 30.1199 186.672 29.911 186.589 29.7193C186.566 29.6665 186.543 29.615 186.519 29.5648C186.035 28.5612 185.268 28.0811 184.217 28.1246L184.21 28.1249C184.061 28.1301 183.919 28.1468 183.783 28.1749C183.756 28.1805 183.73 28.1864 183.704 28.1929C183.153 28.3278 182.716 28.6586 182.391 29.1852C182.377 29.2067 182.364 29.2285 182.351 29.2504C182.101 29.6768 181.938 30.1674 181.861 30.7222C181.848 30.8187 181.837 30.9171 181.829 31.0174C181.811 31.2439 181.806 31.4802 181.815 31.7263L182.089 39.5926C182.098 39.842 182.117 40.0796 182.146 40.3053L182.146 40.309C182.202 40.7469 182.295 41.1403 182.426 41.4889C182.491 41.6612 182.564 41.8225 182.647 41.9729C182.953 42.5262 183.382 42.9322 183.935 43.1908C184.078 43.2579 184.23 43.315 184.39 43.3623L184.003 45.1347L173.209 45.5116L172.796 43.7672C172.917 43.7192 173.032 43.6649 173.142 43.6042C173.3 43.5165 173.447 43.4153 173.581 43.3008C174.01 42.9355 174.315 42.4343 174.496 41.7971C174.547 41.6205 174.588 41.4335 174.619 41.236C174.685 40.8206 174.709 40.3589 174.692 39.851L174.442 32.7069C174.433 32.4542 174.415 32.2138 174.388 31.9857C174.229 30.6608 173.758 29.7504 172.976 29.2545C172.755 29.1146 172.509 29.0078 172.239 28.9338L172.568 27.1634C172.623 27.1528 172.677 27.1418 172.732 27.1305C174.052 26.8577 175.408 26.392 176.8 25.7334C177.355 25.4707 177.916 25.1772 178.482 24.853C178.57 24.8031 178.657 24.7524 178.745 24.701C179.317 24.3649 179.896 23.9976 180.48 23.5991L180.533 23.563L181.138 23.5418L181.399 26.5424L181.673 26.5328L181.682 26.5178C181.823 26.2939 181.969 26.0819 182.121 25.8817C182.271 25.6843 182.426 25.4983 182.587 25.3239C183.029 24.8455 183.512 24.4533 184.037 24.1475L184.071 24.1282C184.923 23.6392 185.884 23.3761 186.955 23.3387C187.236 23.3289 187.509 23.33 187.774 23.342ZM156.516 46.3635C156.138 46.2627 155.772 46.1432 155.417 46.005C155.278 45.951 155.141 45.8941 155.006 45.8343L154.962 45.8148C153.927 45.3517 152.994 44.7204 152.164 43.9209C151.41 43.1902 150.785 42.3724 150.289 41.4677L150.271 41.4347C149.865 40.6879 149.547 39.8821 149.317 39.0173C149.147 38.3776 149.025 37.7057 148.95 37.0015C148.913 36.6446 148.887 36.2794 148.874 35.9058C148.861 35.5217 148.861 35.1457 148.874 34.7777C148.897 34.1264 148.963 33.5003 149.07 32.8995L149.075 32.8696C149.122 32.6081 149.177 32.3514 149.24 32.0995C149.663 30.4114 150.442 28.9387 151.577 27.6815C152.442 26.7241 153.454 25.969 154.615 25.4162C155.628 24.934 156.753 24.6058 157.991 24.4316C158.504 24.3594 159.037 24.3136 159.589 24.2944C160.765 24.2533 161.863 24.3402 162.881 24.5552C163.645 24.7163 164.364 24.9494 165.039 25.2544L165.088 25.2767C165.553 25.4903 165.998 25.7384 166.421 26.0209C166.901 26.3415 167.353 26.7064 167.778 27.1157C168.166 27.4872 168.52 27.8827 168.84 28.3021C169.196 28.7687 169.509 29.2648 169.78 29.7907L169.813 29.8556C170.271 30.7611 170.605 31.7538 170.814 32.8336C170.856 33.0462 170.892 33.2623 170.924 33.4818C169.273 30.2293 165.897 28.0003 162 28.0003C161.107 28.0003 160.241 28.1175 159.416 28.3373C158.997 28.1361 158.564 28.0433 158.118 28.0589C157.26 28.0889 156.649 28.5405 156.285 29.4139C156.22 29.5677 156.164 29.7346 156.115 29.9146C153.621 31.7331 152 34.6774 152 38.0003C152 41.498 153.796 44.5763 156.516 46.3635ZM147.109 39.0944C147.089 39.2159 147.068 39.3365 147.045 39.456C146.696 41.2606 145.995 42.8329 144.942 44.1731C144.729 44.4457 144.506 44.7018 144.274 44.9414L144.232 44.9848C143.507 45.7218 142.686 46.2998 141.769 46.7188C140.676 47.2183 139.447 47.4919 138.082 47.5395C137.991 47.5428 137.899 47.5446 137.809 47.5452C136.604 47.5525 135.501 47.3253 134.5 46.8634C133.763 46.5232 133.081 46.0558 132.455 45.4611L132.432 45.4394C131.977 45.0042 131.552 44.5015 131.155 43.9314L130.921 43.9396C129.801 44.602 128.811 45.3419 127.95 46.1595C127.624 46.4699 127.315 46.7916 127.026 47.1244L125.152 47.1898L124.373 24.8792L124.37 24.8128C124.338 24.0439 124.218 23.3916 124.01 22.856L123.996 22.8208C123.754 22.2159 123.398 21.7627 122.928 21.4612C122.696 21.3129 122.437 21.2013 122.151 21.1263L122.497 19.2967C122.544 19.2875 122.59 19.2781 122.636 19.2687C125.932 18.5974 128.839 17.4452 131.356 15.8122L131.373 15.8011C131.415 15.7738 131.457 15.7463 131.499 15.7187L132.015 15.9352L132.012 15.9519C131.986 16.0915 131.961 16.2359 131.939 16.385C131.931 16.4355 131.923 16.4866 131.916 16.5382C131.87 16.8641 131.83 17.2118 131.798 17.5812C131.753 18.1052 131.722 18.6731 131.706 19.2847C131.691 19.8341 131.688 20.4189 131.696 21.039C131.7 21.3361 131.707 21.6414 131.717 21.9548C131.723 22.1502 131.73 22.3487 131.737 22.5504L131.909 27.4693L132.144 27.4611C132.774 26.6942 133.529 26.1147 134.408 25.7228C134.51 25.6778 134.612 25.6352 134.717 25.595C135.467 25.3068 136.301 25.1466 137.221 25.1145C138.569 25.0675 139.815 25.2721 140.959 25.7284C141.2 25.8245 141.436 25.9318 141.668 26.0502L141.711 26.0725C141.764 26.1 141.817 26.128 141.87 26.1566C142.723 26.6216 143.513 27.2414 144.241 28.0159C144.92 28.7346 145.487 29.5307 145.941 30.4043C145.974 30.4682 146.007 30.5326 146.039 30.5974L146.049 30.6176C146.404 31.342 146.685 32.1181 146.889 32.946L146.899 32.9848C147.062 33.6527 147.175 34.3542 147.24 35.0893C147.265 35.3748 147.283 35.6654 147.293 35.961C147.31 36.4463 147.308 36.919 147.287 37.379C147.259 37.9717 147.2 38.5435 147.109 39.0944ZM135.22 42.7928C135.143 42.7125 135.069 42.6301 134.996 42.5456C134.77 42.2835 134.561 42.001 134.367 41.6982C134.026 41.163 133.736 40.5643 133.496 39.902C133.457 39.7922 133.419 39.6828 133.382 39.5737C133.325 39.4081 133.27 39.2434 133.218 39.0795L133.181 38.9652C133.145 38.8495 133.109 38.7343 133.075 38.6195C132.996 38.355 132.923 38.0927 132.855 37.8327C132.821 37.7031 132.789 37.5742 132.758 37.4458C132.683 37.1321 132.616 36.8217 132.557 36.5147C132.515 36.2922 132.477 36.0736 132.442 35.8588L132.435 35.8165C132.412 35.6722 132.391 35.5297 132.371 35.3889L132.368 35.3672C132.335 35.1335 132.307 34.9045 132.283 34.6805L132.276 34.6147C132.251 34.3666 132.231 34.1244 132.217 33.8883C132.209 33.7563 132.202 33.6263 132.198 33.4981C132.176 32.8627 132.208 32.2847 132.294 31.7638C132.393 31.1646 132.563 30.6412 132.806 30.1936C133.122 29.6151 133.536 29.2263 134.047 29.0271C134.196 28.969 134.354 28.9271 134.519 28.9013C134.62 28.8856 134.724 28.8758 134.831 28.8721C135.768 28.8394 136.602 29.2272 137.334 30.0355C137.347 30.0496 137.36 30.0639 137.373 30.0782C137.38 30.0863 137.388 30.0945 137.395 30.1027C138.057 30.8421 138.589 31.7556 138.99 32.8433C138.999 32.8694 139.009 32.8955 139.018 32.9218L139.028 32.9476C139.039 32.9794 139.05 33.0113 139.061 33.0434C139.079 33.0941 139.097 33.1446 139.114 33.1951L139.135 33.2558C139.186 33.4045 139.235 33.5523 139.282 33.6993L139.298 33.748C139.339 33.8755 139.379 34.0023 139.417 34.1284L139.45 34.2382L139.468 34.2979C139.554 34.5858 139.633 34.8704 139.705 35.1515L139.709 35.1641C139.8 35.5206 139.881 35.8718 139.952 36.2174C139.969 36.3018 139.986 36.3859 140.002 36.4697C140.028 36.6058 140.052 36.7399 140.075 36.8718C140.112 37.083 140.146 37.2888 140.176 37.4893L140.179 37.5123C140.201 37.6603 140.221 37.8054 140.239 37.9476L140.248 38.0182C140.306 38.4881 140.342 38.9255 140.356 39.3302C140.37 39.753 140.355 40.1544 140.31 40.5345L140.307 40.5595C140.232 41.1794 140.077 41.7421 139.841 42.2479C139.799 42.3401 139.753 42.4305 139.705 42.5189C139.289 43.3027 138.706 43.7483 137.954 43.8556C137.865 43.8682 137.774 43.8762 137.681 43.8795C136.77 43.9113 135.949 43.549 135.22 42.7928ZM228.497 42.9927L228.468 42.9782C227.88 42.6807 227.322 42.3282 226.794 41.9206C226.472 41.6718 226.161 41.4026 225.861 41.1128C225.162 40.4375 224.567 39.7203 224.076 38.9615C223.992 38.8319 223.911 38.7011 223.833 38.5692C223.697 38.3374 223.57 38.1019 223.452 37.8627L223.449 37.8563C223.215 37.3817 223.019 36.8923 222.859 36.3881C222.743 36.022 222.646 35.6482 222.569 35.2665C222.471 34.7863 222.405 34.2937 222.369 33.7888C222.358 33.6403 222.35 33.4908 222.345 33.3402C222.343 33.2829 222.341 33.2259 222.34 33.1691C222.339 33.1255 222.338 33.082 222.337 33.0387L222.336 32.955C222.326 32.0103 222.403 31.1184 222.568 30.2793L222.57 30.265C222.595 30.1388 222.622 30.0137 222.651 29.8899C222.917 28.7478 223.351 27.7074 223.952 26.7688C224.344 26.1584 224.806 25.5909 225.339 25.0666C225.72 24.6903 226.118 24.3461 226.535 24.0338L226.548 24.0244C226.753 23.8713 226.962 23.7259 227.176 23.5882C227.408 23.4392 227.645 23.2992 227.887 23.1682C229.262 22.4241 230.805 21.972 232.515 21.8121C232.705 21.7943 232.897 21.7802 233.091 21.7696C233.191 21.7642 233.292 21.7597 233.393 21.7561C234.753 21.7086 236.007 21.8679 237.154 22.2341C237.762 22.4282 238.34 22.6805 238.888 22.9909C239.259 23.1961 239.607 23.4234 239.93 23.6726L239.958 23.6937C239.966 23.7004 239.975 23.7072 239.984 23.714C240.245 23.9185 240.49 24.1376 240.72 24.3712C241.408 25.0697 241.956 25.8981 242.365 26.8563C242.68 27.5247 243.075 27.9359 243.55 28.0899C243.649 28.122 243.751 28.1429 243.857 28.1527L244.324 30.3447L230.961 34.935C230.998 35.0091 231.037 35.0819 231.077 35.1535C231.122 35.234 231.167 35.3129 231.215 35.3903C231.228 35.4127 231.242 35.4349 231.256 35.457C231.265 35.4716 231.274 35.4862 231.283 35.5006C231.981 36.5943 232.936 37.3601 234.148 37.7983C234.175 37.8078 234.201 37.8171 234.228 37.8263C235.123 38.1366 236.157 38.2713 237.33 38.2304C237.521 38.2237 237.71 38.208 237.897 38.1834L237.918 38.1806C238.167 38.1469 238.413 38.0973 238.655 38.0317C239.127 37.9038 239.585 37.7153 240.03 37.4662C240.733 37.0718 241.401 36.5256 242.035 35.8275C242.155 35.6955 242.273 35.5581 242.391 35.4153L243.814 35.8737C243.808 36.1006 243.792 36.3248 243.768 36.5462C243.718 36.9857 243.632 37.4143 243.507 37.8322C243.289 38.5681 242.954 39.2704 242.504 39.9391C242.16 40.4508 241.747 40.9428 241.267 41.4152C241.218 41.4627 241.169 41.51 241.12 41.5571C240.822 41.8414 240.51 42.1027 240.183 42.3408L240.153 42.3624C240.089 42.4083 240.025 42.4533 239.96 42.4974C239.296 42.9513 238.572 43.3135 237.79 43.584C237.701 43.615 237.611 43.6447 237.52 43.6732C236.712 43.9268 235.844 44.0857 234.915 44.1501C234.762 44.1608 234.606 44.1689 234.449 44.1743C234.345 44.178 234.241 44.1806 234.137 44.1822C233.739 44.1884 233.349 44.1793 232.967 44.155C232.924 44.1522 232.88 44.1492 232.837 44.1461C232.794 44.1429 232.751 44.1396 232.709 44.1361C232.094 44.0853 231.501 43.9943 230.931 43.863C230.069 43.6647 229.258 43.3746 228.497 42.9927ZM235.839 29.6434C235.848 29.7142 235.856 29.7854 235.863 29.8571L235.865 29.8779L233.175 30.7984L230.014 31.8802C229.948 31.4442 229.897 30.9776 229.862 30.4804C229.844 30.2221 229.83 29.9556 229.82 29.6808L229.818 29.6396L229.818 29.6219L229.817 29.6104L229.817 29.5917C229.786 28.4923 230.046 27.5221 230.594 26.681C231.163 25.8143 231.845 25.3671 232.638 25.3393C232.956 25.3283 233.251 25.3726 233.523 25.4722C233.97 25.6362 234.356 25.9499 234.68 26.4134C234.74 26.4999 234.799 26.5916 234.855 26.6886C235.111 27.1202 235.321 27.5799 235.485 28.0678C235.534 28.2152 235.579 28.3652 235.62 28.5177C235.635 28.5734 235.649 28.6293 235.663 28.6856C235.671 28.7165 235.678 28.7474 235.685 28.7785C235.734 28.991 235.776 29.2083 235.809 29.4304C235.82 29.5009 235.83 29.5719 235.839 29.6434ZM101.018 44.4367C100.884 44.4413 100.755 44.4378 100.628 44.4262C100.464 44.411 100.306 44.382 100.154 44.3391C100.077 44.3173 100.002 44.2919 99.9279 44.2629C99.8967 44.2507 99.8658 44.2378 99.8352 44.2243C99.648 44.1417 99.4718 44.0352 99.3065 43.9048C99.2943 43.8952 99.2821 43.8854 99.2699 43.8754C99.225 43.8386 99.1808 43.8001 99.1375 43.7597L99.1145 43.7379C98.9681 43.5976 98.8419 43.4402 98.736 43.2656C98.6433 43.1128 98.5661 42.9468 98.5045 42.7677C98.4463 42.5987 98.4019 42.418 98.3713 42.2256C98.3618 42.1658 98.3537 42.1049 98.3468 42.0428C98.3448 42.024 98.3428 42.0052 98.341 41.9862C98.3405 41.9813 98.34 41.9763 98.3396 41.9713L98.3389 41.9633C98.3316 41.8829 98.3265 41.8006 98.3235 41.7165C98.3203 41.6241 98.3202 41.5329 98.3233 41.4429C98.3348 41.1031 98.3911 40.7812 98.4922 40.4774C98.495 40.4688 98.498 40.4601 98.5009 40.4515C98.5037 40.4434 98.5065 40.4352 98.5094 40.4271C98.5516 40.3071 98.6008 40.1899 98.6572 40.0756C98.6651 40.0595 98.6731 40.0435 98.6813 40.0276C98.7218 39.9489 98.7656 39.8716 98.8129 39.7957C98.853 39.7312 98.8955 39.6678 98.9405 39.6053C99.1703 39.2863 99.464 38.9931 99.8216 38.7256C99.9762 38.61 100.143 38.4992 100.321 38.3932C100.354 38.3738 100.387 38.3545 100.421 38.3353C100.488 38.2969 100.557 38.2591 100.628 38.222C100.683 38.1928 100.74 38.1639 100.798 38.1355C101.079 37.997 101.384 37.8681 101.712 37.7489C101.967 37.6565 102.236 37.5699 102.52 37.4891L102.534 37.485L103.272 41.2701C103.274 41.3348 103.275 41.399 103.274 41.4628C103.273 41.4898 103.272 41.5168 103.271 41.5437C103.254 41.9922 103.153 42.4177 102.97 42.82C102.956 42.8503 102.941 42.8805 102.927 42.9106C102.905 42.9537 102.883 42.9965 102.86 43.0391C102.785 43.1766 102.7 43.3113 102.605 43.4432C102.355 43.7825 102.09 44.035 101.808 44.2006C101.76 44.2292 101.711 44.2551 101.661 44.2785C101.556 44.3282 101.449 44.3663 101.34 44.3927C101.234 44.4182 101.127 44.4328 101.018 44.4367Z" fill="white"/>
<path d="M88.0014 38.8325L89.8669 39.6468L87.2144 49.3156L86.5312 49.3394C86.1466 49.1444 85.2551 48.9866 83.8568 48.8661C82.472 48.7581 81.3437 48.7193 80.4718 48.7498L65.1491 49.2848L64.696 47.5027C66.0604 47.0251 66.7053 45.7192 66.6308 43.5851L66.0473 26.8766C65.9728 24.7424 65.2386 23.4913 63.8446 23.123L64.1716 21.2941L76.3322 20.8694L76.786 22.6711C75.4216 23.1487 74.7765 24.448 74.8505 26.5691L75.5042 45.2882C76.6279 45.3792 77.5475 45.4123 78.2633 45.3873C79.4084 45.3473 80.52 45.0935 81.5981 44.6259C82.6762 44.1583 83.5819 43.6055 84.3153 42.9676C85.0617 42.3291 85.7238 41.7002 86.3014 41.0807C86.8791 40.4612 87.3101 39.9315 87.5944 39.4916L88.0014 38.8325Z" fill="#2C2C2C"/>
<path d="M114.405 45.0046L115.105 46.5827C113.948 47.7957 112.238 48.4417 109.974 48.5208C107.046 48.623 105.114 47.57 104.177 45.3618L103.942 45.37C103.372 46.5625 102.51 47.446 101.358 48.0204C100.218 48.5944 99.0106 48.9036 97.7353 48.9482C95.8485 49.0141 94.2364 48.5557 92.8992 47.5731C91.5751 46.5901 90.8832 45.2462 90.8237 43.5416C90.7951 42.7217 90.8991 41.969 91.1357 41.2832C91.3849 40.584 91.6837 40.0003 92.0321 39.5321C92.3932 39.0505 92.9115 38.5959 93.5871 38.1684C94.2757 37.7405 94.8829 37.4066 95.4087 37.1667C95.934 36.9139 96.6676 36.6537 97.6093 36.3863C98.5637 36.1054 99.2993 35.9039 99.8162 35.7816C100.333 35.6593 101.096 35.5024 102.106 35.3108L101.414 31.7195C101.287 31.0855 101.049 30.6117 100.7 30.2982C100.362 29.9712 99.9661 29.8157 99.5107 29.8316C99.0812 29.8466 98.7226 30.022 98.4346 30.3578C98.1592 30.6801 98.095 31.0797 98.242 31.5566C98.5386 32.5886 98.3671 33.461 97.7275 34.1738C97.0879 34.8867 96.2216 35.2622 95.1285 35.3004C94.0875 35.3367 93.2698 35.0526 92.6754 34.448C92.094 33.8429 91.7843 32.9938 91.7461 31.9007C91.6957 30.4563 92.3687 29.2081 93.7651 28.1561C95.1741 27.0906 97.3035 26.5082 100.153 26.4086C102.717 26.3191 104.842 26.9289 106.53 28.238C108.23 29.5336 109.317 31.5868 109.793 34.3974L111.006 41.6837C111.175 42.7983 111.479 43.6671 111.917 44.2902C112.356 44.9133 112.894 45.2137 113.532 45.1915C113.883 45.1792 114.174 45.1169 114.405 45.0046ZM101.017 44.4363C101.603 44.4159 102.132 44.0847 102.605 43.4428C103.077 42.7879 103.299 42.0636 103.272 41.2698L102.533 37.4847C99.6566 38.3017 98.2532 39.7122 98.3231 41.7162C98.354 42.6011 98.6254 43.2821 99.1371 43.7594C99.6489 44.2366 100.276 44.4622 101.017 44.4363Z" fill="#2C2C2C"/>
<path d="M137.221 25.1142C139.992 25.0174 142.332 25.9845 144.24 28.0155C146.161 30.0461 147.179 32.6945 147.293 35.9607C147.409 39.292 146.625 42.0294 144.941 44.1728C143.27 46.3158 140.984 47.4379 138.082 47.5392C135.206 47.6397 132.897 46.437 131.155 43.9311L130.921 43.9393C129.376 44.8531 128.078 45.9147 127.025 47.1241L125.152 47.1895L124.372 24.8789C124.298 22.7448 123.557 21.4938 122.15 21.126L122.497 19.2964C125.913 18.6169 128.913 17.4242 131.499 15.7184L132.014 15.9349C131.718 17.5217 131.625 19.7268 131.737 22.5501L131.909 27.469L132.143 27.4608C133.368 25.9719 135.06 25.1897 137.221 25.1142ZM137.68 43.8791C138.565 43.8482 139.24 43.3947 139.704 42.5186C140.182 41.642 140.399 40.5791 140.355 39.3299C140.327 38.5101 140.209 37.5566 140.001 36.4694C139.794 35.3822 139.481 34.2401 139.061 33.0431C138.641 31.8331 138.065 30.8304 137.334 30.0351C136.602 29.2269 135.768 28.8391 134.831 28.8718C133.946 28.9027 133.271 29.3432 132.805 30.1933C132.352 31.0299 132.15 32.1314 132.198 33.4978C132.229 34.4087 132.349 35.4142 132.557 36.5144C132.764 37.6016 133.077 38.7307 133.496 39.9017C133.914 41.0596 134.489 42.0233 135.219 42.7925C135.949 43.5487 136.77 43.911 137.68 43.8791Z" fill="#2C2C2C"/>
<path d="M168.345 43.3555C166.414 45.5076 163.756 46.6427 160.373 46.7608C156.99 46.879 154.253 45.9322 152.163 43.9206C150.087 41.9085 148.99 39.2368 148.874 35.9055C148.757 32.5482 149.658 29.8067 151.577 27.6812C153.508 25.5421 156.179 24.4131 159.588 24.294C162.972 24.1759 165.702 25.1164 167.778 27.1154C169.854 29.1015 170.95 31.7732 171.067 35.1305C171.184 38.4618 170.276 41.2035 168.345 43.3555ZM161.765 42.9795C163.392 42.9226 164.154 41.4173 164.05 38.4634C164.029 37.8517 163.889 37.0098 163.63 35.9374C163.384 34.8646 163.031 33.7109 162.571 32.4762C162.124 31.241 161.494 30.1881 160.682 29.3175C159.883 28.4464 159.028 28.0268 158.117 28.0586C156.517 28.1145 155.775 29.6387 155.893 32.6312C155.918 33.3469 156.053 34.2477 156.3 35.3335C156.546 36.4193 156.899 37.5601 157.357 38.7557C157.816 39.9514 158.438 40.9654 159.222 41.7979C160.007 42.6174 160.854 43.0113 161.765 42.9795Z" fill="#2C2C2C"/>
<path d="M195.714 39.1165C195.995 41.1913 196.879 42.4438 198.366 42.8739L198.037 44.6443L187.243 45.0212L186.752 43.2795C188.063 42.7777 188.559 41.4771 188.238 39.3776L186.995 31.2129C186.66 29.0878 185.732 28.0584 184.21 28.1246C183.416 28.1523 182.809 28.5057 182.39 29.1848C181.971 29.864 181.779 30.711 181.814 31.726L182.089 39.5923C182.162 41.6744 182.929 42.9309 184.39 43.362L184.002 45.1344L173.208 45.5113L172.796 43.7669C174.132 43.2381 174.764 41.9327 174.691 39.8507L174.442 32.7066C174.367 30.5725 173.633 29.3148 172.238 28.9335L172.568 27.1631C175.091 26.6711 177.746 25.471 180.533 23.5627L181.138 23.5415L181.399 26.542L181.672 26.5325C182.955 24.4813 184.716 23.4166 186.955 23.3384C189.206 23.2598 190.96 23.8825 192.218 25.2066C193.476 26.5177 194.305 28.632 194.707 31.5494L195.714 39.1165Z" fill="#2C2C2C"/>
<path d="M220.542 38.2495C220.823 40.3243 221.707 41.5768 223.195 42.0069L222.865 43.7773L212.071 44.1542L211.58 42.4125C212.892 41.9107 213.387 40.61 213.066 38.5106L211.824 30.3458C211.489 28.2208 210.56 27.1914 209.038 27.2576C208.245 27.2853 207.638 27.6387 207.219 28.3178C206.799 28.9969 206.608 29.844 206.643 30.859L206.918 38.7253C206.99 40.8073 207.757 42.0639 209.219 42.4949L208.831 44.2674L198.037 44.6443L197.624 42.8998C198.961 42.3711 199.593 41.0657 199.52 38.9836L199.27 31.8395C199.196 29.7054 198.461 28.4477 197.067 28.0665L197.396 26.2961C199.92 25.8041 202.575 24.6039 205.361 22.6956L205.966 22.6745L206.227 25.675L206.501 25.6655C207.784 23.6142 209.545 22.5495 211.783 22.4714C214.034 22.3927 215.789 23.0155 217.047 24.3396C218.304 25.6507 219.134 27.7649 219.535 30.6824L220.542 38.2495Z" fill="#2C2C2C"/>
<path d="M237.329 38.23C239.216 38.1642 240.903 37.2258 242.39 35.415L243.813 35.8734C243.758 38.0121 242.86 39.9065 241.119 41.5568C239.392 43.2066 237.169 44.0791 234.449 44.174C230.961 44.2958 228.099 43.2753 225.86 41.1125C223.622 38.9497 222.45 36.3589 222.345 33.3399C222.225 29.9045 223.223 27.1466 225.339 25.0663C227.455 22.9729 230.139 21.8694 233.392 21.7558C235.474 21.6831 237.306 22.0947 238.888 22.9906C240.482 23.873 241.641 25.1614 242.365 26.856C242.745 27.6635 243.242 28.0956 243.856 28.1524L244.324 30.3444L230.96 34.9347C232.135 37.2388 234.258 38.3373 237.329 38.23ZM232.638 25.339C231.844 25.3667 231.163 25.814 230.594 26.6807C230.037 27.534 229.779 28.5202 229.818 29.6393C229.846 30.4591 229.911 31.206 230.013 31.8799L235.865 29.8776C235.745 28.6832 235.408 27.62 234.855 26.6883C234.314 25.7561 233.575 25.3063 232.638 25.339Z" fill="#2C2C2C"/>
<path d="M59.1152 57.8209C59.1552 58.9661 59.9059 60.8746 61.3672 63.5466L67.8866 63.3189L68.0134 66.9495L62.0015 67.1595L62.4077 78.793C62.4822 80.9271 63.2232 82.1846 64.6306 82.5654L64.282 84.3364L53.4878 84.7134L53.0361 82.9703C54.4004 82.4927 55.0454 81.1868 54.9708 79.0527L54.5646 67.4192L50.6998 67.5541L50.573 63.9235L54.2817 63.794C54.2192 63.4966 54.1328 63.0761 54.0226 62.5328C53.9125 61.9894 53.8243 61.5169 53.7582 61.1154C53.6916 60.7008 53.6512 60.2918 53.6371 59.8884C53.5672 57.8844 54.2112 56.1812 55.5694 54.7788C56.9405 53.3759 58.8753 52.6308 61.3738 52.5436C63.1566 52.4813 64.6641 52.9303 65.8962 53.8905C67.141 54.8372 67.789 56.0458 67.8404 57.5162C67.8722 58.4271 67.6385 59.1975 67.1393 59.8273C66.6402 60.4571 65.9351 60.7878 65.0242 60.8197C64.0613 60.8533 63.3304 60.6313 62.8317 60.1536C62.346 59.6755 62.0476 59.1517 61.9365 58.5823C61.8384 58.0125 61.6571 57.4846 61.3926 56.9988C61.1281 56.5129 60.716 56.2797 60.1565 56.2993C59.4278 56.3247 59.0807 56.8319 59.1152 57.8209Z" fill="#2C2C2C"/>
<path d="M83.5327 61.9713C84.8861 61.924 86.0408 62.3462 86.997 63.2379C87.9527 64.1165 88.4549 65.252 88.5035 66.6444C88.5472 67.8937 88.1808 68.9683 87.4045 69.8683C86.6407 70.7549 85.6862 71.2182 84.5411 71.2582C83.7473 71.2859 83.0851 71.1657 82.5546 70.8976C82.0366 70.616 81.6665 70.2772 81.4442 69.881C81.2215 69.4719 81.025 69.0683 80.8547 68.6704C80.6975 68.272 80.4968 67.9337 80.2526 67.6556C80.0209 67.3641 79.7359 67.2242 79.3976 67.236C78.5777 67.2646 78.1945 68.2291 78.2478 70.1295L78.5293 78.1909C78.6039 80.3251 79.3578 81.5821 80.7912 81.962L80.405 83.7734L69.6108 84.1504L69.1577 82.3682C70.5221 81.8906 71.167 80.5848 71.0925 78.4507L70.8457 71.3846C70.7712 69.2505 70.0368 67.9928 68.6424 67.6116L68.9701 65.8022C70.0577 65.6078 71.1089 65.304 72.1238 64.8908C73.1386 64.4775 73.9331 64.098 74.5074 63.7522C75.0811 63.3934 75.8774 62.877 76.8962 62.2031L77.5013 62.1819L77.8391 65.1407L78.0343 65.1339C79.2535 63.1109 81.0863 62.0567 83.5327 61.9713Z" fill="#2C2C2C"/>
<path d="M113.089 80.0719L113.789 81.65C112.632 82.863 110.922 83.509 108.658 83.5881C105.73 83.6903 103.798 82.6373 102.861 80.4291L102.626 80.4373C102.056 81.6298 101.194 82.5133 100.041 83.0877C98.902 83.6617 97.6946 83.9709 96.4193 84.0155C94.5324 84.0814 92.9204 83.623 91.5832 82.6404C90.259 81.6574 89.5672 80.3135 89.5076 78.6088C89.479 77.789 89.583 77.0362 89.8196 76.3505C90.0688 75.6513 90.3677 75.0676 90.7161 74.5994C91.0771 74.1177 91.5954 73.6632 92.271 73.2357C92.9596 72.8078 93.5668 72.4739 94.0926 72.234C94.618 71.9811 95.3516 71.721 96.2933 71.4536C97.2476 71.1727 97.9832 70.9712 98.5001 70.8489C99.017 70.7266 99.7802 70.5697 100.79 70.3781L100.098 66.7867C99.9712 66.1528 99.7332 65.679 99.3835 65.3655C99.0464 65.0385 98.6501 64.883 98.1946 64.8989C97.7652 64.9139 97.4065 65.0893 97.1186 65.425C96.8432 65.7473 96.779 66.147 96.9259 66.6239C97.2225 67.6558 97.0511 68.5282 96.4115 69.2411C95.7719 69.954 94.9056 70.3295 93.8125 70.3677C92.7715 70.404 91.9538 70.1199 91.3594 69.5152C90.778 68.9102 90.4682 68.0611 90.4301 66.968C90.3796 65.5236 91.0526 64.2754 92.4491 63.2234C93.858 62.1579 95.9874 61.5755 98.8373 61.4759C101.401 61.3864 103.526 61.9962 105.214 63.3053C106.913 64.6009 108.001 66.6541 108.477 69.4647L109.689 76.751C109.859 77.8656 110.163 78.7344 110.601 79.3575C111.04 79.9806 111.578 80.281 112.216 80.2588C112.567 80.2465 112.858 80.1842 113.089 80.0719ZM99.7013 79.5036C100.287 79.4832 100.816 79.152 101.289 78.5101C101.761 77.8552 101.983 77.1309 101.955 76.3371L101.217 72.552C98.3406 73.369 96.9371 74.7795 97.0071 76.7835C97.038 77.6684 97.3093 78.3494 97.8211 78.8267C98.3329 79.3039 98.9596 79.5295 99.7013 79.5036Z" fill="#2C2C2C"/>
<path d="M135.371 76.2451C135.652 78.3199 136.536 79.5723 138.023 80.0025L137.694 81.7728L126.9 82.1498L126.409 80.408C127.721 79.9062 128.216 78.6056 127.895 76.5061L126.652 68.3414C126.318 66.2164 125.389 65.187 123.867 65.2531C123.073 65.2809 122.467 65.6343 122.048 66.3134C121.628 66.9925 121.436 67.8396 121.472 68.8546L121.747 76.7209C121.819 78.8029 122.586 80.0595 124.047 80.4905L123.66 82.2629L112.866 82.6399L112.453 80.8954C113.79 80.3667 114.421 79.0613 114.349 76.9792L114.099 69.8351C114.025 67.701 113.29 66.4433 111.896 66.0621L112.225 64.2917C114.748 63.7997 117.403 62.5995 120.19 60.6912L120.795 60.6701L121.056 63.6706L121.33 63.661C122.613 61.6098 124.374 60.5451 126.612 60.4669C128.863 60.3883 130.618 61.0111 131.876 62.3352C133.133 63.6462 133.963 65.7605 134.364 68.678L135.371 76.2451Z" fill="#2C2C2C"/>
<path d="M160.524 83.5358C160.598 85.6699 161.339 86.9273 162.746 87.3081L162.399 89.1182L151.605 89.4952L151.152 87.713C152.516 87.2354 153.161 85.9296 153.087 83.7955L152.951 79.9111L152.678 79.9207C151.478 81.3827 149.798 82.1514 147.638 82.2269C144.84 82.3246 142.481 81.3581 140.56 79.3276C138.652 77.2966 137.641 74.648 137.527 71.3817C137.41 68.0244 138.193 65.274 139.877 63.1306C141.561 60.9872 143.861 59.8646 146.775 59.7628C149.469 59.6687 151.707 60.887 153.489 63.4175L153.821 63.4059C155.419 62.5293 156.769 61.4528 157.871 60.1766L159.706 60.1125L160.524 83.5358ZM149.989 78.4707C150.874 78.4398 151.549 78.0058 152.015 77.1687C152.493 76.3181 152.709 75.2097 152.661 73.8433C152.629 72.9324 152.503 71.9336 152.283 70.8469C152.075 69.7467 151.762 68.6176 151.344 67.4596C150.938 66.2882 150.364 65.3246 149.621 64.5688C148.89 63.7995 148.076 63.4306 147.178 63.4619C146.293 63.4928 145.606 63.9468 145.115 64.8238C144.625 65.7009 144.401 66.764 144.445 68.0132C144.473 68.8331 144.591 69.7865 144.799 70.8737C145.019 71.9604 145.333 73.1091 145.74 74.3195C146.159 75.5166 146.735 76.5192 147.467 77.3275C148.211 78.1223 149.052 78.5034 149.989 78.4707Z" fill="#2C2C2C"/>
<path d="M186.198 74.4311C186.273 76.5652 187.014 77.8226 188.421 78.2035L188.075 80.0526C185.329 80.1485 183.061 80.4948 181.271 81.0914L180.764 81.1092L179.419 77.3061L179.224 77.3129C177.687 79.9333 175.357 81.298 172.234 81.407C170.126 81.4807 168.396 80.831 167.045 79.458C165.694 78.072 164.97 75.9802 164.872 73.1824L164.686 67.8536C164.61 65.6674 163.882 64.416 162.503 64.0994L162.85 62.2893C166.059 61.6431 168.859 60.516 171.253 58.908L171.858 58.8869L172.369 73.5264C172.404 74.5154 172.73 75.2857 173.349 75.8374C173.967 76.376 174.757 76.6286 175.72 76.5949C176.579 76.5649 177.302 76.1944 177.89 75.4834C178.477 74.7723 178.754 73.9353 178.721 72.9724L178.525 67.3703C178.449 65.1842 177.708 63.9332 176.303 63.6175L176.65 61.8074C179.885 61.1602 182.673 60.0336 185.014 58.4275L185.638 58.4057L186.198 74.4311Z" fill="#2C2C2C"/>
<path d="M204.509 74.3975C206.396 74.3316 208.083 73.3932 209.57 71.5824L210.993 72.0408C210.937 74.1795 210.039 76.074 208.299 77.7243C206.572 79.3741 204.348 80.2465 201.629 80.3415C198.141 80.4633 195.278 79.4428 193.04 77.28C190.802 75.1172 189.63 72.5263 189.524 69.5073C189.404 66.0719 190.403 63.314 192.519 61.2337C194.634 59.1404 197.319 58.0369 200.572 57.9233C202.654 57.8506 204.486 58.2621 206.068 59.158C207.662 60.0404 208.821 61.3289 209.545 63.0234C209.925 63.8309 210.422 64.2631 211.036 64.3198L211.504 66.5119L198.14 71.1021C199.315 73.4063 201.438 74.5047 204.509 74.3975ZM199.818 61.5065C199.024 61.5342 198.343 61.9814 197.774 62.8482C197.217 63.7014 196.958 64.6876 196.997 65.8067C197.026 66.6266 197.091 67.3734 197.193 68.0474L203.045 66.0451C202.925 64.8506 202.588 63.7875 202.034 62.8557C201.494 61.9235 200.755 61.4738 199.818 61.5065Z" fill="#2C2C2C"/>
<path d="M223.373 79.5821C218.741 79.7439 216.351 77.7297 216.205 73.5396L215.796 61.828L212.146 61.9554L212.055 59.3593C213.846 58.7887 215.514 57.851 217.058 56.5463C218.602 55.2416 219.84 53.7717 220.773 52.1366L222.979 52.0596L223.183 57.8959L228.336 57.7159L228.464 61.3856L223.311 61.5655L223.725 73.4138C223.788 75.2226 224.509 76.1029 225.888 76.0547C226.708 76.0261 227.464 75.8368 228.155 75.487L228.942 78.4301C227.142 79.1313 225.286 79.5153 223.373 79.5821Z" fill="#2C2C2C"/>
<path d="M240.667 78.9782C236.035 79.14 233.645 77.1258 233.499 72.9356L233.09 61.224L229.44 61.3515L229.349 58.7554C231.14 58.1847 232.808 57.2471 234.352 55.9424C235.896 54.6377 237.134 53.1678 238.067 51.5327L240.273 51.4557L240.477 57.292L245.63 57.112L245.758 60.7816L240.605 60.9616L241.019 72.8098C241.082 74.6186 241.803 75.4989 243.182 75.4508C244.002 75.4222 244.758 75.2329 245.449 74.883L246.236 77.8261C244.436 78.5274 242.58 78.9114 240.667 78.9782Z" fill="#2C2C2C"/>
<path d="M262.364 72.3771C264.251 72.3112 265.938 71.3729 267.425 69.5621L268.848 70.0205C268.793 72.1592 267.895 74.0536 266.155 75.7039C264.427 77.3537 262.204 78.2261 259.484 78.3211C255.997 78.4429 253.134 77.4224 250.895 75.2596C248.657 73.0968 247.485 70.5059 247.38 67.4869C247.26 64.0515 248.258 61.2937 250.374 59.2133C252.49 57.12 255.174 56.0165 258.428 55.9029C260.51 55.8302 262.341 56.2418 263.923 57.1377C265.517 58.0201 266.676 59.3085 267.4 61.003C267.78 61.8106 268.277 62.2427 268.891 62.2994L269.359 64.4915L255.995 69.0818C257.17 71.3859 259.293 72.4844 262.364 72.3771ZM257.673 59.4861C256.879 59.5138 256.198 59.9611 255.629 60.8278C255.072 61.6811 254.814 62.6673 254.853 63.7864C254.881 64.6062 254.947 65.3531 255.048 66.027L260.9 64.0247C260.78 62.8302 260.443 61.7671 259.89 60.8354C259.349 59.9032 258.61 59.4534 257.673 59.4861Z" fill="#2C2C2C"/>
</svg>
