<svg width="322" height="105" viewBox="0 0 322 105" fill="none" xmlns="http://www.w3.org/2000/svg">
<path fill-rule="evenodd" clip-rule="evenodd" d="M50.272 44.8368C50.2581 44.6391 50.2476 44.4375 50.2404 44.2321L50.0543 38.9033C50.044 38.6068 50.0216 38.3274 49.9873 38.0653C49.8212 36.7968 49.3745 35.9311 48.6472 35.468C48.4167 35.3213 48.158 35.215 47.8712 35.1491L48.2184 33.339L48.2901 33.3245C49.5727 33.0628 50.7898 32.724 51.9416 32.3081C52.7222 32.0262 53.4728 31.7089 54.1933 31.3561C54.6098 31.1523 55.0162 30.9365 55.4126 30.709C55.8264 30.4715 56.2292 30.2211 56.6211 29.9578L57.2262 29.9366L57.7374 44.5761C57.7451 44.7965 57.7673 45.0059 57.804 45.2045L57.8117 45.245C57.9439 45.9194 58.2457 46.4667 58.7171 46.8871C59.3353 47.4258 60.1258 47.6783 61.0888 47.6446C61.3054 47.6371 61.5134 47.6078 61.7127 47.557C62.0167 47.4794 62.3007 47.3514 62.5645 47.173C62.8137 47.0046 63.045 46.7913 63.2583 46.5331C63.4607 46.2882 63.6262 46.0284 63.7549 45.7536C63.941 45.3562 64.05 44.9275 64.082 44.4676C64.0846 44.43 64.0867 44.3923 64.0882 44.3544C64.0928 44.2453 64.0931 44.1346 64.0892 44.0221L63.8935 38.42L63.8929 38.4015L63.8921 38.381C63.8254 36.6586 63.342 35.5227 62.4419 34.9732C62.2122 34.833 61.9554 34.731 61.6714 34.6672L62.0186 32.8571L62.0809 32.8445C63.6731 32.5224 65.1566 32.0837 66.5316 31.5283C66.7836 31.4265 67.0321 31.3208 67.2768 31.2111C68.3871 30.7138 69.4222 30.1358 70.3823 29.4772L71.0069 29.4554L71.5665 45.4808C71.5721 45.642 71.5816 45.7982 71.5948 45.9493C71.7313 47.5087 72.2722 48.536 73.2175 49.0313C73.2684 49.058 73.3205 49.0832 73.3738 49.1068C73.5052 49.165 73.6437 49.2137 73.7894 49.2532L73.4435 51.1023L73.2875 51.108C72.9131 51.1225 72.5477 51.1417 72.1913 51.1656C71.3427 51.2225 70.5452 51.3062 69.7987 51.4166C69.6196 51.4431 69.4435 51.4711 69.2703 51.5007C68.9294 51.5588 68.5999 51.623 68.2818 51.6931C67.6959 51.8222 67.1485 51.9716 66.6397 52.1412L66.1322 52.1589L64.7877 48.3558L64.5925 48.3626C64.5771 48.389 64.5615 48.4152 64.5459 48.4413C64.3584 48.7547 64.1593 49.0498 63.9486 49.3265C63.5119 49.9002 63.0255 50.3952 62.4895 50.8115C62.0955 51.1175 61.6746 51.381 61.227 51.602C60.1687 52.1244 58.9605 52.4093 57.6022 52.4567C57.2736 52.4682 56.9543 52.4621 56.6441 52.4385C56.272 52.4101 55.9132 52.3564 55.5676 52.2774C55.1482 52.1816 54.7482 52.0485 54.3678 51.8782C54.3547 51.8724 54.3416 51.8665 54.3286 51.8605C54.3175 51.8555 54.3064 51.8504 54.2954 51.8453C53.9917 51.7046 53.7006 51.5399 53.4221 51.3512C53.0654 51.1095 52.7293 50.8283 52.4139 50.5077C51.516 49.5868 50.8949 48.3542 50.5504 46.8099C50.4146 46.2007 50.3218 45.543 50.272 44.8368ZM50.4878 22.0052C49.9444 21.3938 49.3636 20.8024 48.745 20.2325C43.9221 15.7633 37.9472 13.4705 31.3313 13.7015C24.6875 13.9336 18.5663 16.3958 13.984 21.5541C9.45162 26.6561 7.67303 32.9713 7.90224 39.5349C8.04061 43.4972 9.00712 47.3366 10.9558 50.8471L7.50977 55.5724L19.8559 71.2028L27.1254 65.5176C28.7256 66.702 30.4576 67.5987 32.1651 68.2956C34.6558 69.312 37.2888 69.7778 39.9701 69.6842C41.3015 69.6377 42.6353 69.4363 43.9427 69.0614L42.3152 77.5461L46.2958 78.4601L46.3283 79.3901C46.4745 83.5774 47.6096 88.4759 51.3355 92.2975L51.3514 92.3138L51.3674 92.33C54.8824 95.9027 59.4223 97.4206 64.033 97.2596C64.4321 97.2457 64.8276 97.2205 65.2193 97.1843L65.2311 97.2178L74.5137 96.8936L75.8836 96.437C76.4545 96.2467 77.6914 95.9814 79.8743 95.9052L87.8819 95.6255L87.8893 95.5862L114.729 94.6489L115.265 91.7631C119.037 94.1458 123.361 95.1488 127.821 94.993C129.806 94.9237 131.871 94.6238 133.889 93.9798L164.726 92.903C166.533 93.3906 168.386 93.5765 170.217 93.5125C172.311 93.4394 174.348 93.024 176.284 92.2777C178.424 92.9699 180.553 93.1516 182.456 93.0851C184.351 93.0189 186.393 92.7057 188.393 91.986C190.251 92.5504 192.193 92.7841 194.149 92.7159C194.548 92.7019 194.944 92.6768 195.335 92.6405L195.347 92.674L204.63 92.3499L206 91.8932C206.57 91.703 207.807 91.4376 209.99 91.3614L217.998 91.0818L218.005 91.0424L279.043 88.9109L282.495 70.3394L277.819 68.9871L277.257 64.7609L277.253 64.7386C276.827 61.6375 275.902 58.041 273.761 54.9144L277.718 54.7762L279.088 54.3196C279.659 54.1293 280.896 53.864 283.079 53.7878L291.087 53.5081L291.094 53.4688L303.685 53.0291L306.717 38.8092C307.979 38.0456 309.121 37.0769 310.109 35.9296C312.618 33.018 313.752 29.4507 313.626 25.8297C313.492 21.9899 311.982 18.2634 308.919 15.4341C306.789 13.4568 304.254 12.2271 301.556 11.7408L301.517 11.3997L276.411 12.2764L276.163 12.4467L276.158 12.2853L262.703 12.7551L260.331 14.3488C259.26 15.0684 257.871 15.6962 256.027 16.1205C252.454 14.0592 248.43 13.2536 244.38 13.395C240.273 13.5384 236.247 14.6437 232.781 17.019C230.328 15.4746 227.573 14.5339 224.625 14.2528L224.598 14.0858L211.807 14.5325L209.195 16.6695C208.305 17.398 207.293 17.8934 206.002 18.1582L199.778 19.4345C197.31 17.2265 194.435 16.0508 191.554 15.5906L191.524 15.2408L178.526 15.6946L176.129 17.3363C174.518 18.4397 173.297 18.982 172.448 19.2359C168.798 17.0372 164.655 16.179 160.486 16.3246C158.922 16.3792 157.37 16.5733 155.856 16.9239L155.84 16.4868L155.395 16.5024C154.647 14.7187 153.539 13.1334 152.171 11.8025C149.068 8.75114 145.16 7.69407 141.603 7.81827C138.116 7.94006 134.411 9.22379 131.573 12.2921L121.886 12.6304L119.123 17.4734C118.917 17.8347 118.645 18.211 118.277 18.5998L112.816 18.7906C110.991 18.346 109.084 18.1196 107.12 18.1882C103.369 18.3192 99.65 19.3197 96.3448 21.4952L96.3221 21.4825C92.9223 19.5682 89.2281 18.8521 85.5916 18.9791C83.9114 19.0377 82.2644 19.2618 80.6709 19.6593L80.6518 19.1125L67.1249 19.5849L66.8768 19.7551L66.8711 19.5937L53.4163 20.0636L51.0443 21.6572C50.8677 21.7759 50.6824 21.8921 50.4878 22.0052ZM20.0625 55.3311L20.0695 55.3215C20.2153 55.122 20.3652 54.9301 20.5194 54.7457C20.5386 54.7227 20.5579 54.6998 20.5773 54.677C21.0337 54.1401 21.5263 53.6683 22.055 53.2616C22.3011 53.0724 22.5549 52.8972 22.8166 52.7362L22.8541 52.7133C23.2052 52.4996 23.5703 52.3113 23.9494 52.1481C24.0207 52.1175 24.0924 52.0877 24.1647 52.0588C24.1916 52.0481 24.2186 52.0374 24.2457 52.0269C24.4107 51.9628 24.5783 51.9033 24.7485 51.8484C24.857 51.8133 24.9667 51.7802 25.0773 51.7489C25.1223 51.7362 25.1674 51.7238 25.2127 51.7117L25.2059 51.5165L25.1528 51.4869C25.1092 51.4626 25.0658 51.438 25.0226 51.4132L24.994 51.3968L24.9437 51.3677C24.8711 51.3255 24.7989 51.2827 24.7272 51.2394C23.2689 50.3571 22.0103 49.2372 20.9514 47.8796C20.8603 47.7628 20.7706 47.6442 20.6825 47.5238C20.4551 47.2134 20.2375 46.8913 20.0297 46.5574L20.0072 46.5209C19.4448 45.6055 18.9941 44.6329 18.6553 43.6031C18.6445 43.5703 18.6338 43.5375 18.6233 43.5047C18.1922 42.1618 17.9498 40.7222 17.8962 39.186C17.8288 37.2567 18.0111 35.4784 18.4431 33.8511C19.0135 31.7027 20.0192 29.8175 21.4601 28.1955C21.7996 27.8133 22.1548 27.4554 22.5257 27.1218C24.3386 25.4913 26.5269 24.4407 29.0907 23.9698C29.9151 23.8184 30.7783 23.727 31.6803 23.6955C34.5509 23.5952 37.1579 24.2634 39.5013 25.7001L39.5403 25.7241L39.5908 25.7554C40.4128 26.2677 41.2021 26.875 41.9588 27.5774C43.5888 29.0765 44.7914 30.8275 45.5667 32.8304C45.7089 33.1978 45.8367 33.5737 45.9502 33.9581L45.9535 33.9692C46.0361 34.2498 46.111 34.5348 46.1782 34.8244C46.4243 35.8836 46.5679 37.0033 46.6091 38.1833C46.619 38.4666 46.623 38.7466 46.621 39.0232C46.6158 39.74 46.5706 40.4345 46.4856 41.1066C46.4779 41.1675 46.4699 41.2281 46.4615 41.2886C46.3654 41.9846 46.2259 42.6563 46.043 43.3038C45.9879 43.4989 45.9289 43.6918 45.8659 43.8825C45.8094 44.0539 45.7496 44.2234 45.6867 44.3911C45.6271 44.5501 45.5646 44.7075 45.4992 44.8633L45.4987 44.8646C44.9951 46.065 44.322 47.1707 43.4796 48.1814C43.0757 48.6687 42.6492 49.1216 42.2 49.5402C42.0553 49.6749 41.9084 49.8061 41.759 49.9338C41.722 49.9654 41.6848 49.9968 41.6475 50.028C41.6107 50.0588 41.5738 50.0894 41.5367 50.1198L41.5183 50.1348C41.4097 50.2233 41.3 50.31 41.1891 50.3949L41.1637 50.4142C40.6105 50.8355 40.0275 51.2116 39.4147 51.5426L39.338 51.5838C39.2576 51.6265 39.1767 51.6685 39.0954 51.7097C39.0283 51.7437 38.9608 51.7771 38.8931 51.81C38.8071 51.8518 38.7206 51.8927 38.6335 51.9328C38.6167 51.9405 38.5998 51.9483 38.5829 51.9559C38.5664 51.9635 38.5499 51.971 38.5333 51.9784L38.4883 51.9986C38.3792 52.0473 38.2692 52.0947 38.1583 52.1408L38.1185 52.1574C37.6456 52.3523 37.1572 52.5237 36.6532 52.6714L36.5725 52.6949C36.1474 52.8169 35.7113 52.9223 35.2642 53.011C35.1476 53.0342 35.0302 53.0562 34.912 53.077C34.8741 53.0837 34.8362 53.0903 34.7982 53.0967L34.805 53.2919L34.8337 53.3062C34.9831 53.3801 35.1324 53.4502 35.2819 53.5164C35.4514 53.5917 35.621 53.662 35.7907 53.7274L35.8285 53.7419C36.5123 54.0026 37.197 54.1839 37.8827 54.2858C38.3998 54.3626 38.9175 54.3942 39.4357 54.3806C39.4617 54.38 39.4877 54.3792 39.5137 54.3783C39.6324 54.3741 39.7497 54.3682 39.8657 54.3604L39.9014 54.3579C40.1909 54.3375 40.472 54.3056 40.7448 54.2623C41.3801 54.1615 41.9701 53.9987 42.5148 53.7739L42.5347 53.7656C42.5691 53.7513 42.6033 53.7368 42.6373 53.722C43.1599 53.4945 43.5885 53.2746 43.9231 53.0622C43.9725 53.0308 44.0199 52.9996 44.0652 52.9686C44.1482 52.9117 44.2243 52.8555 44.2935 52.7998C44.3085 52.7877 44.3232 52.7756 44.3375 52.7636C44.4028 52.7089 44.4614 52.6548 44.5134 52.6011L45.0025 52.0564L46.5221 53.0391C46.5118 53.135 46.4931 53.2454 46.4659 53.3704C46.4412 53.4841 46.4096 53.61 46.3709 53.7479C46.342 53.8513 46.2958 53.9835 46.2323 54.1445C46.2211 54.1727 46.2095 54.2019 46.1973 54.2319C46.0843 54.5101 45.9256 54.8644 45.7214 55.295C45.434 55.9009 45.1099 56.4515 44.7491 56.947C44.6681 57.0583 44.5853 57.1667 44.5006 57.2724C44.4344 57.355 44.364 57.4368 44.2895 57.5178C43.924 57.915 43.4582 58.2932 42.892 58.6524C42.7678 58.7312 42.6388 58.809 42.5049 58.886C41.7755 59.3114 40.9692 59.5689 40.086 59.6587C39.9587 59.6717 39.8297 59.6811 39.6991 59.6871C39.6832 59.6878 39.6671 59.6885 39.6511 59.6891C39.6411 59.6895 39.6311 59.6899 39.6211 59.6903C38.8748 59.7163 38.1455 59.6526 37.4332 59.499C36.9282 59.3901 36.4317 59.2361 35.9437 59.0369C35.8942 59.0168 35.8451 58.9965 35.7963 58.9761C35.685 58.9295 35.5754 58.8824 35.4676 58.8348C35.2906 58.7565 35.1185 58.6769 34.9511 58.5957C34.2031 58.2331 33.551 57.8412 32.9948 57.4201C32.9363 57.375 32.8767 57.3303 32.8159 57.2858C32.071 56.7409 31.1607 56.2462 30.085 55.8019C28.9217 55.3214 27.7154 55.103 26.4662 55.1466C26.3561 55.1504 26.2457 55.1572 26.1348 55.1668C25.7196 55.2029 25.2988 55.2795 24.8724 55.3968C24.6469 55.4588 24.4198 55.5322 24.1911 55.617C24.135 55.6378 24.0787 55.6592 24.0224 55.6814C23.3694 55.9488 22.8478 56.2156 22.4577 56.4818C22.3491 56.5559 22.2507 56.63 22.1625 56.704L21.5347 57.1949L20.0625 55.3311ZM30.1015 47.3196C29.5964 46.676 29.1351 45.9835 28.7178 45.2421L28.6981 45.207C28.4956 44.8453 28.3035 44.472 28.1218 44.0871C27.8181 43.444 27.5435 42.7684 27.298 42.0605L27.2906 42.0392C27.1776 41.7125 27.0708 41.3789 26.9702 41.0384C26.7592 40.3243 26.5753 39.6076 26.4183 38.8883C26.2298 38.0245 26.0803 37.1568 25.9697 36.2854C25.963 36.2326 25.9565 36.1797 25.9501 36.1269C25.9393 36.0381 25.9289 35.9494 25.919 35.8605L25.9094 35.7744C25.8304 35.0508 25.7782 34.3246 25.7527 33.5959C25.7341 33.0631 25.7521 32.5501 25.8066 32.0567C25.9212 31.0197 26.1974 30.0698 26.6352 29.2069C27.2813 27.9336 28.1379 27.2783 29.2049 27.241C30.1202 27.2091 30.996 27.4782 31.8324 28.0484C32.5062 28.5078 33.1544 29.1626 33.7771 30.0128C34.518 31.0085 35.1645 32.0869 35.7164 33.2479L35.7258 33.2678L35.7492 33.3174C35.8483 33.5278 35.9443 33.741 36.0372 33.9569L36.0545 33.9972C36.4068 34.8206 36.7144 35.6831 36.9772 36.5849C37.0684 36.8965 37.1545 37.2059 37.2355 37.513C37.3231 37.8454 37.4047 38.1751 37.4803 38.5021C37.8562 40.1279 38.0833 41.6872 38.1616 43.1799C38.1686 43.3133 38.1744 43.4461 38.179 43.5784C38.1812 43.6417 38.1829 43.7047 38.184 43.7674L38.1844 43.7928C38.1892 44.1059 38.1802 44.4122 38.1576 44.7118C38.1523 44.7809 38.1463 44.8497 38.1396 44.9181C38.1108 45.2123 38.0685 45.4998 38.0126 45.7806C37.9837 45.9259 37.9512 46.0694 37.915 46.2111C37.883 46.3365 37.8482 46.4605 37.8106 46.583C37.6708 47.0379 37.492 47.4736 37.2742 47.89C37.2249 47.9833 37.1743 48.0733 37.1225 48.1598C36.5922 49.0462 35.9349 49.5778 35.1505 49.7546C34.9874 49.7913 34.8187 49.8128 34.6446 49.8189C34.5092 49.8236 34.3746 49.8223 34.241 49.8151C33.7157 49.7866 33.2046 49.6656 32.708 49.452C31.7901 49.0574 30.9213 48.3465 30.1015 47.3196ZM79.5253 85.9112L79.3693 85.917C78.9949 85.9314 78.6295 85.9506 78.2731 85.9745C77.4245 86.0315 76.627 86.1151 75.8805 86.2255C75.7014 86.252 75.5253 86.28 75.3521 86.3096C74.3833 86.475 73.5065 86.6885 72.7215 86.9501L72.214 86.9678L70.8695 83.1648L70.6743 83.1716L70.6471 83.2178L70.6277 83.2503C70.4402 83.5636 70.2411 83.8587 70.0304 84.1355C69.5937 84.7091 69.1073 85.2041 68.5713 85.6205C68.1773 85.9265 67.7564 86.19 67.3088 86.4109C66.2505 86.9334 65.0423 87.2183 63.684 87.2657C62.9613 87.2909 62.2831 87.2312 61.6494 87.0864C61.23 86.9906 60.83 86.8575 60.4496 86.6872C60.4254 86.6764 60.4012 86.6654 60.3772 86.6542C59.6845 86.3334 59.0574 85.8876 58.4957 85.3167C57.2436 84.0324 56.5296 82.1422 56.3539 79.6458C56.3399 79.448 56.3294 79.2464 56.3222 79.0411L56.1361 73.7123C56.0757 71.9808 55.6066 70.8357 54.729 70.277C54.4985 70.1302 54.2398 70.0239 53.953 69.958L54.3002 68.148L54.3719 68.1334C55.6545 67.8717 56.8716 67.5329 58.0234 67.117C58.804 66.8351 59.5546 66.5178 60.2751 66.1651C61.1263 65.7484 61.9356 65.2823 62.7029 64.7667L63.308 64.7456L63.8192 79.3851C63.8269 79.6054 63.8491 79.8149 63.8858 80.0135L63.8935 80.054C64.0257 80.7283 64.3275 81.2757 64.7989 81.6961C65.4171 82.2347 66.2076 82.4872 67.1706 82.4536C67.3872 82.446 67.5952 82.4168 67.7945 82.3659C68.0985 82.2883 68.3825 82.1603 68.6463 81.982C68.8955 81.8136 69.1268 81.6003 69.3401 81.342C69.5425 81.0971 69.708 80.8373 69.8367 80.5625C69.8795 80.4711 69.9182 80.378 69.9529 80.2833C70.0688 79.9662 70.1391 79.6307 70.1637 79.2765C70.1664 79.239 70.1685 79.2013 70.17 79.1633C70.1746 79.0543 70.1749 78.9435 70.171 78.831L69.9753 73.229L69.9747 73.2104L69.9739 73.19C69.9585 72.7919 69.9208 72.4251 69.8609 72.0897C69.6615 70.9738 69.2157 70.2046 68.5237 69.7822C68.294 69.642 68.0372 69.54 67.7532 69.4761L68.1004 67.666L68.1627 67.6535C69.0815 67.4676 69.9642 67.2429 70.8107 66.9793C71.6807 66.7084 72.5125 66.3965 73.306 66.0436L73.3586 66.0201C74.4689 65.5227 75.504 64.9448 76.4641 64.2862L77.0887 64.2643L77.6483 80.2897L77.6497 80.3288C77.6555 80.4762 77.6644 80.6193 77.6766 80.7583C77.8131 82.3176 78.354 83.3449 79.2993 83.8403C79.3502 83.867 79.4023 83.8921 79.4556 83.9157C79.587 83.9739 79.7255 84.0227 79.8712 84.0621L79.5253 85.9112ZM81.1218 84.0575C81.2429 84.0096 81.3583 83.9553 81.4678 83.8946C82.132 83.5267 82.5835 82.9243 82.8222 82.0874C82.8726 81.9109 82.9135 81.7239 82.9449 81.5264C83.011 81.1109 83.0352 80.6492 83.0175 80.1413L82.768 72.9972C82.7592 72.7446 82.7411 72.5042 82.7138 72.276C82.5551 70.9512 82.0843 70.0408 81.3014 69.5449C81.0807 69.405 80.8351 69.2981 80.5647 69.2242L80.8937 67.4538C80.9169 67.4493 80.9401 67.4447 80.9633 67.4401C80.9948 67.4338 81.0263 67.4274 81.0578 67.4209C82.3778 67.1481 83.7336 66.6824 85.1254 66.0238C85.7661 65.7205 86.4145 65.3764 87.0705 64.9914L87.1192 64.9628C87.676 64.6344 88.2382 64.2766 88.806 63.8895L88.8589 63.8533L89.464 63.8322L89.7251 66.8327L89.9984 66.8232L90.0078 66.8081C90.1484 66.5843 90.2947 66.3723 90.4468 66.1721C90.5967 65.9747 90.7522 65.7887 90.9132 65.6142C91.3547 65.1358 91.838 64.7437 92.363 64.4378L92.3964 64.4185C93.2486 63.9296 94.21 63.6665 95.2807 63.6291C97.003 63.5689 98.4346 63.9193 99.5755 64.6801C99.9259 64.9138 100.249 65.1862 100.544 65.4973C101.573 66.5702 102.316 68.181 102.772 70.3298L102.78 70.3683C102.878 70.8338 102.962 71.3244 103.033 71.8401L104.04 79.4072C104.118 79.9812 104.241 80.4922 104.411 80.9403C104.579 81.3814 104.791 81.7616 105.048 82.0807C105.386 82.5013 105.802 82.816 106.296 83.0247C106.358 83.0508 106.421 83.0753 106.485 83.0981C106.553 83.1221 106.622 83.1442 106.692 83.1646L106.363 84.935L95.5689 85.3119L95.0781 83.5702C95.2299 83.5121 95.3709 83.4432 95.5008 83.3637C96.3549 82.8411 96.7364 81.856 96.6454 80.4084L96.6443 80.3913C96.6293 80.1618 96.6025 79.9208 96.5639 79.6683L95.7187 74.1149L95.7182 74.1122L95.6436 73.6219L95.3212 71.5035C95.2743 71.206 95.2158 70.9299 95.1456 70.6753L95.1348 70.6365C95.0533 70.348 94.9565 70.0876 94.8445 69.8552C94.3609 68.8515 93.5936 68.3715 92.5426 68.415L92.5359 68.4153C92.387 68.4205 92.2446 68.4371 92.1088 68.4653C92.091 68.469 92.0732 68.4729 92.0556 68.477C92.0468 68.479 92.0381 68.4811 92.0294 68.4832C91.4791 68.6182 91.0415 68.9489 90.7164 69.4755C90.703 69.4971 90.69 69.5188 90.6771 69.5407C90.4268 69.9671 90.2635 70.4578 90.187 71.0126C90.1737 71.109 90.163 71.2074 90.155 71.3078C90.1368 71.5342 90.132 71.7705 90.1406 72.0167L90.4153 79.883C90.424 80.1324 90.4427 80.3699 90.4713 80.5956L90.4718 80.5993C90.4988 80.8112 90.5346 81.0126 90.5791 81.2036C90.6267 81.4074 90.6843 81.5993 90.7519 81.7793C90.8165 81.9515 90.8903 82.1128 90.9733 82.2633C91.2785 82.8166 91.7077 83.2226 92.2608 83.4811C92.4043 83.5482 92.5561 83.6054 92.7162 83.6526L92.3287 85.4251L81.5345 85.802L81.1218 84.0575ZM148.581 81.7018L148.193 83.4742L137.399 83.8512L136.947 82.1081C137.082 82.0581 137.211 82.0002 137.332 81.9344C137.994 81.5749 138.445 80.9795 138.684 80.1483C138.733 79.9769 138.774 79.7955 138.805 79.604L138.811 79.5674C138.876 79.1545 138.9 78.6955 138.882 78.1905L138.297 61.4429C138.291 61.2567 138.279 61.0774 138.263 60.905C138.209 60.3365 138.102 59.8425 137.943 59.4228C137.859 59.204 137.761 59.0055 137.649 58.8272C137.638 58.81 137.628 58.7931 137.616 58.7763C137.608 58.7633 137.599 58.7504 137.591 58.7377C137.477 58.5721 137.351 58.4254 137.211 58.2975L137.186 58.2748C137.079 58.1802 136.965 58.0963 136.843 58.023C136.619 57.889 136.37 57.7907 136.096 57.7284L136.423 55.8995L136.515 55.881C136.571 55.8698 136.626 55.8585 136.682 55.8471C137.153 55.7496 137.616 55.642 138.071 55.5243L138.088 55.5197C138.251 55.4774 138.413 55.4338 138.574 55.3889C139.15 55.228 139.712 55.0505 140.26 54.8564C140.861 54.6436 141.445 54.4107 142.013 54.1579C143.165 53.6446 144.248 53.0489 145.263 52.3707L145.295 52.3488C145.338 52.3203 145.38 52.2916 145.422 52.2628L145.958 52.4982C145.951 52.5358 145.945 52.5737 145.938 52.6119C145.919 52.7189 145.901 52.8285 145.884 52.9406C145.878 52.9857 145.871 53.0312 145.864 53.0772L145.859 53.1138C145.824 53.3613 145.793 53.6209 145.766 53.8925C145.712 54.4413 145.673 55.0392 145.65 55.6859C145.648 55.7501 145.646 55.8147 145.644 55.8799C145.643 55.9266 145.641 55.9736 145.64 56.0208C145.64 56.0414 145.639 56.0621 145.639 56.0829C145.627 56.5466 145.624 57.0341 145.628 57.5452C145.63 57.8699 145.636 58.2042 145.645 58.548C145.65 58.7465 145.656 58.9483 145.663 59.1532L145.829 63.8964L146.16 63.8848C146.755 63.1471 147.479 62.5945 148.331 62.2272C148.381 62.2052 148.433 62.1839 148.485 62.1633C149.205 61.8767 150.013 61.7178 150.911 61.6864C151.961 61.6497 152.914 61.7547 153.77 62.0012C154.013 62.0711 154.248 62.1524 154.476 62.2452C154.952 62.4396 155.395 62.6841 155.803 62.9788C156.78 63.6846 157.56 64.6779 158.144 65.9587C158.247 66.184 158.343 66.4182 158.434 66.6613L158.453 66.7142C158.465 66.7462 158.477 66.7783 158.488 66.8106C158.81 67.7139 159.051 68.7365 159.21 69.8783L160.236 77.4448C160.27 77.679 160.312 77.9026 160.361 78.1158C160.364 78.131 160.368 78.1462 160.371 78.1614C160.374 78.175 160.378 78.1885 160.381 78.2019C160.466 78.5544 160.571 78.8773 160.696 79.1705C160.75 79.2971 160.808 79.4182 160.869 79.5338C160.979 79.7393 161.1 79.9273 161.233 80.0979C161.57 80.5297 161.984 80.8496 162.473 81.0575C162.548 81.0895 162.625 81.1189 162.704 81.1456C162.765 81.166 162.826 81.1849 162.888 81.2022L162.54 82.9732L151.746 83.3502L151.294 81.6071C151.431 81.5519 151.559 81.4884 151.678 81.4164C152.542 80.8947 152.943 79.9303 152.88 78.5232C152.879 78.4967 152.878 78.47 152.876 78.4432C152.863 78.2089 152.837 77.9627 152.799 77.7045L151.304 67.907C151.258 67.6337 151.191 67.3831 151.102 67.155C150.933 66.7235 150.686 66.3727 150.362 66.1028C149.865 65.6902 149.278 65.4957 148.602 65.5193C148.549 65.5212 148.497 65.5242 148.446 65.5284C148.373 65.5343 148.301 65.5426 148.23 65.5533C147.627 65.6448 147.115 65.9097 146.696 66.3481C146.521 66.5311 146.378 66.7374 146.268 66.967C146.222 67.0626 146.182 67.1623 146.147 67.266C146.026 67.6288 145.973 68.0411 145.99 68.5029L146.319 77.9308L146.319 77.95C146.325 78.1045 146.335 78.2543 146.348 78.3996C146.355 78.4865 146.365 78.5717 146.375 78.6553L146.379 78.6843C146.422 79.0209 146.487 79.3306 146.573 79.6134C146.627 79.7899 146.689 79.9559 146.76 80.1115C147.062 80.777 147.517 81.2511 148.125 81.5338C148.269 81.6005 148.42 81.6564 148.581 81.7018ZM136.376 77.4784C136.356 77.6057 136.334 77.7314 136.31 77.8555C136.282 78.0003 136.253 78.143 136.221 78.2834C136.138 78.6534 136.04 79.0081 135.927 79.3476C135.658 80.1612 135.307 80.8872 134.873 81.5255L134.859 81.5466L134.85 81.5603C134.518 82.0424 134.139 82.474 133.712 82.855C133.663 82.8991 133.613 82.9425 133.562 82.9852C133.25 83.2487 132.914 83.4865 132.553 83.6986C131.812 84.1349 130.967 84.4623 130.021 84.6808C129.241 84.8609 128.391 84.967 127.472 84.9991C127.437 85.0003 127.402 85.0014 127.367 85.0024C123.927 85.1002 121.092 84.0788 118.864 81.9383C118.838 81.9134 118.812 81.8884 118.786 81.8634C118.769 81.846 118.751 81.8287 118.733 81.8113C118.235 81.3195 117.791 80.8059 117.401 80.2705C116.315 78.7764 115.654 77.1124 115.418 75.2785C115.372 74.9145 115.342 74.5437 115.329 74.1663C115.286 72.9435 115.385 71.8065 115.625 70.7554C116.061 68.8535 116.96 67.2325 118.323 65.8927C118.725 65.4946 119.148 65.1322 119.592 64.8057L119.62 64.7854C121.177 63.6462 122.987 62.9468 125.051 62.6873C125.103 62.6808 125.155 62.6745 125.207 62.6685C125.588 62.6249 125.978 62.5962 126.376 62.5823C127.053 62.5586 127.705 62.5774 128.333 62.6384C128.362 62.6413 128.391 62.6442 128.42 62.6473C128.441 62.6495 128.462 62.6517 128.483 62.654C129.322 62.7452 130.116 62.913 130.867 63.1573L130.894 63.1664C130.924 63.176 130.953 63.1857 130.982 63.1955C131.509 63.3739 132.015 63.5907 132.498 63.8457C132.772 63.9897 133.038 64.146 133.297 64.3145C133.709 64.5803 134.079 64.8636 134.407 65.1644C134.589 65.3321 134.758 65.5051 134.914 65.6836L134.952 65.727C135.041 65.8316 135.126 65.9381 135.207 66.0465C135.234 66.0834 135.261 66.1205 135.288 66.1579C135.565 66.5492 135.784 66.964 135.945 67.4024C135.967 67.4627 135.988 67.5234 136.008 67.5846L136.025 67.6368C136.042 67.6903 136.058 67.7441 136.073 67.7983C136.168 68.1335 136.23 68.4816 136.261 68.8427C136.27 68.9456 136.276 69.0496 136.28 69.1547C136.296 69.6274 136.221 70.0785 136.053 70.5078C135.889 70.9295 135.636 71.3303 135.294 71.7102C134.776 72.2761 134.181 72.6391 133.509 72.799C133.387 72.828 133.263 72.8503 133.136 72.8659L133.094 72.8709C133.002 72.8811 132.909 72.8879 132.814 72.8912C132.374 72.9066 131.967 72.8795 131.596 72.8098C131.289 72.7523 131.005 72.6658 130.745 72.5503C130.574 72.4742 130.413 72.3855 130.262 72.2843C130.232 72.2638 130.202 72.2428 130.172 72.2213C129.948 72.059 129.747 71.8843 129.568 71.6971C129.394 71.5158 129.241 71.3228 129.109 71.1181C129.076 71.0675 129.045 71.0162 129.015 70.9642L128.994 70.9281C128.948 70.8463 128.905 70.7627 128.865 70.6774C128.853 70.6516 128.841 70.6256 128.83 70.5995C128.806 70.5449 128.783 70.4895 128.761 70.4335L128.713 70.2984C128.689 70.2319 128.665 70.1654 128.642 70.0991C128.624 70.048 128.606 69.9968 128.588 69.9458C128.527 69.773 128.468 69.6009 128.41 69.4295L128.36 69.2837C128.321 69.1682 128.283 69.0531 128.245 68.9383C128.176 68.7274 128.108 68.5176 128.042 68.3089C127.835 67.6125 127.515 67.0179 127.081 66.5249C127.039 66.476 126.996 66.4297 126.951 66.3859C126.815 66.2535 126.664 66.1445 126.498 66.0588C126.165 65.8866 125.771 65.8085 125.317 65.8243C124.549 65.8511 123.894 66.2975 123.351 67.1633C122.887 67.8913 122.639 68.8111 122.606 69.9228C122.605 69.9571 122.604 69.9916 122.603 70.0262C122.602 70.0804 122.602 70.135 122.602 70.1901C122.602 70.1992 122.602 70.2084 122.602 70.2176L122.602 70.2457C122.602 70.266 122.603 70.2864 122.603 70.3069C122.603 70.32 122.603 70.3331 122.604 70.3463C122.604 70.3858 122.605 70.4255 122.606 70.4654L122.608 70.5116C122.634 71.2473 122.697 71.9375 122.8 72.5821C122.807 72.6283 122.814 72.6744 122.822 72.7202C122.891 73.1309 122.977 73.5227 123.077 73.8957C123.247 74.5231 123.462 75.0971 123.721 75.6178C123.86 75.8963 124.012 76.1595 124.176 76.4075C124.307 76.6046 124.445 76.792 124.592 76.9697C124.873 77.3098 125.182 77.6088 125.518 77.8666C125.638 77.9588 125.761 78.0458 125.888 78.1274C126.306 78.3958 126.761 78.6074 127.254 78.7623C128.02 79.0029 128.877 79.1066 129.825 79.0735C130.723 79.0422 131.567 78.8238 132.36 78.4183C132.509 78.3416 132.657 78.2583 132.803 78.1683C132.868 78.1289 132.932 78.0894 132.994 78.0496C133.706 77.6 134.308 77.122 134.801 76.6158C134.83 76.5864 134.858 76.5569 134.886 76.5273C134.947 76.4621 135.007 76.3965 135.065 76.3304L136.469 76.809C136.443 77.0369 136.412 77.26 136.376 77.4784ZM149.018 46.6652L148.631 48.4376L137.837 48.8146L137.385 47.0714C137.52 47.0215 137.648 46.9636 137.77 46.8978C138.432 46.5383 138.882 45.9429 139.122 45.1117C139.159 44.9813 139.192 44.845 139.219 44.703C139.23 44.6465 139.24 44.5891 139.249 44.5308C139.259 44.4649 139.268 44.3978 139.277 44.3295C139.311 44.0429 139.327 43.7357 139.325 43.4077C139.324 43.3245 139.323 43.2398 139.32 43.1539L139.061 35.756C139.059 35.6951 139.056 35.6349 139.053 35.5753C138.993 34.4633 138.746 33.6027 138.31 32.9936C138.172 32.801 138.015 32.6335 137.84 32.4912C138.833 32.8217 139.896 33.0007 141 33.0007C142.97 33.0007 144.808 32.4305 146.357 31.4463L146.756 42.8942C146.779 43.5333 146.864 44.0941 147.011 44.5768C147.065 44.7533 147.127 44.9193 147.198 45.0749C147.414 45.551 147.708 45.9292 148.081 46.2094C148.229 46.3208 148.39 46.4168 148.563 46.4972L148.589 46.509C148.724 46.5705 148.868 46.6225 149.018 46.6652ZM132.403 28.1127L130.218 28.189L130.014 22.3527L127.808 22.4297L127.79 22.4616C127.254 23.395 126.619 24.2744 125.884 25.0998C125.342 25.7077 124.747 26.2863 124.097 26.8357L124.092 26.8394C123.634 27.2271 123.164 27.5823 122.683 27.9052C122.647 27.9294 122.611 27.9535 122.575 27.9774C122.303 28.1568 122.027 28.3259 121.748 28.4847C121.409 28.6777 121.065 28.8555 120.716 29.018C120.561 29.0901 120.405 29.1592 120.248 29.2252C119.868 29.3852 119.482 29.5276 119.09 29.6524L119.181 32.2485L122.831 32.121L123.24 43.8327C123.241 43.8785 123.243 43.924 123.245 43.9693C123.251 44.0952 123.259 44.2191 123.269 44.341C123.444 46.4554 124.243 47.9649 125.665 48.8695C126.163 49.1868 126.739 49.4297 127.391 49.5981C127.502 49.6267 127.615 49.6532 127.73 49.6775C127.787 49.6896 127.845 49.7012 127.903 49.7122C128.649 49.8531 129.484 49.9075 130.408 49.8752C131.054 49.8527 131.693 49.794 132.326 49.6991C132.564 49.6635 132.8 49.6228 133.036 49.577C133.721 49.4439 134.399 49.2678 135.068 49.0486C135.373 48.949 135.676 48.8405 135.977 48.7232L135.19 45.7801C135.09 45.8308 134.988 45.8781 134.885 45.9221C134.714 45.9954 134.538 46.0593 134.359 46.1139C134.021 46.2169 133.669 46.2865 133.304 46.3225C133.236 46.3292 133.167 46.3348 133.099 46.3392C133.04 46.3429 132.982 46.3457 132.923 46.3478C131.544 46.396 130.823 45.5157 130.759 43.7069L130.346 31.8586L135.499 31.6787L135.487 31.3453C134.232 30.5146 133.175 29.4083 132.403 28.1127ZM116.456 28.6695L118.103 35.5303L116.229 36.1625L116.201 36.1185C116.177 36.0803 116.153 36.0422 116.128 36.0044L116.105 35.97C115.998 35.8066 115.889 35.6469 115.777 35.4909C115.63 35.2849 115.479 35.0854 115.324 34.8922C114.942 34.4177 114.537 33.9817 114.107 33.5843C113.736 33.2416 113.348 32.9276 112.942 32.6423C112.908 32.6186 112.874 32.5951 112.84 32.5718C112.793 32.5391 112.745 32.5068 112.697 32.4749L112.687 32.4689L112.654 32.4468L112.64 32.4378C111.906 31.9508 111.21 31.597 110.552 31.3762L110.544 31.3736C110.384 31.3198 110.225 31.274 110.069 31.2362L110.039 31.229C109.728 31.1557 109.427 31.114 109.135 31.104C109.042 31.1009 108.951 31.1009 108.861 31.1041C108.334 31.1225 107.908 31.2443 107.584 31.4694C107.528 31.5079 107.476 31.5495 107.427 31.594C107.415 31.604 107.405 31.6141 107.394 31.6243C107.265 31.7417 107.162 31.8729 107.085 32.018C107.058 32.0683 107.034 32.1203 107.013 32.174C106.935 32.3765 106.9 32.6028 106.909 32.8529C106.925 33.321 107.114 33.7351 107.475 34.0952C107.538 34.1588 107.607 34.2208 107.682 34.281C107.805 34.3805 107.943 34.4754 108.095 34.5656L108.103 34.5701C108.117 34.5784 108.131 34.5867 108.146 34.595C108.163 34.605 108.181 34.6149 108.199 34.6248C108.341 34.7041 108.494 34.7837 108.659 34.8634C108.742 34.9032 108.827 34.9431 108.915 34.9831C108.93 34.9896 108.944 34.9961 108.958 35.0026C108.971 35.0084 108.985 35.0142 108.998 35.0201C109.087 35.0599 109.18 35.0999 109.275 35.1398L109.331 35.1628L109.35 35.1707C109.706 35.3178 110.101 35.4655 110.535 35.6139L110.559 35.6219C110.781 35.6977 111.013 35.7737 111.256 35.8499C111.334 35.8744 111.413 35.8988 111.492 35.9233L111.59 35.9532C112.083 36.1082 112.544 36.2644 112.975 36.4217C113.164 36.4907 113.347 36.56 113.524 36.6294C113.768 36.7255 114.002 36.822 114.223 36.9189C114.252 36.9314 114.281 36.944 114.309 36.9566C114.334 36.9675 114.358 36.9783 114.382 36.9892C114.486 37.036 114.591 37.0844 114.695 37.1344C114.94 37.2524 115.185 37.3794 115.43 37.5155C115.679 37.6537 115.927 37.8012 116.175 37.958C116.355 38.072 116.535 38.191 116.715 38.3148C116.742 38.333 116.769 38.3513 116.795 38.3698C116.876 38.4261 116.955 38.4834 117.032 38.5417C117.189 38.6606 117.338 38.7837 117.479 38.9109C117.908 39.2977 118.261 39.7227 118.539 40.1859C118.909 40.8022 119.131 41.4915 119.206 42.2537C119.218 42.3754 119.226 42.4988 119.23 42.6242C119.247 43.0941 119.229 43.5442 119.176 43.9745C119.151 44.186 119.117 44.3927 119.075 44.5946C119.023 44.8415 118.959 45.0812 118.882 45.3138C118.817 45.5134 118.742 45.7077 118.658 45.8968C118.227 46.8709 117.553 47.7059 116.637 48.4018C115.934 48.9348 115.145 49.3717 114.27 49.7123C112.903 50.2443 111.327 50.5416 109.542 50.6039C109.436 50.6076 109.325 50.6084 109.21 50.6062C108.308 50.5893 107.129 50.3925 105.671 50.016C105.413 49.9492 105.169 49.8875 104.94 49.831C104.296 49.6722 103.769 49.5538 103.357 49.4759C103.315 49.4679 103.273 49.4603 103.234 49.4532C103.121 49.4329 103.018 49.4161 102.924 49.4027C102.76 49.3791 102.625 49.3661 102.522 49.3638C102.472 49.3655 102.423 49.3685 102.374 49.3729C102.359 49.3741 102.345 49.3755 102.331 49.377L102.304 49.38L102.289 49.3818C102.217 49.3906 102.146 49.4023 102.076 49.4169C101.892 49.4554 101.718 49.5141 101.553 49.593C101.295 49.7042 101.097 49.8084 100.958 49.9056C100.938 49.9199 100.918 49.934 100.9 49.948L100.672 50.1124L100.067 50.1335L98.12 42.521L99.6659 42.0175C99.6864 42.0484 99.7071 42.0792 99.7279 42.1099C99.7414 42.1298 99.755 42.1497 99.7686 42.1695C99.7756 42.1796 99.7825 42.1897 99.7895 42.1998C99.9905 42.4907 100.202 42.7711 100.425 43.0411C100.453 43.0758 100.482 43.1104 100.511 43.1448C100.527 43.1631 100.542 43.1814 100.558 43.1997C100.894 43.5936 101.253 43.9645 101.636 44.3125C101.871 44.5256 102.114 44.7301 102.367 44.926C102.449 44.9898 102.532 45.0526 102.616 45.1146C102.948 45.3591 103.294 45.5893 103.655 45.8053L103.718 45.8433C103.846 45.9187 103.975 45.9924 104.107 46.0643C104.181 46.1046 104.255 46.1442 104.329 46.1828L104.393 46.2163C104.912 46.4861 105.417 46.7133 105.907 46.8978C106.083 46.9641 106.258 47.0249 106.43 47.0802C107.377 47.3841 108.268 47.5215 109.101 47.4924C109.216 47.4884 109.326 47.4816 109.432 47.472C109.525 47.4637 109.614 47.4532 109.7 47.4407C110.35 47.3461 110.826 47.1316 111.127 46.797C111.313 46.5913 111.432 46.3401 111.485 46.0435C111.495 45.9893 111.502 45.9337 111.508 45.8765C111.517 45.7791 111.52 45.6772 111.516 45.571C111.505 45.258 111.377 44.9446 111.132 44.6308C111.096 44.584 111.057 44.5372 111.015 44.4904C110.657 44.0888 110.108 43.6864 109.367 43.2834L109.295 43.2445L109.285 43.2392L109.253 43.2223C109.154 43.1698 109.052 43.1173 108.946 43.0648C108.861 43.0222 108.773 42.9795 108.683 42.9368C108.633 42.9129 108.581 42.8891 108.53 42.8652C108.421 42.8151 108.31 42.7649 108.196 42.7148C108.012 42.6341 107.82 42.5534 107.621 42.4727C107.239 42.3183 106.83 42.1638 106.393 42.0092L106.339 41.9902L106.325 41.9852C106.153 41.9247 105.976 41.8641 105.795 41.8035C105.256 41.6321 104.739 41.4397 104.245 41.2262L104.19 41.2023C104.079 41.1537 103.969 41.104 103.86 41.0532C103.632 40.947 103.41 40.8361 103.192 40.7204C103.032 40.6353 102.874 40.5475 102.719 40.4572C102.593 40.3839 102.47 40.3088 102.347 40.2321C102.298 40.201 102.249 40.1695 102.199 40.1377C101.86 39.918 101.535 39.6849 101.224 39.4384C101.141 39.3719 101.058 39.3043 100.976 39.2358C100.205 38.5833 99.6506 37.8518 99.3125 37.0412C99.0735 36.4681 98.9426 35.8556 98.9198 35.2035L98.9182 35.1535C98.9152 35.0459 98.9146 34.9393 98.9164 34.8339C98.9245 34.3547 98.9824 33.8979 99.09 33.4635C99.1185 33.3483 99.1506 33.2347 99.1861 33.1226C99.3057 32.7454 99.4649 32.3859 99.6638 32.0443C99.7214 31.9453 99.7825 31.8477 99.8468 31.7516C99.94 31.6125 100.04 31.4766 100.147 31.3438C100.475 30.9379 100.867 30.5613 101.325 30.2142C101.988 29.7117 102.709 29.3021 103.488 28.9851L103.553 28.959C103.871 28.8325 104.198 28.7213 104.535 28.6253C104.553 28.62 104.572 28.6147 104.591 28.6095C104.603 28.6059 104.616 28.6024 104.629 28.5989C104.802 28.5511 104.979 28.5074 105.158 28.4676C105.886 28.3056 106.657 28.2105 107.469 28.1821C107.893 28.1673 108.324 28.1801 108.76 28.2204C108.851 28.2288 108.943 28.2384 109.035 28.2493C109.797 28.3393 110.579 28.5124 111.379 28.7687L111.451 28.7916L111.502 28.8075C112.44 29.1023 113.129 29.2875 113.567 29.3631L113.588 29.3667C113.613 29.3709 113.637 29.3747 113.661 29.3781C113.778 29.3954 113.874 29.4034 113.948 29.4019L113.961 29.4016C114.22 29.3925 114.462 29.3611 114.687 29.3073L114.721 29.299C115.074 29.2101 115.384 29.0648 115.649 28.8633C115.704 28.8214 115.757 28.7771 115.809 28.7304L115.828 28.7128L115.851 28.6907L116.456 28.6695ZM96.0264 45.1437C95.8077 45.8452 95.4829 46.516 95.0519 47.1559C95.03 47.1885 95.0077 47.221 94.9853 47.2534C94.619 47.7814 94.1798 48.2883 93.6675 48.774C93.3902 49.0389 93.1 49.2838 92.797 49.5086C92.7748 49.5251 92.7526 49.5414 92.7303 49.5577L92.7005 49.5793C91.9086 50.1508 91.0309 50.5877 90.0673 50.8901C90.0474 50.8963 90.0274 50.9026 90.0073 50.9087C89.9875 50.9148 89.9676 50.9208 89.9477 50.9268C89.174 51.159 88.3457 51.3057 87.4629 51.367C87.3093 51.3776 87.154 51.3857 86.997 51.3912C86.8924 51.3948 86.7883 51.3975 86.6847 51.3991C85.5999 51.4158 84.5767 51.3196 83.6154 51.1104C83.4814 51.0812 83.3486 51.0499 83.217 51.0164C82.4418 50.8188 81.7081 50.545 81.0162 50.195C80.0689 49.716 79.1996 49.0942 78.4084 48.3297C77.5901 47.539 76.9143 46.6911 76.3811 45.786C76.2909 45.6329 76.2048 45.4781 76.1227 45.3217C75.8083 44.7223 75.5538 44.0989 75.3591 43.4515C75.0836 42.5349 74.9282 41.57 74.8928 40.557C74.8893 40.4559 74.8867 40.3554 74.8851 40.2555C74.875 39.6204 74.904 39.009 74.9721 38.4212C75.0245 37.969 75.1 37.5309 75.1987 37.1067C75.2336 36.9571 75.2713 36.8092 75.3119 36.663C75.5811 35.6937 75.9772 34.8013 76.5 33.9857C76.8913 33.3752 77.3537 32.8078 77.8871 32.2834C78.2674 31.9072 78.666 31.5629 79.083 31.2506L79.0956 31.2412C79.3006 31.0881 79.5101 30.9427 79.724 30.8051C80.1439 30.5349 80.5809 30.2944 81.0349 30.0836C82.2544 29.5176 83.5971 29.166 85.0631 29.0289C85.2528 29.0112 85.4446 28.997 85.6385 28.9865C85.7386 28.981 85.8393 28.9765 85.9406 28.973C87.3012 28.9255 88.555 29.0848 89.7019 29.4509C89.7537 29.4674 89.8053 29.4844 89.8567 29.5018C90.4083 29.6884 90.9348 29.9237 91.4362 30.2077C91.8071 30.413 92.1544 30.6402 92.4781 30.8894L92.5314 30.9308C92.7924 31.1354 93.0379 31.3544 93.2679 31.588C93.7348 32.0624 94.1376 32.5966 94.4762 33.1908C94.6361 33.4715 94.7818 33.7656 94.9131 34.0731C95.1368 34.5485 95.4011 34.8938 95.706 35.109C95.8259 35.1936 95.9521 35.2581 96.0845 35.3025L96.0974 35.3068C96.1963 35.3388 96.2987 35.3597 96.4045 35.3695L96.8719 37.5616L83.5084 42.1518C83.5462 42.2259 83.5849 42.2987 83.6246 42.3703C83.6693 42.4508 83.7153 42.5298 83.7624 42.6071C83.7851 42.6443 83.808 42.6811 83.8312 42.7175C84.1487 43.2154 84.5195 43.6454 84.9438 44.0074C85.4716 44.4578 86.0822 44.803 86.7753 45.0431C87.313 45.2293 87.9004 45.3523 88.5375 45.412C88.962 45.4518 89.4086 45.4636 89.8773 45.4472C90.0686 45.4405 90.2579 45.4249 90.4452 45.4002L90.4658 45.3975C90.7152 45.3638 90.9609 45.3141 91.203 45.2485C91.623 45.1347 92.032 44.9729 92.43 44.7631C92.4793 44.7372 92.5284 44.7105 92.5774 44.683C93.1 44.3899 93.6034 44.013 94.0877 43.5521C94.255 43.3929 94.42 43.2236 94.5827 43.0443C94.7025 42.9123 94.8211 42.7749 94.9384 42.6321L96.3615 43.0906C96.3571 43.2583 96.3476 43.4245 96.3328 43.5892C96.3277 43.6474 96.3218 43.7053 96.3153 43.763C96.3063 43.8439 96.2959 43.9244 96.2843 44.0045L96.2792 44.039C96.266 44.127 96.2513 44.2146 96.2351 44.3017C96.188 44.5546 96.1279 44.8043 96.055 45.0496C96.0457 45.081 96.0361 45.1124 96.0264 45.1437ZM109.465 60.6786C109.449 60.6548 109.432 60.6309 109.416 60.6071C109.495 60.6067 109.574 60.6058 109.654 60.6042C109.611 60.6586 109.568 60.7132 109.525 60.7679C109.505 60.7381 109.485 60.7083 109.465 60.6786ZM88.0339 35.289C88.0826 35.435 88.1273 35.5835 88.1677 35.7346C88.1826 35.7902 88.197 35.8462 88.2108 35.9025C88.2183 35.9333 88.2257 35.9643 88.2329 35.9953C88.2822 36.2078 88.3236 36.4251 88.357 36.6472C88.3676 36.7178 88.3774 36.7888 88.3865 36.8603C88.3954 36.931 88.4035 37.0023 88.4109 37.074L88.413 37.0948L85.7229 38.0153L82.5613 39.0971C82.4955 38.661 82.445 38.1944 82.4098 37.6973C82.3915 37.439 82.3773 37.1724 82.3673 36.8976L82.3658 36.8564L82.3652 36.8387L82.3649 36.8273L82.3644 36.8085C82.3342 35.7092 82.5934 34.7389 83.142 33.8979C83.711 33.0311 84.3924 32.5839 85.1862 32.5562C85.5037 32.5451 85.7984 32.5894 86.0703 32.6891C86.5175 32.853 86.9033 33.1667 87.2275 33.6302C87.288 33.7167 87.3464 33.8085 87.4026 33.9054C87.6591 34.337 87.869 34.7968 88.0324 35.2847L88.0339 35.289ZM150.12 37.93C150.094 37.1842 150.119 36.4688 150.193 35.7837C150.225 35.4915 150.266 35.2048 150.316 34.9237L150.321 34.8938C150.363 34.6635 150.41 34.4369 150.464 34.214C150.56 33.8168 150.676 33.4315 150.811 33.058C151.121 32.2019 151.533 31.4078 152.048 30.6759L152.049 30.6749C152.285 30.3387 152.543 30.0156 152.823 29.7057C153.496 28.9611 154.258 28.339 155.109 27.8392C155.301 27.7263 155.498 27.6196 155.699 27.5193C152.877 29.2869 151 32.4246 151 36.0007C151 41.5235 155.477 46.0006 161 46.0006C166.523 46.0006 171 41.5235 171 36.0007C171 31.8087 168.42 28.2192 164.762 26.7326C165.293 26.8775 165.8 27.0595 166.285 27.2786L166.334 27.3009C166.799 27.5145 167.244 27.7626 167.667 28.0451C168.147 28.3656 168.599 28.7306 169.024 29.1399C169.413 29.5114 169.767 29.9069 170.086 30.3263C170.442 30.7928 170.755 31.289 171.026 31.8149L171.059 31.8798C171.517 32.7853 171.851 33.7779 172.061 34.8577C172.113 35.1266 172.157 35.4009 172.194 35.6807C172.215 35.8457 172.234 36.0126 172.251 36.1813L172.259 36.2696C172.285 36.5593 172.303 36.8544 172.314 37.155C172.352 38.2506 172.28 39.2824 172.096 40.2504C172.07 40.3879 172.042 40.524 172.012 40.6589C171.905 41.1304 171.771 41.5862 171.61 42.0263C171.155 43.2696 170.482 44.3875 169.591 45.38C168.818 46.2414 167.929 46.9399 166.923 47.4755C166.148 47.8885 165.303 48.2046 164.389 48.4238C163.986 48.5204 163.569 48.5982 163.139 48.6572C162.65 48.7243 162.144 48.767 161.619 48.7853C160.634 48.8197 159.703 48.7638 158.828 48.6175C158.162 48.5063 157.528 48.3429 156.925 48.1272C156.696 48.0452 156.472 47.9556 156.252 47.8585L156.208 47.839C155.173 47.3759 154.24 46.7446 153.41 45.9451C152.863 45.4151 152.384 44.8393 151.973 44.2178C151.817 43.9824 151.671 43.7404 151.535 43.4919C151.401 43.2477 151.277 42.9972 151.162 42.7403C150.933 42.2273 150.741 41.689 150.586 41.1254C150.404 40.4607 150.274 39.7608 150.196 39.0257C150.159 38.6688 150.133 38.3035 150.12 37.93Z" fill="white"/>
<path d="M39.5147 54.3772C40.6859 54.3364 41.727 54.1176 42.6382 53.721C43.5494 53.3243 44.1748 52.9507 44.5143 52.6001L45.0034 52.0554L46.523 53.0381C46.5034 53.2212 46.453 53.4575 46.3719 53.7469C46.2908 54.0364 46.0743 54.5521 45.7224 55.294C45.3704 56.0359 44.9635 56.695 44.5016 57.2714C44.0396 57.8477 43.3744 58.3856 42.5059 58.885C41.6504 59.3839 40.6891 59.652 39.622 59.6892C38.3468 59.7338 37.121 59.516 35.9447 59.0359C34.7683 58.5559 33.7854 58.0169 32.9958 57.4191C32.2192 56.8208 31.2493 56.2815 30.086 55.8009C28.9227 55.3204 27.7164 55.1019 26.4672 55.1456C25.6734 55.1733 24.8588 55.3516 24.0234 55.6804C23.1885 56.0222 22.5685 56.3631 22.1634 56.703L21.5357 57.1939L20.0635 55.3301C21.4187 53.4718 23.1355 52.2653 25.2137 51.7107L25.2069 51.5155C23.0812 50.3389 21.3558 48.6859 20.0307 46.5564C18.7051 44.4138 17.9939 41.9567 17.8971 39.1849C17.7408 34.7085 18.9288 31.045 21.461 28.1945C23.9933 25.344 27.4001 23.8439 31.6813 23.6944C35.5982 23.5577 39.0243 24.8516 41.9598 27.5764C44.9077 30.2876 46.4579 33.8229 46.6101 38.1823C46.7496 42.1772 45.7064 45.5099 43.4805 48.1804C41.2677 50.8504 38.3739 52.4888 34.7991 53.0957L34.806 53.2909C36.3706 54.0701 37.9401 54.4322 39.5147 54.3772ZM29.2059 27.24C28.1388 27.2773 27.2823 27.9326 26.6362 29.2059C25.9901 30.4792 25.696 31.9422 25.7537 33.5948C25.8414 36.1063 26.2472 38.5872 26.9712 41.0374C27.6952 43.4875 28.7389 45.5813 30.1025 47.3186C31.4786 49.0425 32.993 49.8756 34.6456 49.8178C35.7387 49.7797 36.6152 49.1367 37.2752 47.889C37.9347 46.6282 38.2363 45.191 38.18 43.5774C38.1036 41.3912 37.703 39.0601 36.9781 36.5838C36.2528 34.0946 35.1861 31.9039 33.7781 30.0118C32.3826 28.1062 30.8585 27.1823 29.2059 27.24Z" fill="#2C2C2C"/>
<path d="M71.5675 45.4798C71.642 47.6139 72.3829 48.8713 73.7903 49.2521L73.4445 51.1013C70.6988 51.1972 68.4308 51.5434 66.6407 52.1401L66.1332 52.1579L64.7887 48.3548L64.5935 48.3616C63.0564 50.982 60.7263 52.3467 57.6032 52.4557C55.4951 52.5294 53.7657 51.8797 52.4148 50.5067C51.0636 49.1207 50.3391 47.0289 50.2414 44.2311L50.0553 38.9023C49.9789 36.7161 49.2512 35.4647 47.8721 35.1481L48.2193 33.338C51.4279 32.6918 54.2288 31.5647 56.6221 29.9567L57.2272 29.9356L57.7384 44.5751C57.7729 45.5641 58.0995 46.3344 58.7181 46.8861C59.3362 47.4247 60.1268 47.6773 61.0897 47.6436C61.9486 47.6136 62.6718 47.2431 63.2593 46.5321C63.8468 45.821 64.1238 44.984 64.0901 44.0211L63.8945 38.419C63.8182 36.2329 63.0774 34.9819 61.6723 34.6662L62.0195 32.8561C65.2541 32.2089 68.042 31.0823 70.3832 29.4762L71.0078 29.4544L71.5675 45.4798Z" fill="#2C2C2C"/>
<path d="M89.8782 45.4462C91.7651 45.3803 93.4521 44.4419 94.9393 42.6311L96.3624 43.0895C96.3068 45.2282 95.4089 47.1227 93.6685 48.773C91.9412 50.4228 89.7177 51.2952 86.998 51.3902C83.5105 51.5119 80.6476 50.4914 78.4093 48.3287C76.171 46.1659 74.9992 43.575 74.8937 40.556C74.7738 37.1206 75.7719 34.3627 77.8881 32.2824C80.0038 30.189 82.6883 29.0856 85.9415 28.972C88.0236 28.8993 89.8555 29.3108 91.4372 30.2067C93.0314 31.0891 94.1904 32.3776 94.914 34.0721C95.294 34.8796 95.7912 35.3118 96.4055 35.3685L96.8729 37.5605L83.5093 42.1508C84.6842 44.455 86.8072 45.5534 89.8782 45.4462ZM85.1872 32.5552C84.3934 32.5829 83.712 33.0301 83.1429 33.8969C82.5864 34.7501 82.3277 35.7363 82.3668 36.8554C82.3954 37.6752 82.4606 38.4221 82.5623 39.0961L88.414 37.0938C88.2941 35.8993 87.9573 34.8362 87.4036 33.9044C86.8629 32.9722 86.1241 32.5224 85.1872 32.5552Z" fill="#2C2C2C"/>
<path d="M109.543 50.6029C108.606 50.6356 107.316 50.4396 105.672 50.0149C104.029 49.5903 102.979 49.3729 102.523 49.3628C102.171 49.375 101.848 49.4514 101.553 49.592C101.258 49.7196 101.041 49.8379 100.901 49.947L100.673 50.1114L100.068 50.1325L98.121 42.52L99.6668 42.0165C100.794 43.71 102.275 45.0589 104.108 46.0632C105.954 47.0671 107.618 47.5432 109.102 47.4914C110.755 47.4337 111.56 46.7932 111.517 45.57C111.473 44.3207 109.566 43.0649 105.796 41.8025C103.912 41.2038 102.306 40.3479 100.977 39.2347C99.6611 38.1211 98.9758 36.777 98.9208 35.2025C98.849 33.1464 99.6508 31.4833 101.326 30.2132C103.002 28.943 105.05 28.2656 107.47 28.1811C108.719 28.1375 110.022 28.333 111.38 28.7677C112.75 29.2019 113.61 29.4129 113.962 29.4006C114.756 29.3729 115.386 29.1359 115.852 28.6896L116.457 28.6685L118.104 35.5293L116.23 36.1615C115.238 34.5936 114.041 33.352 112.641 32.4368C111.241 31.5086 109.981 31.064 108.862 31.103C108.224 31.1253 107.735 31.2987 107.395 31.6233C107.054 31.9349 106.892 32.3444 106.91 32.8519C106.934 33.5416 107.332 34.114 108.103 34.5691C108.888 35.0238 110.051 35.4848 111.591 35.9521C112.672 36.2923 113.602 36.6376 114.383 36.9882C115.164 37.3387 115.942 37.7806 116.716 38.3138C117.503 38.8465 118.111 39.4702 118.54 40.1849C118.969 40.8995 119.199 41.7123 119.231 42.6232C119.318 45.0956 118.453 47.0215 116.638 48.4008C114.836 49.7666 112.471 50.5006 109.543 50.6029Z" fill="#2C2C2C"/>
<path d="M130.409 49.8742C125.776 50.036 123.387 48.0218 123.241 43.8316L122.832 32.12L119.182 32.2475L119.091 29.6514C120.882 29.0808 122.549 28.1431 124.093 26.8384C125.637 25.5337 126.876 24.0638 127.809 22.4287L130.015 22.3517L130.218 28.188L135.372 28.008L135.5 31.6777L130.347 31.8576L130.76 43.7059C130.824 45.5146 131.545 46.395 132.924 46.3468C133.744 46.3182 134.5 46.1289 135.191 45.7791L135.978 48.7221C134.178 49.4234 132.322 49.8074 130.409 49.8742Z" fill="#2C2C2C"/>
<path d="M145.374 24.5514C144.621 25.3724 143.574 25.8063 142.234 25.8531C140.907 25.8995 139.839 25.5459 139.031 24.7924C138.236 24.0254 137.819 23.1084 137.782 22.0414C137.745 20.9743 138.096 20.0175 138.835 19.1708C139.586 18.3107 140.626 17.8575 141.953 17.8112C143.294 17.7644 144.369 18.1437 145.179 18.9493C146.001 19.7414 146.431 20.671 146.468 21.738C146.504 22.7791 146.14 23.7168 145.374 24.5514ZM137.837 48.8135L137.386 47.0704C138.749 46.5668 139.394 45.261 139.321 43.1529L139.062 35.755C138.988 33.6209 138.253 32.3697 136.86 32.0015L137.187 30.1921C140.319 29.6006 143.127 28.4863 145.611 26.8492L146.196 26.8287L146.757 42.8932C146.831 45.0013 147.585 46.2583 149.019 46.6642L148.632 48.4366L137.837 48.8135Z" fill="#2C2C2C"/>
<path d="M169.592 45.379C167.661 47.531 165.004 48.6661 161.62 48.7843C158.237 48.9024 155.501 47.9557 153.411 45.9441C151.334 43.932 150.238 41.2603 150.121 37.929C150.004 34.5717 150.905 31.8302 152.824 29.7046C154.756 27.5656 157.427 26.4366 160.836 26.3175C164.219 26.1994 166.949 27.1398 169.025 29.1389C171.101 31.125 172.198 33.7966 172.315 37.154C172.431 40.4853 171.524 43.227 169.592 45.379ZM163.013 45.0029C164.639 44.9461 165.401 43.4408 165.298 40.4868C165.277 39.8752 165.136 39.0332 164.878 37.9609C164.632 36.8881 164.279 35.7344 163.819 34.4997C163.372 33.2645 162.742 32.2116 161.93 31.341C161.131 30.4699 160.276 30.0503 159.365 30.0821C157.764 30.138 157.023 31.6622 157.14 34.6547C157.165 35.3704 157.301 36.2712 157.547 37.357C157.794 38.4428 158.146 39.5835 158.605 40.7792C159.064 41.9748 159.685 42.9889 160.47 43.8214C161.254 44.6409 162.102 45.0347 163.013 45.0029Z" fill="#2C2C2C"/>
<path d="M196.961 41.14C197.242 43.2148 198.126 44.4673 199.613 44.8974L199.284 46.6678L188.49 47.0447L187.999 45.303C189.311 44.8012 189.806 43.5005 189.485 41.4011L188.243 33.2363C187.908 31.1113 186.979 30.0819 185.457 30.1481C184.663 30.1758 184.057 30.5292 183.638 31.2083C183.218 31.8874 183.026 32.7345 183.062 33.7495L183.337 41.6158C183.409 43.6979 184.176 44.9544 185.638 45.3854L185.25 47.1579L174.456 47.5348L174.043 45.7903C175.38 45.2616 176.012 43.9562 175.939 41.8741L175.689 34.73C175.615 32.5959 174.88 31.3382 173.486 30.957L173.815 29.1866C176.338 28.6946 178.994 27.4944 181.78 25.5861L182.385 25.565L182.646 28.5655L182.92 28.556C184.203 26.5047 185.964 25.44 188.202 25.3619C190.453 25.2833 192.208 25.906 193.466 27.2301C194.723 28.5412 195.553 30.6554 195.954 33.5729L196.961 41.14Z" fill="#2C2C2C"/>
<path d="M222.361 24.169C225.133 24.0722 227.473 25.0458 229.381 27.0899C231.303 29.1334 232.32 31.7883 232.434 35.0546C232.551 38.3859 231.773 41.123 230.102 43.2659C228.431 45.4089 226.138 46.5313 223.224 46.6331C221.168 46.7049 219.412 46.0561 217.957 44.6868L217.684 44.6963L217.819 48.5807C217.894 50.7148 218.628 51.9725 220.023 52.3537L219.734 54.1618L208.94 54.5387L208.487 52.7566C209.851 52.279 210.496 50.9731 210.422 48.839L209.887 33.5358C209.813 31.4017 209.059 30.1447 207.625 29.7648L208.012 27.9534C210.845 27.3724 213.35 26.1904 215.529 24.4076L216.134 24.3865L216.533 26.8545L216.826 26.8443C217.613 25.8787 218.423 25.2055 219.257 24.8246C220.103 24.4303 221.138 24.2117 222.361 24.169ZM222.781 42.9158C223.666 42.8849 224.354 42.4439 224.846 41.5929C225.336 40.7289 225.56 39.6593 225.515 38.384C225.487 37.5642 225.362 36.6109 225.142 35.5242C224.934 34.437 224.621 33.3014 224.202 32.1174C223.795 30.9199 223.22 29.9238 222.475 29.129C221.744 28.3207 220.909 27.9329 219.972 27.9656C219.088 27.9965 218.412 28.437 217.947 29.2871C217.494 30.1237 217.291 31.2122 217.338 32.5525C217.37 33.4634 217.49 34.469 217.697 35.5692C217.918 36.6559 218.224 37.7852 218.617 38.9571C219.022 40.1156 219.59 41.0729 220.32 41.8291C221.05 42.5854 221.87 42.9476 222.781 42.9158Z" fill="#2C2C2C"/>
<path d="M253.487 42.4493C251.555 44.6014 248.898 45.7365 245.515 45.8546C242.131 45.9728 239.395 45.026 237.305 43.0144C235.228 41.0023 234.132 38.3306 234.016 34.9993C233.898 31.642 234.799 28.9006 236.718 26.775C238.65 24.636 241.321 23.5069 244.73 23.3879C248.113 23.2697 250.843 24.2102 252.919 26.2092C254.995 28.1953 256.092 30.867 256.209 34.2243C256.325 37.5556 255.418 40.2973 253.487 42.4493ZM246.907 42.0733C248.534 42.0165 249.295 40.5111 249.192 37.5572C249.171 36.9456 249.031 36.1036 248.772 35.0313C248.526 33.9584 248.173 32.8047 247.713 31.57C247.266 30.3349 246.636 29.282 245.824 28.4113C245.025 27.5403 244.17 27.1206 243.259 27.1524C241.658 27.2083 240.917 28.7325 241.034 31.725C241.059 32.4408 241.195 33.3415 241.441 34.4273C241.688 35.5131 242.04 36.6539 242.499 37.8495C242.958 39.0452 243.579 40.0593 244.364 40.8918C245.148 41.7112 245.996 42.1051 246.907 42.0733Z" fill="#2C2C2C"/>
<path d="M280.854 38.1713C280.928 40.3054 281.669 41.5629 283.077 41.9437L282.731 43.7928C279.985 43.8887 277.717 44.235 275.927 44.8317L275.42 44.8494L274.075 41.0464L273.88 41.0532C272.343 43.6735 270.013 45.0382 266.89 45.1473C264.782 45.2209 263.052 44.5712 261.701 43.1983C260.35 41.8123 259.626 39.7204 259.528 36.9226L259.342 31.5939C259.265 29.4077 258.538 28.1563 257.159 27.8396L257.506 26.0295C260.714 25.3833 263.515 24.2562 265.909 22.6483L266.514 22.6272L267.025 37.2667C267.059 38.2557 267.386 39.026 268.005 39.5776C268.623 40.1163 269.413 40.3688 270.376 40.3352C271.235 40.3052 271.958 39.9347 272.546 39.2236C273.133 38.5126 273.41 37.6756 273.377 36.7126L273.181 31.1106C273.105 28.9244 272.364 27.6735 270.959 27.3577L271.306 25.5476C274.541 24.9005 277.329 23.7739 279.67 22.1677L280.294 22.1459L280.854 38.1713Z" fill="#2C2C2C"/>
<path d="M298.662 21.5045C300.015 21.4573 301.17 21.8795 302.126 22.7711C303.082 23.6497 303.584 24.7853 303.633 26.1776C303.676 27.4269 303.31 28.5015 302.534 29.4016C301.77 30.2881 300.816 30.7514 299.67 30.7914C298.877 30.8191 298.214 30.6989 297.684 30.4308C297.166 30.1492 296.796 29.8104 296.574 29.4143C296.351 29.0051 296.154 28.6016 295.984 28.2036C295.827 27.8052 295.626 27.467 295.382 27.1889C295.15 26.8973 294.865 26.7574 294.527 26.7692C293.707 26.7979 293.324 27.7623 293.377 29.6627L293.659 37.7242C293.733 39.8583 294.487 41.1153 295.921 41.4952L295.534 43.3066L284.74 43.6836L284.287 41.9014C285.651 41.4238 286.296 40.118 286.222 37.9839L285.975 30.9179C285.901 28.7838 285.166 27.5261 283.772 27.1448L284.099 25.3354C285.187 25.1411 286.238 24.8373 287.253 24.424C288.268 24.0107 289.062 23.6312 289.637 23.2854C290.21 22.9266 291.007 22.4103 292.025 21.7363L292.631 21.7151L292.968 24.6739L293.164 24.6671C294.383 22.6441 296.216 21.5899 298.662 21.5045Z" fill="#2C2C2C"/>
<path d="M77.6493 80.2887C77.7238 82.4228 78.4647 83.6803 79.8721 84.0611L79.5263 85.9102C76.7806 86.0061 74.5126 86.3524 72.7225 86.9491L72.215 86.9668L70.8705 83.1638L70.6753 83.1706C69.1382 85.7909 66.8081 87.1556 63.685 87.2647C61.5769 87.3383 59.8475 86.6886 58.4966 85.3157C57.1454 83.9297 56.4209 81.8378 56.3232 79.04L56.1371 73.7113C56.0607 71.5251 55.333 70.2737 53.954 69.957L54.3011 68.1469C57.5097 67.5007 60.3106 66.3736 62.7039 64.7657L63.309 64.7446L63.8202 79.3841C63.8547 80.3731 64.1813 81.1434 64.7999 81.695C65.418 82.2337 66.2086 82.4862 67.1715 82.4526C68.0304 82.4226 68.7536 82.0521 69.3411 81.341C69.9286 80.63 70.2056 79.793 70.1719 78.83L69.9763 73.228C69.9 71.0418 69.1592 69.7909 67.7541 69.4751L68.1013 67.665C71.3359 67.0179 74.1238 65.8913 76.465 64.2851L77.0896 64.2633L77.6493 80.2887Z" fill="#2C2C2C"/>
<path d="M104.041 79.4062C104.322 81.481 105.206 82.7334 106.693 83.1636L106.364 84.934L95.5698 85.3109L95.0791 83.5691C96.3905 83.0673 96.8857 81.7667 96.5649 79.6673L95.3222 71.5025C94.9874 69.3775 94.0589 68.3481 92.5369 68.4143C91.7431 68.442 91.1366 68.7954 90.7173 69.4745C90.2981 70.1536 90.1061 71.0007 90.1416 72.0157L90.4163 79.882C90.489 81.964 91.256 83.2206 92.7172 83.6516L92.3296 85.424L81.5354 85.801L81.1227 84.0565C82.4593 83.5278 83.0912 82.2224 83.0185 80.1403L82.769 72.9962C82.6945 70.8621 81.96 69.6044 80.5656 69.2232L80.8947 67.4528C83.4181 66.9608 86.0732 65.7606 88.8598 63.8523L89.4649 63.8312L89.726 66.8317L89.9993 66.8222C91.2827 64.7709 93.0435 63.7062 95.2817 63.6281C97.5329 63.5494 99.2875 64.1722 100.545 65.4963C101.803 66.8074 102.632 68.9216 103.034 71.8391L104.041 79.4062Z" fill="#2C2C2C"/>
<path d="M127.473 84.9981C123.985 85.1199 121.116 84.0996 118.865 81.9373C116.613 79.7749 115.435 77.1843 115.33 74.1653C115.21 70.7299 116.208 67.972 118.324 65.8917C120.44 63.7983 123.124 62.6949 126.377 62.5813C129.071 62.4872 131.378 63.0646 133.298 64.3135C135.217 65.5493 136.211 67.1627 136.281 69.1537C136.313 70.0906 135.985 70.9425 135.295 71.7092C134.605 72.4629 133.778 72.8566 132.815 72.8902C131.722 72.9284 130.841 72.7051 130.173 72.2203C129.505 71.7355 129.034 71.1396 128.762 70.4325C128.503 69.712 128.263 69.0037 128.043 68.3079C127.836 67.6115 127.516 67.0169 127.082 66.5239C126.661 66.0305 126.073 65.797 125.318 65.8233C124.55 65.8501 123.895 66.2965 123.352 67.1623C122.808 68.0151 122.561 69.1312 122.609 70.5106C122.707 73.3344 123.369 75.4871 124.593 76.9687C125.818 78.4503 127.562 79.1516 129.826 79.0725C130.893 79.0352 131.886 78.7335 132.804 78.1672C133.735 77.6005 134.489 76.9879 135.066 76.3294L136.47 76.808C135.859 82.0799 132.86 84.81 127.473 84.9981Z" fill="#2C2C2C"/>
<path d="M160.237 77.4438C160.545 79.5437 161.429 80.7961 162.889 81.2012L162.541 82.9722L151.747 83.3492L151.295 81.606C152.605 81.0782 153.107 79.7774 152.8 77.7035L151.305 67.9059C151.173 67.1158 150.859 66.5144 150.363 66.1018C149.866 65.6892 149.279 65.4947 148.603 65.5183C147.835 65.5451 147.2 65.8214 146.697 66.3471C146.194 66.8727 145.959 67.591 145.99 68.5019L146.32 77.9298C146.393 80.0379 147.147 81.2949 148.582 81.7008L148.194 83.4732L137.4 83.8502L136.948 82.107C138.312 81.6034 138.956 80.2976 138.883 78.1895L138.298 61.4419C138.223 59.2817 137.489 58.0436 136.097 57.7274L136.424 55.8984C139.866 55.218 142.865 54.0058 145.423 52.2618L145.959 52.4972C145.664 54.11 145.565 56.3284 145.664 59.1522L145.83 63.8954L146.161 63.8838C147.285 62.4895 148.869 61.7567 150.912 61.6854C155.662 61.5195 158.428 64.2502 159.211 69.8773L160.237 77.4438Z" fill="#2C2C2C"/>
<path d="M186.538 79.574L187.238 81.1521C186.082 82.3651 184.372 83.0111 182.108 83.0902C179.18 83.1924 177.247 82.1395 176.31 79.9312L176.076 79.9394C175.505 81.1319 174.644 82.0154 173.491 82.5898C172.352 83.1638 171.144 83.473 169.869 83.5176C167.982 83.5835 166.37 83.1251 165.033 82.1426C163.709 81.1595 163.017 79.8157 162.957 78.111C162.929 77.2912 163.033 76.5384 163.269 75.8526C163.518 75.1534 163.817 74.5697 164.166 74.1015C164.527 73.6199 165.045 73.1653 165.721 72.7378C166.409 72.3099 167.016 71.976 167.542 71.7361C168.068 71.4833 168.801 71.2231 169.743 70.9557C170.697 70.6749 171.433 70.4733 171.95 70.351C172.467 70.2287 173.23 70.0718 174.239 69.8802L173.547 66.2889C173.421 65.6549 173.183 65.1811 172.833 64.8676C172.496 64.5406 172.1 64.3851 171.644 64.401C171.215 64.416 170.856 64.5914 170.568 64.9272C170.293 65.2495 170.229 65.6491 170.376 66.126C170.672 67.158 170.501 68.0304 169.861 68.7432C169.222 69.4561 168.355 69.8316 167.262 69.8698C166.221 69.9061 165.403 69.622 164.809 69.0174C164.228 68.4123 163.918 67.5632 163.88 66.4701C163.829 65.0257 164.502 63.7775 165.899 62.7255C167.308 61.6601 169.437 61.0776 172.287 60.9781C174.85 60.8885 176.976 61.4983 178.663 62.8074C180.363 64.1031 181.451 66.1562 181.927 68.9668L183.139 76.2532C183.308 77.3677 183.612 78.2366 184.051 78.8596C184.49 79.4827 185.028 79.7831 185.665 79.7609C186.017 79.7486 186.308 79.6863 186.538 79.574ZM173.151 79.0058C173.737 78.9853 174.266 78.6541 174.738 78.0123C175.211 77.3574 175.433 76.633 175.405 75.8392L174.667 72.0541C171.79 72.8711 170.387 74.2816 170.457 76.2856C170.488 77.1705 170.759 77.8516 171.271 78.3288C171.782 78.806 172.409 79.0317 173.151 79.0058Z" fill="#2C2C2C"/>
<path d="M207.765 75.745C207.84 77.8791 208.581 79.1365 209.988 79.5173L209.642 81.3665C206.897 81.4624 204.629 81.8087 202.838 82.4053L202.331 82.4231L200.986 78.62L200.791 78.6268C199.254 81.2472 196.924 82.6119 193.801 82.7209C191.693 82.7946 189.963 82.1449 188.613 80.7719C187.261 79.3859 186.537 77.2941 186.439 74.4963L186.253 69.1675C186.177 66.9813 185.449 65.7299 184.07 65.4133L184.417 63.6032C187.626 62.957 190.427 61.8299 192.82 60.2219L193.425 60.2008L193.936 74.8403C193.971 75.8293 194.297 76.5996 194.916 77.1513C195.534 77.6899 196.325 77.9425 197.288 77.9088C198.146 77.8788 198.87 77.5083 199.457 76.7973C200.045 76.0862 200.322 75.2492 200.288 74.2863L200.092 68.6842C200.016 66.4981 199.275 65.2471 197.87 64.9314L198.217 63.1213C201.452 62.4741 204.24 61.3475 206.581 59.7414L207.206 59.7196L207.765 75.745Z" fill="#2C2C2C"/>
<path d="M226.901 59.0318C229.438 58.9432 230.751 60.1481 230.838 62.6466C230.877 63.7657 230.24 65.8595 228.927 68.9281L223.753 80.8346L219.03 80.9996L213.277 68.4779C212.291 66.3756 211.017 65.1367 209.453 64.7614L209.761 62.9527C213.126 62.301 215.495 61.1108 216.868 59.3822L217.473 59.361L223.591 72.8276L223.786 72.8208L226.009 67.6229C226.126 67.267 226.184 67.037 226.18 66.9329C226.171 66.6726 226.012 66.4111 225.703 66.1483C225.407 65.872 225.086 65.6291 224.739 65.4197C224.406 65.1969 224.081 64.8369 223.764 64.3398C223.46 63.8423 223.296 63.2618 223.273 62.5981C223.237 61.5571 223.539 60.7126 224.181 60.0649C224.823 59.4171 225.73 59.0727 226.901 59.0318Z" fill="#2C2C2C"/>
<path d="M240.542 56.2493C239.789 57.0704 238.743 57.5043 237.402 57.5511C236.075 57.5975 235.007 57.2439 234.199 56.4904C233.404 55.7234 232.987 54.8064 232.95 53.7393C232.913 52.6723 233.264 51.7154 234.003 50.8688C234.755 50.0087 235.794 49.5555 237.121 49.5092C238.462 49.4624 239.537 49.8417 240.347 50.6473C241.169 51.4394 241.599 52.369 241.636 53.436C241.673 54.477 241.308 55.4148 240.542 56.2493ZM233.006 80.5115L232.554 78.7684C233.917 78.2648 234.562 76.9589 234.489 74.8509L234.23 67.453C234.156 65.3189 233.422 64.0677 232.028 63.6995L232.355 61.8901C235.488 61.2986 238.295 60.1843 240.779 58.5472L241.365 58.5267L241.926 74.5912C241.999 76.6992 242.753 77.9562 244.187 78.3622L243.8 80.1346L233.006 80.5115Z" fill="#2C2C2C"/>
<path d="M268.355 73.6682C268.636 75.743 269.52 76.9955 271.007 77.4256L270.678 79.196L259.884 79.5729L259.393 77.8312C260.704 77.3294 261.2 76.0287 260.879 73.9293L259.636 65.7646C259.301 63.6395 258.373 62.6101 256.851 62.6763C256.057 62.704 255.45 63.0574 255.031 63.7365C254.612 64.4156 254.42 65.2627 254.455 66.2777L254.73 74.144C254.803 76.2261 255.57 77.4826 257.031 77.9137L256.644 79.6861L245.849 80.063L245.437 78.3185C246.773 77.7898 247.405 76.4844 247.332 74.4023L247.083 67.2583C247.008 65.1241 246.274 63.8665 244.88 63.4852L245.209 61.7148C247.732 61.2228 250.387 60.0227 253.174 58.1143L253.779 58.0932L254.04 61.0937L254.313 61.0842C255.597 59.0329 257.357 57.9682 259.596 57.8901C261.847 57.8115 263.601 58.4342 264.859 59.7583C266.117 61.0694 266.946 63.1836 267.348 66.1011L268.355 73.6682Z" fill="#2C2C2C"/>
</svg>
